<?xml version="1.0" encoding="utf-8"?>
<!-- Generator: Adobe Illustrator 16.0.0, SVG Export Plug-In . SVG Version: 6.00 Build 0)  -->
<!DOCTYPE svg PUBLIC "-//W3C//DTD SVG 1.1//EN" "http://www.w3.org/Graphics/SVG/1.1/DTD/svg11.dtd">
<svg version="1.1"
	 id="Ebene_1" xmlns:rdf="http://www.w3.org/1999/02/22-rdf-syntax-ns#" xmlns:dc="http://purl.org/dc/elements/1.1/" xmlns:cc="http://creativecommons.org/ns#"
	 xmlns="http://www.w3.org/2000/svg" xmlns:xlink="http://www.w3.org/1999/xlink" x="0px" y="0px" width="566.93px"
	 height="202.382px" viewBox="0 0 566.93 202.382" enable-background="new 0 0 566.93 202.382" xml:space="preserve">
<g>
	<path fill-rule="evenodd" clip-rule="evenodd" fill="#262222" d="M60.762,97.449c10.85,0,21.701-0.028,32.551,0.013
		c5.195,0.02,9.183,2.276,11.797,6.811c1.258,2.184,1.605,4.59,1.604,7.072c-0.005,8.556,0.01,17.111-0.021,25.668
		c-0.003,0.83,0.246,1.303,0.939,1.785c5.095,3.543,8.083,8.374,8.219,14.642c0.141,6.534-2.773,11.58-8.198,15.168
		c-0.698,0.461-1.072,0.919-0.951,1.765c0.06,0.419,0.049,0.858,0.004,1.281c-0.257,2.399,0.196,4.124,2.538,5.716
		c3.652,2.482,4.476,6.503,3.536,10.726c-0.929,4.172-3.734,6.703-7.751,7.889c-1.42,0.419-2.94,0.135-4.412,0.176
		c-9.99,0.278-19.983,0.137-29.975,0.187c-0.706,0.003-0.91-0.21-0.981-0.901c-0.217-2.078-0.874-4.011-2.19-5.681
		c-3.663-4.641-11.19-4.095-14.166,1.02c-0.855,1.469-1.359,3.047-1.514,4.726c-0.06,0.646-0.279,0.837-0.921,0.834
		c-10.069-0.053-20.14,0.101-30.207-0.188c-0.583-0.017-1.172-0.07-1.749-0.011c-4.504,0.473-9.102-3.511-10.14-7.541
		c-1.301-5.055,0.518-9.87,4.87-12.345c0.861-0.489,1.199-0.998,1.127-1.986c-0.099-1.354-0.063-2.722-0.009-4.081
		c0.028-0.709-0.224-1.096-0.819-1.485c-4.556-2.977-7.528-7.047-8.169-12.544c-0.848-7.272,1.976-12.957,7.832-17.183
		c0.862-0.622,1.168-1.229,1.164-2.264c-0.04-8.479-0.001-16.957-0.031-25.435c-0.016-4.559,1.551-8.351,5.201-11.173
		c2.428-1.877,5.234-2.655,8.27-2.657C39.061,97.445,49.911,97.449,60.762,97.449z M60.762,102.082
		c-10.813,0-21.626,0.004-32.438-0.004c-1.957-0.002-3.771,0.434-5.38,1.587c-2.638,1.89-3.606,4.556-3.604,7.688
		c0.005,9.451-0.016,18.902,0.029,28.354c0.005,1.006-0.315,1.443-1.196,1.914c-4.959,2.653-8.033,6.663-7.929,12.465
		c0.102,5.681,3.2,9.484,8.263,11.779c0.626,0.285,0.858,0.606,0.851,1.298c-0.035,3.578-0.052,7.156,0.008,10.734
		c0.016,0.959-0.236,1.318-1.213,1.521c-3.465,0.726-5.323,3.18-5.144,6.579c0.165,3.13,2.659,5.484,5.783,5.512
		c1.942,0.016,3.883,0.139,5.824,0.146c7.467,0.03,14.935,0.022,22.402,0.062c0.674,0.003,0.936-0.234,1.146-0.83
		c0.68-1.928,1.752-3.622,3.158-5.117c5.32-5.658,17.922-5.646,21.855,4.832c0.342,0.911,0.767,1.121,1.666,1.116
		c9.292-0.045,18.584-0.024,27.877-0.152c2.246-0.031,5.042-2.186,5.549-4.354c0.885-3.789-1.061-6.972-5.014-7.805
		c-0.933-0.196-1.169-0.548-1.157-1.447c0.049-3.539,0.045-7.079,0.001-10.617c-0.011-0.819,0.236-1.211,1.008-1.548
		c3.342-1.452,5.857-3.808,7.229-7.221c2.61-6.497-0.513-13.878-7.199-17.03c-0.793-0.374-1.043-0.797-1.04-1.657
		c0.032-9.567,0.037-19.136,0.014-28.704c-0.013-5.553-3.605-9.1-9.146-9.102C82.232,102.08,71.497,102.082,60.762,102.082z"/>
	<path fill-rule="evenodd" clip-rule="evenodd" fill="#252223" d="M503.585,163.878c0-10.422,0.016-20.844-0.025-31.267
		c-0.004-0.987,0.254-1.196,1.209-1.189c6.65,0.046,13.301,0.083,19.949-0.009c2.221-0.031,4.329,0.08,6.287,1.228
		c0.844,0.495,1.614,1.083,2.298,1.773c0.352,0.354,0.521,0.381,0.874-0.038c1.51-1.793,3.458-2.67,5.815-2.661
		c4.121,0.013,8.246,0.072,12.366-0.013c6.074-0.126,10.146,4.322,10.079,10.109c-0.207,17.887-0.087,35.777-0.047,53.666
		c0.002,1.126-0.259,1.403-1.385,1.388c-5.095-0.068-10.189-0.057-15.283-0.005c-0.948,0.01-1.121-0.281-1.119-1.157
		c0.026-14.855,0.019-29.711,0.019-44.567c0-0.311,0.03-0.627-0.009-0.933c-0.099-0.776-0.317-1.455-1.303-1.478
		c-0.975-0.023-1.529,0.49-1.75,1.375c-0.093,0.368-0.044,0.773-0.044,1.162c-0.001,14.622,0.002,29.244-0.006,43.867
		c0,1.772,0.244,1.502-1.563,1.508c-4.977,0.013-9.956-0.02-14.934,0.024c-0.895,0.009-1.148-0.199-1.146-1.129
		c0.032-14.816,0.022-29.634,0.022-44.45c0-0.312,0.036-0.628-0.011-0.933c-0.141-0.938-0.623-1.646-1.632-1.653
		c-1.029-0.006-1.46,0.75-1.613,1.665c-0.051,0.303-0.01,0.621-0.01,0.933c0,14.699-0.015,29.399,0.028,44.1
		c0.004,1.068-0.302,1.248-1.281,1.237c-4.861-0.052-9.723-0.065-14.583,0.009c-1.095,0.017-1.227-0.339-1.224-1.296
		C503.598,184.723,503.585,174.301,503.585,163.878z M532.949,140.54c-0.2-0.384-0.312-0.588-0.415-0.796
		c-1.72-3.449-4.372-5.252-8.359-5.13c-5.284,0.162-10.573,0.146-15.859,0.161c-0.772,0.003-0.973,0.223-0.972,0.982
		c0.02,18.824,0.021,37.648-0.002,56.472c-0.001,0.752,0.24,0.896,0.927,0.886c2.722-0.036,5.445-0.058,8.166,0.01
		c0.944,0.022,1.222-0.183,1.218-1.182c-0.04-11.745-0.025-23.491-0.025-35.236c0-2.412-0.027-4.823,0.008-7.234
		c0.03-1.958,1.355-3.633,3.179-4.134c2.422-0.665,4.342-0.089,5.501,1.631c0.777,1.155,0.887,2.452,0.886,3.79
		c-0.005,13.729,0.004,27.458-0.019,41.188c-0.002,0.853,0.126,1.206,1.109,1.182c2.994-0.076,5.99-0.052,8.983-0.011
		c0.71,0.011,0.918-0.16,0.909-0.894c-0.042-3.383-0.019-6.767-0.019-10.15c0-10.695-0.004-21.39,0.003-32.086
		c0.002-1.951,1.079-3.614,2.801-4.16c1.815-0.576,4.6-0.686,5.859,0.965c0.906,1.189,0.904,2.525,0.904,3.883
		c0.005,13.769,0.013,27.535-0.019,41.304c-0.002,0.92,0.234,1.161,1.148,1.144c3.071-0.059,6.146-0.051,9.216-0.002
		c0.809,0.012,1.035-0.193,1.033-1.021c-0.025-16.841-0.012-33.682-0.023-50.521c-0.004-4.106-2.278-6.352-6.366-6.357
		c-4.045-0.005-8.089,0.037-12.134-0.015c-2.571-0.034-4.548,1.063-6.212,2.907C533.776,138.779,533.453,139.615,532.949,140.54z"/>
	<path fill-rule="evenodd" clip-rule="evenodd" fill="#272324" d="M387.166,160.19c0,8.866-0.104,17.734,0.036,26.599
		c0.098,6.221-5.111,9.922-9.839,9.85c-8.281-0.125-16.565-0.047-24.848-0.017c-0.862,0.003-1.179-0.146-1.166-1.11
		c0.059-4.626,0.044-9.255,0.007-13.882c-0.005-0.774,0.22-0.96,0.971-0.955c5.094,0.032,10.188-0.011,15.282,0.04
		c0.993,0.01,1.474-0.185,1.278-1.26c-0.056-0.301-0.042-0.625-0.002-0.931c0.088-0.674-0.196-0.844-0.847-0.838
		c-3.267,0.029-6.536-0.087-9.798,0.034c-7.064,0.263-9.933-4.29-9.962-9.79c-0.064-11.86-0.017-23.72-0.031-35.581
		c0-0.611,0.103-0.885,0.813-0.881c5.443,0.029,10.888,0.041,16.331-0.008c0.939-0.008,0.854,0.469,0.854,1.076
		c-0.006,9.099-0.008,18.198,0.01,27.298c0.001,0.456-0.31,1.199,0.29,1.326c0.811,0.171,1.707,0.114,2.531-0.04
		c0.365-0.068,0.179-0.695,0.18-1.064c0.009-9.061,0.037-18.121-0.027-27.182c-0.01-1.238,0.363-1.43,1.479-1.416
		c5.132,0.06,10.266,0.049,15.397,0.004c0.872-0.008,1.085,0.205,1.081,1.08C387.153,141.757,387.166,150.974,387.166,160.19z
		 M384.089,161.587c0-8.479-0.016-16.958,0.021-25.438c0.004-0.92-0.233-1.162-1.148-1.144c-2.994,0.061-5.99,0.062-8.984-0.001
		c-0.928-0.02-1.15,0.247-1.147,1.157c0.036,7.856,0.022,15.713,0.019,23.569c0,0.426,0.002,0.859-0.079,1.273
		c-0.566,2.907-3.275,4.436-6.586,3.735c-1.726-0.364-2.829-1.474-3.109-3.192c-0.112-0.688-0.177-1.389-0.178-2.085
		c-0.013-7.74-0.024-15.479,0.014-23.22c0.005-0.934-0.172-1.268-1.184-1.24c-2.799,0.075-5.603,0.078-8.4-0.002
		c-1.036-0.029-1.276,0.248-1.271,1.274c0.042,10.385,0.021,20.77,0.026,31.154c0.002,4.788,2.639,7.424,7.403,7.425
		c4.123,0.002,8.245,0.015,12.368-0.014c0.687-0.006,0.983,0.128,0.941,0.889c-0.064,1.164-0.002,2.333-0.021,3.5
		c-0.022,1.544-0.697,2.741-1.936,3.662c-1.229,0.916-2.646,1.06-4.095,1.066c-3.617,0.015-7.234,0.041-10.851-0.021
		c-0.994-0.017-1.223,0.285-1.192,1.234c0.073,2.293,0.075,4.591-0.001,6.884c-0.03,0.92,0.276,1.067,1.113,1.063
		c7.078-0.034,14.157-0.02,21.236-0.02c4.692,0,7.038-2.332,7.039-7.008C384.091,177.924,384.089,169.755,384.089,161.587z"/>
	<path fill-rule="evenodd" clip-rule="evenodd" fill="#272324" d="M198.657,165c5.631,3.437,11.06,6.756,16.501,10.054
		c0.431,0.262,0.568,0.553,0.558,1.031c-0.024,1.127-0.054,2.259,0.021,3.383c0.084,1.263,1.169,1.961,2.292,1.566
		c0.723-0.252,1.047-0.75,0.963-1.515c-0.042-0.385-0.162-0.789-0.089-1.151c0.537-2.71-0.602-4.245-3.049-5.484
		c-3.556-1.801-6.905-4.017-10.315-6.1c-3.695-2.259-6.407-5.282-7.101-9.725c-0.166-1.064-0.099-2.173-0.083-3.26
		c0.069-4.625-0.178-9.253,0.13-13.875c0.3-4.516,3.714-7.722,8.269-8.434c1.08-0.17,2.162-0.225,3.253-0.204
		c5.596,0.106,11.2-0.253,16.789,0.204c5.224,0.428,9.003,3.834,9.897,8.807c0.055,0.305,0.089,0.617,0.089,0.925
		c0.005,7.546,0.004,15.091,0.004,22.637c0,0.14,0,0.279,0,0.646c-1.967-1.295-3.77-2.48-5.571-3.667
		c-3.859-2.541-7.709-5.096-11.585-7.611c-0.559-0.363-0.794-0.745-0.757-1.409c0.05-0.892,0.033-1.791-0.028-2.682
		c-0.06-0.873-0.446-1.467-1.468-1.406c-0.997,0.058-1.79,0.353-1.817,1.508c-0.029,1.244,0.042,2.49,0.014,3.732
		c-0.011,0.485,0.26,0.691,0.591,0.904c4.762,3.072,9.473,6.229,14.301,9.193c4.229,2.596,6.575,6.06,6.355,11.188
		c-0.17,3.959-0.032,7.932-0.034,11.899c-0.003,5.855-4.636,10.487-10.49,10.488c-5.64,0-11.287-0.195-16.916,0.051
		c-6.424,0.279-9.907-4.508-10.589-9.439c-0.137-0.995-0.127-2.016-0.129-3.023c-0.01-6.029-0.005-12.058-0.005-18.086
		C198.657,165.843,198.657,165.541,198.657,165z M233.553,157.926c0-5.202,0.001-10.29,0-15.378
		c-0.002-4.482-3.514-7.975-8.052-7.984c-5.677-0.012-11.354-0.01-17.032-0.001c-3.662,0.005-6.648,3.005-6.652,6.671
		c-0.005,4.627,0.074,9.256-0.035,13.881c-0.05,2.133,0.637,3.859,1.979,5.421c0.92,1.068,1.978,1.964,3.167,2.726
		c4.899,3.146,9.785,6.31,14.677,9.464c0.424,0.273,0.822,0.491,0.805,1.141c-0.052,1.982,0.021,3.967-0.049,5.948
		c-0.09,2.495-2.334,4.48-4.926,4.456c-2.724-0.027-4.745-2.009-4.773-4.683c-0.005-0.505-0.042-1.016,0.01-1.516
		c0.065-0.63-0.187-0.994-0.729-1.299c-1.386-0.78-2.743-1.612-4.11-2.428c-1.951-1.163-3.899-2.329-5.981-3.573
		c-0.032,0.562-0.067,0.937-0.072,1.312c-0.055,4.468-0.046,8.938-0.174,13.403c-0.148,5.158,3.705,7.817,7.792,7.81
		c5.6-0.011,11.2,0.005,16.799-0.005c4.545-0.008,7.2-2.512,7.306-7.087c0.105-4.508,0.018-9.021,0.064-13.53
		c0.014-1.269-0.344-2.363-1.075-3.367c-1.185-1.63-2.731-2.852-4.407-3.931c-4.829-3.111-9.643-6.246-14.494-9.322
		c-0.724-0.459-0.981-0.943-0.949-1.777c0.064-1.67,0.019-3.344,0.019-5.016c0.001-2.887,1.667-4.6,4.569-4.698
		c2.273-0.077,4.54,1.676,4.358,3.761c-0.179,2.062,0.637,3.16,2.382,3.871c0.249,0.102,0.469,0.272,0.702,0.412
		C227.629,154.377,230.585,156.149,233.553,157.926z"/>
	<path fill-rule="evenodd" clip-rule="evenodd" fill="#262223" d="M307.072,165.005c5.64,3.438,11.099,6.771,16.568,10.085
		c0.403,0.243,0.484,0.531,0.478,0.951c-0.018,1.128-0.048,2.259,0.012,3.383c0.066,1.265,1.118,1.976,2.26,1.63
		c0.689-0.209,1.047-0.632,1.014-1.36c-0.02-0.427-0.136-0.873-0.051-1.278c0.581-2.791-0.696-4.31-3.14-5.558
		c-3.482-1.781-6.759-3.964-10.125-5.975c-3.462-2.069-6.003-4.877-7.093-8.849c-0.209-0.762-0.193-1.54-0.193-2.316
		c-0.004-4.589,0.093-9.181-0.026-13.768c-0.166-6.439,3.687-10.376,9.848-10.588c6.208-0.212,12.443-0.352,18.653,0.141
		c4.989,0.395,8.661,3.589,9.728,8.287c0.094,0.413,0.145,0.846,0.146,1.269c0.009,7.583,0.007,15.168,0.005,22.751
		c0,0.152-0.02,0.304-0.043,0.629c-2.178-1.429-4.272-2.798-6.363-4.175c-3.535-2.327-7.059-4.672-10.609-6.975
		c-0.588-0.381-0.859-0.779-0.818-1.493c0.051-0.889,0.022-1.789-0.062-2.675c-0.081-0.853-0.447-1.475-1.487-1.39
		c-1.236,0.102-1.82,0.549-1.838,1.628c-0.021,1.203,0.059,2.408,0.059,3.612c0,0.464,0.253,0.686,0.597,0.907
		c4.799,3.089,9.569,6.22,14.395,9.265c2.929,1.85,5.269,4.104,5.991,7.642c0.139,0.678,0.173,1.387,0.175,2.083
		c0.016,4.512,0.013,9.023,0.006,13.534c-0.009,5.646-4.652,10.239-10.346,10.239c-5.678,0.002-11.363-0.181-17.032,0.049
		c-6.099,0.247-9.499-4.019-10.446-8.643c-0.187-0.916-0.269-1.839-0.266-2.778C307.078,178.583,307.072,171.895,307.072,165.005z
		 M342.005,157.93c0.057-0.227,0.106-0.329,0.106-0.432c-0.05-5.247-0.091-10.495-0.164-15.741c-0.017-1.214-0.25-2.391-1.002-3.408
		c-1.801-2.438-4.194-3.769-7.242-3.782c-5.561-0.024-11.122-0.009-16.683-0.006c-3.826,0.001-6.786,2.947-6.791,6.769
		c-0.007,4.666,0.048,9.334-0.025,14c-0.03,1.904,0.56,3.491,1.743,4.921c0.975,1.176,2.091,2.175,3.383,3.003
		c4.936,3.16,9.851,6.355,14.779,9.526c0.443,0.286,0.766,0.543,0.749,1.17c-0.051,1.826-0.005,3.655-0.022,5.482
		c-0.015,1.427-0.462,2.685-1.639,3.574c-1.632,1.234-3.411,1.65-5.354,0.805c-1.626-0.71-2.879-1.987-2.692-3.724
		c0.261-2.401-0.731-3.672-2.766-4.483c-0.214-0.086-0.402-0.234-0.602-0.354c-2.458-1.463-4.914-2.927-7.461-4.444
		c-0.045,0.333-0.09,0.519-0.092,0.705c-0.057,4.74-0.034,9.485-0.184,14.224c-0.143,4.559,3.353,7.521,7.547,7.55
		c5.755,0.041,11.511,0.036,17.266,0.002c4.212-0.024,6.835-2.416,6.996-6.635c0.172-4.503,0.014-9.018,0.134-13.524
		c0.055-2.038-0.695-3.62-2.057-4.995c-0.874-0.883-1.81-1.696-2.864-2.374c-5.027-3.233-10.031-6.505-15.077-9.712
		c-0.722-0.458-0.97-0.931-0.938-1.761c0.067-1.709,0.091-3.426,0.002-5.133c-0.099-1.893,0.609-3.256,2.332-4.029
		c1.783-0.8,3.533-0.8,5.167,0.424c1.205,0.903,1.655,2.162,1.49,3.59c-0.148,1.268,0.339,1.949,1.44,2.546
		c2.182,1.181,4.271,2.53,6.402,3.806C339.24,156.295,340.596,157.095,342.005,157.93z"/>
	<path fill-rule="evenodd" clip-rule="evenodd" fill="#262223" d="M390.624,165.026c4.566,2.781,8.967,5.46,13.366,8.144
		c1.158,0.707,2.6,1.201,3.382,2.204c0.774,0.995,0.153,2.545,0.259,3.846c0.116,1.419,0.992,2.175,2.194,1.859
		c0.799-0.209,1.175-0.699,1.099-1.53c-0.046-0.501-0.193-1.028-0.097-1.503c0.521-2.533-0.66-3.89-2.84-5.043
		c-3.597-1.902-7.021-4.131-10.52-6.218c-3.401-2.03-5.838-4.825-6.935-8.694c-0.185-0.649-0.181-1.307-0.181-1.966
		c-0.003-4.746,0.126-9.495-0.032-14.234c-0.212-6.328,3.72-10.354,9.899-10.535c6.172-0.18,12.366-0.342,18.538,0.146
		c5.032,0.397,8.663,3.533,9.76,8.254c0.079,0.338,0.145,0.688,0.146,1.033c0.008,7.818,0.006,15.636,0.006,23.52
		c-0.515-0.04-0.847-0.388-1.207-0.623c-5.259-3.453-10.5-6.934-15.769-10.371c-0.664-0.434-0.973-0.889-0.9-1.688
		c0.07-0.771,0.049-1.557,0.002-2.331c-0.052-0.89-0.341-1.611-1.448-1.569c-1.263,0.048-1.976,0.598-1.887,1.696
		c0.094,1.167,0.082,2.329,0.082,3.492c0,0.501,0.237,0.75,0.63,1.002c4.902,3.144,9.784,6.319,14.69,9.457
		c2.856,1.826,5.035,4.136,5.67,7.601c0.097,0.53,0.13,1.079,0.131,1.62c0.011,4.356-0.132,8.718,0.039,13.067
		c0.232,5.903-3.235,9.139-7.921,10.652c-0.743,0.24-1.501,0.341-2.291,0.338c-5.718-0.018-11.443-0.2-17.15,0.042
		c-6.198,0.264-9.605-4.138-10.502-8.73c-0.148-0.767-0.22-1.531-0.219-2.313C390.628,178.843,390.624,172.037,390.624,165.026z
		 M425.481,157.923c0-4.586,0.012-9.045-0.006-13.502c-0.006-1.358,0.068-2.746-0.178-4.067c-0.572-3.08-4.268-5.781-7.745-5.79
		c-5.639-0.014-11.28,0.078-16.919-0.03c-4.409-0.085-6.975,3.812-6.943,6.934c0.042,4.512,0.068,9.025-0.016,13.536
		c-0.042,2.246,0.706,4.093,2.188,5.701c0.896,0.975,1.88,1.839,3.008,2.561c4.907,3.136,9.787,6.312,14.683,9.466
		c0.435,0.279,0.8,0.51,0.784,1.151c-0.048,1.942,0.026,3.89-0.029,5.833c-0.074,2.555-2.33,4.588-4.958,4.549
		c-2.726-0.042-4.733-2.023-4.76-4.7c-0.005-0.505-0.042-1.016,0.011-1.516c0.066-0.634-0.202-0.973-0.737-1.287
		c-3.08-1.806-6.15-3.631-9.197-5.495c-0.812-0.497-0.98-0.381-0.982,0.562c-0.012,4.354,0.028,8.713-0.163,13.061
		c-0.271,6.21,4.149,8.521,8.379,8.434c5.405-0.112,10.812-0.019,16.22-0.03c4.653-0.01,7.311-2.667,7.318-7.305
		c0.007-4.396-0.061-8.792,0.033-13.186c0.035-1.693-0.544-3.028-1.611-4.222c-0.96-1.075-2.032-2.029-3.251-2.815
		c-5.091-3.28-10.175-6.572-15.266-9.854c-0.432-0.277-0.787-0.508-0.771-1.148c0.05-2.098,0.013-4.2,0.025-6.301
		c0.006-0.793,0.199-1.541,0.728-2.166c1.265-1.496,3.728-2.096,5.649-1.382c1.786,0.665,2.645,2.073,2.646,4.341
		c0,0.311,0.017,0.623-0.003,0.933c-0.03,0.437,0.142,0.71,0.525,0.939C417.906,153.369,421.66,155.629,425.481,157.923z"/>
	<path fill-rule="evenodd" clip-rule="evenodd" fill="#272324" d="M257.091,176.206c0,0.532,0,0.904,0,1.276
		c0,5.99-0.014,11.98,0.017,17.971c0.004,0.792-0.18,1.063-1.019,1.059c-5.173-0.038-10.347-0.04-15.52,0
		c-0.858,0.007-1.004-0.286-1.003-1.063c0.019-21.043,0.019-42.086-0.001-63.128c-0.001-0.791,0.172-1.057,1.014-1.05
		c5.173,0.04,10.347,0.04,15.52-0.001c0.857-0.006,1.012,0.285,1.008,1.064c-0.029,5.99-0.016,11.98-0.016,17.971
		c0,0.371,0,0.742,0,1.312c1.502-1.508,2.536-2.809,2.436-5.012c-0.218-4.775-0.052-9.566-0.083-14.351
		c-0.005-0.74,0.157-0.989,0.949-0.983c5.134,0.037,10.269,0.035,15.403,0c0.784-0.006,0.957,0.232,0.954,0.979
		c-0.027,7.624-0.021,15.248-0.006,22.871c0.002,0.542-0.143,0.949-0.5,1.355c-1.826,2.069-3.589,4.194-5.455,6.227
		c-0.647,0.705-0.593,1.117-0.001,1.806c1.799,2.092,3.505,4.265,5.277,6.381c0.472,0.562,0.689,1.127,0.687,1.88
		c-0.027,7.43-0.044,14.858,0.014,22.288c0.008,1.115-0.341,1.308-1.354,1.298c-4.979-0.051-9.958-0.042-14.936-0.004
		c-0.811,0.007-1.042-0.191-1.035-1.02c0.04-5.019-0.115-10.041,0.085-15.051C259.606,178.25,258.598,177.297,257.091,176.206z
		 M254.079,159.107c-0.028-0.582-0.092-1.42-0.104-2.26c-0.109-7.069-0.221-14.139-0.294-21.209c-0.007-0.717-0.179-0.91-0.901-0.9
		c-2.993,0.043-5.988,0.044-8.981,0c-0.757-0.012-0.962,0.189-0.961,0.957c0.022,18.662,0.021,37.325,0.001,55.988
		c-0.001,0.748,0.172,0.981,0.95,0.968c2.916-0.047,5.833-0.059,8.747,0.006c0.904,0.02,1.074-0.258,1.07-1.105
		c-0.035-7.192-0.02-14.385-0.02-21.579c0-0.401,0-0.803,0-1.438c2.744,2.601,5.261,5.015,7.82,7.385
		c0.504,0.466,0.684,0.927,0.679,1.602c-0.028,4.704,0.003,9.409-0.032,14.113c-0.006,0.786,0.154,1.072,1.006,1.058
		c3.148-0.052,6.299-0.052,9.448,0c0.833,0.015,1.018-0.229,1.013-1.033c-0.035-6.182-0.032-12.364-0.001-18.546
		c0.004-0.729-0.249-1.238-0.701-1.758c-2.043-2.342-4.041-4.723-6.101-7.048c-0.486-0.549-0.504-0.878-0.015-1.431
		c2.139-2.412,4.225-4.873,6.345-7.302c0.393-0.45,0.668-0.876,0.665-1.531c-0.029-5.988-0.036-11.977,0.005-17.964
		c0.006-0.868-0.292-0.997-1.06-0.985c-2.876,0.043-5.755,0.055-8.63-0.006c-0.873-0.018-1.09,0.203-1.087,1.082
		c0.014,4.547-0.06,9.094-0.078,13.641c-0.002,0.582-0.129,1.041-0.562,1.451C259.537,153.882,256.788,156.519,254.079,159.107z"/>
	<path fill-rule="evenodd" clip-rule="evenodd" fill="#252122" d="M468.811,163.976c0-10.498,0.013-20.996-0.023-31.493
		c-0.004-0.954,0.205-1.221,1.195-1.216c9.486,0.041,18.973,0.037,28.459,0.004c0.914-0.004,1.17,0.222,1.162,1.15
		c-0.049,5.016-0.048,10.031,0,15.047c0.008,0.891-0.237,1.091-1.098,1.078c-3.459-0.053-6.92,0.001-10.381-0.041
		c-0.728-0.008-0.913,0.188-0.895,0.902c0.054,1.904,0.059,3.812-0.002,5.715c-0.022,0.746,0.214,0.893,0.913,0.886
		c3.343-0.037,6.688,0.015,10.03-0.038c0.846-0.014,1.005,0.244,0.999,1.035c-0.038,5.016-0.042,10.03,0.003,15.046
		c0.008,0.846-0.247,1.009-1.037,0.999c-3.421-0.046-6.843,0.016-10.264-0.044c-0.9-0.015-1.106,0.251-1.071,1.104
		c0.068,1.709,0.055,3.423,0.004,5.131c-0.022,0.729,0.217,0.925,0.926,0.918c3.422-0.032,6.843,0.011,10.264-0.031
		c0.853-0.012,1.196,0.126,1.184,1.11c-0.059,4.821-0.046,9.642-0.009,14.463c0.007,0.818-0.117,1.131-1.052,1.121
		c-9.482-0.104-18.966-0.171-28.448-0.193c-0.913-0.002-0.867-0.418-0.866-1.043C468.814,185.048,468.811,174.513,468.811,163.976z
		 M472.313,164.631c0,9.448,0.013,18.897-0.021,28.346c-0.003,0.869,0.199,1.084,1.075,1.079c7.193-0.039,14.386-0.031,21.58-0.007
		c0.703,0.002,0.928-0.161,0.915-0.898c-0.046-2.8-0.048-5.6,0.001-8.398c0.014-0.803-0.188-1.056-1.02-1.044
		c-3.539,0.046-7.077,0.002-10.616,0.035c-0.706,0.007-0.931-0.175-0.926-0.908c0.035-4.121,0.038-8.243-0.001-12.364
		c-0.007-0.775,0.216-0.969,0.973-0.961c3.577,0.04,7.155-0.01,10.731,0.038c0.831,0.011,1.026-0.232,1.012-1.033
		c-0.052-2.683-0.06-5.367,0.002-8.048c0.021-0.868-0.285-0.999-1.055-0.99c-3.498,0.039-6.999-0.003-10.497,0.034
		c-0.738,0.007-0.98-0.155-0.973-0.942c0.043-4.198,0.038-8.398,0.004-12.598c-0.007-0.742,0.161-0.979,0.943-0.969
		c3.461,0.046,6.922-0.005,10.382,0.038c0.796,0.01,1.061-0.172,1.042-1.012c-0.057-2.604-0.057-5.211,0.001-7.814
		c0.018-0.843-0.251-1.014-1.043-1.01c-7.154,0.029-14.31,0.035-21.463-0.006c-0.891-0.006-1.07,0.232-1.067,1.088
		C472.325,145.734,472.313,155.183,472.313,164.631z"/>
	<path fill-rule="evenodd" clip-rule="evenodd" fill="#2B2728" d="M439.043,172.556c0-7.582-0.014-15.163,0.02-22.744
		c0.002-0.834-0.144-1.152-1.066-1.113c-1.901,0.082-3.81,0.001-5.714,0.038c-0.64,0.013-0.875-0.145-0.873-0.832
		c0.027-5.288,0.024-10.575,0.003-15.862c-0.003-0.637,0.229-0.771,0.817-0.764c8.857,0.117,17.716,0.211,26.573,0.316
		c2.137,0.025,4.272,0.098,6.409,0.103c0.615,0.001,0.78,0.194,0.777,0.802c-0.022,5.132-0.024,10.264,0.001,15.395
		c0.003,0.683-0.229,0.854-0.872,0.842c-1.982-0.035-3.967,0.04-5.947-0.035c-0.945-0.036-1.231,0.188-1.228,1.188
		c0.042,9.953,0.025,19.905,0.025,29.858c0,5.172-0.021,10.342,0.021,15.513c0.007,0.918-0.163,1.27-1.184,1.26
		c-5.559-0.051-11.119-0.044-16.678-0.004c-0.872,0.006-1.109-0.221-1.105-1.1C439.059,187.796,439.043,180.176,439.043,172.556z
		 M442.676,169.068c0,7.659,0.016,15.318-0.023,22.978c-0.005,0.88,0.216,1.09,1.082,1.074c3.109-0.058,6.221-0.041,9.33-0.009
		c0.675,0.008,1.048-0.108,0.921-0.874c-0.038-0.226-0.006-0.465-0.006-0.698c0-15.046,0.01-30.092-0.023-45.138
		c-0.002-0.963,0.213-1.255,1.202-1.216c2.096,0.084,4.198-0.002,6.296,0.042c0.673,0.014,0.84-0.196,0.832-0.845
		c-0.034-2.799-0.044-5.599,0.005-8.397c0.012-0.749-0.234-0.891-0.922-0.885c-3.732,0.032-7.466,0.015-11.198,0.015
		c-4.742,0-9.486,0.023-14.229-0.021c-0.876-0.009-1.12,0.229-1.1,1.102c0.059,2.565,0.041,5.132,0.009,7.698
		c-0.01,0.703,0.109,1.047,0.936,1.02c1.942-0.059,3.891,0.033,5.831-0.041c0.896-0.034,1.082,0.242,1.078,1.102
		C442.66,153.672,442.676,161.371,442.676,169.068z"/>
	<path fill-rule="evenodd" clip-rule="evenodd" fill="#292526" d="M134.595,163.798c0-10.5,0.016-21.001-0.025-31.502
		c-0.004-0.998,0.277-1.195,1.225-1.191c8.167,0.041,16.335,0.004,24.501,0.033c3.165,0.012,6.144,0.612,8.683,2.758
		c2.646,2.235,3.984,5.078,3.996,8.454c0.053,14.272-0.021,28.546,0.043,42.818c0.027,6.08-4.333,9.895-8.233,11.034
		c-0.602,0.177-1.201,0.293-1.83,0.293c-9.101-0.004-18.202-0.017-27.302,0.019c-0.886,0.004-1.082-0.233-1.079-1.098
		C134.607,184.877,134.596,174.338,134.595,163.798z M137.675,164.027c0,9.407,0.015,18.814-0.023,28.221
		c-0.003,0.972,0.263,1.223,1.222,1.218c7.463-0.039,14.927-0.021,22.391-0.022c4.881-0.001,8.531-3.646,8.532-8.525
		c0.003-14.072,0-28.144,0.002-42.216c0-1.835-0.486-3.544-1.481-5.065c-1.2-1.834-2.794-3.146-5.13-3.146
		c-8.085,0.001-16.17,0.034-24.255,0.018c-0.982-0.003-1.293,0.24-1.288,1.298C137.696,145.212,137.675,154.619,137.675,164.027z"/>
	<path fill-rule="evenodd" clip-rule="evenodd" fill="#292526" d="M177.033,163.933c0-10.459,0.013-20.919-0.023-31.379
		c-0.003-0.936,0.261-1.139,1.154-1.131c5.327,0.042,10.654,0.037,15.981,0.003c0.803-0.005,1.044,0.194,1.043,1.024
		c-0.023,20.958-0.023,41.918,0,62.876c0.001,0.831-0.249,1.029-1.05,1.024c-5.327-0.034-10.654-0.043-15.981,0.005
		c-0.931,0.009-1.148-0.254-1.146-1.158C177.044,184.777,177.033,174.355,177.033,163.933z M180.073,163.858
		c0,9.213,0.018,18.429-0.025,27.644c-0.005,0.988,0.259,1.211,1.215,1.192c3.226-0.063,6.454-0.049,9.68-0.007
		c0.794,0.012,1.047-0.178,1.045-1.016c-0.024-18.507-0.024-37.016,0-55.522c0.001-0.804-0.262-0.949-0.99-0.941
		c-3.266,0.036-6.533,0.048-9.798-0.006c-0.893-0.015-1.154,0.194-1.15,1.128C180.089,145.505,180.074,154.681,180.073,163.858z"/>
	<path fill-rule="evenodd" clip-rule="evenodd" fill="#272324" d="M171.632,112.774c1.704-3.823,3.483-7.403,4.89-11.126
		c0.884-2.34,2.007-3.528,4.661-3.082c1.581,0.266,1.617,0.049,1.617,1.626c0,6.377-0.016,12.754,0.018,19.132
		c0.005,0.876-0.159,1.288-1.133,1.171c-1.032-0.124-2.385,0.417-3.036-0.202c-0.659-0.626-0.188-1.985-0.204-3.021
		c-0.032-2.166-0.01-4.331-0.21-6.566c-0.93,2.014-1.862,4.025-2.79,6.04c-0.471,1.021-0.954,2.036-1.39,3.071
		c-0.208,0.491-0.479,0.705-1.04,0.676c-1.163-0.059-2.516,0.319-3.442-0.158c-0.88-0.454-1.021-1.91-1.482-2.926
		c-0.993-2.189-1.95-4.395-2.962-6.686c-0.326,0.387-0.177,0.775-0.179,1.115c-0.014,2.566-0.039,5.133,0.011,7.699
		c0.015,0.777-0.219,1.016-0.976,0.956c-0.812-0.063-1.635-0.056-2.448-0.001c-0.722,0.047-1.018-0.121-1.014-0.938
		c0.033-6.688,0.031-13.376,0.001-20.064c-0.003-0.758,0.262-0.919,0.945-0.888c1.279,0.058,2.796-0.377,3.777,0.173
		c0.988,0.553,1.16,2.188,1.679,3.353C168.471,105.597,169.998,109.075,171.632,112.774z"/>
	<path fill-rule="evenodd" clip-rule="evenodd" fill="#252223" d="M274.904,110.704c-1.349,2.948-2.718,5.886-4.03,8.85
		c-0.31,0.698-0.719,0.841-1.458,0.973c-2.605,0.464-3.892-0.618-4.677-3.06c-0.744-2.309-1.925-4.476-3.047-7.006
		c-0.046,0.562-0.086,0.826-0.087,1.089c-0.004,2.645-0.021,5.289,0.01,7.933c0.008,0.691-0.073,1.104-0.926,1.012
		c-1.072-0.115-2.475,0.433-3.149-0.204c-0.685-0.646-0.204-2.059-0.208-3.133c-0.022-5.755,0.011-11.51-0.031-17.264
		c-0.007-0.964,0.189-1.191,1.229-1.337c2.748-0.385,4.129,0.641,5.025,3.271c1.109,3.252,2.714,6.334,4.108,9.488
		c0.182,0.411,0.387,0.812,0.676,1.412c1.054-2.359,2.031-4.533,2.998-6.711c0.96-2.163,1.932-4.322,2.856-6.5
		c0.275-0.648,0.604-0.98,1.369-0.917c0.965,0.078,1.946,0.072,2.913,0.002c0.819-0.059,1.049,0.208,1.04,1.032
		c-0.041,4.238-0.019,8.476-0.019,12.714c0,2.411-0.026,4.823,0.016,7.232c0.014,0.722-0.196,0.963-0.919,0.914
		c-1.117-0.076-2.58,0.351-3.265-0.208c-0.727-0.594-0.198-2.111-0.218-3.224c-0.038-2.099-0.012-4.198-0.012-6.296
		C275.032,110.744,274.968,110.724,274.904,110.704z"/>
	<path fill-rule="evenodd" clip-rule="evenodd" fill="#252223" d="M256.428,109.847c-0.005,6.174-5.016,11.12-11.244,11.1
		c-6.101-0.021-11.069-5.05-11.05-11.186c0.019-6.192,4.994-11.086,11.252-11.07C251.533,98.707,256.433,103.658,256.428,109.847z
		 M245.342,116.549c3.693-0.001,6.723-3.018,6.759-6.729c0.036-3.645-3.05-6.75-6.725-6.768c-3.76-0.018-6.813,3.031-6.8,6.791
		C238.591,113.533,241.634,116.549,245.342,116.549z"/>
	<path fill-rule="evenodd" clip-rule="evenodd" fill="#262223" d="M338.776,109.917c0,3.25-0.028,6.499,0.021,9.749
		c0.012,0.835-0.146,1.201-1.064,1.105c-0.846-0.088-1.71-0.059-2.562-0.006c-0.644,0.039-0.768-0.221-0.766-0.807
		c0.018-6.799,0.021-13.599-0.002-20.398c-0.002-0.646,0.234-0.766,0.812-0.76c2.641,0.024,5.283-0.031,7.925,0.022
		c3.025,0.06,5.818,2.363,6.598,5.341c0.817,3.116-0.472,6.445-3.246,8.041c-0.84,0.483-0.935,0.799-0.431,1.608
		c1.387,2.224,2.677,4.509,4.105,6.938c-1.573,0-2.954-0.024-4.333,0.012c-0.581,0.016-0.694-0.416-0.898-0.762
		c-1.983-3.371-3.957-6.748-5.933-10.123C338.926,109.891,338.851,109.904,338.776,109.917z M341.081,108.806
		c0.621,0,1.244,0.035,1.861-0.007c1.371-0.093,2.457-1.181,2.591-2.548c0.122-1.248-0.797-2.566-2.064-2.873
		c-0.442-0.107-0.921-0.088-1.384-0.086c-1.042,0.003-2.397-0.362-3.045,0.153c-0.761,0.605-0.227,2.026-0.249,3.089
		C338.741,108.808,338.776,108.808,341.081,108.806z"/>
	<path fill-rule="evenodd" clip-rule="evenodd" fill="#272324" d="M309.681,107.187c-0.001,2.295,0.01,4.59-0.003,6.885
		c-0.019,3.799-3.132,6.873-7.021,6.953c-3.902,0.078-7.295-2.951-7.357-6.752c-0.081-4.898-0.009-9.801-0.032-14.701
		c-0.004-0.626,0.203-0.803,0.802-0.772c1.198,0.061,2.729-0.374,3.502,0.214c0.735,0.559,0.21,2.179,0.219,3.331
		c0.028,3.772,0.008,7.546,0.013,11.317c0.002,1.72,1.062,2.891,2.625,2.922c1.625,0.033,2.805-1.156,2.81-2.889
		c0.012-4.629,0.025-9.258-0.017-13.885c-0.007-0.831,0.229-1.084,1.037-1.015c0.812,0.069,1.639,0.078,2.447-0.001
		c0.862-0.085,1.01,0.265,0.994,1.043C309.65,102.287,309.681,104.738,309.681,107.187z"/>
	<path fill-rule="evenodd" clip-rule="evenodd" fill="#252223" d="M234.706,104.88c-1.682,0-3.271-0.011-4.861,0.008
		c-0.394,0.006-0.639-0.213-0.924-0.413c-2.891-2.024-6.639-1.67-8.878,0.831c-2.311,2.58-2.333,6.435-0.054,8.914
		c2.394,2.602,6.077,2.982,8.957,0.885c0.434-0.316,0.834-0.482,1.368-0.473c1.436,0.029,2.872,0.01,4.323,0.01
		c-1.158,3.839-6.3,6.667-11.098,6.148c-5.235-0.565-9.353-4.816-9.784-10.1c-0.432-5.285,3.044-10.237,8.144-11.599
		C226.996,97.73,232.432,100.146,234.706,104.88z"/>
	<path fill-rule="evenodd" clip-rule="evenodd" fill="#262223" d="M146.491,111.892c1.139-1.059,1.86-2.434,2.752-3.674
		c2.106-2.929,4.147-5.905,6.218-8.859c0.419-0.598,3.146-1.097,3.729-0.69c0.277,0.192,0.182,0.49,0.183,0.747
		c0.005,6.76-0.002,13.521,0.015,20.281c0.001,0.6-0.165,0.83-0.787,0.795c-0.852-0.048-1.713-0.063-2.562,0.004
		c-0.775,0.061-0.877-0.287-0.881-0.951c-0.014-2.406-0.037-2.406-2.508-2.406c-0.349,0-0.707,0.046-1.048-0.007
		c-2.526-0.393-4.557,0.163-5.556,2.802c-0.147,0.389-0.447,0.568-0.91,0.559c-1.392-0.031-2.784-0.012-4.166-0.012
		c-0.189-0.478,0.17-0.693,0.351-0.955c1.593-2.294,3.206-4.575,4.801-6.868c0.167-0.241,0.474-0.429,0.399-0.796L146.491,111.892z
		 M155.174,107.553c-0.076-0.021-0.151-0.042-0.227-0.063c-1.231,1.684-2.462,3.367-3.809,5.209c1.304,0,2.342-0.019,3.378,0.007
		c0.501,0.013,0.674-0.169,0.666-0.671C155.158,110.542,155.174,109.048,155.174,107.553z"/>
	<path fill-rule="evenodd" clip-rule="evenodd" fill="#252223" d="M322.202,109.792c0-3.343,0.021-6.686-0.017-10.026
		c-0.008-0.737,0.155-0.987,0.943-0.975c3.226,0.047,6.451,0.036,9.676,0.006c0.664-0.006,1.003,0.083,0.932,0.867
		c-0.077,0.848-0.063,1.711-0.004,2.562c0.05,0.713-0.172,0.945-0.903,0.925c-1.786-0.052-3.576,0.016-5.362-0.032
		c-0.724-0.02-0.975,0.209-0.91,0.926c0.114,1.26-0.529,2.912,0.256,3.674c0.631,0.611,2.282,0.176,3.481,0.193
		c0.854,0.012,1.716,0.059,2.563-0.016c0.765-0.065,0.918,0.241,0.874,0.923c-0.073,1.118,0.347,2.585-0.214,3.266
		c-0.595,0.722-2.114,0.173-3.229,0.218c-0.969,0.04-1.942,0.031-2.913,0c-0.557-0.018-0.805,0.092-0.83,0.747
		c-0.133,3.38-0.156,3.379,3.23,3.379c1.05,0,2.1,0.028,3.147-0.011c0.594-0.021,0.838,0.148,0.808,0.78
		c-0.047,0.97-0.039,1.943-0.003,2.913c0.02,0.523-0.172,0.652-0.669,0.65c-3.381-0.019-6.762-0.029-10.143,0.006
		c-0.687,0.008-0.727-0.295-0.724-0.832C322.211,116.554,322.202,113.173,322.202,109.792z"/>
	<path fill-rule="evenodd" clip-rule="evenodd" fill="#252122" d="M280.466,109.519c0-3.303,0.029-6.605-0.02-9.906
		c-0.013-0.833,0.228-1.054,1.037-1.013c2.324,0.116,4.671-0.217,6.977,0.159c3.952,0.642,6.468,4.105,6,8.09
		c-0.432,3.662-3.66,6.338-7.488,6.208c-2.069-0.071-2.069-0.071-2.069,2.011c0,1.516-0.024,3.031,0.011,4.546
		c0.016,0.617-0.094,0.925-0.81,0.88c-1.157-0.074-2.664,0.379-3.385-0.195c-0.759-0.602-0.223-2.175-0.24-3.32
		C280.439,114.492,280.466,112.005,280.466,109.519z M284.902,105.896c0,0.154,0,0.31,0,0.465c0,2.285,0,2.285,2.289,2.253
		c1.713-0.023,2.907-1.195,2.873-2.816c-0.04-1.853-1.303-2.666-4.062-2.675c-2.21-0.006-0.606,1.675-1.094,2.43
		C284.855,105.634,284.902,105.779,284.902,105.896z"/>
	<path fill-rule="evenodd" clip-rule="evenodd" fill="#272324" d="M146.522,111.861c-2.177,0.008-4.355,0.045-6.532,0.006
		c-0.731-0.013-0.998,0.143-0.977,0.939c0.059,2.253-0.004,4.51,0.035,6.765c0.012,0.687-0.129,0.983-0.888,0.925
		c-1.118-0.085-2.569,0.35-3.276-0.205c-0.756-0.594-0.233-2.108-0.237-3.217c-0.028-5.795,0.006-11.588-0.034-17.382
		c-0.006-0.875,0.219-1.112,1.096-1.098c3.266,0.055,6.533,0.045,9.799,0.004c0.773-0.01,1.025,0.217,0.968,0.982
		c-0.08,1.078,0.33,2.48-0.208,3.158c-0.576,0.725-2.036,0.185-3.109,0.229c-1.087,0.046-2.179,0.042-3.266-0.002
		c-0.616-0.025-0.923,0.083-0.876,0.803c0.063,0.968,0.052,1.945,0.002,2.914c-0.031,0.614,0.166,0.79,0.777,0.778
		c1.943-0.038,3.889,0.012,5.833-0.028c0.659-0.014,0.872,0.182,0.848,0.846c-0.042,1.204,0.003,2.41,0.013,3.615L146.522,111.861z"
		/>
	<path fill-rule="evenodd" clip-rule="evenodd" fill="#262223" d="M212.196,98.616c-0.875,1.767-1.667,3.39-2.479,5.001
		c-1.38,2.736-2.766,5.469-4.168,8.193c-0.258,0.504-0.354,1.01-0.35,1.567c0.015,2.062-0.018,4.122,0.018,6.184
		c0.012,0.685-0.144,0.993-0.901,0.935c-0.85-0.067-1.713-0.062-2.564-0.002c-0.71,0.051-0.945-0.163-0.927-0.898
		c0.049-2.021-0.004-4.045,0.029-6.066c0.011-0.687-0.156-1.281-0.464-1.885c-2.077-4.077-4.132-8.165-6.193-12.251
		c-0.102-0.203-0.183-0.415-0.342-0.776c1.566,0,3.019,0.022,4.47-0.011c0.646-0.014,0.734,0.477,0.933,0.872
		c1.248,2.494,2.485,4.994,3.83,7.699c1.042-2.155,2.186-4.082,2.918-6.154c0.718-2.032,1.891-2.77,3.945-2.425
		C210.617,98.71,211.32,98.616,212.196,98.616z"/>
	<path fill-rule="evenodd" clip-rule="evenodd" fill="#292526" d="M317.933,111.996c0,2.604-0.028,5.209,0.017,7.812
		c0.014,0.767-0.203,1.017-0.974,0.961c-1.119-0.083-2.596,0.361-3.272-0.201c-0.711-0.591-0.205-2.119-0.21-3.236
		c-0.025-4.354-0.031-8.707,0.008-13.061c0.007-0.787-0.157-1.056-1.002-1.045c-2.536,0.033-2.536-0.006-2.536-2.502
		c0-1.915,0-1.915,1.865-1.915c2.915,0,5.831,0.019,8.745-0.015c0.703-0.008,1.066,0.091,0.989,0.921
		c-0.08,0.887-0.076,1.792,0,2.68c0.067,0.775-0.255,0.883-0.926,0.873c-0.882-0.014-2.092-0.41-2.561,0.177
		c-0.442,0.553-0.137,1.71-0.141,2.603C317.928,108.031,317.933,110.013,317.933,111.996z"/>
	<path fill-rule="evenodd" clip-rule="evenodd" fill="#262223" d="M188.976,109.498c0-3.303,0.02-6.605-0.015-9.908
		c-0.008-0.723,0.124-1.062,0.939-0.99c0.848,0.075,1.713,0.076,2.562,0c0.856-0.077,1.012,0.273,1.007,1.053
		c-0.033,5.128,0.003,10.258-0.036,15.385c-0.007,0.891,0.185,1.25,1.141,1.178c1.159-0.086,2.33-0.001,3.496-0.027
		c0.555-0.014,0.876,0.087,0.843,0.753c-0.047,0.931-0.044,1.866-0.001,2.796c0.03,0.654-0.272,0.759-0.839,0.754
		c-2.758-0.022-5.518-0.031-8.275,0.006c-0.676,0.008-0.841-0.211-0.835-0.857C188.992,116.257,188.976,112.877,188.976,109.498z"/>
	<path fill-rule="evenodd" clip-rule="evenodd" fill="#292526" d="M188.242,109.548c0,3.304-0.027,6.608,0.019,9.913
		c0.011,0.814-0.207,1.104-1.035,1.036c-0.85-0.07-1.714-0.07-2.564,0c-0.826,0.068-1.044-0.219-1.037-1.035
		c0.04-4.393,0.019-8.786,0.019-13.18c0-2.254,0.028-4.51-0.016-6.764c-0.014-0.716,0.187-0.966,0.915-0.919
		c0.929,0.06,1.868,0.06,2.797,0c0.726-0.047,0.924,0.2,0.917,0.917C188.222,102.861,188.242,106.205,188.242,109.548z"/>
	<path fill-rule="evenodd" clip-rule="evenodd" fill="#F1BC17" d="M60.762,102.082c10.734,0,21.47-0.002,32.205,0
		c5.541,0.002,9.134,3.549,9.146,9.102c0.022,9.568,0.018,19.137-0.014,28.704c-0.003,0.86,0.247,1.283,1.04,1.657
		c6.686,3.152,9.809,10.533,7.199,17.03c-1.372,3.413-3.887,5.769-7.229,7.221c-0.772,0.337-1.019,0.729-1.008,1.548
		c0.044,3.538,0.048,7.078-0.001,10.617c-0.013,0.899,0.224,1.251,1.157,1.447c3.953,0.833,5.899,4.016,5.014,7.805
		c-0.507,2.168-3.304,4.322-5.549,4.354c-9.293,0.128-18.585,0.107-27.877,0.152c-0.899,0.005-1.324-0.205-1.666-1.116
		c-3.933-10.479-16.535-10.49-21.855-4.832c-1.406,1.495-2.478,3.189-3.158,5.117c-0.21,0.596-0.472,0.833-1.146,0.83
		c-7.467-0.04-14.935-0.032-22.402-0.062c-1.941-0.007-3.882-0.13-5.824-0.146c-3.124-0.027-5.619-2.382-5.783-5.512
		c-0.179-3.399,1.679-5.854,5.144-6.579c0.977-0.203,1.229-0.562,1.213-1.521c-0.06-3.578-0.042-7.156-0.008-10.734
		c0.007-0.691-0.225-1.013-0.851-1.298c-5.062-2.295-8.161-6.099-8.263-11.779c-0.104-5.802,2.97-9.812,7.929-12.465
		c0.881-0.471,1.201-0.908,1.196-1.914c-0.045-9.451-0.023-18.902-0.029-28.354c-0.002-3.133,0.966-5.799,3.604-7.688
		c1.609-1.153,3.423-1.589,5.38-1.587C39.136,102.085,49.949,102.082,60.762,102.082z M99.395,135.185
		c0.003-10.139-7.987-18.199-18.048-18.207c-10.153-0.009-18.299,8.055-18.306,18.121c-0.007,10.092,8.122,18.227,18.221,18.232
		C91.322,153.338,99.392,145.262,99.395,135.185z M58.319,135.164c0.019-10.01-8.048-18.164-17.991-18.186
		c-10.24-0.023-18.403,8.016-18.421,18.139c-0.018,9.945,8.148,18.195,18.029,18.215C50.172,153.353,58.299,145.321,58.319,135.164z
		"/>
	<path fill-rule="evenodd" clip-rule="evenodd" fill="#FDFDFD" d="M532.949,140.54c0.504-0.925,0.826-1.761,1.427-2.425
		c1.664-1.844,3.641-2.941,6.212-2.907c4.045,0.052,8.089,0.01,12.134,0.015c4.088,0.006,6.362,2.251,6.366,6.357
		c0.012,16.839-0.002,33.68,0.023,50.521c0.002,0.827-0.225,1.032-1.033,1.021c-3.07-0.049-6.145-0.057-9.216,0.002
		c-0.914,0.018-1.15-0.224-1.148-1.144c0.031-13.769,0.023-27.535,0.019-41.304c0-1.357,0.002-2.693-0.904-3.883
		c-1.26-1.65-4.044-1.541-5.859-0.965c-1.722,0.546-2.799,2.209-2.801,4.16c-0.007,10.696-0.003,21.391-0.003,32.086
		c0,3.384-0.023,6.768,0.019,10.15c0.009,0.733-0.199,0.904-0.909,0.894c-2.993-0.041-5.989-0.065-8.983,0.011
		c-0.983,0.024-1.111-0.329-1.109-1.182c0.022-13.729,0.014-27.459,0.019-41.188c0.001-1.338-0.108-2.635-0.886-3.79
		c-1.159-1.72-3.079-2.296-5.501-1.631c-1.823,0.501-3.148,2.176-3.179,4.134c-0.035,2.411-0.008,4.822-0.008,7.234
		c0,11.745-0.015,23.491,0.025,35.236c0.004,0.999-0.273,1.204-1.218,1.182c-2.721-0.067-5.444-0.046-8.166-0.01
		c-0.687,0.01-0.928-0.134-0.927-0.886c0.022-18.823,0.021-37.647,0.002-56.472c-0.001-0.76,0.199-0.979,0.972-0.982
		c5.286-0.016,10.575,0.001,15.859-0.161c3.987-0.122,6.64,1.681,8.359,5.13C532.638,139.952,532.749,140.156,532.949,140.54z"/>
	<path fill-rule="evenodd" clip-rule="evenodd" fill="#FDFDFD" d="M384.089,161.587c0,8.168,0.002,16.337-0.001,24.504
		c-0.001,4.676-2.347,7.008-7.039,7.008c-7.079,0-14.158-0.015-21.236,0.02c-0.837,0.004-1.144-0.144-1.113-1.063
		c0.076-2.293,0.074-4.591,0.001-6.884c-0.03-0.949,0.198-1.251,1.192-1.234c3.616,0.062,7.233,0.036,10.851,0.021
		c1.448-0.007,2.865-0.15,4.095-1.066c1.238-0.921,1.913-2.118,1.936-3.662c0.019-1.167-0.044-2.336,0.021-3.5
		c0.042-0.761-0.255-0.895-0.941-0.889c-4.123,0.028-8.245,0.016-12.368,0.014c-4.765-0.001-7.401-2.637-7.403-7.425
		c-0.005-10.385,0.016-20.77-0.026-31.154c-0.005-1.026,0.235-1.304,1.271-1.274c2.798,0.08,5.602,0.077,8.4,0.002
		c1.012-0.027,1.188,0.307,1.184,1.24c-0.038,7.74-0.026,15.479-0.014,23.22c0.001,0.696,0.065,1.397,0.178,2.085
		c0.28,1.719,1.384,2.828,3.109,3.192c3.311,0.7,6.02-0.828,6.586-3.735c0.081-0.414,0.079-0.848,0.079-1.273
		c0.004-7.856,0.018-15.713-0.019-23.569c-0.003-0.91,0.22-1.177,1.147-1.157c2.994,0.062,5.99,0.062,8.984,0.001
		c0.915-0.019,1.152,0.224,1.148,1.144C384.073,144.629,384.089,153.109,384.089,161.587z"/>
	<path fill-rule="evenodd" clip-rule="evenodd" fill="#FDFDFD" d="M233.553,157.926c-2.968-1.777-5.924-3.549-8.881-5.319
		c-0.233-0.14-0.453-0.311-0.702-0.412c-1.745-0.711-2.561-1.809-2.382-3.871c0.182-2.085-2.085-3.838-4.358-3.761
		c-2.901,0.099-4.568,1.812-4.569,4.698c0,1.672,0.045,3.346-0.019,5.016c-0.032,0.834,0.226,1.318,0.949,1.777
		c4.851,3.076,9.665,6.211,14.494,9.322c1.676,1.079,3.222,2.301,4.407,3.931c0.731,1.004,1.089,2.099,1.075,3.367
		c-0.046,4.51,0.041,9.022-0.064,13.53c-0.106,4.575-2.761,7.079-7.306,7.087c-5.599,0.01-11.199-0.006-16.799,0.005
		c-4.088,0.008-7.94-2.651-7.792-7.81c0.127-4.465,0.119-8.936,0.174-13.403c0.005-0.375,0.04-0.75,0.072-1.312
		c2.082,1.244,4.031,2.41,5.981,3.573c1.367,0.815,2.724,1.647,4.11,2.428c0.542,0.305,0.793,0.669,0.729,1.299
		c-0.052,0.5-0.015,1.011-0.01,1.516c0.028,2.674,2.049,4.655,4.773,4.683c2.592,0.024,4.836-1.961,4.926-4.456
		c0.071-1.981-0.003-3.966,0.049-5.948c0.018-0.649-0.38-0.867-0.805-1.141c-4.892-3.154-9.778-6.318-14.677-9.464
		c-1.188-0.762-2.247-1.657-3.167-2.726c-1.342-1.562-2.029-3.288-1.979-5.421c0.108-4.625,0.03-9.254,0.035-13.881
		c0.004-3.666,2.99-6.666,6.652-6.671c5.677-0.009,11.355-0.011,17.032,0.001c4.538,0.01,8.05,3.502,8.052,7.984
		C233.555,147.636,233.553,152.724,233.553,157.926z"/>
	<path fill-rule="evenodd" clip-rule="evenodd" fill="#FDFDFD" d="M342.005,157.93c-1.409-0.835-2.766-1.635-4.117-2.442
		c-2.131-1.275-4.221-2.625-6.402-3.806c-1.102-0.597-1.589-1.278-1.44-2.546c0.165-1.428-0.285-2.687-1.49-3.59
		c-1.634-1.224-3.384-1.224-5.167-0.424c-1.723,0.773-2.431,2.137-2.332,4.029c0.089,1.707,0.065,3.424-0.002,5.133
		c-0.032,0.83,0.216,1.303,0.938,1.761c5.046,3.207,10.05,6.479,15.077,9.712c1.055,0.678,1.99,1.491,2.864,2.374
		c1.361,1.375,2.111,2.957,2.057,4.995c-0.12,4.507,0.038,9.021-0.134,13.524c-0.161,4.219-2.784,6.61-6.996,6.635
		c-5.755,0.034-11.511,0.039-17.266-0.002c-4.194-0.029-7.689-2.991-7.547-7.55c0.149-4.738,0.127-9.483,0.184-14.224
		c0.002-0.187,0.047-0.372,0.092-0.705c2.547,1.518,5.003,2.981,7.461,4.444c0.199,0.12,0.388,0.269,0.602,0.354
		c2.034,0.812,3.026,2.082,2.766,4.483c-0.187,1.736,1.066,3.014,2.692,3.724c1.943,0.846,3.723,0.43,5.354-0.805
		c1.177-0.89,1.624-2.147,1.639-3.574c0.018-1.827-0.028-3.656,0.022-5.482c0.017-0.627-0.306-0.884-0.749-1.17
		c-4.929-3.171-9.844-6.366-14.779-9.526c-1.292-0.828-2.408-1.827-3.383-3.003c-1.184-1.43-1.773-3.017-1.743-4.921
		c0.073-4.666,0.019-9.334,0.025-14c0.005-3.821,2.965-6.768,6.791-6.769c5.561-0.003,11.122-0.019,16.683,0.006
		c3.048,0.014,5.441,1.344,7.242,3.782c0.752,1.018,0.985,2.194,1.002,3.408c0.073,5.246,0.114,10.494,0.164,15.741
		C342.112,157.601,342.062,157.704,342.005,157.93z"/>
	<path fill-rule="evenodd" clip-rule="evenodd" fill="#FDFDFD" d="M425.481,157.923c-3.82-2.294-7.574-4.555-11.34-6.798
		c-0.384-0.229-0.556-0.503-0.525-0.939c0.02-0.31,0.003-0.622,0.003-0.933c-0.001-2.268-0.859-3.676-2.646-4.341
		c-1.922-0.714-4.385-0.114-5.649,1.382c-0.528,0.625-0.722,1.373-0.728,2.166c-0.013,2.101,0.024,4.203-0.025,6.301
		c-0.016,0.641,0.34,0.871,0.771,1.148c5.091,3.282,10.175,6.574,15.266,9.854c1.219,0.786,2.291,1.74,3.251,2.815
		c1.067,1.193,1.646,2.528,1.611,4.222c-0.094,4.394-0.026,8.789-0.033,13.186c-0.008,4.638-2.665,7.295-7.318,7.305
		c-5.407,0.012-10.814-0.082-16.22,0.03c-4.229,0.087-8.65-2.224-8.379-8.434c0.191-4.348,0.151-8.706,0.163-13.061
		c0.002-0.942,0.171-1.059,0.982-0.562c3.047,1.864,6.117,3.689,9.197,5.495c0.535,0.314,0.804,0.653,0.737,1.287
		c-0.053,0.5-0.016,1.011-0.011,1.516c0.026,2.677,2.034,4.658,4.76,4.7c2.628,0.039,4.884-1.994,4.958-4.549
		c0.056-1.943-0.019-3.891,0.029-5.833c0.016-0.642-0.35-0.872-0.784-1.151c-4.896-3.154-9.775-6.33-14.683-9.466
		c-1.128-0.722-2.111-1.586-3.008-2.561c-1.481-1.608-2.229-3.455-2.188-5.701c0.084-4.511,0.058-9.024,0.016-13.536
		c-0.031-3.122,2.534-7.019,6.943-6.934c5.639,0.108,11.28,0.017,16.919,0.03c3.478,0.009,7.173,2.71,7.745,5.79
		c0.246,1.321,0.172,2.709,0.178,4.067C425.492,148.878,425.481,153.337,425.481,157.923z"/>
	<path fill-rule="evenodd" clip-rule="evenodd" fill="#FDFDFD" d="M254.079,159.107c2.709-2.588,5.458-5.225,8.221-7.846
		c0.433-0.41,0.56-0.869,0.562-1.451c0.018-4.547,0.092-9.094,0.078-13.641c-0.003-0.879,0.214-1.1,1.087-1.082
		c2.875,0.061,5.754,0.049,8.63,0.006c0.767-0.012,1.065,0.117,1.06,0.985c-0.042,5.987-0.034,11.976-0.005,17.964
		c0.003,0.655-0.272,1.081-0.665,1.531c-2.12,2.429-4.207,4.89-6.345,7.302c-0.489,0.553-0.471,0.882,0.015,1.431
		c2.06,2.325,4.058,4.706,6.101,7.048c0.452,0.52,0.705,1.029,0.701,1.758c-0.031,6.182-0.034,12.364,0.001,18.546
		c0.005,0.805-0.18,1.048-1.013,1.033c-3.149-0.052-6.299-0.052-9.448,0c-0.853,0.015-1.013-0.271-1.006-1.058
		c0.035-4.704,0.004-9.409,0.032-14.113c0.004-0.675-0.175-1.136-0.679-1.602c-2.559-2.37-5.077-4.784-7.82-7.385
		c0,0.636,0,1.037,0,1.438c0,7.194-0.015,14.387,0.02,21.579c0.004,0.848-0.166,1.125-1.07,1.105
		c-2.915-0.064-5.832-0.053-8.747-0.006c-0.777,0.014-0.951-0.22-0.95-0.968c0.021-18.663,0.021-37.326-0.001-55.988
		c-0.001-0.768,0.204-0.969,0.961-0.957c2.993,0.044,5.988,0.043,8.981,0c0.722-0.01,0.894,0.184,0.901,0.9
		c0.073,7.07,0.185,14.14,0.294,21.209C253.988,157.687,254.052,158.525,254.079,159.107z"/>
	<path fill-rule="evenodd" clip-rule="evenodd" fill="#FEFEFE" d="M472.313,164.631c0-9.448,0.013-18.897-0.021-28.345
		c-0.003-0.855,0.177-1.094,1.067-1.088c7.153,0.041,14.309,0.035,21.463,0.006c0.792-0.004,1.061,0.167,1.043,1.01
		c-0.058,2.604-0.058,5.21-0.001,7.814c0.019,0.84-0.246,1.021-1.042,1.012c-3.46-0.043-6.921,0.008-10.382-0.038
		c-0.782-0.011-0.95,0.227-0.943,0.969c0.034,4.199,0.039,8.399-0.004,12.598c-0.008,0.787,0.234,0.949,0.973,0.942
		c3.498-0.037,6.999,0.005,10.497-0.034c0.77-0.009,1.075,0.122,1.055,0.99c-0.062,2.681-0.054,5.365-0.002,8.048
		c0.015,0.801-0.181,1.044-1.012,1.033c-3.576-0.048-7.154,0.002-10.731-0.038c-0.757-0.008-0.979,0.186-0.973,0.961
		c0.039,4.121,0.036,8.243,0.001,12.364c-0.005,0.733,0.22,0.915,0.926,0.908c3.539-0.033,7.077,0.011,10.616-0.035
		c0.832-0.012,1.033,0.241,1.02,1.044c-0.049,2.799-0.047,5.599-0.001,8.398c0.013,0.737-0.212,0.9-0.915,0.898
		c-7.194-0.024-14.387-0.032-21.58,0.007c-0.876,0.005-1.078-0.21-1.075-1.079C472.325,183.529,472.313,174.08,472.313,164.631z"/>
	<path fill-rule="evenodd" clip-rule="evenodd" fill="#FEFEFE" d="M442.676,169.068c0-7.697-0.016-15.396,0.021-23.094
		c0.004-0.859-0.183-1.136-1.078-1.102c-1.94,0.074-3.889-0.018-5.831,0.041c-0.826,0.027-0.945-0.316-0.936-1.02
		c0.032-2.566,0.05-5.133-0.009-7.698c-0.021-0.872,0.224-1.11,1.1-1.102c4.742,0.044,9.486,0.021,14.229,0.021
		c3.732,0,7.466,0.018,11.198-0.015c0.688-0.006,0.934,0.136,0.922,0.885c-0.049,2.799-0.039,5.599-0.005,8.397
		c0.008,0.648-0.159,0.858-0.832,0.845c-2.098-0.044-4.2,0.042-6.296-0.042c-0.989-0.039-1.204,0.253-1.202,1.216
		c0.033,15.046,0.023,30.092,0.023,45.138c0,0.233-0.032,0.473,0.006,0.698c0.127,0.766-0.246,0.882-0.921,0.874
		c-3.109-0.032-6.221-0.049-9.33,0.009c-0.866,0.016-1.087-0.194-1.082-1.074C442.692,184.386,442.676,176.727,442.676,169.068z"/>
	<path fill-rule="evenodd" clip-rule="evenodd" fill="#FDFDFD" d="M137.675,164.027c0-9.408,0.021-18.814-0.029-28.222
		c-0.005-1.058,0.305-1.301,1.288-1.298c8.085,0.017,16.17-0.017,24.255-0.018c2.336,0,3.93,1.312,5.13,3.146
		c0.995,1.521,1.481,3.23,1.481,5.065c-0.001,14.072,0.001,28.144-0.002,42.216c-0.001,4.879-3.651,8.524-8.532,8.525
		c-7.464,0.002-14.927-0.017-22.391,0.022c-0.959,0.005-1.226-0.246-1.222-1.218C137.689,182.841,137.675,173.434,137.675,164.027z
		 M148.599,163.503c0.065,0,0.129-0.001,0.194-0.001c0,6.064,0.025,12.129-0.025,18.191c-0.008,0.973,0.312,1.168,1.184,1.12
		c1.24-0.068,2.487-0.017,3.731-0.019c2.043-0.002,3.428-1.046,4.018-3.023c0.248-0.829,0.281-1.679,0.281-2.537
		c-0.003-8.982-0.002-17.963-0.004-26.944c0-0.389-0.002-0.779-0.036-1.165c-0.247-2.864-2.193-4.669-5.059-4.692
		c-1.05-0.008-2.104,0.059-3.148-0.02c-0.9-0.065-1.167,0.197-1.16,1.135C148.622,151.533,148.599,157.519,148.599,163.503z"/>
	<path fill-rule="evenodd" clip-rule="evenodd" fill="#FDFDFD" d="M180.073,163.858c0-9.177,0.016-18.353-0.023-27.528
		c-0.004-0.934,0.257-1.143,1.15-1.128c3.265,0.054,6.532,0.042,9.798,0.006c0.729-0.008,0.991,0.138,0.99,0.941
		c-0.024,18.507-0.024,37.016,0,55.522c0.001,0.838-0.251,1.027-1.045,1.016c-3.227-0.042-6.455-0.057-9.68,0.007
		c-0.956,0.019-1.22-0.204-1.215-1.192C180.091,182.287,180.073,173.071,180.073,163.858z"/>
	<path fill-rule="evenodd" clip-rule="evenodd" fill="#282320" d="M99.395,135.185c-0.003,10.077-8.073,18.153-18.133,18.146
		c-10.099-0.006-18.228-8.141-18.221-18.232c0.007-10.066,8.153-18.13,18.306-18.121C91.407,116.986,99.398,125.046,99.395,135.185z
		 M65.811,132.134c2.752-1.46,4.652-1.35,6.073,0.354c1.283,1.537,1.301,3.713,0.044,5.254c-1.451,1.779-3.351,1.896-6.157,0.375
		c0.062,6.58,8.075,13.066,15.978,12.936c8.657-0.144,15.579-7.574,15.365-16.49c-0.208-8.656-7.611-15.561-16.407-15.304
		C73.367,119.473,65.586,126.199,65.811,132.134z"/>
	<path fill-rule="evenodd" clip-rule="evenodd" fill="#282320" d="M58.319,135.164c-0.02,10.157-8.146,18.189-18.383,18.168
		c-9.881-0.02-18.047-8.27-18.029-18.215c0.019-10.123,8.182-18.162,18.421-18.139C50.27,117,58.337,125.154,58.319,135.164z
		 M55.636,132.281c-0.379-5.107-6.009-13.15-15.757-13.029c-8.682,0.107-15.815,7.414-15.671,16.104
		c0.148,8.906,7.593,15.961,16.566,15.697c7.234-0.213,15.02-7.03,14.821-12.978c-2.623,1.618-4.668,1.476-6.218-0.433
		c-1.222-1.506-1.135-3.789,0.199-5.248C51.153,130.669,53.248,130.63,55.636,132.281z"/>
	<path fill-rule="evenodd" clip-rule="evenodd" fill="#292526" d="M148.599,163.503c0-5.984,0.023-11.971-0.023-17.955
		c-0.007-0.938,0.259-1.2,1.16-1.135c1.044,0.078,2.098,0.012,3.148,0.02c2.865,0.023,4.812,1.828,5.059,4.692
		c0.033,0.386,0.036,0.776,0.036,1.165c0.002,8.981,0,17.962,0.004,26.944c0,0.858-0.033,1.708-0.281,2.537
		c-0.589,1.978-1.975,3.021-4.018,3.023c-1.244,0.002-2.491-0.05-3.731,0.019c-0.872,0.048-1.192-0.147-1.184-1.12
		c0.05-6.062,0.025-12.127,0.025-18.191C148.728,163.502,148.664,163.503,148.599,163.503z M151.601,163.709
		c0,5.016-0.001,10.033,0,15.05c0,1.075,0.406,1.393,1.493,1.186c1.249-0.237,1.835-1.105,1.84-2.833
		c0.012-4.394,0.004-8.789,0.004-13.183c0-4.589,0.005-9.179-0.003-13.768c-0.003-1.459-0.688-2.342-1.899-2.519
		c-1.152-0.168-1.434,0.074-1.434,1.249C151.6,153.832,151.601,158.77,151.601,163.709z"/>
	<path fill-rule="evenodd" clip-rule="evenodd" fill="#F1BC17" d="M65.811,132.134c-0.226-5.936,7.556-12.661,14.897-12.876
		c8.796-0.257,16.198,6.647,16.407,15.304c0.214,8.916-6.708,16.347-15.365,16.49c-7.903,0.131-15.916-6.355-15.978-12.936
		c2.806,1.521,4.706,1.404,6.157-0.375c1.257-1.541,1.238-3.717-0.044-5.254C70.464,130.785,68.563,130.674,65.811,132.134z"/>
	<path fill-rule="evenodd" clip-rule="evenodd" fill="#F1BC17" d="M55.636,132.281c-2.388-1.65-4.483-1.611-6.061,0.113
		c-1.334,1.459-1.421,3.742-0.199,5.248c1.55,1.908,3.596,2.051,6.218,0.433c0.199,5.947-7.587,12.765-14.821,12.978
		c-8.973,0.264-16.417-6.791-16.566-15.697c-0.145-8.689,6.989-15.996,15.671-16.104C49.628,119.13,55.258,127.173,55.636,132.281z"
		/>
</g>
<path fill="#FF0000" d="M391.039,78.98H175.891c-19.423,0-35.228-15.804-35.228-35.228c0-19.424,15.806-35.225,35.228-35.225
	h215.146c19.426,0,35.229,15.802,35.229,35.226C426.266,63.177,410.465,78.98,391.039,78.98z M175.891,16.861
	c-14.829,0-26.895,12.064-26.895,26.895c0,14.828,12.064,26.895,26.895,26.895h215.146c14.826,0,26.896-12.065,26.896-26.895
	c0-14.83-12.068-26.895-26.896-26.895H175.891z"/>
<path fill="#FF0000" d="M203.523,60.09V27.575h-9.778V50.31l-14.424-22.735h-10.512V60.09h9.779V36.621l15.155,23.469H203.523z"/>
<path fill="#FF0000" d="M219.415,60.09V38.088h-9.778V60.09H219.415z"/>
<path fill="#FF0000" d="M219.415,33.442v-5.867h-9.778v5.867H219.415z"/>
<path id="_x33_162" fill="#FF0000" d="M253.639,60.09V44.931c0-3.178-6.112-7.578-9.289-7.578h-2.935
	c-2.199,0-4.646,1.956-6.846,2.934v-2.199h-9.778V60.09h9.778V44.931c0-1.467,3.423-3.178,4.891-3.178
	c1.467,0,4.154,1.711,4.154,3.178v15.158L253.639,60.09L253.639,60.09z"/>
<path id="_x33_162_1_" fill="#FF0000" d="M335.459,60.847V45.69c0-3.179-6.109-7.578-9.293-7.578h-2.932
	c-2.201,0-4.646,1.956-6.848,2.933v-2.199h-9.777v22.002h9.777V45.69c0-1.466,3.424-3.179,4.891-3.179s4.154,1.713,4.154,3.179
	v15.157H335.459z"/>
<path fill="#FF0000" d="M269.53,60.09V38.088h5.135v-2.934h-5.135v-4.645H259.51v4.645h-5.135v2.934h5.135V60.09H269.53z"/>
<path fill="#FF0000" d="M288.354,37.354c-7.823,0-14.422,5.378-14.422,11.979c0,6.846,6.6,12.223,14.422,12.223
	c6.846,0,12.469-3.911,13.936-9.045h-10.021v2.935c0,2.444-1.709,3.18-3.91,3.18s-3.668-0.734-3.668-3.18v-6.111h18.092
	C302.78,42.733,296.424,37.354,288.354,37.354z M288.354,39.554c2.201,0,3.912,1.467,3.912,3.912v2.199h-7.578v-2.199
	C284.688,41.021,286.155,39.554,288.354,39.554z"/>
<path fill="#FF0000" d="M384.68,37.354c-8.07,0-14.426,5.378-14.426,11.979c0,6.846,6.354,12.223,14.426,12.223
	c7.818,0,14.422-5.377,14.422-12.223C399.098,42.733,392.498,37.354,384.68,37.354z M384.68,39.554c2.195,0,3.666,1.467,3.666,3.912
	v11.978c0,2.444-1.471,3.18-3.666,3.18c-2.445,0-3.914-0.734-3.914-3.18V43.466C380.764,41.021,382.233,39.554,384.68,39.554z"/>
<path fill="#FF0000" d="M356.563,27.575v11.979c0,0-2.936-2.2-6.848-2.2c-6.111,0-11.244,5.378-11.244,11.246
	c0,6.112,5.135,12.224,11.244,12.224c3.912,0,6.848-1.467,6.848-1.467v0.731h9.779V27.575H356.563z M352.895,41.021
	c2.199,0,3.668,1.712,3.668,3.912v9.045c0,2.2-1.469,2.934-3.668,2.934c-2.443,0-3.912-0.732-3.912-2.934v-9.045
	C348.983,42.733,350.451,41.021,352.895,41.021z"/>
<g>
	<path fill="#FF0000" d="M400.321,37.744c-2.773,0-5.035-2.258-5.035-5.035c0-2.959,2.213-5.28,5.035-5.28
		c2.73,0,5.037,2.417,5.037,5.28C405.358,35.39,403.008,37.744,400.321,37.744z M400.321,28.211c-2.426,0-4.252,1.934-4.252,4.5
		c0,2.344,1.908,4.254,4.252,4.254c2.23,0,4.256-2.028,4.256-4.254C404.576,30.312,402.592,28.211,400.321,28.211z M401.205,34.858
		l-0.863-1.515h-1.096v1.321h-0.779v-4.546h2.104c0.979,0,1.488,0.813,1.488,1.613c0,0.615-0.303,1.238-0.885,1.492l0.711,1.248
		L401.205,34.858z M399.246,32.564h1.32c0.221,0,0.396-0.079,0.521-0.235c0.119-0.149,0.188-0.368,0.188-0.597
		c0-0.311-0.15-0.832-0.709-0.832h-1.32V32.564L399.246,32.564z"/>
</g>
</svg>
