<?xml version="1.0" encoding="UTF-8" standalone="no"?>
<!-- Generator: Adobe Illustrator 16.0.3, SVG Export Plug-In . SVG Version: 6.00 Build 0)  -->

<svg
   xmlns:dc="http://purl.org/dc/elements/1.1/"
   xmlns:cc="http://creativecommons.org/ns#"
   xmlns:rdf="http://www.w3.org/1999/02/22-rdf-syntax-ns#"
   xmlns:svg="http://www.w3.org/2000/svg"
   xmlns="http://www.w3.org/2000/svg"
   xmlns:sodipodi="http://sodipodi.sourceforge.net/DTD/sodipodi-0.dtd"
   xmlns:inkscape="http://www.inkscape.org/namespaces/inkscape"
   version="1.1"
   id="TEXT"
   x="0px"
   y="0px"
   width="566.929px"
   height="157.78px"
   viewBox="0 -0.001 566.929 157.78"
   enable-background="new 0 -0.001 566.929 157.78"
   xml:space="preserve"
   inkscape:version="0.48.2 r9819"
   sodipodi:docname="logo.svg"><metadata
     id="metadata339"><rdf:RDF><cc:Work
         rdf:about=""><dc:format>image/svg+xml</dc:format><dc:type
           rdf:resource="http://purl.org/dc/dcmitype/StillImage" /></cc:Work></rdf:RDF></metadata><defs
     id="defs337" /><sodipodi:namedview
     pagecolor="#ffffff"
     bordercolor="#666666"
     borderopacity="1"
     objecttolerance="10"
     gridtolerance="10"
     guidetolerance="10"
     inkscape:pageopacity="0"
     inkscape:pageshadow="2"
     inkscape:window-width="1027"
     inkscape:window-height="710"
     id="namedview335"
     showgrid="false"
     inkscape:zoom="1.5275281"
     inkscape:cx="280.98906"
     inkscape:cy="62.099651"
     inkscape:window-x="370"
     inkscape:window-y="134"
     inkscape:window-maximized="0"
     inkscape:current-layer="TEXT" /><linearGradient
     id="SVGID_1_"
     gradientUnits="userSpaceOnUse"
     x1="558.1284"
     y1="955.5977"
     x2="11.77"
     y2="955.5977"
     gradientTransform="matrix(1 0 0 1 -0.1797 -875.4102)"><stop
       offset="0"
       style="stop-color:#013A67"
       id="stop4" /><stop
       offset="1"
       style="stop-color:#6CD1FF"
       id="stop6" /></linearGradient><linearGradient
     id="SVGID_2_"
     gradientUnits="userSpaceOnUse"
     x1="64.7095"
     y1="938.7891"
     x2="60.765"
     y2="934.8448"
     gradientTransform="matrix(1 0 0 1 -0.1797 -875.4102)"><stop
       offset="0"
       style="stop-color:#08406F"
       id="stop11" /><stop
       offset="1"
       style="stop-color:#60C5F5"
       id="stop13" /></linearGradient><linearGradient
     id="SVGID_3_"
     gradientUnits="userSpaceOnUse"
     x1="123.2954"
     y1="1013.9102"
     x2="119.6701"
     y2="1010.2849"
     gradientTransform="matrix(1 0 0 1 -0.1797 -875.4102)"><stop
       offset="0"
       style="stop-color:#08406F"
       id="stop18" /><stop
       offset="1"
       style="stop-color:#60C5F5"
       id="stop20" /></linearGradient><linearGradient
     id="SVGID_4_"
     gradientUnits="userSpaceOnUse"
     x1="25.7236"
     y1="994.0508"
     x2="25.7236"
     y2="989.7383"
     gradientTransform="matrix(1 0 0 1 -0.1797 -875.4102)"><stop
       offset="0"
       style="stop-color:#08406F"
       id="stop25" /><stop
       offset="1"
       style="stop-color:#60C5F5"
       id="stop27" /></linearGradient><linearGradient
     id="SVGID_5_"
     gradientUnits="userSpaceOnUse"
     x1="121.1855"
     y1="1033.1816"
     x2="121.1855"
     y2="1028.7246"
     gradientTransform="matrix(1 0 0 1 -0.1797 -875.4102)"><stop
       offset="0"
       style="stop-color:#08406F"
       id="stop32" /><stop
       offset="1"
       style="stop-color:#60C5F5"
       id="stop34" /></linearGradient><linearGradient
     id="SVGID_6_"
     gradientUnits="userSpaceOnUse"
     x1="427.6938"
     y1="994.0234"
     x2="427.6938"
     y2="989.5566"
     gradientTransform="matrix(1 0 0 1 -0.1797 -875.4102)"><stop
       offset="0"
       style="stop-color:#08406F"
       id="stop39" /><stop
       offset="1"
       style="stop-color:#60C5F5"
       id="stop41" /></linearGradient><linearGradient
     id="SVGID_7_"
     gradientUnits="userSpaceOnUse"
     x1="251.0645"
     y1="994.8945"
     x2="251.0645"
     y2="990.416"
     gradientTransform="matrix(1 0 0 1 -0.1797 -875.4102)"><stop
       offset="0"
       style="stop-color:#08406F"
       id="stop46" /><stop
       offset="1"
       style="stop-color:#60C5F5"
       id="stop48" /></linearGradient><linearGradient
     id="SVGID_8_"
     gradientUnits="userSpaceOnUse"
     x1="522.2808"
     y1="882.1875"
     x2="522.2808"
     y2="877.3242"
     gradientTransform="matrix(1 0 0 1 -0.1797 -875.4102)"><stop
       offset="0"
       style="stop-color:#08406F"
       id="stop53" /><stop
       offset="1"
       style="stop-color:#60C5F5"
       id="stop55" /></linearGradient><linearGradient
     id="SVGID_9_"
     gradientUnits="userSpaceOnUse"
     x1="515.0132"
     y1="906.7148"
     x2="515.0132"
     y2="902.5049"
     gradientTransform="matrix(1 0 0 1 -0.1797 -875.4102)"><stop
       offset="0"
       style="stop-color:#08406F"
       id="stop60" /><stop
       offset="1"
       style="stop-color:#60C5F5"
       id="stop62" /></linearGradient><linearGradient
     id="SVGID_10_"
     gradientUnits="userSpaceOnUse"
     x1="459.3696"
     y1="950.2305"
     x2="459.3696"
     y2="946.5117"
     gradientTransform="matrix(1 0 0 1 -0.1797 -875.4102)"><stop
       offset="0"
       style="stop-color:#08406F"
       id="stop67" /><stop
       offset="1"
       style="stop-color:#60C5F5"
       id="stop69" /></linearGradient><linearGradient
     id="SVGID_11_"
     gradientUnits="userSpaceOnUse"
     x1="490.1606"
     y1="925.1113"
     x2="490.1606"
     y2="919.5566"
     gradientTransform="matrix(1 0 0 1 -0.1797 -875.4102)"><stop
       offset="0"
       style="stop-color:#08406F"
       id="stop74" /><stop
       offset="1"
       style="stop-color:#60C5F5"
       id="stop76" /></linearGradient><linearGradient
     id="SVGID_12_"
     gradientUnits="userSpaceOnUse"
     x1="74.3892"
     y1="968.8252"
     x2="70.846"
     y2="965.282"
     gradientTransform="matrix(1 0 0 1 -0.1797 -875.4102)"><stop
       offset="0"
       style="stop-color:#08406F"
       id="stop81" /><stop
       offset="1"
       style="stop-color:#60C5F5"
       id="stop83" /></linearGradient><linearGradient
     id="SVGID_13_"
     gradientUnits="userSpaceOnUse"
     x1="120.2554"
     y1="904.3691"
     x2="114.8892"
     y2="904.3691"
     gradientTransform="matrix(1 0 0 1 -0.1797 -875.4102)"><stop
       offset="0"
       style="stop-color:#08406F"
       id="stop88" /><stop
       offset="1"
       style="stop-color:#60C5F5"
       id="stop90" /></linearGradient><linearGradient
     id="SVGID_14_"
     gradientUnits="userSpaceOnUse"
     x1="173.0811"
     y1="919.9609"
     x2="166.4209"
     y2="919.9609"
     gradientTransform="matrix(1 0 0 1 -0.1797 -875.4102)"><stop
       offset="0"
       style="stop-color:#08406F"
       id="stop95" /><stop
       offset="1"
       style="stop-color:#60C5F5"
       id="stop97" /></linearGradient><linearGradient
     id="SVGID_15_"
     gradientUnits="userSpaceOnUse"
     x1="255.9883"
     y1="925.2158"
     x2="249.9951"
     y2="925.2158"
     gradientTransform="matrix(1 0 0 1 -0.1797 -875.4102)"><stop
       offset="0"
       style="stop-color:#08406F"
       id="stop102" /><stop
       offset="1"
       style="stop-color:#60C5F5"
       id="stop104" /></linearGradient><linearGradient
     id="SVGID_16_"
     gradientUnits="userSpaceOnUse"
     x1="349.2769"
     y1="904.625"
     x2="343.5757"
     y2="904.625"
     gradientTransform="matrix(1 0 0 1 -0.1797 -875.4102)"><stop
       offset="0"
       style="stop-color:#08406F"
       id="stop109" /><stop
       offset="1"
       style="stop-color:#60C5F5"
       id="stop111" /></linearGradient><linearGradient
     id="SVGID_17_"
     gradientUnits="userSpaceOnUse"
     x1="400.9604"
     y1="918.4463"
     x2="395.1636"
     y2="918.4463"
     gradientTransform="matrix(1 0 0 1 -0.1797 -875.4102)"><stop
       offset="0"
       style="stop-color:#08406F"
       id="stop116" /><stop
       offset="1"
       style="stop-color:#60C5F5"
       id="stop118" /></linearGradient><linearGradient
     id="SVGID_18_"
     gradientUnits="userSpaceOnUse"
     x1="101.7651"
     y1="968.9385"
     x2="96.6543"
     y2="968.9385"
     gradientTransform="matrix(1 0 0 1 -0.1797 -875.4102)"><stop
       offset="0"
       style="stop-color:#08406F"
       id="stop123" /><stop
       offset="1"
       style="stop-color:#60C5F5"
       id="stop125" /></linearGradient><linearGradient
     id="SVGID_19_"
     gradientUnits="userSpaceOnUse"
     x1="121.2485"
     y1="973.8379"
     x2="117.6964"
     y2="970.2858"
     gradientTransform="matrix(1 0 0 1 -0.1797 -875.4102)"><stop
       offset="0"
       style="stop-color:#08406F"
       id="stop130" /><stop
       offset="1"
       style="stop-color:#60C5F5"
       id="stop132" /></linearGradient><linearGradient
     id="SVGID_20_"
     gradientUnits="userSpaceOnUse"
     x1="553.436"
     y1="892.5"
     x2="549.7673"
     y2="888.8311"
     gradientTransform="matrix(1 0 0 1 -0.1797 -875.4102)"><stop
       offset="0"
       style="stop-color:#08406F"
       id="stop137" /><stop
       offset="1"
       style="stop-color:#60C5F5"
       id="stop139" /></linearGradient><linearGradient
     id="SVGID_21_"
     gradientUnits="userSpaceOnUse"
     x1="145.9941"
     y1="969.8789"
     x2="140.5957"
     y2="969.8789"
     gradientTransform="matrix(1 0 0 1 -0.1797 -875.4102)"><stop
       offset="0"
       style="stop-color:#08406F"
       id="stop144" /><stop
       offset="1"
       style="stop-color:#60C5F5"
       id="stop146" /></linearGradient><linearGradient
     id="SVGID_22_"
     gradientUnits="userSpaceOnUse"
     x1="148.7769"
     y1="907.0098"
     x2="144.2891"
     y2="902.522"
     gradientTransform="matrix(1 0 0 1 -0.1797 -875.4102)"><stop
       offset="0"
       style="stop-color:#08406F"
       id="stop151" /><stop
       offset="1"
       style="stop-color:#60C5F5"
       id="stop153" /></linearGradient><linearGradient
     id="SVGID_23_"
     gradientUnits="userSpaceOnUse"
     x1="215.8457"
     y1="922.3213"
     x2="211.688"
     y2="918.1636"
     gradientTransform="matrix(1 0 0 1 -0.1797 -875.4102)"><stop
       offset="0"
       style="stop-color:#08406F"
       id="stop158" /><stop
       offset="1"
       style="stop-color:#60C5F5"
       id="stop160" /></linearGradient><linearGradient
     id="SVGID_24_"
     gradientUnits="userSpaceOnUse"
     x1="304.3159"
     y1="927.8105"
     x2="299.9317"
     y2="923.4263"
     gradientTransform="matrix(1 0 0 1 -0.1797 -875.4102)"><stop
       offset="0"
       style="stop-color:#08406F"
       id="stop165" /><stop
       offset="1"
       style="stop-color:#60C5F5"
       id="stop167" /></linearGradient><linearGradient
     id="SVGID_25_"
     gradientUnits="userSpaceOnUse"
     x1="376.9712"
     y1="906.8613"
     x2="372.7633"
     y2="902.653"
     gradientTransform="matrix(1 0 0 1 -0.1797 -875.4102)"><stop
       offset="0"
       style="stop-color:#08406F"
       id="stop172" /><stop
       offset="1"
       style="stop-color:#60C5F5"
       id="stop174" /></linearGradient><linearGradient
     id="SVGID_26_"
     gradientUnits="userSpaceOnUse"
     x1="488.7378"
     y1="935.2646"
     x2="485.2816"
     y2="931.8086"
     gradientTransform="matrix(1 0 0 1 -0.1797 -875.4102)"><stop
       offset="0"
       style="stop-color:#08406F"
       id="stop179" /><stop
       offset="1"
       style="stop-color:#60C5F5"
       id="stop181" /></linearGradient><linearGradient
     id="SVGID_27_"
     gradientUnits="userSpaceOnUse"
     x1="499.8081"
     y1="979.377"
     x2="495.8485"
     y2="975.4175"
     gradientTransform="matrix(1 0 0 1 -0.1797 -875.4102)"><stop
       offset="0"
       style="stop-color:#08406F"
       id="stop186" /><stop
       offset="1"
       style="stop-color:#60C5F5"
       id="stop188" /></linearGradient><linearGradient
     id="SVGID_28_"
     gradientUnits="userSpaceOnUse"
     x1="441.8374"
     y1="921.6133"
     x2="437.5547"
     y2="917.3306"
     gradientTransform="matrix(1 0 0 1 -0.1797 -875.4102)"><stop
       offset="0"
       style="stop-color:#08406F"
       id="stop193" /><stop
       offset="1"
       style="stop-color:#60C5F5"
       id="stop195" /></linearGradient><linearGradient
     id="SVGID_29_"
     gradientUnits="userSpaceOnUse"
     x1="486.8589"
     y1="916.6494"
     x2="481.7448"
     y2="911.5353"
     gradientTransform="matrix(1 0 0 1 -0.1797 -875.4102)"><stop
       offset="0"
       style="stop-color:#08406F"
       id="stop200" /><stop
       offset="1"
       style="stop-color:#60C5F5"
       id="stop202" /></linearGradient><linearGradient
     id="SVGID_30_"
     gradientUnits="userSpaceOnUse"
     x1="185.9771"
     y1="992.3301"
     x2="182.3352"
     y2="988.6882"
     gradientTransform="matrix(1 0 0 1 -0.1797 -875.4102)"><stop
       offset="0"
       style="stop-color:#08406F"
       id="stop207" /><stop
       offset="1"
       style="stop-color:#60C5F5"
       id="stop209" /></linearGradient><linearGradient
     id="SVGID_31_"
     gradientUnits="userSpaceOnUse"
     x1="303.0278"
     y1="969.1396"
     x2="299.3873"
     y2="965.4991"
     gradientTransform="matrix(1 0 0 1 -0.1797 -875.4102)"><stop
       offset="0"
       style="stop-color:#08406F"
       id="stop214" /><stop
       offset="1"
       style="stop-color:#60C5F5"
       id="stop216" /></linearGradient><linearGradient
     id="SVGID_32_"
     gradientUnits="userSpaceOnUse"
     x1="349.8892"
     y1="973.085"
     x2="346.3799"
     y2="969.5756"
     gradientTransform="matrix(1 0 0 1 -0.1797 -875.4102)"><stop
       offset="0"
       style="stop-color:#08406F"
       id="stop221" /><stop
       offset="1"
       style="stop-color:#60C5F5"
       id="stop223" /></linearGradient><linearGradient
     id="SVGID_33_"
     gradientUnits="userSpaceOnUse"
     x1="370.8042"
     y1="993.6396"
     x2="366.3813"
     y2="989.2169"
     gradientTransform="matrix(1 0 0 1 -0.1797 -875.4102)"><stop
       offset="0"
       style="stop-color:#08406F"
       id="stop228" /><stop
       offset="1"
       style="stop-color:#60C5F5"
       id="stop230" /></linearGradient><linearGradient
     id="SVGID_34_"
     gradientUnits="userSpaceOnUse"
     x1="229.457"
     y1="971.7686"
     x2="223.4189"
     y2="971.7686"
     gradientTransform="matrix(1 0 0 1 -0.1797 -875.4102)"><stop
       offset="0"
       style="stop-color:#08406F"
       id="stop235" /><stop
       offset="1"
       style="stop-color:#60C5F5"
       id="stop237" /></linearGradient><linearGradient
     id="SVGID_35_"
     gradientUnits="userSpaceOnUse"
     x1="330.3042"
     y1="968.5186"
     x2="325.0923"
     y2="968.5186"
     gradientTransform="matrix(1 0 0 1 -0.1797 -875.4102)"><stop
       offset="0"
       style="stop-color:#08406F"
       id="stop242" /><stop
       offset="1"
       style="stop-color:#60C5F5"
       id="stop244" /></linearGradient><linearGradient
     id="SVGID_36_"
     gradientUnits="userSpaceOnUse"
     x1="374.9702"
     y1="967.8066"
     x2="368.7251"
     y2="967.8066"
     gradientTransform="matrix(1 0 0 1 -0.1797 -875.4102)"><stop
       offset="0"
       style="stop-color:#08406F"
       id="stop249" /><stop
       offset="1"
       style="stop-color:#60C5F5"
       id="stop251" /></linearGradient><linearGradient
     id="SVGID_37_"
     gradientUnits="userSpaceOnUse"
     x1="440.6372"
     y1="959.6748"
     x2="436.2191"
     y2="955.2568"
     gradientTransform="matrix(1 0 0 1 -0.1797 -875.4102)"><stop
       offset="0"
       style="stop-color:#08406F"
       id="stop256" /><stop
       offset="1"
       style="stop-color:#60C5F5"
       id="stop258" /></linearGradient><linearGradient
     id="SVGID_38_"
     gradientUnits="userSpaceOnUse"
     x1="472.9204"
     y1="969.5098"
     x2="472.9204"
     y2="963.708"
     gradientTransform="matrix(1 0 0 1 -0.1797 -875.4102)"><stop
       offset="0"
       style="stop-color:#08406F"
       id="stop263" /><stop
       offset="1"
       style="stop-color:#60C5F5"
       id="stop265" /></linearGradient><path
     style="fill:#000000"
     d="M 14.689079,63.543835 C 11.825692,63.353891 9.2624683,61.933442 7.5726013,59.600134 6.6504183,58.326807 6.4462743,57.639297 6.2885073,55.275581 6.1016113,52.475323 5.3208263,44.946167 4.8858843,41.749997 c -0.513295,-3.772001 -0.662412,-6.273559 -0.446986,-7.498872 0.09291,-0.528436 0.08231,-1.703432 -0.02356,-2.611088 -0.260868,-2.236625 -0.221872,-3.173911 0.204166,-4.90674 0.43851,-1.783548 1.363989,-3.623264 2.602622,-5.173603 l 0.921647,-1.153597 -0.229976,-2.554529 c -0.190348,-2.114439 -0.167907,-2.648744 0.130309,-3.101403 0.60708,-0.921494 2.3345387,-1.743716 5.0804727,-2.418167 2.612821,-0.641756 4.246665,-0.716615 5.426927,-0.248643 0.652777,0.258815 0.884,0.679556 2.250622,4.09527 0.526503,1.315928 0.674439,1.507542 1.611192,2.086944 0.567309,0.350878 1.290006,0.677533 1.605993,0.725898 0.397511,0.06082 5.050182,-1.029015 15.100627,-3.537168 l 14.526083,-3.625122 0.894103,-1.244737 c 0.671253,-0.9344866 0.861787,-1.3782736 0.764424,-1.7804586 -0.07149,-0.294613 -0.203155,-1.564223 -0.292946,-2.8213 -0.138881,-1.9445613 -0.101531,-2.3720908 0.250306,-2.8653618 0.639394,-0.8964184 1.58104,-1.3601533 4.376154,-2.15513427 2.730579,-0.7766277 4.260209,-0.9354009 5.72664,-0.5944242 0.795502,0.1849692 0.841693,0.2402571 1.564919,1.87335567 0.409873,0.9255182 0.909945,2.0962287 1.111292,2.6015576 0.20135,0.505339 0.423738,0.905957 0.494219,0.890262 0.07059,-0.01528 0.798893,0.307106 1.618691,0.717311 3.359711,1.681159 5.515436,4.0525356 6.665345,7.3321336 0.263972,0.752753 0.806759,1.813964 1.206261,2.358221 0.840837,1.145511 1.853742,3.437306 3.344289,7.566804 1.146561,3.176501 3.834738,9.878947 4.992055,12.446742 0.827891,1.836864 0.911937,2.531497 0.544269,4.497906 -0.864514,4.623516 -5.750181,8.227134 -9.923468,7.319452 -2.722118,-0.592068 -4.786193,-2.136692 -7.80572,-5.841321 -1.003406,-1.231063 -2.6388,-3.224865 -3.634207,-4.430657 l -1.809831,-2.192365 -0.353535,0.81248 c -0.629126,1.445838 -1.562413,2.704524 -2.735381,3.689141 -1.071225,0.899203 -1.287691,0.997689 -3.254677,1.480816 -1.902455,0.467278 -2.231436,0.490314 -3.386981,0.237219 -1.582408,-0.346595 -3.365912,-1.520225 -4.570618,-3.007693 l -0.896598,-1.10703 -4.070903,0.999888 -4.070894,0.999885 0.01565,0.634832 c 0.02211,0.896617 -0.88015,3.268648 -1.587779,4.174268 -1.168102,1.494936 -2.049921,2.096056 -3.880554,2.645329 -2.942139,0.882764 -5.661361,0.321855 -8.034444,-1.657304 l -0.747612,-0.6235 -0.319115,1.072351 c -0.175522,0.589801 -0.633023,2.785743 -1.016676,4.879881 -1.211076,6.610577 -2.234894,9.039568 -4.690218,11.127572 -1.123036,0.955022 -1.453334,1.129072 -2.70698,1.426518 -0.822241,0.194749 -1.982962,0.301958 -2.736432,0.25198 z m 21.286033,-19.67693 c 1.006325,-0.814209 1.857861,-2.21959 2.105247,-3.474552 0.302686,-1.535501 -0.291817,-3.724396 -1.332167,-4.904887 -1.625535,-1.844495 -3.897183,-2.441731 -6.316539,-1.66066 -3.696187,1.193279 -5.151275,5.565974 -2.922497,8.782429 1.951927,2.816919 5.827238,3.392624 8.465956,1.25767 z m 23.461903,-5.693882 c 0.832645,-0.731103 1.709671,-2.204631 1.960324,-3.293653 0.09951,-0.432293 0.07699,-1.393497 -0.05002,-2.135993 -0.432977,-2.531143 -2.022037,-4.222353 -4.471335,-4.75881 -1.055869,-0.231261 -1.533734,-0.217139 -2.682653,0.07928 -1.644425,0.424186 -2.453004,0.981646 -3.353839,2.31196 -1.003149,1.481399 -1.273055,2.952986 -0.852848,4.65005 0.585284,2.361939 2.035684,3.797175 4.389564,4.342045 1.27942,0.29615 1.525612,0.285148 2.880524,-0.128754 0.983275,-0.30041 1.716525,-0.658919 2.180282,-1.066122 z m 9.077534,-11.892059 c 2.536388,-2.828524 -1.210759,-6.720462 -4.157626,-4.318303 -1.612871,1.314745 -1.156953,4.179804 0.793309,4.985363 1.208971,0.49937 2.558252,0.231836 3.364317,-0.66706 z m -49.027687,11.351906 0.347392,-0.61622 -0.971068,0.238512 -0.971068,0.238512 0.593358,0.385154 c 0.32634,0.211844 0.606994,0.381816 0.623669,0.37772 0.0167,-0.0041 0.186646,-0.284749 0.377717,-0.623678 z m 0.735533,-1.689894 c 0.23132,-0.160725 0.203737,-0.53815 -0.142284,-1.946928 L 19.650879,32.24849 18.753187,31.835916 c -1.443042,-0.663227 -1.429695,-0.665609 -2.296019,0.409156 l -0.808093,1.002531 0.429011,1.746655 c 0.367216,1.495073 0.48275,1.747449 0.802,1.752165 0.574321,0.0085 3.019864,-0.579397 3.342314,-0.803427 z M 61.226088,21.808947 c 0.724975,-0.880863 0.935928,-1.654337 0.714366,-2.619157 -0.840279,-3.658789 -6.211412,-2.830616 -5.911503,0.911502 0.196143,2.447304 3.653453,3.583297 5.197137,1.707655 z m 11.49229,-2.634357 c 2.348849,-2.099076 0.428197,-5.874028 -2.631186,-5.171449 -1.786009,0.410153 -2.723902,2.170735 -2.082919,3.909986 0.380513,1.032499 1.039183,1.62571 2.110702,1.900937 0.993462,0.255176 1.833065,0.04894 2.603403,-0.639474 z M 15.093719,31.603371 c 0.274467,-0.648373 0.484268,-1.238974 0.466221,-1.31245 -0.01803,-0.07342 -0.477548,-0.492075 -1.021131,-0.930232 l -0.98832,-0.796642 -1.691798,0.476187 -1.691799,0.476187 0.405139,1.90017 c 0.295171,1.384115 0.486281,1.927422 0.703739,2.000584 0.164203,0.05523 0.978125,-0.06502 1.808715,-0.267233 l 1.510113,-0.367822 0.499044,-1.178854 z m 8.291166,-2.993876 C 22.919557,26.408097 22.78394,26.31124 20.837512,26.789318 l -1.345013,0.330359 -0.579278,1.180458 c -0.3186,0.649256 -0.563167,1.246007 -0.543491,1.326116 0.01968,0.08012 0.470286,0.509211 1.001365,0.95356 l 0.965601,0.807906 1.715762,-0.482382 1.715773,-0.482384 -0.383305,-1.813373 z M 9.4605463,30.907126 c -0.177856,-0.107715 -0.778849,0.776141 -0.712216,1.047428 0.02788,0.113516 0.306712,0.373367 0.619628,0.577428 l 0.568944,0.37103 -0.169157,-0.95617 c -0.09303,-0.525901 -0.231316,-0.993759 -0.307169,-1.039723 z M 24.952617,28.612514 c 0.351888,-0.520602 0.303513,-0.748286 -0.236588,-1.113323 -0.653023,-0.441386 -0.778676,-0.278162 -0.538535,0.699538 0.242464,0.987159 0.349115,1.044062 0.775084,0.413794 z m -7.477881,-0.944145 0.789841,-0.990356 -0.416425,-1.733147 c -0.48433,-2.014645 -0.436518,-1.986003 -2.479117,-1.484304 -2.042794,0.501747 -2.013653,0.454122 -1.508667,2.463776 l 0.434877,1.728615 1.124563,0.511566 c 0.618515,0.281358 1.156346,0.50761 1.195177,0.502789 0.03897,-0.0044 0.426036,-0.454418 0.860441,-0.999108 z m 47.87119,-13.09805 c 0.951423,-0.787955 1.340882,-2.264852 0.882048,-3.344892 -0.818409,-1.9264616 -3.247172,-2.4909156 -4.816863,-1.119474 -1.824116,1.593757 -0.884389,4.764414 1.538966,5.192481 0.941289,0.166265 1.533064,-0.01357 2.395849,-0.728115 z m -49.761829,7.408804 -0.680364,-0.412047 -0.412057,0.680365 -0.412055,0.680376 1.092431,-0.268321 1.09242,-0.268318 -0.680375,-0.412055 z"
     id="path3199"
     inkscape:connector-curvature="0" /><path
     inkscape:connector-curvature="0"
     id="path3223"
     d="m 93.247373,92.348541 c -2.863387,-0.18994 -5.426611,-1.61039 -7.116478,-3.943699 -0.922183,-1.273327 -1.126327,-1.960837 -1.284094,-4.324553 -0.186896,-2.800258 -0.967681,-10.329414 -1.402623,-13.525584 -0.513295,-3.772001 -0.662412,-6.273559 -0.446986,-7.498872 0.09291,-0.528436 0.08231,-1.703432 -0.02356,-2.611088 -0.260868,-2.236625 -0.221872,-3.173911 0.204166,-4.90674 0.43851,-1.783548 1.363989,-3.623264 2.602622,-5.173603 l 0.921647,-1.153597 -0.229976,-2.554529 c -0.190348,-2.114439 -0.167907,-2.648744 0.130309,-3.101403 0.60708,-0.921494 2.334539,-1.743716 5.080473,-2.418167 2.61282,-0.641756 4.24667,-0.716615 5.42693,-0.248643 0.65277,0.258815 0.884,0.679556 2.25062,4.09527 0.5265,1.315928 0.674437,1.507542 1.611187,2.086944 0.56731,0.350878 1.29001,0.677533 1.60599,0.725898 0.39752,0.06082 5.05019,-1.029015 15.10063,-3.537168 l 14.52608,-3.625122 0.8941,-1.244737 c 0.67126,-0.934487 0.86179,-1.378274 0.76443,-1.780459 -0.0715,-0.294613 -0.20316,-1.564223 -0.29295,-2.8213 -0.13888,-1.944561 -0.10153,-2.372091 0.25031,-2.865362 0.63939,-0.896418 1.58104,-1.360153 4.37615,-2.155134 2.73058,-0.776628 4.26021,-0.935401 5.72664,-0.594424 0.7955,0.184969 0.84169,0.240257 1.56492,1.873356 0.40987,0.925518 0.90995,2.096228 1.11129,2.601557 0.20135,0.505339 0.42374,0.905957 0.49422,0.890262 0.0706,-0.01528 0.79889,0.307106 1.61869,0.717311 3.35971,1.681159 5.51544,4.052536 6.66535,7.332134 0.26397,0.752753 0.80676,1.813964 1.20626,2.358221 0.84084,1.145511 1.85374,3.437306 3.34429,7.566804 1.14656,3.176501 3.83474,9.878947 4.99205,12.446742 0.82789,1.836864 0.91194,2.531497 0.54427,4.497906 -0.86451,4.623516 -5.75018,8.227134 -9.92347,7.319452 -2.72211,-0.592068 -4.78619,-2.136692 -7.80572,-5.841321 -1.0034,-1.231063 -2.6388,-3.224865 -3.6342,-4.430657 l -1.80983,-2.192365 -0.35354,0.81248 c -0.62913,1.445838 -1.56241,2.704524 -2.73538,3.689141 -1.07123,0.899203 -1.28769,0.997689 -3.25468,1.480816 -1.90245,0.467278 -2.23143,0.490314 -3.38698,0.237219 -1.58241,-0.346595 -3.36591,-1.520225 -4.57062,-3.007693 l -0.89659,-1.10703 -4.07091,0.999888 -4.07089,0.999885 0.0156,0.634832 c 0.0221,0.896617 -0.88015,3.268648 -1.58778,4.174268 -1.1681,1.494936 -2.04992,2.096056 -3.88055,2.645329 -2.94214,0.882764 -5.66136,0.321855 -8.03444,-1.657304 l -0.74762,-0.6235 -0.31911,1.072351 c -0.17552,0.589801 -0.63302,2.785743 -1.01668,4.879881 -1.21107,6.610577 -2.23489,9.039568 -4.690217,11.127577 -1.12303,0.95502 -1.45333,1.12907 -2.70698,1.42651 -0.82224,0.19475 -1.98296,0.30196 -2.73643,0.25198 z M 114.5334,72.671613 c 1.00632,-0.814209 1.85786,-2.21959 2.10525,-3.474552 0.30268,-1.535501 -0.29182,-3.724396 -1.33217,-4.904887 -1.62553,-1.844495 -3.89718,-2.441731 -6.31654,-1.66066 -3.69618,1.193279 -5.15127,5.565974 -2.92249,8.782429 1.95192,2.816919 5.82724,3.392624 8.46595,1.25767 z m 23.4619,-5.693882 c 0.83265,-0.731103 1.70967,-2.204631 1.96033,-3.293653 0.0995,-0.432293 0.077,-1.393497 -0.05,-2.135993 -0.43298,-2.531143 -2.02204,-4.222353 -4.47134,-4.75881 -1.05587,-0.231261 -1.53373,-0.217139 -2.68265,0.07928 -1.64443,0.424186 -2.45301,0.981646 -3.35384,2.31196 -1.00315,1.481399 -1.27306,2.952986 -0.85285,4.65005 0.58529,2.361939 2.03569,3.797175 4.38957,4.342045 1.27942,0.29615 1.52561,0.285148 2.88052,-0.128754 0.98327,-0.30041 1.71652,-0.658919 2.18028,-1.066122 z m 9.07754,-11.892059 c 2.53638,-2.828524 -1.21076,-6.720462 -4.15763,-4.318303 -1.61287,1.314745 -1.15695,4.179804 0.79331,4.985363 1.20897,0.49937 2.55825,0.231836 3.36432,-0.66706 z m -49.027687,11.351906 0.3474,-0.61622 -0.97107,0.238512 -0.97107,0.238512 0.59336,0.385154 c 0.32634,0.211844 0.60699,0.381816 0.62367,0.37772 0.0167,-0.0041 0.18664,-0.284749 0.37771,-0.623678 z m 0.73554,-1.689894 c 0.23132,-0.160725 0.20373,-0.53815 -0.14229,-1.946928 l -0.42923,-1.747558 -0.89769,-0.412574 c -1.44304,-0.663227 -1.4297,-0.665609 -2.29602,0.409156 l -0.80809,1.002531 0.42901,1.746655 c 0.36721,1.495073 0.48275,1.747449 0.802,1.752165 0.57432,0.0085 3.01986,-0.579397 3.34231,-0.803427 z M 139.78438,50.613655 c 0.72497,-0.880863 0.93592,-1.654337 0.71436,-2.619157 -0.84028,-3.658789 -6.21141,-2.830616 -5.9115,0.911502 0.19614,2.447304 3.65345,3.583297 5.19714,1.707655 z m 11.49229,-2.634357 c 2.34884,-2.099076 0.42819,-5.874028 -2.63119,-5.171449 -1.78601,0.410153 -2.7239,2.170735 -2.08292,3.909986 0.38051,1.032499 1.03918,1.62571 2.1107,1.900937 0.99346,0.255176 1.83307,0.04894 2.60341,-0.639474 z M 93.652013,60.408079 c 0.27447,-0.648373 0.48427,-1.238974 0.46622,-1.31245 -0.018,-0.07342 -0.47755,-0.492075 -1.02113,-0.930232 l -0.98832,-0.796642 -1.691798,0.476187 -1.691799,0.476187 0.405139,1.90017 c 0.295171,1.384115 0.486281,1.927422 0.703739,2.000584 0.164203,0.05523 0.978125,-0.06502 1.808715,-0.267233 l 1.510114,-0.367822 0.49904,-1.178854 z m 8.291167,-2.993876 c -0.46533,-2.201398 -0.60095,-2.298255 -2.547377,-1.820177 l -1.34501,0.330359 -0.57928,1.180458 c -0.3186,0.649256 -0.56316,1.246007 -0.54349,1.326116 0.0197,0.08012 0.47029,0.509211 1.00137,0.95356 l 0.9656,0.807906 1.715757,-0.482382 1.71577,-0.482384 -0.3833,-1.813373 z m -13.92434,2.297631 c -0.177856,-0.107715 -0.778849,0.776141 -0.712216,1.047428 0.02788,0.113516 0.306712,0.373367 0.619628,0.577428 l 0.568944,0.37103 -0.169157,-0.95617 c -0.09303,-0.525901 -0.231316,-0.993759 -0.307169,-1.039723 z m 15.49207,-2.294612 c 0.35189,-0.520602 0.30351,-0.748286 -0.23659,-1.113323 -0.65302,-0.441386 -0.77868,-0.278162 -0.53853,0.699538 0.24246,0.987159 0.34911,1.044062 0.77508,0.413794 z m -7.477877,-0.944145 0.78984,-0.990356 -0.41643,-1.733147 c -0.48433,-2.014645 -0.43651,-1.986003 -2.47911,-1.484304 -2.042798,0.501747 -2.013657,0.454122 -1.508671,2.463776 l 0.434881,1.728615 1.12456,0.511566 c 0.61851,0.281358 1.15635,0.50761 1.19518,0.502789 0.039,-0.0044 0.42603,-0.454418 0.86044,-0.999108 z m 47.871177,-13.09805 c 0.95143,-0.787955 1.34089,-2.264852 0.88205,-3.344892 -0.81841,-1.926462 -3.24717,-2.490916 -4.81686,-1.119474 -1.82412,1.593757 -0.88439,4.764414 1.53896,5.192481 0.94129,0.166265 1.53307,-0.01357 2.39585,-0.728115 z m -49.761817,7.408804 -0.68037,-0.412047 -0.41205,0.680365 -0.412058,0.680376 1.092428,-0.268321 1.09242,-0.268318 -0.68037,-0.412055 z"
     style="fill:#000000" /><path
     style="fill:#000000"
     d="m 68.37058,158.46844 c -2.863387,-0.18994 -5.426611,-1.61039 -7.116478,-3.9437 -0.922183,-1.27333 -1.126327,-1.96084 -1.284094,-4.32455 -0.186896,-2.80026 -0.967681,-10.32942 -1.402623,-13.52559 -0.513295,-3.772 -0.662412,-6.27356 -0.446986,-7.49887 0.09291,-0.52844 0.08231,-1.70343 -0.02356,-2.61109 -0.260868,-2.23662 -0.221872,-3.17391 0.204166,-4.90674 0.43851,-1.78355 1.363989,-3.62326 2.602622,-5.1736 l 0.921647,-1.1536 -0.229976,-2.55453 c -0.190348,-2.11444 -0.167907,-2.64874 0.130309,-3.1014 0.60708,-0.92149 2.334539,-1.74372 5.080473,-2.41817 2.612821,-0.64175 4.246665,-0.71661 5.426927,-0.24864 0.652777,0.25882 0.884,0.67956 2.250622,4.09527 0.526503,1.31593 0.674439,1.50754 1.611192,2.08694 0.567309,0.35088 1.290006,0.67754 1.605993,0.7259 0.397511,0.0608 5.050182,-1.02901 15.100629,-3.53717 l 14.526077,-3.62512 0.8941,-1.24473 c 0.67126,-0.93449 0.86179,-1.37828 0.76443,-1.78046 -0.0715,-0.29462 -0.20316,-1.56423 -0.29295,-2.8213 -0.13888,-1.944565 -0.10153,-2.372095 0.25031,-2.865366 0.63939,-0.896418 1.58104,-1.360153 4.37615,-2.155134 2.73058,-0.776628 4.26021,-0.935401 5.72664,-0.594424 0.7955,0.184969 0.84169,0.240257 1.56492,1.873356 0.40987,0.925518 0.90995,2.096228 1.11129,2.601557 0.20135,0.505341 0.42374,0.905961 0.49422,0.890261 0.0706,-0.0153 0.79889,0.30711 1.61869,0.71731 3.35971,1.68116 5.51544,4.05254 6.66535,7.33214 0.26397,0.75275 0.80676,1.81396 1.20626,2.35822 0.84084,1.14551 1.85374,3.4373 3.34429,7.5668 1.14656,3.1765 3.83474,9.87895 4.99205,12.44674 0.82789,1.83687 0.91194,2.5315 0.54427,4.49791 -0.86451,4.62352 -5.75018,8.22713 -9.92347,7.31945 -2.72211,-0.59207 -4.78619,-2.13669 -7.80572,-5.84132 -1.0034,-1.23106 -2.6388,-3.22486 -3.6342,-4.43066 l -1.80983,-2.19236 -0.35354,0.81248 c -0.62913,1.44584 -1.56241,2.70452 -2.73538,3.68914 -1.07123,0.8992 -1.28769,0.99769 -3.25468,1.48082 -1.90245,0.46727 -2.23143,0.49031 -3.38698,0.23721 -1.58241,-0.34659 -3.36591,-1.52022 -4.57062,-3.00769 l -0.89659,-1.10703 -4.070907,0.99989 -4.07089,0.99988 0.0156,0.63484 c 0.0221,0.89661 -0.88015,3.26864 -1.58778,4.17426 -1.1681,1.49494 -2.04992,2.09606 -3.880554,2.64533 -2.942139,0.88277 -5.661361,0.32186 -8.034444,-1.6573 l -0.747612,-0.6235 -0.319115,1.07235 c -0.175522,0.5898 -0.633023,2.78574 -1.016676,4.87988 -1.211076,6.61058 -2.234894,9.03957 -4.690218,11.12758 -1.123036,0.95502 -1.453334,1.12907 -2.70698,1.42651 -0.822241,0.19475 -1.982962,0.30196 -2.736432,0.25198 z m 21.286033,-19.67693 c 1.00632,-0.81421 1.85786,-2.21959 2.10525,-3.47455 0.30268,-1.5355 -0.29182,-3.7244 -1.33217,-4.90489 -1.625535,-1.84449 -3.897183,-2.44173 -6.316539,-1.66066 -3.696187,1.19328 -5.151275,5.56598 -2.922497,8.78243 1.951927,2.81692 5.827238,3.39262 8.465956,1.25767 z m 23.461897,-5.69388 c 0.83265,-0.7311 1.70967,-2.20463 1.96033,-3.29365 0.0995,-0.4323 0.077,-1.3935 -0.05,-2.136 -0.43298,-2.53114 -2.02204,-4.22235 -4.47134,-4.75881 -1.05587,-0.23126 -1.53373,-0.21714 -2.68265,0.0793 -1.64443,0.42419 -2.45301,0.98165 -3.35384,2.31196 -1.00315,1.4814 -1.27306,2.95299 -0.85285,4.65005 0.58529,2.36194 2.03569,3.79718 4.38957,4.34205 1.27942,0.29615 1.52561,0.28515 2.88052,-0.12876 0.98327,-0.30041 1.71652,-0.65892 2.18028,-1.06612 z m 9.07754,-11.89206 c 2.53638,-2.82852 -1.21076,-6.72046 -4.15763,-4.3183 -1.61287,1.31474 -1.15695,4.1798 0.79331,4.98536 1.20897,0.49937 2.55825,0.23184 3.36432,-0.66706 z m -49.027687,11.35191 0.347392,-0.61622 -0.971068,0.23851 -0.971068,0.23851 0.593358,0.38515 c 0.32634,0.21185 0.606994,0.38182 0.623669,0.37772 0.0167,-0.004 0.186646,-0.28475 0.377717,-0.62367 z m 0.735533,-1.6899 c 0.23132,-0.16072 0.203737,-0.53815 -0.142284,-1.94693 l -0.429232,-1.74755 -0.897692,-0.41258 c -1.443042,-0.66323 -1.429695,-0.66561 -2.296019,0.40916 l -0.808093,1.00253 0.429011,1.74665 c 0.367216,1.49508 0.48275,1.74745 0.802,1.75217 0.574321,0.008 3.019864,-0.5794 3.342314,-0.80343 z m 41.003694,-14.13403 c 0.72497,-0.88086 0.93592,-1.65433 0.71436,-2.61915 -0.84028,-3.65879 -6.21141,-2.83062 -5.9115,0.9115 0.19614,2.4473 3.65345,3.58329 5.19714,1.70765 z m 11.49229,-2.63435 c 2.34884,-2.09908 0.42819,-5.87403 -2.63119,-5.17145 -1.78601,0.41015 -2.7239,2.17073 -2.08292,3.90998 0.38051,1.0325 1.03918,1.62571 2.1107,1.90094 0.99346,0.25518 1.83307,0.0489 2.60341,-0.63947 z m -57.62466,12.42878 c 0.274467,-0.64838 0.484268,-1.23898 0.466221,-1.31245 -0.01803,-0.0734 -0.477548,-0.49208 -1.021131,-0.93024 l -0.98832,-0.79664 -1.691798,0.47619 -1.691799,0.47619 0.405139,1.90017 c 0.295171,1.38411 0.486281,1.92742 0.703739,2.00058 0.164203,0.0552 0.978125,-0.065 1.808715,-0.26723 l 1.510113,-0.36782 0.499044,-1.17886 z m 8.291166,-2.99388 c -0.465328,-2.2014 -0.600945,-2.29825 -2.547373,-1.82018 l -1.345013,0.33036 -0.579278,1.18046 c -0.3186,0.64926 -0.563167,1.24601 -0.543491,1.32612 0.01968,0.0801 0.470286,0.50921 1.001365,0.95356 l 0.965601,0.8079 1.715762,-0.48238 1.715773,-0.48238 -0.383305,-1.81338 z m -13.924339,2.29763 c -0.177856,-0.10771 -0.778849,0.77614 -0.712216,1.04743 0.02788,0.11352 0.306712,0.37337 0.619628,0.57743 l 0.568944,0.37103 -0.169157,-0.95617 c -0.09303,-0.5259 -0.231316,-0.99376 -0.307169,-1.03973 z m 15.492071,-2.29461 c 0.351888,-0.5206 0.303513,-0.74829 -0.236588,-1.11332 -0.653023,-0.44139 -0.778676,-0.27817 -0.538535,0.69953 0.242464,0.98716 0.349115,1.04407 0.775084,0.4138 z m -7.477881,-0.94415 0.789841,-0.99035 -0.416425,-1.73315 c -0.48433,-2.01464 -0.436518,-1.986 -2.479117,-1.4843 -2.042794,0.50174 -2.013653,0.45412 -1.508667,2.46377 l 0.434877,1.72862 1.124563,0.51156 c 0.618515,0.28136 1.156346,0.50761 1.195177,0.50279 0.03897,-0.004 0.426036,-0.45441 0.860441,-0.9991 z m 47.871183,-13.09805 c 0.95143,-0.78795 1.34089,-2.26485 0.88205,-3.34489 -0.81841,-1.92646 -3.24717,-2.49091 -4.81686,-1.11947 -1.82412,1.59376 -0.88439,4.76441 1.53896,5.19248 0.94129,0.16626 1.53307,-0.0136 2.39585,-0.72812 z m -49.761822,7.40881 -0.680364,-0.41205 -0.412057,0.68037 -0.412055,0.68037 1.092431,-0.26832 1.09242,-0.26832 -0.680375,-0.41205 z"
     id="path3247"
     inkscape:connector-curvature="0" /><path
     inkscape:connector-curvature="0"
     id="path3249"
     d="m 11.415817,121.15325 c -2.8633868,-0.18994 -5.4266108,-1.61039 -7.1164778,-3.9437 -0.922183,-1.27333 -1.126327,-1.96084 -1.284094,-4.32455 -0.186896,-2.80026 -0.967681,-10.32942 -1.402623,-13.525589 -0.5132946,-3.772 -0.66241161,-6.27356 -0.4469856,-7.49887 0.09291,-0.52844 0.08231,-1.70343 -0.02356,-2.61109 -0.26086801,-2.23662 -0.22187201,-3.17391 0.204166,-4.90674 0.4385096,-1.78355 1.3639886,-3.62326 2.6026216,-5.1736 l 0.921647,-1.1536 -0.229976,-2.55453 c -0.190348,-2.11444 -0.167907,-2.64874 0.130309,-3.1014 0.60708,-0.92149 2.334539,-1.74372 5.080473,-2.41817 2.6128208,-0.64175 4.2466648,-0.71661 5.4269268,-0.24864 0.652777,0.25882 0.884,0.67956 2.250622,4.09527 0.526503,1.31593 0.674439,1.50754 1.611192,2.08694 0.567309,0.35088 1.290006,0.67754 1.605993,0.7259 0.397511,0.0608 5.050182,-1.02901 15.100629,-3.53717 l 14.526079,-3.62512 0.8941,-1.24473 c 0.67126,-0.93449 0.86179,-1.37828 0.76443,-1.78046 -0.0715,-0.29462 -0.20316,-1.564227 -0.29295,-2.821304 -0.13888,-1.944561 -0.10153,-2.372091 0.25031,-2.865362 0.63939,-0.896418 1.58104,-1.360153 4.37615,-2.155134 2.73058,-0.776628 4.26021,-0.935401 5.72664,-0.594424 0.7955,0.184969 0.84169,0.240257 1.56492,1.873356 0.40987,0.925518 0.90995,2.096228 1.11129,2.601557 0.20135,0.505339 0.42374,0.905957 0.49422,0.890262 0.0706,-0.01528 0.79889,0.307106 1.61869,0.717311 3.35971,1.681158 5.51544,4.052538 6.66535,7.332138 0.26397,0.75275 0.80676,1.81396 1.20626,2.35822 0.84084,1.14551 1.85374,3.4373 3.34429,7.5668 1.14656,3.1765 3.83474,9.87895 4.99205,12.44674 0.82789,1.83687 0.91194,2.5315 0.54427,4.49791 -0.86451,4.623519 -5.75018,8.227129 -9.92347,7.319449 -2.72211,-0.59207 -4.78619,-2.13669 -7.80572,-5.841319 -1.0034,-1.23106 -2.6388,-3.22486 -3.6342,-4.43066 l -1.80983,-2.19236 -0.35354,0.81248 c -0.62913,1.44584 -1.56241,2.70452 -2.73538,3.68914 -1.07123,0.8992 -1.28769,0.99769 -3.25468,1.48082 -1.90245,0.46727 -2.23143,0.49031 -3.38698,0.23721 -1.58241,-0.34659 -3.36591,-1.52022 -4.57062,-3.00769 l -0.89659,-1.10703 -4.070909,0.99989 -4.07089,0.99988 0.0156,0.63484 c 0.0221,0.89661 -0.88015,3.268639 -1.58778,4.174259 -1.1681,1.49494 -2.04992,2.09606 -3.880554,2.64533 -2.942139,0.88277 -5.661361,0.32186 -8.034444,-1.6573 l -0.747612,-0.6235 -0.319115,1.07235 c -0.175522,0.5898 -0.633023,2.78574 -1.016676,4.87988 -1.211076,6.61058 -2.234894,9.03957 -4.690218,11.12758 -1.123036,0.95502 -1.453334,1.12907 -2.70698,1.42651 -0.822241,0.19475 -1.982962,0.30196 -2.736432,0.25198 z M 32.70185,101.47632 c 1.00632,-0.81421 1.85786,-2.219589 2.10525,-3.474549 0.30268,-1.5355 -0.29182,-3.7244 -1.33217,-4.90489 -1.625535,-1.84449 -3.897183,-2.44173 -6.316539,-1.66066 -3.696187,1.19328 -5.151275,5.56598 -2.922497,8.782429 1.951927,2.81692 5.827238,3.39262 8.465956,1.25767 z m 23.461899,-5.693879 c 0.83265,-0.7311 1.70967,-2.20463 1.96033,-3.29365 0.0995,-0.4323 0.077,-1.3935 -0.05,-2.136 -0.43298,-2.53114 -2.02204,-4.22235 -4.47134,-4.75881 -1.05587,-0.23126 -1.53373,-0.21714 -2.68265,0.0793 -1.64443,0.42419 -2.45301,0.98165 -3.35384,2.31196 -1.00315,1.4814 -1.27306,2.95299 -0.85285,4.65005 0.58529,2.36194 2.03569,3.79718 4.38957,4.34205 1.27942,0.29615 1.52561,0.28515 2.88052,-0.12876 0.98327,-0.30041 1.71652,-0.65892 2.18028,-1.06612 z m 9.07754,-11.89206 c 2.53638,-2.82852 -1.21076,-6.72046 -4.15763,-4.3183 -1.61287,1.31474 -1.15695,4.1798 0.79331,4.98536 1.20897,0.49937 2.55825,0.23184 3.36432,-0.66706 z m -49.027689,11.35191 0.347392,-0.61622 -0.971068,0.23851 -0.971068,0.23851 0.593358,0.38515 c 0.32634,0.21185 0.606994,0.38182 0.623669,0.37772 0.0167,-0.004 0.186646,-0.28475 0.377717,-0.62367 z m 0.735533,-1.6899 c 0.23132,-0.16072 0.203737,-0.53815 -0.142284,-1.94693 l -0.429232,-1.74755 -0.897692,-0.41258 c -1.443042,-0.66323 -1.429695,-0.66561 -2.296019,0.40916 l -0.808093,1.00253 0.429011,1.74665 c 0.367216,1.49508 0.48275,1.74745 0.802,1.75217 0.574321,0.008 3.019864,-0.5794 3.342314,-0.80343 z m 41.003696,-14.13403 c 0.72497,-0.88086 0.93592,-1.65433 0.71436,-2.61915 -0.84028,-3.65879 -6.21141,-2.83062 -5.9115,0.9115 0.19614,2.4473 3.65345,3.58329 5.19714,1.70765 z m 11.49229,-2.63435 c 2.34884,-2.09908 0.42819,-5.87403 -2.63119,-5.17145 -1.78601,0.41015 -2.7239,2.17073 -2.08292,3.90998 0.38051,1.0325 1.03918,1.62571 2.1107,1.90094 0.99346,0.25518 1.83307,0.0489 2.60341,-0.63947 z m -57.624662,12.42878 c 0.274467,-0.64838 0.484268,-1.23898 0.466221,-1.31245 -0.01803,-0.0734 -0.477548,-0.49208 -1.021131,-0.93024 l -0.98832,-0.79664 -1.6917978,0.47619 -1.691799,0.47619 0.405139,1.90017 c 0.295171,1.38411 0.486281,1.92742 0.703739,2.00058 0.164203,0.0552 0.978125,-0.065 1.808715,-0.26723 l 1.5101128,-0.36782 0.499044,-1.17886 z m 8.291166,-2.99388 c -0.465328,-2.2014 -0.600945,-2.29825 -2.547373,-1.82018 l -1.345013,0.33036 -0.579278,1.18046 c -0.3186,0.64926 -0.563167,1.24601 -0.543491,1.32612 0.01968,0.0801 0.470286,0.50921 1.001365,0.95356 l 0.965601,0.8079 1.715762,-0.48238 1.715773,-0.48238 -0.383305,-1.81338 z m -13.9243388,2.29763 c -0.177856,-0.10771 -0.778849,0.77614 -0.712216,1.04743 0.02788,0.11352 0.306712,0.37337 0.619628,0.57743 l 0.568944,0.37103 -0.169157,-0.95617 c -0.09303,-0.5259 -0.231316,-0.99376 -0.307169,-1.03973 z m 15.4920708,-2.29461 c 0.351888,-0.5206 0.303513,-0.74829 -0.236588,-1.11332 -0.653023,-0.44139 -0.778676,-0.27817 -0.538535,0.69953 0.242464,0.98716 0.349115,1.04407 0.775084,0.4138 z m -7.477881,-0.94415 0.789841,-0.99035 -0.416425,-1.73315 c -0.48433,-2.01464 -0.436518,-1.986 -2.479117,-1.4843 -2.042794,0.50174 -2.013653,0.45412 -1.508667,2.46377 l 0.434877,1.72862 1.124563,0.51156 c 0.618515,0.28136 1.156346,0.50761 1.195177,0.50279 0.03897,-0.004 0.426036,-0.45441 0.860441,-0.9991 z m 47.871185,-13.09805 c 0.95143,-0.78795 1.34089,-2.26485 0.88205,-3.34489 -0.81841,-1.92646 -3.24717,-2.49091 -4.81686,-1.11947 -1.82412,1.59376 -0.88439,4.76441 1.53896,5.19248 0.94129,0.16626 1.53307,-0.0136 2.39585,-0.72812 z m -49.761824,7.40881 -0.680364,-0.41205 -0.412057,0.68037 -0.412055,0.68037 1.092431,-0.26832 1.09242,-0.26832 -0.680375,-0.41205 z"
     style="fill:#000000" /><g
     style="font-size:50.90724182px;font-style:normal;font-weight:normal;line-height:125%;letter-spacing:0px;word-spacing:0px;fill:#000000;fill-opacity:1;stroke:none;font-family:Sans"
     id="text3251"><path
       d="m 168.8925,48.12199 0,-38.1804312 1.92891,0 18.13571,18.0959332 18.11582,-18.0959332 4.25552,0 0,38.1804312 -8.51105,0 0,-23.345743 -14.89435,14.894346 -14.77503,-14.894346 0,23.345743 -4.25553,0"
       style="font-variant:normal;font-stretch:normal;text-align:center;text-anchor:middle;font-family:Krungthep;-inkscape-font-specification:Krungthep"
       id="path3266" /><path
       d="m 236.78208,9.9415588 8.47129,0 0,29.7091482 c -3e-5,2.293483 -0.83523,4.282046 -2.50559,5.965692 -1.65717,1.670395 -3.64573,2.505591 -5.9657,2.505591 l -8.51105,0 c -2.32,0 -4.31519,-0.828567 -5.98558,-2.485705 -1.65714,-1.67039 -2.48571,-3.66558 -2.4857,-5.985578 l 0,-29.7091482 8.47128,0 0,29.7091482 c -1e-5,1.140117 0.41096,2.12777 1.23291,2.962961 0.83518,0.835201 1.84272,1.252799 3.02262,1.252795 1.17986,4e-6 2.18077,-0.417594 3.00273,-1.252795 0.83517,-0.835191 1.25277,-1.822844 1.25279,-2.962961 l 0,-29.7091482"
       style="font-variant:normal;font-stretch:normal;text-align:center;text-anchor:middle;font-family:Krungthep;-inkscape-font-specification:Krungthep"
       id="path3268" /><path
       d="m 253.70476,48.12199 0,-38.1804312 8.47128,0 0,33.9249042 12.72681,0 0,4.255527 -21.19809,0"
       style="font-variant:normal;font-stretch:normal;text-align:center;text-anchor:middle;font-family:Krungthep;-inkscape-font-specification:Krungthep"
       id="path3270" /><path
       d="m 287.64955,48.12199 0,-33.924904 -8.47128,0 0,-4.2555272 25.45362,0 0,4.2555272 -8.47129,0 0,33.924904 -8.51105,0"
       style="font-variant:normal;font-stretch:normal;text-align:center;text-anchor:middle;font-family:Krungthep;-inkscape-font-specification:Krungthep"
       id="path3272" /><path
       d="m 313.10318,48.12199 0,-38.1804312 8.49117,0 0,38.1804312 -8.49117,0"
       style="font-variant:normal;font-stretch:normal;text-align:center;text-anchor:middle;font-family:Krungthep;-inkscape-font-specification:Krungthep"
       id="path3274" /><path
       d="m 346.76956,48.12199 0,-38.1804312 16.98234,0 c 2.31997,3.82e-5 4.30853,0.8352342 5.96569,2.5055912 1.67037,1.670428 2.50557,3.65899 2.5056,5.965692 l 0,4.255527 c -3e-5,2.320015 -0.83523,4.315206 -2.5056,5.985578 -1.65716,1.657155 -3.64572,2.485722 -5.96569,2.485706 l -8.51105,0 0,16.982337 -8.47129,0 m 8.47129,-21.198093 4.25552,0 c 1.15335,2.1e-5 2.14763,-0.417577 2.98285,-1.252796 0.84843,-0.848431 1.27266,-1.84934 1.27268,-3.002732 l 0,-4.255527 c -2e-5,-1.153336 -0.42425,-2.140989 -1.27268,-2.962961 -0.83522,-0.835163 -1.8295,-1.252761 -2.98285,-1.252795 l -4.25552,0 0,12.726811"
       style="font-variant:normal;font-stretch:normal;text-align:center;text-anchor:middle;font-family:Krungthep;-inkscape-font-specification:Krungthep"
       id="path3276" /><path
       d="m 380.67458,48.12199 0,-38.1804312 8.47128,0 0,33.9249042 12.72681,0 0,4.255527 -21.19809,0"
       style="font-variant:normal;font-stretch:normal;text-align:center;text-anchor:middle;font-family:Krungthep;-inkscape-font-specification:Krungthep"
       id="path3278" /><path
       d="m 410.40361,48.12199 0,-29.709148 c 0,-2.319959 0.82857,-4.308522 2.48571,-5.965692 1.67038,-1.670357 3.66557,-2.505553 5.98558,-2.5055912 l 8.51105,0 c 2.31997,3.82e-5 4.30853,0.8352342 5.96569,2.5055912 1.67037,1.670428 2.50556,3.65899 2.50559,5.965692 l 0,29.709148 -8.47128,0 0,-16.982337 -8.51105,0 0,16.982337 -8.47129,0 m 8.47129,-21.198093 8.51105,0 0,-8.511055 c -2e-5,-1.153336 -0.42425,-2.140989 -1.27268,-2.962961 -0.83522,-0.835163 -1.8295,-1.252761 -2.98285,-1.252795 -1.16664,3.4e-5 -2.16755,0.417632 -3.00273,1.252795 -0.83521,0.821972 -1.25281,1.809625 -1.25279,2.962961 l 0,8.511055"
       style="font-variant:normal;font-stretch:normal;text-align:center;text-anchor:middle;font-family:Krungthep;-inkscape-font-specification:Krungthep"
       id="path3280" /><path
       d="m 452.77993,48.12199 0,-16.982337 c -5.64753,-0.64958 -8.47129,-3.473339 -8.47129,-8.471284 l 0,-12.7268102 8.47129,0 0,12.7268102 c -2e-5,1.153392 0.41758,2.154301 1.25279,3.002732 0.83518,0.835219 1.83609,1.252817 3.00273,1.252796 1.15335,2.1e-5 2.14763,-0.417577 2.98285,-1.252796 0.84843,-0.848431 1.27266,-1.84934 1.27268,-3.002732 l 0,-12.7268102 8.47128,0 0,12.7268102 c -3e-5,4.997945 -2.82379,7.821704 -8.47128,8.471284 l 0,16.982337 -8.51105,0"
       style="font-variant:normal;font-stretch:normal;text-align:center;text-anchor:middle;font-family:Krungthep;-inkscape-font-specification:Krungthep"
       id="path3282" /><path
       d="m 478.21364,48.12199 0,-38.1804312 21.19809,0 0,4.2555272 -12.72681,0 0,12.726811 8.51106,0 0,4.215756 -8.51106,0 0,12.72681 12.72681,0 0,4.255527 -21.19809,0"
       style="font-variant:normal;font-stretch:normal;text-align:center;text-anchor:middle;font-family:Krungthep;-inkscape-font-specification:Krungthep"
       id="path3284" /><path
       d="m 507.94268,48.12199 0,-38.1804312 16.98233,0 c 2.31997,3.82e-5 4.30853,0.8352342 5.9657,2.5055912 1.67036,1.670428 2.50556,3.65899 2.50559,5.965692 l 0,2.306734 c -3e-5,1.89579 -0.64963,3.725268 -1.9488,5.488437 -1.29922,1.749957 -3.47338,2.624924 -6.52249,2.624905 l 4.21576,0 c 1.1666,1.9e-5 2.16751,0.417617 3.00273,1.252796 0.83517,0.835214 1.25277,1.836123 1.2528,3.002731 l 0,15.033545 -8.47129,0 0,-12.72681 c -2e-5,-1.166611 -0.42425,-2.16752 -1.27268,-3.002732 -0.83521,-0.83518 -1.8295,-1.252779 -2.98284,-1.252795 l -4.25553,0 0,16.982337 -8.47128,0 m 8.47128,-21.198093 4.25553,0 c 1.15334,2.1e-5 2.14763,-0.417577 2.98284,-1.252796 0.84843,-0.848431 1.27266,-1.84934 1.27268,-3.002732 l 0,-4.255527 c -2e-5,-1.153336 -0.42425,-2.140989 -1.27268,-2.962961 -0.83521,-0.835163 -1.8295,-1.252761 -2.98284,-1.252795 l -4.25553,0 0,12.726811"
       style="font-variant:normal;font-stretch:normal;text-align:center;text-anchor:middle;font-family:Krungthep;-inkscape-font-specification:Krungthep"
       id="path3286" /><path
       d="m 563.0458,18.412842 -4.21576,0 c -0.37122,-2.836986 -1.71018,-4.255493 -4.0169,-4.255527 -1.48481,3.4e-5 -2.60503,0.357975 -3.36067,1.073824 -0.75567,0.715916 -1.1335,1.783111 -1.13348,3.201589 -2e-5,1.060596 0.41758,2.054877 1.25279,2.982846 l 8.98831,10.101906 c 1.65712,1.856008 2.48568,3.851198 2.48571,5.985578 l 0,2.147649 c -3e-5,2.293483 -0.82859,4.282046 -2.48571,5.965692 -1.65716,1.670395 -3.65235,2.505591 -5.98558,2.505591 l -4.25552,0 c -2.81052,0 -4.92502,-0.709254 -6.34352,-2.127763 -1.41852,-1.418506 -2.12777,-3.53301 -2.12777,-6.34352 l 4.25553,0 c -0.0265,0.291664 -0.0398,0.523663 -0.0398,0.695997 -10e-6,1.153374 0.4441,2.028342 1.33234,2.624905 0.88821,0.596574 1.86261,0.894858 2.92319,0.894854 1.51129,4e-6 2.59837,-0.364566 3.26124,-1.09371 0.66284,-0.729134 0.99427,-1.789701 0.99428,-3.181703 -1e-5,-1.073815 -0.41761,-2.068096 -1.25279,-2.982846 l -8.98831,-10.062135 c -1.65714,-1.842712 -2.48571,-3.837903 -2.48571,-5.985578 l 0,-2.147649 c 0,-2.306702 0.82857,-4.295264 2.48571,-5.965692 1.65713,-1.670357 3.65232,-2.505553 5.98558,-2.5055912 l 4.25552,0 c 5.30282,3.82e-5 8.12658,2.8237962 8.47129,8.4712832"
       style="font-variant:normal;font-stretch:normal;text-align:center;text-anchor:middle;font-family:Krungthep;-inkscape-font-specification:Krungthep"
       id="path3288" /><path
       d="m 219.37925,140.7114 0,-60.066518 33.34943,0 0,6.694914 -20.02217,0 0,20.022174 13.38983,0 0,6.63234 -13.38983,0 0,26.71709 -13.32726,0"
       style="font-size:80.08869171px;font-variant:normal;font-stretch:normal;text-align:center;text-anchor:middle;font-family:Krungthep;-inkscape-font-specification:Krungthep"
       id="path3290" /><path
       d="m 266.14979,140.7114 0,-60.066518 33.34944,0 0,6.694914 -20.02218,0 0,20.022174 13.38983,0 0,6.63234 -13.38983,0 0,20.02218 20.02218,0 0,6.69491 -33.34944,0"
       style="font-size:80.08869171px;font-variant:normal;font-stretch:normal;text-align:center;text-anchor:middle;font-family:Krungthep;-inkscape-font-specification:Krungthep"
       id="path3292" /><path
       d="m 339.63743,80.644882 13.32726,0 0,37.260008 c -5e-5,6.21524 -2.24211,11.57533 -6.7262,16.08031 -4.46331,4.48414 -9.82341,6.7262 -16.08031,6.7262 l -17.23784,0 0,-60.066518 13.32726,0 0,53.371608 6.69491,0 c 1.8562,0 3.43086,-0.65697 4.72398,-1.97094 1.31393,-1.31394 1.9709,-2.86774 1.97094,-4.66141 l 0,-46.739258"
       style="font-size:80.08869171px;font-variant:normal;font-stretch:normal;text-align:center;text-anchor:middle;font-family:Krungthep;-inkscape-font-specification:Krungthep"
       id="path3294" /><path
       d="m 366.26066,140.7114 0,-60.066518 33.34943,0 0,6.694914 -20.02217,0 0,20.022174 13.38982,0 0,6.63234 -13.38982,0 0,20.02218 20.02217,0 0,6.69491 -33.34943,0"
       style="font-size:80.08869171px;font-variant:normal;font-stretch:normal;text-align:center;text-anchor:middle;font-family:Krungthep;-inkscape-font-specification:Krungthep"
       id="path3296" /><path
       d="m 413.03121,140.7114 0,-60.066518 26.71709,0 c 3.64984,6e-5 6.7783,1.314014 9.38539,3.941866 2.62787,2.627963 3.94182,5.756425 3.94187,9.385393 l 0,3.629019 c -5e-5,2.98251 -1.02201,5.86069 -3.0659,8.63456 -2.04397,2.75308 -5.46442,4.12961 -10.26136,4.12958 l 6.63234,0 c 1.83533,3e-5 3.40998,0.657 4.72398,1.97093 1.31391,1.31398 1.97089,2.88864 1.97094,4.72398 l 0,23.65119 -13.32726,0 0,-20.02217 c -4e-5,-1.83535 -0.66744,-3.41 -2.00222,-4.72398 -1.31399,-1.31393 -2.87822,-1.97091 -4.6927,-1.97094 l -6.69491,0 0,26.71709 -13.32726,0 m 13.32726,-33.34943 6.69491,0 c 1.81448,3e-5 3.37871,-0.65694 4.6927,-1.97093 1.33478,-1.33478 2.00218,-2.90944 2.00222,-4.72398 l 0,-6.694919 c -4e-5,-1.814461 -0.66744,-3.368263 -2.00222,-4.661412 -1.31399,-1.313902 -2.87822,-1.970879 -4.6927,-1.970933 l -6.69491,0 0,20.022174"
       style="font-size:80.08869171px;font-variant:normal;font-stretch:normal;text-align:center;text-anchor:middle;font-family:Krungthep;-inkscape-font-specification:Krungthep"
       id="path3298" /><path
       d="m 492.55679,120.68923 0,-40.044348 13.35854,0 0,40.044348 -13.35854,0 m 0,20.02217 0,-13.32726 13.35854,0 0,13.32726 -13.35854,0"
       style="font-size:80.08869171px;font-variant:normal;font-stretch:normal;text-align:center;text-anchor:middle;font-family:Krungthep;-inkscape-font-specification:Krungthep"
       id="path3300" /></g>
</svg>
