<?xml version="1.0" encoding="utf-8"?>
<!-- Generator: Adobe Illustrator 16.0.3, SVG Export Plug-In . SVG Version: 6.00 Build 0)  -->
<!DOCTYPE svg PUBLIC "-//W3C//DTD SVG 1.0//EN" "http://www.w3.org/TR/2001/REC-SVG-20010904/DTD/svg10.dtd">
<svg version="1.0" id="Ebene_1" xmlns="http://www.w3.org/2000/svg" xmlns:xlink="http://www.w3.org/1999/xlink" x="0px" y="0px"
	 width="21.775px" height="20.762px" viewBox="0 0 21.775 20.762" enable-background="new 0 0 21.775 20.762" xml:space="preserve">
<path fill="#393A3B" d="M17.161,9c0.397-0.388,0.308-0.758-0.148-0.9c-0.008-0.003-0.012-0.011-0.02-0.014
	c-0.068-0.03-0.174-0.07-0.328-0.092l-4.053-0.589c-0.279-0.04-0.589-0.184-0.86-0.379c-0.142-0.104-0.272-0.221-0.386-0.345
	c-0.105-0.117-0.194-0.241-0.255-0.365L9.298,2.64C9.278,2.6,9.254,2.57,9.232,2.533L9.213,2.495
	c-0.009-0.018-0.021-0.023-0.03-0.04C9.171,2.44,9.16,2.423,9.148,2.409C9.019,2.201,8.868,2.076,8.71,2.076
	c-0.15,0-0.294,0.119-0.419,0.309C8.281,2.396,8.273,2.41,8.264,2.421C8.247,2.45,8.225,2.462,8.209,2.495L8.183,2.547
	C8.163,2.58,8.142,2.6,8.123,2.64L6.309,6.314C6.247,6.44,6.157,6.566,6.05,6.685C5.938,6.806,5.811,6.921,5.674,7.021
	C5.4,7.22,5.088,7.365,4.807,7.406L0.753,7.994c-0.055,0.008-0.119,0.033-0.18,0.051h0c0,0,0,0-0.001,0
	C0.522,8.06,0.477,8.07,0.43,8.093C-0.045,8.231-0.142,8.606,0.262,9l3.007,2.931c0.431,0.422,0.699,1.233,0.622,1.842l-0.687,4.005
	c-0.004,0.025,0,0.045-0.002,0.068l-0.022,0.133c-0.077,0.446,0.094,0.708,0.404,0.708c0.118,0,0.255-0.038,0.407-0.117l3.717-1.955
	c0.276-0.145,0.641-0.216,1.003-0.216c0.364,0,0.729,0.072,1.004,0.216l3.718,1.955c0.149,0.079,0.289,0.117,0.406,0.117
	c0.312,0,0.481-0.262,0.405-0.708l-0.03-0.174c-0.001-0.012,0.002-0.019,0-0.03l-0.682-3.962c-0.093-0.612,0.181-1.452,0.62-1.882
	L17.161,9z M12.713,14.051l0.602,3.508l-3.145-1.656c-0.404-0.213-0.922-0.331-1.46-0.331c-0.535,0-1.052,0.118-1.458,0.331
	l-3.148,1.645l0.599-3.497c0.16-0.925-0.228-2.119-0.901-2.775l-2.54-2.483l3.513-0.509c0.929-0.135,1.944-0.872,2.36-1.716
	L8.7,3.354l1.584,3.212c0.416,0.844,1.431,1.581,2.361,1.714l3.514,0.519l-2.546,2.479C12.943,11.935,12.556,13.126,12.713,14.051z"
	/>
</svg>
