<?xml version="1.0" encoding="UTF-8" standalone="no"?>
<!-- Created with Inkscape (http://www.inkscape.org/) -->

<svg
   xmlns:dc="http://purl.org/dc/elements/1.1/"
   xmlns:cc="http://creativecommons.org/ns#"
   xmlns:rdf="http://www.w3.org/1999/02/22-rdf-syntax-ns#"
   xmlns:svg="http://www.w3.org/2000/svg"
   xmlns="http://www.w3.org/2000/svg"
   xmlns:sodipodi="http://sodipodi.sourceforge.net/DTD/sodipodi-0.dtd"
   xmlns:inkscape="http://www.inkscape.org/namespaces/inkscape"
   width="199.54732"
   height="167.42827"
   id="svg3264"
   version="1.1"
   inkscape:version="0.48.4 r9939"
   sodipodi:docname="Nouveau document 10">
  <defs
     id="defs3266" />
  <sodipodi:namedview
     id="base"
     pagecolor="#ffffff"
     bordercolor="#666666"
     borderopacity="1.0"
     inkscape:pageopacity="0.0"
     inkscape:pageshadow="2"
     inkscape:zoom="1.979899"
     inkscape:cx="128.3528"
     inkscape:cy="106.59905"
     inkscape:document-units="px"
     inkscape:current-layer="layer1"
     showgrid="false"
     width="200px"
     fit-margin-top="0"
     fit-margin-left="0"
     fit-margin-right="0"
     fit-margin-bottom="0"
     inkscape:window-width="1629"
     inkscape:window-height="998"
     inkscape:window-x="51"
     inkscape:window-y="24"
     inkscape:window-maximized="0" />
  <metadata
     id="metadata3269">
    <rdf:RDF>
      <cc:Work
         rdf:about="">
        <dc:format>image/svg+xml</dc:format>
        <dc:type
           rdf:resource="http://purl.org/dc/dcmitype/StillImage" />
        <dc:title></dc:title>
      </cc:Work>
    </rdf:RDF>
  </metadata>
  <g
     inkscape:label="Calque 1"
     inkscape:groupmode="layer"
     id="layer1"
     transform="translate(10.380309,-873.94939)">
    <g
       id="g3453"
       transform="translate(196.47467,46.467017)">
      <path
         style="fill:#d970a1"
         d="m -132.9034,994.37924 c -5.19177,-1.04935 -7.17975,-10.60438 -3.24661,-15.60455 1.80842,-2.29904 7.45461,-4.57817 8.57244,-3.46034 0.24289,0.24289 -0.26381,2.12996 -1.12601,4.19349 -0.86219,2.06352 -1.4306,5.39512 -1.26312,7.40354 0.28356,3.40051 0.55111,3.67234 3.89009,3.95223 2.29621,0.19248 4.04027,-0.24729 4.85,-1.22295 1.79153,-2.15866 1.56801,-8.36366 -0.37876,-10.51482 -1.51367,-1.67257 -1.5151,-1.86483 -0.0182,-2.43923 7.87843,-3.02324 12.1663,3.42758 7.43575,11.18662 -2.84537,4.66696 -12.02547,7.8582 -18.71557,6.50601 z m 40.14086,-0.70391 c -1.70519,-0.76443 -3.39269,-2.15172 -3.75,-3.08287 -1.08058,-2.81595 -0.73332,-7.46696 0.77534,-10.38438 2.20452,-4.26306 10.52057,-7.3202 9.23518,-3.39503 -3.67157,11.21181 -3.32877,13.51228 2.09461,14.05619 5.55818,0.55743 8.13175,-6.13813 4.2541,-11.06776 -1.74488,-2.21825 -1.7966,-2.60592 -0.41821,-3.13485 2.599,-0.99733 6.93024,-0.68266 8.20932,0.59642 1.93204,1.93204 1.43139,8.23612 -0.8883,11.18512 -4.13867,5.26147 -13.71369,7.82656 -19.51204,5.22716 z m -71.51731,-3.49463 c -3.32677,-3.32678 -3.88181,-4.50738 -3.87861,-8.25 0.008,-9.74225 8.69131,-16.17609 21.99626,-16.29859 l 7.5,-0.0691 -0.0637,4.7637 c -0.0899,6.72629 -1.81275,8.02939 -4.12083,3.11692 -2.09293,-4.45454 -4.66194,-5.28706 -9.15124,-2.96555 -5.91438,3.05845 -9.12348,12.05552 -6.22905,17.46382 1.63943,3.0633 7.65527,2.87437 12.06482,-0.37889 4.17303,-3.07876 5.23158,-3.14122 4.81955,-0.28436 -0.55038,3.81615 -6.27528,6.7844 -13.08508,6.7844 -5.60124,0 -6.20943,-0.23966 -9.85212,-3.88235 z m 55.36765,2.85119 c -1.5794,-0.63484 -2.25,-1.73572 -2.25,-3.69365 0,-3.26381 4.14389,-18.80702 5.87779,-22.04684 1.29655,-2.42262 5.59518,-3.08326 6.36596,-0.97835 0.25176,0.6875 -0.83441,5.7387 -2.4137,11.22488 -1.57929,5.48618 -2.65125,10.54868 -2.38213,11.25 0.26912,0.70132 1.85343,1.27512 3.5207,1.27512 3.44126,0 3.96952,1.42755 1.09712,2.96482 -2.32322,1.24335 -6.72797,1.24515 -9.81574,0.004 z m 40.21515,-1.21884 c -0.25965,-0.6875 0.54323,-4.4 1.78416,-8.25 1.99697,-6.19559 2.54322,-7 4.75347,-7 1.82771,0 2.58282,0.6027 2.81651,2.24804 l 0.3193,2.24804 3.26422,-2.48974 c 1.79532,-1.36936 4.68913,-2.77473 6.4307,-3.12304 3.71031,-0.74206 4.058,0.54725 1.68143,6.23519 -1.36906,3.27662 -1.61162,3.42768 -3.10537,1.93393 -2.81408,-2.81407 -7.07728,-0.62317 -11.05812,5.6829 -2.38097,3.7717 -5.92307,5.06517 -6.8863,2.51468 z M -206.7055,955.31528 c 0.36888,-0.96127 1.14272,-3.99877 1.71966,-6.75 1.17245,-5.59102 3.21956,-8.50223 5.97863,-8.50223 2.21049,0 2.21257,0.0422 0.34501,7 -1.88706,7.03047 -1.87194,7.26942 0.38363,6.06228 1.07176,-0.57359 2.18117,-2.63606 2.57397,-4.78518 0.92602,-5.0665 3.13329,-8.2771 5.69045,-8.2771 1.75761,0 2.01326,0.4505 1.56058,2.75 -1.95958,9.95399 -1.99314,10.5115 -0.60498,10.04878 0.75594,-0.25198 1.99213,-2.67229 2.74709,-5.37846 0.75495,-2.70618 1.82748,-5.48282 2.3834,-6.17032 1.17015,-1.44714 4.76586,-1.69331 4.76586,-0.32629 0,3.43415 -2.67733,11.95732 -4.34317,13.82629 -1.84844,2.07384 -2.86142,2.25 -12.93813,2.25 -9.99591,0 -10.87521,-0.14976 -10.262,-1.74777 z m 27.02822,0.72337 c -1.10804,-1.79285 0.59571,-6.91867 2.81677,-8.47436 1.35337,-0.94794 4.45698,-1.50124 8.42082,-1.50124 6.07929,0 6.27749,0.0814 6.27749,2.57692 0,1.51485 -1.20475,3.78167 -2.92308,5.5 -2.52444,2.52445 -3.67558,2.92308 -8.44098,2.92308 -3.03485,0 -5.80281,-0.46098 -6.15102,-1.0244 z m 9.68634,-2.63059 c 2.37432,-2.14873 2.39151,-5.34501 0.0287,-5.34501 -2.46449,0 -4.2,1.94211 -4.2,4.7 0,2.70703 1.61654,2.957 4.17126,0.64501 z m 27.97185,2.7646 c -2.00847,-1.27263 -0.50882,-6.63997 2.38501,-8.53608 1.32083,-0.86544 3.6976,-1.57353 5.28171,-1.57353 1.6102,0 3.67828,-0.88188 4.69017,-2 0.99549,-1.1 3.04172,-2 4.54719,-2 l 2.73721,0 -1.81417,3.55838 c -0.99779,1.95711 -2.11383,5.33211 -2.48009,7.5 l -0.66594,3.94162 -6.6621,-0.0153 c -3.66415,-0.008 -7.2727,-0.40221 -8.01899,-0.87508 z m 9.02815,-2.7646 c 2.37432,-2.14873 2.39151,-5.34501 0.0287,-5.34501 -2.46449,0 -4.2,1.94211 -4.2,4.7 0,2.70703 1.61654,2.957 4.17126,0.64501 z m 8.93393,2.28174 c -1.35734,-1.63549 -0.55854,-4.29201 2.21814,-7.37675 1.69091,-1.87851 3.05995,-2.25 8.29197,-2.25 7.39361,0 8.83967,1.35174 4.98918,4.66379 -1.86817,1.60693 -3.96568,2.33621 -6.71926,2.33621 -2.41419,0 -3.75793,0.39694 -3.38522,1 0.33992,0.55 2.19303,1 4.11803,1 2.07869,0 3.24903,0.40609 2.88197,1 -0.95021,1.53747 -11.06176,1.23297 -12.39481,-0.37325 z m 11.95894,-6.20402 c 1.15399,-1.39047 0.91113,-1.53852 -2.05054,-1.25 -1.84776,0.18 -3.54422,0.88977 -3.76991,1.57727 -0.60378,1.83925 4.24884,1.5664 5.82045,-0.32727 z m 17.90351,6.11626 c 0.83742,-1.00903 3.71203,-1.55042 9.29196,-1.75 5.12797,-0.18342 8.22322,-0.72349 8.47305,-1.47841 0.25407,-0.76771 -1.13558,-1.29953 -3.91951,-1.5 -3.63239,-0.26156 -4.36477,-0.67482 -4.64027,-2.6184 -0.17992,-1.26929 0.39296,-3.40679 1.27306,-4.75 1.46244,-2.23197 2.24884,-2.44218 9.13614,-2.44218 4.76933,0 7.30907,0.36712 6.91793,1 -0.33992,0.55 -2.52648,1 -4.85902,1 -3.89677,0 -6.64098,1.29967 -6.64098,3.14521 0,0.40986 2.1375,0.88236 4.75,1.05 4.32177,0.27731 4.778,0.54725 5.06058,2.99421 0.19639,1.70064 -0.44701,3.44701 -1.75,4.75 -1.83376,1.83376 -3.28492,2.06058 -13.18302,2.06058 -9.64133,0 -10.96098,-0.19456 -9.90992,-1.46101 z m 25.49808,-1.28899 c 1.25231,-5.04568 3.03151,-7.74694 5.31708,-8.07262 2.12191,-0.30237 2.22298,-0.0657 1.60981,3.76881 -0.52987,3.31364 -0.38187,3.98692 0.77849,3.54165 0.78801,-0.30239 1.85938,-1.99836 2.38082,-3.76882 0.72952,-2.47693 1.58204,-3.29197 3.69808,-3.53544 3.05571,-0.3516 3.15719,-0.0902 1.80076,4.63944 -1.07851,3.76054 0.6641,4.07896 2.48828,0.45466 1.63794,-3.25427 3.58687,-5.27768 5.0834,-5.27768 2.27713,0 1.57139,4.61619 -1.21133,7.92327 -2.5737,3.05867 -2.64772,3.07673 -12.60841,3.07673 l -10.01952,0 0.68254,-2.75 z m -93.46572,1.25924 c 0,-0.34298 0.50342,-2.62287 1.11872,-5.06642 l 1.11871,-4.44282 7.32227,0 c 4.02725,0 7.61059,0.46651 7.96298,1.0367 0.35239,0.57018 0.3394,2.82018 -0.0289,5 -0.59492,3.5213 -0.98375,3.9633 -3.48654,3.9633 -2.70919,0 -2.79642,-0.15301 -2.28043,-4 0.49979,-3.72626 0.36848,-4 -1.9188,-4 -2.00588,0 -2.62486,0.6864 -3.38166,3.75 -0.75791,3.06805 -1.42647,3.80754 -3.67637,4.06642 -1.5125,0.17403 -2.75,0.0358 -2.75,-0.30718 z m 55.65364,-2.75924 c 0.91834,-4.94439 3.80145,-6.70178 11.03734,-6.72776 6.43921,-0.0231 8.3324,1.03973 6.27267,3.52156 -1.66002,2.0002 -6.09563,1.96371 -5.32528,-0.0438 0.39249,-1.0228 -0.0557,-1.5 -1.40894,-1.5 -2.37372,0 -3.72364,1.53712 -4.61059,5.25 -0.53311,2.23162 -1.21415,2.75 -3.61289,2.75 -2.79207,0 -2.92248,-0.18018 -2.35231,-3.25 z m 63.54636,2.05 c -1.81582,-1.81582 -1.45622,-3.63469 1.25455,-6.34545 2.13989,-2.13989 3.35451,-2.45455 9.475,-2.45455 l 7.02045,0 -0.48422,3.25 -0.48421,3.25 1.51208,-3.25 c 1.50975,-3.24497 1.52373,-3.25 9.0406,-3.25 8.54112,0 9.37367,0.71895 7.47936,6.45876 -0.98064,2.97138 -1.63502,3.54124 -4.06641,3.54124 -2.69729,0 -2.83025,-0.17741 -1.92245,-2.5651 1.56431,-4.11443 1.19848,-5.4349 -1.5057,-5.4349 -1.88056,0 -2.63992,0.66549 -3.13789,2.75 -0.92101,3.85544 -2.25012,5.25 -5.0036,5.25 -1.58609,0 -2.38768,-0.58256 -2.40797,-1.75 -0.029,-1.66667 -0.0789,-1.66667 -1.04969,0 -0.81145,1.39317 -2.39569,1.75 -7.76959,1.75 -3.91691,0 -7.254,-0.50369 -7.95031,-1.2 z m 10.70217,-2.94922 c 1.43022,-4.10273 1.44762,-4.04192 -1.05004,-3.67033 -2.6262,0.39071 -4.39098,2.97294 -3.54266,5.18363 1.02093,2.66051 3.4124,1.87252 4.5927,-1.5133 z m -79.90217,-20.95084 c -19.95082,-5.1305 -41.88242,-20.54172 -52.51205,-36.89994 -6.76869,-10.41652 -6.61691,-12.28004 0.39009,-4.78953 7.60677,8.13166 17.55042,13.69009 25.91394,14.4857 l 5.70802,0.543 -7.09043,-6.55496 c -27.63757,-25.55033 -25.70201,-58.23692 4.0166,-67.83015 10.0552,-3.24584 26.02696,-3.24646 36.57383,-10e-4 8.95942,2.75661 22.47814,9.73226 29.78835,15.37076 9.39272,7.24478 19.92058,19.32772 23.71642,27.21959 4.22755,8.78944 4.48191,10.5008 0.66925,4.5028 -6.61469,-10.4061 -20.35209,-19.59262 -30.9313,-20.68449 l -5.54287,-0.57207 8.98229,8.90539 c 7.09011,7.02942 9.80758,10.57864 12.90007,16.84844 3.56076,7.2192 3.94949,8.7948 4.26568,17.28978 0.31468,8.4548 0.0971,9.85926 -2.27979,14.7175 -3.04976,6.23349 -8.96202,11.95169 -15.21901,14.71945 -11.14844,4.93149 -26.61567,6.00465 -39.34909,2.73016 z m 22.08137,-22.48841 c -2.98025,-0.80127 -6.91,-2.37857 -8.73278,-3.50511 -7.65421,-4.73056 -13.48918,-15.2258 -11.92652,-21.45195 2.49774,-9.95179 16.88362,-10.8764 27.52357,-1.76901 4.26125,3.64748 8.99634,11.89908 9.075,15.81454 0.0385,1.91587 0.0857,1.92169 1.12189,0.13844 0.59494,-1.02386 0.89507,-4.44186 0.66695,-7.59557 -1.19658,-16.54255 -20.22918,-34.34362 -38.26774,-35.79158 -8.89608,-0.71409 -13.05249,0.3119 -17.48456,4.31601 -5.07225,4.58248 -6.37847,8.05869 -5.88912,15.6726 0.4862,7.56498 3.37285,13.92093 9.33323,20.55031 9.19138,10.22303 19.69224,15.18497 31.99871,15.12024 l 8,-0.0421 -5.41863,-1.45685 z"
         id="path3471"
         inkscape:connector-curvature="0" />
      <path
         style="fill:#fc5c5d"
         d="m -133.87736,993.58683 c -7.41366,-3.22342 -5.02085,-16.04603 3.38818,-18.15656 3.31861,-0.83292 3.59216,-0.24614 1.84011,3.94712 -0.83222,1.99178 -1.51313,5.22201 -1.51313,7.17829 0,2.89807 0.47518,3.73753 2.56547,4.53226 1.71841,0.65334 3.22003,0.62509 4.54787,-0.0856 3.93194,-2.10431 4.6642,-9.21922 1.24121,-12.06005 -1.93871,-1.60899 -0.0354,-2.84314 4.41689,-2.86398 4.43377,-0.0207 6.05213,3.29248 4.36264,8.93151 -1.3918,4.64542 -5.03518,7.56102 -11.23403,8.98998 -5.55191,1.27984 -5.74037,1.27174 -9.61521,-0.41302 z m 41.11482,0.0885 c -1.70519,-0.76443 -3.39269,-2.15172 -3.75,-3.08287 -1.08058,-2.81595 -0.73332,-7.46696 0.77534,-10.38438 2.20452,-4.26306 10.52057,-7.3202 9.23518,-3.39503 -3.67157,11.21181 -3.32877,13.51228 2.09461,14.05619 5.55818,0.55743 8.13175,-6.13813 4.2541,-11.06776 -1.74488,-2.21825 -1.7966,-2.60592 -0.41821,-3.13485 2.599,-0.99733 6.93024,-0.68266 8.20932,0.59642 1.93204,1.93204 1.43139,8.23612 -0.8883,11.18512 -4.13867,5.26147 -13.71369,7.82656 -19.51204,5.22716 z m -71.51731,-3.49463 c -3.32677,-3.32678 -3.88181,-4.50738 -3.87861,-8.25 0.008,-9.74225 8.69131,-16.17609 21.99626,-16.29859 l 7.5,-0.0691 -0.0637,4.7637 c -0.0899,6.72629 -1.81275,8.02939 -4.12083,3.11692 -2.09293,-4.45454 -4.66194,-5.28706 -9.15124,-2.96555 -5.91438,3.05845 -9.12348,12.05552 -6.22905,17.46382 1.63943,3.0633 7.65527,2.87437 12.06482,-0.37889 4.17303,-3.07876 5.23158,-3.14122 4.81955,-0.28436 -0.55038,3.81615 -6.27528,6.7844 -13.08508,6.7844 -5.60124,0 -6.20943,-0.23966 -9.85212,-3.88235 z m 55.01474,2.00011 -2.32447,-1.88225 2.74834,-10.86775 c 2.79957,-11.07035 5.16062,-15.16441 8.09576,-14.03809 2.12045,0.81369 1.98283,2.66561 -0.9377,12.61897 -3.36664,11.4737 -3.31027,12.05136 1.17597,12.05136 3.59164,0 3.62362,0.0347 1.84501,2 -2.31094,2.55356 -7.52333,2.61145 -10.60291,0.11776 z m -97.44039,-36.86553 c 0.36888,-0.96127 1.14272,-3.99877 1.71966,-6.75 1.17245,-5.59102 3.21956,-8.50223 5.97863,-8.50223 2.21049,0 2.21257,0.0422 0.34501,7 -1.88706,7.03047 -1.87194,7.26942 0.38363,6.06228 1.07176,-0.57359 2.18117,-2.63606 2.57397,-4.78518 0.92602,-5.0665 3.13329,-8.2771 5.69045,-8.2771 1.75761,0 2.01326,0.4505 1.56058,2.75 -1.95958,9.95399 -1.99314,10.5115 -0.60498,10.04878 0.75594,-0.25198 1.99213,-2.67229 2.74709,-5.37846 0.75495,-2.70618 1.82748,-5.48282 2.3834,-6.17032 1.17015,-1.44714 4.76586,-1.69331 4.76586,-0.32629 0,3.43415 -2.67733,11.95732 -4.34317,13.82629 -1.84844,2.07384 -2.86142,2.25 -12.93813,2.25 -9.99591,0 -10.87521,-0.14976 -10.262,-1.74777 z m 27.02822,0.72337 c -1.10804,-1.79285 0.59571,-6.91867 2.81677,-8.47436 1.35337,-0.94794 4.45698,-1.50124 8.42082,-1.50124 6.07929,0 6.27749,0.0814 6.27749,2.57692 0,1.51485 -1.20475,3.78167 -2.92308,5.5 -2.52444,2.52445 -3.67558,2.92308 -8.44098,2.92308 -3.03485,0 -5.80281,-0.46098 -6.15102,-1.0244 z m 9.68634,-2.63059 c 2.37432,-2.14873 2.39151,-5.34501 0.0287,-5.34501 -2.46449,0 -4.2,1.94211 -4.2,4.7 0,2.70703 1.61654,2.957 4.17126,0.64501 z m 27.97185,2.7646 c -2.00847,-1.27263 -0.50882,-6.63997 2.38501,-8.53608 1.32083,-0.86544 3.6976,-1.57353 5.28171,-1.57353 1.6102,0 3.67828,-0.88188 4.69017,-2 0.99549,-1.1 3.04172,-2 4.54719,-2 l 2.73721,0 -1.81417,3.55838 c -0.99779,1.95711 -2.11383,5.33211 -2.48009,7.5 l -0.66594,3.94162 -6.6621,-0.0153 c -3.66415,-0.008 -7.2727,-0.40221 -8.01899,-0.87508 z m 9.02815,-2.7646 c 2.37432,-2.14873 2.39151,-5.34501 0.0287,-5.34501 -2.46449,0 -4.2,1.94211 -4.2,4.7 0,2.70703 1.61654,2.957 4.17126,0.64501 z m 8.93393,2.28174 c -1.35734,-1.63549 -0.55854,-4.29201 2.21814,-7.37675 1.69091,-1.87851 3.05995,-2.25 8.29197,-2.25 7.39361,0 8.83967,1.35174 4.98918,4.66379 -1.86817,1.60693 -3.96568,2.33621 -6.71926,2.33621 -2.41419,0 -3.75793,0.39694 -3.38522,1 0.33992,0.55 2.19303,1 4.11803,1 2.07869,0 3.24903,0.40609 2.88197,1 -0.95021,1.53747 -11.06176,1.23297 -12.39481,-0.37325 z m 11.95894,-6.20402 c 1.15399,-1.39047 0.91113,-1.53852 -2.05054,-1.25 -1.84776,0.18 -3.54422,0.88977 -3.76991,1.57727 -0.60378,1.83925 4.24884,1.5664 5.82045,-0.32727 z m 17.90351,6.11626 c 0.83742,-1.00903 3.71203,-1.55042 9.29196,-1.75 5.12797,-0.18342 8.22322,-0.72349 8.47305,-1.47841 0.25407,-0.76771 -1.13558,-1.29953 -3.91951,-1.5 -3.63239,-0.26156 -4.36477,-0.67482 -4.64027,-2.6184 -0.17992,-1.26929 0.39296,-3.40679 1.27306,-4.75 1.46244,-2.23197 2.24884,-2.44218 9.13614,-2.44218 4.76933,0 7.30907,0.36712 6.91793,1 -0.33992,0.55 -2.52648,1 -4.85902,1 -3.89677,0 -6.64098,1.29967 -6.64098,3.14521 0,0.40986 2.1375,0.88236 4.75,1.05 4.32177,0.27731 4.778,0.54725 5.06058,2.99421 0.19639,1.70064 -0.44701,3.44701 -1.75,4.75 -1.83376,1.83376 -3.28492,2.06058 -13.18302,2.06058 -9.64133,0 -10.96098,-0.19456 -9.90992,-1.46101 z m 25.49808,-1.28899 c 1.25231,-5.04568 3.03151,-7.74694 5.31708,-8.07262 2.12191,-0.30237 2.22298,-0.0657 1.60981,3.76881 -0.52987,3.31364 -0.38187,3.98692 0.77849,3.54165 0.78801,-0.30239 1.85938,-1.99836 2.38082,-3.76882 0.72952,-2.47693 1.58204,-3.29197 3.69808,-3.53544 3.05571,-0.3516 3.15719,-0.0902 1.80076,4.63944 -1.07851,3.76054 0.6641,4.07896 2.48828,0.45466 1.63794,-3.25427 3.58687,-5.27768 5.0834,-5.27768 2.27713,0 1.57139,4.61619 -1.21133,7.92327 -2.5737,3.05867 -2.64772,3.07673 -12.60841,3.07673 l -10.01952,0 0.68254,-2.75 z m -93.46572,1.25924 c 0,-0.34298 0.50342,-2.62287 1.11872,-5.06642 l 1.11871,-4.44282 7.32227,0 c 4.02725,0 7.61059,0.46651 7.96298,1.0367 0.35239,0.57018 0.3394,2.82018 -0.0289,5 -0.59492,3.5213 -0.98375,3.9633 -3.48654,3.9633 -2.70919,0 -2.79642,-0.15301 -2.28043,-4 0.49979,-3.72626 0.36848,-4 -1.9188,-4 -2.00588,0 -2.62486,0.6864 -3.38166,3.75 -0.75791,3.06805 -1.42647,3.80754 -3.67637,4.06642 -1.5125,0.17403 -2.75,0.0358 -2.75,-0.30718 z m 55.65364,-2.75924 c 0.91834,-4.94439 3.80145,-6.70178 11.03734,-6.72776 6.43921,-0.0231 8.3324,1.03973 6.27267,3.52156 -1.66002,2.0002 -6.09563,1.96371 -5.32528,-0.0438 0.39249,-1.0228 -0.0557,-1.5 -1.40894,-1.5 -2.37372,0 -3.72364,1.53712 -4.61059,5.25 -0.53311,2.23162 -1.21415,2.75 -3.61289,2.75 -2.79207,0 -2.92248,-0.18018 -2.35231,-3.25 z m 63.54636,2.05 c -1.81582,-1.81582 -1.45622,-3.63469 1.25455,-6.34545 2.14279,-2.1428 3.35179,-2.45455 9.51905,-2.45455 l 7.0645,0 -0.66547,2.75 c -1.7542,7.24898 -1.75549,7.25 -9.14788,7.25 -3.97481,0 -7.32586,-0.50111 -8.02475,-1.2 z m 10.70217,-2.94922 c 1.39976,-4.01535 1.43589,-3.85078 -0.84547,-3.85078 -2.66965,0 -5.36597,3.92242 -3.90578,5.68185 1.81259,2.18403 3.59043,1.49887 4.75125,-1.83107 z m 6.4974,1.69332 c 1.89264,-7.54085 1.897,-7.5441 10.10706,-7.5441 8.57109,0 9.40249,0.71531 7.50698,6.45876 -0.98064,2.97138 -1.63502,3.54124 -4.06641,3.54124 -2.69729,0 -2.83025,-0.17741 -1.92245,-2.5651 1.56431,-4.11443 1.19848,-5.4349 -1.5057,-5.4349 -1.88056,0 -2.63992,0.66549 -3.13789,2.75 -0.92929,3.89011 -2.25344,5.25 -5.11201,5.25 -2.14045,0 -2.4003,-0.34134 -1.86958,-2.4559 z m -83.39957,-21.97148 c -21.61737,-4.80473 -44.11333,-20.03083 -55.51205,-37.57262 -6.76869,-10.41652 -6.61691,-12.28004 0.39009,-4.78953 7.62698,8.15327 17.56128,13.69952 25.91394,14.46757 l 5.70802,0.52487 -6.26777,-5.69716 c -28.37881,-25.79527 -26.83595,-58.95798 3.19394,-68.65169 10.0552,-3.24584 26.02696,-3.24646 36.57383,-10e-4 8.95942,2.75661 22.47814,9.73226 29.78835,15.37076 9.39272,7.24478 19.92058,19.32772 23.71642,27.21959 4.22622,8.78667 4.4828,10.50412 0.67271,4.5028 -7.23388,-11.39418 -22.1481,-20.94578 -32.70547,-20.94578 l -3.4581,0 8.82525,8.75 c 6.93191,6.87279 9.66577,10.45408 12.74305,16.69305 3.56076,7.2192 3.94949,8.7948 4.26568,17.28978 0.31468,8.4548 0.0971,9.85926 -2.27979,14.7175 -3.04976,6.23349 -8.96202,11.95169 -15.21901,14.71945 -10.15422,4.49169 -25.13873,5.89448 -36.34909,3.40284 z m 21.9779,-21.46217 c 2.09933,-0.58474 1.61409,-0.8835 -3.17615,-1.95551 -9.68624,-2.16768 -17.54086,-9.41192 -19.943,-18.39323 -1.09287,-4.08613 -1.03366,-5.17171 0.452,-8.28718 1.77443,-3.721 6.44364,-6.47453 10.97899,-6.47453 10.71421,0 23.73086,11.74339 24.01205,21.66324 0.12457,4.3946 1.43349,4.26478 2.27591,-0.22571 1.81959,-9.69926 -2.51143,-20.17613 -12.17765,-29.45811 -10.3924,-9.9793 -24.06698,-14.7653 -35.86407,-12.55215 -4.26535,0.80019 -10.75543,6.2741 -12.53627,10.57343 -1.83994,4.442 -0.86077,14.60226 1.97556,20.4993 3.09763,6.44032 13.11841,16.5003 19.81741,19.89494 9.13999,4.63159 18.16739,6.3917 24.18522,4.71551 z"
         id="path3469"
         inkscape:connector-curvature="0" />
      <path
         style="fill:#f49e21"
         d="m -133.87736,993.58683 c -7.41366,-3.22342 -5.02085,-16.04603 3.38818,-18.15656 3.31861,-0.83292 3.59216,-0.24614 1.84011,3.94712 -0.83222,1.99178 -1.51313,5.22201 -1.51313,7.17829 0,2.89807 0.47518,3.73753 2.56547,4.53226 1.71841,0.65334 3.22003,0.62509 4.54787,-0.0856 3.93194,-2.10431 4.6642,-9.21922 1.24121,-12.06005 -1.93871,-1.60899 -0.0354,-2.84314 4.41689,-2.86398 4.43377,-0.0207 6.05213,3.29248 4.36264,8.93151 -1.3918,4.64542 -5.03518,7.56102 -11.23403,8.98998 -5.55191,1.27984 -5.74037,1.27174 -9.61521,-0.41302 z m 41.11482,0.0885 c -1.70519,-0.76443 -3.39269,-2.15172 -3.75,-3.08287 -1.08058,-2.81595 -0.73332,-7.46696 0.77534,-10.38438 2.20452,-4.26306 10.52057,-7.3202 9.23518,-3.39503 -3.67157,11.21181 -3.32877,13.51228 2.09461,14.05619 5.55818,0.55743 8.13175,-6.13813 4.2541,-11.06776 -1.74488,-2.21825 -1.7966,-2.60592 -0.41821,-3.13485 2.599,-0.99733 6.93024,-0.68266 8.20932,0.59642 1.93204,1.93204 1.43139,8.23612 -0.8883,11.18512 -4.13867,5.26147 -13.71369,7.82656 -19.51204,5.22716 z m -71.51731,-3.49463 c -3.32677,-3.32678 -3.88181,-4.50738 -3.87861,-8.25 0.008,-9.74225 8.69131,-16.17609 21.99626,-16.29859 l 7.5,-0.0691 -0.0637,4.7637 c -0.0899,6.72629 -1.81275,8.02939 -4.12083,3.11692 -2.09293,-4.45454 -4.66194,-5.28706 -9.15124,-2.96555 -5.91438,3.05845 -9.12348,12.05552 -6.22905,17.46382 1.63943,3.0633 7.65527,2.87437 12.06482,-0.37889 4.17303,-3.07876 5.23158,-3.14122 4.81955,-0.28436 -0.55038,3.81615 -6.27528,6.7844 -13.08508,6.7844 -5.60124,0 -6.20943,-0.23966 -9.85212,-3.88235 z m 56.36765,2.85119 c -3.22055,-1.29451 -3.24585,-4.30522 -0.13419,-15.96884 2.22952,-8.35703 4.18416,-12 6.43863,-12 2.74611,0 2.74638,3.04701 0.001,11.99653 -3.31475,10.80587 -3.16986,13.57992 0.69551,13.31521 3.18929,-0.21842 3.61145,1.15631 0.81472,2.65308 -2.30479,1.23348 -4.75386,1.23474 -7.81574,0.004 z m -98.7933,-37.71661 c 0.36888,-0.96127 1.14272,-3.99877 1.71966,-6.75 1.17245,-5.59102 3.21956,-8.50223 5.97863,-8.50223 2.21049,0 2.21257,0.0422 0.34501,7 -1.88706,7.03047 -1.87194,7.26942 0.38363,6.06228 1.07176,-0.57359 2.18117,-2.63606 2.57397,-4.78518 0.92602,-5.0665 3.13329,-8.2771 5.69045,-8.2771 1.75761,0 2.01326,0.4505 1.56058,2.75 -1.95958,9.95399 -1.99314,10.5115 -0.60498,10.04878 0.75594,-0.25198 1.99213,-2.67229 2.74709,-5.37846 0.75495,-2.70618 1.82748,-5.48282 2.3834,-6.17032 1.17015,-1.44714 4.76586,-1.69331 4.76586,-0.32629 0,3.43415 -2.67733,11.95732 -4.34317,13.82629 -1.84844,2.07384 -2.86142,2.25 -12.93813,2.25 -9.99591,0 -10.87521,-0.14976 -10.262,-1.74777 z m 27.02822,0.72337 c -1.10804,-1.79285 0.59571,-6.91867 2.81677,-8.47436 1.35337,-0.94794 4.45698,-1.50124 8.42082,-1.50124 6.07929,0 6.27749,0.0814 6.27749,2.57692 0,1.51485 -1.20475,3.78167 -2.92308,5.5 -2.52444,2.52445 -3.67558,2.92308 -8.44098,2.92308 -3.03485,0 -5.80281,-0.46098 -6.15102,-1.0244 z m 9.68634,-2.63059 c 2.37432,-2.14873 2.39151,-5.34501 0.0287,-5.34501 -2.46449,0 -4.2,1.94211 -4.2,4.7 0,2.70703 1.61654,2.957 4.17126,0.64501 z m 27.97185,2.7646 c -2.00847,-1.27263 -0.50882,-6.63997 2.38501,-8.53608 1.32083,-0.86544 3.6976,-1.57353 5.28171,-1.57353 1.6102,0 3.67828,-0.88188 4.69017,-2 0.99549,-1.1 3.04172,-2 4.54719,-2 l 2.73721,0 -1.81417,3.55838 c -0.99779,1.95711 -2.11383,5.33211 -2.48009,7.5 l -0.66594,3.94162 -6.6621,-0.0153 c -3.66415,-0.008 -7.2727,-0.40221 -8.01899,-0.87508 z m 9.02815,-2.7646 c 2.37432,-2.14873 2.39151,-5.34501 0.0287,-5.34501 -2.46449,0 -4.2,1.94211 -4.2,4.7 0,2.70703 1.61654,2.957 4.17126,0.64501 z m 8.93393,2.28174 c -1.35734,-1.63549 -0.55854,-4.29201 2.21814,-7.37675 1.69091,-1.87851 3.05995,-2.25 8.29197,-2.25 7.39361,0 8.83967,1.35174 4.98918,4.66379 -1.86817,1.60693 -3.96568,2.33621 -6.71926,2.33621 -2.41419,0 -3.75793,0.39694 -3.38522,1 0.33992,0.55 2.19303,1 4.11803,1 2.07869,0 3.24903,0.40609 2.88197,1 -0.95021,1.53747 -11.06176,1.23297 -12.39481,-0.37325 z m 11.95894,-6.20402 c 1.15399,-1.39047 0.91113,-1.53852 -2.05054,-1.25 -1.84776,0.18 -3.54422,0.88977 -3.76991,1.57727 -0.60378,1.83925 4.24884,1.5664 5.82045,-0.32727 z m 17.90351,6.11626 c 0.83742,-1.00903 3.71203,-1.55042 9.29196,-1.75 5.12797,-0.18342 8.22322,-0.72349 8.47305,-1.47841 0.25407,-0.76771 -1.13558,-1.29953 -3.91951,-1.5 -3.63239,-0.26156 -4.36477,-0.67482 -4.64027,-2.6184 -0.17992,-1.26929 0.39296,-3.40679 1.27306,-4.75 1.46244,-2.23197 2.24884,-2.44218 9.13614,-2.44218 4.76933,0 7.30907,0.36712 6.91793,1 -0.33992,0.55 -2.52648,1 -4.85902,1 -3.89677,0 -6.64098,1.29967 -6.64098,3.14521 0,0.40986 2.1375,0.88236 4.75,1.05 4.32177,0.27731 4.778,0.54725 5.06058,2.99421 0.19639,1.70064 -0.44701,3.44701 -1.75,4.75 -1.83376,1.83376 -3.28492,2.06058 -13.18302,2.06058 -9.64133,0 -10.96098,-0.19456 -9.90992,-1.46101 z m 25.49808,-1.28899 c 1.25231,-5.04568 3.03151,-7.74694 5.31708,-8.07262 2.12191,-0.30237 2.22298,-0.0657 1.60981,3.76881 -0.52987,3.31364 -0.38187,3.98692 0.77849,3.54165 0.78801,-0.30239 1.85938,-1.99836 2.38082,-3.76882 0.72952,-2.47693 1.58204,-3.29197 3.69808,-3.53544 3.05571,-0.3516 3.15719,-0.0902 1.80076,4.63944 -1.07851,3.76054 0.6641,4.07896 2.48828,0.45466 1.63794,-3.25427 3.58687,-5.27768 5.0834,-5.27768 2.27713,0 1.57139,4.61619 -1.21133,7.92327 -2.5737,3.05867 -2.64772,3.07673 -12.60841,3.07673 l -10.01952,0 0.68254,-2.75 z m -93.46572,1.25924 c 0,-0.34298 0.50342,-2.62287 1.11872,-5.06642 l 1.11871,-4.44282 7.32227,0 c 4.02725,0 7.61059,0.46651 7.96298,1.0367 0.35239,0.57018 0.3394,2.82018 -0.0289,5 -0.59492,3.5213 -0.98375,3.9633 -3.48654,3.9633 -2.70919,0 -2.79642,-0.15301 -2.28043,-4 0.49979,-3.72626 0.36848,-4 -1.9188,-4 -2.00588,0 -2.62486,0.6864 -3.38166,3.75 -0.75791,3.06805 -1.42647,3.80754 -3.67637,4.06642 -1.5125,0.17403 -2.75,0.0358 -2.75,-0.30718 z m 55.65364,-2.75924 c 0.91834,-4.94439 3.80145,-6.70178 11.03734,-6.72776 6.43921,-0.0231 8.3324,1.03973 6.27267,3.52156 -1.66002,2.0002 -6.09563,1.96371 -5.32528,-0.0438 0.39249,-1.0228 -0.0557,-1.5 -1.40894,-1.5 -2.37372,0 -3.72364,1.53712 -4.61059,5.25 -0.53311,2.23162 -1.21415,2.75 -3.61289,2.75 -2.79207,0 -2.92248,-0.18018 -2.35231,-3.25 z m 63.54636,2.05 c -1.81582,-1.81582 -1.45622,-3.63469 1.25455,-6.34545 2.14279,-2.1428 3.35179,-2.45455 9.51905,-2.45455 l 7.0645,0 -0.66547,2.75 c -1.7542,7.24898 -1.75549,7.25 -9.14788,7.25 -3.97481,0 -7.32586,-0.50111 -8.02475,-1.2 z m 10.70217,-2.94922 c 1.39976,-4.01535 1.43589,-3.85078 -0.84547,-3.85078 -2.66965,0 -5.36597,3.92242 -3.90578,5.68185 1.81259,2.18403 3.59043,1.49887 4.75125,-1.83107 z m 6.4974,1.69332 c 1.89264,-7.54085 1.897,-7.5441 10.10706,-7.5441 8.57109,0 9.40249,0.71531 7.50698,6.45876 -0.98064,2.97138 -1.63502,3.54124 -4.06641,3.54124 -2.69729,0 -2.83025,-0.17741 -1.92245,-2.5651 1.56431,-4.11443 1.19848,-5.4349 -1.5057,-5.4349 -1.88056,0 -2.63992,0.66549 -3.13789,2.75 -0.92929,3.89011 -2.25344,5.25 -5.11201,5.25 -2.14045,0 -2.4003,-0.34134 -1.86958,-2.4559 z m -81.16202,-21.60101 c -17.67093,-3.12362 -36.74173,-14.04918 -50.54299,-28.95582 -5.64233,-6.09423 -13.54989,-18.46527 -12.48419,-19.53097 0.22152,-0.22153 1.82822,1.4519 3.57044,3.71873 3.79945,4.94353 12.0701,11.37312 18.10578,14.07543 2.41262,1.08018 7.13762,2.18044 10.5,2.44501 l 6.11341,0.48105 -3.5,-2.75124 c -7.8529,-6.17293 -15.19588,-15.01609 -19.23178,-23.16088 -3.47272,-7.00823 -4.16555,-9.45726 -4.5317,-16.01873 -0.95741,-17.15685 7.6689,-28.12336 25.86866,-32.88645 8.57829,-2.24504 23.48521,-2.21745 31.89482,0.059 15.44274,4.18037 31.31404,13.90723 43.21066,26.48199 7.09821,7.50284 12.88312,16.03814 14.3006,21.09974 0.46067,1.64498 -0.38947,0.88273 -2.48575,-2.22877 -6.60235,-9.79986 -19.46906,-17.62018 -30.33413,-18.43694 l -6.19138,-0.46542 3,2.31414 c 15.57409,12.01351 24.5,27.20008 24.5,41.68434 0,3.727 -0.7088,8.85657 -1.5751,11.39904 -3.11945,9.15508 -13.06278,17.10728 -24.54287,19.62822 -6.97301,1.53123 -19.91911,2.06053 -25.64448,1.04848 z m 19.63745,-21.56809 c 4.54658,-0.90932 3.82501,-2.375 -1.16924,-2.375 -8.89558,0 -20.37716,-10.10443 -22.13624,-19.48113 -1.03535,-5.51885 1.85226,-10.66681 6.90948,-12.31808 5.23015,-1.70773 10.12099,-0.79058 16.6892,3.12962 7.1318,4.25657 11.82007,11.18512 11.8636,17.5326 0.0295,4.29455 0.14023,4.49364 1.5,2.69586 2.06188,-2.72605 1.84862,-11.53624 -0.42402,-17.51735 -4.23274,-11.13965 -15.67978,-21.93363 -27.76542,-26.18139 -19.81513,-6.96446 -36.1493,3.82433 -32.38241,21.38872 4.19168,19.54513 28.6106,36.78704 46.91505,33.12615 z"
         id="path3467"
         inkscape:connector-curvature="0" />
      <path
         style="fill:#7184bd"
         d="m -92.76254,993.67533 c -1.70519,-0.76443 -3.39269,-2.15172 -3.75,-3.08287 -1.08058,-2.81595 -0.73332,-7.46696 0.77534,-10.38438 2.20452,-4.26306 10.52057,-7.3202 9.23518,-3.39503 -3.67157,11.21181 -3.32877,13.51228 2.09461,14.05619 5.55818,0.55743 8.13175,-6.13813 4.2541,-11.06776 -1.74488,-2.21825 -1.7966,-2.60592 -0.41821,-3.13485 2.599,-0.99733 6.93024,-0.68266 8.20932,0.59642 1.93204,1.93204 1.43139,8.23612 -0.8883,11.18512 -4.13867,5.26147 -13.71369,7.82656 -19.51204,5.22716 z m -71.51731,-3.49463 c -3.32677,-3.32678 -3.88182,-4.50738 -3.87861,-8.25 0.008,-9.74225 8.69131,-16.17609 21.99626,-16.29859 l 7.5,-0.0691 -0.0637,4.7637 c -0.0899,6.72629 -1.81275,8.02939 -4.12083,3.11692 -2.09293,-4.45454 -4.66194,-5.28706 -9.15124,-2.96555 -5.91438,3.05845 -9.12348,12.05552 -6.22905,17.46382 1.63943,3.0633 7.65527,2.87437 12.06482,-0.37889 4.17303,-3.07876 5.23158,-3.14122 4.81955,-0.28436 -0.55038,3.81615 -6.27528,6.7844 -13.08508,6.7844 -5.60124,0 -6.20943,-0.23966 -9.85212,-3.88235 z m 56.36765,2.85119 c -3.22055,-1.29451 -3.24585,-4.30522 -0.13419,-15.96884 2.22952,-8.35703 4.18416,-12 6.43863,-12 2.74611,0 2.74638,3.04701 0.001,11.99653 -3.31475,10.80587 -3.16986,13.57992 0.69551,13.31521 3.18929,-0.21842 3.61145,1.15631 0.81472,2.65308 -2.30479,1.23348 -4.75386,1.23474 -7.81574,0.004 z m -98.7933,-37.71661 c 0.36888,-0.96127 1.14272,-3.99877 1.71966,-6.75 1.17245,-5.59102 3.21956,-8.50223 5.97863,-8.50223 2.21049,0 2.21257,0.0422 0.34501,7 -1.88706,7.03047 -1.87194,7.26942 0.38363,6.06228 1.07176,-0.57359 2.18117,-2.63606 2.57397,-4.78518 0.92602,-5.0665 3.13329,-8.2771 5.69045,-8.2771 1.75761,0 2.01326,0.4505 1.56058,2.75 -1.95958,9.95399 -1.99314,10.5115 -0.60498,10.04878 0.75594,-0.25198 1.99213,-2.67229 2.74709,-5.37846 0.75495,-2.70618 1.82748,-5.48282 2.3834,-6.17032 1.17015,-1.44714 4.76586,-1.69331 4.76586,-0.32629 0,3.43415 -2.67733,11.95732 -4.34317,13.82629 -1.84844,2.07384 -2.86142,2.25 -12.93813,2.25 -9.99591,0 -10.87521,-0.14976 -10.262,-1.74777 z m 27.02822,0.72337 c -1.10804,-1.79285 0.59571,-6.91867 2.81677,-8.47436 1.35337,-0.94794 4.45698,-1.50124 8.42082,-1.50124 6.07929,0 6.27749,0.0814 6.27749,2.57692 0,1.51485 -1.20475,3.78167 -2.92308,5.5 -2.52444,2.52445 -3.67558,2.92308 -8.44098,2.92308 -3.03485,0 -5.80281,-0.46098 -6.15102,-1.0244 z m 9.68634,-2.63059 c 2.37432,-2.14873 2.39151,-5.34501 0.0287,-5.34501 -2.46449,0 -4.2,1.94211 -4.2,4.7 0,2.70703 1.61654,2.957 4.17126,0.64501 z m 27.97185,2.7646 c -2.00847,-1.27263 -0.50882,-6.63997 2.38501,-8.53608 1.32083,-0.86544 3.6976,-1.57353 5.28171,-1.57353 1.6102,0 3.67828,-0.88188 4.69017,-2 0.99549,-1.1 3.04172,-2 4.54719,-2 l 2.73721,0 -1.81417,3.55838 c -0.99779,1.95711 -2.11383,5.33211 -2.48009,7.5 l -0.66594,3.94162 -6.6621,-0.0153 c -3.66415,-0.008 -7.2727,-0.40221 -8.01899,-0.87508 z m 9.02815,-2.7646 c 2.37432,-2.14873 2.39151,-5.34501 0.0287,-5.34501 -2.46449,0 -4.2,1.94211 -4.2,4.7 0,2.70703 1.61654,2.957 4.17126,0.64501 z m 8.93393,2.28174 c -1.35734,-1.63549 -0.55854,-4.29201 2.21814,-7.37675 1.69091,-1.87851 3.05995,-2.25 8.29197,-2.25 7.39361,0 8.83967,1.35174 4.98918,4.66379 -1.86817,1.60693 -3.96568,2.33621 -6.71926,2.33621 -2.41419,0 -3.75793,0.39694 -3.38522,1 0.33992,0.55 2.19303,1 4.11803,1 2.07869,0 3.24903,0.40609 2.88197,1 -0.95021,1.53747 -11.06176,1.23297 -12.39481,-0.37325 z m 11.95894,-6.20402 c 1.15399,-1.39047 0.91113,-1.53852 -2.05054,-1.25 -1.84776,0.18 -3.54422,0.88977 -3.76991,1.57727 -0.60378,1.83925 4.24884,1.5664 5.82045,-0.32727 z m 17.90351,6.11626 c 0.83742,-1.00903 3.71203,-1.55042 9.29196,-1.75 5.12797,-0.18342 8.22322,-0.72349 8.47305,-1.47841 0.25407,-0.76771 -1.13558,-1.29953 -3.91951,-1.5 -3.63239,-0.26156 -4.36477,-0.67482 -4.64027,-2.6184 -0.17992,-1.26929 0.39296,-3.40679 1.27306,-4.75 1.46244,-2.23197 2.24884,-2.44218 9.13614,-2.44218 4.76933,0 7.30907,0.36712 6.91793,1 -0.33992,0.55 -2.52648,1 -4.85902,1 -3.89677,0 -6.64098,1.29967 -6.64098,3.14521 0,0.40986 2.1375,0.88236 4.75,1.05 4.32177,0.27731 4.778,0.54725 5.06058,2.99421 0.19639,1.70064 -0.44701,3.44701 -1.75,4.75 -1.83376,1.83376 -3.28492,2.06058 -13.18302,2.06058 -9.64133,0 -10.96098,-0.19456 -9.90992,-1.46101 z m 25.49808,-1.28899 c 1.25231,-5.04568 3.03151,-7.74694 5.31708,-8.07262 2.12191,-0.30237 2.22298,-0.0657 1.60981,3.76881 -0.52987,3.31364 -0.38187,3.98692 0.77849,3.54165 0.78801,-0.30239 1.85938,-1.99836 2.38082,-3.76882 0.72952,-2.47693 1.58204,-3.29197 3.69808,-3.53544 3.05571,-0.3516 3.15719,-0.0902 1.80076,4.63944 -1.07851,3.76054 0.6641,4.07896 2.48828,0.45466 1.63794,-3.25427 3.58687,-5.27768 5.0834,-5.27768 2.27713,0 1.57139,4.61619 -1.21133,7.92327 -2.5737,3.05867 -2.64772,3.07673 -12.60841,3.07673 l -10.01952,0 0.68254,-2.75 z m -93.46572,1.25924 c 0,-0.34298 0.50342,-2.62287 1.11872,-5.06642 l 1.11871,-4.44282 7.32227,0 c 4.02725,0 7.61059,0.46651 7.96298,1.0367 0.35239,0.57018 0.3394,2.82018 -0.0289,5 -0.59492,3.5213 -0.98375,3.9633 -3.48654,3.9633 -2.70919,0 -2.79642,-0.15301 -2.28043,-4 0.49979,-3.72626 0.36848,-4 -1.9188,-4 -2.00588,0 -2.62486,0.6864 -3.38166,3.75 -0.75791,3.06805 -1.42647,3.80754 -3.67637,4.06642 -1.5125,0.17403 -2.75,0.0358 -2.75,-0.30718 z m 55.65364,-2.75924 c 0.91834,-4.94439 3.80145,-6.70178 11.03734,-6.72776 6.43921,-0.0231 8.3324,1.03973 6.27267,3.52156 -1.66002,2.0002 -6.09563,1.96371 -5.32528,-0.0438 0.39249,-1.0228 -0.0557,-1.5 -1.40894,-1.5 -2.37372,0 -3.72364,1.53712 -4.61059,5.25 -0.53311,2.23162 -1.21415,2.75 -3.61289,2.75 -2.79207,0 -2.92248,-0.18018 -2.35231,-3.25 z m 63.54636,2.05 c -1.81582,-1.81582 -1.45622,-3.63469 1.25455,-6.34545 2.14279,-2.1428 3.35179,-2.45455 9.51905,-2.45455 l 7.0645,0 -0.66547,2.75 c -1.7542,7.24898 -1.75549,7.25 -9.14788,7.25 -3.97481,0 -7.32586,-0.50111 -8.02475,-1.2 z m 10.70217,-2.94922 c 1.39976,-4.01535 1.43589,-3.85078 -0.84547,-3.85078 -2.66965,0 -5.36597,3.92242 -3.90578,5.68185 1.81259,2.18403 3.59043,1.49887 4.75125,-1.83107 z m 6.4974,1.69332 c 1.89264,-7.54085 1.897,-7.5441 10.10706,-7.5441 8.57109,0 9.40249,0.71531 7.50698,6.45876 -0.98064,2.97138 -1.63502,3.54124 -4.06641,3.54124 -2.69729,0 -2.83025,-0.17741 -1.92245,-2.5651 1.56431,-4.11443 1.19848,-5.4349 -1.5057,-5.4349 -1.88056,0 -2.63992,0.66549 -3.13789,2.75 -0.92929,3.89011 -2.25344,5.25 -5.11201,5.25 -2.14045,0 -2.4003,-0.34134 -1.86958,-2.4559 z m -81.16202,-21.60101 c -17.67093,-3.12362 -36.74173,-14.04918 -50.54299,-28.95582 -5.64233,-6.09423 -13.54989,-18.46527 -12.48419,-19.53097 0.22152,-0.22153 1.82822,1.4519 3.57044,3.71873 3.79945,4.94353 12.0701,11.37312 18.10578,14.07543 2.41262,1.08018 7.13762,2.18044 10.5,2.44501 l 6.11341,0.48105 -3.5,-2.75124 c -7.8529,-6.17293 -15.19588,-15.01609 -19.23178,-23.16088 -3.47272,-7.00823 -4.16555,-9.45726 -4.5317,-16.01873 -0.95741,-17.15685 7.6689,-28.12336 25.86866,-32.88645 8.57829,-2.24504 23.48521,-2.21745 31.89482,0.059 15.44274,4.18037 31.31404,13.90723 43.21066,26.48199 7.09821,7.50284 12.88312,16.03814 14.3006,21.09974 0.46067,1.64498 -0.38947,0.88273 -2.48575,-2.22877 -6.60235,-9.79986 -19.46906,-17.62018 -30.33413,-18.43694 l -6.19138,-0.46542 3,2.31414 c 15.57409,12.01351 24.5,27.20008 24.5,41.68434 0,3.727 -0.7088,8.85657 -1.5751,11.39904 -3.11945,9.15508 -13.06278,17.10728 -24.54287,19.62822 -6.97301,1.53123 -19.91911,2.06053 -25.64448,1.04848 z m 19.63745,-21.56809 c 4.54658,-0.90932 3.82501,-2.375 -1.16924,-2.375 -8.89558,0 -20.37716,-10.10443 -22.13624,-19.48113 -1.03535,-5.51885 1.85226,-10.66681 6.90948,-12.31808 5.23015,-1.70773 10.12099,-0.79058 16.6892,3.12962 7.1318,4.25657 11.82007,11.18512 11.8636,17.5326 0.0295,4.29455 0.14023,4.49364 1.5,2.69586 2.06188,-2.72605 1.84862,-11.53624 -0.42402,-17.51735 -4.23274,-11.13965 -15.67978,-21.93363 -27.76542,-26.18139 -19.81513,-6.96446 -36.1493,3.82433 -32.38241,21.38872 4.19168,19.54513 28.6106,36.78704 46.91505,33.12615 z"
         id="path3465"
         inkscape:connector-curvature="0" />
      <path
         style="fill:#039de2"
         d="m -160.6622,993.16304 c -6.59544,-2.90618 -9.50852,-12.58245 -5.64026,-18.73505 3.64403,-5.79598 18.12696,-10.84002 25.68105,-8.94406 2.55127,0.64033 2.67839,0.94219 2.19663,5.21636 -0.73739,6.54212 -2.20855,7.45524 -4.41993,2.74338 -1.31061,-2.79256 -2.52169,-3.95649 -4.31937,-4.15122 -8.2503,-0.89367 -16.04247,13.19253 -10.79528,19.51501 1.78523,2.15107 8.09732,1.48525 11.79716,-1.24441 4.15073,-3.06231 5.2344,-3.14108 4.81955,-0.35033 -0.53289,3.58482 -5.13911,6.18613 -11.55611,6.52618 -3.16989,0.16797 -6.66344,-0.0912 -7.76344,-0.57586 z m 52.75,-0.13115 c -3.22055,-1.29451 -3.24585,-4.30522 -0.13419,-15.96884 2.22952,-8.35703 4.18416,-12 6.43863,-12 2.74611,0 2.74638,3.04701 0.001,11.99653 -3.31475,10.80587 -3.16986,13.57992 0.69551,13.31521 3.18929,-0.21842 3.61145,1.15631 0.81472,2.65308 -2.30479,1.23348 -4.75386,1.23474 -7.81574,0.004 z m -98.25,-37.41962 c 0,-3.54623 2.36482,-12.20748 3.76766,-13.79922 1.52745,-1.73314 5.24334,-2.44493 5.22047,-1 -0.007,0.4125 -0.67619,3.225 -1.48813,6.25 -1.88706,7.03047 -1.87194,7.26942 0.38363,6.06228 1.07176,-0.57359 2.18117,-2.63606 2.57397,-4.78518 0.92446,-5.05797 3.13226,-8.2771 5.67674,-8.2771 2.21601,0 2.21361,-0.19104 0.13025,10.38393 -0.98887,5.01938 2.06259,2.49765 3.58615,-2.96361 1.63047,-5.8445 2.75,-7.42032 5.2717,-7.42032 2.24864,0 2.29087,0.84894 0.39794,8 -2.13557,8.06766 -3.75486,9 -15.63116,9 -7.97463,0 -9.88922,-0.28088 -9.88922,-1.45078 z m 27.14311,0.56039 c -1.91981,-1.21645 -0.54027,-6.71802 2.15858,-8.60837 1.35337,-0.94794 4.45698,-1.50124 8.42082,-1.50124 6.07929,0 6.27749,0.0814 6.27749,2.57692 0,1.51485 -1.20475,3.78167 -2.92308,5.5 -2.4301,2.43011 -3.73713,2.9205 -7.75,2.90777 -2.65481,-0.008 -5.43752,-0.40221 -6.18381,-0.87508 z m 9.02815,-2.7646 c 2.37432,-2.14873 2.39151,-5.34501 0.0287,-5.34501 -2.46449,0 -4.2,1.94211 -4.2,4.7 0,2.70703 1.61654,2.957 4.17126,0.64501 z m 27.97185,2.7646 c -2.00847,-1.27263 -0.50882,-6.63997 2.38501,-8.53608 1.32083,-0.86544 3.97651,-1.57353 5.90151,-1.57353 2.47655,0 3.813,-0.58483 4.57037,-2 0.68694,-1.28355 2.09382,-2 3.92738,-2 l 2.85702,0 -1.81417,3.55838 c -0.99779,1.95711 -2.11383,5.33211 -2.48009,7.5 l -0.66594,3.94162 -6.6621,-0.0153 c -3.66415,-0.008 -7.2727,-0.40221 -8.01899,-0.87508 z m 9.02815,-2.7646 c 2.37432,-2.14873 2.39151,-5.34501 0.0287,-5.34501 -2.46449,0 -4.2,1.94211 -4.2,4.7 0,2.70703 1.61654,2.957 4.17126,0.64501 z m 8.93393,2.28174 c -1.35734,-1.63549 -0.55854,-4.29201 2.21814,-7.37675 1.69091,-1.87851 3.05995,-2.25 8.29197,-2.25 7.39361,0 8.83967,1.35174 4.98918,4.66379 -1.86817,1.60693 -3.96568,2.33621 -6.71926,2.33621 -2.41419,0 -3.75793,0.39694 -3.38522,1 0.33992,0.55 2.27898,1.00689 4.30902,1.01531 2.75124,0.0114 3.30907,0.26212 2.19098,0.98469 -2.27867,1.47259 -10.57906,1.21213 -11.89481,-0.37325 z m 11.95894,-6.20402 c 1.15399,-1.39047 0.91113,-1.53852 -2.05054,-1.25 -1.84776,0.18 -3.54422,0.88977 -3.76991,1.57727 -0.60378,1.83925 4.24884,1.5664 5.82045,-0.32727 z m 17.93587,6.07727 c 0.91074,-1.09737 3.32652,-1.5 9,-1.5 5.52736,0 8.09818,-0.41337 8.94937,-1.43899 1.00229,-1.20769 0.51592,-1.48899 -3.02571,-1.75 -5.39571,-0.39766 -7.07838,-2.65879 -4.88894,-6.56964 1.44171,-2.57523 2.00752,-2.75916 9.33597,-3.03498 5.23081,-0.19687 7.58873,0.0503 7.15626,0.75 -0.35474,0.57398 -2.55343,1.04361 -4.88597,1.04361 -3.89677,0 -6.64098,1.29967 -6.64098,3.14521 0,0.40986 2.1375,0.88236 4.75,1.05 4.32177,0.27731 4.778,0.54725 5.06058,2.99421 0.19639,1.70064 -0.44701,3.44701 -1.75,4.75 -1.83376,1.83376 -3.28492,2.06058 -13.18302,2.06058 -9.77324,0 -10.97144,-0.18196 -9.87756,-1.5 z m 25.46572,-1.25 c 1.24911,-5.03276 3.02941,-7.74663 5.29365,-8.06955 2.51854,-0.35919 2.62213,0.003 1.31044,4.57615 -1.45528,5.07426 1.72703,3.91904 3.46159,-1.2566 0.74033,-2.20903 1.72562,-3.08343 3.73701,-3.31642 3.03652,-0.35175 3.13802,-0.0875 1.78235,4.63944 -1.07851,3.76054 0.6641,4.07896 2.48828,0.45466 1.67623,-3.33034 3.598,-5.27768 5.2084,-5.27768 2.34615,0 0.75087,6.06338 -2.30213,8.75 -2.27033,1.99787 -3.62728,2.25 -12.10948,2.25 l -9.55265,0 0.68254,-2.75 z m -93.46572,1.19282 c 0,-0.30645 0.50342,-2.55645 1.11872,-5 l 1.11871,-4.44282 7.32227,0 c 4.02725,0 7.61059,0.46651 7.96298,1.0367 0.35239,0.57018 0.3394,2.82018 -0.0289,5 -0.59492,3.5213 -0.98375,3.9633 -3.48654,3.9633 -2.70919,0 -2.79642,-0.15301 -2.28043,-4 0.50824,-3.78928 0.39787,-4 -2.09516,-4 -1.63472,0 -2.63167,0.55042 -2.63167,1.45295 0,3.25211 -2.3455,6.54705 -4.66052,6.54705 -1.28671,0 -2.33948,-0.25073 -2.33948,-0.55718 z m 55.65364,-2.69282 c 0.91834,-4.94439 3.80145,-6.70178 11.03734,-6.72776 6.43921,-0.0231 8.3324,1.03973 6.27267,3.52156 -1.66002,2.0002 -6.09563,1.96371 -5.32528,-0.0438 0.39249,-1.0228 -0.0557,-1.5 -1.40894,-1.5 -2.37372,0 -3.72364,1.53712 -4.61059,5.25 -0.53311,2.23162 -1.21415,2.75 -3.61289,2.75 -2.79207,0 -2.92248,-0.18018 -2.35231,-3.25 z m 64.01303,2.58333 c -0.36667,-0.36666 -0.66667,-1.91615 -0.66667,-3.44329 0,-4.20311 3.21962,-5.89004 11.24156,-5.89004 l 6.79654,0 -0.66547,2.75 c -1.75522,7.25318 -1.75119,7.25 -9.18121,7.25 -3.77195,0 -7.15809,-0.3 -7.52475,-0.66667 z m 10.2355,-3.48255 c 1.41033,-4.04567 1.46912,-3.85078 -1.16162,-3.85078 -2.96777,0 -5.32987,3.58499 -3.67552,5.57836 1.89546,2.28389 3.6582,1.65433 4.83714,-1.72758 z m 6.4974,1.69332 c 1.88976,-7.52939 1.90929,-7.5441 10.01666,-7.5441 4.10616,0 7.73743,0.43962 8.06951,0.97693 0.33208,0.53731 0.11629,2.78731 -0.47953,5 -0.95274,3.53822 -1.43722,4.02307 -4.02,4.02307 -2.73916,0 -2.87111,-0.17255 -1.96146,-2.5651 1.56431,-4.11443 1.19848,-5.4349 -1.5057,-5.4349 -1.88056,0 -2.63992,0.66549 -3.13789,2.75 -0.92929,3.89011 -2.25344,5.25 -5.11201,5.25 -2.14045,0 -2.4003,-0.34134 -1.86958,-2.4559 z m -81.16202,-21.60101 c -17.67093,-3.12362 -36.74173,-14.04918 -50.54299,-28.95582 -5.64233,-6.09423 -13.54989,-18.46527 -12.48419,-19.53097 0.22152,-0.22153 1.82822,1.4519 3.57044,3.71873 3.79945,4.94353 12.0701,11.37312 18.10578,14.07543 2.41262,1.08018 7.13762,2.18044 10.5,2.44501 l 6.11341,0.48105 -3.5,-2.75124 c -7.8529,-6.17293 -15.19588,-15.01609 -19.23178,-23.16088 -3.47272,-7.00823 -4.16555,-9.45726 -4.5317,-16.01873 -0.95741,-17.15685 7.6689,-28.12336 25.86866,-32.88645 8.57829,-2.24504 23.48521,-2.21745 31.89482,0.059 15.44274,4.18037 31.31404,13.90723 43.21066,26.48199 7.09821,7.50284 12.88312,16.03814 14.3006,21.09974 0.46067,1.64498 -0.38947,0.88273 -2.48575,-2.22877 -6.60235,-9.79986 -19.46906,-17.62018 -30.33413,-18.43694 l -6.19138,-0.46542 3,2.31414 c 15.57409,12.01351 24.5,27.20008 24.5,41.68434 0,3.727 -0.7088,8.85657 -1.5751,11.39904 -3.11945,9.15508 -13.06278,17.10728 -24.54287,19.62822 -6.97301,1.53123 -19.91911,2.06053 -25.64448,1.04848 z m 19.63745,-21.56809 c 4.54658,-0.90932 3.82501,-2.375 -1.16924,-2.375 -8.89558,0 -20.37716,-10.10443 -22.13624,-19.48113 -1.03535,-5.51885 1.85226,-10.66681 6.90948,-12.31808 5.23015,-1.70773 10.12099,-0.79058 16.6892,3.12962 7.1318,4.25657 11.82007,11.18512 11.8636,17.5326 0.0295,4.29455 0.14023,4.49364 1.5,2.69586 2.06188,-2.72605 1.84862,-11.53624 -0.42402,-17.51735 -4.23274,-11.13965 -15.67978,-21.93363 -27.76542,-26.18139 -19.81513,-6.96446 -36.1493,3.82433 -32.38241,21.38872 4.19168,19.54513 28.6106,36.78704 46.91505,33.12615 z"
         id="path3463"
         inkscape:connector-curvature="0" />
      <path
         style="fill:#f33137"
         d="m -107.9122,993.03189 c -3.22055,-1.29451 -3.24585,-4.30522 -0.13419,-15.96884 2.22952,-8.35703 4.18416,-12 6.43863,-12 2.74611,0 2.74638,3.04701 0.001,11.99653 -3.31475,10.80587 -3.16986,13.57992 0.69551,13.31521 3.18929,-0.21842 3.61145,1.15631 0.81472,2.65308 -2.30479,1.23348 -4.75386,1.23474 -7.81574,0.004 z m -98.25,-37.41962 c 0,-3.54623 2.36482,-12.20748 3.76766,-13.79922 1.52745,-1.73314 5.24334,-2.44493 5.22047,-1 -0.007,0.4125 -0.67619,3.225 -1.48813,6.25 -1.88706,7.03047 -1.87194,7.26942 0.38363,6.06228 1.07176,-0.57359 2.18117,-2.63606 2.57397,-4.78518 0.92446,-5.05797 3.13226,-8.2771 5.67674,-8.2771 2.21601,0 2.21361,-0.19104 0.13025,10.38393 -0.98887,5.01938 2.06259,2.49765 3.58615,-2.96361 1.63047,-5.8445 2.75,-7.42032 5.2717,-7.42032 2.24864,0 2.29087,0.84894 0.39794,8 -2.13557,8.06766 -3.75486,9 -15.63116,9 -7.97463,0 -9.88922,-0.28088 -9.88922,-1.45078 z m 27.14311,0.56039 c -1.91981,-1.21645 -0.54027,-6.71802 2.15858,-8.60837 1.35337,-0.94794 4.45698,-1.50124 8.42082,-1.50124 6.07929,0 6.27749,0.0814 6.27749,2.57692 0,1.51485 -1.20475,3.78167 -2.92308,5.5 -2.4301,2.43011 -3.73713,2.9205 -7.75,2.90777 -2.65481,-0.008 -5.43752,-0.40221 -6.18381,-0.87508 z m 9.02815,-2.7646 c 2.37432,-2.14873 2.39151,-5.34501 0.0287,-5.34501 -2.46449,0 -4.2,1.94211 -4.2,4.7 0,2.70703 1.61654,2.957 4.17126,0.64501 z m 27.97185,2.7646 c -2.00847,-1.27263 -0.50882,-6.63997 2.38501,-8.53608 1.32083,-0.86544 3.97651,-1.57353 5.90151,-1.57353 2.47655,0 3.813,-0.58483 4.57037,-2 0.68694,-1.28355 2.09382,-2 3.92738,-2 l 2.85702,0 -1.81417,3.55838 c -0.99779,1.95711 -2.11383,5.33211 -2.48009,7.5 l -0.66594,3.94162 -6.6621,-0.0153 c -3.66415,-0.008 -7.2727,-0.40221 -8.01899,-0.87508 z m 9.02815,-2.7646 c 2.37432,-2.14873 2.39151,-5.34501 0.0287,-5.34501 -2.46449,0 -4.2,1.94211 -4.2,4.7 0,2.70703 1.61654,2.957 4.17126,0.64501 z m 8.93393,2.28174 c -1.35734,-1.63549 -0.55854,-4.29201 2.21814,-7.37675 1.69091,-1.87851 3.05995,-2.25 8.29197,-2.25 7.39361,0 8.83967,1.35174 4.98918,4.66379 -1.86817,1.60693 -3.96568,2.33621 -6.71926,2.33621 -2.41419,0 -3.75793,0.39694 -3.38522,1 0.33992,0.55 2.27898,1.00689 4.30902,1.01531 2.75124,0.0114 3.30907,0.26212 2.19098,0.98469 -2.27867,1.47259 -10.57906,1.21213 -11.89481,-0.37325 z m 11.95894,-6.20402 c 1.15399,-1.39047 0.91113,-1.53852 -2.05054,-1.25 -1.84776,0.18 -3.54422,0.88977 -3.76991,1.57727 -0.60378,1.83925 4.24884,1.5664 5.82045,-0.32727 z m 17.93587,6.07727 c 0.91074,-1.09737 3.32652,-1.5 9,-1.5 5.52736,0 8.09818,-0.41337 8.94937,-1.43899 1.00229,-1.20769 0.51592,-1.48899 -3.02571,-1.75 -5.39571,-0.39766 -7.07838,-2.65879 -4.88894,-6.56964 1.44171,-2.57523 2.00752,-2.75916 9.33597,-3.03498 5.23081,-0.19687 7.58873,0.0503 7.15626,0.75 -0.35474,0.57398 -2.55343,1.04361 -4.88597,1.04361 -3.89677,0 -6.64098,1.29967 -6.64098,3.14521 0,0.40986 2.1375,0.88236 4.75,1.05 4.32177,0.27731 4.778,0.54725 5.06058,2.99421 0.19639,1.70064 -0.44701,3.44701 -1.75,4.75 -1.83376,1.83376 -3.28492,2.06058 -13.18302,2.06058 -9.77324,0 -10.97144,-0.18196 -9.87756,-1.5 z m 25.46572,-1.25 c 1.24911,-5.03276 3.02941,-7.74663 5.29365,-8.06955 2.51854,-0.35919 2.62213,0.003 1.31044,4.57615 -1.45528,5.07426 1.72703,3.91904 3.46159,-1.2566 0.74033,-2.20903 1.72562,-3.08343 3.73701,-3.31642 3.03652,-0.35175 3.13802,-0.0875 1.78235,4.63944 -1.07851,3.76054 0.6641,4.07896 2.48828,0.45466 1.67623,-3.33034 3.598,-5.27768 5.2084,-5.27768 2.34615,0 0.75087,6.06338 -2.30213,8.75 -2.27033,1.99787 -3.62728,2.25 -12.10948,2.25 l -9.55265,0 0.68254,-2.75 z m -93.46572,1.19282 c 0,-0.30645 0.50342,-2.55645 1.11872,-5 l 1.11871,-4.44282 7.32227,0 c 4.02725,0 7.61059,0.46651 7.96298,1.0367 0.35239,0.57018 0.3394,2.82018 -0.0289,5 -0.59492,3.5213 -0.98375,3.9633 -3.48654,3.9633 -2.70919,0 -2.79642,-0.15301 -2.28043,-4 0.50824,-3.78928 0.39787,-4 -2.09516,-4 -1.63472,0 -2.63167,0.55042 -2.63167,1.45295 0,3.25211 -2.3455,6.54705 -4.66052,6.54705 -1.28671,0 -2.33948,-0.25073 -2.33948,-0.55718 z m 55.65364,-2.69282 c 0.91834,-4.94439 3.80145,-6.70178 11.03734,-6.72776 6.43921,-0.0231 8.3324,1.03973 6.27267,3.52156 -1.66002,2.0002 -6.09563,1.96371 -5.32528,-0.0438 0.39249,-1.0228 -0.0557,-1.5 -1.40894,-1.5 -2.37372,0 -3.72364,1.53712 -4.61059,5.25 -0.53311,2.23162 -1.21415,2.75 -3.61289,2.75 -2.79207,0 -2.92248,-0.18018 -2.35231,-3.25 z m 64.01303,2.58333 c -0.36667,-0.36666 -0.66667,-1.91615 -0.66667,-3.44329 0,-4.20311 3.21962,-5.89004 11.24156,-5.89004 l 6.79654,0 -0.66547,2.75 c -1.75522,7.25318 -1.75119,7.25 -9.18121,7.25 -3.77195,0 -7.15809,-0.3 -7.52475,-0.66667 z m 10.2355,-3.48255 c 1.41033,-4.04567 1.46912,-3.85078 -1.16162,-3.85078 -2.96777,0 -5.32987,3.58499 -3.67552,5.57836 1.89546,2.28389 3.6582,1.65433 4.83714,-1.72758 z m 6.4974,1.69332 c 1.88976,-7.52939 1.90929,-7.5441 10.01666,-7.5441 4.10616,0 7.73743,0.43962 8.06951,0.97693 0.33208,0.53731 0.11629,2.78731 -0.47953,5 -0.95274,3.53822 -1.43722,4.02307 -4.02,4.02307 -2.73916,0 -2.87111,-0.17255 -1.96146,-2.5651 1.56431,-4.11443 1.19848,-5.4349 -1.5057,-5.4349 -1.88056,0 -2.63992,0.66549 -3.13789,2.75 -0.92929,3.89011 -2.25344,5.25 -5.11201,5.25 -2.14045,0 -2.4003,-0.34134 -1.86958,-2.4559 z m -81.16202,-21.60101 c -17.67093,-3.12362 -36.74173,-14.04918 -50.54299,-28.95582 -5.64233,-6.09423 -13.54989,-18.46527 -12.48419,-19.53097 0.22152,-0.22153 1.82822,1.4519 3.57044,3.71873 3.79945,4.94353 12.0701,11.37312 18.10578,14.07543 2.41262,1.08018 7.13762,2.18044 10.5,2.44501 l 6.11341,0.48105 -3.5,-2.75124 c -7.8529,-6.17293 -15.19588,-15.01609 -19.23178,-23.16088 -3.47272,-7.00823 -4.16555,-9.45726 -4.5317,-16.01873 -0.95741,-17.15685 7.6689,-28.12336 25.86866,-32.88645 8.57829,-2.24504 23.48521,-2.21745 31.89482,0.059 15.44274,4.18037 31.31404,13.90723 43.21066,26.48199 7.09821,7.50284 12.88312,16.03814 14.3006,21.09974 0.46067,1.64498 -0.38947,0.88273 -2.48575,-2.22877 -6.60235,-9.79986 -19.46906,-17.62018 -30.33413,-18.43694 l -6.19138,-0.46542 3,2.31414 c 15.57409,12.01351 24.5,27.20008 24.5,41.68434 0,3.727 -0.7088,8.85657 -1.5751,11.39904 -3.11945,9.15508 -13.06278,17.10728 -24.54287,19.62822 -6.97301,1.53123 -19.91911,2.06053 -25.64448,1.04848 z m 19.63745,-21.56809 c 4.54658,-0.90932 3.82501,-2.375 -1.16924,-2.375 -8.89558,0 -20.37716,-10.10443 -22.13624,-19.48113 -1.03535,-5.51885 1.85226,-10.66681 6.90948,-12.31808 5.23015,-1.70773 10.12099,-0.79058 16.6892,3.12962 7.1318,4.25657 11.82007,11.18512 11.8636,17.5326 0.0295,4.29455 0.14023,4.49364 1.5,2.69586 2.06188,-2.72605 1.84862,-11.53624 -0.42402,-17.51735 -4.23274,-11.13965 -15.67978,-21.93363 -27.76542,-26.18139 -19.81513,-6.96446 -36.1493,3.82433 -32.38241,21.38872 4.19168,19.54513 28.6106,36.78704 46.91505,33.12615 z"
         id="path3461"
         inkscape:connector-curvature="0" />
      <path
         style="fill:#5a5a5a"
         d="m -206.1622,955.61227 c 0,-3.54623 2.36482,-12.20748 3.76766,-13.79922 1.52745,-1.73314 5.24334,-2.44493 5.22047,-1 -0.007,0.4125 -0.67619,3.225 -1.48813,6.25 -1.88706,7.03047 -1.87194,7.26942 0.38363,6.06228 1.07176,-0.57359 2.18117,-2.63606 2.57397,-4.78518 0.92446,-5.05797 3.13226,-8.2771 5.67674,-8.2771 2.21601,0 2.21361,-0.19104 0.13025,10.38393 -0.98887,5.01938 2.06259,2.49765 3.58615,-2.96361 1.63047,-5.8445 2.75,-7.42032 5.2717,-7.42032 2.24864,0 2.29087,0.84894 0.39794,8 -2.13557,8.06766 -3.75486,9 -15.63116,9 -7.97463,0 -9.88922,-0.28088 -9.88922,-1.45078 z m 27.14311,0.56039 c -1.91981,-1.21645 -0.54027,-6.71802 2.15858,-8.60837 1.35337,-0.94794 4.45698,-1.50124 8.42082,-1.50124 6.07929,0 6.27749,0.0814 6.27749,2.57692 0,1.51485 -1.20475,3.78167 -2.92308,5.5 -2.4301,2.43011 -3.73713,2.9205 -7.75,2.90777 -2.65481,-0.008 -5.43752,-0.40221 -6.18381,-0.87508 z m 9.02815,-2.7646 c 2.37432,-2.14873 2.39151,-5.34501 0.0287,-5.34501 -2.46449,0 -4.2,1.94211 -4.2,4.7 0,2.70703 1.61654,2.957 4.17126,0.64501 z m 27.97185,2.7646 c -2.00847,-1.27263 -0.50882,-6.63997 2.38501,-8.53608 1.32083,-0.86544 3.97651,-1.57353 5.90151,-1.57353 2.47655,0 3.813,-0.58483 4.57037,-2 0.68694,-1.28355 2.09382,-2 3.92738,-2 l 2.85702,0 -1.81417,3.55838 c -0.99779,1.95711 -2.11383,5.33211 -2.48009,7.5 l -0.66594,3.94162 -6.6621,-0.0153 c -3.66415,-0.008 -7.2727,-0.40221 -8.01899,-0.87508 z m 9.02815,-2.7646 c 2.37432,-2.14873 2.39151,-5.34501 0.0287,-5.34501 -2.46449,0 -4.2,1.94211 -4.2,4.7 0,2.70703 1.61654,2.957 4.17126,0.64501 z m 8.93393,2.28174 c -1.35734,-1.63549 -0.55854,-4.29201 2.21814,-7.37675 1.69091,-1.87851 3.05995,-2.25 8.29197,-2.25 7.39361,0 8.83967,1.35174 4.98918,4.66379 -1.86817,1.60693 -3.96568,2.33621 -6.71926,2.33621 -2.41419,0 -3.75793,0.39694 -3.38522,1 0.33992,0.55 2.27898,1.00689 4.30902,1.01531 2.75124,0.0114 3.30907,0.26212 2.19098,0.98469 -2.27867,1.47259 -10.57906,1.21213 -11.89481,-0.37325 z m 11.95894,-6.20402 c 1.15399,-1.39047 0.91113,-1.53852 -2.05054,-1.25 -1.84776,0.18 -3.54422,0.88977 -3.76991,1.57727 -0.60378,1.83925 4.24884,1.5664 5.82045,-0.32727 z m 17.93587,6.07727 c 0.91074,-1.09737 3.32652,-1.5 9,-1.5 5.52736,0 8.09818,-0.41337 8.94937,-1.43899 1.00229,-1.20769 0.51592,-1.48899 -3.02571,-1.75 -5.39571,-0.39766 -7.07838,-2.65879 -4.88894,-6.56964 1.44171,-2.57523 2.00752,-2.75916 9.33597,-3.03498 5.23081,-0.19687 7.58873,0.0503 7.15626,0.75 -0.35474,0.57398 -2.55343,1.04361 -4.88597,1.04361 -3.89677,0 -6.64098,1.29967 -6.64098,3.14521 0,0.40986 2.1375,0.88236 4.75,1.05 4.32177,0.27731 4.778,0.54725 5.06058,2.99421 0.19639,1.70064 -0.44701,3.44701 -1.75,4.75 -1.83376,1.83376 -3.28492,2.06058 -13.18302,2.06058 -9.77324,0 -10.97144,-0.18196 -9.87756,-1.5 z m 25.46572,-1.25 c 1.24911,-5.03276 3.02941,-7.74663 5.29365,-8.06955 2.51854,-0.35919 2.62213,0.003 1.31044,4.57615 -1.45528,5.07426 1.72703,3.91904 3.46159,-1.2566 0.74033,-2.20903 1.72562,-3.08343 3.73701,-3.31642 3.03652,-0.35175 3.13802,-0.0875 1.78235,4.63944 -1.07851,3.76054 0.6641,4.07896 2.48828,0.45466 1.67623,-3.33034 3.598,-5.27768 5.2084,-5.27768 2.34615,0 0.75087,6.06338 -2.30213,8.75 -2.27033,1.99787 -3.62728,2.25 -12.10948,2.25 l -9.55265,0 0.68254,-2.75 z m -93.46572,1.19282 c 0,-0.30645 0.50342,-2.55645 1.11872,-5 l 1.11871,-4.44282 7.32227,0 c 4.02725,0 7.61059,0.46651 7.96298,1.0367 0.35239,0.57018 0.3394,2.82018 -0.0289,5 -0.59492,3.5213 -0.98375,3.9633 -3.48654,3.9633 -2.70919,0 -2.79642,-0.15301 -2.28043,-4 0.50824,-3.78928 0.39787,-4 -2.09516,-4 -1.63472,0 -2.63167,0.55042 -2.63167,1.45295 0,3.25211 -2.3455,6.54705 -4.66052,6.54705 -1.28671,0 -2.33948,-0.25073 -2.33948,-0.55718 z m 55.65364,-2.69282 c 0.91834,-4.94439 3.80145,-6.70178 11.03734,-6.72776 6.43921,-0.0231 8.3324,1.03973 6.27267,3.52156 -1.66002,2.0002 -6.09563,1.96371 -5.32528,-0.0438 0.39249,-1.0228 -0.0557,-1.5 -1.40894,-1.5 -2.37372,0 -3.72364,1.53712 -4.61059,5.25 -0.53311,2.23162 -1.21415,2.75 -3.61289,2.75 -2.79207,0 -2.92248,-0.18018 -2.35231,-3.25 z m 64.01303,2.58333 c -0.36667,-0.36666 -0.66667,-1.91615 -0.66667,-3.44329 0,-4.20311 3.21962,-5.89004 11.24156,-5.89004 l 6.79654,0 -0.66547,2.75 c -1.75522,7.25318 -1.75119,7.25 -9.18121,7.25 -3.77195,0 -7.15809,-0.3 -7.52475,-0.66667 z m 10.2355,-3.48255 c 1.41033,-4.04567 1.46912,-3.85078 -1.16162,-3.85078 -2.96777,0 -5.32987,3.58499 -3.67552,5.57836 1.89546,2.28389 3.6582,1.65433 4.83714,-1.72758 z m 6.4974,1.69332 c 1.88976,-7.52939 1.90929,-7.5441 10.01666,-7.5441 4.10616,0 7.73743,0.43962 8.06951,0.97693 0.33208,0.53731 0.11629,2.78731 -0.47953,5 -0.95274,3.53822 -1.43722,4.02307 -4.02,4.02307 -2.73916,0 -2.87111,-0.17255 -1.96146,-2.5651 1.56431,-4.11443 1.19848,-5.4349 -1.5057,-5.4349 -1.88056,0 -2.63992,0.66549 -3.13789,2.75 -0.92929,3.89011 -2.25344,5.25 -5.11201,5.25 -2.14045,0 -2.4003,-0.34134 -1.86958,-2.4559 z m -81.89957,-21.9687 c -22.11395,-4.12515 -47.06552,-21.16006 -58.20146,-39.73524 -4.66187,-7.77617 -5.12587,-10.01121 -1.00483,-4.84016 7.63576,9.5813 20.70377,16.93106 30.18413,16.97626 l 4.97785,0.0237 -3.97785,-3.19951 c -18.89491,-15.19782 -27.48568,-36.01355 -21.48361,-52.05553 5.10921,-13.65558 18.67288,-20.74496 39.69002,-20.74496 10.80042,0 17.83422,1.46088 28.39227,5.8969 16.58662,6.96895 35.3851,23.48507 42.2304,37.1031 2.07349,4.125 2.99342,6.375 2.04428,5 -7.12728,-10.32515 -21.23876,-19.12041 -31.71767,-19.76867 l -6.13353,-0.37943 3.5,2.82352 c 7.81701,6.30616 11.20979,9.87141 15.40893,16.19221 13.83074,20.8189 10.72956,42.8788 -7.32256,52.0883 -9.47148,4.83199 -24.96211,6.78787 -36.58637,4.61947 z m 22.1849,-21.74838 c 2.72249,-1.13439 2.62847,-1.19557 -2.85784,-1.85982 -12.07582,-1.46205 -21.99373,-11.12904 -21.99373,-21.4373 0,-7.39972 3.46274,-10.5299 11.64862,-10.5299 11.72411,0 22.07501,9.14585 23.47645,20.74334 0.69429,5.74547 0.69811,5.75083 1.96351,2.75666 2.0731,-4.90532 0.86664,-15.26248 -2.51603,-21.59958 -3.966,-7.42991 -12.9304,-16.05279 -20.57828,-19.79427 -15.21255,-7.44228 -28.99334,-5.85765 -35.57649,4.09088 -9.40797,14.21743 6.09261,39.69457 28.51084,46.86111 6.66294,2.12997 13.91024,2.44087 17.92295,0.76888 z"
         id="path3459"
         inkscape:connector-curvature="0" />
      <path
         style="fill:#fe0000"
         d="m -206.12658,955.31305 c 0.1745,-3.67402 3.25055,-12.98608 4.62061,-13.9879 2.5196,-1.84238 4.57602,-1.58878 3.95638,0.4879 -1.70702,5.7209 -2.78694,11.409 -2.26514,11.93081 1.2339,1.23389 3.46654,-1.88511 4.61543,-6.44775 1.39597,-5.54391 2.60089,-7.23306 5.15954,-7.23306 2.24774,0 2.29111,0.85683 0.40252,7.9535 -0.79821,2.99942 -1.20414,5.69942 -0.90205,6 1.03508,1.0299 4.14125,-3.88281 4.84878,-7.66881 0.84969,-4.54674 2.1358,-6.28469 4.65075,-6.28469 2.26538,0 2.25529,-0.24641 0.2991,7.30278 -0.86815,3.35031 -2.33065,6.66346 -3.25,7.36254 -1.81897,1.38318 -22.19941,1.92149 -22.13592,0.58468 z m 26.4928,-0.20401 c -1.07042,-1.73199 0.6216,-5.91427 3.03159,-7.49336 1.49421,-0.97903 4.6454,-1.55263 8.52981,-1.55263 l 6.16018,0 -0.62801,3.25 c -0.95104,4.92169 -3.84214,6.75 -10.67376,6.75 -3.20661,0 -6.09552,-0.42931 -6.41981,-0.95401 z m 9.90015,-1.61742 c 2.16473,-2.16472 2.0273,-5.42857 -0.22857,-5.42857 -2.46449,0 -4.2,1.94211 -4.2,4.7 0,2.6742 2.13217,3.02497 4.42857,0.72857 z m 7.57143,2.01425 c 0,-0.30645 0.50342,-2.55645 1.11872,-5 l 1.11871,-4.44282 7.41267,0 c 8.28137,0 9.02604,0.60036 7.60099,6.12805 -0.62218,2.41337 -1.51699,3.46605 -3.14764,3.70296 -2.0787,0.30201 -2.24877,-0.005 -1.9409,-3.5 0.30779,-3.49426 0.10646,-3.85779 -2.29043,-4.13565 -2.15573,-0.2499 -2.7541,0.19826 -3.33039,2.49441 -0.38639,1.53947 -1.17144,3.36406 -1.74457,4.05464 -1.02591,1.23614 -4.79716,1.78519 -4.79716,0.69841 z m 19.55186,-0.3589 c -0.81504,-1.31878 1.22981,-6.19532 3.23746,-7.72062 0.94087,-0.71483 3.39437,-1.314 5.45221,-1.3315 2.63542,-0.0224 4.11077,-0.62306 4.99054,-2.0318 0.78489,-1.2568 2.33203,-2 4.16346,-2 2.74089,0 2.81764,0.10696 1.28889,1.79622 -0.89406,0.98793 -2.16609,4.13793 -2.82674,7 l -1.20118,5.20378 -7.26923,0 c -3.99808,0 -7.52401,-0.41224 -7.83541,-0.91608 z m 9.62935,-1.33392 c 0.85991,-0.6875 1.80379,-2.2625 2.09751,-3.5 0.43076,-1.81485 0.10733,-2.25 -1.67234,-2.25 -2.84305,0 -4.60638,1.79917 -4.60638,4.7 0,2.5359 1.76751,2.97976 4.18121,1.05 z m 8.70364,1.5 c -0.36143,-2.35398 0.54483,-5.02068 2.37889,-7 1.73878,-1.87648 3.13501,-2.25 8.41057,-2.25 5.59491,0 6.32569,0.22423 6.32569,1.94098 0,2.5136 -1.50071,3.38823 -6.92005,4.03308 -5.93164,0.70581 -6.4971,2.78929 -0.89309,3.29065 3.18432,0.28489 2.54655,0.4316 -2.43686,0.56058 -3.7125,0.0961 -6.80182,-0.16279 -6.86515,-0.57529 z m 12.17928,-5.82727 c 1.15399,-1.39047 0.91113,-1.53852 -2.05054,-1.25 -1.84776,0.18 -3.54422,0.88977 -3.76991,1.57727 -0.60378,1.83925 4.24884,1.5664 5.82045,-0.32727 z m 5.51601,3.82727 c 1.10715,-4.92476 4.76872,-7.25 11.41661,-7.25 6.15876,0 8.0003,1.09371 5.9669,3.5438 -1.73805,2.09422 -4.64247,1.79239 -5.25397,-0.546 -0.87707,-3.35389 -5.00154,-1.06064 -6.0476,3.36253 -0.747,3.15863 -1.24664,3.63967 -3.78047,3.63967 -2.66835,0 -2.86649,-0.23675 -2.30147,-2.75 z m 12.97547,1.79439 c 0.52558,-0.52558 4.77808,-1.08808 9.45,-1.25 6.75306,-0.23404 8.49439,-0.60189 8.49439,-1.79439 0,-1.03704 -1.38889,-1.65432 -4.5,-2 -4.21964,-0.46885 -4.48752,-0.67679 -4.29974,-3.3376 0.34155,-4.83972 1.81219,-5.6624 10.12218,-5.6624 8.44062,0 8.96596,1.67576 0.68655,2.19 -3.73926,0.23225 -5.07158,0.73452 -5.31228,2.00267 -0.25966,1.36801 0.59998,1.75161 4.48201,2 5.47165,0.35009 6.60274,2.20263 3.88102,6.3565 -1.54577,2.35914 -2.024,2.45083 -12.78279,2.45083 -7.10516,0 -10.82882,-0.34813 -10.22134,-0.95561 z m 25.76516,-2.63362 c 0.7057,-4.34873 2.27185,-6.41077 4.86906,-6.41077 1.38372,0 1.79492,0.50497 1.42505,1.75 -0.28595,0.9625 -0.82722,3.03595 -1.20282,4.60766 -0.63761,2.66806 -0.54273,2.78264 1.4299,1.72692 1.16205,-0.62191 2.4865,-2.58286 2.94322,-4.35766 0.65184,-2.53303 1.42894,-3.29685 3.61387,-3.55215 2.29611,-0.26828 2.68827,-0.006 2.2397,1.5 -0.29908,1.00388 -0.84913,3.10338 -1.22234,4.66557 -0.62,2.59516 -0.5162,2.73793 1.20251,1.65398 1.03459,-0.6525 2.55608,-2.60565 3.38108,-4.34034 0.825,-1.73469 2.3324,-3.30812 3.34978,-3.49652 1.60215,-0.29668 1.75876,0.10493 1.16983,3 -1.1681,5.74219 -3.46145,6.84254 -14.26124,6.84254 l -9.52005,0 0.58245,-3.58923 z m 25.3459,2.92256 c -1.34633,-1.34632 -0.61137,-5.38863 1.33333,-7.33333 1.61905,-1.61905 3.33333,-2 9,-2 3.85,0 7,0.14484 7,0.32186 0,0.17702 -0.7173,2.42702 -1.594,5 -1.33155,3.90786 -2.00801,4.67814 -4.10841,4.67814 -2.57367,0 -2.70144,-1.17806 -0.69487,-6.4071 0.97307,-2.53577 -4.27142,-2.08045 -5.64724,0.49029 -0.88943,1.6619 -0.76408,2.47082 0.6198,4 1.6781,1.85428 1.62089,1.91681 -1.75363,1.91681 -1.91857,0 -3.78832,-0.3 -4.15498,-0.66667 z m 16.33333,0.41123 c 0,-0.21355 0.7173,-2.49344 1.594,-5.06642 l 1.594,-4.67814 7.406,0 7.406,0 -0.0137,2.75 c -0.0256,5.1529 -1.07119,7.25 -3.6148,7.25 -2.24215,0 -2.3535,-0.26069 -1.74277,-4.07999 0.63951,-3.99926 0.59769,-4.07346 -2.11361,-3.75 -2.15883,0.25755 -3.01289,1.09831 -3.8906,3.82999 -0.87736,2.73061 -1.72909,3.56956 -3.87457,3.81642 -1.5125,0.17403 -2.75,0.1417 -2.75,-0.0719 z m -81.5,-24.16916 c -22.11395,-4.12515 -47.06552,-21.16006 -58.20146,-39.73524 -4.66187,-7.77617 -5.12587,-10.01121 -1.00483,-4.84016 7.63576,9.5813 20.70377,16.93106 30.18413,16.97626 l 4.97785,0.0237 -3.97785,-3.19951 c -18.89491,-15.19782 -27.48568,-36.01355 -21.48361,-52.05553 5.10921,-13.65558 18.67288,-20.74496 39.69002,-20.74496 10.80042,0 17.83422,1.46088 28.39227,5.8969 16.58662,6.96895 35.3851,23.48507 42.2304,37.1031 2.07349,4.125 2.99342,6.375 2.04428,5 -7.12728,-10.32515 -21.23876,-19.12041 -31.71767,-19.76867 l -6.13353,-0.37943 3.5,2.82352 c 7.81701,6.30616 11.20979,9.87141 15.40893,16.19221 13.83074,20.8189 10.72956,42.8788 -7.32256,52.0883 -9.47148,4.83199 -24.96211,6.78787 -36.58637,4.61947 z m 22.1849,-21.74838 c 2.72249,-1.13439 2.62847,-1.19557 -2.85784,-1.85982 -12.07582,-1.46205 -21.99373,-11.12904 -21.99373,-21.4373 0,-7.39972 3.46274,-10.5299 11.64862,-10.5299 11.72411,0 22.07501,9.14585 23.47645,20.74334 0.69429,5.74547 0.69811,5.75083 1.96351,2.75666 2.0731,-4.90532 0.86664,-15.26248 -2.51603,-21.59958 -3.966,-7.42991 -12.9304,-16.05279 -20.57828,-19.79427 -15.21255,-7.44228 -28.99334,-5.85765 -35.57649,4.09088 -9.40797,14.21743 6.09261,39.69457 28.51084,46.86111 6.66294,2.12997 13.91024,2.44087 17.92295,0.76888 z"
         id="path3457"
         inkscape:connector-curvature="0" />
      <path
         style="fill:#030303"
         d="m -206.12658,955.31305 c 0.1745,-3.67402 3.25055,-12.98608 4.62061,-13.9879 2.5196,-1.84238 4.57602,-1.58878 3.95638,0.4879 -1.70702,5.7209 -2.78694,11.409 -2.26514,11.93081 1.2339,1.23389 3.46654,-1.88511 4.61543,-6.44775 1.39597,-5.54391 2.60089,-7.23306 5.15954,-7.23306 2.24774,0 2.29111,0.85683 0.40252,7.9535 -0.79821,2.99942 -1.20414,5.69942 -0.90205,6 1.03508,1.0299 4.14125,-3.88281 4.84878,-7.66881 0.84969,-4.54674 2.1358,-6.28469 4.65075,-6.28469 2.26538,0 2.25529,-0.24641 0.2991,7.30278 -0.86815,3.35031 -2.33065,6.66346 -3.25,7.36254 -1.81897,1.38318 -22.19941,1.92149 -22.13592,0.58468 z m 26.4928,-0.20401 c -1.07042,-1.73199 0.6216,-5.91427 3.03159,-7.49336 1.49421,-0.97903 4.6454,-1.55263 8.52981,-1.55263 l 6.16018,0 -0.62801,3.25 c -0.95104,4.92169 -3.84214,6.75 -10.67376,6.75 -3.20661,0 -6.09552,-0.42931 -6.41981,-0.95401 z m 9.90015,-1.61742 c 2.16473,-2.16472 2.0273,-5.42857 -0.22857,-5.42857 -2.46449,0 -4.2,1.94211 -4.2,4.7 0,2.6742 2.13217,3.02497 4.42857,0.72857 z m 7.57143,2.01425 c 0,-0.30645 0.50342,-2.55645 1.11872,-5 l 1.11871,-4.44282 7.41267,0 c 8.28137,0 9.02604,0.60036 7.60099,6.12805 -0.62218,2.41337 -1.51699,3.46605 -3.14764,3.70296 -2.0787,0.30201 -2.24877,-0.005 -1.9409,-3.5 0.30779,-3.49426 0.10646,-3.85779 -2.29043,-4.13565 -2.15573,-0.2499 -2.7541,0.19826 -3.33039,2.49441 -0.38639,1.53947 -1.17144,3.36406 -1.74457,4.05464 -1.02591,1.23614 -4.79716,1.78519 -4.79716,0.69841 z m 19.55186,-0.3589 c -0.81504,-1.31878 1.22981,-6.19532 3.23746,-7.72062 0.94087,-0.71483 3.39437,-1.314 5.45221,-1.3315 2.63542,-0.0224 4.11077,-0.62306 4.99054,-2.0318 0.78489,-1.2568 2.33203,-2 4.16346,-2 2.74089,0 2.81764,0.10696 1.28889,1.79622 -0.89406,0.98793 -2.16609,4.13793 -2.82674,7 l -1.20118,5.20378 -7.26923,0 c -3.99808,0 -7.52401,-0.41224 -7.83541,-0.91608 z m 9.62935,-1.33392 c 0.85991,-0.6875 1.80379,-2.2625 2.09751,-3.5 0.43076,-1.81485 0.10733,-2.25 -1.67234,-2.25 -2.84305,0 -4.60638,1.79917 -4.60638,4.7 0,2.5359 1.76751,2.97976 4.18121,1.05 z m 8.70364,1.5 c -0.36143,-2.35398 0.54483,-5.02068 2.37889,-7 1.73878,-1.87648 3.13501,-2.25 8.41057,-2.25 5.59491,0 6.32569,0.22423 6.32569,1.94098 0,2.5136 -1.50071,3.38823 -6.92005,4.03308 -5.93164,0.70581 -6.4971,2.78929 -0.89309,3.29065 3.18432,0.28489 2.54655,0.4316 -2.43686,0.56058 -3.7125,0.0961 -6.80182,-0.16279 -6.86515,-0.57529 z m 12.17928,-5.82727 c 1.15399,-1.39047 0.91113,-1.53852 -2.05054,-1.25 -1.84776,0.18 -3.54422,0.88977 -3.76991,1.57727 -0.60378,1.83925 4.24884,1.5664 5.82045,-0.32727 z m 5.51601,3.82727 c 1.10715,-4.92476 4.76872,-7.25 11.41661,-7.25 6.15876,0 8.0003,1.09371 5.9669,3.5438 -1.73805,2.09422 -4.64247,1.79239 -5.25397,-0.546 -0.87707,-3.35389 -5.00154,-1.06064 -6.0476,3.36253 -0.747,3.15863 -1.24664,3.63967 -3.78047,3.63967 -2.66835,0 -2.86649,-0.23675 -2.30147,-2.75 z m 12.97547,1.79439 c 0.52558,-0.52558 4.77808,-1.08808 9.45,-1.25 6.75306,-0.23404 8.49439,-0.60189 8.49439,-1.79439 0,-1.03704 -1.38889,-1.65432 -4.5,-2 -4.21964,-0.46885 -4.48752,-0.67679 -4.29974,-3.3376 0.34155,-4.83972 1.81219,-5.6624 10.12218,-5.6624 8.44062,0 8.96596,1.67576 0.68655,2.19 -3.73926,0.23225 -5.07158,0.73452 -5.31228,2.00267 -0.25966,1.36801 0.59998,1.75161 4.48201,2 5.47165,0.35009 6.60274,2.20263 3.88102,6.3565 -1.54577,2.35914 -2.024,2.45083 -12.78279,2.45083 -7.10516,0 -10.82882,-0.34813 -10.22134,-0.95561 z m 25.76516,-2.63362 c 0.7057,-4.34873 2.27185,-6.41077 4.86906,-6.41077 1.38372,0 1.79492,0.50497 1.42505,1.75 -0.28595,0.9625 -0.82722,3.03595 -1.20282,4.60766 -0.63761,2.66806 -0.54273,2.78264 1.4299,1.72692 1.16205,-0.62191 2.4865,-2.58286 2.94322,-4.35766 0.65184,-2.53303 1.42894,-3.29685 3.61387,-3.55215 2.29611,-0.26828 2.68827,-0.006 2.2397,1.5 -0.29908,1.00388 -0.84913,3.10338 -1.22234,4.66557 -0.62,2.59516 -0.5162,2.73793 1.20251,1.65398 1.03459,-0.6525 2.55608,-2.60565 3.38108,-4.34034 0.825,-1.73469 2.3324,-3.30812 3.34978,-3.49652 1.60215,-0.29668 1.75876,0.10493 1.16983,3 -1.1681,5.74219 -3.46145,6.84254 -14.26124,6.84254 l -9.52005,0 0.58245,-3.58923 z m 25.3459,2.92256 c -1.34633,-1.34632 -0.61137,-5.38863 1.33333,-7.33333 1.61905,-1.61905 3.33333,-2 9,-2 3.85,0 7,0.14484 7,0.32186 0,0.17702 -0.7173,2.42702 -1.594,5 -1.33155,3.90786 -2.00801,4.67814 -4.10841,4.67814 -2.57367,0 -2.70144,-1.17806 -0.69487,-6.4071 0.97307,-2.53577 -4.27142,-2.08045 -5.64724,0.49029 -0.88943,1.6619 -0.76408,2.47082 0.6198,4 1.6781,1.85428 1.62089,1.91681 -1.75363,1.91681 -1.91857,0 -3.78832,-0.3 -4.15498,-0.66667 z m 16.33333,0.41123 c 0,-0.21355 0.7173,-2.49344 1.594,-5.06642 l 1.594,-4.67814 7.406,0 7.406,0 -0.0137,2.75 c -0.0256,5.1529 -1.07119,7.25 -3.6148,7.25 -2.24215,0 -2.3535,-0.26069 -1.74277,-4.07999 0.63951,-3.99926 0.59769,-4.07346 -2.11361,-3.75 -2.15883,0.25755 -3.01289,1.09831 -3.8906,3.82999 -0.87736,2.73061 -1.72909,3.56956 -3.87457,3.81642 -1.5125,0.17403 -2.75,0.1417 -2.75,-0.0719 z"
         id="path3455"
         inkscape:connector-curvature="0" />
    </g>
  </g>
</svg>
