<?xml version="1.0" encoding="UTF-8" standalone="no"?>
<!-- Created with Inkscape (http://www.inkscape.org/) -->

<svg
   version="1.1"
   id="svg182"
   width="276.22501mm"
   height="166.95209mm"
   viewBox="0 0 1044 631.00002"
   sodipodi:docname="CRT.png"
   inkscape:export-filename="CRT.svg"
   inkscape:export-xdpi="9600"
   inkscape:export-ydpi="9600"
   xmlns:inkscape="http://www.inkscape.org/namespaces/inkscape"
   xmlns:sodipodi="http://sodipodi.sourceforge.net/DTD/sodipodi-0.dtd"
   xmlns="http://www.w3.org/2000/svg"
   xmlns:svg="http://www.w3.org/2000/svg">
  <defs
     id="defs186" />
  <sodipodi:namedview
     id="namedview184"
     pagecolor="#ffffff"
     bordercolor="#000000"
     borderopacity="0.25"
     inkscape:showpageshadow="2"
     inkscape:pageopacity="0.0"
     inkscape:pagecheckerboard="0"
     inkscape:deskcolor="#d1d1d1"
     showgrid="false"
     showguides="true"
     inkscape:zoom="1"
     inkscape:cx="547"
     inkscape:cy="363"
     inkscape:window-width="1920"
     inkscape:window-height="1009"
     inkscape:window-x="-8"
     inkscape:window-y="-8"
     inkscape:window-maximized="1"
     inkscape:current-layer="g188"
     inkscape:document-units="mm" />
  <g
     inkscape:groupmode="layer"
     inkscape:label="Image"
     id="g188"
     transform="translate(-6.0000002,-100)">
    <rect
       style="fill:#ad161b;fill-opacity:0.984314;stroke-width:118.26"
       id="rect591"
       width="110.20142"
       height="275.57535"
       x="711.79443"
       y="292.26483"
       ry="18.430195"
       transform="matrix(1,0,-0.0609605,0.99814018,0,0)" />
    <rect
       style="fill:#e31e25;fill-opacity:1;stroke-width:108.249"
       id="rect640"
       width="96.371178"
       height="264.03012"
       x="721.6076"
       y="288.96179"
       ry="17.658068"
       transform="matrix(0.99993425,0.01146756,-0.06863152,0.99764208,0,0)" />
    <rect
       style="fill:#459236;fill-opacity:1;stroke-width:118.26"
       id="rect591-3"
       width="110.20142"
       height="275.57535"
       x="830.474"
       y="293.14807"
       ry="18.430195"
       transform="matrix(1,0,-0.0609605,0.99814018,0,0)" />
    <rect
       style="fill:#5ebb46;fill-opacity:1;stroke-width:108.249"
       id="rect640-1"
       width="96.371178"
       height="264.03012"
       x="840.20825"
       y="288.48218"
       ry="17.658068"
       transform="matrix(0.99993425,0.01146756,-0.06863152,0.99764208,0,0)" />
    <rect
       style="fill:#111d64;fill-opacity:1;stroke-width:118.26"
       id="rect591-3-1"
       width="110.20142"
       height="275.57535"
       x="947.79199"
       y="291.38156"
       ry="18.430195"
       transform="matrix(1,0,-0.0609605,0.99814018,0,0)" />
    <rect
       style="fill:#1b30af;fill-opacity:1;stroke-width:108.249"
       id="rect640-1-1"
       width="96.371178"
       height="264.03012"
       x="957.42792"
       y="285.36737"
       ry="17.658068"
       transform="matrix(0.99993425,0.01146756,-0.06863152,0.99764208,0,0)" />
    <g
       aria-label="CRT"
       transform="scale(0.93372138,1.0709833)"
       id="text7427"
       style="font-size:350.461px;fill:#ff00ff;stroke-width:110.671">
      <path
         d="m 234.6996,509.91386 q -9.41179,4.10697 -17.11235,7.70056 -7.52944,3.59359 -19.85033,7.52944 -10.43854,3.25134 -22.75943,5.47595 -12.14977,2.39573 -26.8664,2.39573 -27.72201,0 -50.481439,-7.70056 -22.588306,-7.87168 -39.358413,-24.47067 -16.427859,-16.25673 -25.66853,-41.24077 -9.240671,-25.15516 -9.240671,-58.35312 0,-31.48673 8.898424,-56.29965 8.898424,-24.81291 25.66853,-41.92526 16.256736,-16.59899 39.18729,-25.32629 23.101679,-8.7273 51.165939,-8.7273 20.53482,0 40.89852,4.96259 20.53483,4.96258 45.51886,17.4546 v 40.21403 h -2.56685 q -21.0482,-17.62573 -41.75414,-25.66853 -20.70595,-8.04281 -44.321,-8.04281 -19.33696,0 -34.9092,6.33157 -15.401118,6.16045 -27.550889,19.33696 -11.807523,12.83427 -18.481341,32.51347 -6.502695,19.50809 -6.502695,45.17662 0,26.86639 7.187189,46.20335 7.358312,19.33696 18.823589,31.48673 11.978647,12.66314 27.893137,18.82359 16.08561,5.98932 33.88246,5.98932 24.47066,0 45.86111,-8.38505 21.39044,-8.38505 40.0429,-25.15516 h 2.39573 z"
         style="fill:#ffffff"
         id="path8132" />
      <path
         d="M 493.43838,528.3952 H 449.45963 L 364.24011,427.09007 H 316.49665 V 528.3952 H 282.61419 V 273.59226 h 71.35851 q 23.10168,0 38.5028,3.08022 15.40111,2.9091 27.72201,10.60966 13.86101,8.7273 21.56156,22.07494 7.87169,13.17651 7.87169,33.54021 0,27.55089 -13.86101,46.20336 -13.86101,18.48134 -38.16055,27.89313 z M 414.20819,345.29302 q 0,-10.95191 -3.93585,-19.33696 -3.76471,-8.55618 -12.66314,-14.37438 -7.35831,-4.96258 -17.4546,-6.84494 -10.09629,-2.05348 -23.78617,-2.05348 h -39.87178 v 96.17143 h 34.2247 q 16.08562,0 28.06426,-2.73798 11.97865,-2.9091 20.3637,-10.60966 7.70056,-7.18719 11.29416,-16.42786 3.76472,-9.41179 3.76472,-23.78617 z"
         style="fill:#ffffff"
         id="path8134" />
      <path
         d="M 697.75987,303.71 H 606.72215 V 528.3952 H 572.83969 V 303.71 h -91.03772 v -30.11774 h 215.9579 z"
         style="fill:#ffffff"
         id="path8136" />
    </g>
  </g>
</svg>
