<?xml version="1.0" encoding="utf-8"?>
<!-- Generator: Adobe Illustrator 16.0.3, SVG Export Plug-In . SVG Version: 6.00 Build 0)  -->
<!DOCTYPE svg PUBLIC "-//W3C//DTD SVG 1.1//EN" "http://www.w3.org/Graphics/SVG/1.1/DTD/svg11.dtd">
<svg version="1.1"
	 id="svg4237" xmlns:dc="http://purl.org/dc/elements/1.1/" xmlns:cc="http://web.resource.org/cc/" xmlns:rdf="http://www.w3.org/1999/02/22-rdf-syntax-ns#" xmlns:svg="http://www.w3.org/2000/svg" xmlns:sodipodi="http://sodipodi.sourceforge.net/DTD/sodipodi-0.dtd" xmlns:inkscape="http://www.inkscape.org/namespaces/inkscape" sodipodi:version="0.32" inkscape:version="0.44" sodipodi:docbase="F:\Logos" sodipodi:docname="PlaystationPortable.svg"
	 xmlns="http://www.w3.org/2000/svg" xmlns:xlink="http://www.w3.org/1999/xlink" x="0px" y="0px" width="566.929px"
	 height="185.058px" viewBox="0 0 566.929 185.058" enable-background="new 0 0 566.929 185.058" xml:space="preserve">
<sodipodi:namedview  id="base" pagecolor="#ffffff" bordercolor="#666666" borderopacity="1.0" inkscape:zoom="0.35" inkscape:cx="522.4006" inkscape:cy="-11.131139" inkscape:window-height="573" inkscape:window-width="925" inkscape:window-x="10" inkscape:window-y="378" inkscape:pageopacity="0.0" inkscape:current-layer="layer1" inkscape:pageshadow="2" inkscape:document-units="px">
	</sodipodi:namedview>
<g id="layer1" transform="translate(2.322326,-490.7257)" inkscape:label="Ebene 1" inkscape:groupmode="layer">
	<path id="path6905" d="M100.923,651.636c5.332,0,8.531-1.087,8.531-6.156c0-3.752-2.327-5.759-7.658-5.759h-7.368v11.915H100.923z
		 M91.617,667.291v-29.984h10.955c7.755,0,9.792,3.877,9.792,8.375c0,6.699-6.011,8.366-11.537,8.366h-6.399v13.242L91.617,667.291"
		/>
	<path id="path6907" d="M116.143,667.291h2.424v-29.984h-2.424V667.291z"/>
	<path id="path6909" d="M138.925,655.958c-2.132,0.872-4.362,1.047-6.494,1.213c-3.782,0.289-6.107,1.666-6.107,4.575
		c0,2.637,2.327,3.878,4.654,3.878c3.974,0,7.949-1.92,7.949-6.292L138.925,655.958L138.925,655.958z M134.66,654.717
		c0.969-0.087,2.521-0.339,3.296-0.718c0.873-0.369,0.969-1.492,0.969-2.238c0-2.54-1.551-4.372-5.428-4.372
		c-3.393,0-5.816,1.124-6.302,4.867h-2.521c0.388-5.081,4.168-7.126,8.919-7.126c4.362,0,7.756,1.716,7.756,6.708v11.741
		c0,1.957,0.581,2.414,2.617,1.666v1.959c-0.291,0.126-1.163,0.416-1.938,0.416c-0.389,0-0.679-0.038-1.066-0.125
		c-1.745-0.242-2.037-1.706-2.037-3.21c-2.037,2.338-4.944,3.588-8.046,3.588c-3.781,0-7.175-2.046-7.175-6.204
		c0-3.616,2.521-5.826,7.562-6.495L134.66,654.717"/>
	<path id="path6911" d="M147.553,673.156c0.679,0.126,1.356,0.262,2.036,0.262c2.909,0,3.296-4.09,4.265-5.962l-8.434-21.735h2.812
		l6.98,18.536l6.882-18.536h2.715l-8.047,21.279c-2.037,5.409-3.393,8.784-6.883,8.784c-0.873,0-1.648-0.125-2.327-0.29V673.156"/>
	<path id="path6913" d="M170.722,658.334c0.485,5.37,3.976,7.328,8.628,7.328c5.332,0,7.562-2.906,7.562-6.204
		c0-9.287-18.226-3.121-18.226-14.899c0-4.17,3.393-8.038,10.179-8.038c6.689,0,10.082,4.072,9.985,8.959h-2.617
		c0-4.587-3.587-6.544-7.368-6.544c-5.817,0-7.853,3.538-7.368,6.621c1.26,7.736,18.323,2.161,18.323,13.775
		c0,5.508-4.072,8.746-10.955,8.746c-6.302,0-10.955-3.238-10.955-9.743L170.722,658.334"/>
	<path id="path6915" d="M202.812,667.37c-0.582,0.125-1.648,0.504-2.909,0.504c-2.424,0-3.781-1.086-3.781-4.294v-15.783h-3.103
		v-2.074h3.103v-6.001h2.521v6.001h3.975v2.074h-3.975v14.785c0,2.133,0,3.043,2.132,3.043c0.679,0,1.356-0.126,2.037-0.29V667.37"
		/>
	<path id="path6917" d="M221.52,655.958c-2.132,0.872-4.264,1.047-6.398,1.213c-3.78,0.289-6.107,1.666-6.107,4.575
		c0,2.637,2.327,3.878,4.655,3.878c3.974,0,7.851-1.92,7.851-6.292V655.958z M217.352,654.717c0.873-0.087,2.425-0.339,3.297-0.718
		c0.776-0.369,0.872-1.492,0.872-2.238c0-2.54-1.454-4.372-5.332-4.372c-3.489,0-5.816,1.124-6.301,4.867h-2.521
		c0.387-5.081,4.168-7.126,8.821-7.126c4.364,0,7.853,1.716,7.853,6.708v11.741c0,1.957,0.486,2.414,2.619,1.666v1.959
		c-0.389,0.126-1.262,0.416-1.939,0.416c-0.388,0-0.775-0.038-1.164-0.125c-1.648-0.242-1.939-1.706-1.939-3.21
		c-2.134,2.338-4.943,3.588-8.046,3.588c-3.781,0-7.271-2.046-7.271-6.204c0-3.616,2.521-5.826,7.562-6.495L217.352,654.717"/>
	<path id="path6919" d="M238.778,667.37c-0.581,0.125-1.649,0.504-2.908,0.504c-2.423,0-3.781-1.086-3.781-4.294v-15.783h-3.006
		v-2.074h3.006v-6.001h2.521v6.001h3.975v2.074h-3.975v14.785c0,2.133,0,3.043,2.132,3.043c0.678,0,1.358-0.126,2.037-0.29V667.37"
		/>
	<path id="path6921" d="M246.243,667.291h-2.425v-21.569h2.425V667.291z M243.624,641.008v-3.701h2.812v3.701H243.624"/>
	<path id="path6923" d="M260.978,647.389c-5.235,0-7.271,4.449-7.271,9.112c0,5.371,2.521,9.122,7.271,9.122
		c5.234,0,7.368-4.498,7.368-9.122C268.346,651.421,266.31,647.389,260.978,647.389z M250.993,656.5
		c0-6.281,3.393-11.371,9.985-11.371c6.785,0,10.082,5.04,10.082,11.371c0,6.837-3.975,11.372-10.082,11.372
		C255.549,667.786,250.993,664.043,250.993,656.5"/>
	<path id="path6925" d="M277.071,667.291h-2.521v-21.569h2.521v2.995c1.938-2.123,3.975-3.587,6.883-3.587
		c2.714,0,5.041,0.833,6.592,3.083c1.065,1.551,1.163,3.169,1.163,4.953v14.124h-2.521v-14.076c0-3.867-1.647-5.826-5.623-5.826
		c-3.103,0-5.235,1.997-6.01,4.197c-0.486,1.377-0.486,2.59-0.486,4.092v11.614"/>
	<path id="path6927" d="M301.5,660.283c-0.291-0.136-0.678-0.204-1.259-0.204h-0.777v1.997h0.875c0.386,0,0.774-0.038,0.968-0.114
		c0.387-0.155,0.582-0.446,0.582-0.873C301.889,660.69,301.694,660.418,301.5,660.283z M300.434,659.4
		c0.68,0,1.164,0.059,1.551,0.194c0.582,0.243,0.775,0.708,0.775,1.416c0,0.494-0.098,0.853-0.484,1.086
		c-0.195,0.126-0.484,0.214-0.775,0.271c0.387,0.067,0.678,0.262,0.871,0.553c0.195,0.301,0.291,0.593,0.291,0.873v0.407
		c0,0.135,0,0.281,0.098,0.418c0,0.154,0,0.251,0,0.299v0.068h-0.873c0-0.02,0-0.039,0-0.049c0-0.021,0-0.049,0-0.078l-0.096-0.173
		v-0.447c0-0.658-0.195-1.086-0.486-1.289c-0.193-0.126-0.58-0.184-1.066-0.184h-0.774v2.22h-0.971v-5.584h1.94V659.4z
		 M297.43,659.11c-0.873,0.853-1.262,1.89-1.262,3.091c0,1.232,0.389,2.27,1.262,3.123c0.872,0.863,1.841,1.289,3.103,1.289
		c1.261,0,2.229-0.426,3.102-1.289c0.873-0.854,1.262-1.89,1.262-3.123c0-1.201-0.389-2.238-1.262-3.091
		c-0.872-0.854-1.841-1.281-3.102-1.281C299.271,657.828,298.302,658.255,297.43,659.11z M304.119,665.797
		c-0.97,0.99-2.229,1.493-3.586,1.493c-1.359,0-2.619-0.504-3.587-1.493c-0.971-0.988-1.455-2.19-1.455-3.597
		c0-1.386,0.484-2.588,1.455-3.567c0.968-0.998,2.228-1.483,3.587-1.483c1.356,0,2.616,0.484,3.586,1.483
		c0.969,0.969,1.455,2.172,1.455,3.567C305.574,663.609,305.087,664.81,304.119,665.797"/>
	<path id="path6929" d="M322.634,651.636c5.332,0,8.628-1.087,8.628-6.156c0-3.752-2.423-5.759-7.755-5.759h-7.369v11.915H322.634z
		 M313.329,667.291v-29.984h10.956c7.755,0,9.789,3.877,9.789,8.375c0,6.699-5.914,8.366-11.535,8.366h-6.4v13.242L313.329,667.291"
		/>
	<path id="path6931" d="M345.222,647.389c-5.234,0-7.366,4.449-7.366,9.112c0,5.371,2.616,9.122,7.366,9.122
		c5.237,0,7.369-4.498,7.369-9.122C352.494,651.421,350.555,647.389,345.222,647.389z M335.238,656.5
		c0-6.281,3.296-11.371,9.984-11.371c6.787,0,9.987,5.04,9.987,11.371c0,6.837-3.976,11.372-9.987,11.372
		C339.697,667.786,335.238,664.043,335.238,656.5"/>
	<path id="path6933" d="M361.413,667.291h-2.521v-21.569h2.521v4.043h0.098c1.354-3.462,3.392-4.634,6.98-4.634v2.715
		c-5.624-0.126-7.076,4.033-7.076,8.861v10.584"/>
	<path id="path6935" d="M382.451,667.37c-0.582,0.125-1.648,0.504-2.813,0.504c-2.519,0-3.878-1.086-3.878-4.294v-15.783h-3.005
		v-2.074h3.005v-6.001h2.521v6.001h4.071v2.074h-4.071v14.785c0,2.133,0.098,3.043,2.132,3.043c0.682,0,1.455-0.126,2.037-0.29
		v2.035"/>
	<path id="path6937" d="M400.384,655.958c-2.133,0.872-4.265,1.047-6.398,1.213c-3.782,0.289-6.107,1.666-6.107,4.575
		c0,2.637,2.327,3.878,4.652,3.878c3.976,0,7.854-1.92,7.854-6.292V655.958z M396.215,654.717c0.871-0.087,2.423-0.339,3.296-0.718
		c0.777-0.369,0.873-1.492,0.873-2.238c0-2.54-1.455-4.372-5.332-4.372c-3.489,0-5.817,1.124-6.301,4.867h-2.521
		c0.387-5.081,4.169-7.126,8.822-7.126c4.363,0,7.853,1.716,7.853,6.708v11.741c0,1.957,0.484,2.414,2.618,1.666v1.959
		c-0.389,0.126-1.262,0.416-1.938,0.416c-0.389,0-0.777-0.038-1.164-0.125c-1.647-0.242-1.938-1.706-1.938-3.21
		c-2.133,2.338-4.944,3.588-8.049,3.588c-3.779,0-7.271-2.046-7.271-6.204c0-3.616,2.521-5.826,7.562-6.495L396.215,654.717"/>
	<path id="path6939" d="M420.161,665.623c4.169,0,7.271-3.043,7.369-8.452c0.192-5.41-2.23-9.782-7.369-9.782
		c-4.557,0-7.271,4.158-7.271,9.026C412.889,661.629,415.411,665.623,420.161,665.623z M412.889,667.291h-2.521v-29.984h2.521
		v11.865c1.553-2.618,4.653-4.043,7.66-4.043c6.59,0,9.597,5.38,9.597,11.42c0,6.359-2.714,11.323-9.694,11.323
		c-2.812,0-6.01-1.541-7.56-4.372l0,0v3.791"/>
	<path id="path6941" d="M435.673,667.291h2.519v-29.984h-2.519V667.291z"/>
	<path id="path6943" d="M459.908,654.999c0-4.198-2.326-7.61-6.785-7.61c-4.46,0-6.787,3.538-7.271,7.61H459.908z M445.851,657.092
		c0,4.654,2.521,8.532,7.271,8.532c3.2,0,5.816-1.794,6.494-4.953h2.812c-1.26,4.07-3.78,7.203-9.306,7.203
		c-6.885,0-9.89-4.915-9.89-11.282c0-6.293,3.685-11.461,9.89-11.461c5.914,0,9.501,4.218,9.501,11.962L445.851,657.092"/>
	<path id="path6945" d="M-2.322,490.726H174.31v52.38H4.657v45.399h-6.979v-52.38H167.33v-38.42H-2.322V490.726"/>
	<path id="path6947" d="M394.956,543.106v45.399h-6.98v-52.38h169.65v-38.42h-169.65v-6.979h176.631v52.38H394.956"/>
	<path id="path6949" d="M264.371,490.726v90.798H174.31v6.981h97.428v-90.8h90.063v-6.979H264.371"/>
</g>
</svg>
