<svg xmlns="http://www.w3.org/2000/svg" width="2500" height="603" viewBox="8.78 12 423.221 102"><path d="M432 33.4h-2v-5l-2 3.3h-1l-1-3.3v5h-2v-8.5h2l2 4.6 2-4.6h2v8.5zm-9-7h-2v7h-2v-7h-2v-1.5h6v1.5zm-11 31.5h-6V38.7l-7 12.5h-4l-6-12.5v19.2h-7v-33h7l8 17.8 9-17.8h6v33zm-39 0h-7l-2-5.8h-11l-2 5.8h-7l12-33h5l12 33zm-10-11.3l-4-12-4 12h8zm-29 11.3h-22v-33h22v5.7h-15v7.8h13v5.7h-13v8.1h15v5.7zm-32-27.3h-8v27.3h-7V30.6h-9v-5.7h24v5.7zm-32 17.6c0 6.8-6 9.9-12 10-6 0-10-1.4-12-4.4l4-4.1c2 1.8 4 2.8 8 2.8s6-1.4 6-4.1c0-2.5-2-3.6-4-4l-4-.5c-6-.8-9-3.9-9-9.3 0-3 1-5.4 3-7.3 2-1.8 5-2.7 8-2.7 5 0 8 1.3 11 3.8l-4 4.1c-2-1.5-4-2.3-7-2.3-3 .2-5 1.3-5 4.2 0 2.3 2 3.4 4 3.6l4 .6c5 .6 9 4 9 9.6zm-51-6c0 9-8 16.3-17 16.3s-16-7.3-16-16.3c0-8.9 7-16.2 16-16.2s17 7.3 17 16.2zM202 12c-16 0-30 13.4-30 30.1l-19 27.1c-1-.101-1-.2-2-.2-4 0-8 1.2-12 3.2L53.6 37.8C51.3 27.6 42.2 20 31.4 20 19 20 8.78 30.2 8.78 42.7 8.78 55.1 19 65.3 31.4 65.3c4.301 0 8.2-1.1 11.601-3.2l86 34.4c2 10.5 11 17.5 22 17.5s21-9 22-20.1l29-21.2c17 0 31-13.6 31-30.4C233 25.6 219 12 202 12zm0 10c12 0 21 9.1 21 20.3 0 11.3-9 20.4-21 20.4-11 0-20-9.1-20-20.4 0-11.2 9-20.3 20-20.3zM31.4 26c6.4 0 12 3.5 14.801 8.8L37.9 31.5c-6.7-2.4-14.1.9-16.8 7.5-2.6 6.7.4 14.2 6.9 17.1l7 2.8c-1.101.3-2.3.4-3.601.4-9.199 0-16.6-7.4-16.6-16.6C14.8 33.4 22.2 26 31.4 26zM151 75c9 0 16 7.5 16 16.7 0 9.3-7 16.3-16 16.3-7 0-12-3-15-8.5 3 1.5 5 2.5 8 3.5 7 3 14-1 17-7.4 2-6.199 0-14.699-7-17.399l-7-2.8c1-.201 3-.401 4-.401z"/></svg>