<?xml version="1.0" encoding="utf-8"?>
<!-- Generator: Adobe Illustrator 16.0.3, SVG Export Plug-In . SVG Version: 6.00 Build 0)  -->
<!DOCTYPE svg PUBLIC "-//W3C//DTD SVG 1.1//EN" "http://www.w3.org/Graphics/SVG/1.1/DTD/svg11.dtd">
<svg version="1.1" id="Ebene_2" xmlns="http://www.w3.org/2000/svg" xmlns:xlink="http://www.w3.org/1999/xlink" x="0px" y="0px"
	 width="566.929px" height="147.072px" viewBox="0 0 566.929 147.072" enable-background="new 0 0 566.929 147.072"
	 xml:space="preserve">
<g id="path5314">
	<path fill="#93C83E" d="M397.202,103.411l-0.226-0.286c-6.778-8.616-10.512-19.666-10.512-31.113
		c0-11.446,3.733-22.496,10.512-31.115l0.226-0.286h63.822l0.226,0.286c6.777,8.616,10.51,19.666,10.51,31.115
		c0,11.446-3.732,22.496-10.51,31.113l-0.226,0.286H397.202z M454.685,91.224c3.451-5.692,5.273-12.325,5.273-19.212
		c0-6.888-1.822-13.522-5.272-19.212h-51.147c-3.45,5.692-5.271,12.325-5.271,19.212c0,6.886,1.821,13.519,5.271,19.212H454.685z"/>
	<path fill="#888888" d="M460.66,41.36c6.441,8.188,10.35,18.917,10.35,30.651c0,11.731-3.908,22.46-10.35,30.649h-63.094
		c-6.441-8.188-10.352-18.918-10.352-30.649c0-11.734,3.91-22.461,10.352-30.651H460.66 M403.119,91.974h51.986
		c3.529-5.67,5.604-12.545,5.604-19.962c0-7.417-2.074-14.294-5.604-19.962h-51.986c-3.527,5.668-5.602,12.545-5.602,19.962
		C397.517,79.428,399.591,86.304,403.119,91.974 M461.388,39.86h-0.729h-63.094h-0.729l-0.45,0.573
		c-6.883,8.75-10.673,19.965-10.673,31.579c0,11.614,3.79,22.829,10.673,31.577l0.45,0.572h0.729h63.094h0.729l0.45-0.572
		c6.882-8.749,10.671-19.963,10.671-31.577c0-11.617-3.789-22.832-10.671-31.579L461.388,39.86L461.388,39.86z M403.963,53.549
		h50.297c3.239,5.492,4.948,11.857,4.948,18.462c0,6.604-1.709,12.969-4.948,18.462h-50.297c-3.238-5.494-4.946-11.859-4.946-18.462
		C399.017,65.407,400.725,59.042,403.963,53.549L403.963,53.549z"/>
</g>
<g id="path5318">
	<path fill="#93C83E" d="M318.123,103.411l-16.489-0.018l-0.226-0.286c-5.57-7.083-9.073-15.715-10.15-25.002h-9.994V65.914h9.994
		c1.077-9.286,4.58-17.917,10.15-25l0.226-0.286l16.488-0.018h30.847l16.489,0.02l0.226,0.286
		c5.833,7.418,9.39,16.504,10.286,26.276l0.046,0.506l-4.498,2.292v4.042l4.498,2.292l-0.046,0.506
		c-0.896,9.771-4.453,18.857-10.286,26.275l-0.226,0.286l-16.488,0.02H318.123z M359.117,91.224
		c2.422-3.991,4.03-8.397,4.786-13.117h-60.719c0.76,4.72,2.368,9.127,4.788,13.117H359.117z M363.905,65.916
		c-0.754-4.665-2.399-9.174-4.787-13.116l-51.165,0.035c-2.376,3.93-4.014,8.428-4.766,13.081H363.905z"/>
	<path fill="#888888" d="M348.968,41.36l16.125,0.019c5.559,7.069,9.225,16.019,10.129,25.881l-4.455,2.27v4.961l4.455,2.271
		c-0.904,9.86-4.57,18.812-10.129,25.88l-16.125,0.02h-30.846l-16.125-0.018c-5.449-6.928-9.076-15.662-10.068-25.288h-9.916V66.664
		h9.916c0.992-9.624,4.62-18.36,10.068-25.286l16.125-0.018H348.968 M302.316,66.666h62.459c-0.739-5.368-2.572-10.335-5.238-14.616
		l-52.004,0.036C304.878,56.357,303.054,61.313,302.316,66.666 M307.553,91.974h51.982c2.667-4.281,4.499-9.248,5.237-14.617
		h-62.459C303.056,82.726,304.888,87.692,307.553,91.974 M348.97,39.86L348.97,39.86h-0.002h-30.846l-16.127,0.018l-0.728,0.001
		l-0.449,0.572c-5.524,7.022-9.045,15.542-10.226,24.713h-8.58h-1.5v1.5v10.691v1.5h1.5h8.58
		c1.181,9.172,4.701,17.692,10.226,24.716l0.449,0.571l0.728,0.001l16.125,0.018h30.848l16.127-0.02l0.728-0.001l0.449-0.571
		c5.923-7.532,9.534-16.754,10.444-26.671l0.093-1.012l-0.906-0.462l-3.636-1.853V70.45l3.636-1.853l0.906-0.461l-0.093-1.012
		c-0.909-9.917-4.521-19.14-10.444-26.672l-0.449-0.572l-0.728-0.001L348.97,39.86L348.97,39.86z M308.379,53.584l50.313-0.035
		c2.076,3.525,3.553,7.497,4.32,11.616h-58.934C304.845,61.059,306.315,57.099,308.379,53.584L308.379,53.584z M304.076,78.856
		h58.938c-0.767,4.155-2.217,8.053-4.322,11.617h-50.293C306.294,86.91,304.844,83.013,304.076,78.856L304.076,78.856z"/>
</g>
<g id="path5322">
	<polygon fill="#93C83E" points="550.629,103.411 521.308,79.514 491.989,103.411 473.58,103.411 512.103,72.012 473.58,40.612 
		491.989,40.612 521.308,64.51 550.629,40.612 569.037,40.612 530.511,72.012 569.037,103.411 	"/>
	<path fill="#888888" d="M566.929,41.362l-37.605,30.65l37.605,30.649h-16.033l-29.588-24.115l-29.586,24.115h-16.035l37.604-30.649
		l-37.604-30.65h16.035l29.586,24.116l29.588-24.116H566.929 M571.144,39.862h-4.215h-16.033h-0.534l-0.413,0.337l-28.641,23.344
		l-28.639-23.344l-0.413-0.337h-0.534h-16.035h-4.215l3.268,2.663l36.177,29.487l-36.177,29.486l-3.268,2.663h4.215h16.035h0.534
		l0.413-0.337l28.639-23.343l28.641,23.343l0.413,0.337h0.534h16.033h4.215l-3.268-2.663l-36.179-29.486l36.179-29.487
		L571.144,39.862L571.144,39.862z"/>
</g>
<g id="path5326">
	<polygon fill="#93C83E" points="269.906,103.411 240.587,79.514 211.267,103.411 192.858,103.411 231.381,72.012 192.858,40.612 
		211.267,40.612 240.587,64.51 269.906,40.612 288.314,40.612 249.791,72.012 288.314,103.411 	"/>
	<path fill="#888888" d="M286.207,41.362l-37.603,30.65l37.603,30.649h-16.033l-29.586-24.115L211,102.661h-16.034l37.603-30.649
		l-37.603-30.65H211l29.587,24.116l29.586-24.116H286.207 M290.421,39.862h-4.215h-16.033h-0.534l-0.414,0.337l-28.639,23.344
		l-28.64-23.344l-0.414-0.337H211h-16.034h-4.214l3.267,2.663l36.176,29.487l-36.176,29.486l-3.267,2.663h4.214H211h0.534
		l0.414-0.337l28.64-23.343l28.639,23.343l0.414,0.337h0.534h16.033h4.215l-3.268-2.663l-36.176-29.486l36.176-29.487
		L290.421,39.862L290.421,39.862z"/>
</g>
<linearGradient id="path5420_1_" gradientUnits="userSpaceOnUse" x1="-72.1655" y1="11.666" x2="-71.9121" y2="11.666" gradientTransform="matrix(176.4904 -217.9475 -217.9475 -176.4904 15317.1836 -13598.9795)">
	<stop  offset="0" style="stop-color:#D3DC19"/>
	<stop  offset="0.5" style="stop-color:#8DB635"/>
	<stop  offset="1" style="stop-color:#66BB46"/>
</linearGradient>
<path id="path5420" fill="url(#path5420_1_)" d="M70.465,56.721v39.61c7.81-6.43,15.635-13.219,23.103-20.229l0,0V41.9
	c0,0-41.962-13.809-68.457-30.276l0,0C36.024,23.887,54.068,43.262,70.465,56.721"/>
<linearGradient id="path5440_1_" gradientUnits="userSpaceOnUse" x1="-70.2363" y1="11.6709" x2="-69.9819" y2="11.6709" gradientTransform="matrix(216.1625 320.474 320.474 -216.1625 11475.5039 25019.4883)">
	<stop  offset="0" style="stop-color:#A0A2A4"/>
	<stop  offset="1" style="stop-color:#FAFAFA"/>
</linearGradient>
<path id="path5440" fill="url(#path5440_1_)" d="M25.111,11.624C51.605,28.092,93.568,41.9,93.568,41.9l0,0v-4.56
	c0,0-54.576-17.961-78.542-37.34l0,0C15.025,0,18.92,4.668,25.111,11.624"/>
<linearGradient id="path5464_1_" gradientUnits="userSpaceOnUse" x1="-71.2783" y1="11.9321" x2="-71.2783" y2="12.021" gradientTransform="matrix(345.5038 -233.0453 -233.0453 -345.5038 27459.5742 -12375.5811)">
	<stop  offset="0" style="stop-color:#AED037"/>
	<stop  offset="0.4213" style="stop-color:#8DB635"/>
	<stop  offset="1" style="stop-color:#3E7223"/>
</linearGradient>
<path id="path5464" fill="url(#path5464_1_)" d="M16.797,136.14c13.526-9.11,33.549-23.244,53.67-39.809l0,0V64.129
	C70.467,64.129,43.065,105.183,16.797,136.14"/>
<linearGradient id="path5484_1_" gradientUnits="userSpaceOnUse" x1="-71.3936" y1="12.1602" x2="-71.1397" y2="12.1602" gradientTransform="matrix(279.743 -484.5291 -484.5291 -279.743 25872.293 -31038.457)">
	<stop  offset="0" style="stop-color:#9B9DA0"/>
	<stop  offset="1" style="stop-color:#CFD1D3"/>
</linearGradient>
<path id="path5484" fill="url(#path5484_1_)" d="M0.012,147.073c0,0,6.526-4.021,16.786-10.934l0,0
	c26.268-30.957,53.67-72.009,53.67-72.009l0,0v-7.409C70.467,56.721,29.753,117.717,0.012,147.073"/>
<linearGradient id="path5506_1_" gradientUnits="userSpaceOnUse" x1="-71.3979" y1="13.9648" x2="-71.1452" y2="13.9648" gradientTransform="matrix(-193.057 -186.4329 -186.4329 193.057 -11032.1406 -15943.292)">
	<stop  offset="0.3034" style="stop-color:#C9DA2C"/>
	<stop  offset="0.608" style="stop-color:#8DB635"/>
	<stop  offset="1" style="stop-color:#347428"/>
</linearGradient>
<path id="path5506" fill="url(#path5506_1_)" d="M93.52,41.9v34.201c7.465,7.011,15.289,13.8,23.1,20.229l0,0v-39.61
	c16.397-13.459,34.44-32.834,45.354-45.097l0,0C135.481,28.092,93.52,41.9,93.52,41.9"/>
<linearGradient id="path5528_1_" gradientUnits="userSpaceOnUse" x1="-72.9404" y1="13.1611" x2="-72.687" y2="13.1611" gradientTransform="matrix(30.7887 -250.7544 -250.7544 -30.7887 5675.1831 -17838.5156)">
	<stop  offset="0" style="stop-color:#CED0D1"/>
	<stop  offset="1" style="stop-color:#A0A2A5"/>
</linearGradient>
<path id="path5528" fill="url(#path5528_1_)" d="M93.52,37.34v4.56c0,0,41.961-13.809,68.454-30.276l0,0
	C168.165,4.668,172.061,0,172.061,0l0,0C148.095,19.379,93.52,37.34,93.52,37.34"/>
<linearGradient id="path5574_1_" gradientUnits="userSpaceOnUse" x1="-71.3911" y1="13.042" x2="-71.1375" y2="13.042" gradientTransform="matrix(-86.8691 -492.6593 -492.6593 86.8691 383.1831 -36152.1836)">
	<stop  offset="0" style="stop-color:#9B9D9F"/>
	<stop  offset="1" style="stop-color:#FAFAFA"/>
</linearGradient>
<path id="path5574" fill="url(#path5574_1_)" d="M116.622,64.129c0,0,27.404,41.054,53.671,72.009l0,0
	c10.256,6.912,16.787,10.934,16.787,10.934l0,0c-29.743-29.354-70.457-90.352-70.457-90.352l0,0L116.622,64.129L116.622,64.129z"/>
<linearGradient id="path5550_1_" gradientUnits="userSpaceOnUse" x1="-72.5332" y1="13.1992" x2="-72.2828" y2="13.1992" gradientTransform="matrix(89.6957 -192.3532 -192.3532 -89.6957 9179.418 -12648.8506)">
	<stop  offset="0" style="stop-color:#C7D926"/>
	<stop  offset="0.4157" style="stop-color:#8DB635"/>
	<stop  offset="1" style="stop-color:#3A7D2C"/>
</linearGradient>
<path id="path5550" fill="url(#path5550_1_)" d="M116.622,96.331c20.124,16.564,40.142,30.698,53.671,39.809l0,0
	c-26.267-30.957-53.671-72.009-53.671-72.009l0,0V96.331L116.622,96.331z"/>
</svg>
