<?xml version="1.0" encoding="utf-8"?>
<!-- Generator: Adobe Illustrator 16.0.3, SVG Export Plug-In . SVG Version: 6.00 Build 0)  -->
<!DOCTYPE svg PUBLIC "-//W3C//DTD SVG 1.1//EN" "http://www.w3.org/Graphics/SVG/1.1/DTD/svg11.dtd">
<svg version="1.1" id="Ebene_2" xmlns="http://www.w3.org/2000/svg" xmlns:xlink="http://www.w3.org/1999/xlink" x="0px" y="0px"
	 width="566.929px" height="147.072px" viewBox="0 0 566.929 147.072" enable-background="new 0 0 566.929 147.072"
	 xml:space="preserve">
<path id="path5314" fill="#93C83E" d="M403.119,91.974c-3.527-5.67-5.602-12.546-5.602-19.962c0-7.417,2.074-14.294,5.602-19.962
	h51.986c3.529,5.668,5.604,12.545,5.604,19.962c0,7.417-2.074,14.292-5.604,19.962H403.119z M460.66,41.379V41.36h-0.014h-16.109
	h-30.848h-16.108h-0.015v0.018c-6.441,8.19-10.352,18.9-10.352,30.634c0,11.731,3.91,22.444,10.352,30.632v0.018h0.015h16.108
	h30.848h16.109h0.014v-0.018c6.441-8.189,10.35-18.9,10.35-30.632C471.009,60.278,467.101,49.568,460.66,41.379"/>
<path id="path5318" fill="#93C83E" d="M307.553,91.974c-2.665-4.281-4.497-9.248-5.239-14.617h62.459
	c-0.738,5.369-2.57,10.336-5.237,14.617H307.553z M307.553,52.049h51.983c2.666,4.281,4.499,9.249,5.238,14.616h-62.459
	C303.056,61.298,304.888,56.331,307.553,52.049 M370.767,69.53l4.455-2.27c-0.904-9.863-4.57-18.813-10.129-25.881V41.36h-0.016
	h-16.109h-30.846h-16.111h-0.014v0.018c-5.448,6.926-9.076,15.663-10.068,25.286h-9.916v10.691h9.916
	c0.992,9.626,4.619,18.36,10.068,25.288v0.018h0.014h16.111h30.846h16.109h0.016v-0.02c5.559-7.068,9.225-16.02,10.129-25.88
	l-4.455-2.271V69.53z"/>
<path id="path5322" fill="#93C83E" d="M566.929,41.362h-16.033l-29.588,24.116l-29.586-24.116h-16.035l37.604,30.65l-37.604,30.649
	h16.035l29.586-24.115l29.588,24.115h16.033l-37.605-30.649L566.929,41.362z"/>
<path id="path5326" fill="#93C83E" d="M286.207,41.362h-16.033l-29.586,24.116L211,41.362h-16.034l37.603,30.65l-37.603,30.649H211
	l29.587-24.115l29.586,24.115h16.033l-37.603-30.649L286.207,41.362z"/>
<linearGradient id="path5420_1_" gradientUnits="userSpaceOnUse" x1="-72.1655" y1="11.666" x2="-71.9121" y2="11.666" gradientTransform="matrix(176.4904 -217.9475 -217.9475 -176.4904 15317.1836 -13598.9795)">
	<stop  offset="0" style="stop-color:#D3DC19"/>
	<stop  offset="0.5" style="stop-color:#8DB635"/>
	<stop  offset="1" style="stop-color:#66BB46"/>
</linearGradient>
<path id="path5420" fill="url(#path5420_1_)" d="M70.465,56.721v39.61c7.81-6.43,15.635-13.219,23.103-20.229l0,0V41.9
	c0,0-41.962-13.809-68.457-30.276l0,0C36.024,23.887,54.068,43.262,70.465,56.721"/>
<linearGradient id="path5440_1_" gradientUnits="userSpaceOnUse" x1="-70.2363" y1="11.6709" x2="-69.9819" y2="11.6709" gradientTransform="matrix(216.1625 320.474 320.474 -216.1625 11475.5039 25019.4883)">
	<stop  offset="0" style="stop-color:#A0A2A4"/>
	<stop  offset="1" style="stop-color:#FAFAFA"/>
</linearGradient>
<path id="path5440" fill="url(#path5440_1_)" d="M25.111,11.624C51.605,28.092,93.568,41.9,93.568,41.9l0,0v-4.56
	c0,0-54.576-17.961-78.542-37.34l0,0C15.025,0,18.92,4.668,25.111,11.624"/>
<linearGradient id="path5464_1_" gradientUnits="userSpaceOnUse" x1="-71.2783" y1="11.9321" x2="-71.2783" y2="12.021" gradientTransform="matrix(345.5038 -233.0453 -233.0453 -345.5038 27459.5742 -12375.5811)">
	<stop  offset="0" style="stop-color:#AED037"/>
	<stop  offset="0.4213" style="stop-color:#8DB635"/>
	<stop  offset="1" style="stop-color:#3E7223"/>
</linearGradient>
<path id="path5464" fill="url(#path5464_1_)" d="M16.797,136.14c13.526-9.11,33.549-23.244,53.67-39.809l0,0V64.129
	C70.467,64.129,43.065,105.183,16.797,136.14"/>
<linearGradient id="path5484_1_" gradientUnits="userSpaceOnUse" x1="-71.3936" y1="12.1602" x2="-71.1397" y2="12.1602" gradientTransform="matrix(279.743 -484.5291 -484.5291 -279.743 25872.293 -31038.457)">
	<stop  offset="0" style="stop-color:#9B9DA0"/>
	<stop  offset="1" style="stop-color:#CFD1D3"/>
</linearGradient>
<path id="path5484" fill="url(#path5484_1_)" d="M0.012,147.073c0,0,6.526-4.021,16.786-10.934l0,0
	c26.268-30.957,53.67-72.009,53.67-72.009l0,0v-7.409C70.467,56.721,29.753,117.717,0.012,147.073"/>
<linearGradient id="path5506_1_" gradientUnits="userSpaceOnUse" x1="-71.3979" y1="13.9648" x2="-71.1452" y2="13.9648" gradientTransform="matrix(-193.057 -186.4329 -186.4329 193.057 -11032.1406 -15943.292)">
	<stop  offset="0.3034" style="stop-color:#C9DA2C"/>
	<stop  offset="0.608" style="stop-color:#8DB635"/>
	<stop  offset="1" style="stop-color:#347428"/>
</linearGradient>
<path id="path5506" fill="url(#path5506_1_)" d="M93.52,41.9v34.201c7.465,7.011,15.289,13.8,23.1,20.229l0,0v-39.61
	c16.397-13.459,34.44-32.834,45.354-45.097l0,0C135.481,28.092,93.52,41.9,93.52,41.9"/>
<linearGradient id="path5528_1_" gradientUnits="userSpaceOnUse" x1="-72.9404" y1="13.1611" x2="-72.687" y2="13.1611" gradientTransform="matrix(30.7887 -250.7544 -250.7544 -30.7887 5675.1831 -17838.5156)">
	<stop  offset="0" style="stop-color:#CED0D1"/>
	<stop  offset="1" style="stop-color:#A0A2A5"/>
</linearGradient>
<path id="path5528" fill="url(#path5528_1_)" d="M93.52,37.34v4.56c0,0,41.961-13.809,68.454-30.276l0,0
	C168.165,4.668,172.061,0,172.061,0l0,0C148.095,19.379,93.52,37.34,93.52,37.34"/>
<linearGradient id="path5574_1_" gradientUnits="userSpaceOnUse" x1="-71.3911" y1="13.042" x2="-71.1375" y2="13.042" gradientTransform="matrix(-86.8691 -492.6593 -492.6593 86.8691 383.1831 -36152.1836)">
	<stop  offset="0" style="stop-color:#9B9D9F"/>
	<stop  offset="1" style="stop-color:#FAFAFA"/>
</linearGradient>
<path id="path5574" fill="url(#path5574_1_)" d="M116.622,64.129c0,0,27.404,41.054,53.671,72.009l0,0
	c10.256,6.912,16.787,10.934,16.787,10.934l0,0c-29.743-29.354-70.457-90.352-70.457-90.352l0,0L116.622,64.129L116.622,64.129z"/>
<linearGradient id="path5550_1_" gradientUnits="userSpaceOnUse" x1="-72.5332" y1="13.1992" x2="-72.2828" y2="13.1992" gradientTransform="matrix(89.6957 -192.3532 -192.3532 -89.6957 9179.418 -12648.8506)">
	<stop  offset="0" style="stop-color:#C7D926"/>
	<stop  offset="0.4157" style="stop-color:#8DB635"/>
	<stop  offset="1" style="stop-color:#3A7D2C"/>
</linearGradient>
<path id="path5550" fill="url(#path5550_1_)" d="M116.622,96.331c20.124,16.564,40.142,30.698,53.671,39.809l0,0
	c-26.267-30.957-53.671-72.009-53.671-72.009l0,0V96.331L116.622,96.331z"/>
</svg>
