<?xml version="1.0" encoding="UTF-8" standalone="no"?>
<!-- Created with Inkscape (http://www.inkscape.org/) -->

<svg
   xmlns:dc="http://purl.org/dc/elements/1.1/"
   xmlns:cc="http://creativecommons.org/ns#"
   xmlns:rdf="http://www.w3.org/1999/02/22-rdf-syntax-ns#"
   xmlns:svg="http://www.w3.org/2000/svg"
   xmlns="http://www.w3.org/2000/svg"
   xmlns:sodipodi="http://sodipodi.sourceforge.net/DTD/sodipodi-0.dtd"
   xmlns:inkscape="http://www.inkscape.org/namespaces/inkscape"
   width="703.45819"
   height="174.21292"
   id="svg2"
   version="1.1"
   inkscape:version="0.48.4 r9939"
   sodipodi:docname="Nouveau document 1">
  <defs
     id="defs4" />
  <sodipodi:namedview
     id="base"
     pagecolor="#ffffff"
     bordercolor="#666666"
     borderopacity="1.0"
     inkscape:pageopacity="0.0"
     inkscape:pageshadow="2"
     inkscape:zoom="0.98994949"
     inkscape:cx="492.67192"
     inkscape:cy="357.48042"
     inkscape:document-units="px"
     inkscape:current-layer="layer1"
     showgrid="false"
     fit-margin-top="0"
     fit-margin-left="0"
     fit-margin-right="0"
     fit-margin-bottom="0"
     inkscape:window-width="1629"
     inkscape:window-height="998"
     inkscape:window-x="51"
     inkscape:window-y="24"
     inkscape:window-maximized="0" />
  <metadata
     id="metadata7">
    <rdf:RDF>
      <cc:Work
         rdf:about="">
        <dc:format>image/svg+xml</dc:format>
        <dc:type
           rdf:resource="http://purl.org/dc/dcmitype/StillImage" />
        <dc:title></dc:title>
      </cc:Work>
    </rdf:RDF>
  </metadata>
  <g
     inkscape:label="Calque 1"
     inkscape:groupmode="layer"
     id="layer1"
     transform="translate(-26.499059,-665.28654)">
    <g
       id="g3118"
       transform="translate(25.253814,203.04066)">
      <path
         style="fill:#f573a9"
         d="m 258.98064,634.30382 c -19.71867,-7.0912 -26.03698,-23.33441 -16.57211,-42.60385 6.55982,-13.35509 24.15907,-26.36821 35.66098,-26.36821 4.73444,0 7.84964,1.76807 7.84964,4.45516 0,0.72177 -2.0564,4.31559 -4.56977,7.98627 -13.68192,19.9819 -15.91178,33.24584 -7.24798,43.11336 5.6346,6.41745 14.62688,5.63055 21.55568,-1.8863 5.52324,-5.99202 7.55383,-12.60304 7.11224,-23.15552 -0.41493,-9.91545 -2.26585,-13.21276 -8.69076,-15.48214 -2.28768,-0.80804 -4.15941,-1.75876 -4.15941,-2.11272 0,-0.35396 3.0375,-2.16783 6.75,-4.03083 6.34774,-3.18542 7.35629,-3.38728 16.92356,-3.38728 8.75931,0 10.56648,0.29109 13,2.09402 8.52575,6.31645 10.36185,20.8428 4.27206,33.79829 -5.9555,12.66976 -21.83905,23.7765 -40.18989,28.10318 -9.18695,2.16606 -24.9389,1.90592 -31.69424,-0.52343 z m 155.43851,1.35184 c -4.55477,-1.01138 -10.29134,-3.71155 -14.876,-7.00203 l -4.87599,-3.49958 -6.81515,3.50574 c -17.3014,8.8999 -36.48388,7.07819 -44.42371,-4.21881 -2.81741,-4.00868 -3.00859,-4.86543 -3.00038,-13.44536 0.008,-8.53506 0.58941,-11.15148 8.47098,-38.13075 7.04188,-24.10493 8.96919,-29.5443 11.48266,-32.40698 3.07313,-3.50011 9.5385,-7.0644 12.88646,-7.10417 3.51833,-0.0418 8.4542,3.0884 9.73115,6.17123 1.4836,3.58172 1.86372,1.67151 -7.97061,40.05469 -3.9506,15.41913 -7.10941,29.87153 -7.10941,32.5275 0,10.33816 5.83691,12.12735 15.75182,4.8284 l 5.97185,-4.39622 0.47544,-7.40851 c 0.37652,-5.86697 1.15447,-8.68249 3.73876,-13.53111 3.33633,-6.2596 11.79912,-15.43216 18.06213,-19.577 9.52116,-6.30109 19.71037,-8.36556 24.02893,-4.8686 2.62375,2.12459 2.61533,2.14658 -5.46656,14.27053 -8.58404,12.87724 -11.36251,24.16676 -8.3897,34.08913 3.33251,11.1229 16.35957,13.28738 25.02079,4.15728 8.06207,-8.49852 10.68841,-24.74602 5.44608,-33.69139 -2.09804,-3.58003 -3.55391,-4.84156 -6.66214,-5.77281 -2.18757,-0.65541 -3.9774,-1.53775 -3.9774,-1.96075 0,-1.0005 9.3663,-5.39645 14.5,-6.80538 6.12296,-1.68044 14.77663,-1.34867 19.66709,0.754 12.64348,5.4361 13.09538,28.635 0.83291,42.75844 -11.78341,13.57167 -30.67217,21.49848 -50.66661,21.26261 -5.40837,-0.0638 -10.73339,-0.31585 -11.83339,-0.5601 z m -248.29137,-2.78517 c -23.94246,-5.44199 -35.16082,-19.47365 -33.95798,-42.47387 0.84488,-16.15558 6.54749,-26.8393 20.08145,-37.62214 15.0215,-11.968 30.50926,-17.35168 52.28729,-18.1755 13.65815,-0.51667 36.89307,1.13491 37.85465,2.69078 0.66934,1.083 -6.01015,26.09288 -8.53824,31.96961 -2.33903,5.43722 -4.24592,7.07239 -8.24761,7.07239 -3.78412,0 -5.12807,-2.60827 -5.75746,-11.17379 -0.81377,-11.07484 -5.25435,-16.54479 -14.25485,-17.55927 -12.53334,-1.41269 -32.37463,16.098 -38.78933,34.23306 -2.53244,7.15949 -2.9279,17.03209 -0.95669,23.88393 3.05003,10.60178 14.25926,17.05917 25.64381,14.77282 6.21387,-1.24792 15.71849,-5.84558 23.33912,-11.28981 3.68902,-2.63546 6.47557,-3.86694 8.75,-3.86694 3.99941,0 7.33721,2.95564 7.33721,6.49712 0,5.92082 -12.48977,14.78209 -27.5,19.51076 -9.05608,2.85294 -28.04517,3.63246 -37.29137,1.53085 z m 327.29098,0.0754 c -7.02395,-3.06119 -7.26061,-5.92193 -2.07663,-25.10238 2.38933,-8.84038 4.88414,-18.67412 5.54402,-21.85275 2.03421,-9.79879 8.90752,-15.659 18.36602,-15.659 5.49219,0 9.67039,2.95114 9.65934,6.82258 -0.004,1.47258 -0.86295,5.48992 -1.90833,8.92742 -1.04537,3.4375 -1.56725,6.25 -1.15972,6.25 0.40753,0 2.19041,-1.80364 3.96195,-4.00809 6.16144,-7.66709 18.31802,-15.4303 29.63741,-18.9265 6.26574,-1.9353 15.44557,-2.76284 16.70268,-1.50572 0.30783,0.30782 -1.40897,8.29532 -3.81511,17.75 -3.596,14.13012 -4.83301,17.59085 -6.94878,19.44031 -1.41569,1.2375 -3.15415,2.25 -3.86324,2.25 -1.79261,0 -4.12279,-2.82846 -5.92372,-7.19045 -1.23248,-2.98514 -2.19216,-3.81585 -5.02142,-4.34662 -6.54063,-1.22703 -9.64394,0.28697 -18.27751,8.91699 -6.98027,6.97738 -8.85268,9.63287 -13.30547,18.87008 l -5.18204,10.75 -6.69453,-0.0391 c -3.68199,-0.0215 -8.0447,-0.62758 -9.69492,-1.34677 z M 1.2662333,518.08201 c -0.2556414,-0.41236 1.8540363,-11.43736 4.6881725,-24.5 5.5891252,-25.76048 5.6094292,-25.80479 13.6158762,-29.71234 2.948227,-1.43888 13.348871,-2.20513 13.348871,-0.98345 0,1.31838 -10.150409,46.87989 -10.609675,47.623 -0.279596,0.4524 0.44962,0.82254 1.620483,0.82254 3.008275,0 10.864849,-5.65377 11.523018,-8.29222 0.302905,-1.21428 2.054346,-9.08949 3.892093,-17.50046 2.004531,-9.17431 4.04091,-16.06568 5.089872,-17.22477 2.878014,-3.18017 9.78304,-5.98255 14.740916,-5.98255 2.543893,0 4.806197,0.3375 5.02734,0.75 0.35998,0.67147 -2.167757,12.77239 -6.841076,32.75 -0.900624,3.85 -2.468424,8.9125 -3.484003,11.25 l -1.846506,4.25 3.193768,-0.0149 c 2.142358,-0.01 4.474812,-1.09872 7.085061,-3.30717 3.807708,-3.22158 3.98425,-3.67525 8.219144,-21.12094 2.380319,-9.80575 4.454238,-17.91525 4.608709,-18.02113 0.154471,-0.10587 1.913858,-1.4066 3.909749,-2.8905 4.486336,-3.3355 16.871107,-5.09298 16.871107,-2.39412 0,0.84726 -2.020963,9.79984 -4.491029,19.89461 -2.470065,10.09477 -4.495065,19.11638 -4.5,20.04803 -0.0049,0.93248 -3.267878,4.12611 -7.258971,7.10477 -12.730734,9.50131 -8.278153,8.67025 -45.124105,8.42222 -18.047707,-0.12149 -33.0231734,-0.55828 -33.2788147,-0.97064 z m 96.1529197,0.53051 c -3.135497,-0.76386 -5.5,-3.36259 -5.5,-6.04483 0,-1.34975 1.002255,-6.27546 2.227232,-10.94603 l 2.227233,-8.49194 9.173642,-5.39898 9.17365,-5.39898 16.9499,0 c 17.55205,0 22.5515,0.82943 24.2618,4.02515 1.13622,2.12304 -3.35492,20.90144 -5.3187,22.23866 -0.65712,0.44745 -2.76976,1.67262 -4.69476,2.7226 -1.925,1.04998 -5.525,3.28065 -8,4.95704 l -4.5,3.04799 -17,-0.11172 c -9.35,-0.0615 -17.899997,-0.33098 -18.999997,-0.59896 z m 29.670247,-8.53465 c 4.45252,-2.60935 4.62051,-2.89097 6.72169,-11.26865 1.18528,-4.72583 1.89292,-9.01655 1.57254,-9.53494 -0.32038,-0.51839 -2.71786,-0.94252 -5.32772,-0.94252 -3.48744,0 -5.92404,0.7476 -9.19266,2.8205 -4.30692,2.73137 -4.51609,3.10229 -6.61927,11.73827 -1.19449,4.90477 -1.79789,9.14805 -1.34088,9.4295 2.35351,1.44944 9.93055,0.25188 14.1863,-2.24216 z m 28.265,7.94574 c -0.2761,-0.71948 1.69304,-8.93198 4.37585,-18.25 l 4.87784,-16.94185 19.90553,-0.30274 c 10.94804,-0.16651 22.27268,-0.0211 25.16585,0.32324 6.2499,0.74375 11.23968,4.34674 11.23968,8.11589 0,2.53554 -6.63143,26.32701 -7.61247,27.31116 -0.30289,0.30385 -4.789,0.70839 -9.96912,0.89898 -7.29261,0.26831 -9.41841,0.0497 -9.41841,-0.96864 0,-0.72334 1.62582,-6.88738 3.61294,-13.69788 4.37794,-15.00465 4.28073,-15.2305 -6.86318,-15.94568 l -7.38724,-0.47408 -2.17171,7.36987 c -1.19444,4.05344 -2.45428,8.81749 -2.79964,10.58678 -0.41141,2.10765 -2.46299,4.95243 -5.94969,8.25 -5.08532,4.80948 -5.57018,5.0331 -10.913,5.0331 -3.68307,0 -5.76257,-0.44645 -6.09323,-1.30815 z m 70.66291,0.0434 c -4.45137,-2.28932 -4.6657,-3.79656 -2.03694,-14.32381 l 2.43878,-9.76644 6.5,-4.18721 c 11.42137,-7.3575 12.08834,-7.57158 23.00369,-7.38352 9.44112,0.16267 10.07048,0.0411 13.13473,-2.5373 1.77015,-1.48948 4.47825,-4.69464 6.01799,-7.12256 l 2.79954,-4.41442 9.52203,0 c 6.17924,0 9.52202,0.38094 9.52202,1.08511 0,0.59681 -2.72928,4.15603 -6.06506,7.90939 -5.53109,6.22346 -5.94986,7.00874 -4.75657,8.91951 1.12215,1.79684 0.83025,3.97968 -2.04958,15.32707 -1.84695,7.2775 -3.74536,14.25042 -4.21869,15.49537 l -0.8606,2.26355 -25.27475,-0.0147 c -18.07031,-0.0105 -25.95938,-0.36685 -27.67659,-1.25 z m 37.56298,-16.69153 c 1.76106,-6.30095 3.02685,-11.73956 2.81286,-12.08579 -0.80766,-1.30683 -12.12445,0.35518 -15.64688,2.29793 -3.43466,1.89434 -3.81388,2.59636 -5.8468,10.82379 -1.19566,4.83893 -1.86793,9.29317 -1.49394,9.8983 0.42967,0.69522 3.67886,0.99381 8.82641,0.81114 l 8.14642,-0.2891 3.20193,-11.45627 z m 27.73852,16.52833 c -1.70519,-0.74231 -3.38335,-2.08716 -3.72925,-2.98856 -0.83639,-2.17961 4.12245,-19.61976 6.19715,-21.79524 0.89784,-0.94146 5.23244,-3.77611 9.63244,-6.29922 l 8,-4.58748 18.04749,0.29922 c 15.25969,0.253 18.46495,0.57311 20.75,2.07227 2.8639,1.87894 3.53313,5.3064 1.7036,8.72491 -0.5494,1.02657 -4.77439,4.14698 -9.38888,6.93426 l -8.38996,5.06778 -12.13588,0 -12.13587,0 -1.01606,2.67245 c -1.92908,5.07386 -1.22766,5.32755 14.72996,5.32755 l 14.72716,0 -4.73051,3 -4.73051,3 -17.21527,-0.0391 c -12.17645,-0.0277 -18.12272,-0.43418 -20.31561,-1.3888 z m 39.17227,-21.16708 c 3.29061,-1.92843 4.42807,-3.2128 4.42807,-5 0,-2.31222 -0.27152,-2.40498 -7.03984,-2.40498 -9.94731,0 -15.96016,3.23311 -15.96016,8.58179 0,1.09059 1.6337,1.41821 7.07193,1.41821 5.8082,0 7.86321,-0.46372 11.5,-2.59502 z m 20.01816,21.74079 c -0.88725,-1.4356 5.42605,-23.53555 7.22448,-25.28959 0.92699,-0.90411 5.38487,-3.76976 9.90642,-6.36811 l 8.22099,-4.72429 16.27901,0.41755 c 16.46038,0.4222 19.71361,1.10647 22.49721,4.73201 2.68659,3.49919 1.54261,6.71081 -3.55575,9.98241 -3.9387,2.52746 -5.8787,3.10425 -10.44098,3.10425 -3.08189,0 -5.8496,-0.39831 -6.15048,-0.88513 -0.30087,-0.48682 -0.0551,-2.29622 0.54609,-4.02089 1.52333,-4.36981 -0.13277,-6.09398 -5.85337,-6.09398 -6.73991,0 -12.02063,3.34189 -13.33884,8.44145 -4.28989,16.59558 -5.37121,20.14578 -6.33323,20.79324 -1.5307,1.03018 -18.35857,0.95144 -19.00155,-0.0889 z m 42.40991,-0.12252 c 0,-0.53721 2.24161,-2.74864 4.98136,-4.91428 l 4.98136,-3.93754 25.58553,0.27431 c 14.07204,0.15086 27.01793,-0.009 28.76864,-0.35622 2.38364,-0.47215 3.64107,-1.56249 5.00647,-4.34119 1.04435,-2.12532 1.54961,-4.5732 1.18262,-5.7295 -0.59955,-1.88901 -1.47851,-2.01883 -13.66908,-2.01883 -14.48716,0 -17.7766,-1.026 -19.92597,-6.21503 -1.65761,-4.00182 0.54213,-13.72987 4.26754,-18.87264 5.38062,-7.42774 5.74822,-7.51544 34.50857,-8.23328 14.12636,-0.35258 25.88224,-0.4431 26.12419,-0.20115 0.24195,0.24195 -1.03672,1.6959 -2.84147,3.231 -7.12413,6.05969 -7.22741,6.08838 -22.34561,6.2072 -13.89932,0.10925 -14.16083,0.15249 -16.42863,2.71656 -1.58849,1.79601 -2.20987,3.57828 -2,5.73644 l 0.30448,3.1309 14,0.52343 c 7.7,0.28788 14.72423,0.87425 15.60941,1.30304 1.55939,0.75538 3.08785,3.24354 4.29425,6.99056 1.03442,3.21287 -2.3993,14.22199 -5.67546,18.19654 -6.07728,7.3728 -6.5167,7.43976 -48.9782,7.46447 -23.91584,0.0139 -37.75,-0.33599 -37.75,-0.95479 z m 93,0.0997 c 0,-0.48235 1.28806,-5.09485 2.86235,-10.25 1.57429,-5.15514 3.43003,-11.78075 4.12387,-14.72357 1.11271,-4.71944 1.80081,-5.69258 5.83343,-8.25 3.6776,-2.33225 5.69574,-2.89941 10.31711,-2.89941 3.15986,0 5.93311,0.3375 6.16277,0.75 0.34103,0.61254 -4.70767,18.99736 -7.68915,28 -1.08893,3.28802 2.46178,2.98445 7.76435,-0.66381 3.99318,-2.74738 4.39249,-3.47743 6.99088,-12.78118 2.75295,-9.85716 2.76079,-9.87016 7.59247,-12.58618 3.66357,-2.0594 6.19556,-2.71883 10.4393,-2.71883 3.08144,0 5.60262,0.21545 5.60262,0.47878 0,2.25712 -7.17738,26.14299 -8.43012,28.05492 -1.58622,2.42086 -1.56399,2.4663 1.20614,2.4663 1.55217,0 4.80931,-1.25609 7.23809,-2.79131 4.30074,-2.71847 4.48414,-3.05118 7.02846,-12.75 l 2.61248,-9.95869 4.92247,-2.72664 c 3.76298,-2.08437 6.30211,-2.73214 10.77947,-2.75 4.26197,-0.017 5.73669,0.31705 5.41526,1.22664 -0.24295,0.6875 -1.73556,6.36275 -3.31692,12.61166 -2.05335,8.11409 -3.45831,11.77055 -4.91526,12.79214 -1.12204,0.78675 -5.19007,3.42687 -9.04007,5.86693 l -7,4.43647 -33.25,0.0214 c -18.4077,0.0119 -33.25,-0.37009 -33.25,-0.85561 z m 101.5,-0.0517 c -4.0903,-0.98711 -6.56386,-2.42134 -9.39331,-5.44646 -2.10257,-2.24797 -2.32554,-3.21547 -1.83542,-7.96422 1.00458,-9.73348 5.34005,-15.77417 14.24119,-19.84251 4.64634,-2.12365 6.58476,-2.3045 28.33502,-2.64367 22.30265,-0.34779 23.32488,-0.28152 22.8423,1.48075 -0.27785,1.01466 -2.09303,7.24483 -4.03373,13.84483 -1.9407,6.6 -4.00879,13.85387 -4.59576,16.11972 -0.96291,3.71708 -1.43338,4.18024 -4.81375,4.73899 -7.06788,1.16827 -15.2663,0.75337 -15.86346,-0.80281 -0.30479,-0.79425 1.05934,-6.94921 3.03138,-13.67767 4.31785,-14.73215 4.39976,-15.87823 1.13476,-15.87823 -5.67087,0 -12.65015,2.25478 -15.35658,4.9612 -3.84128,3.84129 -5.85514,12.37875 -3.69693,15.6726 1.61543,2.46545 4.8872,3.67654 10.25135,3.79468 1.78588,0.0393 3.24838,0.35561 3.25,0.70283 0.002,0.34722 -1.54204,1.80972 -3.43034,3.25 -2.9724,2.26716 -4.34834,2.60495 -10.25,2.51633 -3.7492,-0.0563 -8.16672,-0.42816 -9.81672,-0.82635 z m 51.51543,-0.82128 c 0.008,-0.9625 1.96482,-9.175 4.34739,-18.25 l 4.33196,-16.5 23.64148,-0.26807 c 25.92384,-0.29396 28.93631,0.20204 32.28708,5.31596 1.73533,2.64846 1.69627,3.04352 -1.59474,16.13114 -1.8555,7.3789 -3.79937,13.6793 -4.31971,14.00089 -0.52034,0.32158 -4.93309,0.81203 -9.80611,1.08988 -7.3923,0.42149 -8.95851,0.24854 -9.45452,-1.04404 -0.32697,-0.85207 0.81033,-6.61051 2.52733,-12.79654 1.71701,-6.18604 2.98741,-12.16166 2.82312,-13.27917 -0.37287,-2.53627 -5.01742,-3.8626 -12.07951,-3.44952 l -5.1197,0.29947 -2.57792,10.39508 c -2.53563,10.22457 -2.66767,10.47453 -8.04975,15.23896 -5.18559,4.59051 -5.77262,4.84447 -11.22183,4.85493 -4.81956,0.009 -5.7475,-0.27215 -5.73457,-1.73897 z"
         id="path3130"
         inkscape:connector-curvature="0" />
      <path
         style="fill:#fabf1f"
         d="m 258.98064,634.30382 c -19.71867,-7.0912 -26.03698,-23.33441 -16.57211,-42.60385 6.53455,-13.30365 24.16197,-26.36821 35.57742,-26.36821 4.50678,0 7.9332,2.03102 7.9332,4.70243 0,0.57472 -2.51725,4.74132 -5.59388,9.25911 -7.3404,10.77879 -10.5256,18.13034 -11.15846,25.75412 -0.44246,5.33011 -0.13738,6.98946 2.14137,11.64706 5.27257,10.77675 15.99586,11.61182 24.73539,1.92627 5.1601,-5.71866 7.15662,-12.47967 6.72575,-22.77602 -0.41493,-9.91545 -2.26585,-13.21276 -8.69076,-15.48214 -2.28768,-0.80804 -4.15941,-1.74898 -4.15941,-2.09098 0,-0.342 3.0375,-2.11131 6.75,-3.9318 11.1224,-5.45407 26.83198,-5.27527 32.13141,0.36572 3.66581,3.90208 5.46764,9.67217 5.40109,17.29618 -0.13228,15.15312 -10.09488,28.38811 -28.08693,37.31257 -14.11499,7.00136 -35.30284,9.24427 -47.13408,4.98954 z m 154.32119,1.07901 c -5.03443,-1.20187 -12.22769,-5.03732 -15.77933,-8.41353 l -3.30055,-3.13754 -3.24418,2.21286 c -6.13931,4.18765 -14.11144,6.56739 -23.61559,7.04944 -7.80145,0.39569 -9.77787,0.14925 -14.25728,-1.77774 -6.94185,-2.9863 -10.72901,-7.46748 -12.16767,-14.39746 -1.47634,-7.11148 -0.75833,-12.04629 4.15935,-28.5871 2.20749,-7.425 6.00708,-20.40551 8.44352,-28.84559 2.43643,-8.44007 5.20595,-16.38032 6.15447,-17.64499 4.41261,-5.8834 12.65056,-8.81826 18.24628,-6.50043 6.4873,2.68713 6.49344,6.94319 0.0431,29.91509 -8.61877,30.69465 -10.33834,38.24626 -10.45408,45.90974 -0.10049,6.65362 0.11764,7.51918 2.35187,9.33247 3.22409,2.61665 6.72806,1.90164 14.11263,-2.87977 l 5.69498,-3.68742 0.42271,-8.04955 c 0.352,-6.70305 0.97351,-9.08287 3.71547,-14.22687 3.36197,-6.30717 11.81051,-15.47495 18.09158,-19.63174 9.52116,-6.30109 19.71037,-8.36556 24.02893,-4.8686 2.62375,2.12459 2.61533,2.14658 -5.46656,14.27053 -8.58404,12.87724 -11.36251,24.16676 -8.3897,34.08913 3.33251,11.1229 16.35957,13.28738 25.02079,4.15728 8.06207,-8.49852 10.68841,-24.74602 5.44608,-33.69139 -2.09804,-3.58003 -3.55391,-4.84156 -6.66214,-5.77281 -2.18757,-0.65541 -3.9774,-1.53775 -3.9774,-1.96075 0,-1.0005 9.3663,-5.39645 14.5,-6.80538 6.12296,-1.68044 14.77663,-1.34867 19.66709,0.754 12.64348,5.4361 13.09538,28.635 0.83291,42.75844 -11.77337,13.56011 -30.64467,21.48467 -50.66661,21.27625 -5.40837,-0.0563 -11.23618,-0.43725 -12.95071,-0.84657 z m -247.17405,-2.51234 c -23.94246,-5.44199 -35.16082,-19.47365 -33.95798,-42.47387 0.84488,-16.15558 6.54749,-26.8393 20.08145,-37.62214 15.0215,-11.968 30.50926,-17.35168 52.28729,-18.1755 13.65815,-0.51667 36.89307,1.13491 37.85465,2.69078 0.66934,1.083 -6.01015,26.09288 -8.53824,31.96961 -2.33903,5.43722 -4.24592,7.07239 -8.24761,7.07239 -3.78412,0 -5.12807,-2.60827 -5.75746,-11.17379 -0.81377,-11.07484 -5.25435,-16.54479 -14.25485,-17.55927 -12.53334,-1.41269 -32.37463,16.098 -38.78933,34.23306 -2.53244,7.15949 -2.9279,17.03209 -0.95669,23.88393 3.05003,10.60178 14.25926,17.05917 25.64381,14.77282 6.21387,-1.24792 15.71849,-5.84558 23.33912,-11.28981 3.68902,-2.63546 6.47557,-3.86694 8.75,-3.86694 3.99941,0 7.33721,2.95564 7.33721,6.49712 0,5.92082 -12.48977,14.78209 -27.5,19.51076 -9.05608,2.85294 -28.04517,3.63246 -37.29137,1.53085 z M 1.2792853,518.10551 c -0.2468439,-0.39944 1.8638708,-11.42444 4.690477,-24.5 5.5751267,-25.78991 5.5922807,-25.82741 13.6005197,-29.73584 3.198008,-1.56079 13.364505,-2.16171 13.330075,-0.78791 -0.01034,0.4125 -2.391892,11.4375 -5.292342,24.5 -4.872253,21.94273 -5.131844,23.75 -3.411379,23.75 2.794331,0 10.627237,-5.77028 11.256343,-8.29222 0.302905,-1.21428 2.054346,-9.08949 3.892093,-17.50046 2.004531,-9.17431 4.04091,-16.06568 5.089872,-17.22477 2.846922,-3.14581 9.785559,-5.98255 14.633267,-5.98255 2.484686,0 4.753257,0.23565 5.04127,0.52366 0.804824,0.80483 -8.117705,39.41389 -10.220677,44.22634 l -1.85719,4.25 3.193769,-0.0149 c 2.142358,-0.01 4.474812,-1.09873 7.085061,-3.30718 3.807708,-3.22158 3.98425,-3.67524 8.219144,-21.12093 2.380319,-9.80575 4.454238,-17.91526 4.608709,-18.02113 0.154471,-0.10587 1.913858,-1.4066 3.909749,-2.89051 4.31502,-3.20813 16.862885,-5.09613 16.880979,-2.53998 0.0076,1.07336 -8.043331,36.18143 -9.505549,41.45131 -0.16126,0.58118 -4.14525,3.85539 -8.853312,7.27603 l -8.560111,6.21933 -33.64098,0.22397 c -18.50254,0.1232 -33.8429439,-0.10282 -34.0897877,-0.50226 z M 113.4715,518.56598 c -23.741764,-0.37301 -23.539807,-0.1996 -19.328459,-16.596 l 2.276112,-8.86178 9.150877,-5.38822 9.15088,-5.38822 16.9499,0 c 17.50771,0 22.55235,0.83102 24.24512,3.99398 1.11003,2.07411 -3.41367,20.98024 -5.33255,22.2866 -0.64033,0.43593 -2.51423,1.51442 -4.16423,2.39664 -1.65,0.88222 -4.8,2.8291 -7,4.32641 -2.2,1.49731 -4.9,2.90017 -6,3.11747 -1.1,0.2173 -10.07644,0.2682 -19.94765,0.11312 z m 13.6179,-8.48811 c 4.45252,-2.60935 4.62051,-2.89097 6.72169,-11.26865 1.18528,-4.72583 1.89292,-9.01655 1.57254,-9.53494 -0.32038,-0.51839 -2.71786,-0.94252 -5.32772,-0.94252 -3.48744,0 -5.92404,0.7476 -9.19266,2.8205 -4.30692,2.73137 -4.51609,3.10229 -6.61927,11.73827 -1.19449,4.90477 -1.79789,9.14805 -1.34088,9.4295 2.35351,1.44944 9.93055,0.25188 14.1863,-2.24216 z m 67.39603,8.36113 c -0.37994,-0.61476 0.96304,-6.78598 2.98439,-13.71384 4.47705,-15.34429 4.34384,-15.65787 -6.89233,-16.22527 l -7.30736,-0.36901 -2.13738,7.35044 c -1.17556,4.04274 -2.43489,8.70044 -2.79852,10.35044 -0.36363,1.65 -2.72636,5.1375 -5.25052,7.75 l -4.58938,4.75 -6.86704,0 -6.86705,0 0.69971,-3.25 c 0.55258,-2.56665 7.14521,-25.63905 9.0007,-31.5 0.47519,-1.50099 41.52543,-1.76689 47.80515,-0.30966 4.66991,1.08367 8.65335,4.60708 8.65335,7.654 0,2.12399 -6.64518,26.38417 -7.44644,27.18543 -0.207,0.207 -4.40839,0.61686 -9.33643,0.91079 -6.05964,0.36142 -9.18367,0.1726 -9.65085,-0.58332 z m 32.93372,0.17352 c -2.74219,-0.66805 -5.49719,-3.25927 -5.51351,-5.18575 -0.0238,-2.81409 4.2828,-18.55217 5.41766,-19.79822 0.60272,-0.66177 4.91346,-3.49427 9.57943,-6.29446 l 8.48358,-5.09124 10.23068,0.16342 c 9.7738,0.15613 10.37421,0.0426 13.44485,-2.54113 1.7678,-1.4875 4.47398,-4.69104 6.01372,-7.11896 l 2.79954,-4.41442 9.52203,0 c 10.25034,0 11.58573,0.82801 7.41069,4.59501 -1.16124,1.04775 -3.88132,4.01643 -6.04464,6.59708 -3.50325,4.17908 -3.79247,4.91761 -2.64523,6.75463 1.09535,1.75393 0.78563,4.04228 -2.07001,15.29436 -1.84695,7.2775 -3.74536,14.25042 -4.21869,15.49537 l -0.8606,2.26355 -24.77475,-0.116 c -13.62611,-0.0638 -25.67475,-0.33526 -26.77475,-0.60324 z m 32.90333,-6.12434 c 1.09502,-1.77178 6.41335,-22.64402 5.95766,-23.38134 -1.11851,-1.80979 -9.70398,-0.71323 -14.39174,1.83817 -4.79418,2.60932 -4.80468,2.62652 -6.98213,11.43886 -1.1994,4.85409 -1.88561,9.30312 -1.52491,9.88675 0.7776,1.25818 16.17576,1.45593 16.94112,0.21756 z m 32.09667,5.78473 c -5.3905,-1.57847 -5.82244,-3.70608 -2.87633,-14.1678 1.4363,-5.10034 3.34605,-10.04364 4.24389,-10.98509 0.89784,-0.94146 5.23244,-3.77611 9.63244,-6.29922 l 8,-4.58748 18.04749,0.29922 c 15.25969,0.253 18.46495,0.5731 20.75,2.07227 2.834,1.85932 3.53566,5.30169 1.75777,8.6237 -0.51961,0.97089 -4.73775,4.09131 -9.37364,6.93426 l -8.4289,5.16899 -12.50136,0 -12.50136,0 -0.62054,3.10271 c -0.3413,1.70648 -0.37099,3.50648 -0.066,4 0.305,0.49351 7.1655,0.90496 15.24554,0.91434 l 14.691,0.0171 -5,2.9659 -5,2.96589 -16.5,-0.0731 c -9.075,-0.0402 -17.85,-0.46844 -19.5,-0.9516 z m 38.12612,-21.56793 c 3.73276,-2.18754 4.43139,-3.06542 4.17807,-5.25 -0.30141,-2.59927 -0.3716,-2.62036 -7.68567,-2.31012 -9.27317,0.39333 -15.11852,3.63258 -15.11852,8.37803 0,1.57464 0.91575,1.80887 7.07193,1.80887 5.83016,0 7.85897,-0.46124 11.55419,-2.62678 z m 19.96397,21.77255 c -0.88725,-1.4356 5.42605,-23.53555 7.22448,-25.28959 0.92699,-0.90411 5.38487,-3.76976 9.90642,-6.36811 l 8.22099,-4.72429 16.27901,0.41755 c 16.46038,0.4222 19.71361,1.10647 22.49721,4.73201 0.67,0.87266 1.2325,2.7814 1.25,4.24164 0.0251,2.0978 -0.89747,3.19957 -4.39627,5.25 -3.57031,2.09234 -5.72184,2.59502 -11.10699,2.59502 -5.6991,0 -6.58924,-0.23368 -6.06766,-1.5929 2.45022,-6.38519 1.41609,-8.16008 -4.97412,-8.53713 -6.20035,-0.36585 -12.16932,3.42571 -13.49389,8.57148 -4.79309,18.62043 -5.36672,20.02293 -8.46068,20.68585 -4.528,0.9702 -16.28235,0.98306 -16.8785,0.0185 z m 42.40991,-0.12252 c 0,-0.53721 2.24161,-2.74864 4.98136,-4.91428 l 4.98136,-3.93754 25.58553,0.27431 c 14.07204,0.15086 27.01793,-0.009 28.76864,-0.35622 2.38364,-0.47215 3.64107,-1.56249 5.00647,-4.34119 1.00285,-2.04087 1.54571,-4.58548 1.20636,-5.65468 -0.5657,-1.78238 -1.7844,-1.97101 -14.65789,-2.26883 l -14.0409,-0.32482 -3.03144,-3.39557 c -2.65305,-2.97174 -2.95727,-3.90789 -2.43726,-7.5 1.42007,-9.80959 5.54886,-16.99911 11.47777,-19.98639 2.92533,-1.47394 54.19598,-3.23975 54.1174,-1.86387 -0.0234,0.41021 -2.23175,2.43333 -4.90738,4.49583 l -4.86479,3.75 -14.40405,0 c -13.08734,0 -14.60301,0.18535 -16.58051,2.02768 -2.34991,2.18926 -3.58694,5.72022 -3.02806,8.64322 0.31311,1.63762 1.81416,1.8839 14.33856,2.35253 7.69385,0.28788 14.71306,0.87425 15.59824,1.30304 2.98718,1.44701 4.20482,5.2715 3.64477,11.44784 -0.92561,10.20779 -6.5022,17.95069 -14.53523,20.18168 -4.90157,1.3613 -77.21895,1.42429 -77.21895,0.0673 z m 93.56467,0.0814 c -0.30435,-0.49245 0.73214,-5.10495 2.30333,-10.25 1.57118,-5.14504 3.42438,-11.76239 4.11822,-14.70521 1.11271,-4.71944 1.80081,-5.69259 5.83343,-8.25 3.65149,-2.31571 5.70687,-2.89942 10.20946,-2.89942 3.10066,0 5.87949,0.24193 6.17519,0.53763 0.43586,0.43586 -4.46556,18.62376 -7.60289,28.21237 -1.07539,3.28671 2.4717,2.9838 7.77332,-0.66381 3.99318,-2.74738 4.39249,-3.47743 6.99088,-12.78118 2.75295,-9.85716 2.76079,-9.87016 7.59247,-12.58618 3.69393,-2.07646 6.18601,-2.71883 10.54771,-2.71883 5.43511,0 5.6818,0.1087 5.10612,2.25 -5.31068,19.75338 -6.66592,24.18348 -8.03934,26.27959 -1.58958,2.42601 -1.56795,2.47041 1.20345,2.47041 1.55217,0 4.80931,-1.25609 7.23809,-2.79131 4.30074,-2.71847 4.48414,-3.05118 7.02846,-12.75 l 2.61248,-9.95869 4.92247,-2.72664 c 3.73846,-2.07079 6.31013,-2.73226 10.69153,-2.75 5.48905,-0.0222 5.74148,0.0858 5.20096,2.22664 -0.31245,1.2375 -1.82465,6.975 -3.36046,12.75 l -2.79237,10.5 -9.40859,5.74448 -9.40859,5.74447 -32.19098,0.005 c -17.88082,0.003 -32.43698,-0.3925 -32.74435,-0.88984 z m 101.81505,-0.01 c -8.65204,-1.45952 -12.96737,-6.48543 -12.07051,-14.05806 1.10003,-9.28805 5.49913,-15.24063 14.20325,-19.21891 4.64634,-2.12365 6.58476,-2.30451 28.33502,-2.64368 22.31035,-0.3479 23.32386,-0.28212 22.81559,1.48075 -0.29254,1.0147 -2.10552,7.24487 -4.02884,13.84487 -1.92333,6.6 -3.99519,13.9125 -4.60414,16.25 l -1.10718,4.25 -9.96145,0 c -7.40919,0 -9.96146,-0.32683 -9.96146,-1.27562 0,-0.70159 1.76205,-7.25527 3.91567,-14.56374 4.49915,-15.26821 4.54134,-15.15655 -5.05177,-13.37252 -9.58787,1.78305 -12.29773,4.6001 -14.36575,14.934 -0.51638,2.58033 -0.17333,3.69361 1.72228,5.58921 2.31402,2.31403 9.91962,4.33818 11.84024,3.15117 2.45786,-1.51904 0.55434,1.44602 -2.26783,3.53254 -3.47976,2.5727 -11.48054,3.43819 -19.41312,2.10003 z m 50.63571,-0.84503 c 0.008,-0.9625 1.96482,-9.175 4.34739,-18.25 l 4.33196,-16.5 23.64148,-0.26807 c 25.94501,-0.2942 28.93494,0.19996 32.30193,5.33863 1.75678,2.68119 1.72139,3.01779 -1.71742,16.33352 l -3.51117,13.59592 -9.83455,0.5 c -6.95442,0.35357 -9.9644,0.15978 -10.27792,-0.66173 -0.24385,-0.63895 0.96146,-6.22302 2.67846,-12.40905 1.71701,-6.18604 2.98741,-12.16166 2.82312,-13.27917 -0.37219,-2.53163 -5.01771,-3.86369 -12.03013,-3.44952 l -5.07031,0.29947 -2.78093,10.44092 c -2.68581,10.08378 -2.96286,10.60395 -8.09914,15.20671 -5.01931,4.49793 -5.64136,4.76822 -11.0682,4.80908 -4.83171,0.0364 -5.74754,-0.23619 -5.73457,-1.70671 z"
         id="path3128"
         inkscape:connector-curvature="0" />
      <path
         style="fill:#748acc"
         d="m 413.30183,635.38283 c -5.03443,-1.20187 -12.22769,-5.03732 -15.77933,-8.41353 l -3.30055,-3.13754 -3.24418,2.21286 c -7.20617,4.91536 -13.90669,6.72171 -25.05862,6.75541 -12.1237,0.0366 -16.79675,-1.71461 -21.69207,-8.12918 -2.49944,-3.27514 -2.84654,-4.65523 -3.15939,-12.56182 -0.29238,-7.38927 0.0803,-10.26725 2.21694,-17.12022 1.41262,-4.53077 5.2624,-17.56481 8.55505,-28.96454 3.29265,-11.39973 6.72525,-21.97714 7.62799,-23.50536 3.62772,-6.14125 12.57919,-9.61953 18.47318,-7.17816 6.4873,2.68713 6.49344,6.94319 0.0431,29.91509 -8.61877,30.69465 -10.33834,38.24626 -10.45408,45.90974 -0.10049,6.65362 0.11764,7.51918 2.35187,9.33247 3.22409,2.61665 6.72806,1.90164 14.11263,-2.87977 l 5.69498,-3.68742 0.42271,-8.04955 c 0.352,-6.70305 0.97351,-9.08287 3.71547,-14.22687 3.36197,-6.30717 11.81051,-15.47495 18.09158,-19.63174 9.52116,-6.30109 19.71037,-8.36556 24.02893,-4.8686 2.62375,2.12459 2.61533,2.14658 -5.46656,14.27053 -8.58404,12.87724 -11.36251,24.16676 -8.3897,34.08913 3.33251,11.1229 16.35957,13.28738 25.02079,4.15728 8.06207,-8.49852 10.68841,-24.74602 5.44608,-33.69139 -2.09804,-3.58003 -3.55391,-4.84156 -6.66214,-5.77281 -2.18757,-0.65541 -3.9774,-1.53775 -3.9774,-1.96075 0,-1.0005 9.3663,-5.39645 14.5,-6.80538 6.12296,-1.68044 14.77663,-1.34867 19.66709,0.754 12.64348,5.4361 13.09538,28.635 0.83291,42.75844 -11.77337,13.56011 -30.64467,21.48467 -50.66661,21.27625 -5.40837,-0.0563 -11.23618,-0.43725 -12.95071,-0.84657 z m -247.17405,-2.51234 c -23.94246,-5.44199 -35.16082,-19.47365 -33.95798,-42.47387 0.84488,-16.15558 6.54749,-26.8393 20.08145,-37.62214 15.0215,-11.968 30.50926,-17.35168 52.28729,-18.1755 13.65815,-0.51667 36.89307,1.13491 37.85465,2.69078 0.66934,1.083 -6.01015,26.09288 -8.53824,31.96961 -2.33903,5.43722 -4.24592,7.07239 -8.24761,7.07239 -3.78412,0 -5.12807,-2.60827 -5.75746,-11.17379 -0.81377,-11.07484 -5.25435,-16.54479 -14.25485,-17.55927 -12.53334,-1.41269 -32.37463,16.098 -38.78933,34.23306 -2.53244,7.15949 -2.9279,17.03209 -0.95669,23.88393 3.05003,10.60178 14.25926,17.05917 25.64381,14.77282 6.21387,-1.24792 15.71849,-5.84558 23.33912,-11.28981 3.68902,-2.63546 6.47557,-3.86694 8.75,-3.86694 3.99941,0 7.33721,2.95564 7.33721,6.49712 0,5.92082 -12.48977,14.78209 -27.5,19.51076 -9.05608,2.85294 -28.04517,3.63246 -37.29137,1.53085 z M 1.2792853,518.10551 c -0.2468439,-0.39944 1.8638708,-11.42444 4.690477,-24.5 5.5751267,-25.78991 5.5922807,-25.82741 13.6005197,-29.73584 3.198008,-1.56079 13.364505,-2.16171 13.330075,-0.78791 -0.01034,0.4125 -2.391892,11.4375 -5.292342,24.5 -4.872253,21.94273 -5.131844,23.75 -3.411379,23.75 2.794331,0 10.627237,-5.77028 11.256343,-8.29222 0.302905,-1.21428 2.054346,-9.08949 3.892093,-17.50046 2.004531,-9.17431 4.04091,-16.06568 5.089872,-17.22477 2.846922,-3.14581 9.785559,-5.98255 14.633267,-5.98255 2.484686,0 4.753257,0.23565 5.04127,0.52366 0.804824,0.80483 -8.117705,39.41389 -10.220677,44.22634 l -1.85719,4.25 3.193769,-0.0149 c 2.142358,-0.01 4.474812,-1.09873 7.085061,-3.30718 3.807708,-3.22158 3.98425,-3.67524 8.219144,-21.12093 2.380319,-9.80575 4.454238,-17.91526 4.608709,-18.02113 0.154471,-0.10587 1.913858,-1.4066 3.909749,-2.89051 4.31502,-3.20813 16.862885,-5.09613 16.880979,-2.53998 0.0076,1.07336 -8.043331,36.18143 -9.505549,41.45131 -0.16126,0.58118 -4.14525,3.85539 -8.853312,7.27603 l -8.560111,6.21933 -33.64098,0.22397 c -18.50254,0.1232 -33.8429439,-0.10282 -34.0897877,-0.50226 z M 113.4715,518.56598 c -23.741764,-0.37301 -23.539807,-0.1996 -19.328459,-16.596 l 2.276112,-8.86178 9.150877,-5.38822 9.15088,-5.38822 16.9499,0 c 17.50771,0 22.55235,0.83102 24.24512,3.99398 1.11003,2.07411 -3.41367,20.98024 -5.33255,22.2866 -0.64033,0.43593 -2.51423,1.51442 -4.16423,2.39664 -1.65,0.88222 -4.8,2.8291 -7,4.32641 -2.2,1.49731 -4.9,2.90017 -6,3.11747 -1.1,0.2173 -10.07644,0.2682 -19.94765,0.11312 z m 13.6179,-8.48811 c 4.45252,-2.60935 4.62051,-2.89097 6.72169,-11.26865 1.18528,-4.72583 1.89292,-9.01655 1.57254,-9.53494 -0.32038,-0.51839 -2.71786,-0.94252 -5.32772,-0.94252 -3.48744,0 -5.92404,0.7476 -9.19266,2.8205 -4.30692,2.73137 -4.51609,3.10229 -6.61927,11.73827 -1.19449,4.90477 -1.79789,9.14805 -1.34088,9.4295 2.35351,1.44944 9.93055,0.25188 14.1863,-2.24216 z m 67.39603,8.36113 c -0.37994,-0.61476 0.96304,-6.78598 2.98439,-13.71384 4.47705,-15.34429 4.34384,-15.65787 -6.89233,-16.22527 l -7.30736,-0.36901 -2.13738,7.35044 c -1.17556,4.04274 -2.43489,8.70044 -2.79852,10.35044 -0.36363,1.65 -2.72636,5.1375 -5.25052,7.75 l -4.58938,4.75 -6.86704,0 -6.86705,0 0.69971,-3.25 c 0.55258,-2.56665 7.14521,-25.63905 9.0007,-31.5 0.47519,-1.50099 41.52543,-1.76689 47.80515,-0.30966 4.66991,1.08367 8.65335,4.60708 8.65335,7.654 0,2.12399 -6.64518,26.38417 -7.44644,27.18543 -0.207,0.207 -4.40839,0.61686 -9.33643,0.91079 -6.05964,0.36142 -9.18367,0.1726 -9.65085,-0.58332 z m 32.93372,0.17352 c -2.74219,-0.66805 -5.49719,-3.25927 -5.51351,-5.18575 -0.0238,-2.81409 4.2828,-18.55217 5.41766,-19.79822 0.60272,-0.66177 4.91346,-3.49427 9.57943,-6.29446 l 8.48358,-5.09124 10.23068,0.16342 c 9.7738,0.15613 10.37421,0.0426 13.44485,-2.54113 1.7678,-1.4875 4.47398,-4.69104 6.01372,-7.11896 l 2.79954,-4.41442 9.52203,0 c 10.25034,0 11.58573,0.82801 7.41069,4.59501 -1.16124,1.04775 -3.88132,4.01643 -6.04464,6.59708 -3.50325,4.17908 -3.79247,4.91761 -2.64523,6.75463 1.09535,1.75393 0.78563,4.04228 -2.07001,15.29436 -1.84695,7.2775 -3.74536,14.25042 -4.21869,15.49537 l -0.8606,2.26355 -24.77475,-0.116 c -13.62611,-0.0638 -25.67475,-0.33526 -26.77475,-0.60324 z m 32.90333,-6.12434 c 1.09502,-1.77178 6.41335,-22.64402 5.95766,-23.38134 -1.11851,-1.80979 -9.70398,-0.71323 -14.39174,1.83817 -4.79418,2.60932 -4.80468,2.62652 -6.98213,11.43886 -1.1994,4.85409 -1.88561,9.30312 -1.52491,9.88675 0.7776,1.25818 16.17576,1.45593 16.94112,0.21756 z m 32.09667,5.78473 c -5.3905,-1.57847 -5.82244,-3.70608 -2.87633,-14.1678 1.4363,-5.10034 3.34605,-10.04364 4.24389,-10.98509 0.89784,-0.94146 5.23244,-3.77611 9.63244,-6.29922 l 8,-4.58748 18.04749,0.29922 c 15.25969,0.253 18.46495,0.5731 20.75,2.07227 2.834,1.85932 3.53566,5.30169 1.75777,8.6237 -0.51961,0.97089 -4.73775,4.09131 -9.37364,6.93426 l -8.4289,5.16899 -12.50136,0 -12.50136,0 -0.62054,3.10271 c -0.3413,1.70648 -0.37099,3.50648 -0.066,4 0.305,0.49351 7.1655,0.90496 15.24554,0.91434 l 14.691,0.0171 -5,2.9659 -5,2.96589 -16.5,-0.0731 c -9.075,-0.0402 -17.85,-0.46844 -19.5,-0.9516 z m 38.12612,-21.56793 c 3.73276,-2.18754 4.43139,-3.06542 4.17807,-5.25 -0.30141,-2.59927 -0.3716,-2.62036 -7.68567,-2.31012 -9.27317,0.39333 -15.11852,3.63258 -15.11852,8.37803 0,1.57464 0.91575,1.80887 7.07193,1.80887 5.83016,0 7.85897,-0.46124 11.55419,-2.62678 z m 19.96397,21.77255 c -0.88725,-1.4356 5.42605,-23.53555 7.22448,-25.28959 0.92699,-0.90411 5.38487,-3.76976 9.90642,-6.36811 l 8.22099,-4.72429 16.27901,0.41755 c 16.46038,0.4222 19.71361,1.10647 22.49721,4.73201 0.67,0.87266 1.2325,2.7814 1.25,4.24164 0.0251,2.0978 -0.89747,3.19957 -4.39627,5.25 -3.57031,2.09234 -5.72184,2.59502 -11.10699,2.59502 -5.6991,0 -6.58924,-0.23368 -6.06766,-1.5929 2.45022,-6.38519 1.41609,-8.16008 -4.97412,-8.53713 -6.20035,-0.36585 -12.16932,3.42571 -13.49389,8.57148 -4.79309,18.62043 -5.36672,20.02293 -8.46068,20.68585 -4.528,0.9702 -16.28235,0.98306 -16.8785,0.0185 z m 42.40991,-0.12252 c 0,-0.53721 2.24161,-2.74864 4.98136,-4.91428 l 4.98136,-3.93754 25.58553,0.27431 c 14.07204,0.15086 27.01793,-0.009 28.76864,-0.35622 2.38364,-0.47215 3.64107,-1.56249 5.00647,-4.34119 1.00285,-2.04087 1.54571,-4.58548 1.20636,-5.65468 -0.5657,-1.78238 -1.7844,-1.97101 -14.65789,-2.26883 l -14.0409,-0.32482 -3.03144,-3.39557 c -2.65305,-2.97174 -2.95727,-3.90789 -2.43726,-7.5 1.42007,-9.80959 5.54886,-16.99911 11.47777,-19.98639 2.92533,-1.47394 54.19598,-3.23975 54.1174,-1.86387 -0.0234,0.41021 -2.23175,2.43333 -4.90738,4.49583 l -4.86479,3.75 -14.40405,0 c -13.08734,0 -14.60301,0.18535 -16.58051,2.02768 -2.34991,2.18926 -3.58694,5.72022 -3.02806,8.64322 0.31311,1.63762 1.81416,1.8839 14.33856,2.35253 7.69385,0.28788 14.71306,0.87425 15.59824,1.30304 2.98718,1.44701 4.20482,5.2715 3.64477,11.44784 -0.92561,10.20779 -6.5022,17.95069 -14.53523,20.18168 -4.90157,1.3613 -77.21895,1.42429 -77.21895,0.0673 z m 93.56467,0.0814 c -0.30435,-0.49245 0.73214,-5.10495 2.30333,-10.25 1.57118,-5.14504 3.42438,-11.76239 4.11822,-14.70521 1.11271,-4.71944 1.80081,-5.69259 5.83343,-8.25 3.65149,-2.31571 5.70687,-2.89942 10.20946,-2.89942 3.10066,0 5.87949,0.24193 6.17519,0.53763 0.43586,0.43586 -4.46556,18.62376 -7.60289,28.21237 -1.07539,3.28671 2.4717,2.9838 7.77332,-0.66381 3.99318,-2.74738 4.39249,-3.47743 6.99088,-12.78118 2.75295,-9.85716 2.76079,-9.87016 7.59247,-12.58618 3.69393,-2.07646 6.18601,-2.71883 10.54771,-2.71883 5.43511,0 5.6818,0.1087 5.10612,2.25 -5.31068,19.75338 -6.66592,24.18348 -8.03934,26.27959 -1.58958,2.42601 -1.56795,2.47041 1.20345,2.47041 1.55217,0 4.80931,-1.25609 7.23809,-2.79131 4.30074,-2.71847 4.48414,-3.05118 7.02846,-12.75 l 2.61248,-9.95869 4.92247,-2.72664 c 3.73846,-2.07079 6.31013,-2.73226 10.69153,-2.75 5.48905,-0.0222 5.74148,0.0858 5.20096,2.22664 -0.31245,1.2375 -1.82465,6.975 -3.36046,12.75 l -2.79237,10.5 -9.40859,5.74448 -9.40859,5.74447 -32.19098,0.005 c -17.88082,0.003 -32.43698,-0.3925 -32.74435,-0.88984 z m 101.81505,-0.01 c -8.65204,-1.45952 -12.96737,-6.48543 -12.07051,-14.05806 1.10003,-9.28805 5.49913,-15.24063 14.20325,-19.21891 4.64634,-2.12365 6.58476,-2.30451 28.33502,-2.64368 22.31035,-0.3479 23.32386,-0.28212 22.81559,1.48075 -0.29254,1.0147 -2.10552,7.24487 -4.02884,13.84487 -1.92333,6.6 -3.99519,13.9125 -4.60414,16.25 l -1.10718,4.25 -9.96145,0 c -7.40919,0 -9.96146,-0.32683 -9.96146,-1.27562 0,-0.70159 1.76205,-7.25527 3.91567,-14.56374 4.49915,-15.26821 4.54134,-15.15655 -5.05177,-13.37252 -9.58787,1.78305 -12.29773,4.6001 -14.36575,14.934 -0.51638,2.58033 -0.17333,3.69361 1.72228,5.58921 2.31402,2.31403 9.91962,4.33818 11.84024,3.15117 2.45786,-1.51904 0.55434,1.44602 -2.26783,3.53254 -3.47976,2.5727 -11.48054,3.43819 -19.41312,2.10003 z m 50.63571,-0.84503 c 0.008,-0.9625 1.96482,-9.175 4.34739,-18.25 l 4.33196,-16.5 23.64148,-0.26807 c 25.94501,-0.2942 28.93494,0.19996 32.30193,5.33863 1.75678,2.68119 1.72139,3.01779 -1.71742,16.33352 l -3.51117,13.59592 -9.83455,0.5 c -6.95442,0.35357 -9.9644,0.15978 -10.27792,-0.66173 -0.24385,-0.63895 0.96146,-6.22302 2.67846,-12.40905 1.71701,-6.18604 2.98741,-12.16166 2.82312,-13.27917 -0.37219,-2.53163 -5.01771,-3.86369 -12.03013,-3.44952 l -5.07031,0.29947 -2.78093,10.44092 c -2.68581,10.08378 -2.96286,10.60395 -8.09914,15.20671 -5.01931,4.49793 -5.64136,4.76822 -11.0682,4.80908 -4.83171,0.0364 -5.74754,-0.23619 -5.73457,-1.70671 z"
         id="path3126"
         inkscape:connector-curvature="0" />
      <path
         style="fill:#0e8be9"
         d="m 163.73991,631.46543 c -11.89668,-3.30932 -19.7751,-8.30006 -24.92996,-15.79239 -4.26373,-6.19711 -5.99728,-12.33425 -6.07243,-21.49763 -0.1422,-17.34069 5.93659,-29.89367 19.83629,-40.96281 17.71992,-14.11141 42.24526,-20.4336 69.59342,-17.93991 18.01879,1.64301 19.89509,2.02612 19.30067,3.94096 -0.27627,0.88996 -1.88183,7.41092 -3.56791,14.49102 -4.3253,18.16257 -6.33212,21.62709 -12.52744,21.62709 -3.12179,0 -4.08245,-2.08428 -4.70321,-10.20414 -0.89509,-11.70835 -6.52563,-17.79586 -16.46,-17.79586 -7.4862,0 -15.0347,3.77722 -22.74718,11.38255 -12.01136,11.84447 -17.54844,23.36 -17.53743,36.47279 0.0105,12.48924 3.35083,19.02605 11.99546,23.47416 4.87757,2.50976 6.30257,2.78199 12.61044,2.40908 8.05414,-0.47616 16.73782,-4.01258 24.51325,-9.983 5.85471,-4.49558 8.22111,-5.75558 10.80953,-5.75558 2.93674,0 6.06574,3.50974 6.06574,6.80383 0,5.45711 -10.88491,13.18426 -25,17.7474 -11.42769,3.69435 -30.89745,4.44254 -41.17924,1.58244 z m 192.17277,0.93199 c -4.98728,-1.51706 -8.94478,-4.13515 -11.69184,-7.73475 -2.49226,-3.26573 -2.84051,-4.6522 -3.15315,-12.55364 -0.29238,-7.38927 0.0803,-10.26725 2.21694,-17.12022 1.41262,-4.53077 5.2624,-17.56481 8.55505,-28.96454 3.29265,-11.39973 6.72525,-21.97714 7.62799,-23.50536 3.62772,-6.14125 12.57919,-9.61953 18.47318,-7.17816 6.4873,2.68713 6.49344,6.94319 0.0431,29.91509 -8.61877,30.69465 -10.33834,38.24626 -10.45408,45.90974 -0.10049,6.65362 0.11764,7.51918 2.35187,9.33247 3.2169,2.61081 6.88649,1.88022 13.88139,-2.76369 2.93922,-1.95134 5.41422,-3.4027 5.5,-3.22524 0.0858,0.17745 1.16114,2.28999 2.38967,4.69453 1.22852,2.40454 1.98418,4.77559 1.67923,5.26901 -0.89852,1.45384 -9.48289,5.50846 -15.34442,7.24758 -5.58817,1.658 -17.6356,2.02758 -22.07497,0.67718 z M 1.9240395,517.08176 c 0.00269,-0.6875 2.2526872,-11.57571 5,-24.19603 2.747313,-12.62031 4.9951145,-23.0359 4.9951145,-23.14575 0,-0.10985 2.176895,-1.59664 4.837546,-3.30397 3.81292,-2.44675 5.930994,-3.10425 10,-3.10425 2.839349,0 5.162453,0.20182 5.162453,0.44849 0,0.24667 -2.285698,10.87597 -5.079328,23.62067 -3.464593,15.80567 -4.753893,23.49762 -4.055635,24.19588 1.322863,1.32286 5.541098,-0.41728 9.829826,-4.05508 2.983667,-2.53082 3.446399,-3.85879 7,-20.089 l 3.805137,-17.37903 4.393802,-3.37097 c 3.831098,-2.93925 5.139773,-3.37096 10.218615,-3.37096 4.206038,0 5.713901,0.34739 5.425715,1.25 -0.219504,0.6875 -2.26964,10.025 -4.555856,20.75 -2.286216,10.725 -4.980123,20.92487 -5.986459,22.66639 -1.006337,1.74151 -1.567078,3.42901 -1.246093,3.75 1.471161,1.47116 6.024358,0.30176 10.381875,-2.66639 4.172517,-2.84213 4.903045,-3.87749 5.821061,-8.25 0.577366,-2.75 2.499055,-10.97966 4.270421,-18.28813 l 3.220663,-13.28813 4.615675,-2.96187 c 3.693028,-2.36981 5.722088,-2.96187 10.150659,-2.96187 l 5.534983,0 -3.432474,14.25 c -1.887861,7.8375 -4.131124,17.29547 -4.98503,21.0177 l -1.552556,6.7677 -8.637165,6.4823 -8.637166,6.4823 -33.250335,0 c -25.9362065,0 -33.2492597,-0.27496 -33.2454485,-1.25 z m 92.4708455,-1.01722 -2.635796,-2.26721 2.749878,-10.25483 2.749879,-10.25483 8.698824,-4.97795 8.69883,-4.97796 17.58427,0 c 17.91979,0 22.15018,0.71355 23.13224,3.90176 0.42786,1.38903 -3.72074,19.82057 -4.61991,20.52547 -0.18367,0.144 -4.14014,2.58177 -8.79214,5.41729 l -8.4582,5.15548 -18.23604,0 c -17.510765,0 -18.340869,-0.0902 -20.871835,-2.26722 z m 33.224545,-5.65464 c 4.5473,-2.83031 4.76652,-3.19361 6.99694,-11.59566 1.26641,-4.7706 2.05105,-9.08076 1.74365,-9.57815 -0.30739,-0.49738 -3.24199,-0.90433 -6.52133,-0.90433 -8.02132,0 -13.43375,3.39194 -14.96848,9.38066 -0.58061,2.26564 -1.68224,6.34007 -2.44806,9.0543 -0.76583,2.71423 -1.16574,5.30173 -0.88869,5.75 0.27705,0.44827 2.95349,0.81504 5.94766,0.81504 4.2787,0 6.44873,-0.6254 10.13831,-2.92186 z m 28.29972,6.69747 c 0,-1.72698 8.01873,-30.94133 8.99423,-32.76837 0.69442,-1.30059 4.0993,-1.43869 24.83471,-1.00724 22.4189,0.46648 24.21907,0.64075 26.85051,2.59934 3.98479,2.96589 4.00081,6.8344 0.0845,20.40066 l -3.31983,11.5 -9.22206,0.28753 c -7.2629,0.22644 -9.22206,-0.002 -9.22206,-1.07658 0,-0.75025 1.35,-6.17187 3,-12.04805 1.65,-5.87617 3,-11.52411 3,-12.55098 0,-3.33072 -2.39767,-4.21505 -10.5895,-3.90569 l -7.77909,0.29377 -3.10296,10.51543 c -2.77568,9.40633 -3.57366,10.95943 -7.5657,14.725 -4.16631,3.92994 -4.84469,4.21122 -10.21275,4.23457 -3.88281,0.0169 -5.75,-0.3726 -5.75,-1.19939 z m 69.22251,-0.33231 c -2.75104,-1.9269 -2.7607,-3.36983 -0.0938,-14.00303 2.35069,-9.3725 2.32279,-9.34096 13.96741,-15.78822 6.40996,-3.549 6.89096,-3.65205 17.04703,-3.65205 l 10.45095,0 3.54609,-3.75 c 1.95035,-2.0625 4.54732,-5.2125 5.77104,-7 l 2.22496,-3.25 8.9319,0 c 4.91255,0 8.93191,0.35488 8.93191,0.78862 0,0.43374 -2.73221,3.86653 -6.07157,7.62843 -4.31807,4.86443 -5.7621,7.14928 -5,7.91138 1.62032,1.62032 1.31241,5.00033 -1.36979,15.03653 -1.34275,5.02427 -2.93509,11.04754 -3.53855,13.38504 l -1.09718,4.25 -25.73895,0 c -21.67729,0 -26.08966,-0.24565 -27.96145,-1.5567 z m 38.94406,-13.9433 c 3.96521,-14.87008 4.04974,-14.5 -3.31171,-14.5 -4.92922,0 -6.97508,0.52506 -10.33954,2.65358 -3.91913,2.47942 -4.33619,3.19417 -6.35486,10.89092 -3.23913,12.35007 -3.76243,11.57495 7.58954,11.24171 l 9.75,-0.28621 2.66657,-10 z m 26.05594,13.9433 c -2.84765,-1.99457 -2.7966,-3.63133 0.45167,-14.48261 l 2.67419,-8.93345 8.95205,-5.08987 8.95204,-5.08987 18.72264,0.32625 c 20.75207,0.36161 22.0249,0.73135 22.0249,6.3978 0,3.61906 -1.85105,5.39201 -11.5,11.01478 -4.64904,2.70915 -5.91249,2.94877 -18,3.41367 l -13,0.5 -1.14157,3.5 c -0.62786,1.925 -0.93881,3.8375 -0.69098,4.25 0.24782,0.4125 7.06153,0.75231 15.14157,0.75512 l 14.69098,0.005 -4,2.46367 c -3.86749,2.38205 -4.61377,2.4647 -22.52749,2.49488 -15.18662,0.0256 -18.92826,-0.2495 -20.75,-1.5255 z m 41.02749,-19.97781 c 3.46212,-2.54004 4.75,-4.16012 4.75,-5.97521 0,-2.43445 -0.16975,-2.49028 -7.57193,-2.49028 -10.85535,0 -17.34072,4.00345 -17.41442,10.75 -0.01,0.89575 2.18268,1.24297 7.73635,1.22521 7.25726,-0.0232 8.052,-0.24636 12.5,-3.50972 z m 20.11134,19.28451 c 0.32703,-1.2375 1.76975,-6.75621 3.20605,-12.26381 l 2.61146,-10.01381 9.11665,-5.31716 9.11666,-5.31717 16.54392,0.36686 c 17.73477,0.39326 20.9801,1.16483 22.93365,5.45241 1.68906,3.70709 1.4689,4.15929 -3.58551,7.3647 -3.82282,2.42436 -5.777,2.97798 -10.51182,2.97798 l -5.81604,0 0.63876,-3.99458 c 0.84749,-5.29989 -0.66118,-7.00542 -6.19681,-7.00542 -2.93946,0 -5.77472,0.86854 -8.79958,2.69562 -4.41775,2.66842 -4.49044,2.80209 -7.20536,13.25 -3.92063,15.08787 -2.92311,14.05438 -13.56519,14.05438 -8.9273,0 -9.07135,-0.0382 -8.48684,-2.25 z m 46.34994,-1.775 4.21127,-3.975 28.42794,0 c 31.62392,0 31.6939,-0.0142 33.60905,-6.80425 0.77524,-2.7486 0.59579,-3.64042 -1.06716,-5.30337 -1.76602,-1.76602 -3.24643,-1.9861 -12.69576,-1.88733 -5.88314,0.0615 -11.72957,0.0855 -12.99207,0.0534 -3.78546,-0.0964 -7.20455,-4.35588 -7.20455,-8.97546 0,-5.44161 3.40568,-14.15463 6.75288,-17.27645 5.4616,-5.09385 6.30701,-5.24597 32.24712,-5.80217 23.09489,-0.49519 25.93778,-0.45986 24.91667,0.30965 -0.22917,0.1727 -2.48802,1.9727 -5.01966,4 l -4.60299,3.686 -14.4727,0 c -13.80546,0 -14.57223,0.10595 -16.63162,2.29807 -2.73509,2.91137 -3.86737,8.18047 -2.19176,10.19945 0.99819,1.20274 3.97785,1.50248 14.93594,1.50248 12.29772,0 13.90675,0.20287 15.8315,1.99605 3.23383,3.01277 3.63376,7.57132 1.31857,15.02955 -2.16218,6.96529 -6.27031,11.97945 -11.39905,13.91307 -1.80789,0.6816 -16.29828,1.05238 -40.5,1.03633 l -37.6849,-0.025 4.21128,-3.975 z m 89.82456,0.775 c 0.38211,-1.7875 1.73586,-6.625 3.00834,-10.75 1.27248,-4.125 2.81013,-9.40205 3.417,-11.72677 1.50637,-5.77043 7.28643,-9.27323 15.30201,-9.27323 l 5.58747,0 -3.43369,12.75 c -1.88854,7.0125 -3.70372,13.7625 -4.03374,15 -0.52084,1.95302 -0.22276,2.24561 2.25836,2.21678 1.57213,-0.0183 4.62564,-1.25577 6.78558,-2.75 3.65989,-2.53188 4.09678,-3.37581 6.4194,-12.40005 l 2.49223,-9.68327 4.71593,-2.56673 c 3.43649,-1.87037 6.20384,-2.56673 10.20026,-2.56673 l 5.48433,0 -3.44003,11.75 c -2.96316,10.12117 -4.11438,13.42355 -6.10054,17.5 -0.96003,1.9704 6.83388,0.48099 10.86685,-2.07665 4.3707,-2.77182 4.50218,-3.01338 6.77788,-12.45309 2.28293,-9.46973 2.39146,-9.6679 6.66668,-12.17335 3.25458,-1.90731 5.75003,-2.54691 9.93696,-2.54691 5.30447,0 5.56105,0.1153 5.00685,2.25 -0.32127,1.2375 -1.80035,6.74799 -3.28683,12.24553 l -2.70269,9.99553 -8.39283,5.25447 -8.39282,5.25447 -32.91886,0 -32.91885,0 0.69475,-3.25 z m 98.37773,2.29428 c -7.84107,-2.37624 -10.6717,-7.07145 -8.82234,-14.63374 1.63705,-6.69413 3.27581,-9.70016 6.99358,-12.82845 6.64266,-5.58943 8.56025,-5.95144 33.70457,-6.36294 l 23.28938,-0.38115 -0.68772,2.831 c -0.37825,1.55705 -2.57192,9.356 -4.87481,17.331 l -4.18708,14.5 -8.33098,0.29313 c -4.58205,0.16122 -8.87866,0.083 -9.54803,-0.17389 -0.8878,-0.34068 -0.29759,-3.66636 2.18164,-12.29313 1.86928,-6.50436 3.67308,-13.06361 4.00846,-14.57611 l 0.60976,-2.75 -6.17466,0 c -9.00349,0 -14.46301,3.51332 -16.93682,10.89922 -3.01108,8.99001 -0.4359,12.98144 8.95766,13.88404 l 4.98249,0.47876 -3.48628,2.36899 c -2.96913,2.01757 -4.64379,2.35624 -11.28934,2.28304 -4.29168,-0.0473 -8.96694,-0.43867 -10.38948,-0.86977 z m 53.49294,-0.79428 c 1.74318,-5.63576 5.5926,-19.77982 7.09285,-26.06145 l 1.7462,-7.31146 25.29857,0.31146 c 25.2014,0.31025 25.30847,0.32076 27.87722,2.73576 3.31097,3.1128 3.24372,4.9618 -0.71202,19.57569 l -3.24821,12 -9.23056,0.28753 c -7.01049,0.21837 -9.23035,-0.0221 -9.22967,-1 4.8e-4,-0.70814 1.34025,-6.23753 2.97725,-12.28753 3.48819,-12.89159 3.48812,-12.89088 1.45043,-14.92857 -1.16273,-1.16273 -3.62127,-1.57143 -9.45299,-1.57143 l -7.88157,0 -0.94929,3.43803 c -0.5221,1.89091 -1.78076,6.67438 -2.797,10.62993 -1.626,6.32891 -2.43068,7.7163 -6.70587,11.56197 -4.58874,4.12772 -5.18864,4.37007 -10.81739,4.37007 -5.215,0 -5.89164,-0.21855 -5.41795,-1.75 z"
         id="path3124"
         inkscape:connector-curvature="0" />
      <path
         style="fill:#f62f13"
         d="m 355.91268,632.39742 c -4.98728,-1.51706 -8.94478,-4.13515 -11.69184,-7.73475 -2.49226,-3.26573 -2.84051,-4.6522 -3.15315,-12.55364 -0.29238,-7.38927 0.0803,-10.26725 2.21694,-17.12022 1.41262,-4.53077 5.2624,-17.56481 8.55505,-28.96454 3.29265,-11.39973 6.72525,-21.97714 7.62799,-23.50536 3.62772,-6.14125 12.57919,-9.61953 18.47318,-7.17816 6.4873,2.68713 6.49344,6.94319 0.0431,29.91509 -8.61877,30.69465 -10.33834,38.24626 -10.45408,45.90974 -0.10049,6.65362 0.11764,7.51918 2.35187,9.33247 3.2169,2.61081 6.88649,1.88022 13.88139,-2.76369 2.93922,-1.95134 5.41422,-3.4027 5.5,-3.22524 0.0858,0.17745 1.16114,2.28999 2.38967,4.69453 1.22852,2.40454 1.98418,4.77559 1.67923,5.26901 -0.89852,1.45384 -9.48289,5.50846 -15.34442,7.24758 -5.58817,1.658 -17.6356,2.02758 -22.07497,0.67718 z M 1.9240395,517.08176 c 0.00269,-0.6875 2.2526872,-11.57571 5,-24.19603 2.747313,-12.62031 4.9951145,-23.0359 4.9951145,-23.14575 0,-0.10985 2.176895,-1.59664 4.837546,-3.30397 3.81292,-2.44675 5.930994,-3.10425 10,-3.10425 2.839349,0 5.162453,0.20182 5.162453,0.44849 0,0.24667 -2.285698,10.87597 -5.079328,23.62067 -3.464593,15.80567 -4.753893,23.49762 -4.055635,24.19588 1.322863,1.32286 5.541098,-0.41728 9.829826,-4.05508 2.983667,-2.53082 3.446399,-3.85879 7,-20.089 l 3.805137,-17.37903 4.393802,-3.37097 c 3.831098,-2.93925 5.139773,-3.37096 10.218615,-3.37096 4.206038,0 5.713901,0.34739 5.425715,1.25 -0.219504,0.6875 -2.26964,10.025 -4.555856,20.75 -2.286216,10.725 -4.980123,20.92487 -5.986459,22.66639 -1.006337,1.74151 -1.567078,3.42901 -1.246093,3.75 1.471161,1.47116 6.024358,0.30176 10.381875,-2.66639 4.172517,-2.84213 4.903045,-3.87749 5.821061,-8.25 0.577366,-2.75 2.499055,-10.97966 4.270421,-18.28813 l 3.220663,-13.28813 4.615675,-2.96187 c 3.693028,-2.36981 5.722088,-2.96187 10.150659,-2.96187 l 5.534983,0 -3.432474,14.25 c -1.887861,7.8375 -4.131124,17.29547 -4.98503,21.0177 l -1.552556,6.7677 -8.637165,6.4823 -8.637166,6.4823 -33.250335,0 c -25.9362065,0 -33.2492597,-0.27496 -33.2454485,-1.25 z m 92.4708455,-1.01722 -2.635796,-2.26721 2.749878,-10.25483 2.749879,-10.25483 8.698824,-4.97795 8.69883,-4.97796 17.58427,0 c 17.91979,0 22.15018,0.71355 23.13224,3.90176 0.42786,1.38903 -3.72074,19.82057 -4.61991,20.52547 -0.18367,0.144 -4.14014,2.58177 -8.79214,5.41729 l -8.4582,5.15548 -18.23604,0 c -17.510765,0 -18.340869,-0.0902 -20.871835,-2.26722 z m 33.224545,-5.65464 c 4.5473,-2.83031 4.76652,-3.19361 6.99694,-11.59566 1.26641,-4.7706 2.05105,-9.08076 1.74365,-9.57815 -0.30739,-0.49738 -3.24199,-0.90433 -6.52133,-0.90433 -8.02132,0 -13.43375,3.39194 -14.96848,9.38066 -0.58061,2.26564 -1.68224,6.34007 -2.44806,9.0543 -0.76583,2.71423 -1.16574,5.30173 -0.88869,5.75 0.27705,0.44827 2.95349,0.81504 5.94766,0.81504 4.2787,0 6.44873,-0.6254 10.13831,-2.92186 z m 28.29972,6.69747 c 0,-1.72698 8.01873,-30.94133 8.99423,-32.76837 0.69442,-1.30059 4.0993,-1.43869 24.83471,-1.00724 22.4189,0.46648 24.21907,0.64075 26.85051,2.59934 3.98479,2.96589 4.00081,6.8344 0.0845,20.40066 l -3.31983,11.5 -9.22206,0.28753 c -7.2629,0.22644 -9.22206,-0.002 -9.22206,-1.07658 0,-0.75025 1.35,-6.17187 3,-12.04805 1.65,-5.87617 3,-11.52411 3,-12.55098 0,-3.33072 -2.39767,-4.21505 -10.5895,-3.90569 l -7.77909,0.29377 -3.10296,10.51543 c -2.77568,9.40633 -3.57366,10.95943 -7.5657,14.725 -4.16631,3.92994 -4.84469,4.21122 -10.21275,4.23457 -3.88281,0.0169 -5.75,-0.3726 -5.75,-1.19939 z m 69.22251,-0.33231 c -2.75104,-1.9269 -2.7607,-3.36983 -0.0938,-14.00303 2.35069,-9.3725 2.32279,-9.34096 13.96741,-15.78822 6.40996,-3.549 6.89096,-3.65205 17.04703,-3.65205 l 10.45095,0 3.54609,-3.75 c 1.95035,-2.0625 4.54732,-5.2125 5.77104,-7 l 2.22496,-3.25 8.9319,0 c 4.91255,0 8.93191,0.35488 8.93191,0.78862 0,0.43374 -2.73221,3.86653 -6.07157,7.62843 -4.31807,4.86443 -5.7621,7.14928 -5,7.91138 1.62032,1.62032 1.31241,5.00033 -1.36979,15.03653 -1.34275,5.02427 -2.93509,11.04754 -3.53855,13.38504 l -1.09718,4.25 -25.73895,0 c -21.67729,0 -26.08966,-0.24565 -27.96145,-1.5567 z m 38.94406,-13.9433 c 3.96521,-14.87008 4.04974,-14.5 -3.31171,-14.5 -4.92922,0 -6.97508,0.52506 -10.33954,2.65358 -3.91913,2.47942 -4.33619,3.19417 -6.35486,10.89092 -3.23913,12.35007 -3.76243,11.57495 7.58954,11.24171 l 9.75,-0.28621 2.66657,-10 z m 26.05594,13.9433 c -2.84765,-1.99457 -2.7966,-3.63133 0.45167,-14.48261 l 2.67419,-8.93345 8.95205,-5.08987 8.95204,-5.08987 18.72264,0.32625 c 20.75207,0.36161 22.0249,0.73135 22.0249,6.3978 0,3.61906 -1.85105,5.39201 -11.5,11.01478 -4.64904,2.70915 -5.91249,2.94877 -18,3.41367 l -13,0.5 -1.14157,3.5 c -0.62786,1.925 -0.93881,3.8375 -0.69098,4.25 0.24782,0.4125 7.06153,0.75231 15.14157,0.75512 l 14.69098,0.005 -4,2.46367 c -3.86749,2.38205 -4.61377,2.4647 -22.52749,2.49488 -15.18662,0.0256 -18.92826,-0.2495 -20.75,-1.5255 z m 41.02749,-19.97781 c 3.46212,-2.54004 4.75,-4.16012 4.75,-5.97521 0,-2.43445 -0.16975,-2.49028 -7.57193,-2.49028 -10.85535,0 -17.34072,4.00345 -17.41442,10.75 -0.01,0.89575 2.18268,1.24297 7.73635,1.22521 7.25726,-0.0232 8.052,-0.24636 12.5,-3.50972 z m 20.11134,19.28451 c 0.32703,-1.2375 1.76975,-6.75621 3.20605,-12.26381 l 2.61146,-10.01381 9.11665,-5.31716 9.11666,-5.31717 16.54392,0.36686 c 17.73477,0.39326 20.9801,1.16483 22.93365,5.45241 1.68906,3.70709 1.4689,4.15929 -3.58551,7.3647 -3.82282,2.42436 -5.777,2.97798 -10.51182,2.97798 l -5.81604,0 0.63876,-3.99458 c 0.84749,-5.29989 -0.66118,-7.00542 -6.19681,-7.00542 -2.93946,0 -5.77472,0.86854 -8.79958,2.69562 -4.41775,2.66842 -4.49044,2.80209 -7.20536,13.25 -3.92063,15.08787 -2.92311,14.05438 -13.56519,14.05438 -8.9273,0 -9.07135,-0.0382 -8.48684,-2.25 z m 46.34994,-1.775 4.21127,-3.975 28.42794,0 c 31.62392,0 31.6939,-0.0142 33.60905,-6.80425 0.77524,-2.7486 0.59579,-3.64042 -1.06716,-5.30337 -1.76602,-1.76602 -3.24643,-1.9861 -12.69576,-1.88733 -5.88314,0.0615 -11.72957,0.0855 -12.99207,0.0534 -3.78546,-0.0964 -7.20455,-4.35588 -7.20455,-8.97546 0,-5.44161 3.40568,-14.15463 6.75288,-17.27645 5.4616,-5.09385 6.30701,-5.24597 32.24712,-5.80217 23.09489,-0.49519 25.93778,-0.45986 24.91667,0.30965 -0.22917,0.1727 -2.48802,1.9727 -5.01966,4 l -4.60299,3.686 -14.4727,0 c -13.80546,0 -14.57223,0.10595 -16.63162,2.29807 -2.73509,2.91137 -3.86737,8.18047 -2.19176,10.19945 0.99819,1.20274 3.97785,1.50248 14.93594,1.50248 12.29772,0 13.90675,0.20287 15.8315,1.99605 3.23383,3.01277 3.63376,7.57132 1.31857,15.02955 -2.16218,6.96529 -6.27031,11.97945 -11.39905,13.91307 -1.80789,0.6816 -16.29828,1.05238 -40.5,1.03633 l -37.6849,-0.025 4.21128,-3.975 z m 89.82456,0.775 c 0.38211,-1.7875 1.73586,-6.625 3.00834,-10.75 1.27248,-4.125 2.81013,-9.40205 3.417,-11.72677 1.50637,-5.77043 7.28643,-9.27323 15.30201,-9.27323 l 5.58747,0 -3.43369,12.75 c -1.88854,7.0125 -3.70372,13.7625 -4.03374,15 -0.52084,1.95302 -0.22276,2.24561 2.25836,2.21678 1.57213,-0.0183 4.62564,-1.25577 6.78558,-2.75 3.65989,-2.53188 4.09678,-3.37581 6.4194,-12.40005 l 2.49223,-9.68327 4.71593,-2.56673 c 3.43649,-1.87037 6.20384,-2.56673 10.20026,-2.56673 l 5.48433,0 -3.44003,11.75 c -2.96316,10.12117 -4.11438,13.42355 -6.10054,17.5 -0.96003,1.9704 6.83388,0.48099 10.86685,-2.07665 4.3707,-2.77182 4.50218,-3.01338 6.77788,-12.45309 2.28293,-9.46973 2.39146,-9.6679 6.66668,-12.17335 3.25458,-1.90731 5.75003,-2.54691 9.93696,-2.54691 5.30447,0 5.56105,0.1153 5.00685,2.25 -0.32127,1.2375 -1.80035,6.74799 -3.28683,12.24553 l -2.70269,9.99553 -8.39283,5.25447 -8.39282,5.25447 -32.91886,0 -32.91885,0 0.69475,-3.25 z m 98.37773,2.29428 c -7.84107,-2.37624 -10.6717,-7.07145 -8.82234,-14.63374 1.63705,-6.69413 3.27581,-9.70016 6.99358,-12.82845 6.64266,-5.58943 8.56025,-5.95144 33.70457,-6.36294 l 23.28938,-0.38115 -0.68772,2.831 c -0.37825,1.55705 -2.57192,9.356 -4.87481,17.331 l -4.18708,14.5 -8.33098,0.29313 c -4.58205,0.16122 -8.87866,0.083 -9.54803,-0.17389 -0.8878,-0.34068 -0.29759,-3.66636 2.18164,-12.29313 1.86928,-6.50436 3.67308,-13.06361 4.00846,-14.57611 l 0.60976,-2.75 -6.17466,0 c -9.00349,0 -14.46301,3.51332 -16.93682,10.89922 -3.01108,8.99001 -0.4359,12.98144 8.95766,13.88404 l 4.98249,0.47876 -3.48628,2.36899 c -2.96913,2.01757 -4.64379,2.35624 -11.28934,2.28304 -4.29168,-0.0473 -8.96694,-0.43867 -10.38948,-0.86977 z m 53.49294,-0.79428 c 1.74318,-5.63576 5.5926,-19.77982 7.09285,-26.06145 l 1.7462,-7.31146 25.29857,0.31146 c 25.2014,0.31025 25.30847,0.32076 27.87722,2.73576 3.31097,3.1128 3.24372,4.9618 -0.71202,19.57569 l -3.24821,12 -9.23056,0.28753 c -7.01049,0.21837 -9.23035,-0.0221 -9.22967,-1 4.8e-4,-0.70814 1.34025,-6.23753 2.97725,-12.28753 3.48819,-12.89159 3.48812,-12.89088 1.45043,-14.92857 -1.16273,-1.16273 -3.62127,-1.57143 -9.45299,-1.57143 l -7.88157,0 -0.94929,3.43803 c -0.5221,1.89091 -1.78076,6.67438 -2.797,10.62993 -1.626,6.32891 -2.43068,7.7163 -6.70587,11.56197 -4.58874,4.12772 -5.18864,4.37007 -10.81739,4.37007 -5.215,0 -5.89164,-0.21855 -5.41795,-1.75 z"
         id="path3122"
         inkscape:connector-curvature="0" />
      <path
         style="fill:#090909"
         d="m 1.9240395,517.08176 c 0.00269,-0.6875 2.2526872,-11.57571 5,-24.19603 2.747313,-12.62031 4.9951145,-23.0359 4.9951145,-23.14575 0,-0.10985 2.176895,-1.59664 4.837546,-3.30397 3.81292,-2.44675 5.930994,-3.10425 10,-3.10425 2.839349,0 5.162453,0.20182 5.162453,0.44849 0,0.24667 -2.285698,10.87597 -5.079328,23.62067 -3.464593,15.80567 -4.753893,23.49762 -4.055635,24.19588 1.322863,1.32286 5.541098,-0.41728 9.829826,-4.05508 2.983667,-2.53082 3.446399,-3.85879 7,-20.089 l 3.805137,-17.37903 4.393802,-3.37097 c 3.831098,-2.93925 5.139773,-3.37096 10.218615,-3.37096 4.206038,0 5.713901,0.34739 5.425715,1.25 -0.219504,0.6875 -2.26964,10.025 -4.555856,20.75 -2.286216,10.725 -4.980123,20.92487 -5.986459,22.66639 -1.006337,1.74151 -1.567078,3.42901 -1.246093,3.75 1.471161,1.47116 6.024358,0.30176 10.381875,-2.66639 4.172517,-2.84213 4.903045,-3.87749 5.821061,-8.25 0.577366,-2.75 2.499055,-10.97966 4.270421,-18.28813 l 3.220663,-13.28813 4.615675,-2.96187 c 3.693028,-2.36981 5.722088,-2.96187 10.150659,-2.96187 l 5.534983,0 -3.432474,14.25 c -1.887861,7.8375 -4.131124,17.29547 -4.98503,21.0177 l -1.552556,6.7677 -8.637165,6.4823 -8.637166,6.4823 -33.250335,0 c -25.9362065,0 -33.2492597,-0.27496 -33.2454485,-1.25 z m 92.4708455,-1.01722 -2.635796,-2.26721 2.749878,-10.25483 2.749879,-10.25483 8.698824,-4.97795 8.69883,-4.97796 17.58427,0 c 17.91979,0 22.15018,0.71355 23.13224,3.90176 0.42786,1.38903 -3.72074,19.82057 -4.61991,20.52547 -0.18367,0.144 -4.14014,2.58177 -8.79214,5.41729 l -8.4582,5.15548 -18.23604,0 c -17.510765,0 -18.340869,-0.0902 -20.871835,-2.26722 z m 33.224545,-5.65464 c 4.5473,-2.83031 4.76652,-3.19361 6.99694,-11.59566 1.26641,-4.7706 2.05105,-9.08076 1.74365,-9.57815 -0.30739,-0.49738 -3.24199,-0.90433 -6.52133,-0.90433 -8.02132,0 -13.43375,3.39194 -14.96848,9.38066 -0.58061,2.26564 -1.68224,6.34007 -2.44806,9.0543 -0.76583,2.71423 -1.16574,5.30173 -0.88869,5.75 0.27705,0.44827 2.95349,0.81504 5.94766,0.81504 4.2787,0 6.44873,-0.6254 10.13831,-2.92186 z m 28.29972,6.69747 c 0,-1.72698 8.01873,-30.94133 8.99423,-32.76837 0.69442,-1.30059 4.0993,-1.43869 24.83471,-1.00724 22.4189,0.46648 24.21907,0.64075 26.85051,2.59934 3.98479,2.96589 4.00081,6.8344 0.0845,20.40066 l -3.31983,11.5 -9.22206,0.28753 c -7.2629,0.22644 -9.22206,-0.002 -9.22206,-1.07658 0,-0.75025 1.35,-6.17187 3,-12.04805 1.65,-5.87617 3,-11.52411 3,-12.55098 0,-3.33072 -2.39767,-4.21505 -10.5895,-3.90569 l -7.77909,0.29377 -3.10296,10.51543 c -2.77568,9.40633 -3.57366,10.95943 -7.5657,14.725 -4.16631,3.92994 -4.84469,4.21122 -10.21275,4.23457 -3.88281,0.0169 -5.75,-0.3726 -5.75,-1.19939 z m 69.22251,-0.33231 c -2.75104,-1.9269 -2.7607,-3.36983 -0.0938,-14.00303 2.35069,-9.3725 2.32279,-9.34096 13.96741,-15.78822 6.40996,-3.549 6.89096,-3.65205 17.04703,-3.65205 l 10.45095,0 3.54609,-3.75 c 1.95035,-2.0625 4.54732,-5.2125 5.77104,-7 l 2.22496,-3.25 8.9319,0 c 4.91255,0 8.93191,0.35488 8.93191,0.78862 0,0.43374 -2.73221,3.86653 -6.07157,7.62843 -4.31807,4.86443 -5.7621,7.14928 -5,7.91138 1.62032,1.62032 1.31241,5.00033 -1.36979,15.03653 -1.34275,5.02427 -2.93509,11.04754 -3.53855,13.38504 l -1.09718,4.25 -25.73895,0 c -21.67729,0 -26.08966,-0.24565 -27.96145,-1.5567 z m 38.94406,-13.9433 c 3.96521,-14.87008 4.04974,-14.5 -3.31171,-14.5 -4.92922,0 -6.97508,0.52506 -10.33954,2.65358 -3.91913,2.47942 -4.33619,3.19417 -6.35486,10.89092 -3.23913,12.35007 -3.76243,11.57495 7.58954,11.24171 l 9.75,-0.28621 2.66657,-10 z m 26.05594,13.9433 c -2.84765,-1.99457 -2.7966,-3.63133 0.45167,-14.48261 l 2.67419,-8.93345 8.95205,-5.08987 8.95204,-5.08987 18.72264,0.32625 c 20.75207,0.36161 22.0249,0.73135 22.0249,6.3978 0,3.61906 -1.85105,5.39201 -11.5,11.01478 -4.64904,2.70915 -5.91249,2.94877 -18,3.41367 l -13,0.5 -1.14157,3.5 c -0.62786,1.925 -0.93881,3.8375 -0.69098,4.25 0.24782,0.4125 7.06153,0.75231 15.14157,0.75512 l 14.69098,0.005 -4,2.46367 c -3.86749,2.38205 -4.61377,2.4647 -22.52749,2.49488 -15.18662,0.0256 -18.92826,-0.2495 -20.75,-1.5255 z m 41.02749,-19.97781 c 3.46212,-2.54004 4.75,-4.16012 4.75,-5.97521 0,-2.43445 -0.16975,-2.49028 -7.57193,-2.49028 -10.85535,0 -17.34072,4.00345 -17.41442,10.75 -0.01,0.89575 2.18268,1.24297 7.73635,1.22521 7.25726,-0.0232 8.052,-0.24636 12.5,-3.50972 z m 20.11134,19.28451 c 0.32703,-1.2375 1.76975,-6.75621 3.20605,-12.26381 l 2.61146,-10.01381 9.11665,-5.31716 9.11666,-5.31717 16.54392,0.36686 c 17.73477,0.39326 20.9801,1.16483 22.93365,5.45241 1.68906,3.70709 1.4689,4.15929 -3.58551,7.3647 -3.82282,2.42436 -5.777,2.97798 -10.51182,2.97798 l -5.81604,0 0.63876,-3.99458 c 0.84749,-5.29989 -0.66118,-7.00542 -6.19681,-7.00542 -2.93946,0 -5.77472,0.86854 -8.79958,2.69562 -4.41775,2.66842 -4.49044,2.80209 -7.20536,13.25 -3.92063,15.08787 -2.92311,14.05438 -13.56519,14.05438 -8.9273,0 -9.07135,-0.0382 -8.48684,-2.25 z m 46.34994,-1.775 4.21127,-3.975 28.42794,0 c 31.62392,0 31.6939,-0.0142 33.60905,-6.80425 0.77524,-2.7486 0.59579,-3.64042 -1.06716,-5.30337 -1.76602,-1.76602 -3.24643,-1.9861 -12.69576,-1.88733 -5.88314,0.0615 -11.72957,0.0855 -12.99207,0.0534 -3.78546,-0.0964 -7.20455,-4.35588 -7.20455,-8.97546 0,-5.44161 3.40568,-14.15463 6.75288,-17.27645 5.4616,-5.09385 6.30701,-5.24597 32.24712,-5.80217 23.09489,-0.49519 25.93778,-0.45986 24.91667,0.30965 -0.22917,0.1727 -2.48802,1.9727 -5.01966,4 l -4.60299,3.686 -14.4727,0 c -13.80546,0 -14.57223,0.10595 -16.63162,2.29807 -2.73509,2.91137 -3.86737,8.18047 -2.19176,10.19945 0.99819,1.20274 3.97785,1.50248 14.93594,1.50248 12.29772,0 13.90675,0.20287 15.8315,1.99605 3.23383,3.01277 3.63376,7.57132 1.31857,15.02955 -2.16218,6.96529 -6.27031,11.97945 -11.39905,13.91307 -1.80789,0.6816 -16.29828,1.05238 -40.5,1.03633 l -37.6849,-0.025 4.21128,-3.975 z m 89.82456,0.775 c 0.38211,-1.7875 1.73586,-6.625 3.00834,-10.75 1.27248,-4.125 2.81013,-9.40205 3.417,-11.72677 1.50637,-5.77043 7.28643,-9.27323 15.30201,-9.27323 l 5.58747,0 -3.43369,12.75 c -1.88854,7.0125 -3.70372,13.7625 -4.03374,15 -0.52084,1.95302 -0.22276,2.24561 2.25836,2.21678 1.57213,-0.0183 4.62564,-1.25577 6.78558,-2.75 3.65989,-2.53188 4.09678,-3.37581 6.4194,-12.40005 l 2.49223,-9.68327 4.71593,-2.56673 c 3.43649,-1.87037 6.20384,-2.56673 10.20026,-2.56673 l 5.48433,0 -3.44003,11.75 c -2.96316,10.12117 -4.11438,13.42355 -6.10054,17.5 -0.96003,1.9704 6.83388,0.48099 10.86685,-2.07665 4.3707,-2.77182 4.50218,-3.01338 6.77788,-12.45309 2.28293,-9.46973 2.39146,-9.6679 6.66668,-12.17335 3.25458,-1.90731 5.75003,-2.54691 9.93696,-2.54691 5.30447,0 5.56105,0.1153 5.00685,2.25 -0.32127,1.2375 -1.80035,6.74799 -3.28683,12.24553 l -2.70269,9.99553 -8.39283,5.25447 -8.39282,5.25447 -32.91886,0 -32.91885,0 0.69475,-3.25 z m 98.37773,2.29428 c -7.84107,-2.37624 -10.6717,-7.07145 -8.82234,-14.63374 1.63705,-6.69413 3.27581,-9.70016 6.99358,-12.82845 6.64266,-5.58943 8.56025,-5.95144 33.70457,-6.36294 l 23.28938,-0.38115 -0.68772,2.831 c -0.37825,1.55705 -2.57192,9.356 -4.87481,17.331 l -4.18708,14.5 -8.33098,0.29313 c -4.58205,0.16122 -8.87866,0.083 -9.54803,-0.17389 -0.8878,-0.34068 -0.29759,-3.66636 2.18164,-12.29313 1.86928,-6.50436 3.67308,-13.06361 4.00846,-14.57611 l 0.60976,-2.75 -6.17466,0 c -9.00349,0 -14.46301,3.51332 -16.93682,10.89922 -3.01108,8.99001 -0.4359,12.98144 8.95766,13.88404 l 4.98249,0.47876 -3.48628,2.36899 c -2.96913,2.01757 -4.64379,2.35624 -11.28934,2.28304 -4.29168,-0.0473 -8.96694,-0.43867 -10.38948,-0.86977 z m 53.49294,-0.79428 c 1.74318,-5.63576 5.5926,-19.77982 7.09285,-26.06145 l 1.7462,-7.31146 25.29857,0.31146 c 25.2014,0.31025 25.30847,0.32076 27.87722,2.73576 3.31097,3.1128 3.24372,4.9618 -0.71202,19.57569 l -3.24821,12 -9.23056,0.28753 c -7.01049,0.21837 -9.23035,-0.0221 -9.22967,-1 4.8e-4,-0.70814 1.34025,-6.23753 2.97725,-12.28753 3.48819,-12.89159 3.48812,-12.89088 1.45043,-14.92857 -1.16273,-1.16273 -3.62127,-1.57143 -9.45299,-1.57143 l -7.88157,0 -0.94929,3.43803 c -0.5221,1.89091 -1.78076,6.67438 -2.797,10.62993 -1.626,6.32891 -2.43068,7.7163 -6.70587,11.56197 -4.58874,4.12772 -5.18864,4.37007 -10.81739,4.37007 -5.215,0 -5.89164,-0.21855 -5.41795,-1.75 z"
         id="path3120"
         inkscape:connector-curvature="0" />
    </g>
  </g>
</svg>
