<?xml version="1.0" encoding="UTF-8" standalone="no"?>
<!DOCTYPE svg PUBLIC "-//W3C//DTD SVG 20010904//EN" "http://www.w3.org/TR/2001/REC-SVG-20010904/DTD/svg10.dtd">
<svg version="1.0" xmlns="http://www.w3.org/2000/svg" width="900.000000pt" height="279.000000pt" viewBox="0 0 900.000000 279.000000" preserveAspectRatio="xMidYMid meet">
<metadata>
Created by potrace 1.10, written by Peter Selinger 2001-2011
</metadata>
<g transform="translate(0.000000,279.000000) scale(0.100000,-0.100000)" fill="#000000" stroke="none">
<path d="M885 2101 c-58 -19 -129 -55 -199 -99 -28 -18 -63 -32 -78 -32 -64 0 -170 -101 -229 -219 l-34 -66 0 -165 c0 -138 3 -171 18 -199 9 -19 17 -39 17 -46 0 -23 66 -136 108 -185 54 -63 115 -93 171 -84 30 5 46 3 59 -8 82 -72 307 -100 472 -58 126 31 202 64 212 91 l9 24 22 -30 c62 -86 109 -110 159 -81 25 15 36 16 77 6 26 -6 143 -12 262 -13 215 -2 216 -2 252 23 49 33 51 75 5 133 -18 23 -41 59 -51 81 -25 55 -47 204 -47 314 0 83 2 93 17 90 16 -3 131 -143 132 -160 1 -4 20 -34 44 -65 23 -32 47 -67 54 -78 7 -11 51 -83 97 -161 96 -159 126 -194 166 -194 38 0 106 71 150 157 19 37 52 97 73 132 21 35 60 112 88 170 57 120 108 201 127 201 16 0 15 -27 -2 -33 -7 -3 -16 -20 -19 -39 -3 -18 -10 -53 -17 -78 -6 -25 -10 -81 -8 -125 5 -102 39 -176 116 -246 47 -43 59 -49 97 -49 24 0 47 -5 50 -10 11 -17 87 -52 145 -66 157 -38 313 9 397 119 17 23 46 80 64 126 l33 84 -38 33 -37 32 38 35 c38 35 38 36 37 110 -1 67 -5 79 -37 128 -20 30 -42 61 -49 70 -21 26 -110 79 -132 79 -12 0 -52 16 -90 35 -118 59 -192 47 -350 -57 -49 -33 -94 -57 -101 -54 -7 2 -15 24 -18 47 -9 71 -3 70 -294 73 -105 1 -113 0 -137 -23 -39 -37 -37 -108 4 -154 30 -35 39 -70 19 -82 -5 -4 -14 -18 -19 -31 -16 -42 -44 -29 -78 36 l-32 60 21 41 c20 36 20 44 9 80 -24 72 -23 71 -277 75 l-226 3 -35 -35 c-35 -35 -56 -42 -67 -24 -14 23 -90 51 -167 61 -156 21 -311 -21 -370 -101 -39 -54 -43 -41 -45 134 0 101 -5 171 -12 185 -13 24 -69 55 -150 82 -75 25 -301 25 -376 0z m361 -68 c95 -34 92 -25 96 -218 l3 -170 -27 -3 c-35 -4 -68 29 -68 67 0 69 -97 183 -174 206 -93 28 -171 15 -247 -41 -58 -42 -95 -95 -125 -179 -20 -56 -24 -84 -24 -190 0 -110 3 -131 24 -177 13 -29 39 -68 58 -87 51 -51 153 -109 215 -121 91 -19 135 -4 255 87 33 25 67 43 82 43 l26 0 0 -98 0 -99 -37 -16 c-143 -62 -396 -65 -503 -5 -37 20 -83 51 -98 65 -18 17 -53 16 -78 -2 -19 -13 -23 -11 -51 18 -54 58 -115 172 -135 252 -17 66 -21 205 -8 280 13 73 44 135 107 213 38 46 60 52 85 23 23 -27 57 -16 65 20 4 21 20 38 57 61 55 35 159 83 198 92 49 10 253 -3 304 -21z m-197 -178 c16 -8 46 -34 67 -58 36 -41 49 -70 72 -166 10 -44 34 -61 62 -43 49 30 150 -1 150 -47 0 -38 37 -56 114 -55 58 0 79 5 117 27 25 15 55 27 66 27 22 0 50 -26 40 -37 -18 -17 -118 -43 -165 -41 -30 1 -57 -3 -60 -8 -4 -5 -26 -22 -49 -38 -26 -17 -50 -44 -60 -67 l-17 -39 -64 0 c-62 0 -65 -1 -120 -49 -72 -62 -124 -91 -163 -91 -72 0 -217 97 -253 170 -7 14 -18 57 -25 96 -29 168 35 360 137 414 44 23 112 26 151 5z m882 -146 c24 -14 55 -41 67 -61 23 -34 24 -45 26 -224 2 -217 13 -266 79 -347 21 -26 37 -53 34 -60 -3 -9 -59 -12 -224 -11 -183 1 -226 4 -253 18 -41 20 -54 20 -70 1 -27 -33 -57 -18 -95 46 -19 33 -35 68 -35 78 0 10 -5 32 -11 50 -14 40 2 109 39 164 27 40 60 49 82 22 20 -24 51 -18 79 16 20 23 42 34 96 48 l70 17 3 40 c2 33 -2 45 -29 72 -17 17 -37 32 -43 32 -19 0 -109 -32 -126 -44 -69 -51 -116 -55 -139 -12 -38 71 52 155 189 175 101 15 213 6 261 -20z m587 21 c16 0 33 -45 25 -65 -3 -9 -18 -19 -34 -22 -16 -3 -29 -12 -29 -20 0 -8 24 -51 54 -97 29 -45 65 -107 80 -138 30 -64 48 -75 83 -53 19 13 21 19 13 35 -7 13 -7 26 -1 37 5 10 12 25 15 33 8 20 25 47 59 91 35 47 35 73 -2 95 -33 20 -65 69 -57 90 4 11 34 14 161 14 l155 0 11 -27 c16 -41 8 -56 -43 -81 -33 -15 -48 -29 -48 -42 0 -10 -6 -23 -13 -27 -14 -8 -86 -125 -125 -203 -13 -25 -27 -52 -32 -60 -47 -79 -101 -177 -129 -233 -37 -75 -53 -81 -80 -32 -9 17 -34 57 -55 89 -20 32 -42 68 -47 80 -18 42 -190 294 -237 349 -15 17 -51 54 -79 82 -37 36 -53 60 -53 78 0 14 4 27 10 29 7 2 252 1 398 -2z m1025 -17 c18 -10 40 -24 49 -32 12 -9 30 -12 54 -8 32 5 40 1 80 -35 79 -73 115 -186 78 -244 l-17 -25 -216 7 c-254 7 -256 6 -255 -73 1 -63 34 -117 96 -156 89 -56 199 -13 274 106 25 39 43 44 88 27 35 -13 35 -61 0 -130 -36 -72 -81 -119 -138 -146 -41 -19 -61 -22 -120 -18 -96 7 -143 21 -196 61 -40 30 -50 34 -86 28 -40 -6 -43 -4 -76 37 -77 96 -83 112 -82 233 2 120 14 160 74 244 31 42 33 43 75 37 39 -6 45 -4 69 24 14 17 26 35 26 38 0 4 12 15 28 24 38 24 153 24 195 1z m84 -407 c10 -4 9 -13 -3 -38 -21 -43 -65 -78 -107 -85 -28 -4 -40 0 -69 26 -41 36 -68 89 -50 100 12 7 209 4 229 -3z"/>
<path d="M1717 1316 c-32 -29 -41 -63 -34 -118 11 -83 66 -120 111 -75 33 33 47 154 22 192 -21 33 -64 33 -99 1z"/>
<path d="M3362 1583 c-29 -19 -42 -34 -42 -50 0 -22 4 -23 69 -23 38 0 81 -3 97 -6 66 -13 85 53 25 89 -43 25 -100 22 -149 -10z"/>
<path d="M4640 2110 c-8 -4 -45 -22 -82 -39 -62 -29 -128 -89 -128 -116 0 -5 -15 -20 -34 -32 -18 -12 -46 -43 -62 -70 -26 -43 -29 -57 -29 -133 0 -95 24 -166 76 -230 16 -19 29 -38 29 -42 0 -5 -15 -21 -32 -37 l-33 -29 -3 -129 c-5 -180 13 -248 76 -282 13 -7 91 -14 190 -18 140 -5 176 -3 226 11 57 17 128 55 141 76 3 5 19 10 36 10 79 0 132 75 149 211 19 159 -14 265 -105 335 -42 32 -44 42 -7 50 41 11 69 32 80 62 6 15 12 91 15 169 4 171 8 166 -132 212 -87 29 -105 31 -225 30 -72 0 -138 -4 -146 -9z m290 -74 c41 -7 87 -19 103 -26 l27 -13 0 -137 c0 -139 -5 -160 -41 -160 -11 0 -18 11 -22 35 -13 81 -112 168 -204 180 -88 11 -130 -1 -164 -47 -18 -26 -29 -53 -29 -74 0 -30 5 -36 45 -55 25 -12 48 -25 51 -30 3 -5 14 -9 24 -9 11 0 42 -13 70 -30 28 -16 54 -30 58 -30 11 0 70 -32 125 -67 50 -33 74 -59 101 -110 23 -45 22 -218 -1 -284 -18 -51 -32 -60 -53 -34 -21 25 -53 14 -74 -25 -23 -43 -68 -74 -132 -90 -64 -16 -361 -1 -373 19 -10 16 -25 327 -16 341 11 18 44 11 59 -12 7 -13 19 -53 26 -91 11 -61 16 -71 60 -110 86 -78 164 -81 247 -11 36 31 38 35 38 94 0 60 -1 64 -39 96 -21 18 -60 43 -85 54 -25 12 -59 28 -74 35 -16 8 -35 15 -42 15 -8 0 -31 7 -52 16 -120 52 -143 74 -167 158 -20 68 -20 133 -1 180 14 33 19 36 55 36 37 0 40 2 40 28 0 41 48 105 100 133 69 37 215 48 340 25z m-90 -210 c46 -31 90 -110 72 -128 -11 -11 -21 -8 -55 10 -23 13 -68 38 -99 55 -52 29 -75 58 -62 79 3 4 29 8 57 8 39 0 61 -6 87 -24z m-191 -453 c82 -41 141 -93 141 -122 0 -27 -56 -71 -90 -71 -43 0 -120 81 -120 127 0 10 -7 31 -15 47 -15 29 -14 56 2 56 4 0 42 -17 82 -37z"/>
<path d="M5433 1960 c-55 -31 -87 -69 -99 -114 -4 -17 -27 -43 -58 -66 -64 -48 -116 -119 -116 -156 0 -15 12 -43 27 -63 l28 -36 2 -218 c3 -235 5 -248 60 -298 46 -44 89 -60 151 -59 31 1 84 -2 117 -5 108 -13 214 40 276 137 l32 50 26 -34 c56 -72 101 -99 171 -103 8 0 33 -10 56 -22 50 -27 159 -42 224 -32 27 4 68 19 92 32 24 14 64 28 89 31 38 6 55 16 92 53 171 173 172 449 2 641 -41 46 -58 54 -91 42 -24 -9 -31 -7 -58 19 -50 47 -88 61 -164 61 -69 0 -154 -21 -182 -46 -8 -7 -35 -17 -58 -23 -112 -25 -214 -147 -246 -296 -9 -38 -15 -77 -14 -85 4 -43 -4 -58 -34 -71 -18 -7 -52 -31 -75 -52 -29 -26 -49 -37 -65 -35 -23 3 -23 4 -21 137 1 151 3 154 74 166 49 8 129 79 158 138 12 24 21 62 21 84 0 34 -6 46 -31 67 -39 33 -78 33 -138 -1 -67 -37 -81 -29 -81 50 0 58 -3 66 -34 100 -41 45 -64 46 -133 7z m96 -92 c6 -17 8 -54 5 -83 -6 -47 -4 -54 17 -69 42 -29 107 -16 180 36 21 15 49 4 49 -20 0 -11 -9 -40 -20 -65 -28 -63 -74 -90 -155 -91 -98 -2 -96 4 -93 -225 l3 -196 40 -13 c56 -18 127 5 175 58 29 32 39 37 58 30 47 -19 14 -94 -77 -175 -49 -44 -57 -47 -119 -48 -40 -1 -67 4 -90 18 -32 19 -34 19 -63 2 -43 -24 -52 -22 -98 24 l-41 41 -2 142 c-1 77 -3 182 -3 233 -1 88 -3 93 -28 113 -41 33 -36 71 15 121 37 36 46 40 76 34 44 -8 62 8 62 57 0 32 7 47 36 78 41 43 58 43 73 -2z m829 -127 c40 -20 69 -48 86 -83 16 -32 43 -34 72 -7 24 23 25 23 44 3 10 -10 36 -53 57 -94 37 -74 37 -77 38 -190 0 -101 -3 -120 -23 -155 -46 -81 -78 -120 -98 -117 -50 7 -66 2 -110 -37 -55 -48 -104 -64 -176 -56 -71 8 -121 31 -147 66 -23 32 -65 39 -75 14 -10 -28 -35 -15 -75 37 -55 74 -79 139 -80 223 -2 160 90 325 182 325 13 0 42 13 63 28 85 61 176 77 242 43z"/>
<path d="M6231 1613 c-34 -7 -81 -52 -102 -98 -26 -56 -25 -167 1 -253 25 -79 34 -93 77 -115 39 -21 61 -21 104 -3 78 33 101 86 100 236 0 125 -6 148 -54 203 -25 29 -74 41 -126 30z m82 -95 c8 -18 18 -70 22 -115 8 -95 -6 -172 -36 -199 -18 -17 -20 -16 -44 6 -56 52 -77 238 -34 306 29 47 70 48 92 2z"/>
<path d="M7365 1796 c-32 -17 -54 -22 -64 -17 -9 5 -131 12 -272 16 -233 7 -259 6 -293 -10 -84 -40 -86 -102 -6 -176 l50 -46 0 -169 c0 -93 -4 -186 -9 -207 -5 -22 -26 -57 -50 -82 -53 -57 -56 -101 -10 -139 l31 -26 233 0 c129 0 245 4 259 10 14 5 37 28 52 50 25 37 26 43 13 67 -8 15 -35 43 -61 62 -57 44 -66 69 -70 191 -3 90 -2 95 17 92 106 -15 101 -16 160 23 48 33 100 94 119 140 8 22 43 -16 103 -111 35 -54 68 -108 73 -119 6 -11 16 -29 23 -40 51 -84 63 -103 75 -120 6 -11 15 -27 19 -35 3 -8 19 -31 35 -51 15 -20 28 -46 28 -57 0 -22 -68 -188 -128 -312 -18 -36 -27 -71 -27 -103 0 -40 4 -51 30 -72 17 -13 43 -24 60 -25 49 0 226 29 280 46 66 22 85 40 85 81 0 35 -34 113 -49 113 -5 0 -20 9 -35 21 -20 15 -24 24 -16 34 13 15 130 252 130 262 0 12 47 111 138 293 76 152 120 220 142 220 17 0 60 75 60 103 0 18 -11 39 -30 58 l-29 30 -143 0 c-79 0 -160 1 -180 2 -42 1 -79 -26 -98 -73 -10 -23 -9 -35 5 -65 10 -19 27 -40 37 -46 18 -10 19 -17 14 -60 -9 -63 -26 -101 -43 -97 -8 2 -30 33 -50 70 -35 67 -35 68 -19 102 9 19 16 51 16 71 0 42 -27 94 -50 97 -8 0 -105 0 -215 -2 -166 -2 -207 0 -239 14 -48 20 -44 21 -101 -8z m523 -78 c6 -6 12 -23 12 -39 0 -22 -7 -32 -25 -41 -31 -14 -31 -33 0 -89 13 -24 29 -53 35 -64 6 -11 19 -33 30 -50 11 -16 31 -53 45 -82 14 -28 34 -53 43 -55 27 -6 63 22 57 43 -7 20 1 48 39 154 36 100 35 128 -10 154 -29 17 -35 26 -32 49 l3 27 153 1 c136 0 154 -2 163 -17 13 -26 14 -25 -44 -83 -44 -43 -70 -86 -144 -237 -50 -101 -101 -206 -113 -234 -51 -115 -74 -165 -121 -261 -27 -55 -49 -110 -49 -121 0 -21 18 -33 49 -33 26 0 53 -34 49 -61 -3 -20 -12 -25 -73 -36 -193 -35 -195 -35 -211 -22 -18 15 -14 30 36 134 21 44 53 116 71 160 18 44 38 87 46 96 20 24 16 43 -25 106 -22 32 -45 70 -53 86 -63 123 -276 445 -299 452 -11 3 -35 3 -55 -1 -30 -5 -46 -19 -95 -84 -76 -100 -112 -110 -211 -58 -24 12 -46 17 -63 12 -29 -7 -31 -18 -12 -53 9 -17 12 -56 8 -145 -5 -149 4 -178 78 -233 40 -30 50 -43 48 -63 l-3 -25 -218 0 c-195 0 -220 2 -228 17 -13 23 5 63 36 84 14 9 30 26 36 36 6 12 11 108 11 241 l0 222 -44 21 c-46 23 -75 62 -65 88 9 23 322 24 331 1 7 -20 47 -19 84 2 29 17 32 17 67 0 48 -23 137 -23 158 1 14 15 37 17 254 14 143 -2 243 -8 251 -14z"/>
</g>
</svg>