<?xml version="1.0" encoding="UTF-8" standalone="no"?>
<svg
   xmlns:dc="http://purl.org/dc/elements/1.1/"
   xmlns:cc="http://creativecommons.org/ns#"
   xmlns:rdf="http://www.w3.org/1999/02/22-rdf-syntax-ns#"
   xmlns:svg="http://www.w3.org/2000/svg"
   xmlns="http://www.w3.org/2000/svg"
   viewBox="0 0 471.70999 80.739372"
   height="80.739372"
   width="471.70999"
   xml:space="preserve"
   version="1.1"
   id="svg2"><metadata
     id="metadata8"><rdf:RDF><cc:Work
         rdf:about=""><dc:format>image/svg+xml</dc:format><dc:type
           rdf:resource="http://purl.org/dc/dcmitype/StillImage" /><dc:title></dc:title></cc:Work></rdf:RDF></metadata><defs
     id="defs6"><clipPath
       id="clipPath16"
       clipPathUnits="userSpaceOnUse"><path
         id="path18"
         d="m 0,64.592 377.368,0 L 377.368,0 0,0 0,64.592 Z" /></clipPath></defs><g
     transform="matrix(1.25,0,0,-1.25,0,80.739375)"
     id="g10"><g
       id="g12"><g
         clip-path="url(#clipPath16)"
         id="g14"><g
           transform="translate(5.8396,12.7202)"
           id="g20"><path
             id="path22"
             style="fill:#2b2321;fill-opacity:1;fill-rule:nonzero;stroke:none"
             d="m 0,0 c 0,10.538 0,21.075 0.001,31.613 0.496,0.503 1.141,0.54 1.783,0.541 8.788,0.017 17.576,0.027 26.365,-0.004 0.373,-10e-4 0.744,-0.038 1.1,-0.148 1.225,-0.684 0.239,-1.275 -0.169,-1.718 C 26.874,27.89 25.261,25.177 24.365,22.041 22.21,14.497 23.652,7.728 28.731,1.742 29.04,1.378 29.404,1.059 29.64,0.633 29.894,0.174 29.836,-0.176 29.296,-0.365 28.676,-0.569 28.036,-0.549 27.401,-0.55 19.071,-0.556 10.742,-0.558 2.413,-0.547 1.576,-0.546 0.694,-0.664 0,0" /></g><g
           transform="translate(89.3093,44.3321)"
           id="g24"><path
             id="path26"
             style="fill:#2b2321;fill-opacity:1;fill-rule:nonzero;stroke:none"
             d="m 0,0 c 0,-10.536 0,-21.073 0,-31.609 -0.448,-0.459 -1.029,-0.533 -1.621,-0.535 -7.021,-0.021 -14.043,-0.049 -21.064,0.014 -0.267,0.002 -0.529,0.052 -0.783,0.124 -1.029,0.419 -0.484,1.006 -0.086,1.462 0.835,0.956 1.674,1.903 2.385,2.96 1.65,2.452 2.658,5.151 3.201,8.046 0.153,0.819 0.155,1.696 0.699,2.405 0.408,0.293 0.89,0.298 1.362,0.32 0.68,0.033 1.1,0.298 1.079,1.052 -0.018,0.671 -0.402,0.916 -1.011,0.957 -0.471,0.031 -0.953,0.025 -1.379,0.288 -0.565,0.578 -0.555,1.359 -0.681,2.07 -0.743,4.221 -2.489,7.935 -5.4,11.106 -0.398,0.432 -1.398,0.993 -0.213,1.715 0.625,0.195 1.267,0.174 1.905,0.175 6.395,0.006 12.789,0.009 19.184,-0.003 C -1.584,0.545 -0.697,0.669 0,0" /></g><g
           transform="translate(89.3093,44.3321)"
           id="g28"><path
             id="path30"
             style="fill:#b7aba9;fill-opacity:1;fill-rule:nonzero;stroke:none"
             d="m 0,0 c -7.971,0.009 -15.942,0.018 -23.914,0.028 -0.489,-0.239 -0.818,0.098 -1.133,0.358 -2.893,2.389 -6.174,3.948 -9.848,4.716 -0.364,0.076 -1.529,-0.045 -0.611,0.972 2.272,0.447 4.568,0.141 6.851,0.202 2.22,0.06 2.266,0.063 2.274,2.213 0.005,1.332 -0.015,2.665 0.002,3.997 0.013,0.985 -0.366,1.468 -1.405,1.467 -5.436,-0.007 -10.872,0.002 -16.308,-0.006 -0.873,-10e-4 -1.43,-0.312 -1.502,-1.256 -0.077,-1.012 -0.667,-1.522 -1.65,-1.613 -0.754,-0.07 -1.146,-0.489 -1.215,-1.231 -0.093,-0.994 -0.636,-1.524 -1.63,-1.648 -0.611,-0.076 -1.178,-0.275 -1.125,-1.066 0.057,-0.847 0.735,-0.812 1.303,-0.827 1.811,-0.048 3.624,-0.007 5.436,-0.023 0.743,-0.006 1.495,0.066 2.218,-0.182 1.038,-0.871 -0.094,-0.89 -0.468,-1.01 -1.257,-0.401 -2.566,-0.611 -3.804,-1.109 -2.029,-0.815 -3.917,-1.843 -5.608,-3.244 -0.454,-0.377 -0.896,-0.957 -1.65,-0.708 -9.894,-0.01 -19.788,-0.02 -29.682,-0.029 -0.018,0.961 -0.037,1.922 -0.055,2.882 -0.624,0.982 -0.61,1.976 -0.061,2.981 0.801,0.58 1.732,0.427 2.622,0.429 6.914,0.015 13.828,0.035 20.741,-0.015 1.428,-0.011 2.24,0.406 2.269,1.906 0.046,0.175 0.125,0.339 0.227,0.488 0.15,0.145 0.333,0.312 0.534,0.296 1.761,-0.141 2.201,0.938 2.246,2.395 0.067,0.152 0.171,0.274 0.307,0.368 0.232,0.127 0.488,0.226 0.746,0.205 1.308,-0.109 1.785,0.552 1.706,1.773 -0.014,0.207 0.071,0.409 0.153,0.604 0.078,0.147 0.19,0.259 0.334,0.34 1.889,-0.145 2.408,1.148 2.753,2.624 0.953,0.022 1.905,0.044 2.857,0.066 0.982,0.622 1.964,0.627 2.945,-0.004 2.859,0.002 5.717,0.003 8.576,0.005 0.983,0.622 1.966,0.625 2.948,-0.003 4.779,10e-4 9.558,10e-4 14.337,10e-4 3.863,0.81 7.726,0.809 11.59,0 0.424,-0.006 0.856,-0.065 1.271,-0.009 1.232,0.169 1.792,-0.282 1.581,-1.562 -0.172,-1.044 0.295,-1.496 1.331,-1.326 1.297,0.212 1.648,-0.374 1.566,-1.595 -0.092,-1.373 -0.007,-2.757 0,-4.136 0.752,-1.944 0.752,-3.887 0,-5.83 L 0,0 Z" /></g><g
           transform="translate(53.4753,50.0787)"
           id="g32"><path
             id="path34"
             style="fill:#fdfdf9;fill-opacity:1;fill-rule:nonzero;stroke:none"
             d="m 0,0 c 4.49,-0.83 8.482,-2.698 11.92,-5.719 2.967,-3.178 5.268,-6.733 6.172,-11.057 0.227,-1.087 0.347,-2.197 0.517,-3.296 0.623,-0.987 0.619,-1.975 0.003,-2.963 -0.523,-5.344 -2.463,-10.033 -6.366,-13.821 -0.144,-0.139 -0.219,-0.349 -0.326,-0.527 -0.996,-1.672 -2.68,-2.538 -4.251,-3.487 -2.307,-1.395 -4.886,-2.016 -7.56,-2.253 -1.134,-0.532 -2.17,-0.57 -3.361,0.086 -0.834,0.459 -1.903,-0.353 -2.891,-0.089 -3.914,0.212 -7.297,1.764 -10.362,4.111 -0.588,0.45 -1.25,0.839 -1.457,1.632 -2.758,2.939 -5.016,6.209 -5.963,10.171 -1.877,7.849 -0.184,14.827 5.407,20.762 0.211,0.223 0.377,0.488 0.565,0.733 3.445,3.003 7.44,4.859 11.914,5.719 C -4.026,0.883 -2.013,0.886 0,0" /></g><g
           transform="translate(35.5131,12.6956)"
           id="g36"><path
             id="path38"
             style="fill:#b8aaa9;fill-opacity:1;fill-rule:nonzero;stroke:none"
             d="m 0,0 c 3.417,-2.99 7.39,-4.837 11.82,-5.743 -12.418,-0.009 -24.834,-0.005 -37.251,-0.054 -1.144,-0.004 -1.521,0.356 -1.409,1.454 0.075,0.733 0.168,1.638 -1.039,1.437 -1.663,-0.277 -2.047,0.542 -1.834,1.974 0.047,0.314 0.028,0.637 0.039,0.957 C -19.782,0.016 -9.891,0.008 0,0" /></g><g
           transform="translate(23.1251,58.7945)"
           id="g40"><path
             id="path42"
             style="fill:#b6aba9;fill-opacity:1;fill-rule:nonzero;stroke:none"
             d="M 0,0 C 0.478,-0.006 0.962,0.035 1.432,-0.028 2.544,-0.175 3.026,0.259 2.842,1.38 2.643,2.589 3.17,2.916 4.349,2.885 7.691,2.796 11.036,2.828 14.381,2.812 c 0.65,-0.949 0.61,-1.895 -0.015,-2.837 l 0.005,0.005 C 14.207,-0.154 14.042,-0.333 13.832,-0.334 12.474,-0.341 11.806,-1.007 11.8,-2.366 11.799,-2.576 11.619,-2.741 11.486,-2.905 l 0.004,0.004 C 11.371,-2.999 11.247,-3.154 11.11,-3.155 9.612,-3.166 8.871,-3.907 8.859,-5.405 8.858,-5.543 8.704,-5.666 8.605,-5.786 L 8.61,-5.781 C 8.092,-6.25 7.448,-6.285 6.805,-6.286 c -7.52,-0.013 -15.041,-0.025 -22.561,0.006 -0.374,0.001 -0.746,0.035 -1.106,0.152 -0.204,0.074 -0.374,0.196 -0.511,0.364 0.018,0.371 0.098,0.751 0.044,1.111 -0.207,1.366 0.258,2.005 1.714,1.764 0.722,-0.119 1.339,0.079 1.162,0.991 -0.351,1.809 0.633,2.065 2.067,1.883 0.261,-0.033 0.531,0.008 0.796,0.015 3.863,0.808 7.727,0.808 11.59,0" /></g><g
           transform="translate(53.5847,6.956)"
           id="g44"><path
             id="path46"
             style="fill:#b8aaaa;fill-opacity:1;fill-rule:nonzero;stroke:none"
             d="M 0,0 C 1.209,0.335 2.42,0.665 3.627,1.006 6.758,1.887 9.306,3.777 11.811,5.74 19.782,5.749 27.753,5.758 35.725,5.767 35.735,5.288 35.698,4.802 35.767,4.331 35.946,3.118 35.441,2.651 34.258,2.846 33.097,3.037 32.738,2.48 32.874,1.403 32.987,0.501 32.836,-0.066 31.644,-0.06 21.096,-0.005 10.548,-0.012 0,0" /></g><g
           transform="translate(83.6151,61.6746)"
           id="g48"><path
             id="path50"
             style="fill:#c4c3c3;fill-opacity:1;fill-rule:nonzero;stroke:none"
             d="m 0,0 c -3.863,0 -7.727,0 -11.59,0 0.094,2.859 0.094,2.859 3.016,2.859 2.223,0 4.452,-0.101 6.666,0.034 C -0.349,2.987 0.222,2.462 -0.024,0.95 -0.074,0.643 -0.011,0.317 0,0" /></g><g
           transform="translate(23.1251,58.7945)"
           id="g52"><path
             id="path54"
             style="fill:#c4c3c3;fill-opacity:1;fill-rule:nonzero;stroke:none"
             d="m 0,0 c -3.863,0 -7.726,0 -11.59,0 0.093,2.849 0.093,2.849 2.947,2.864 1.902,0.765 3.804,0.767 5.706,-0.002 C -0.091,2.853 -0.091,2.853 0,0" /></g><g
           transform="translate(5.8234,50.143)"
           id="g56"><path
             id="path58"
             style="fill:#c4c4c3;fill-opacity:1;fill-rule:nonzero;stroke:none"
             d="m 0,0 c -0.013,-0.976 -0.025,-1.951 -0.038,-2.927 -0.424,0.011 -0.855,0.076 -1.271,0.022 -1.233,-0.16 -1.8,0.292 -1.59,1.576 0.174,1.063 -0.329,1.466 -1.348,1.315 -1.141,-0.171 -1.569,0.215 -1.576,1.457 -0.008,1.293 0.519,1.502 1.615,1.445 1.375,-0.072 2.758,-0.007 4.137,-10e-4 0,0 0.12,-0.033 0.12,-0.033 C 0.616,1.892 0.622,0.941 0,0" /></g><g
           transform="translate(89.3642,47.2158)"
           id="g60"><path
             id="path62"
             style="fill:#c3c3c3;fill-opacity:1;fill-rule:nonzero;stroke:none"
             d="M 0,0 C 0,1.943 0,3.887 0,5.83 1.488,5.819 2.978,5.742 4.461,5.817 5.59,5.875 5.793,5.355 5.76,4.388 5.731,3.521 5.756,2.731 4.539,2.916 3.249,3.113 2.634,2.648 2.855,1.283 3.013,0.301 2.556,-0.068 1.592,0.023 1.067,0.073 0.531,0.011 0,0" /></g><g
           transform="translate(20.1876,61.6566)"
           id="g64"><path
             id="path66"
             style="fill:#1a1316;fill-opacity:1;fill-rule:nonzero;stroke:none"
             d="m 0,0 c -1.902,0.001 -3.803,0.001 -5.705,0.002 -0.1,2.875 -0.1,2.875 2.684,2.874 l 0.16,0 C 0.066,2.876 0.066,2.876 0,0" /></g><g
           transform="translate(46.1642,61.6715)"
           id="g68"><path
             id="path70"
             style="fill:#c4c3c3;fill-opacity:1;fill-rule:nonzero;stroke:none"
             d="m 0,0 c -0.982,0.001 -1.963,0.002 -2.945,0.004 0.012,0.367 0.063,0.739 0.028,1.101 -0.112,1.14 0.03,1.819 1.527,1.815 C 0.151,2.915 0,2.067 -0.025,1.102 -0.034,0.735 -0.009,0.368 0,0" /></g><g
           transform="translate(57.6886,61.6734)"
           id="g72"><path
             id="path74"
             style="fill:#c4c3c3;fill-opacity:1;fill-rule:nonzero;stroke:none"
             d="m 0,0 c -0.983,0.001 -1.965,0.001 -2.948,0.002 0.011,0.368 0.062,0.739 0.027,1.102 -0.111,1.139 0.028,1.819 1.527,1.814 C 0.147,2.913 -0.001,2.069 -0.026,1.103 -0.036,0.736 -0.01,0.368 0,0" /></g><g
           transform="translate(37.4908,58.7693)"
           id="g76"><path
             id="path78"
             style="fill:#a09795;fill-opacity:1;fill-rule:nonzero;stroke:none"
             d="M 0,0 C 0.005,0.946 0.01,1.891 0.015,2.837 0.967,2.838 1.92,2.839 2.872,2.84 2.904,0.007 2.904,0.007 0,0" /></g><g
           transform="translate(72.0876,27.0434)"
           id="g80"><path
             id="path82"
             style="fill:#c6c2bf;fill-opacity:1;fill-rule:nonzero;stroke:none"
             d="M 0,0 C -0.001,0.988 -0.002,1.976 -0.003,2.963 0.363,2.949 0.729,2.925 1.095,2.923 2.785,2.912 2.852,2.686 2.854,0.541 2.854,0.013 2.402,0.056 2.04,0.046 1.36,0.028 0.68,0.015 0,0" /></g><g
           transform="translate(53.4753,50.0787)"
           id="g84"><path
             id="path86"
             style="fill:#0e090c;fill-opacity:1;fill-rule:nonzero;stroke:none"
             d="m 0,0 c -2.013,0.001 -4.026,0.001 -6.039,0.002 -2.926,0.017 -5.854,0.11 -8.776,0.015 -1.285,-0.042 -1.186,0.626 -1.175,1.462 0.01,0.813 -0.143,1.684 1.162,1.457 1.314,-0.227 2.04,0.171 1.73,1.665 -0.203,0.982 0.226,1.381 1.209,1.213 1.239,-0.213 1.942,0.137 1.673,1.562 -0.19,1.006 0.193,1.354 1.272,1.343 C -3.089,8.665 2.768,8.673 8.623,8.713 9.623,8.72 10.018,8.501 9.968,7.409 9.874,5.337 9.886,3.256 9.958,1.182 9.991,0.233 9.652,0.024 8.777,0.032 5.852,0.062 2.926,0.017 0,0" /></g><g
           transform="translate(75.0186,58.7729)"
           id="g88"><path
             id="path90"
             style="fill:#0e090d;fill-opacity:1;fill-rule:nonzero;stroke:none"
             d="M 0,0 C 2.453,0.001 4.907,-0.026 7.36,0.016 8.183,0.031 8.605,-0.078 8.585,-1.077 8.521,-4.223 8.542,-7.37 8.576,-10.516 8.584,-11.258 8.39,-11.543 7.6,-11.538 c -5.119,0.029 -10.239,0.031 -15.359,0 -0.792,-0.004 -0.983,0.277 -0.975,1.017 0.033,3.146 0.053,6.294 -0.01,9.439 -0.02,0.995 0.397,1.111 1.224,1.096 C -5.014,-0.029 -2.507,-0.001 0,0" /></g><g
           transform="translate(5.8234,50.143)"
           id="g92"><path
             id="path94"
             style="fill:#a19795;fill-opacity:1;fill-rule:nonzero;stroke:none"
             d="M 0,0 C 0.016,0.951 0.032,1.903 0.049,2.854 8.67,2.859 17.291,2.865 25.911,2.87 25.906,-0.012 25.906,-0.013 23.076,-0.012 15.384,-0.009 7.692,-0.004 0,0" /></g><g
           transform="translate(31.7303,53.0088)"
           id="g96"><path
             id="path98"
             style="fill:#a19795;fill-opacity:1;fill-rule:nonzero;stroke:none"
             d="M 0,0 C 0.006,2.878 0.006,2.878 2.885,2.885 2.879,0.006 2.879,0.006 0,0" /></g><g
           transform="translate(34.6108,55.8893)"
           id="g100"><path
             id="path102"
             style="fill:#a29795;fill-opacity:1;fill-rule:nonzero;stroke:none"
             d="M 0,0 C 0.004,3.138 -0.243,2.878 2.885,2.885 2.88,0.006 2.88,0.006 0,0" /></g><g
           transform="translate(42.3291,11.4924)"
           id="g104"><path
             id="path106"
             style="fill:#1b1318;fill-opacity:1;fill-rule:nonzero;stroke:none"
             d="m 0,0 c -4.07,2.245 -7.377,5.258 -9.116,9.654 -2.824,7.143 -1.956,13.875 3.131,19.676 5.318,6.064 12.173,7.936 19.824,5.516 C 21.382,32.462 25.77,26.985 26.753,19.16 28.394,6.098 16.149,-4.44 3.424,-1.109 2.915,-0.975 2.395,-0.882 1.88,-0.77 1.157,-0.75 0.445,-0.701 0,0" /></g><g
           transform="translate(42.3291,11.4924)"
           id="g108"><path
             id="path110"
             style="fill:#fefefe;fill-opacity:1;fill-rule:nonzero;stroke:none"
             d="M 0,0 C 0.627,-0.257 1.253,-0.513 1.88,-0.77 0.258,-1.285 -0.024,-1.17 0,0" /></g><g
           transform="translate(71.9028,50.1306)"
           id="g112"><path
             id="path114"
             style="fill:#fefdfb;fill-opacity:1;fill-rule:nonzero;stroke:none"
             d="m 0,0 c -2.724,0.001 -2.724,0.001 -2.724,2.718 0,3.042 0,3.042 3.04,3.043 C 3.037,5.763 3.037,5.763 3.037,3.039 3.036,-0.001 3.036,-0.001 0,0" /></g><g
           transform="translate(50.8453,15.5645)"
           id="g116"><path
             id="path118"
             style="fill:#3c3041;fill-opacity:1;fill-rule:nonzero;stroke:none"
             d="m 0,0 c -7.45,-0.226 -13.354,5.563 -13.372,12.991 -0.016,7.137 5.833,13.043 13.097,12.954 7.222,-0.089 12.786,-5.71 12.866,-13.01 C 12.668,5.973 6.746,-0.177 0,0" /></g><g
           transform="translate(50.5655,18.4465)"
           id="g120"><path
             id="path122"
             style="fill:#1a1418;fill-opacity:1;fill-rule:nonzero;stroke:none"
             d="M 0,0 C -5.787,-0.341 -10.156,5.195 -10.259,9.849 -10.39,15.81 -4.883,20.304 -0.312,20.196 5.487,20.058 9.811,15.76 10.018,10.05 10.19,5.282 5.438,-0.339 0,0" /></g><g
           transform="translate(108.6781,51.2662)"
           id="g124"><path
             id="path126"
             style="fill:#2b2321;fill-opacity:1;fill-rule:nonzero;stroke:none"
             d="m 0,0 11.85,0 0,-3.775 2.963,0 0,-7.551 -2.963,0 0,-3.775 -14.812,0 0,3.775 -2.963,0 0,3.776 5.925,0 0,-3.776 8.888,0 0,7.551 -11.85,0 0,3.775 -2.963,0 0,7.55 2.963,0 0,3.775 11.85,0 0,-3.775 2.962,0 0,-3.775 -5.925,0 0,3.775 L 0,7.55 0,0 Z" /></g><g
           transform="translate(132.3778,55.0411)"
           id="g128"><path
             id="path130"
             style="fill:#2b2321;fill-opacity:1;fill-rule:nonzero;stroke:none"
             d="m 0,0 14.813,0 0,-3.775 -11.851,0 0,-11.326 11.851,0 0,-3.774 -14.813,0 0,3.774 -2.962,0 0,11.326 2.962,0 L 0,0 Z" /></g><path
           id="path132"
           style="fill:#2b2321;fill-opacity:1;fill-rule:nonzero;stroke:none"
           d="m 162.002,55.041 8.888,0 0,-3.775 -8.888,0 0,3.775 z m -2.963,-18.875 -5.924,0 0,18.875 5.924,0 0,-3.775 2.963,0 0,-3.775 -2.963,0 0,-11.325 z" /><path
           id="path134"
           style="fill:#2b2321;fill-opacity:1;fill-rule:nonzero;stroke:none"
           d="m 188.663,51.266 -5.925,0 0,-3.775 5.925,0 0,3.775 z m -8.887,3.775 11.85,0 0,-3.775 2.963,0 0,-7.55 -11.85,0 0,-3.775 11.85,0 0,-3.775 -14.813,0 0,3.775 -2.962,0 0,11.325 2.962,0 0,3.775 z" /><path
           id="path136"
           style="fill:#2b2321;fill-opacity:1;fill-rule:nonzero;stroke:none"
           d="m 212.363,51.266 -5.925,0 0,-3.775 5.925,0 0,3.775 z m -8.888,3.775 11.851,0 0,-3.775 2.962,0 0,-7.55 -11.85,0 0,-3.775 11.85,0 0,-3.775 -14.813,0 0,3.775 -2.962,0 0,11.325 2.962,0 0,3.775 z" /><g
           transform="translate(224.2123,55.0411)"
           id="g138"><path
             id="path140"
             style="fill:#2b2321;fill-opacity:1;fill-rule:nonzero;stroke:none"
             d="m 0,0 14.813,0 0,-3.775 2.962,0 0,-15.1 -5.925,0 0,15.1 -5.925,0 0,-15.1 -5.925,0 L 0,0 Z" /></g><g
           transform="translate(253.8368,51.2662)"
           id="g142"><path
             id="path144"
             style="fill:#000000;fill-opacity:1;fill-rule:nonzero;stroke:none"
             d="m 0,0 11.85,0 0,-3.775 2.963,0 0,-7.551 -2.963,0 0,-3.775 -14.812,0 0,3.775 -2.963,0 0,3.776 5.925,0 0,-3.776 8.888,0 0,7.551 -11.85,0 0,3.775 -2.963,0 0,7.55 2.963,0 0,3.775 11.85,0 0,-3.775 2.962,0 0,-3.775 -5.925,0 0,3.775 L 0,7.55 0,0 Z" /></g><g
           transform="translate(274.5736,62.5914)"
           id="g146"><path
             id="path148"
             style="fill:#000000;fill-opacity:1;fill-rule:nonzero;stroke:none"
             d="m 0,0 5.925,0 0,-7.55 8.888,0 0,-3.775 2.962,0 0,-15.101 -5.925,0 0,15.101 -5.925,0 0,-15.101 -5.925,0 L 0,0 Z" /></g><path
           id="path150"
           style="fill:#000000;fill-opacity:1;fill-rule:nonzero;stroke:none"
           d="m 310.123,51.266 -5.925,0 0,-11.326 5.925,0 0,11.326 z m 2.963,-15.1 -11.85,0 0,3.775 -2.963,0 0,11.325 2.963,0 0,3.775 11.85,0 0,-3.775 2.962,0 0,-11.325 -2.962,0 0,-3.775 z" /><g
           transform="translate(321.9725,55.0411)"
           id="g152"><path
             id="path154"
             style="fill:#000000;fill-opacity:1;fill-rule:nonzero;stroke:none"
             d="m 0,0 2.962,0 0,7.55 5.925,0 0,-7.55 8.888,0 0,-3.775 -8.888,0 0,-11.326 8.888,0 0,-3.774 -11.85,0 0,3.774 -2.963,0 0,11.326 L 0,-3.775 0,0 Z" /></g><g
           transform="translate(351.5966,47.4908)"
           id="g156"><path
             id="path158"
             style="fill:#000000;fill-opacity:1;fill-rule:nonzero;stroke:none"
             d="m 0,0 8.888,0 0,-3.775 2.962,0 0,-3.775 -2.962,0 0,-3.775 -14.813,0 0,3.775 11.85,0 0,3.775 -8.887,0 0,3.775 -2.963,0 0,3.775 2.963,0 0,3.775 14.812,0 0,-3.775 L 0,3.775 0,0 Z" /></g><g
           transform="translate(105.974,23.5802)"
           id="g160"><path
             id="path162"
             style="fill:#a19795;fill-opacity:1;fill-rule:nonzero;stroke:none"
             d="m 0,0 1.452,0 0,-1.453 2.905,0 0,2.905 -1.452,0 0,1.453 4.358,0 0,-5.81 -7.263,0 0,1.452 -1.453,0 0,1.453 -1.452,0 0,4.357 1.452,0 0,1.453 1.453,0 0,1.453 7.263,0 0,-1.453 -5.811,0 0,-1.453 L 0,4.357 0,0 Z" /></g><path
           id="path164"
           style="fill:#a19795;fill-opacity:1;fill-rule:nonzero;stroke:none"
           d="m 121.952,23.58 -2.905,0 0,-1.453 2.905,0 0,1.453 z m -4.358,1.452 4.358,0 0,1.453 -5.811,0 0,1.453 7.263,0 0,-1.453 1.453,0 0,-5.81 -7.263,0 0,1.453 -1.453,0 0,1.452 1.453,0 0,1.452 z" /><g
           transform="translate(127.7616,30.8429)"
           id="g166"><path
             id="path168"
             style="fill:#a19795;fill-opacity:1;fill-rule:nonzero;stroke:none"
             d="m 0,0 4.357,0 0,-10.168 -2.904,0 0,8.715 L 0,-1.453 0,0 Z" /></g><g
           transform="translate(135.0243,30.8429)"
           id="g170"><path
             id="path172"
             style="fill:#a19795;fill-opacity:1;fill-rule:nonzero;stroke:none"
             d="m 0,0 4.357,0 0,-10.168 -2.904,0 0,8.715 L 0,-1.453 0,0 Z" /></g><path
           id="path174"
           style="fill:#a19795;fill-opacity:1;fill-rule:nonzero;stroke:none"
           d="m 148.098,26.485 -2.905,0 0,-1.453 2.905,0 0,1.453 z m -4.358,1.453 5.81,0 0,-1.453 1.453,0 0,-2.905 -5.81,0 0,-1.452 5.81,0 0,-1.453 -7.263,0 0,1.453 -1.453,0 0,4.357 1.453,0 0,1.453 z" /><path
           id="path176"
           style="fill:#a19795;fill-opacity:1;fill-rule:nonzero;stroke:none"
           d="m 158.265,27.938 4.358,0 0,-1.453 -4.358,0 0,1.453 z m -1.452,-7.263 -2.905,0 0,7.263 2.905,0 0,-1.453 1.452,0 0,-1.453 -1.452,0 0,-4.357 z" /><g
           transform="translate(166.9803,20.6749)"
           id="g178"><path
             id="path180"
             style="fill:#a19795;fill-opacity:1;fill-rule:nonzero;stroke:none"
             d="m 0,0 4.357,0 0,1.453 -4.357,0 0,1.452 -1.453,0 0,4.358 2.906,0 0,-4.358 2.904,0 0,4.358 2.906,0 0,-7.263 -1.453,0 0,-1.453 -5.81,0 L 0,0 Z" /></g><g
           transform="translate(362.2794,17.9215)"
           id="g182"><path
             id="path184"
             style="fill:#d50f2a;fill-opacity:1;fill-rule:nonzero;stroke:none"
             d="M 0,0 -259.211,0 -256.21,-2.911 3,-2.911 0,0 Z" /></g><g
           transform="translate(366.2072,13.6647)"
           id="g186"><path
             id="path188"
             style="fill:#e5e2e1;fill-opacity:1;fill-rule:nonzero;stroke:none"
             d="M 0,0 -259.211,0 -256.21,-2.911 3,-2.911 0,0 Z" /></g><g
           transform="translate(52.2391,59.8387)"
           id="g190"><path
             id="path192"
             style="fill:#fdfbfc;fill-opacity:1;fill-rule:nonzero;stroke:none"
             d="m 0,0 -2.253,0 c -0.275,0 -0.5,0.225 -0.5,0.5 l 0,2.165 c 0,0.275 0.225,0.5 0.5,0.5 l 2.253,0 c 0.275,0 0.5,-0.225 0.5,-0.5 L 0.5,0.5 C 0.5,0.225 0.275,0 0,0" /></g><g
           transform="translate(22.698,42.3727)"
           id="g194"><path
             id="path196"
             style="fill:#e5e2e1;fill-opacity:1;fill-rule:nonzero;stroke:none"
             d="m 0,0 -12.158,0 c -0.55,0 -1,0.45 -1,1 l 0,3.876 c 0,0.55 0.45,1 1,1 L 0,5.876 c 0.55,0 1,-0.45 1,-1 L 1,1 C 1,0.45 0.55,0 0,0" /></g><path
           id="path198"
           style="fill:#d4102e;fill-opacity:1;fill-rule:nonzero;stroke:none"
           d="m 15.006,45.474 -2.775,0 0,2.775 2.775,0 0,-2.775 z" /><path
           id="path200"
           style="fill:#d4102e;fill-opacity:1;fill-rule:nonzero;stroke:none"
           d="m 21.042,45.474 -2.775,0 0,2.775 2.775,0 0,-2.775 z" /><path
           id="path202"
           style="fill:#d50f2a;fill-opacity:1;fill-rule:nonzero;stroke:none"
           d="m 358.418,22.282 -6.338,0 0,3.191 6.338,0 0,-3.191 z" /><path
           id="path204"
           style="fill:#d50f2a;fill-opacity:1;fill-rule:nonzero;stroke:none"
           d="m 374.212,22.282 -6.338,0 0,3.191 6.338,0 0,-3.191 z" /><path
           id="path206"
           style="fill:#d50f2a;fill-opacity:1;fill-rule:nonzero;stroke:none"
           d="m 358.418,3.055 -6.338,0 0,3.191 6.338,0 0,-3.191 z" /><path
           id="path208"
           style="fill:#d50f2a;fill-opacity:1;fill-rule:nonzero;stroke:none"
           d="m 377.368,3.055 -9.301,0 0,3.191 9.301,0 0,-3.191 z" /><g
           transform="translate(374.3132,9.3013)"
           id="g210"><path
             id="path212"
             style="fill:#d50f2a;fill-opacity:1;fill-rule:nonzero;stroke:none"
             d="m 0,0 0,-9.301 -3.191,0 0,9.301 L 0,0 Z" /></g><path
           id="path214"
           style="fill:#d50f2a;fill-opacity:1;fill-rule:nonzero;stroke:none"
           d="m 374.311,19.113 -3.191,0 0,6.338 3.191,0 0,-6.338 z" /><path
           id="path216"
           style="fill:#d50f2a;fill-opacity:1;fill-rule:nonzero;stroke:none"
           d="m 355.271,3.095 -3.191,0 0,6.338 3.191,0 0,-6.338 z" /><path
           id="path218"
           style="fill:#d50f2a;fill-opacity:1;fill-rule:nonzero;stroke:none"
           d="m 355.271,19.113 -3.191,0 0,6.338 3.191,0 0,-6.338 z" /><path
           id="path220"
           style="fill:#d50f2a;fill-opacity:1;fill-rule:nonzero;stroke:none"
           d="m 374.311,14.892 -3.191,0 0,3.125 3.191,0 0,-3.125 z" /><path
           id="path222"
           style="fill:#d50f2a;fill-opacity:1;fill-rule:nonzero;stroke:none"
           d="m 374.311,10.515 -3.191,0 0,3.125 3.191,0 0,-3.125 z" /><path
           id="path224"
           style="fill:#d50f2a;fill-opacity:1;fill-rule:nonzero;stroke:none"
           d="m 367.042,22.314 -3.191,0 0,3.125 3.191,0 0,-3.125 z" /><path
           id="path226"
           style="fill:#d50f2a;fill-opacity:1;fill-rule:nonzero;stroke:none"
           d="m 362.665,22.314 -3.191,0 0,3.125 3.191,0 0,-3.125 z" /><path
           id="path228"
           style="fill:#e5e2e1;fill-opacity:1;fill-rule:nonzero;stroke:none"
           d="m 355.271,15.011 -3.191,0 0,2.911 3.191,0 0,-2.911 z" /><path
           id="path230"
           style="fill:#d50f2a;fill-opacity:1;fill-rule:nonzero;stroke:none"
           d="m 355.271,10.754 -3.191,0 0,2.911 3.191,0 0,-2.911 z" /><path
           id="path232"
           style="fill:#d50f2a;fill-opacity:1;fill-rule:nonzero;stroke:none"
           d="m 362.665,3.088 -3.191,0 0,3.125 3.191,0 0,-3.125 z" /><path
           id="path234"
           style="fill:#d50f2a;fill-opacity:1;fill-rule:nonzero;stroke:none"
           d="m 367.042,3.088 -3.191,0 0,3.125 3.191,0 0,-3.125 z" /></g></g></g></svg>