<?xml version="1.0" encoding="utf-8"?>
<!-- Generator: Adobe Illustrator 16.0.3, SVG Export Plug-In . SVG Version: 6.00 Build 0)  -->
<!DOCTYPE svg PUBLIC "-//W3C//DTD SVG 1.1//EN" "http://www.w3.org/Graphics/SVG/1.1/DTD/svg11.dtd">
<svg version="1.1" id="Ebene_2" xmlns="http://www.w3.org/2000/svg" xmlns:xlink="http://www.w3.org/1999/xlink" x="0px" y="0px"
	 width="566.929px" height="77.199px" viewBox="0 0 566.929 77.199" enable-background="new 0 0 566.929 77.199"
	 xml:space="preserve">
<g>
	<g>
		<path d="M76.534,26.614l-1.553-0.719c0.097-0.32,0.194-0.719,0.194-1.119c0-1.039-9.127-6.633-24.953-6.633
			c-15.146,0-21.651,3.836-21.651,8.79c0,13.104,57.186-6.072,57.186,22.854c0,10.548-12.428,18.699-37.283,18.699
			c-23.689,0-30.486-6.233-32.719-6.233c-0.583,0-0.874,0.398-1.359,0.639l-1.262-0.24l8.058-13.585l1.554,0.639
			c0,0.322-0.195,0.642-0.195,1.28c0,4.716,12.525,8.069,24.953,8.069c17.671,0,23.69-4.153,23.69-8.55
			c0-15.66-56.41,3.755-56.41-22.771c0-13.425,17.185-19.019,36.021-19.019c16.894,0,28.739,6.073,29.904,6.073
			c1.262,0,1.456-0.319,1.748-0.559l1.553,0.399L76.534,26.614z"/>
		<path d="M93.229,66.567c2.136,0,2.524-0.639,2.524-2.398V13.03c0-1.758-0.389-2.397-2.524-2.397V9.514h63.012
			c2.33,0,3.301-0.64,3.301-1.758h1.359v13.265h-1.359c0-1.438-0.971-2.077-3.301-2.077H109.54v14.224h30.487
			c2.33,0,3.301-0.64,3.301-2.078h1.359v13.422h-1.359c0-0.639-0.194-1.118-0.777-1.438c-0.485-0.319-1.359-0.48-2.524-0.48H109.54
			v15.664h47.575c2.33,0,3.301-0.641,3.301-1.918h1.359v13.104h-1.359c0-1.119-0.971-1.758-3.301-1.758H93.229V66.567z"/>
		<path d="M247.888,37.002v1.119c-0.971,0.16-1.845,0.799-1.845,2.557v15.741c0,1.279,0.486,1.757,1.748,1.997v1.119
			c-6.117,2.876-21.069,8.951-37.866,8.951c-22.331,0-41.943-9.112-41.943-29.886c0-20.776,22.913-29.886,43.108-29.886
			c7.962,0,15.535,1.518,21.069,2.957c5.146,1.838,8.932,3.277,9.612,3.277c0.874,0,1.748-0.4,2.136-0.879l1.359,0.479
			l-9.417,13.104l-1.36-0.719c0.097-0.319,0.194-0.799,0.194-1.358c0-2.478-10.485-7.432-23.398-7.432
			c-16.311,0-29.515,6.633-29.515,20.138c0,14.143,13.204,20.773,28.156,20.773c12.234,0,19.418-3.436,22.331-5.193V47.23h-16.699
			c-1.942,0-3.107,0.799-3.107,1.916h-1.36V35.085h1.36c0,1.118,1.165,1.917,3.107,1.917H247.888z"/>
		<path d="M252.736,67.687v-1.119c1.748-0.079,2.33-0.479,3.689-3.037l26.506-49.062c0.485-0.799,1.067-1.678,1.067-2.397
			c0-0.879-0.775-1.279-2.039-1.438V9.514h21.167v1.119c-1.456,0.16-2.04,0.639-2.04,1.199c0,0.639,0.389,1.278,0.874,2.078
			l28.156,49.621c1.359,2.478,1.748,3.037,3.786,3.037v1.119h-19.32v-1.119c1.263,0,1.748-0.4,1.748-0.799
			c0-0.879-0.874-1.998-7.38-13.425h-33.302c-5.631,10.387-7.087,11.986-7.087,13.025c0,0.719,0.582,1.119,1.456,1.198v1.119
			H252.736z M303.321,43.234l-11.651-20.935l-11.457,20.935H303.321z"/>
	</g>
	<g>
		<path d="M546.461,77.199H0V0h546.461V77.199z M4.917,72.282h536.627V4.917H4.917V72.282z"/>
	</g>
	<g>
		<polygon points="548.183,1.424 551.504,1.424 551.504,10.271 553.137,10.271 553.137,1.424 556.459,1.424 556.459,0 548.183,0 		
			"/>
		<polygon points="564.854,0 561.807,8.09 558.774,0 556.7,0 556.7,10.271 558.262,10.271 558.262,2.599 561.142,10.271 
			562.487,10.271 565.366,2.602 565.366,10.271 566.929,10.271 566.929,0 		"/>
	</g>
	<path d="M350.736,9.514v58.172h186.856V9.514H350.736z M358.657,50.349c-1.553-10.357,32.851-24.162,77.67-31.437
		c-1.011,0.261-2.969,0.762-2.969,0.762s-4.404,1.076-5.622,1.374c-22.864,5.587-38.882,15.652-37.545,24.577
		c1.37,9.137,20.469,14.083,44.766,12.392c1.35-0.095,6.139-0.325,7.181-0.372C397.149,63.824,360.209,60.709,358.657,50.349z
		 M470.697,52.587c-9.931,2.257-22.345,4.173-22.345,4.173V30.801l6.4,21.124c0,0,15.242-2.474,26.844-7.304
		c10.084-4.199,16.339-9.466,15.917-15.077c-0.684-9.115-20.068-13.978-43.999-12.439c-1.596,0.103-6.895,0.375-7.937,0.421
		c44.981-6.181,81.917-3.064,83.471,7.293C530.369,33.629,505.677,44.928,470.697,52.587z"/>
</g>
</svg>
