<?xml version="1.0"?>
<svg xmlns="http://www.w3.org/2000/svg" viewBox="0 0 217.214 111.831">
  <path d="M22.685 2.814C28.051.697 33.88.207 39.59.015c1.178-.076 2.337.16 3.511.186 3.341.328 6.671.842 9.938 1.629 5.519 1.284 10.762 3.544 15.745 6.208a90.064 90.064 0 0 1 8.136 4.933c.91.652 1.782 1.36 2.709 1.988 3.619 2.698 6.946 5.77 10.084 9.008.264.251.498.643.921.566 3.22-.085 6.459.357 9.529 1.336 2.833.942 5.593 2.58 7.187 5.178 1.747 2.762 2.003 6.135 2.079 9.319.002 5.589.002 11.177 0 16.766.007.632-.057 1.275.105 1.895 1.834 7.497 2.383 15.406.811 23.001-1.266 6.513-4.198 12.742-8.65 17.684-4.712 5.306-11.12 9-17.979 10.733-6.03 1.563-12.366 1.723-18.517.879-7.9-1.067-15.511-3.785-22.536-7.51C31.285 97.716 21.435 88.88 13.89 78.423 7.503 69.52 2.789 59.299.885 48.469.47 46.04.161 43.587.098 41.121a23.804 23.804 0 0 1-.004-4.288c.275-7.893 2.632-15.83 7.346-22.228 1.294-1.45 2.433-3.041 3.861-4.369a36.063 36.063 0 0 1 11.384-7.422zm11.4-1.933c-6.959.805-13.788 3.614-18.915 8.451-.89.634-1.509 1.543-2.25 2.326-2.143 2.423-3.835 5.215-5.162 8.158-1.5 3.557-2.497 7.335-2.871 11.177-.221.973-.083 1.979-.245 2.961-.264 6.854.892 13.729 3.035 20.238 2.438 7.406 6.107 14.384 10.606 20.743 6.926 9.69 15.76 18.041 25.986 24.175 6.479 3.874 13.543 6.828 20.942 8.389 5.254 1.096 10.687 1.439 16.018.765 6.328-.793 12.515-3.24 17.404-7.379 4.084-3.4 7.2-7.902 9.104-12.854 2.025-5.178 2.722-10.794 2.619-16.326-.173-2.72-.35-5.457-.927-8.127-.013 1.119-.098 2.23-.197 3.343-.332 3.223-1.205 6.596-3.529 8.98-1.732 1.883-4.052 3.185-6.54 3.759-3.819.916-7.771.634-11.663.682-5.831-.004-11.66.002-17.491-.002-.017-18.604-.011-37.205-.004-55.809 6.22.002 12.439-.002 18.659.002a87.12 87.12 0 0 0-14.84-12.493C64.362 5.798 53.469 1.382 42.083.631c-2.668-.141-5.346-.082-7.998.25zm51.731 34.447c-.004 11.509 0 23.019-.002 34.528 1.424.018 2.849.017 4.275.004 1.001-.079 2.145-.205 2.816-1.047.831-1.06.724-2.482.744-3.75.004-8.475.011-16.951-.004-25.426.024-1.198-.09-2.469-.835-3.461-.721-.566-1.629-.816-2.534-.837-1.486-.03-2.973 0-4.46-.011z"/>
  <path d="M39.763 23.673c2.014-.122 4.045-.359 6.059-.096 2.42.066 4.83.498 7.139 1.22 3.037.938 5.963 2.591 7.895 5.167 1.631 2.191 2.213 4.963 2.318 7.642.009 2.504.007 5.009 0 7.513-5.108.016-10.217-.015-15.327.016-.142-1.828-.024-3.671-.059-5.503-.042-1.152.105-2.396-.488-3.437-.49-1.028-1.672-1.513-2.751-1.578-1.209-.077-2.532-.024-3.54.732-.923.685-1.301 1.891-1.253 3.006.002 9.579-.005 19.16.002 28.739-.024.853.289 1.677.811 2.344 1.196.997 2.842 1.107 4.325.92.886-.157 1.847-.529 2.307-1.355.702-1.111.54-2.488.586-3.741-.013-1.85.017-3.701-.017-5.549 5.199.011 10.397.005 15.594.002-.076 3.816.269 7.69-.569 11.448-.667 2.906-2.499 5.532-5.04 7.104-3.684 2.352-8.177 2.949-12.46 3.061-1.286.162-2.574-.052-3.863-.055-4.051-.241-8.289-.844-11.728-3.166a11.84 11.84 0 0 1-4.462-5.331c-.956-2.186-1.156-4.609-1.137-6.968.002-7.738 0-15.476.002-23.216.02-2.431-.12-4.887.334-7.287.378-3.339 2.246-6.483 5.053-8.344 3.01-2.09 6.677-2.912 10.269-3.288zM198.667 24.418c1.998-.011 3.995-.009 5.993 0 .018.461.018.923.015 1.386-.741.02-1.482.013-2.219.009-.007 2.248.013 4.495-.011 6.743a58.35 58.35 0 0 1-1.565.004c-.028-2.246 0-4.491-.013-6.737-.739-.007-1.476 0-2.211-.017-.004-.463-.002-.926.011-1.388zM207.122 24.416c.722-.004 1.447-.004 2.173-.015.588 1.974 1.063 3.981 1.607 5.967.595-1.97 1.037-3.984 1.603-5.964.715.007 1.432.009 2.149.004.018 2.718.007 5.438.005 8.157l-1.461-.005c-.04-2.13.12-4.263.103-6.386-.558 1.911-1.052 3.84-1.544 5.77a3.77 3.77 0 0 1-.241.638c-.426-.02-.85-.022-1.272-.011-.64-2.145-1.102-4.344-1.777-6.476.094 2.154.123 4.314.111 6.47a88.667 88.667 0 0 0-1.458-.004c-.011-2.716-.013-5.43.002-8.145zM111.275 24.525c13.138.022 26.276-.002 39.415.011.002 3.555.002 7.11 0 10.666-3.741.007-7.484.007-11.225-.002-.201.05-.667-.116-.66.212-.006 14.981.011 29.961-.004 44.94-5.239-.011-10.477.004-15.714-.007-.031-15.036.022-30.074-.028-45.11-3.938-.066-7.878-.009-11.816-.03-.066-2.449-.007-4.902-.026-7.353.036-1.108-.067-2.221.058-3.327zM152.354 24.536c5.123-.009 10.248.002 15.371-.004 1.743 12.769 3.494 25.538 5.234 38.307.199 1.419.352 2.849.608 4.259 2.035-14.177 3.916-28.382 5.934-42.564 5.199.002 10.397-.009 15.598.005-.831 3.813-1.493 7.663-2.259 11.489-2.893 14.77-5.705 29.558-8.626 44.323-7.139-.011-14.278.015-21.418-.013-3.334-17.968-6.758-35.919-10.126-53.88-.113-.64-.277-1.272-.316-1.922zM181.573 90.191c1.635-.929 3.881-.837 5.289.476.533.555.862 1.261 1.104 1.985-.604.153-1.203.328-1.812.453-.175-.571-.4-1.222-.986-1.485-.649-.383-1.423-.335-2.13-.19-1.113.52-1.73 1.743-1.74 2.938-.05 1.124.129 2.409 1.03 3.188.645.604 1.618.726 2.451.509.824-.291 1.336-1.065 1.611-1.859.59.236 1.172.492 1.765.722-.094.16-.182.324-.267.488-.606 1.448-2.094 2.457-3.658 2.512-1.284.107-2.622-.322-3.536-1.242-1.043-1.091-1.485-2.646-1.421-4.132-.037-1.707.809-3.478 2.3-4.363zM131.37 89.81a110.1 110.1 0 0 1 1.817.004c.013 3.297.007 6.594.004 9.889-.608.011-1.214.009-1.821.005-.008-3.299-.006-6.599 0-9.898zM135.442 89.812c.529-.002 1.058-.002 1.589-.018 1.533 2.256 2.884 4.635 4.412 6.894a8.021 8.021 0 0 0-.052-1.378c-.092-1.482-.015-2.971-.149-4.449-.02-.357.033-.711.076-1.063.551.017 1.106.017 1.66-.006.122.476.076.969.081 1.456 0 2.821-.006 5.643.002 8.464-.538-.03-1.106.068-1.624-.05-1.478-2.226-2.788-4.565-4.294-6.771.063 2.27.103 4.541.116 6.813-.608.009-1.214.009-1.821 0-.005-3.297-.012-6.595.004-9.892zM144.48 89.832c2.436-.002 4.873-.02 7.311.007 0 .569-.002 1.139-.009 1.708-.91.005-1.819.004-2.727.009-.005 2.715.004 5.429-.005 8.146-.61.011-1.218.011-1.826.004-.018-2.716 0-5.431-.009-8.147-.907-.02-1.815.007-2.722-.018-.013-.57-.015-1.14-.013-1.709zM153.119 89.814c2.329-.004 4.661-.015 6.992.004.005.569.005 1.143-.009 1.714-1.723-.007-3.444.004-5.166-.004-.002.759 0 1.52-.005 2.28 1.59.03 3.183-.009 4.773.024 0 .522-.002 1.045-.011 1.568-1.587.011-3.172-.004-4.756.009-.002.864 0 1.73-.004 2.595 1.845.041 3.691-.011 5.536.046 0 .549-.002 1.102-.005 1.653-2.447.015-4.895.009-7.342.002-.016-3.298-.012-6.594-.003-9.891zM161.839 89.819c1.266-.017 2.534-.005 3.804-.015.968-.015 1.992.26 2.696.956.962 1.056 1.139 2.823.26 3.981-.343.455-.857.73-1.343.999.678 1.338 1.493 2.604 2.121 3.968-.678.004-1.354-.007-2.031.011-.737-1.17-1.283-2.447-1.979-3.638a13.024 13.024 0 0 0-1.616-.051c-.013 1.224-.002 2.446-.004 3.669-.638.015-1.273.015-1.909.002.001-3.294.005-6.589.001-9.882zm1.904 1.644c-.002 1.025.011 2.049-.011 3.074.864.063 1.729-.068 2.584-.186 1.017-.299 1.347-1.786.52-2.464-.861-.715-2.072-.384-3.093-.424zM173.237 89.799c.649.011 1.299.019 1.95-.007.262.389.389.846.536 1.288.949 2.888 1.985 5.744 2.925 8.634a68.044 68.044 0 0 0-1.917.007c-.28-.615-.387-1.288-.621-1.918-1.226-.004-2.449 0-3.673-.004-.227.627-.394 1.272-.588 1.909-.667.004-1.334.007-1.998-.011 1.175-3.282 2.2-6.618 3.386-9.898zm-.302 6.332c.888-.005 1.778-.004 2.668.002a182.16 182.16 0 0 0-1.297-4.346c-.58 1.397-.927 2.894-1.371 4.344zM188.679 89.826c2.401 0 4.802.011 7.204-.009.09.577.057 1.161-.007 1.74-.892-.016-1.782-.007-2.672-.004.024 2.715-.005 5.429.015 8.146-.634.016-1.266.015-1.898.007-.007-2.718.002-5.436-.004-8.155-.879-.004-1.758-.004-2.635 0-.005-.575-.005-1.15-.003-1.725zM197.349 89.81c.604-.002 1.211-.002 1.819.002-.002 3.297.005 6.594-.004 9.891a61.42 61.42 0 0 1-1.821.004c-.003-3.3-.014-6.598.006-9.897zM200.44 89.81c.619-.002 1.24.002 1.861-.009.822 2.543 1.402 5.171 2.257 7.701.569-2.062 1.141-4.124 1.712-6.185.162-.512.223-1.062.501-1.528.608.024 1.216.018 1.828.029-.958 3.295-1.884 6.599-2.836 9.896-.824-.011-1.646-.004-2.466-.005-.939-3.302-2.006-6.575-2.857-9.899zM209.863 89.804c2.316.018 4.635-.007 6.951.009.006.542.006 1.082.024 1.624-.468.151-.964.081-1.443.09-1.26-.002-2.521-.002-3.78.004 0 .75.007 1.502-.007 2.254 1.583.076 3.168.011 4.753.035.007.533.037 1.067-.026 1.6-1.57-.037-3.14-.005-4.71-.018-.002.885-.055 1.773.039 2.657 1.821-.064 3.643.011 5.466-.037.031.562.03 1.126.011 1.69-2.436-.007-4.873.004-7.309-.004.041-3.303-.029-6.603.031-9.904zM131.373 101.204c.901-.013 1.8-.011 2.702.004.623 2.396 1.205 4.81 1.915 7.182.645-2.392 1.261-4.793 1.88-7.193.896.004 1.791-.006 2.689.011.002 3.297 0 6.596 0 9.892-.608 0-1.213.002-1.817.004-.011-2.617.09-5.23.151-7.843-.761 2.591-1.424 5.213-2.081 7.834-.564.011-1.126.011-1.688 0-.678-2.598-1.345-5.199-2.062-7.786-.135 1.264.112 2.525.039 3.791.09 1.332.064 2.667.098 4.003-.608 0-1.216 0-1.824-.004-.013-3.299-.013-6.598-.002-9.895zM143.215 101.206c.627-.009 1.251-.011 1.878-.011-.002 2.029-.011 4.058-.002 6.087.035.571-.005 1.238.459 1.66.61.619 1.561.643 2.364.492.761-.131 1.417-.829 1.367-1.625-.005-2.2-.011-4.403-.004-6.603a62.076 62.076 0 0 1 1.93-.002 984.996 984.996 0 0 0-.002 6.432c.007.912-.24 1.88-.905 2.538-.838.868-2.092 1.187-3.267 1.157-1.144-.005-2.394-.359-3.102-1.321-.608-.627-.715-1.546-.726-2.379.01-2.142-.006-4.283.01-6.425zM154.033 101.199a54.642 54.642 0 0 1 1.81.011c.005 2.722.009 5.446 0 8.171 1.294.004 2.587.004 3.881.002.009.571.009 1.144 0 1.718-1.904.007-3.807-.011-5.709.013.038-3.305.001-6.611.018-9.915zM159.678 101.204c2.418-.002 4.836-.002 7.254 0 .002.566.002 1.133.002 1.701-.896.02-1.789-.013-2.683.015 0 2.492-.007 4.983.011 7.476-.004.24-.03.479-.076.717-.608-.017-1.214-.013-1.821-.011-.022-2.731.015-5.46-.018-8.192-.885-.05-1.771.02-2.654-.022-.036-.561-.008-1.123-.015-1.684zM168.829 101.206a77.574 77.574 0 0 1 1.869-.005c-.004 3.302.057 6.61-.033 9.911-.612-.013-1.224-.011-1.834-.011-.011-3.299-.004-6.596-.002-9.895zM173.387 101.199c.894 0 1.786-.004 2.679.006.564 2.381 1.292 4.721 1.813 7.112.267-.12.232-.457.326-.686.538-2.151 1.111-4.296 1.675-6.439.892.015 1.784 0 2.678.013-.002 3.297 0 6.594 0 9.891-.601.007-1.202.007-1.799.013-.033-2.622.065-5.243.114-7.863-.72 2.608-1.434 5.217-2.068 7.847-.56.013-1.12.015-1.679.005-.671-2.595-1.406-5.177-2.022-7.788-.181 2.597.107 5.189.101 7.788-.61.005-1.22.005-1.828.005.01-3.301 0-6.602.01-9.904zM185.205 101.201c2.324-.006 4.646-.002 6.97-.002.002.553.007 1.108.033 1.66-1.719-.004-3.441-.033-5.158.022-.046.759-.03 1.52-.022 2.283 1.59.048 3.188-.07 4.775.061-.011.496-.013.993-.007 1.493-1.589.011-3.177-.011-4.764.013-.02.875-.009 1.751-.013 2.628 1.841.004 3.682-.005 5.523.002.007.581.007 1.161.004 1.741-2.446-.002-4.891.002-7.338 0-.012-3.3-.007-6.601-.003-9.901zM194.283 101.212c1.266-.017 2.532 0 3.8-.013 1.159-.013 2.359.352 3.201 1.178 1.13 1.196 1.506 2.936 1.364 4.537-.146 1.183-.558 2.418-1.508 3.197-.94.815-2.241.991-3.439.995-1.141-.024-2.283.031-3.422-.035.002-3.286.008-6.573.004-9.859zm1.924 1.691c-.004 2.149.002 4.299-.002 6.45 1.091-.009 2.26.16 3.28-.315.877-.407 1.152-1.452 1.189-2.337.07-1.104-.048-2.366-.894-3.172-1.01-.83-2.368-.616-3.573-.626zM204.8 101.204a49.207 49.207 0 0 1 1.882.004c-.007 3.295-.002 6.588-.002 9.883-.595.013-1.191.007-1.782.026a1.851 1.851 0 0 1-.103-.527c.003-3.129.009-6.256.005-9.386zM211.777 101.197c.689.004 1.378 0 2.07.002 1.111 3.306 2.248 6.603 3.367 9.905a78.847 78.847 0 0 0-1.946.005c-.241-.647-.391-1.321-.628-1.966-1.213.005-2.425-.024-3.634.022-.223.643-.407 1.299-.63 1.944-.663-.013-1.323-.005-1.983-.018 1.158-3.287 2.23-6.606 3.384-9.894zm-.282 6.306c.885-.002 1.769.006 2.655-.004-.422-1.462-.837-2.928-1.316-4.371-.524 1.428-.913 2.912-1.339 4.375z"/>
</svg>
