<?xml version="1.0" encoding="utf-8"?>
<!-- Generator: Adobe Illustrator 16.0.3, SVG Export Plug-In . SVG Version: 6.00 Build 0)  -->
<!DOCTYPE svg PUBLIC "-//W3C//DTD SVG 1.1//EN" "http://www.w3.org/Graphics/SVG/1.1/DTD/svg11.dtd">
<svg version="1.1"
	 id="svg2" xmlns:cc="http://creativecommons.org/ns#" xmlns:svg="http://www.w3.org/2000/svg" xmlns:dc="http://purl.org/dc/elements/1.1/" xmlns:rdf="http://www.w3.org/1999/02/22-rdf-syntax-ns#"
	 xmlns="http://www.w3.org/2000/svg" xmlns:xlink="http://www.w3.org/1999/xlink" x="0px" y="0px" width="567.429px"
	 height="113.032px" viewBox="0 0 567.429 113.032" enable-background="new 0 0 567.429 113.032" xml:space="preserve">
<g>
	<path id="path2998" d="M165.884,28.918v28.77v28.769h5.039h5.039V60.776V35.095h6.186c4.461,0,6.475,0.12,7.233,0.437
		c1.496,0.625,3.036,2.529,3.667,4.521c0.331,1.047,0.604,3.313,0.701,5.831c0.2,5.154-0.398,8.356-1.971,10.433
		c-1.641,2.168-2.645,2.51-7.284,2.51h-3.982v3.119v3.127l6.257-0.121l6.258-0.122l2.214-1.046c4.045-1.908,6.982-5.811,8.167-10.84
		c0.662-2.808,0.652-9.086-0.021-12.099c-0.646-2.896-1.991-5.813-3.504-7.579c-0.633-0.738-1.857-1.797-2.712-2.347
		c-2.933-1.882-4.062-2.001-18.356-2.001H165.884z M210.419,28.918v28.77v28.769h5.038h5.039V57.688v-28.77h-5.039H210.419z
		 M336.791,28.918c-4.514,0.001-9.158,0.16-10.321,0.346c-2.622,0.418-5.682,1.805-7.415,3.372c-1.748,1.579-3.238,3.949-4.044,6.44
		c-0.501,1.548-0.659,2.959-0.68,5.933c-0.028,4.103,0.317,5.851,1.728,8.614c0.916,1.798,3.361,4.393,5.039,5.363
		c1.948,1.129,4.44,1.727,8.725,2.072c3.26,0.264,4.02,0.426,5.08,1.129c0.834,0.551,1.566,1.453,2.184,2.711
		c0.87,1.771,0.919,2.141,0.915,5.953c-0.004,3.801-0.058,4.176-0.896,5.771c-0.567,1.083-1.385,2.032-2.244,2.601l-1.352,0.895
		l-8.563,0.102l-8.553,0.092v3.077v3.068h9.73c5.92,0,10.412-0.146,11.459-0.366c3.984-0.839,7.299-3.421,8.908-6.938
		c1.357-2.963,1.834-6.008,1.656-10.576c-0.186-4.817-0.9-7.441-2.824-10.32c-2.389-3.576-5.063-4.802-11.854-5.424
		c-2.513-0.23-5.086-0.635-5.72-0.904c-1.397-0.592-2.704-2.082-3.28-3.738c-0.57-1.633-0.561-6.361,0.02-8.359
		c0.572-1.973,2.306-3.79,4.135-4.338c0.884-0.266,3.852-0.396,8.848-0.396H345v-3.09v-3.088H336.791L336.791,28.918z
		 M452.597,28.918v4.227v4.226h5.039h5.039v-4.226v-4.227h-5.039H452.597z M355.695,35.42l0.104,20.723
		c0.09,20.399,0.104,20.754,0.803,22.604c0.389,1.033,1.225,2.58,1.857,3.443c1.293,1.76,2.973,2.994,5.1,3.738
		c1.023,0.359,2.76,0.498,6.064,0.51l4.633,0.02V83.37v-3.088h-3.027c-2.881,0-3.072-0.039-3.891-0.895
		c-0.508-0.529-1.006-1.563-1.207-2.52c-0.221-1.032-0.313-6.405-0.256-14.791l0.092-13.164l5.445-0.092l5.445-0.092v-3.076v-3.08
		h-5.527h-5.525v-3.576V35.42h-5.049H355.695L355.695,35.42z M425.291,35.42v20.469c0,19.797,0.023,20.54,0.672,22.512
		c0.77,2.347,2.338,4.672,4.043,5.973c0.65,0.497,1.939,1.165,2.863,1.482c1.289,0.445,2.73,0.582,6.156,0.59l4.469,0.01v-3.088
		V80.28h-2.885c-2.41,0-3.02-0.104-3.727-0.662c-0.467-0.365-0.996-1.205-1.18-1.868c-0.205-0.739-0.336-6.584-0.336-15.106V48.748
		h5.537h5.537l-0.092-3.007l-0.092-3.008l-5.445-0.09l-5.443-0.093v-3.565V35.42h-5.039H425.291L425.291,35.42z M416.402,42.489
		l-10.758,0.174c-11.568,0.178-12.766,0.32-16.162,2.042c-3.799,1.925-6.447,5.663-7.648,10.788
		c-0.502,2.138-0.59,3.979-0.59,12.109c0,9.231,0.027,9.661,0.742,11.428c1.441,3.561,3.586,5.759,6.674,6.826
		c1.361,0.471,2.781,0.58,7.457,0.588l5.771,0.011v-3.089v-3.088h-4.043c-3.828,0-4.088-0.047-4.998-0.813
		c-0.602-0.505-1.092-1.35-1.32-2.255c-0.453-1.794-0.475-15.937-0.031-19.362c0.631-4.865,1.727-7.146,4.014-8.371
		c0.787-0.42,2.145-0.57,5.973-0.67l4.957-0.132v18.896v18.885h5.203h5.201V74.315c0-6.674-0.105-16.567-0.225-21.982
		L416.402,42.489z M263.73,42.5l-10.808,0.162c-11.746,0.181-13.433,0.396-16.64,2.113c-3.725,1.994-6.385,5.936-7.508,11.123
		c-0.713,3.295-1.047,16.791-0.498,20.053c0.48,2.847,1.811,5.713,3.404,7.334c1.172,1.193,3.117,2.369,4.743,2.865
		c0.447,0.137,3.481,0.258,6.745,0.273l5.932,0.031v-3.088V80.28h-4.154c-4.686,0-5.303-0.221-6.186-2.235
		c-0.395-0.897-0.549-2.662-0.65-7.416c-0.146-6.756,0.324-14.086,1.056-16.519c0.657-2.185,1.881-3.863,3.321-4.57
		c1.052-0.516,2.019-0.613,6.125-0.62l4.875-0.011l0.082,18.773l0.082,18.772h5.039h5.039V64.473V42.5L263.73,42.5z M274.58,42.571
		c-2.928,0-5.319,0.037-5.313,0.082c0.004,0.045,3.346,9.857,7.426,21.811l7.416,21.738l-4.176,10.769
		c-2.295,5.927-4.175,10.819-4.175,10.869s1.993,0.05,4.429,0l4.43-0.091l12.951-32.508c7.127-17.879,12.963-32.543,12.963-32.588
		c0.002-0.045-2.102-0.082-4.684-0.082c-3.404,0-4.765,0.113-4.947,0.408c-0.137,0.223-2.627,6.543-5.525,14.049
		c-2.898,7.504-5.398,13.688-5.566,13.744c-0.17,0.057-2.471-6.265-5.109-14.049l-4.795-14.152H274.58z M452.597,42.571v21.942
		v21.942h5.039h5.039V64.513V42.571h-5.039H452.597z M513.548,42.733l-0.094,21.861h0.012l-0.092,21.861h5.211h5.201V67.571V48.676
		l4.957,0.133c5.262,0.137,6.141,0.356,7.619,1.939c1.16,1.24,1.988,3.499,2.357,6.439c0.191,1.539,0.346,8.603,0.346,16.01v13.258
		h5.039h5.037l-0.01-12.922c-0.002-13.704-0.242-16.956-1.564-20.672c-1.795-5.053-5.102-8.049-10.482-9.508
		c-1.779-0.483-3.68-0.567-12.811-0.59L513.548,42.733L513.548,42.733z M488.07,42.825c-2.842,0-5.674,0.357-7.709,1.057
		c-2.709,0.932-4.41,2.023-6.117,3.921c-1.852,2.06-3.193,4.849-3.98,8.259c-0.482,2.09-0.596,3.844-0.568,8.939
		c0.027,5.359,0.133,6.729,0.711,8.848c0.979,3.596,2.26,6.016,4.205,7.985c1.916,1.938,4.748,3.423,7.936,4.146
		c1.434,0.324,3.422,0.426,6.461,0.344c5.238-0.139,7.73-0.813,10.787-2.904c2.563-1.752,4.5-4.516,5.598-7.995
		c1.57-4.968,1.846-13.157,0.641-19.2c-0.586-2.936-2.01-6.119-3.598-8.056c-1.492-1.821-3.936-3.418-6.551-4.287
		C493.773,43.182,490.912,42.825,488.07,42.825L488.07,42.825z M488.193,48.879c1.475,0,2.953,0.285,4.113,0.873
		c1.514,0.768,2.465,2.104,3.291,4.632c0.541,1.653,0.676,3.158,0.803,8.625c0.166,7.14-0.162,10.505-1.27,13.043
		c-0.781,1.792-2.045,3.185-3.434,3.779c-0.592,0.253-2.156,0.446-3.605,0.446c-2.055,0-2.844-0.145-3.992-0.75
		c-0.902-0.478-1.773-1.295-2.336-2.205c-1.469-2.371-1.953-5.48-1.973-12.484c-0.016-6.667,0.328-9.348,1.557-12.059
		c0.416-0.92,1.256-2.043,1.879-2.52C484.41,49.356,486.296,48.879,488.193,48.879L488.193,48.879z"/>
	<path id="path3775" d="M559.435,83.912h0.77v-2.835h1.756c0.48,0,0.795,0.078,0.938,0.232c0.139,0.148,0.229,0.493,0.268,1.032
		l0.068,0.836c0.012,0.159,0.029,0.292,0.055,0.399c0.023,0.115,0.063,0.228,0.117,0.335h0.807v-0.21
		c-0.064-0.057-0.107-0.125-0.135-0.204c-0.037-0.095-0.063-0.212-0.072-0.351l-0.07-0.972c-0.047-0.472-0.109-0.796-0.189-0.972
		c-0.117-0.264-0.322-0.422-0.611-0.477c0.309-0.07,0.555-0.244,0.742-0.525c0.189-0.285,0.283-0.633,0.283-1.039
		c0-0.334-0.068-0.625-0.207-0.871c-0.145-0.275-0.352-0.487-0.617-0.635c-0.217-0.12-0.477-0.198-0.777-0.234
		c-0.201-0.023-0.508-0.036-0.914-0.036h-2.209V83.912L559.435,83.912z M560.207,80.375v-2.288h1.557
		c0.303,0,0.523,0.008,0.662,0.022c0.205,0.033,0.369,0.092,0.488,0.174c0.146,0.097,0.256,0.219,0.328,0.369
		c0.08,0.158,0.121,0.334,0.121,0.526c0,0.433-0.121,0.739-0.367,0.921c-0.246,0.184-0.648,0.274-1.207,0.274L560.207,80.375
		L560.207,80.375z"/>
	<path id="path3004" fill="none" stroke="#000000" stroke-miterlimit="10" d="M567.179,80.649c0,2.957-2.398,5.356-5.355,5.356
		c-2.959,0-5.355-2.397-5.355-5.356s2.396-5.356,5.355-5.356C564.781,75.292,567.179,77.69,567.179,80.649z"/>
	<g id="g3" transform="translate(-61.6856, -312.868)">
		<path id="path7" fill="#DE0029" d="M142.207,336.374l-0.099,89.525l-23.986-7.801v-105.23l30.618,8.096
			c19.599,5.267,31.592,15.507,31.398,33.45c-0.195,20.873-9.849,29.258-28.667,23.797v-41.155
			C151.469,332.08,142.207,331.789,142.207,336.374L142.207,336.374z"/>
		<path id="path9" fill="#F3C202" d="M107.102,400.738l-11.311,3.804c-7.314,2.537-13.554-3.412-6.826-5.853l5.46-1.948
			l-20.575-6.536c-6.338,2.148-12.288,6.73-11.896,13.168c0.39,6.533,15.309,8.095,26.815,9.947
			c10.726,1.754,20.477,0.779,29.351-2.342v-6.73L107.102,400.738L107.102,400.738z M142.302,425.9l20.965-7.313l-21.16-6.729
			v13.557L142.302,425.9L142.302,425.9z"/>
		<path id="path11" fill="#326DB3" d="M198.08,406.299l0.389-0.099c9.167-3.217,13.067-7.707,12.092-11.898
			c-1.56-7.021-12.773-10.826-30.033-12.093c-12.384-0.878-24.572,1.853-36.468,5.947l-1.95,0.685l21.355,6.633l12.48-4.197
			c13.067-2.436,18.333,1.854,5.755,5.854l-6.242,2.146L198.08,406.299L198.08,406.299z M118.122,375.287l-9.459,3.217l9.459,2.925
			V375.287L118.122,375.287z"/>
		<path id="path13" fill="#00AA9E" d="M163.268,418.585l34.812-12.286l-22.624-7.022l-33.348,11.41v1.17L163.268,418.585
			L163.268,418.585z M118.122,397.033l-11.019,3.705l11.019,3.512V397.033L118.122,397.033z M142.107,402.789v-13.946l21.355,6.631
			L142.107,402.789L142.107,402.789z M94.425,396.742l23.696-8.486v-6.826l-9.459-2.926l-34.324,11.605
			c-0.097,0-0.292,0.096-0.487,0.096L94.425,396.742L94.425,396.742z"/>
	</g>
</g>
</svg>
