<?xml version="1.0" encoding="utf-8"?>
<!-- Generator: Adobe Illustrator 16.0.3, SVG Export Plug-In . SVG Version: 6.00 Build 0)  -->
<!DOCTYPE svg PUBLIC "-//W3C//DTD SVG 1.1//EN" "http://www.w3.org/Graphics/SVG/1.1/DTD/svg11.dtd">
<svg version="1.1" id="Ebene_2" xmlns="http://www.w3.org/2000/svg" xmlns:xlink="http://www.w3.org/1999/xlink" x="0px" y="0px"
	 width="566.929px" height="97.854px" viewBox="0 0 566.929 97.854" enable-background="new 0 0 566.929 97.854"
	 xml:space="preserve">
<g>
	<path d="M90.931,60.036L57.737,40.1l14.755-0.008c9.917,0,17.957-8.04,17.957-17.957V18.17c0-9.917-8.04-17.957-17.957-17.957
		H0.027V60.12h11.551V10.56h43.087l16.165-0.012c4.777,0,8.649,3.873,8.649,8.649v1.91c0,4.776-3.873,8.649-8.649,8.649H20.441
		l50.415,30.28L90.931,60.036z"/>
	<path d="M11.578,10.56h43.087l16.165-0.012"/>
	<path d="M72.492,0.213H0.027"/>
	<polygon points="198.012,10.56 236.769,10.548 236.769,0.213 143.374,0.213 143.374,60.12 198.012,60.12 236.769,60.108 
		236.769,49.772 154.925,49.772 154.925,10.56 	"/>
	<polygon points="446.496,0.213 446.496,60.12 501.134,60.12 539.89,60.108 539.89,49.772 458.047,49.772 458.047,0.213 	"/>
	<polygon points="162.728,24.993 221.418,24.993 221.418,35.328 162.728,35.34 	"/>
	<path fill="none" stroke="#000000" stroke-width="0.1" stroke-miterlimit="10" d="M326.284,0.986"/>
	<polygon points="340.735,0 277.603,59.834 292.628,59.834 340.962,14.025 364.022,34.509 331.321,34.509 320.401,44.845 
		320.401,44.845 375.657,44.845 392.531,59.834 408.094,59.834 	"/>
	<rect x="109.409" y="19.406" fill="#F01B20" width="19.004" height="19.004"/>
	<rect x="255.743" y="19.406" fill="#23B14D" width="19.004" height="19.004"/>
	<rect x="405.878" y="19.406" fill="#2993C3" width="19.005" height="19.004"/>
	<rect y="70.814" width="539.863" height="3.801"/>
	<g>
		<path d="M321.311,82.527h7.139l5.255,9.757l5.255-9.757h7.139v15.158h-4.522V86.799h-0.042l-6.092,10.887h-3.476l-6.092-10.887
			h-0.042v10.887h-4.522V82.527z"/>
		<path d="M350.077,82.527h4.648v8.752c0,1.926,0.69,2.68,2.596,2.68h4.606c1.905,0,2.596-0.754,2.596-2.68v-8.752h4.648v9.757
			c0,3.769-1.947,5.569-6.219,5.569h-6.657c-4.271,0-6.219-1.801-6.219-5.569V82.527z"/>
		<path d="M373.147,82.527h4.648v11.264h10.448v3.895h-15.097V82.527z"/>
		<path d="M387.614,82.527h17.713v3.769h-6.532v11.39h-4.648v-11.39h-6.532V82.527z"/>
		<path d="M408.445,82.527h4.648v15.158h-4.648V82.527z"/>
		<path d="M417.322,82.527h12.667c4.418,0,5.485,2.22,5.485,5.192v1.298c0,2.262-0.984,4.857-4.271,4.857h-9.233v3.811h-4.648
			V82.527z M421.97,90.106h7.223c1.089,0,1.508-0.712,1.508-1.612v-0.586c0-1.025-0.503-1.612-1.905-1.612h-6.825V90.106z"/>
		<path d="M438.823,82.527h4.648v11.264h10.447v3.895h-15.096V82.527z"/>
		<path d="M463.444,82.527h6.051l8.333,15.158h-5.172l-1.444-2.68h-9.422l-1.36,2.68h-5.193L463.444,82.527z M463.527,91.739h5.946
			l-3.015-5.694L463.527,91.739z"/>
		<path d="M484.588,92.409l-8.396-9.882h5.611l5.108,6.197l5.108-6.197h5.611l-8.396,9.882v5.276h-4.648V92.409z"/>
		<path d="M500.185,82.527h16.582v3.518h-11.934v2.429h11.306v3.14h-11.306v2.43h12.205v3.643h-16.854V82.527z"/>
		<path d="M520.681,82.527h14.028c3.58,0,4.543,1.779,4.543,4.502v0.963c0,2.03-0.461,3.224-2.597,3.727v0.042
			c1.382,0.251,2.533,0.858,2.533,3.35v2.575h-4.647v-1.821c0-1.592-0.461-2.115-1.905-2.115h-7.307v3.937h-4.648V82.527z
			 M525.33,89.98h7.684c1.256,0,1.717-0.502,1.717-1.591v-0.503c0-1.34-0.67-1.591-2.136-1.591h-7.265V89.98z"/>
	</g>
	<g>
		<path d="M90.971,82.527h4.648v15.158h-4.648V82.527z"/>
		<path d="M99.848,82.527h7.202l8.73,11.013h0.042V82.527h4.647v15.158h-7.202l-8.73-11.013h-0.042v11.013h-4.648V82.527z"/>
		<path d="M123.338,82.527h17.712v3.769h-6.532v11.39h-4.648v-11.39h-6.532V82.527z"/>
		<path d="M143.917,82.527H160.5v3.518h-11.934v2.429h11.306v3.14h-11.306v2.43h12.206v3.643h-16.854V82.527z"/>
		<path d="M164.414,82.527h14.028c3.58,0,4.543,1.779,4.543,4.502v0.963c0,2.03-0.461,3.224-2.596,3.727v0.042
			c1.382,0.251,2.533,0.858,2.533,3.35v2.575h-4.648v-1.821c0-1.592-0.461-2.115-1.905-2.115h-7.307v3.937h-4.648V82.527z
			 M169.062,89.98h7.683c1.257,0,1.717-0.502,1.717-1.591v-0.503c0-1.34-0.67-1.591-2.135-1.591h-7.265V89.98z"/>
		<path d="M193.682,82.527h6.051l8.333,15.158h-5.171l-1.445-2.68h-9.422l-1.36,2.68h-5.193L193.682,82.527z M193.765,91.739h5.946
			l-3.015-5.694L193.765,91.739z"/>
		<path d="M210.22,87.845c0-4.438,2.491-5.485,6.679-5.485h5.465c6.616,0,7.474,1.424,7.433,5.717h-4.648v-0.419
			c0-1.089-0.795-1.403-2.177-1.403h-5.067c-2.449,0-2.91,1.152-2.91,3.036v1.633c0,2.198,0.461,3.036,2.659,3.036h4.962
			c2.094,0,2.722-0.21,2.722-2.094h4.647v1.424c0,2.555-0.921,4.564-5.59,4.564h-7.496c-4.188,0-6.679-1.047-6.679-5.485V87.845z"/>
		<path d="M232.517,82.527h17.712v3.769h-6.532v11.39h-4.648v-11.39h-6.532V82.527z"/>
		<path d="M253.347,82.527h4.648v15.158h-4.648V82.527z"/>
		<path d="M260.758,82.527h5.088l5.925,11.264l5.925-11.264h5.088l-8.145,15.158h-5.737L260.758,82.527z"/>
		<path d="M285.295,82.527h16.583v3.518h-11.934v2.429h11.306v3.14h-11.306v2.43h12.207v3.643h-16.855V82.527z"/>
	</g>
	<g>
		<path d="M0.027,92.305h4.396v0.67c0,1.277,0.398,1.612,2.01,1.612h5.548c1.445,0,1.613-0.397,1.613-1.424
			c0-1.005-0.252-1.465-1.675-1.465H7.146v-3.142h4.334c1.507,0,1.779-0.376,1.779-1.465c0-1.173-0.732-1.466-2.114-1.466H6.539
			c-1.507,0-1.968,0.314-1.968,1.444v0.649H0.174v-0.837c0-4.083,1.989-4.523,7.684-4.523h3.119c5.402,0,6.679,0.838,6.679,4.188
			c0,2.555-0.439,2.869-2.512,3.497v0.063c2.45,0.419,2.848,1.193,2.848,3.602c0,2.993-1.047,4.146-5.255,4.146H5.01
			c-2.701,0-4.983-0.774-4.983-3.937V92.305z"/>
		<path d="M21.926,82.527h14.028c4.648,0,6.281,1.528,6.281,5.276v4.605c0,3.748-1.633,5.276-6.281,5.276H21.926V82.527z
			 M26.574,93.791h8.25c1.989,0,2.763-0.565,2.763-2.722v-2.052c0-2.156-0.774-2.722-2.763-2.722h-8.25V93.791z"/>
		<path d="M45.542,87.845c0-4.438,2.491-5.485,6.679-5.485h7.454c4.188,0,6.679,1.048,6.679,5.485v4.523
			c0,4.438-2.491,5.485-6.679,5.485H52.22c-4.188,0-6.679-1.047-6.679-5.485V87.845z M50.315,90.923
			c0,2.198,0.461,3.036,2.659,3.036h5.946c2.198,0,2.659-0.838,2.659-3.036V89.29c0-1.884-0.46-3.036-2.91-3.036h-5.444
			c-2.449,0-2.91,1.152-2.91,3.036V90.923z"/>
	</g>
	<g>
		<path d="M72.804,90.508h-2.173V84.25h-2.086v-1.891h6.454v1.891h-2.195V90.508z"/>
		<path d="M78.267,90.508h-2.173v-8.148h3.444l1.554,5.117h0.076l1.478-5.117h3.531v8.148h-2.173l0.217-6.246h-0.076l-2.064,6.246
			h-1.879l-2.086-6.246h-0.065L78.267,90.508z"/>
	</g>
	<g>
		<path d="M548.798,90.676h-2.173v-6.258h-2.086v-1.891h6.453v1.891h-2.194V90.676z"/>
		<path d="M554.26,90.676h-2.173v-8.148h3.444l1.554,5.117h0.076l1.478-5.117h3.531v8.148h-2.173l0.217-6.247h-0.076l-2.064,6.247
			h-1.879l-2.087-6.247h-0.064L554.26,90.676z"/>
	</g>
	<g>
		<path d="M549.946,60.12h-2.758v-7.947h-2.648v-2.4h8.195v2.4h-2.789V60.12z"/>
		<path d="M556.884,60.12h-2.758V49.772h4.373l1.973,6.498h0.097l1.876-6.498h4.484V60.12h-2.758l0.275-7.933h-0.098l-2.62,7.933
			h-2.388l-2.648-7.933h-0.083L556.884,60.12z"/>
	</g>
</g>
</svg>
