<?xml version="1.0" encoding="utf-8"?>
<!-- Generator: Adobe Illustrator 16.0.3, SVG Export Plug-In . SVG Version: 6.00 Build 0)  -->
<!DOCTYPE svg PUBLIC "-//W3C//DTD SVG 1.1//EN" "http://www.w3.org/Graphics/SVG/1.1/DTD/svg11.dtd">
<svg version="1.1"
	 id="svg2" xmlns:sodipodi="http://sodipodi.sourceforge.net/DTD/sodipodi-0.dtd" xmlns:rdf="http://www.w3.org/1999/02/22-rdf-syntax-ns#" xmlns:cc="http://web.resource.org/cc/" xmlns:dc="http://purl.org/dc/elements/1.1/" xmlns:inkscape="http://www.inkscape.org/namespaces/inkscape" xmlns:svg="http://www.w3.org/2000/svg" inkscape:version="0.44.1" sodipodi:version="0.32" sodipodi:docbase="C:\Documents and Settings\Matias\Desktop" sodipodi:docname="Figura1.svg"
	 xmlns="http://www.w3.org/2000/svg" xmlns:xlink="http://www.w3.org/1999/xlink" x="0px" y="0px" width="566.929px"
	 height="98.574px" viewBox="0 0 566.929 98.574" enable-background="new 0 0 566.929 98.574" xml:space="preserve">
<sodipodi:namedview  width="1000px" height="200px" guidetolerance="10.0" id="base" gridtolerance="10.0" bordercolor="#666666" objecttolerance="10.0" inkscape:cx="652.10241" pagecolor="#ffffff" borderopacity="1.0" inkscape:cy="-180.96718" inkscape:zoom="0.70710678" inkscape:window-height="844" inkscape:window-x="-4" inkscape:pageopacity="0.0" inkscape:window-width="1440" inkscape:pageshadow="2" inkscape:current-layer="_42677040" inkscape:window-y="-4">
	</sodipodi:namedview>
<g>
	<polygon id="_43443024" fill="#2E3192" points="488.614,0.917 512.645,0.917 524.514,28.215 542.313,0.917 566.928,0.917 
		532.221,54.913 526.586,97.041 504.338,97.041 510.862,48.973 	"/>
	<polygon id="_43441624" fill="#2E3192" points="311.799,97.041 314.766,75.671 280.951,75.671 283.027,59.066 312.393,59.066 
		315.362,37.706 286.29,37.706 288.368,22.276 322.182,22.276 325.446,0.917 269.379,0.917 256.029,97.041 	"/>
	<path id="_43775888" fill="#2E3192" d="M112.146,49.565l7.416-19.874l2.375,19.874H112.146L112.146,49.565z M104.137,68.552h20.172
		l3.563,28.48h36.488l16.91-52.213l8.309,52.213h19.283l21.359-55.179l3.561,55.179h21.359l-5.934-96.119h-25.514L203.818,51.64
		l-7.715-50.727h-22.842l-26.105,78.912l-9.791-78.912h-28.48l-31.744,79.8l4.154-31.149H42.729l-2.672,18.987h16.912l-1.188,6.526
		c-2.967,1.778-9.789,2.076-12.459,2.076s-22.545-1.779-21.656-23.14c0.889-21.358,29.369-41.234,63.188-30.258l3.266-20.47
		C65.572-4.427,6.354-0.111,0.305,52.828c-3.559,31.149,24.921,45.983,43.906,45.688c10.977,0.594,23.438-3.561,27.887-5.935
		l-1.482,4.451h22.547L104.137,68.552L104.137,68.552z"/>
	<path id="_44102912" fill="#2E3192" d="M464.581,0.028c-15.428-0.594-37.678,8.306-45.094,44.204
		c-7.416,35.894,12.459,50.431,30.852,52.804c18.396,2.373,44.205-9.196,48.951-43.609C504.038,19.013,487.125,0.919,464.581,0.028z
		 M462.208,20.498c6.229,0,19.578,4.154,16.314,29.071c-3.262,24.92-18.688,27.887-24.326,27.293
		c-5.637-0.594-17.207-4.448-13.943-27.293C443.516,26.728,455.678,20.201,462.208,20.498L462.208,20.498z"/>
	<path id="_44104296" fill="#2E3192" d="M370.833,37.706h12.461c9.197,0,10.977-5.934,11.271-8.305
		c0.297-2.375-2.371-7.122-7.117-7.122h-14.537L370.833,37.706z M365.493,75.677h16.912c9.195,0,11.271-7.119,11.566-9.493
		c0.299-2.373-2.371-7.118-7.117-7.118h-18.986L365.493,75.677L365.493,75.677z M340.575,97.038l13.35-96.118h40.938
		c9.793,0,24.031,11.274,22.252,26.403c-1.779,15.13-6.527,16.02-9.791,18.393c5.045,4.447,10.088,11.568,8.012,24.918
		c-2.078,13.352-13.055,26.403-32.338,26.403L340.575,97.038L340.575,97.038z"/>
	<path id="_44106160" fill="#2E3192" d="M538.618,82.498c-3.66,0-6.615,2.951-6.615,6.593c0,3.681,2.953,6.633,6.615,6.633
		c3.641,0,6.592-2.952,6.592-6.633C545.209,85.448,542.256,82.498,538.618,82.498v-0.907c4.15,0,7.498,3.366,7.498,7.5
		c0,4.172-3.348,7.538-7.498,7.538c-4.174-0.001-7.539-3.366-7.539-7.538c0-4.135,3.365-7.499,7.539-7.499V82.498L538.618,82.498z"
		/>
	<path id="_42975192" fill="#2E3192" d="M536.84,85.638h2.402c1.045,0,2.182,0.157,2.182,1.457c0,1.711-1.828,1.516-3.01,1.516
		l-1.574-0.001v0.808h1.891l2.402,3.878h1.219l-2.539-3.878c1.496-0.038,2.656-0.649,2.656-2.302c0-0.71-0.313-1.457-0.945-1.813
		c-0.627-0.374-1.338-0.413-2.047-0.413h-3.658v8.404h1.021V85.638L536.84,85.638z"/>
</g>
</svg>
