<?xml version="1.0"?>
<svg xmlns="http://www.w3.org/2000/svg" viewBox="0 0 186.826 28.385">
  <g fill="#1b1b1b">
    <path d="M64.497 11.663c1.282-.014 2.564-.038 3.847-.066.008 1.661.032 3.322.044 4.987.973-.005 1.945-.009 2.922-.005-.012 1.008-.024 2.02-.032 3.028-.945-.005-1.889-.014-2.834-.033.016 1.945.044 3.885.06 5.825l2.299.028c.02.984.04 1.968.064 2.953-1.612-.038-3.244.114-4.843-.199-.639-.071-1.146-.729-1.154-1.486-.265-2.347-.145-4.722-.177-7.084-.47.005-.937.009-1.403.019-.056-.994-.121-1.987-.185-2.981.502-.005 1.009-.014 1.511-.019a304.578 304.578 0 0 1-.119-4.967zm23.309-.086c1.298-.024 2.593-.057 3.895-.066a839.678 839.678 0 0 0-.193 16.874 541.233 541.233 0 0 0-3.823-.005c.105-5.598.105-11.2.121-16.803zm5.539-.047c1.294.009 2.589.028 3.887.052a540.326 540.326 0 0 0-.285 16.746c-1.286.024-2.572.033-3.859.057.088-5.617.233-11.234.257-16.855zm39.185-1.333c1.158-.724 3.155-.028 3.019 1.784-.229 2.224-2.91 2.484-3.995.979-.41-1.079.056-2.332.976-2.763zM28.217 15.523c.374-2.461 2.597-3.719 4.546-3.762 4.144-.151 8.292-.062 12.436-.166.024 1.079.056 2.158.08 3.241-3.364-.066-6.729.028-10.097.009-.9.085-2.667-.057-3.302.875-.405.54-.46 1.562.299 2.319 2.652.885 8.405-.388 12.456 1.032 2.81.866 3.489 5.735 1.419 7.893-1.27 1.117-2.946 1.226-4.474 1.282-4.192.047-8.389-.038-12.585.137-.084-1.046-.161-2.091-.249-3.132 3.871-.038 7.741-.057 11.612-.123.953-.085 2.263-.033 2.693-1.282.506-.918-.43-1.907-1.113-2.196-3.517-.677-7.159.402-10.652-.563-2.08-.543-3.567-3.075-3.069-5.564zm71.362.965c3.099.123 6.206-.17 9.297.099 1.375.189 3.139.667 3.553 2.475.354 1.945.221 3.979-.004 5.934-.173 1.926-1.865 2.858-3.304 3.114-2.267.374-4.562.265-6.841.246-1.19-.066-2.597-.147-3.404-1.325-.699-1.273-.744-3.421.667-4.041 3.051-1.334 6.383-1.424 9.47-2.636-.732-.364-1.479-.771-2.291-.767-2.408-.071-4.819.043-7.227-.005l.084-3.094m2.13 8.839c1.929.237 3.891.355 5.824.095.989-.014 1.065-1.438 1.515-2.181-2.455.629-5.032.823-7.339 2.086zm10.636-9.051c1.383-.024 2.765-.038 4.148-.038 1.503 3.095 3.103 6.123 4.61 9.218 1.692-3.147 3.626-6.095 5.346-9.218 1.399 0 2.802-.009 4.204-.019a743.423 743.423 0 0 0-5.326 8.957c-.78 1.235-1.588 2.759-2.982 3.043-1.58.312-3.618.35-4.598-1.438-1.958-3.383-3.549-7.041-5.402-10.505zm19.032.236c1.29-.052 2.581-.099 3.875-.147-.221 4.003-.414 8.011-.631 12.019a560.334 560.334 0 0 0-3.875-.062c.233-3.936.37-7.877.631-11.81zm5.784 2.037c1.399-2.21 4.044-2.087 6.146-2.153 2.179.147 4.514-.383 6.564.7 1.085.601 1.113 2.205.977 3.407-.165 1.103-1.15 1.59-1.961 1.855-2.946.885-5.997 1.164-8.931 2.101.784.497 1.624.927 2.536.88 2.54.033 5.085-.17 7.629-.109-.06 1.05-.117 2.101-.173 3.151-3.429-.071-6.869.147-10.286-.203-1.351-.17-3.139-.913-3.187-2.811-.038-2.271-.086-4.694.686-6.818m2.898 3.066c2.48-.502 4.988-.932 7.388-1.864-1.869-.44-3.798-.568-5.692-.312-1.013.014-1.222 1.391-1.696 2.176zm10.667-5.601c1.447.009 2.894.014 4.345.009 1.322 3.128 2.785 6.17 4.144 9.279 1.31-3.104 2.633-6.199 4.032-9.246 1.314.028 2.633.038 3.951.028.8 3.057 1.596 6.118 2.331 9.199 1.994-3.019 3.847-6.161 5.856-9.161 1.427.009 2.858.024 4.289.024-2.267 3.317-4.341 6.809-6.624 10.112-1.407 2.172-4.369 2.882-6.238 1.173-1.262-1.916-1.419-4.472-1.998-6.724-.736 1.694-1.371 3.445-2.15 5.11-1.21 3.256-5.76 3.374-7.159.26-1.712-3.277-2.986-6.84-4.779-10.063zm-78.411 3.351c.547-2.082 2.649-2.546 4.253-2.655 2.552-.095 5.145-.369 7.669.161 2.05.251 2.942 4.363.796 5.214-3.043 1.211-6.311 1.344-9.369 2.513.768.483 1.592.909 2.484.852 2.564.009 5.129-.076 7.693-.071-.012.998-.02 1.997-.028 2.995-3.195-.052-6.391.095-9.582-.071-1.527-.104-3.481-.658-3.923-2.655-.254-2.072-.286-4.216.007-6.283m4.273.312c-.523.544-.659 1.41-.957 2.125 2.436-.573 4.908-1.008 7.275-1.916-2.046-.706-4.236-.607-6.318-.209zm-14.186 5.897c-.547 2.082-2.649 2.546-4.253 2.655-2.552.095-5.145.369-7.669-.161-2.05-.251-2.942-4.363-.796-5.214 3.043-1.211 6.311-1.344 9.369-2.513-.768-.483-1.592-.909-2.484-.852-2.564-.009-5.129.076-7.693.071.012-.998.02-1.997.028-2.995 3.195.052 6.391-.095 9.582.071 1.527.104 3.481.658 3.923 2.655.254 2.072.286 4.216-.007 6.283m-4.273-.312c.523-.544.659-1.41.957-2.125-2.436.573-4.908 1.008-7.275 1.916 2.045.706 4.236.607 6.318.209zM183.778 14.059h-.823v2.333h-.58v-2.333h-.853v-.483h2.256v.483zm3.048 2.333h-.58v-2.287l-.502 2.287h-.58l-.503-2.276v2.276h-.58v-2.816h.848l.523 2.156.529-2.156h.843v2.816z"/>
  </g>
  <path d="M23.194 16.863C20.261 8.755 13.851 2.625 5.828 0h5.136c5.403 3.431 9.996 9.834 12.315 14.998l-.085 1.865zM19.019.04c1.912 2.145 3.246 5.071 4.259 7.881V0l-4.259.04zM14.803 0h2.381c2.219 3.08 4.594 6.824 6.053 10.288v2.328C21.038 8.286 18.311 2.94 14.803 0zM.61 28.344c4.604-1.231 2.392-4.769 1.253-7.921 2.527 3.254 6.214 6.493 10.103 7.962L.61 28.344z" fill="#1b1b1b"/>
  <path d="M17.607 9.275c5.437 5.637 7.14 13.238 3.798 16.973-3.339 3.737-10.457 2.195-15.896-3.442C.072 17.167-1.63 9.568 1.711 5.831c3.34-3.735 10.457-2.195 15.896 3.444z" fill="#1b1b1b"/>
  <path d="M20.545 16.759c-.513 1.539-2.573 1.845-4.6.683-2.027-1.163-3.251-3.353-2.738-4.891s2.573-1.845 4.6-.683 3.251 3.351 2.738 4.89" fill="#e4262a"/>
  <path d="M20.319 16.687c-.271.8-.988 1.22-1.978 1.227-.681 0-1.478-.215-2.275-.673-1.654-.943-2.746-2.62-2.738-3.939 0-.24.034-.468.105-.678.271-.801.988-1.22 1.977-1.228.681 0 1.478.215 2.276.673 1.654.942 2.746 2.618 2.737 3.937 0 .24-.035.467-.105.679l.453.144c.087-.263.128-.54.128-.823-.008-1.556-1.198-3.316-2.973-4.339-.861-.493-1.734-.736-2.517-.737-1.126-.007-2.095.531-2.43 1.549-.088.262-.129.54-.129.823.008 1.557 1.198 3.316 2.973 4.341.86.493 1.733.736 2.516.737 1.126.007 2.095-.531 2.431-1.549l-.451-.144z" fill="#e4262a"/>
  <path d="M18.111 18.58c0 1.629-1.796 2.949-4.014 2.949s-4.014-1.319-4.014-2.948c-.002-1.629 1.796-2.949 4.012-2.949 2.218-.002 4.016 1.319 4.016 2.948" fill="#1b1b1b"/>
  <path d="M17.894 18.58c0 .735-.404 1.411-1.089 1.916-.684.503-1.644.822-2.708.822-1.065 0-2.025-.318-2.709-.821-.685-.504-1.089-1.18-1.089-1.915 0-.736.404-1.412 1.089-1.917.684-.503 1.643-.821 2.707-.821 1.066 0 2.026.318 2.71.821.685.504 1.089 1.18 1.089 1.915h.433c-.014-1.795-1.936-3.156-4.232-3.159-2.292.003-4.214 1.363-4.228 3.161.014 1.796 1.936 3.156 4.23 3.159 2.295-.003 4.216-1.365 4.23-3.161h-.433z" fill="#1b1b1b"/>
  <path d="M20.367 20.919c0 1.403-1.635 2.541-3.652 2.541-2.019 0-3.654-1.138-3.654-2.539 0-1.403 1.635-2.541 3.652-2.541s3.654 1.136 3.654 2.539" fill="#f7e82a"/>
  <path d="M20.176 20.919c0 .627-.364 1.208-.989 1.644-.623.434-1.5.71-2.471.71-.973 0-1.85-.275-2.473-.709-.625-.436-.989-1.016-.989-1.642 0-.627.364-1.208.989-1.644.623-.434 1.5-.71 2.472-.71s1.849.275 2.473.709c.623.435.988 1.015.988 1.642h.383c-.016-1.561-1.767-2.725-3.846-2.726-2.079.001-3.828 1.167-3.844 2.728.016 1.559 1.765 2.725 3.846 2.726 2.079-.001 3.828-1.167 3.844-2.728h-.383z" fill="#f7e82a"/>
  <path d="M12.278 15.158c-.519 1.552-2.602 1.859-4.652.689-2.049-1.171-3.289-3.378-2.77-4.928.519-1.552 2.602-1.861 4.652-.691 2.049 1.171 3.291 3.378 2.77 4.93" fill="#33a8e0"/>
  <path d="M12.05 15.085c-.274.807-.999 1.23-2 1.237-.689 0-1.496-.217-2.303-.678-1.673-.949-2.777-2.641-2.769-3.969 0-.241.035-.47.106-.682.274-.808 1-1.231 2.001-1.239.689 0 1.494.217 2.301.678 1.672.949 2.778 2.64 2.769 3.968a2.14 2.14 0 0 1-.105.685l.457.146c.089-.265.13-.545.13-.831-.008-1.57-1.214-3.344-3.008-4.375-.87-.497-1.752-.742-2.544-.742-1.139-.007-2.119.535-2.458 1.563-.089.264-.13.544-.13.829.008 1.569 1.213 3.344 3.007 4.375.871.497 1.754.742 2.545.743 1.138.007 2.118-.535 2.457-1.561l-.456-.147z" fill="#33a8e0"/>
  <path d="M10.561 17.008c0 1.629-1.796 2.949-4.014 2.949s-4.014-1.321-4.014-2.949c-.002-1.629 1.796-2.949 4.012-2.949 2.218 0 4.016 1.319 4.016 2.948" fill="#1b1b1b"/>
  <path d="M10.344 17.008c0 .735-.404 1.411-1.089 1.916-.684.503-1.644.822-2.708.822-1.065 0-2.025-.318-2.709-.822-.685-.505-1.089-1.181-1.089-1.916 0-.736.404-1.412 1.089-1.917.684-.503 1.643-.821 2.707-.821 1.065 0 2.025.318 2.709.821.685.505 1.09 1.18 1.09 1.915h.433c-.014-1.797-1.938-3.156-4.232-3.159-2.292.003-4.214 1.363-4.228 3.161.014 1.796 1.935 3.158 4.23 3.161 2.295-.003 4.216-1.365 4.23-3.161h-.433z" fill="#1b1b1b"/>
  <path d="M12.348 19.404c0 1.401-1.635 2.539-3.654 2.539-2.017 0-3.652-1.136-3.652-2.539-.002-1.403 1.633-2.539 3.652-2.541 2.017 0 3.652 1.138 3.654 2.539" fill="#8fc047"/>
  <path d="M12.156 19.404c0 .626-.364 1.207-.989 1.642-.624.434-1.501.71-2.473.709-.972 0-1.848-.275-2.472-.709-.625-.436-.989-1.016-.989-1.643 0-.628.364-1.208.989-1.644.623-.434 1.5-.709 2.472-.71.972 0 1.848.275 2.472.709.625.436.99 1.017.991 1.643h.383c-.018-1.559-1.766-2.725-3.846-2.726-2.08.003-3.828 1.166-3.844 2.728.016 1.561 1.765 2.725 3.844 2.726 2.081-.001 3.829-1.167 3.846-2.726h-.384v.001z" fill="#8fc047"/>
  <path d="M98.255 8.655H96.02V.194h8.231c1.422 0 2.533 1.128 2.572 2.722v5.74h-2.111v-5.26c0-.782-.411-1.324-1.104-1.396-.38-.039-.765-.007-1.177-.007v6.662h-2.209V1.946h-1.967v6.709zm33.99 0h-2.235V.194h8.231c1.423 0 2.534 1.128 2.573 2.722v5.74h-2.111v-5.26c0-.782-.411-1.324-1.104-1.396-.38-.039-.765-.007-1.177-.007v6.662h-2.209V1.946h-1.967l-.001 6.709zm-61.05-3.227l2.188 3.227h-2.51L68.95 5.517h-2.138v3.138H64.61V.194h6.094c1.569.001 2.693 1.583 2.377 3.29-.174.943-.716 1.521-1.514 1.823-.111.042-.224.074-.372.121zM66.816 4h2.905c.152-.002.31-.076.454-.144.32-.153.541-.397.543-.822.001-.451-.146-.809-.534-.973a1.9 1.9 0 0 0-.689-.153h-2.679V4zm27.953 4.652h-5.613a3.984 3.984 0 0 1-1.246-.231c-1.035-.364-1.576-1.278-1.516-2.461.062-1.209.745-2.137 1.77-2.383.239-.057.488-.086.733-.088h3.581c.098 0-.098 0 0 0-.013-.923-.693-1.67-1.564-1.674h-3.916V.194h4.581c1.76 0 3.136 1.473 3.189 3.437v5.021h.001zm-2.219-3.57h-2.748c-.582 0-.978.39-.987.971-.008.565.373.938.965.939h2.769c.001.001.001-1.23.001-1.91zm-63.959 3.57V6.99h4.944c.457 0 .735-.254.833-.756.072-.37-.135-.748-.533-.914a1.574 1.574 0 0 0-.575-.12h-3.05c-1.244-.021-1.971-.849-2.083-2.322-.087-1.147.668-2.456 1.69-2.685h6.503v1.705h-.313c-1.451 0-2.902-.001-4.352.002-.137 0-.277.013-.411.04a.802.802 0 0 0-.657.675.986.986 0 0 0 .353.928.543.543 0 0 0 .329.105h3.286c.815.026 1.58.26 1.994 1.156.722 1.565.166 3.813-1.961 3.847l-5.997.001zM124.3.194c.844.031 1.665.139 2.433.535 1.068.551 1.866 1.418 2.093 2.732.285 1.656.024 3.203-1.161 4.385-.672.671-1.522.967-2.393 1.135-1.352.26-2.646.015-3.872-.677-1.147-.647-1.628-1.768-1.758-3.126-.065-.683-.052-1.367.138-2.031.449-1.563 1.491-2.364 2.853-2.707.544-.138.857-.225 1.667-.246zm2.461 4.423c-.007-.154-.012-.309-.02-.463-.064-1.155-.67-2.027-1.615-2.304-.554-.162-1.116-.144-1.67-.014-.804.188-1.33.74-1.56 1.618-.183.699-.183 1.42-.076 2.131.124.826.571 1.387 1.282 1.608a4.2 4.2 0 0 0 1.337.171c1.518-.041 2.358-1.055 2.322-2.747zm-63.342-1.03v1.607h-5.245c.014 1.015.654 1.737 1.52 1.738 1.125.002 3.686 0 3.686 0v1.714h-4.24c-2.108-.109-3.393-1.773-3.322-3.959.023-.72.066-1.43.305-2.109.518-1.47 1.711-2.385 3.116-2.385h4.182v1.712s-2.862-.01-3.553-.007c-.842.005-1.543.707-1.654 1.688l5.205.001zM43.475 6.925V.194h2.155v8.459l-5.673.003c-.701.003-1.265-.301-1.704-.896-.417-.565-.673-1.177-.655-1.958.041-1.689.012-5.607.012-5.607h2.162l-.009 5.407c-.015.794.378 1.258 1.034 1.324l2.678-.001zm5.551-1.129v2.858h-2.102V.195h5.738c1.015-.031 2.035.817 2.337 2.074.441 1.837-.704 3.518-2.413 3.526-1.086.005-2.172.001-3.258.001h-.302zm.071-1.647h2.909c.117-.002.246-.085.348-.162.318-.24.539-.896.437-1.255-.16-.561-.48-.831-1.008-.834h-2.686v2.251zM85.804.194v1.622h-3.689c-.626.02-1.162.351-1.528.928-.125.198-.202.447-.219.786h5.343v1.791h-5.363v3.335h-2.179V3.655c0-1.809 1.225-3.401 2.845-3.46l4.79-.001zm33.169 6.801v1.66h-3.987c-1.652 0-2.909-1.087-3.311-2.887-.313-1.404-.169-2.824.541-4.047.591-1.018 1.456-1.524 2.545-1.527h4.254v1.673h-3.612c-.708 0-1.165.367-1.4 1.116-.274.873-.321 1.847-.065 2.741.237.828.803 1.271 1.577 1.271h3.458zM108.167.194h2.332v8.467h-2.332zm34.446 1.276c0-.799.59-1.276 1.275-1.276.684 0 1.274.48 1.274 1.276 0 .8-.59 1.292-1.274 1.292-.685 0-1.275-.492-1.275-1.292zm2.285 0c0-.634-.441-1.042-1.011-1.042-.57 0-1.012.408-1.012 1.042 0 .635.441 1.057 1.012 1.057.57 0 1.011-.422 1.011-1.057zm-1.712.006c0-.455.357-.745.746-.745.239 0 .39.104.514.228l-.213.238c-.082-.085-.159-.134-.264-.134-.244 0-.374.183-.374.412 0 .262.137.427.353.427.13 0 .213-.054.311-.131l.183.263a.79.79 0 0 1-.509.201c-.432.001-.747-.29-.747-.759z" fill="#1b1b1b"/>
</svg>
