<?xml version="1.0" encoding="utf-8"?>
<!-- Generator: Adobe Illustrator 16.0.3, SVG Export Plug-In . SVG Version: 6.00 Build 0)  -->
<!DOCTYPE svg PUBLIC "-//W3C//DTD SVG 1.1//EN" "http://www.w3.org/Graphics/SVG/1.1/DTD/svg11.dtd">
<svg version="1.1" id="Ebene_1" xmlns="http://www.w3.org/2000/svg" xmlns:xlink="http://www.w3.org/1999/xlink" x="0px" y="0px"
	 width="566.929px" height="194.629px" viewBox="0 0 566.929 194.629" enable-background="new 0 0 566.929 194.629"
	 xml:space="preserve">
<g>
	<rect fill="#FFE607" width="566.929" height="56.319"/>
	<path d="M235.634,28.608c0,4.249,0.023,8.497-0.009,12.745c-0.019,2.431-0.391,2.779-2.778,2.858
		c-0.754,0.026-1.518-0.061-2.264,0.017c-2.171,0.227-3.76-0.682-5.208-2.246c-6.147-6.639-12.359-13.217-18.548-19.817
		c-0.257-0.274-0.495-0.577-0.79-0.804c-0.486-0.375-0.897-0.287-0.966,0.373c-0.067,0.654-0.04,1.319-0.04,1.98
		c-0.002,5.758,0.011,11.517-0.006,17.275c-0.009,2.93-0.293,3.187-3.268,3.227c-4.516,0.061-4.517,0.061-4.518-4.532
		c0-7.741,0-15.482,0-23.223c0-0.661-0.005-1.322,0.017-1.982c0.032-0.984,0.5-1.656,1.527-1.675
		c2.169-0.042,4.353-0.145,6.503,0.06c0.811,0.078,1.664,0.822,2.295,1.463c3.109,3.157,6.175,6.356,9.207,9.588
		c3.223,3.436,6.38,6.934,9.595,10.378c0.351,0.376,0.886,0.58,1.336,0.863c0.084-0.536,0.24-1.071,0.242-1.607
		c0.018-5.569,0.01-11.139,0.011-16.709c0-0.661-0.042-1.326,0.02-1.981c0.143-1.522,0.592-2.055,2.105-2.082
		c6.506-0.114,5.488-0.327,5.532,5.069C235.658,21.434,235.635,25.021,235.634,28.608z"/>
	<path d="M65.123,26.365c2.169,0,4.339,0,6.509,0c1.274,0,1.906,0.631,1.905,1.909c-0.003,3.773,0.002,7.546,0,11.32
		c-0.001,1.461-0.741,2.063-2.176,2.492c-1.435,0.43-5.864,1.337-10.829,1.771c-4.965,0.434-8.795-0.173-13.031-1.387
		c-1.953-0.56-3.82-1.573-5.58-2.627c-8.726-5.224-9.135-17.327,0.058-23.458c3.592-2.396,7.572-3.568,11.829-4.267
		c4.734-0.778,9.369-0.271,14.04,0.189c0.834,0.082,1.672,0.29,2.47,0.553c1.539,0.508,1.9,1.057,1.962,2.696
		c0.087,2.319-0.571,2.805-2.866,2.175c-5.256-1.444-10.581-1.705-15.907-0.562c-2.693,0.578-5.141,1.815-7.147,3.8
		c-4.566,4.518-3.834,12.207,1.559,15.691c2.246,1.451,4.702,2.139,7.446,2.298c2.74,0.159,3.197,0.159,5.942-0.029
		c0.926-0.063,1.845-0.294,2.772-0.412c1.285-0.165,1.706-0.907,1.688-2.147c-0.095-6.195,0.709-5.074-4.998-5.188
		c-0.754-0.015-1.516,0.054-2.262-0.029c-1.907-0.211-2.864-2.033-2.026-3.753c0.444-0.911,1.242-1.051,2.134-1.046
		c2.17,0.01,4.339,0.003,6.509,0.003C65.123,26.359,65.123,26.362,65.123,26.365z"/>
	<path d="M122.558,28.121c0-3.966-0.01-7.934,0.002-11.9c0.011-3.258,0.193-3.458,3.31-3.466c6.233-0.015,12.467-0.024,18.7,0.006
		c2.303,0.011,2.605,0.328,2.651,2.308c0.05,2.187-0.32,2.604-2.616,2.626c-3.777,0.037-7.556-0.004-11.333,0.016
		c-2.562,0.015-2.569,0.037-2.611,2.475c-0.02,1.133-0.029,2.268,0.003,3.4c0.059,2.092,0.118,2.17,2.323,2.19
		c3.494,0.031,6.989-0.02,10.483,0.02c2.348,0.026,3.42,1.852,2.432,4.017c-0.45,0.984-1.341,0.917-2.181,0.921
		c-2.928,0.016-5.856,0.008-8.784,0.008c-0.661,0-1.323-0.015-1.983,0.003c-2.185,0.06-2.239,0.101-2.291,2.228
		c-0.033,1.321-0.033,2.645,0,3.966c0.047,1.953,0.064,1.988,2.133,2.003c3.778,0.027,7.555,0.007,11.333,0.007
		c0.566,0,1.134-0.024,1.7,0.007c2.029,0.11,2.5,0.595,2.523,2.552c0.024,2.124-0.446,2.68-2.658,2.692
		c-6.705,0.039-13.411,0.038-20.117,0.001c-2.406-0.013-2.986-0.614-3.009-3.048C122.529,36.811,122.558,32.466,122.558,28.121z"/>
	<path d="M287.481,28.15c0-4.155-0.024-8.312,0.009-12.467c0.021-2.555,0.391-2.916,2.992-2.925
		c6.327-0.023,12.655-0.027,18.982,0.003c2.414,0.011,3.455,1.711,2.521,3.959c-0.416,1.003-1.293,0.979-2.144,0.979
		c-3.399,0.012-6.801,0.002-10.2,0.008c-4.527,0.009-4.046-0.385-4.056,4.15c-0.013,4.318-0.354,3.917,3.994,3.927
		c3.021,0.006,6.045-0.006,9.065,0.009c0.841,0.004,1.933-0.103,2.126,0.934c0.2,1.065,0.168,2.264-0.143,3.29
		c-0.121,0.4-1.27,0.672-1.959,0.69c-2.83,0.077-5.666,0.034-8.498,0.035c-0.565,0-1.135-0.004-1.699,0
		c-2.861,0.022-2.866,0.022-2.893,2.767c-0.011,1.228-0.035,2.457,0.008,3.684c0.062,1.665,0.093,1.728,1.817,1.744
		c3.966,0.037,7.933,0.011,11.899,0.013c0.66,0,1.328-0.048,1.98,0.029c1.607,0.189,2.038,0.825,1.985,2.784
		c-0.047,1.728-0.478,2.309-2.063,2.419c-1.41,0.099-2.832,0.033-4.248,0.033c-5.385,0.002-10.769,0.019-16.149-0.007
		c-2.78-0.014-3.31-0.542-3.326-3.308C287.458,36.65,287.481,32.4,287.481,28.15z"/>
	<path d="M393.19,15.429c-0.035,1.989-0.528,2.503-2.38,1.932c-3.604-1.113-7.264-1.025-10.928-0.752
		c-1.278,0.096-2.611,0.471-3.762,1.039c-2.391,1.181-2.479,3.761-0.176,5.097c1.455,0.844,3.072,1.413,4.639,2.056
		c3.131,1.287,6.299,2.48,9.396,3.839c1.102,0.483,2.172,1.199,3.023,2.043c3.231,3.204,2.752,7.135-0.559,9.75
		c-2.615,2.067-5.75,2.756-8.929,3.191c-4.485,0.613-8.968,0.356-13.418-0.442c-0.646-0.116-1.286-0.284-1.911-0.484
		c-1.85-0.594-2.701-2.418-1.904-4.204c0.152-0.342,0.688-0.723,1.043-0.722c0.731,0.002,1.469,0.225,2.192,0.402
		c4.229,1.037,8.474,1.774,12.825,0.777c0.184-0.042,0.382-0.021,0.563-0.071c1.754-0.486,3.744-0.982,4.022-3.043
		c0.26-1.925-1.351-2.988-2.954-3.692c-1.713-0.753-3.462-1.444-5.24-2.028c-3.227-1.061-6.482-2.104-9.229-4.14
		c-1.237-0.917-2.362-2.23-3.037-3.609c-1.118-2.285-0.118-5.136,2.003-6.81c2.116-1.67,4.554-2.7,7.172-3.167
		c5.036-0.897,10.099-0.987,15.155-0.08C392.77,12.664,393.229,13.249,393.19,15.429z"/>
	<path d="M529.982,15.429c-0.035,1.989-0.527,2.503-2.381,1.932c-3.602-1.113-7.262-1.025-10.928-0.752
		c-1.277,0.096-2.609,0.471-3.76,1.039c-2.391,1.181-2.48,3.761-0.176,5.097c1.455,0.844,3.07,1.413,4.639,2.056
		c3.129,1.287,6.299,2.48,9.395,3.839c1.102,0.483,2.174,1.199,3.023,2.043c3.232,3.204,2.754,7.135-0.557,9.75
		c-2.617,2.067-5.75,2.756-8.93,3.191c-4.484,0.613-8.969,0.356-13.418-0.442c-0.646-0.116-1.285-0.284-1.91-0.484
		c-1.85-0.594-2.701-2.418-1.904-4.204c0.15-0.342,0.686-0.723,1.043-0.722c0.73,0.002,1.469,0.225,2.191,0.402
		c4.229,1.037,8.475,1.774,12.826,0.777c0.184-0.042,0.381-0.021,0.561-0.071c1.754-0.486,3.746-0.982,4.023-3.043
		c0.262-1.925-1.352-2.988-2.953-3.692c-1.713-0.753-3.463-1.444-5.24-2.028c-3.229-1.061-6.484-2.104-9.229-4.14
		c-1.238-0.917-2.363-2.23-3.037-3.609c-1.117-2.285-0.119-5.136,2.002-6.81c2.117-1.67,4.555-2.7,7.172-3.167
		c5.037-0.897,10.1-0.987,15.158-0.08C529.562,12.664,530.021,13.249,529.982,15.429z"/>
	<path d="M452.875,12.766c1.98,0,3.965-0.065,5.941,0.021c1.416,0.062,1.756,0.533,1.813,1.979c0.064,1.616-0.291,2.097-1.73,2.355
		c-2.326,0.417-2.35,0.417-2.355,2.749c-0.012,5.754-0.012,11.509,0.002,17.263c0.004,2.036,0.029,2.036,2.035,2.396
		c1.652,0.296,2.09,0.818,2.047,2.443c-0.041,1.567-0.561,2.187-2.264,2.216c-3.771,0.066-7.547,0.065-11.318-0.008
		c-1.545-0.03-2.039-0.634-2.129-2.062c-0.102-1.636,0.328-2.223,1.898-2.584c2.02-0.464,2.051-0.464,2.057-2.468
		c0.018-5.849,0.018-11.697,0-17.546c-0.008-2.004-0.043-2.004-2.146-2.396c-1.533-0.286-1.852-0.682-1.811-2.281
		c0.037-1.568,0.396-2.007,2.018-2.067c1.98-0.072,3.965-0.017,5.943-0.017C452.875,12.762,452.875,12.764,452.875,12.766z"/>
	<path fill="#0084E2" d="M341.373,193.968c-2.26-2.385-8.34-2.6-9.285-2.6c-42.588,0-85.174-0.002-127.765,0.002
		c-4.329,0-5.108,0.532-4.578-4.957c0.868-8.979,4.167-17.322,10.688-23.765c1.249-1.271,1.666-1.7,4.52-4.287
		c12.092-10.957,36.182-19.743,36.182-19.743s20.159-7.443,31.479-11.898c5.085-2,10.05-4.309,14.578-7.444
		c16.42-12.944,7.894-25.789-13.755-28.782c-15.163-2.17-28.978,1.533-41.748,9.677c-1.667,1.064-3.074,2.125-4.684,3.281
		c-2.856,2.414-5.307,5.229-5.836,8.34c-0.286,1.68-0.013,2.838,0.021,3.112c0.108,0.871,0.375,2.251-0.272,2.884
		c-0.778,0.76-2.394-0.002-3.111-0.681c-6.58-6.219-13.172-12.424-19.759-18.636c-0.412-0.389-1.173-1.221-1.173-1.221
		s-0.72-0.834-0.745-1.406c-0.029-0.644,0.604-1.249,1.36-1.485c3.589-0.661,5.245-0.873,7.399-2.448
		c5.797-4.237,11.855-8.025,18.325-11.18c8.651-4.219,17.747-6.726,27.272-8.01c7.325-0.988,28.84-4.338,53.973,6.837
		c6.629,2.907,12.313,7.024,16.597,12.831c2.536,3.437,12.095,22.281-7.382,37.333c-6.963,5.588-15.275,9.039-23.674,11.972
		c-7.188,2.51-12.465,4.396-24.227,7.794c-8.931,2.658-15.342,4.736-25.563,9.585c-8.129,3.856-13.465,8.543-13.465,8.543
		s-2.662,2.053-2.147,3.659c0.446,1.394,2.668,1.254,3.975,1.257c31.445,0.02,62.892,0.014,94.337,0.016
		c3.254,0,6.408-0.229,8.893-2.784c0.361-0.373,1.318-0.574,1.75-0.357c0.414,0.207,0.703,1.061,0.707,1.633
		c0.049,7.365,0.051,14.893,0.008,22.258c-0.006,0.715-0.241,0.971-0.596,1.178C343.134,194.789,341.994,194.623,341.373,193.968z"
		/>
	<path fill="#0084E2" d="M107.1,193.042c-5.159-0.315-10.332-0.979-15.427-1.879c-20.739-3.656-30.385-8.554-36.174-10.826
		c-2.766-1.086-5.47-2.114-8.476-1.012c-0.343,0.127-0.745,0.12-1.121,0.127c-1.911,0.021-2.496-0.722-1.666-2.427
		c0.989-2.032,2.148-3.985,3.317-5.926c3.167-5.252,6.376-10.479,9.57-15.717c0.147-0.24,0.315-0.471,0.46-0.715
		c0.651-1.09,1.366-2.1,2.858-1.891c1.403,0.197,1.706,1.354,2,2.451c0.642,2.387,2.099,4.166,4.016,5.647
		c4.536,3.511,9.659,5.873,15.033,7.748c6.969,2.431,14.143,3.953,21.429,5.097c8.627,1.354,17.299,1.526,25.961,1.024
		c7.342-0.427,14.576-1.752,21.498-4.457c4.213-1.646,7.409-4.552,9.968-8.103c3.395-4.711,2.004-11.188-2.622-14.871
		c-6.284-5.002-13.592-6.979-21.333-8.309c-6.96-1.193-13.912-1.065-20.879-0.975c-3.271,0.043-11.09,0.354-14.087,3.135
		c-1.104,0.972-1.979,1.045-2.504,0.572c-0.525-0.476-0.548-1.228-0.554-1.886c-0.059-6.8-0.066-13.603-0.021-20.401
		c0.015-2.227,1.054-2.902,2.78-1.693c2.18,1.527,4.599,2.195,7.125,2.519c4.196,0.539,17.892,0.063,20.69-0.303
		c7.481-0.978,6.828-0.86,11.194-2.03c4.673-1.251,9.131-4.531,11.458-7.242c0.038-0.043,0.076-0.088,0.113-0.133
		c3.244-3.908,2.154-8.406-0.864-11.626c-2.898-3.091-6.541-5.07-10.597-6.267c-6.647-1.96-13.456-3.032-20.365-2.707
		c-12.507,0.588-24.774,2.497-36.083,8.316c-2.589,1.332-5.016,3.008-7.407,4.686c-2.042,1.432-3.07,3.531-3.128,6.056
		c-0.03,1.313,0.18,2.815-1.379,3.388c-1.573,0.578-2.388-0.791-3.285-1.701c-5.76-5.852-11.496-11.727-17.238-17.598
		c-0.33-0.337-0.698-0.658-0.942-1.053c-0.694-1.123-0.267-2.054,1.063-2.208c1.488-0.172,3.082,0.063,4.464-0.387
		c2.042-0.665,3.952-1.753,5.895-2.707c5.165-2.533,10.195-5.386,15.502-7.57c8.405-3.458,17.25-5.316,26.285-6.437
		c8.648-1.073,23.906-1.519,34.944,0.111c7.378,1.115,14.691,2.597,21.539,5.649c6.041,2.692,11.94,5.698,16.45,10.779
		c3.26,3.672,5.449,7.775,6.183,12.751c0.704,4.77-0.081,9.127-2.12,13.406c-1.404,2.947-3.504,4.856-6.393,6.588
		c-5.668,3.399-9.024,4.248-9.741,4.685c-1.14,0.694-1.19,1.618-0.027,2.284c1.046,0.599,2.248,0.953,3.413,1.316
		c6.821,2.129,12.679,5.873,17.563,11.002c3.567,3.745,5.68,8.231,6.39,13.536c0.726,5.433-0.549,10.236-2.896,14.957
		c-1.827,3.675-4.856,6.261-8.043,8.605c-6.444,4.744-13.622,7.955-21.316,10.232c-5.727,1.693-11.531,2.842-17.409,3.619
		C122.068,194.468,111.803,193.33,107.1,193.042z"/>
	<path fill="#E50000" d="M383.914,72.788c6.705,0,13.41,0,20.116,0.001c0.66,0,1.328-0.05,1.981,0.028
		c1.494,0.178,1.725,0.81,0.787,2.032c-1.676,2.182-1.662,2.417,0.246,4.435c0.063,0.069,0.133,0.134,0.199,0.201
		c9.356,9.465,18.715,18.931,28.074,28.396c0.465,0.47,0.902,0.98,1.438,1.361c0.939,0.676,1.945,0.69,2.869-0.054
		c0.514-0.412,0.969-0.899,1.434-1.369c9.24-9.319,18.48-18.64,27.719-27.962c0.334-0.335,0.682-0.659,0.977-1.026
		c1.232-1.531,1.203-2.073,0.053-3.714c-1.035-1.398-1.035-2.249,1.076-2.302c0.461-0.012,0.939-0.026,1.412-0.026
		c13.6,0,27.199-0.003,40.799,0.005c0.844,0,1.711-0.01,2.525,0.169c0.348,0.076,0.771,0.6,0.83,0.971
		c0.057,0.367-0.199,1.01-0.504,1.162c-0.918,0.461-1.902,0.855-2.906,1.075c-3.807,0.832-6.908,2.712-9.66,5.516
		c-11.838,12.063-23.799,24.005-35.695,36.012c-2.984,3.016-5.918,6.092-8.842,9.17c-1.85,1.946-1.855,2.863,0.021,4.782
		c3.295,3.36,6.68,6.632,9.959,10.007c2.43,2.5,4.688,5.17,7.137,7.648c6.508,6.582,13.096,13.082,19.613,19.653
		c4.387,4.422,8.736,8.881,13.047,13.377c2.482,2.593,5.373,4.401,8.861,5.293c1.271,0.322,2.514,0.806,3.715,1.338
		c0.326,0.146,0.666,0.763,0.617,1.109c-0.051,0.356-0.516,0.813-0.891,0.932c-0.613,0.193-1.301,0.195-1.955,0.195
		c-13.883,0.01-27.766,0.008-41.648,0.002c-0.563,0-1.15,0.012-1.684-0.14c-0.883-0.252-1.217-0.784-0.67-1.7
		c0.459-0.771,1.186-1.648,1.102-2.402c-0.092-0.801-0.914-1.588-1.559-2.243c-10.768-10.99-21.557-21.96-32.342-32.933
		c-0.396-0.404-0.795-0.808-1.203-1.201c-2.383-2.303-3.256-2.332-5.643,0.043c-6.896,6.858-13.799,13.715-20.631,20.64
		c-4.438,4.498-8.764,9.108-13.129,13.679c-1.646,1.722-1.645,1.831-0.396,4.114c0.713,1.305,0.445,1.879-1.045,2.092
		c-0.646,0.094-1.316,0.057-1.979,0.057c-13.41,0.002-26.82,0.018-40.23-0.023c-1.205-0.004-3.222,0.324-3.326-1.143
		c-0.211-1.533,1.641-1.611,2.729-1.867c4.883-1.143,8.612-3.928,12.065-7.471c11.008-11.291,22.199-22.398,33.279-33.619
		c3.439-3.484,6.729-7.119,10.127-10.645c1.311-1.355,2.764-2.568,4.104-3.896c2.799-2.778,2.81-3.517,0.117-6.237
		c-8.166-8.259-16.348-16.498-24.508-24.761c-6.633-6.715-13.291-13.408-19.84-20.205c-2.521-2.617-5.482-4.244-8.967-5.059
		c-0.643-0.15-1.273-0.349-1.904-0.544c-0.896-0.277-2.004-0.489-1.881-1.71c0.125-1.243,1.217-1.243,2.188-1.241
		c0.568,0.001,1.135-0.002,1.701-0.002C370.501,72.788,377.208,72.788,383.914,72.788z"/>
	<polygon fill="#FFFFFF" points="522.242,37.74 522.324,37.567 522.201,37.697 	"/>
	<polygon fill="#FFFFFF" points="522.201,37.697 522.06,37.822 522.242,37.74 	"/>
</g>
</svg>
