<?xml version="1.0" encoding="UTF-8" standalone="no"?>
<!-- Generator: Adobe Illustrator 19.0.0, SVG Export Plug-In . SVG Version: 6.00 Build 0)  -->

<svg
   xmlns:dc="http://purl.org/dc/elements/1.1/"
   xmlns:cc="http://creativecommons.org/ns#"
   xmlns:rdf="http://www.w3.org/1999/02/22-rdf-syntax-ns#"
   xmlns:svg="http://www.w3.org/2000/svg"
   xmlns="http://www.w3.org/2000/svg"
   xmlns:sodipodi="http://sodipodi.sourceforge.net/DTD/sodipodi-0.dtd"
   xmlns:inkscape="http://www.inkscape.org/namespaces/inkscape"
   version="1.1"
   id="svg7148"
   inkscape:version="0.92.4 (5da689c313, 2019-01-14)"
   sodipodi:docname="logo.svg"
   x="0px"
   y="0px"
   viewBox="-54.3 345.6 482 105.2"
   xml:space="preserve"><metadata
   id="metadata66"><rdf:RDF><cc:Work
       rdf:about=""><dc:format>image/svg+xml</dc:format><dc:type
         rdf:resource="http://purl.org/dc/dcmitype/StillImage" /></cc:Work></rdf:RDF></metadata><defs
   id="defs64">
	
	
	
	
	
	
	
</defs><sodipodi:namedview
   pagecolor="#ffffff"
   bordercolor="#666666"
   borderopacity="1"
   objecttolerance="10"
   gridtolerance="10"
   guidetolerance="10"
   inkscape:pageopacity="0"
   inkscape:pageshadow="2"
   inkscape:window-width="1920"
   inkscape:window-height="1014"
   id="namedview62"
   showgrid="false"
   inkscape:zoom="1.4605809"
   inkscape:cx="277.39864"
   inkscape:cy="-76.977687"
   inkscape:window-x="0"
   inkscape:window-y="29"
   inkscape:window-maximized="1"
   inkscape:current-layer="svg7148" />
<g
   id="g951"><g
     id="Logo">
		<path
   id="path3002"
   d="m -1.6,345.6 c -29.1,0 -52.6,23.6 -52.6,52.6 0,29.1 23.6,52.6 52.6,52.6 5.6,0 11,-0.9 16,-2.5 V 422 c -4.4,2.5 -9.5,4 -14.9,4 -16,0 -28.9,-12.5 -28.9,-27.8 0,-15.3 13,-27.8 28.9,-27.8 5.5,0 10.6,1.5 14.9,4 v -26.3 c -5,-1.6 -10.4,-2.5 -16,-2.5 z"
   inkscape:connector-curvature="0"
   style="fill:#002255" />
		<polygon
   id="polygon9367"
   points="54.1,378.2 36.5,396.5 14.9,396.5 14.9,378.2 "
   style="fill:#002255" />
		<polygon
   id="polygon9369"
   points="54.1,418.4 36.5,400.2 14.9,400.2 14.9,418.4 "
   style="fill:#ff0000" />
	</g><g
     id="Commodore">
		<path
   id="path3067"
   inkscape:connector-curvature="0"
   d="m 120.4,391.9 c 5,0 9,-1.4 12.2,-4 3.2,-2.7 4.8,-6.4 4.9,-11.3 -0.1,-4.9 -1.7,-8.7 -4.9,-11.4 -3.2,-2.7 -7.2,-4 -12.2,-4 -5,0 -9,1.4 -12.2,4 -3.2,2.6 -4.8,6.5 -4.9,11.4 0.1,4.9 1.7,8.7 4.9,11.3 3.2,2.6 7.2,4 12.2,4 z m 0,-7.1 c -2.3,-0.1 -4,-0.9 -5.1,-2.5 -1.1,-1.6 -1.6,-3.5 -1.5,-5.8 0,-2.3 0.5,-4.2 1.5,-5.8 1,-1.6 2.7,-2.4 5.1,-2.5 2.3,0.1 4,0.9 5.1,2.5 1.1,1.6 1.6,3.5 1.5,5.8 0,2.2 -0.5,4.2 -1.5,5.8 -1.1,1.6 -2.8,2.4 -5.1,2.5 z"
   style="fill:#002255" />
		<path
   id="path3069"
   inkscape:connector-curvature="0"
   d="m 141.6,391.2 h 10.2 v -12.4 c 0,-3.1 0.5,-5.5 1.5,-7 1,-1.5 2.4,-2.2 4.2,-2.2 1.4,0 2.5,0.6 3.1,1.7 0.6,1.1 1,2.5 1,4.2 v 15.8 h 10.2 v -12.4 c 0,-3.1 0.5,-5.5 1.5,-7 1,-1.5 2.4,-2.2 4.2,-2.2 1.4,0 2.5,0.6 3.1,1.7 0.6,1.1 1,2.5 1,4.2 v 15.8 h 10.2 v -17.3 c 0.1,-4 -0.6,-7.1 -2,-9.4 -1.4,-2.2 -4.2,-3.4 -8.4,-3.4 -2.1,0 -4.1,0.4 -5.9,1.3 -1.8,0.9 -3.3,2.3 -4.5,4.3 -0.8,-1.9 -2,-3.3 -3.6,-4.3 -1.6,-0.9 -3.5,-1.4 -5.6,-1.4 -2.3,0 -4.5,0.5 -6.3,1.5 -1.9,1 -3.3,2.5 -4.4,4.6 H 151 v -5.4 h -9.3 z"
   style="fill:#002255" />
		<path
   id="path3071"
   inkscape:connector-curvature="0"
   d="m 197.3,391.2 h 10.2 v -12.4 c 0,-3.1 0.5,-5.5 1.5,-7 1,-1.5 2.4,-2.2 4.2,-2.2 1.4,0 2.5,0.6 3.1,1.7 0.6,1.1 1,2.5 1,4.2 v 15.8 h 10.2 v -12.4 c 0,-3.1 0.5,-5.5 1.5,-7 1,-1.5 2.4,-2.2 4.2,-2.2 1.4,0 2.5,0.6 3.1,1.7 0.6,1.1 1,2.5 1,4.2 v 15.8 h 10.2 v -17.3 c 0.1,-4 -0.6,-7.1 -2,-9.4 -1.4,-2.2 -4.2,-3.4 -8.4,-3.4 -2.1,0 -4.1,0.4 -5.9,1.3 -1.8,0.9 -3.3,2.3 -4.5,4.3 -0.8,-1.9 -2,-3.3 -3.6,-4.3 -1.6,-0.9 -3.5,-1.4 -5.6,-1.4 -2.4,0 -4.5,0.5 -6.3,1.5 -1.9,1 -3.3,2.5 -4.4,4.6 h -0.1 v -5.4 h -9.3 z"
   style="fill:#002255" />
		<path
   id="path3073"
   inkscape:connector-curvature="0"
   d="m 268.6,391.9 c 5,0 9,-1.4 12.2,-4 3.2,-2.7 4.8,-6.4 4.9,-11.3 -0.1,-4.9 -1.7,-8.7 -4.9,-11.4 -3.2,-2.7 -7.2,-4 -12.2,-4 -5,0 -9,1.4 -12.2,4 -3.2,2.6 -4.8,6.5 -4.9,11.4 0.1,4.9 1.7,8.7 4.9,11.3 3.2,2.6 7.3,4 12.2,4 z m 0,-7.1 c -2.3,-0.1 -4,-0.9 -5.1,-2.5 -1.1,-1.6 -1.6,-3.5 -1.5,-5.8 0,-2.3 0.5,-4.2 1.5,-5.8 1,-1.6 2.7,-2.4 5.1,-2.5 2.3,0.1 4,0.9 5.1,2.5 1.1,1.6 1.6,3.5 1.6,5.8 0,2.2 -0.5,4.2 -1.6,5.8 -1.1,1.6 -2.7,2.4 -5.1,2.5 z"
   style="fill:#002255" />
		<path
   id="path3075"
   inkscape:connector-curvature="0"
   d="m 321.5,348.9 h -10.2 v 16.7 h -0.1 c -1.3,-1.7 -2.8,-2.8 -4.5,-3.5 -1.7,-0.7 -3.6,-1 -5.6,-1 -4.1,0.2 -7.2,1.7 -9.3,4.7 -2.1,3 -3.2,6.4 -3.2,10.1 0,4.5 1.2,8.2 3.4,11.2 2.3,3 5.6,4.6 10,4.7 2.4,0 4.5,-0.6 6.3,-1.7 1.8,-1.1 3.1,-2.5 3.8,-4.2 h 0.1 v 5.3 h 9.4 z m -22.6,27.3 c 0,-2 0.5,-3.7 1.6,-5.1 1.1,-1.4 2.6,-2.1 4.6,-2.2 1.9,0 3.4,0.8 4.5,2.2 1.1,1.4 1.7,3.2 1.7,5.5 0,2.2 -0.7,4 -1.8,5.4 -1.2,1.4 -2.6,2.1 -4.4,2.1 -1.9,0 -3.4,-0.8 -4.5,-2.2 -1.1,-1.4 -1.7,-3.3 -1.7,-5.7 z"
   style="fill:#002255" />
		<path
   id="path3077"
   inkscape:connector-curvature="0"
   d="m 342.4,391.9 c 5,0 9,-1.4 12.2,-4 3.2,-2.7 4.8,-6.4 4.9,-11.3 -0.1,-4.9 -1.7,-8.7 -4.9,-11.4 -3.2,-2.7 -7.2,-4 -12.2,-4 -5,0 -9,1.4 -12.2,4 -3.2,2.7 -4.8,6.5 -4.9,11.4 0.1,4.9 1.7,8.7 4.9,11.3 3.2,2.6 7.3,4 12.2,4 z m 0,-7.1 c -2.3,-0.1 -4,-0.9 -5.1,-2.5 -1,-1.6 -1.6,-3.5 -1.5,-5.8 0,-2.3 0.5,-4.2 1.5,-5.8 1,-1.6 2.7,-2.4 5.1,-2.5 2.3,0.1 4,0.9 5.1,2.5 1,1.6 1.6,3.5 1.5,5.8 0,2.2 -0.5,4.2 -1.5,5.8 -1,1.6 -2.7,2.4 -5.1,2.5 z"
   style="fill:#002255" />
		<path
   id="path3079"
   inkscape:connector-curvature="0"
   d="m 385.2,361.5 c -0.5,-0.1 -1.1,-0.2 -1.7,-0.2 -0.6,-0.1 -1.2,-0.1 -1.8,-0.1 -2.2,0 -4,0.6 -5.3,1.7 -1.4,1.1 -2.5,2.6 -3.4,4.4 h -0.1 v -5.4 h -9.3 v 29.4 h 10.2 v -12.4 c 0,-2.9 0.6,-5.2 1.9,-6.8 1.3,-1.6 3.1,-2.4 5.5,-2.4 0.6,0 1.2,0 1.7,0 0.6,0 1.1,0.1 1.7,0.3 z"
   style="fill:#002255" />
		<path
   id="path3081"
   inkscape:connector-curvature="0"
   d="m 417.1,379.5 v -1.9 c 0.1,-4.5 -1.1,-8.4 -3.3,-11.5 -2.3,-3.2 -6.1,-4.8 -11.5,-5 -4.7,0 -8.4,1.4 -11.3,4 -2.9,2.7 -4.4,6.4 -4.4,11.3 0.1,4.9 1.7,8.7 4.9,11.3 3.2,2.7 7.2,4 12.2,4.1 1.9,0 3.8,-0.1 5.6,-0.4 1.8,-0.3 3.6,-0.8 5.2,-1.4 v -7.2 c -1.5,0.8 -3.1,1.4 -4.6,1.7 -1.5,0.4 -3,0.5 -4.4,0.5 -2.5,0 -4.5,-0.4 -6,-1.3 -1.5,-0.9 -2.4,-2.3 -2.7,-4.3 z m -20.5,-5.8 c 0.1,-1.7 0.6,-3.2 1.5,-4.3 0.9,-1.2 2.3,-1.8 4.1,-1.8 2,0 3.5,0.6 4.3,1.8 0.9,1.2 1.3,2.6 1.3,4.3 z"
   style="fill:#002255" />
		<path
   id="path3064"
   sodipodi:nodetypes="sssssccsssssccss"
   inkscape:connector-curvature="0"
   d="m 81.6,391.5 c -4.4,-1.2 -7.8,-3.2 -10.6,-6.3 -2.8,-3.1 -4.1,-5.9 -4.9,-10.9 -1.5,-9.8 2.7,-18.8 10.8,-22.7 4.1,-2 9.6,-3 15.1,-3 3.4,0 6.4,0.6 9.2,1.1 l -0.9,8.8 c 0,0 -0.7,-0.2 -2.7,-0.7 -1.9,-0.5 -3.8,-0.7 -5.7,-0.7 -3.8,0 -7.5,1 -9.9,2.9 -5.7,4.4 -5.7,15.9 0.2,20.7 3.6,3 10.1,4 15.9,2.5 l 2.7,-0.7 0.8,8.9 c -1.7,0.4 -5.3,1.1 -9.7,1.1 -5.8,0 -7.6,-0.2 -10.3,-1 z"
   style="fill:#002255" />
	</g><rect
     id="Line"
     x="58.799999"
     y="396.60001"
     width="369"
     height="3"
     style="fill:#002255" /><g
     id="Amiga">
		<path
   id="path6187"
   d="m 119.5,444.7 c 0,-0.5 -0.1,-0.9 -0.4,-1 -0.3,-0.2 -0.6,-0.3 -1.1,-0.3 -1.6,-0.3 -2.5,-0.9 -2.8,-1.8 -0.3,-1 -0.4,-2.2 -0.4,-3.7 l -1.6,-30.8 c 0,-1.1 -0.1,-2 -0.3,-2.8 -0.2,-0.7 -0.9,-1.1 -2.2,-1.2 -1.1,0 -1.9,0.4 -2.4,1 -0.5,0.6 -1,1.4 -1.6,2.2 l -19.8,27.8 -3.3,4.7 c -0.7,1 -1.4,1.9 -2.1,2.8 -0.8,0.9 -1.8,1.4 -3,1.6 -0.7,0.1 -1.3,0.2 -1.9,0.4 -0.6,0.2 -0.9,0.7 -1,1.5 0,0.5 0.2,0.8 0.5,0.9 0.3,0.1 0.7,0.2 1.1,0.2 1.1,0 2.3,-0.1 3.5,-0.2 1.2,-0.1 2.3,-0.2 3.5,-0.2 1.1,0 2.1,0.1 3.1,0.2 1,0.1 2.1,0.1 3.1,0.2 0.5,0 0.9,-0.1 1.3,-0.3 0.4,-0.2 0.6,-0.6 0.6,-1.1 -0.1,-0.8 -0.5,-1.2 -1.4,-1.3 -0.9,-0.1 -1.7,-0.3 -2.6,-0.5 -0.9,-0.2 -1.3,-0.8 -1.4,-1.9 0.2,-1.1 0.9,-2.7 2.2,-4.7 1.3,-2 2.2,-3.5 2.8,-4.3 h 12.3 c 0.1,1.3 0.1,2.6 0.2,3.9 0.1,1.3 0.1,2.6 0.1,3.9 -0.1,1.8 -0.5,2.9 -1.4,3.2 -0.9,0.3 -1.8,0.5 -2.6,0.5 -0.9,0 -1.4,0.6 -1.4,1.5 0,0.4 0.1,0.7 0.4,0.9 0.3,0.2 0.6,0.2 1,0.2 1.7,0 3.4,-0.1 5.1,-0.2 1.7,-0.1 3.4,-0.2 5.1,-0.2 1.1,0 2.3,0.1 3.4,0.1 1.1,0.1 2.3,0.1 3.4,0.1 0.5,0 1,-0.1 1.3,-0.2 0.5,-0.2 0.7,-0.6 0.7,-1.1 z M 104.3,428.9 H 94 l 9.8,-14.3 z"
   inkscape:connector-curvature="0"
   style="fill:#ff0000" />
		<path
   id="path4766"
   d="m 208.9,405.5 c 0,-0.4 -0.1,-0.6 -0.4,-0.8 -0.2,-0.2 -0.5,-0.3 -0.9,-0.3 -0.6,0 -1.1,0 -1.6,0.1 -0.5,0 -1.1,0.1 -1.6,0.2 -1.4,0.1 -2.7,0.2 -4.1,0.3 -1.4,0 -2.8,0.1 -4.2,0 -1,0 -2,-0.1 -3.1,-0.1 -1,-0.1 -2,-0.1 -3.1,-0.1 -0.5,0 -0.9,0.1 -1.3,0.4 -0.4,0.3 -0.6,0.7 -0.6,1.2 0.2,0.9 0.9,1.4 2.1,1.3 1.2,-0.1 1.9,0.5 2.1,1.6 0,0.3 0,0.6 -0.1,1 -0.1,0.3 -0.2,0.6 -0.3,1 l -7.8,27 c -0.3,1.3 -0.6,2.4 -1,3.3 -0.4,0.9 -1.2,1.5 -2.5,1.8 -0.6,0.1 -1.3,0.2 -2.1,0.4 -0.8,0.2 -1.3,0.7 -1.3,1.4 0,0.4 0.2,0.7 0.5,0.9 0.3,0.2 0.7,0.3 1.1,0.3 1.3,0 2.7,-0.1 4,-0.2 1.4,-0.1 2.7,-0.2 4.1,-0.2 1.5,0 2.9,0.1 4.4,0.2 1.5,0.1 2.9,0.1 4.4,0.1 0.6,0 1.3,0 2.1,-0.1 0.8,-0.1 1.2,-0.5 1.3,-1.3 -0.1,-0.8 -0.5,-1.2 -1.2,-1.3 -0.7,-0.1 -1.5,-0.2 -2.2,-0.4 -0.7,-0.2 -1.1,-0.9 -1.2,-2.1 0,-0.5 0.1,-1 0.2,-1.5 0.1,-0.5 0.3,-1 0.4,-1.5 l 7.8,-27.1 c 0.3,-1.1 0.6,-1.9 1,-2.4 0.4,-0.5 1.2,-0.9 2.3,-1.1 0.6,-0.1 1.2,-0.2 1.9,-0.5 0.5,-0.4 0.8,-0.9 0.9,-1.5 z"
   inkscape:connector-curvature="0"
   style="fill:#ff0000" />
		<path
   id="path4768"
   d="m 249.5,405.8 c -0.1,-0.7 -0.8,-1.1 -2,-1.4 -1.3,-0.3 -2.6,-0.4 -4,-0.5 -1.4,-0.1 -2.3,-0.1 -2.8,-0.1 -5.2,0 -10.6,1.1 -16.2,3.1 -5.6,2.1 -10.4,5.1 -14.4,9.1 -4,4 -6.1,8.9 -6.2,14.7 0.1,3.7 1.1,6.7 3.2,9.1 2.1,2.4 4.6,4.2 7.8,5.4 3.1,1.2 6.3,1.8 9.7,1.8 2,0 4,-0.1 6.1,-0.4 2,-0.2 4,-0.6 6,-1.1 0.7,-0.1 1.4,-0.3 1.9,-0.6 0.5,-0.2 0.9,-0.7 1.2,-1.5 0.5,-1.5 1,-3.1 1.5,-4.7 0.4,-1.6 0.9,-3.2 1.3,-4.7 0.7,-2.2 1.6,-3.6 2.6,-4 1,-0.4 1.9,-0.6 2.7,-0.6 0.8,0 1.2,-0.5 1.2,-1.5 0,-0.4 -0.2,-0.7 -0.5,-0.9 -0.3,-0.2 -0.7,-0.3 -1,-0.3 -1.5,0 -3.1,0.1 -4.6,0.2 -1.6,0.1 -3.1,0.2 -4.7,0.2 -1.5,0 -3,-0.1 -4.4,-0.2 -1.5,-0.1 -3,-0.2 -4.4,-0.2 -0.5,0 -1,0.1 -1.4,0.3 -0.5,0.2 -0.7,0.6 -0.7,1.1 0.1,0.7 0.5,1.1 1.2,1.2 0.8,0.1 1.5,0.2 2.3,0.5 0.8,0.2 1.2,0.9 1.2,2 -0.1,1.2 -0.4,2.7 -1.1,4.8 -0.6,2 -1.2,3.6 -1.6,4.9 -0.2,0.9 -0.6,1.6 -1,2 -0.4,0.4 -1.1,0.6 -2.1,0.6 -3.6,-0.1 -6.4,-1.2 -8.2,-3.5 -1.9,-2.3 -2.8,-5.1 -2.8,-8.6 0,-3.2 0.7,-6.4 2,-9.4 1.3,-3 3.1,-5.7 5.3,-8 2.2,-2.2 5,-4.1 8.2,-5.7 3.3,-1.6 6.5,-2.4 9.7,-2.5 1.5,0 2.4,0.3 2.8,0.9 0.3,0.6 0.5,1.6 0.4,3 0,0.4 0,0.7 -0.1,1.1 0,0.4 -0.1,0.7 -0.1,1.1 0,0.6 0.1,1.2 0.3,1.7 0.2,0.5 0.7,0.8 1.4,0.8 0.8,-0.1 1.3,-0.4 1.7,-1.1 0.4,-0.7 0.6,-1.4 0.8,-2 0.2,-0.5 0.5,-1.5 1,-3.1 0.4,-1.6 0.7,-2.6 0.8,-3 z"
   inkscape:connector-curvature="0"
   style="fill:#ff0000" />
		<path
   id="path4770"
   d="m 284.9,444.7 c 0,-0.5 -0.1,-0.9 -0.4,-1 -0.3,-0.2 -0.6,-0.3 -1.1,-0.3 -1.6,-0.3 -2.5,-0.9 -2.8,-1.8 -0.3,-1 -0.4,-2.2 -0.4,-3.7 l -1.6,-30.8 c 0,-1.1 -0.1,-2 -0.3,-2.8 -0.2,-0.7 -0.9,-1.1 -2.2,-1.2 -1.1,0 -1.9,0.4 -2.4,1 -0.5,0.6 -1,1.4 -1.6,2.2 l -19.8,27.8 -3.3,4.7 c -0.7,1 -1.4,1.9 -2.1,2.8 -0.8,0.9 -1.8,1.4 -3,1.6 -0.7,0.1 -1.3,0.2 -1.9,0.4 -0.6,0.2 -0.9,0.7 -1,1.5 0,0.5 0.2,0.8 0.5,0.9 0.3,0.1 0.7,0.2 1.1,0.2 1.1,0 2.3,-0.1 3.5,-0.2 1.2,-0.1 2.3,-0.2 3.5,-0.2 1.1,0 2.1,0.1 3.1,0.2 1.1,0.1 2.1,0.1 3.1,0.2 0.5,0 0.9,-0.1 1.3,-0.3 0.4,-0.2 0.6,-0.6 0.6,-1.1 -0.1,-0.8 -0.5,-1.2 -1.4,-1.3 -0.9,-0.1 -1.7,-0.3 -2.6,-0.5 -0.9,-0.2 -1.3,-0.8 -1.4,-1.9 0.2,-1.1 0.9,-2.7 2.2,-4.7 1.3,-2 2.2,-3.5 2.8,-4.3 h 12.4 c 0.1,1.3 0.1,2.6 0.2,3.9 0.1,1.3 0.1,2.6 0.1,3.9 -0.1,1.8 -0.5,2.9 -1.4,3.2 -0.9,0.3 -1.8,0.5 -2.6,0.5 -0.9,0 -1.4,0.6 -1.4,1.5 0,0.4 0.1,0.7 0.4,0.9 0.3,0.2 0.6,0.2 1,0.2 1.7,0 3.4,-0.1 5.1,-0.2 1.7,-0.1 3.4,-0.2 5.1,-0.2 1.1,0 2.3,0.1 3.4,0.1 1.1,0.1 2.3,0.1 3.4,0.1 0.5,0 1,-0.1 1.3,-0.2 0.4,-0.2 0.6,-0.6 0.6,-1.1 z m -15.3,-15.8 h -10.3 l 9.8,-14.3 z"
   inkscape:connector-curvature="0"
   style="fill:#ff0000" />
		<path
   id="path4764"
   d="m 182.7,405.7 c 0,-0.4 -0.1,-0.7 -0.4,-0.9 -0.2,-0.2 -0.5,-0.3 -0.9,-0.3 -1.3,0 -2.6,0 -3.9,0.1 -1.3,0.1 -2.6,0.1 -3.9,0.1 -0.7,0 -1.7,-0.1 -3.1,-0.1 -1.4,0 -2.3,0.1 -2.8,0.5 -0.1,0.1 -0.2,0.3 -0.2,0.4 -0.1,0.2 -0.2,0.3 -0.2,0.4 l -17,25.7 -0.7,-25.3 c 0,-0.5 0,-0.9 -0.1,-1.2 -0.1,-0.4 -0.4,-0.5 -0.9,-0.6 -1.4,0 -2.9,0 -4.3,0.1 -1.4,0 -2.9,0 -4.3,0 -0.8,0 -1.6,-0.1 -2.4,-0.1 -0.8,-0.1 -1.6,-0.1 -2.4,-0.1 -0.5,0 -1,0.1 -1.5,0.2 -0.5,0.2 -0.7,0.5 -0.8,1.1 0.2,1 1,1.5 2.3,1.4 1.4,0 2.1,0.5 2.3,1.4 0,0.7 -0.2,1.4 -0.4,2.1 -0.3,0.7 -0.5,1.4 -0.7,2 -1.5,4.2 -3,8.3 -4.5,12.5 -1.5,4.2 -3,8.3 -4.6,12.5 -0.6,1.8 -1.2,3 -1.8,3.7 -0.6,0.7 -1.8,1.2 -3.7,1.5 -0.5,0.1 -1,0.2 -1.4,0.5 -0.4,0.2 -0.6,0.6 -0.6,1.2 0,0.5 0.2,0.8 0.5,1 0.3,0.1 0.7,0.2 1.2,0.2 1.1,0 2.2,0 3.3,-0.1 1.1,-0.1 2.2,-0.1 3.3,-0.1 1,0 2,0.1 3,0.2 1,0.1 2,0.1 3,0.2 0.5,0 0.9,-0.1 1.3,-0.4 0.4,-0.2 0.6,-0.6 0.7,-1.1 -0.1,-0.9 -0.5,-1.3 -1.4,-1.4 -0.9,-0.1 -1.8,-0.2 -2.7,-0.4 -0.9,-0.2 -1.4,-1 -1.4,-2.4 0.1,-1.9 0.8,-4.8 2.1,-8.7 1.3,-3.8 2.6,-7.6 4.1,-11.2 1.4,-3.6 2.4,-6 2.9,-7.3 l 0.7,29.4 c 0,0.9 0.1,1.6 0.3,2.2 0.2,0.5 0.8,0.8 1.8,0.8 1,0 1.8,-0.4 2.4,-1.1 0.6,-0.7 1.1,-1.4 1.6,-2.2 l 19.8,-29.1 -6.5,24.6 c -0.2,1.1 -0.5,2.1 -0.9,3.2 -0.4,1.1 -1.2,1.7 -2.3,2 -0.7,0 -1.4,0.2 -2.2,0.3 -0.8,0.2 -1.3,0.7 -1.4,1.5 0,0.5 0.2,0.8 0.5,1 0.3,0.2 0.7,0.3 1.1,0.3 1.4,0 2.9,-0.1 4.3,-0.2 1.4,-0.1 2.9,-0.2 4.3,-0.2 1.5,0 3,0.1 4.4,0.2 1.5,0.1 3,0.2 4.4,0.2 0.6,0 1,-0.1 1.5,-0.3 0.4,-0.2 0.7,-0.6 0.7,-1.2 -0.1,-0.7 -0.4,-1.2 -1.1,-1.3 -0.7,-0.1 -1.4,-0.3 -2.1,-0.5 -0.7,-0.2 -1.1,-0.8 -1.1,-1.9 0,-0.7 0.1,-1.5 0.3,-2.3 0.2,-0.8 0.3,-1.5 0.5,-2.2 l 6.3,-25.3 c 0.2,-1.1 0.5,-2 0.9,-2.6 0.4,-0.6 1.1,-1 2.3,-1.2 0.6,0 1.2,-0.2 1.8,-0.4 0.3,0.2 0.7,-0.3 0.7,-1 z"
   inkscape:connector-curvature="0"
   style="fill:#ff0000" />
	</g><g
     transform="translate(16)"
     id="g33">
		<path
   d="m 385.3,410.6 c -10.2,-0.3 -8.5,19.7 -5.7,25 1.2,2.3 2.9,3.5 5.7,3.5 2.8,0 4.8,-1.1 6.1,-3.4 2.9,-5.1 4.2,-24.8 -6.1,-25.1 z m 6.6,19.8 c -0.2,1.4 -0.7,3.4 -1.4,4.7 -1.1,2 -2.8,2.8 -5.1,2.8 -2.3,0 -3.6,-0.9 -4.7,-2.9 -0.7,-1.3 -1.1,-3.2 -1.4,-4.6 -0.4,-2.2 -0.6,-4.5 -0.6,-6.7 0,-3.4 0.6,-9 3.7,-11.1 0.9,-0.6 1.9,-0.8 3,-0.8 5.6,0.1 6.8,7.4 7,11.8 0,2.2 -0.2,4.5 -0.5,6.8 z"
   id="path23"
   inkscape:connector-curvature="0"
   style="fill:none" />
		<path
   d="m 396.6,409.7 c -2.7,-3.9 -6.5,-5.8 -11.2,-5.8 -4.7,0 -8.4,1.9 -11.1,5.8 -3.1,4.3 -3.9,9.9 -3.9,15.2 0,5.2 0.9,10.8 3.9,15.2 2.7,3.8 6.5,5.8 11.1,5.8 4.7,0 8.4,-1.9 11.1,-5.7 3.1,-4.3 3.9,-9.8 3.9,-14.9 0.1,-5.4 -0.7,-11.2 -3.8,-15.6 z m -1,29.7 c -2.5,3.5 -5.9,5.2 -10.2,5.2 -4.3,0 -7.7,-1.8 -10.2,-5.3 -2.5,-3.5 -3.7,-8.4 -3.7,-14.5 0,-6.1 1.2,-11 3.7,-14.5 2.5,-3.5 5.9,-5.3 10.2,-5.3 4.4,0 7.8,1.8 10.2,5.3 2.4,3.5 3.6,8.5 3.6,14.8 0.1,6.1 -1.1,10.9 -3.6,14.3 z"
   id="path25"
   inkscape:connector-curvature="0"
   style="fill:none" />
		<path
   d="m 397.6,409 c -2.9,-4.2 -7,-6.3 -12.1,-6.3 -5.1,0 -9.2,2.1 -12.1,6.2 -3.2,4.5 -4.1,10.4 -4.1,15.8 0,5.5 0.9,11.3 4.1,15.9 2.9,4.1 7,6.3 12.1,6.3 5,0 9.1,-2.1 12,-6.2 3.2,-4.5 4.1,-10.2 4.1,-15.6 0,-5.4 -0.8,-11.5 -4,-16.1 z m -1.1,31.1 c -2.7,3.8 -6.5,5.7 -11.1,5.7 -4.7,0 -8.4,-1.9 -11.1,-5.8 -3.1,-4.4 -3.9,-10 -3.9,-15.2 0,-5.2 0.9,-10.8 3.9,-15.2 2.7,-3.8 6.5,-5.8 11.1,-5.8 4.7,0 8.5,1.9 11.2,5.8 3.1,4.4 3.9,10.2 3.9,15.5 0,5.2 -0.9,10.7 -4,15 z"
   id="path27"
   inkscape:connector-curvature="0"
   style="fill:#002255" />
		<path
   d="m 385.3,411.7 c -1.1,0 -2.1,0.2 -3,0.8 -3.1,2.1 -3.7,7.7 -3.7,11.1 0,2.2 0.2,4.5 0.6,6.7 0.3,1.4 0.7,3.3 1.4,4.6 1.1,2 2.4,2.9 4.7,2.9 2.3,0 4,-0.8 5.1,-2.8 0.7,-1.3 1.2,-3.2 1.4,-4.7 0.4,-2.3 0.5,-4.6 0.4,-6.9 -0.1,-4.3 -1.3,-11.5 -6.9,-11.7 z m 4.2,22.1 c -1,2.1 -2.6,2.7 -4.1,2.7 -1.6,0 -3,-0.3 -4,-2.6 -0.9,-2.1 -1.5,-6 -1.5,-9.1 0,-3.8 0.4,-7.5 1.7,-9.6 0.9,-1.5 2.5,-2.1 3.7,-2.1 1.3,0 2.8,0.9 3.7,2.5 1.2,2.1 1.7,5.5 1.7,9.2 0.1,3.3 -0.2,6.9 -1.2,9 z"
   id="path29"
   inkscape:connector-curvature="0"
   style="fill:#002255" />
		<path
   d="m 395.7,410.3 c -2.4,-3.5 -5.8,-5.3 -10.2,-5.3 -4.3,0 -7.7,1.8 -10.2,5.3 -2.5,3.5 -3.7,8.3 -3.7,14.5 0,6.2 1.2,11 3.7,14.5 2.5,3.5 5.9,5.3 10.2,5.3 4.3,0 7.7,-1.7 10.2,-5.2 2.5,-3.5 3.7,-8.2 3.7,-14.3 -0.1,-6.3 -1.3,-11.3 -3.7,-14.8 z m -4.2,25.3 c -1.3,2.3 -3.3,3.4 -6.1,3.4 -2.8,0 -4.5,-1.2 -5.7,-3.5 -2.8,-5.2 -4.5,-25.2 5.7,-25 10.2,0.4 8.9,20.1 6.1,25.1 z"
   id="path31"
   inkscape:connector-curvature="0"
   style="fill:#002255" />
	</g><g
     transform="translate(16)"
     id="g45">
		<path
   d="m 348.8,410.6 c -10.2,-0.3 -8.5,19.7 -5.7,25 1.2,2.3 2.9,3.5 5.7,3.5 2.8,0 4.8,-1.1 6.1,-3.4 2.9,-5.1 4.1,-24.8 -6.1,-25.1 z m 6.5,19.8 c -0.2,1.4 -0.7,3.4 -1.4,4.7 -1.1,2 -2.8,2.8 -5.1,2.8 v 0 c 0,0 -0.1,0 -0.1,0 -0.1,0 -0.2,0 -0.3,0 -2,-0.1 -3.2,-1 -4.2,-2.9 -0.7,-1.3 -1.1,-3.2 -1.4,-4.6 -0.4,-2.2 -0.6,-4.5 -0.6,-6.7 0,-3.4 0.6,-9 3.7,-11.1 0.9,-0.6 1.9,-0.8 3,-0.8 5.6,0.2 6.8,7.4 7,11.8 0,2.2 -0.2,4.5 -0.6,6.8 z"
   id="path35"
   inkscape:connector-curvature="0"
   style="fill:none" />
		<path
   d="m 360.1,409.7 c -2.7,-3.9 -6.5,-5.8 -11.2,-5.8 -4.7,0 -8.4,1.9 -11.1,5.8 -3.1,4.3 -3.9,9.9 -3.9,15.2 0,5.2 0.9,10.8 3.9,15.2 2.7,3.8 6.5,5.8 11.1,5.8 4.7,0 8.4,-1.9 11.1,-5.7 3.1,-4.3 3.9,-9.8 3.9,-14.9 0,-5.4 -0.8,-11.2 -3.8,-15.6 z m -1,29.7 c -2.5,3.5 -5.9,5.2 -10.2,5.2 -4.3,0 -7.7,-1.8 -10.2,-5.3 -2.5,-3.5 -3.7,-8.4 -3.7,-14.5 0,-6.1 1.2,-11 3.7,-14.5 2.5,-3.5 5.9,-5.3 10.2,-5.3 4.4,0 7.8,1.8 10.2,5.3 2.4,3.5 3.6,8.5 3.6,14.8 0.1,6.1 -1.2,10.9 -3.6,14.3 z"
   id="path37"
   inkscape:connector-curvature="0"
   style="fill:none" />
		<path
   d="m 348.8,411.7 c -1.1,0 -2.1,0.2 -3,0.8 -3.1,2.1 -3.7,7.7 -3.7,11.1 0,2.2 0.2,4.5 0.6,6.7 0.3,1.4 0.7,3.3 1.4,4.6 1,1.9 2.2,2.8 4.2,2.9 0.1,0 0.2,0 0.3,0 0,0 0.1,0 0.1,0 v 0 c 2.3,0 4,-0.8 5.1,-2.8 0.7,-1.3 1.2,-3.2 1.4,-4.7 0.4,-2.3 0.5,-4.6 0.4,-6.9 0,-4.3 -1.2,-11.5 -6.8,-11.7 z m 4.3,22.1 c -1,2.1 -2.6,2.7 -4.1,2.7 -1.6,0 -3,-0.3 -4,-2.6 -0.9,-2.1 -1.5,-6 -1.5,-9.1 0,-3.8 0.4,-7.5 1.7,-9.6 0.9,-1.5 2.5,-2.1 3.7,-2.1 1.3,0 2.8,0.9 3.7,2.5 1.2,2.1 1.7,5.5 1.7,9.2 0.1,3.3 -0.2,6.9 -1.2,9 z"
   id="path39"
   inkscape:connector-curvature="0"
   style="fill:#002255" />
		<path
   d="m 361,409 c -2.9,-4.2 -7,-6.3 -12.1,-6.3 -5.1,0 -9.2,2.1 -12.1,6.2 -3.2,4.5 -4.1,10.4 -4.1,15.8 0,5.5 0.9,11.3 4.1,15.9 2.9,4.1 7,6.3 12.1,6.3 5,0 9.1,-2.1 12,-6.2 3.2,-4.5 4.1,-10.2 4.1,-15.6 0.1,-5.4 -0.8,-11.5 -4,-16.1 z m -1,31.1 c -2.7,3.8 -6.5,5.7 -11.1,5.7 -4.7,0 -8.4,-1.9 -11.1,-5.8 -3.1,-4.4 -3.9,-10 -3.9,-15.2 0,-5.2 0.9,-10.8 3.9,-15.2 2.7,-3.8 6.5,-5.8 11.1,-5.8 4.7,0 8.5,1.9 11.2,5.8 3.1,4.4 3.9,10.2 3.9,15.5 -0.1,5.2 -0.9,10.7 -4,15 z"
   id="path41"
   inkscape:connector-curvature="0"
   style="fill:#002255" />
		<path
   d="m 359.1,410.3 c -2.4,-3.5 -5.8,-5.3 -10.2,-5.3 -4.3,0 -7.7,1.8 -10.2,5.3 -2.5,3.5 -3.7,8.3 -3.7,14.5 0,6.2 1.2,11 3.7,14.5 2.5,3.5 5.9,5.3 10.2,5.3 4.3,0 7.7,-1.7 10.2,-5.2 2.5,-3.5 3.7,-8.2 3.7,-14.3 0,-6.3 -1.2,-11.3 -3.7,-14.8 z m -4.2,25.3 c -1.3,2.3 -3.3,3.4 -6.1,3.4 -2.8,0 -4.5,-1.2 -5.7,-3.5 -2.8,-5.2 -4.5,-25.2 5.7,-25 10.2,0.4 9,20.1 6.1,25.1 z"
   id="path43"
   inkscape:connector-curvature="0"
   style="fill:#002255" />
	</g><g
     transform="translate(16)"
     id="g57">
		<path
   d="m 313.3,424.2 c -4.2,-0.2 -7.7,3.1 -7.9,7.3 -0.2,4.2 3.1,7.7 7.3,7.9 4.2,0.2 7.7,-3.1 7.9,-7.3 0.1,-4.2 -3.1,-7.7 -7.3,-7.9 z m -0.6,14.2 c -3.6,-0.1 -6.4,-3.2 -6.3,-6.8 0.1,-3.6 3.2,-6.4 6.8,-6.3 3.6,0.1 6.4,3.2 6.3,6.8 -0.1,3.6 -3.2,6.4 -6.8,6.3 z"
   id="path47"
   inkscape:connector-curvature="0"
   style="fill:none" />
		<path
   d="m 322.7,421.5 c -1.6,-1.4 -3.5,-2.5 -5.5,-3.1 -1.2,-0.4 -2.5,-0.6 -3.8,-0.7 -0.6,0 -1.2,0 -1.8,0 -0.1,0 -0.1,0 -0.2,0 0.7,-1.5 1.6,-3 2.4,-4.4 0.8,-1.3 1.6,-2.5 2.4,-3.7 0.7,-1 1.4,-1.9 2.2,-2.8 l 1.3,-1.4 -7.9,-1.3 -0.4,0.4 c -1.5,1.6 -2.9,3.5 -4.1,5.3 -1.6,2.4 -3,4.9 -4.3,7.5 -2,4 -4.7,10.4 -4.3,14.9 0.2,7.4 6.1,13.4 13.5,13.7 1.9,0.1 3.8,-0.2 5.5,-0.9 1.7,-0.6 3.3,-1.6 4.6,-2.8 2.7,-2.5 4.3,-5.9 4.5,-9.6 0,-0.4 0.1,-0.7 0.1,-1.1 0.1,-2.1 -0.3,-4.1 -1.2,-5.9 -0.6,-1.5 -1.7,-2.9 -3,-4.1 z m 3.2,11 c -0.4,7.1 -6.4,12.7 -13.6,12.4 -6.9,-0.3 -12.4,-5.9 -12.5,-12.7 -0.7,-7.4 7.9,-22.3 12.4,-26.9 l 5.5,0.9 c -2.5,2.8 -6.4,9.1 -8.1,13 0.7,-0.2 1.4,-0.3 2.1,-0.4 0.6,-0.1 1.1,-0.1 1.7,0 1.2,0.1 2.4,0.3 3.5,0.6 1.9,0.6 3.7,1.6 5.1,2.9 2.6,2.3 4.1,5.6 4,9.2 0,0.4 0,0.7 -0.1,1 z"
   id="path49"
   inkscape:connector-curvature="0"
   style="fill:none" />
		<path
   d="m 326.8,425.1 c -0.8,-1.7 -2,-3.2 -3.4,-4.5 -1.7,-1.5 -3.7,-2.7 -5.9,-3.4 -1.3,-0.4 -2.7,-0.7 -4.1,-0.7 -0.1,0 -0.1,0 -0.2,0 0.5,-0.9 1,-1.8 1.5,-2.6 0.7,-1.2 1.5,-2.4 2.4,-3.6 0.7,-0.9 1.3,-1.9 2.1,-2.7 l 2.6,-3 -10.6,-1.7 -0.8,0.8 c -1.6,1.6 -3,3.6 -4.2,5.5 -1.6,2.4 -3.1,5 -4.4,7.6 -2.1,4.3 -4.8,10.7 -4.4,15.5 0.3,8 6.6,14.4 14.6,14.7 2,0.1 4.1,-0.2 6,-1 1.8,-0.7 3.5,-1.7 5,-3.1 2.9,-2.7 4.7,-6.4 4.9,-10.3 0,-0.4 0.1,-0.8 0.1,-1.1 0.3,-2.1 -0.2,-4.3 -1.2,-6.4 z m 0.2,7.5 c -0.2,3.7 -1.8,7.1 -4.5,9.6 -1.3,1.2 -2.9,2.2 -4.6,2.8 -1.8,0.7 -3.6,1 -5.5,0.9 -7.4,-0.3 -13.3,-6.3 -13.5,-13.7 -0.4,-4.6 2.3,-10.9 4.3,-14.9 1.3,-2.6 2.7,-5.1 4.3,-7.5 1.2,-1.8 2.6,-3.8 4.1,-5.3 l 0.4,-0.4 7.9,1.3 -1.3,1.4 c -0.8,0.9 -1.5,1.9 -2.2,2.8 -0.8,1.2 -1.6,2.4 -2.4,3.7 -0.9,1.4 -1.7,2.9 -2.4,4.4 0.1,0 0.1,0 0.2,0 0.6,-0.1 1.2,-0.1 1.8,0 1.3,0.1 2.6,0.3 3.8,0.7 2,0.6 3.9,1.7 5.5,3.1 1.3,1.2 2.3,2.6 3.1,4.1 0.9,1.8 1.3,3.9 1.2,5.9 -0.2,0.4 -0.2,0.8 -0.2,1.1 z"
   id="path51"
   inkscape:connector-curvature="0"
   style="fill:#002255" />
		<path
   d="m 316.9,419.4 c -1.1,-0.4 -2.3,-0.6 -3.5,-0.6 -0.6,0 -1.1,0 -1.7,0 -0.7,0.1 -1.4,0.2 -2.1,0.4 1.6,-4 5.6,-10.2 8.1,-13 l -5.5,-0.9 c -4.5,4.7 -13.1,19.5 -12.4,26.9 0.2,6.8 5.6,12.4 12.5,12.7 7.2,0.3 13.2,-5.2 13.6,-12.4 0,-0.3 0.1,-0.7 0.1,-1 0.1,-3.6 -1.4,-6.9 -4,-9.2 -1.4,-1.3 -3.1,-2.3 -5.1,-2.9 z m -4.3,20 c -4.2,-0.2 -7.5,-3.7 -7.3,-7.9 0.2,-4.2 3.7,-7.5 7.9,-7.3 4.2,0.2 7.5,3.7 7.3,7.9 -0.1,4.2 -3.7,7.5 -7.9,7.3 z"
   id="path53"
   inkscape:connector-curvature="0"
   style="fill:#002255" />
		<path
   d="m 313.2,425.3 c -3.6,-0.1 -6.7,2.7 -6.8,6.3 -0.1,3.6 2.7,6.7 6.3,6.8 3.6,0.1 6.7,-2.7 6.8,-6.3 0.2,-3.6 -2.7,-6.7 -6.3,-6.8 z m -0.3,11.8 c -2.9,0 -5.2,-2.3 -5.2,-5.2 0,-2.9 2.3,-5.2 5.2,-5.2 2.9,0 5.2,2.3 5.2,5.2 0,2.9 -2.4,5.2 -5.2,5.2 z"
   id="path55"
   inkscape:connector-curvature="0"
   style="fill:#002255" />
	</g></g>
</svg>