<?xml version="1.0" encoding="UTF-8" standalone="no"?>
<!-- Created with Inkscape (http://www.inkscape.org/) -->
<svg
   xmlns:svg="http://www.w3.org/2000/svg"
   xmlns="http://www.w3.org/2000/svg"
   xmlns:xlink="http://www.w3.org/1999/xlink"
   xmlns:inkscape="http://www.inkscape.org/namespaces/inkscape"
   version="1.0"
   width="686.88794"
   height="555.09662"
   id="svg2">
  <defs
     id="defs4">
    <linearGradient
       id="linearGradient3811">
      <stop
         id="stop3813"
         style="stop-color:#502d16;stop-opacity:1"
         offset="0" />
      <stop
         id="stop3815"
         style="stop-color:#502d16;stop-opacity:0"
         offset="1" />
    </linearGradient>
    <linearGradient
       id="linearGradient3791">
      <stop
         id="stop3793"
         style="stop-color:#626262;stop-opacity:1"
         offset="0" />
      <stop
         id="stop3795"
         style="stop-color:#7f7f7f;stop-opacity:0"
         offset="1" />
    </linearGradient>
    <linearGradient
       id="linearGradient3313">
      <stop
         id="stop3315"
         style="stop-color:#955429;stop-opacity:1"
         offset="0" />
      <stop
         id="stop3321"
         style="stop-color:#c46f36;stop-opacity:1"
         offset="0.42281631" />
      <stop
         id="stop3323"
         style="stop-color:#63371b;stop-opacity:1"
         offset="0.99315071" />
      <stop
         id="stop3325"
         style="stop-color:#a75d2e;stop-opacity:1"
         offset="0.99657536" />
      <stop
         id="stop3327"
         style="stop-color:#c46e35;stop-opacity:1"
         offset="0.99828768" />
      <stop
         id="stop3329"
         style="stop-color:#cc7942;stop-opacity:1"
         offset="1" />
    </linearGradient>
    <linearGradient
       id="linearGradient3293">
      <stop
         id="stop3295"
         style="stop-color:#484848;stop-opacity:1"
         offset="0" />
      <stop
         id="stop3297"
         style="stop-color:#232323;stop-opacity:1"
         offset="1" />
    </linearGradient>
    <linearGradient
       id="linearGradient3261">
      <stop
         id="stop3265"
         style="stop-color:#9da3a6;stop-opacity:1"
         offset="0" />
      <stop
         id="stop3279"
         style="stop-color:#6e7379;stop-opacity:1"
         offset="0.44290659" />
      <stop
         id="stop3281"
         style="stop-color:#909497;stop-opacity:1"
         offset="0.71265978" />
      <stop
         id="stop3283"
         style="stop-color:#656769;stop-opacity:1"
         offset="0.77983463" />
      <stop
         id="stop3277"
         style="stop-color:#999999;stop-opacity:1"
         offset="1" />
    </linearGradient>
    <linearGradient
       id="linearGradient3253">
      <stop
         id="stop3255"
         style="stop-color:#b1b9bd;stop-opacity:1"
         offset="0" />
      <stop
         id="stop3307"
         style="stop-color:#dde3e6;stop-opacity:0.99607843"
         offset="0.33392373" />
      <stop
         id="stop3301"
         style="stop-color:#d2d4d5;stop-opacity:1"
         offset="0.89726025" />
      <stop
         id="stop3309"
         style="stop-color:#c8d0d5;stop-opacity:1"
         offset="1" />
      <stop
         id="stop3311"
         style="stop-color:#f2f3f4;stop-opacity:1"
         offset="1" />
      <stop
         id="stop3303"
         style="stop-color:#d2d7db;stop-opacity:1"
         offset="1" />
    </linearGradient>
    <linearGradient
       id="linearGradient3245">
      <stop
         id="stop3247"
         style="stop-color:#333333;stop-opacity:1"
         offset="0" />
      <stop
         id="stop3249"
         style="stop-color:#333333;stop-opacity:0"
         offset="1" />
    </linearGradient>
    <filter
       height="1.2000946"
       y="-0.10004729"
       width="1.2892129"
       x="-0.14460649"
       id="filter3851">
      <feGaussianBlur
         id="feGaussianBlur3853"
         stdDeviation="6.8571736"
         inkscape:collect="always" />
    </filter>
    <filter
       height="1.1182305"
       y="-0.059115257"
       width="1.4088506"
       x="-0.20442531"
       id="filter3855">
      <feGaussianBlur
         id="feGaussianBlur3857"
         stdDeviation="7.2019038"
         inkscape:collect="always" />
    </filter>
    <linearGradient
       x1="72.680222"
       y1="525.84998"
       x2="337.94116"
       y2="718.43048"
       id="linearGradient3906"
       xlink:href="#linearGradient3245"
       gradientUnits="userSpaceOnUse" />
    <linearGradient
       x1="910.32898"
       y1="908.23199"
       x2="1100.0758"
       y2="595.28864"
       id="linearGradient3908"
       xlink:href="#linearGradient3313"
       gradientUnits="userSpaceOnUse"
       spreadMethod="reflect" />
    <radialGradient
       cx="299.01288"
       cy="243.96039"
       r="115.38725"
       fx="299.01288"
       fy="243.96039"
       id="radialGradient3910"
       xlink:href="#linearGradient3293"
       gradientUnits="userSpaceOnUse"
       gradientTransform="matrix(2.2564328,0.3034441,-0.3751907,1.8511508,-289.72875,-244.5156)" />
    <linearGradient
       x1="-103.83359"
       y1="584.52155"
       x2="337.48917"
       y2="72.979523"
       id="linearGradient3912"
       xlink:href="#linearGradient3261"
       gradientUnits="userSpaceOnUse" />
    <linearGradient
       x1="-2.1515179"
       y1="170.86473"
       x2="200.66351"
       y2="443.7041"
       id="linearGradient3914"
       xlink:href="#linearGradient3253"
       gradientUnits="userSpaceOnUse" />
    <radialGradient
       cx="149.75708"
       cy="80.933609"
       r="23.925079"
       fx="149.75708"
       fy="80.933609"
       id="radialGradient3916"
       xlink:href="#linearGradient3791"
       gradientUnits="userSpaceOnUse"
       gradientTransform="matrix(1.2712685,-5.3711845e-8,1.1034806e-7,0.8788266,55.44499,12.884998)" />
    <radialGradient
       cx="120.67793"
       cy="234.50504"
       r="63.187729"
       fx="120.67793"
       fy="234.50504"
       id="radialGradient3918"
       xlink:href="#linearGradient3811"
       gradientUnits="userSpaceOnUse"
       gradientTransform="matrix(1,0,0,0.9428959,0,13.391203)" />
    <radialGradient
       cx="120.67793"
       cy="234.50504"
       r="63.187729"
       fx="120.67793"
       fy="234.50504"
       id="radialGradient3922"
       xlink:href="#linearGradient3811"
       gradientUnits="userSpaceOnUse"
       gradientTransform="matrix(1,0,0,0.9428959,0,13.391203)" />
    <radialGradient
       cx="120.67793"
       cy="234.50504"
       r="63.187729"
       fx="120.67793"
       fy="234.50504"
       id="radialGradient3924"
       xlink:href="#linearGradient3811"
       gradientUnits="userSpaceOnUse"
       gradientTransform="matrix(1,0,0,0.9428959,0,13.391203)" />
    <radialGradient
       cx="120.67793"
       cy="234.50504"
       r="63.187729"
       fx="120.67793"
       fy="234.50504"
       id="radialGradient3926"
       xlink:href="#linearGradient3811"
       gradientUnits="userSpaceOnUse"
       gradientTransform="matrix(1,0,0,0.9428959,0,13.391203)" />
    <radialGradient
       cx="120.67793"
       cy="234.50504"
       r="63.187729"
       fx="120.67793"
       fy="234.50504"
       id="radialGradient3930"
       xlink:href="#linearGradient3811"
       gradientUnits="userSpaceOnUse"
       gradientTransform="matrix(1,0,0,0.9428959,0,13.391203)" />
    <radialGradient
       cx="120.67793"
       cy="234.50504"
       r="63.187729"
       fx="120.67793"
       fy="234.50504"
       id="radialGradient3932"
       xlink:href="#linearGradient3811"
       gradientUnits="userSpaceOnUse"
       gradientTransform="matrix(1,0,0,0.9428959,0,13.391203)" />
    <filter
       height="1.2010546"
       y="-0.10052729"
       width="1.2523336"
       x="-0.12616681"
       id="filter4400">
      <feGaussianBlur
         id="feGaussianBlur4402"
         stdDeviation="6.8172501"
         inkscape:collect="always" />
    </filter>
  </defs>
  <g
     transform="translate(-25.714286,-19.781734)"
     id="layer1">
    <g
       transform="matrix(0.9560177,0,0,0.9882305,9.7024019,8.8042509)"
       id="g3863">
      <g
         id="g2273">
        <g
           transform="matrix(0.2900373,0,0,0.3560663,167.80926,34.475095)"
           id="g2257">
          <path
             d="M 203.48284,449.58569 C 203.48284,449.58569 169.55195,459.27627 128.55141,515.67511 C 77.252089,586.24056 97.437749,843.82381 150.67594,942.12279 C 190.35801,1015.3918 175.86569,966.40245 213.76351,1053.9228 L 20,909.50504 L 22.857143,426.6479 L 100,309.50504 L 165.71429,286.6479 L 242.85714,420.93361 L 242.85714,469.50504 L 203.48284,449.58569 z"
             id="path2235"
             style="fill:url(#linearGradient3906);fill-opacity:1;fill-rule:evenodd;stroke:#000000;stroke-width:3;stroke-linecap:butt;stroke-linejoin:miter;stroke-opacity:1" />
          <path
             d="M 48.571429,166.20428 C 37.142857,163.34714 42.857143,166.20428 -5.7142857,194.77571 C -50.653786,221.21071 -57.142857,189.50504 -57.142857,189.50504 L -42.857143,215.21932 L 171.42857,375.21933 C 171.42857,375.21933 218.26392,405.83631 214.28572,492.36217 C 211.42858,554.50503 434.28571,600.93361 434.28571,600.93361 L 631.42857,743.79075 L 837.14286,863.79076 C 837.14286,863.79076 1514.8581,1179.3841 1704.3228,1404.5631 C 1681.7016,1483.4303 1812.0714,1513.1087 1856.7189,1492.8489 C 1901.3664,1472.5891 2059.9029,1268.4777 1778.9736,1261.0066 C 1726.979,1259.641 545.71429,466.6479 545.71429,466.6479 L 297.14285,295.21933 L 68.571429,154.77572 L 48.571429,166.20428 z"
             id="path2233"
             style="fill:url(#linearGradient3908);fill-opacity:1;fill-rule:evenodd;stroke:#000000;stroke-width:1px;stroke-linecap:butt;stroke-linejoin:miter;stroke-opacity:1" />
          <path
             d="M 408.57143,-27.637817 C 408.57143,-27.637817 424.17185,-71.545715 410.63976,15.219322 C 402.3921,68.101686 349.92033,246.53102 359.49625,292.86597 C 353.22085,346.14231 348.104,330.36493 339.89374,323.37789 C 331.06633,315.86565 331.87734,316.67508 315.03745,307.216 C 297.90474,297.59243 229.38792,350.05747 202.38642,409.25406 C 137.515,441.79679 317.14286,52.362183 317.14286,52.362183 L 385.71429,-16.209246 L 408.57143,-27.637817 z"
             id="path2237"
             style="fill:url(#radialGradient3910);fill-opacity:1;fill-rule:evenodd;stroke:#000000;stroke-width:3;stroke-linecap:butt;stroke-linejoin:miter;stroke-opacity:1" />
          <path
             d="M 244.4629,319.4143 C 195.27007,375.00646 182.7443,389.07945 191.29291,410.94369 C 51.074203,385.12858 46.757366,665.88908 83.156836,734.53025 C 158.86326,942.72918 217.44255,1057.3874 217.44255,1057.3874 C 217.44255,1057.3874 -321.64004,827.53968 -397.14286,618.07647 C -507.85001,310.94788 -485.71429,320.93361 -485.71429,320.93361 C -325.98658,398.16959 -44.406396,498.86216 -62.857143,292.03955 C -35.994276,252.69104 -19.118184,253.87457 -116.4945,77.218781 C 187.8139,182.31767 423.48983,-60.001768 418.15301,-39.586322 C 418.15301,-39.586322 341.69168,222.84361 347.05364,265.24856 C 352.16454,305.66804 294.2442,263.15712 244.4629,319.4143 z"
             id="path2231"
             style="fill:url(#linearGradient3912);fill-opacity:1;fill-rule:evenodd;stroke:#000000;stroke-width:1px;stroke-linecap:butt;stroke-linejoin:miter;stroke-opacity:1" />
        </g>
        <path
           d="M 216.66288,393.18911 C 170.83874,360.07698 73.928572,335.21933 37.857142,189.50505 C 31.444146,163.59908 36.852057,168.05241 32.622552,158.459 C 29.720054,151.87552 25.714286,151.29075 25.714286,151.29075 C 25.714286,151.29075 29.861494,207.63355 58.230956,274.94012 C 86.718887,342.52777 229.23494,410.84696 229.23494,410.84696 C 229.23494,410.84696 227.47911,405.53265 216.66288,393.18911 z"
           id="path2263"
           style="opacity:1;fill:url(#linearGradient3914);fill-opacity:1;fill-rule:evenodd;stroke:none;stroke-width:1px;stroke-linecap:butt;stroke-linejoin:miter;stroke-opacity:1" />
        <path
           d="M 195.76635,179.83549 C 184.1496,172.0068 174.02621,174.93845 167.68533,162.41779 C 151.67223,130.79845 173.11697,162.58985 148.49243,182.62084 C 124.00598,202.53949 77.766907,187.21642 46.00719,169.46678 C 39.869448,161.99857 51.936198,203.63999 51.936198,203.63999 C 78.2533,292.58405 143.04216,331.02566 208.92826,372.52952 C 183.73097,330.35854 158.69417,249.77522 181.82745,197.77313 C 181.82745,197.77313 184.14959,188.67432 195.76635,179.83549 z"
           id="path2265"
           style="fill:none;fill-rule:evenodd;stroke:#000033;stroke-width:1px;stroke-linecap:butt;stroke-linejoin:miter;stroke-opacity:0.8786885" />
        <path
           d="M 279.69203,35.188362 C 263.65402,58.719742 211.91466,62.189296 231.20679,89.508964 L 260.17116,120.55693 L 279.69203,35.188362 z"
           id="path2267"
           style="fill:none;fill-rule:evenodd;stroke:#000024;stroke-width:1.09958398px;stroke-linecap:butt;stroke-linejoin:miter;stroke-opacity:0.947541" />
        <path
           d="M 163.64471,132.11322 C 154.8478,111.98628 202.30843,74.655913 211.10137,83.653083 L 252.53814,126.0523 C 252.53814,126.0523 234.35539,129.08276 226.27417,147.26551 C 218.19295,165.44826 208.09143,167.46855 208.09143,167.46855 C 208.09143,167.46855 171.47852,150.03663 163.64471,132.11322 z"
           id="path2269"
           style="fill:none;fill-rule:evenodd;stroke:#000036;stroke-width:1px;stroke-linecap:butt;stroke-linejoin:miter;stroke-opacity:1" />
        <path
           d="M 176.16949,70.816226 C 184.2741,70.657816 176.32538,73.8203 166.02216,71.824735 C 155.71895,69.82917 135.31378,63.548252 135.31378,63.548252 L 153.28239,106.47419 L 156.15741,121.95206 C 156.15741,121.95206 129.76601,63.069305 131.08524,59.398264 C 132.13361,56.480948 161.99782,71.093222 176.16949,70.816226 z"
           id="path2271"
           style="opacity:1;fill:#c9c9c9;fill-opacity:1;fill-rule:evenodd;stroke:none;stroke-width:1px;stroke-linecap:butt;stroke-linejoin:miter;stroke-opacity:1" />
      </g>
      <path
         d="M 278.58896,205.75055 C 278.58896,205.75055 299.03783,233.88112 320.53536,234.66252 C 342.03289,235.44393 371.39537,239.35095 357.76279,229.19269 C 344.1302,219.03443 348.84918,226.06707 330.49763,218.25303 C 312.14608,210.43898 300.08649,204.96915 295.89185,199.49932 C 291.69722,194.02949 281.73494,177.61998 275.44298,174.49436 C 269.15102,171.36875 257.61577,158.86627 266.00504,178.40139 C 274.39433,197.9365 278.58896,207.31336 278.58896,205.75055 z"
         id="path3331"
         style="opacity:0.86000001;fill:none;fill-rule:evenodd;stroke:#803300;stroke-width:0.31682783px;stroke-linecap:butt;stroke-linejoin:miter;stroke-opacity:1" />
      <path
         d="M 252.49847,173.48981 C 259.93728,191.91993 264.98137,211.39775 274.56308,228.90655 C 281.5435,239.90811 293.83838,247.6701 307.01731,247.90817 C 329.27442,250.93824 357.01088,250.93794 379.26113,247.87805 C 383.62779,246.88768 377.21844,241.71318 372.90758,243.04889 C 364.761,241.12124 356.62205,242.69706 348.47882,240.75536 C 331.87489,243.66557 313.7464,242.99226 297.9451,235.32957 C 285.65841,229.13125 278.72525,216.68441 269.5132,207.04771 C 266.43296,197.58993 263.38813,188.10757 260.11116,178.72748 C 259.59448,172.84805 252.73421,163.09279 259.68395,159.62154 C 265.83117,159.44443 270.15566,165.00046 275.87204,166.62948 C 282.7322,169.92253 288.66299,174.97722 293.15819,181.05737 C 300.28221,186.87925 306.9325,193.35603 312.16847,200.95339 C 316.88725,206.42641 324.48472,210.20103 331.1591,211.02852 C 335.29922,212.41774 338.9684,211.84841 342.44171,214.44064"
         id="path3333"
         style="fill:none;fill-rule:evenodd;stroke:#a05a2c;stroke-width:0.92067248px;stroke-linecap:butt;stroke-linejoin:miter;stroke-opacity:1" />
      <path
         d="M 272.23611,156.86195 L 265.16504,154.33657 L 254.05337,152.82134 L 250.51783,162.92287 L 252.53814,175.54977 L 252.53814,175.54977 L 255.56859,183.12592 L 255.56859,183.12592"
         id="path3343"
         style="fill:none;fill-rule:evenodd;stroke:#a05a2c;stroke-width:1px;stroke-linecap:butt;stroke-linejoin:miter;stroke-opacity:1" />
      <path
         d="M 244.45691,153.32642 C 244.45691,153.32642 242.43661,168.98378 245.46707,179.59038 C 248.49753,190.19698 253.04321,204.33912 253.04321,204.33912 L 258.09398,216.46095 L 262.13459,225.04725 L 267.69042,233.63354 L 273.24626,240.70461 L 276.77893,243.2518"
         id="path3345"
         style="fill:none;fill-rule:evenodd;stroke:#a05a2c;stroke-width:1px;stroke-linecap:butt;stroke-linejoin:miter;stroke-opacity:1" />
      <path
         d="M 235.87062,163.42794 C 235.87062,163.42794 238.396,186.66145 240.92138,191.20714 C 243.44676,195.75282 247.99245,205.34927 249.50768,211.41019 C 251.02291,217.4711 255.06352,227.06755 255.06352,227.06755 L 259.64591,236.58237"
         id="path3347"
         style="fill:none;fill-rule:evenodd;stroke:#a05a2c;stroke-width:1px;stroke-linecap:butt;stroke-linejoin:miter;stroke-opacity:1" />
      <path
         d="M 230.31478,173.52947 L 234.35539,198.78328 C 234.35539,198.78328 232.84016,199.28836 235.87062,208.37973 C 238.90108,217.4711 243.95184,222.01679 243.95184,222.01679 L 244.45692,228.07771"
         id="path3349"
         style="fill:none;fill-rule:evenodd;stroke:#a05a2c;stroke-width:1px;stroke-linecap:butt;stroke-linejoin:miter;stroke-opacity:1" />
      <path
         d="M 305.06607,255.35182 L 330.82496,256.86705 C 344.46202,257.37213 357.594,259.39243 367.69553,256.36198 C 377.79705,253.33152 386.38335,252.32137 386.38335,252.32137 L 389.91888,252.82644 L 390.92904,258.88736 C 390.92904,258.88736 389.91888,262.42289 377.79705,262.92797 C 365.67522,263.43304 362.64476,264.94827 354.05847,266.4635 C 345.47217,267.97873 346.48232,268.98888 337.39095,267.47365 C 328.29958,265.95843 322.23866,264.4432 320.21836,264.4432 C 318.19805,264.4432 310.11683,263.43304 310.11683,263.43304 L 308.20527,261.29051"
         id="path3351"
         style="opacity:0.84840004;fill:none;fill-rule:evenodd;stroke:#a05a2c;stroke-width:1px;stroke-linecap:butt;stroke-linejoin:miter;stroke-opacity:1" />
      <path
         d="M 326.27927,274.03965 C 339.91633,274.54472 357.08892,277.0701 366.1803,273.53457 C 375.27167,269.99904 381.33259,269.49396 389.91888,268.48381 C 398.50518,267.47365 406.08132,267.47365 406.08132,267.47365 L 414.66762,273.53457 L 402.54579,274.54472 C 402.54579,274.54472 392.94934,273.53457 389.91888,274.54472 C 386.88843,275.55487 378.8072,279.09041 378.8072,279.09041 C 378.8072,279.09041 371.23106,284.14117 368.2006,284.14117 C 365.17015,284.14117 356.07877,283.6361 356.07877,283.6361 L 345.97725,282.62594 M 345.97725,282.62594 C 337.89603,283.13102 333.85542,282.62594 333.85542,282.62594 L 354.05847,299.29346 L 363.65492,295.75793 C 363.65492,295.75793 369.71583,296.263 378.8072,291.71732 C 387.89858,287.17163 383.85797,287.17163 393.95949,285.6564 C 404.06102,284.14117 413.15239,282.12087 416.18285,282.12087 C 419.21331,282.12087 424.76915,282.12087 424.76915,282.12087 C 424.76915,282.12087 430.83006,285.15132 430.32498,288.18178 C 429.81991,291.21224 425.7793,291.71732 418.70823,291.71732 C 411.63716,291.71732 404.06102,290.70716 399.01026,293.23254 C 393.95949,295.75793 386.38335,296.263 384.36304,301.81884 C 382.34274,307.37468 381.33259,310.40514 383.35289,313.94067 C 385.3732,317.47621 388.40365,320.50666 391.93919,324.0422 C 395.47472,327.57773 400.02041,331.11326 402.04071,333.13357 C 404.06102,335.15388 405.57625,336.6691 411.13209,336.16403 C 416.68793,335.65895 423.75899,338.18433 428.30468,335.15388 C 432.85037,332.12342 450.02296,317.47621 439.92143,330.10311 C 429.81991,342.73002 422.24376,344.24525 422.24376,344.24525 L 434.87067,353.8417 C 434.87067,353.8417 444.9722,350.81124 446.9925,355.862 C 449.01281,360.91276 456.58895,365.45845 466.69048,361.41784 C 476.792,357.37723 479.82246,350.81124 488.40876,350.30616 C 496.99505,349.80109 501.03566,349.29601 505.58135,352.32647 C 510.12704,355.35693 515.1778,357.88231 520.22856,364.4483 C 525.27932,371.01429 524.77425,370.50921 529.31993,378.08536 C 533.86562,385.6615 529.82501,391.72242 530.83516,394.2478 C 531.84532,396.77318 530.83516,412.93562 538.41131,418.99654 C 545.98745,425.05745 556.59405,415.461 555.5839,421.52192 C 554.57375,427.58283 554.06867,434.6539 560.12959,434.6539 C 566.1905,434.6539 594.97985,422.53207 593.9697,441.72497 C 592.95954,460.91787 594.97985,466.97878 605.08137,467.48386 C 615.1829,467.98893 629.32504,462.93817 634.3758,461.92802 C 639.42656,460.91787 637.91133,455.8671 643.97225,459.40264 C 650.03316,462.93817 652.05347,468.49401 643.97225,472.02955 C 635.89103,475.56508 625.7895,474.55493 623.7692,476.07016 C 621.74889,477.58538 630.33519,506.37473 642.45702,504.8595 C 654.57885,503.34427 661.14484,506.87981 669.22606,500.31382 C 677.30728,493.74782 675.79205,490.21229 678.82251,491.72752 C 681.85297,493.24275 684.88343,505.36458 675.79205,509.40519 C 666.70068,513.4458 659.62961,510.41534 659.62961,518.49656 C 659.62961,526.57778 679.32759,541.22499 684.88343,538.69961 C 690.43927,536.17423 698.01541,531.62855 701.04587,530.61839 C 704.07632,529.60824 708.62201,516.98133 708.62201,513.4458 C 708.62201,509.91027 707.10678,503.84935 707.10678,503.84935"
         id="path3353"
         style="opacity:0.89000005;fill:none;fill-rule:evenodd;stroke:#a05a2c;stroke-width:1px;stroke-linecap:butt;stroke-linejoin:miter;stroke-opacity:1" />
      <path
         d="M 463.15494,370.00414 C 472.75139,365.45845 465.17525,363.94322 478.81231,359.39754 C 492.44937,354.85185 493.96459,352.83154 500.53059,355.862 C 507.09658,358.89246 510.63211,359.90261 514.16765,365.96353 C 517.70318,372.02444 521.74379,372.52952 522.75394,381.11582 C 523.7641,389.70211 524.26917,390.20719 525.27932,398.28841 C 526.28948,406.36963 526.79455,408.89501 527.29963,411.92547"
         id="path3355"
         style="fill:none;fill-rule:evenodd;stroke:#a05a2c;stroke-width:1px;stroke-linecap:butt;stroke-linejoin:miter;stroke-opacity:1" />
      <path
         d="M 469.72093,371.51937 C 478.81231,364.95338 479.82246,362.42799 486.89353,362.42799 C 493.96459,362.42799 496.99505,361.92292 501.03566,363.94322 C 505.07627,365.96353 507.09658,365.96353 511.13719,373.0346 C 515.1778,380.10566 520.22856,385.15643 520.22856,390.20719 C 520.22856,395.25795 519.72348,397.27826 521.23871,402.8341 C 522.75394,408.38993 524.69036,410.53201 524.69036,410.53201 L 526.28948,412.93562 L 532.35039,414.45085"
         id="path3357"
         style="fill:none;fill-rule:evenodd;stroke:#a05a2c;stroke-width:2;stroke-linecap:butt;stroke-linejoin:miter;stroke-opacity:1" />
      <path
         d="M 472.75139,377.07521 C 485.3783,368.48891 487.3986,365.96353 495.47982,370.00414 C 503.56104,374.04475 507.09658,373.0346 509.11688,380.10566 C 511.13719,387.17673 512.65242,380.10566 514.16765,393.23765 C 515.68287,406.36963 516.18795,407.37978 516.18795,407.37978"
         id="path3359"
         style="fill:none;fill-rule:evenodd;stroke:#a05a2c;stroke-width:1px;stroke-linecap:butt;stroke-linejoin:miter;stroke-opacity:1" />
      <path
         d="M 481.84276,380.61074 C 493.96459,376.57013 491.43921,371.01429 500.02551,378.08536 C 508.61181,385.15643 505.58135,389.70211 507.09658,393.23765 C 508.61181,396.77318 511.13719,403.33917 511.13719,403.33917 L 512.14734,405.35948"
         id="path3361"
         style="fill:#a05a2c;fill-rule:evenodd;stroke:#a05a2c;stroke-width:1px;stroke-linecap:butt;stroke-linejoin:miter;stroke-opacity:1" />
      <path
         d="M 396.48487,316.46605 C 405.07117,329.59804 411.13209,335.15388 417.193,331.61834 C 423.25392,328.08281 428.80976,328.08281 433.35544,324.0422 C 437.90113,320.00159 444.46712,313.4356 447.49758,317.98128 C 450.52804,322.52697 452.04326,322.02189 449.51788,329.59804 C 446.9925,337.17418 445.47727,340.70971 445.98235,344.24525 C 446.48743,347.78078 446.9925,354.34677 452.54834,355.35693 C 458.10418,356.36708 456.08387,355.862 464.67017,352.32647 C 473.25647,348.79093 474.26662,346.26555 480.32754,344.24525 C 486.38845,342.22494 486.38845,340.70971 491.43921,341.21479 C 496.48998,341.71987 501.03566,343.74017 501.03566,343.74017"
         id="path3363"
         style="opacity:0.7964;fill:none;fill-rule:evenodd;stroke:#a05a2c;stroke-width:2;stroke-linecap:butt;stroke-linejoin:miter;stroke-opacity:1" />
      <path
         d="M 435.88082,293.73762 C 426.78945,295.75793 421.73869,298.28331 414.66762,298.78838 C 407.59655,299.29346 397.49503,301.81884 394.46457,302.82899 C 391.43411,303.83915 392.94934,311.41529 392.94934,311.41529 C 392.94934,311.41529 392.94934,322.52697 402.04071,320.50666 C 411.13209,318.48636 410.12193,310.91021 421.73869,307.87976 C 433.35544,304.8493 435.88082,303.83915 439.41636,302.82899 C 442.95189,301.81884 448.50773,303.83915 448.50773,303.83915 L 457.5991,311.41529 C 457.5991,311.41529 461.13464,313.4356 461.13464,319.49651 C 460.1026,333.78267 452.79901,337.61371 471.23616,336.16403 C 488.40876,334.6488 492.44937,336.16403 492.44937,336.16403"
         id="path3365"
         style="fill:none;fill-rule:evenodd;stroke:#a05a2c;stroke-width:1px;stroke-linecap:butt;stroke-linejoin:miter;stroke-opacity:1" />
      <path
         d="M 535.88593,371.51937 L 539.92654,386.16658 L 540.43161,397.27826 C 540.43161,397.27826 540.93669,403.33917 541.44176,405.35948 C 541.94684,407.37978 536.89608,413.4407 543.96715,412.93562 C 551.03821,412.43054 560.63466,406.36963 562.65497,413.94577 C 564.67527,421.52192 561.13974,427.07776 567.70573,427.07776 C 574.27172,427.07776 585.3834,426.57268 591.94939,426.57268 C 598.51538,426.57268 598.01031,429.09806 599.52554,434.6539 C 601.04076,440.20974 599.02046,446.27066 602.05092,450.81634 C 605.08137,455.36203 611.64737,459.40264 620.23366,457.38233 C 628.81996,455.36203 626.79965,453.8468 633.87072,453.34172 C 640.94179,452.83665 640.43671,454.85695 640.43671,454.85695"
         id="path3367"
         style="fill:none;fill-rule:evenodd;stroke:#a05a2c;stroke-width:1px;stroke-linecap:butt;stroke-linejoin:miter;stroke-opacity:1" />
      <path
         d="M 547.50268,382.63104 C 549.52298,398.79349 553.5636,403.33917 559.62451,404.34932 C 565.68543,405.35948 570.23111,400.30871 572.75649,410.41024 C 575.28187,420.51177 575.78695,422.02699 582.85802,421.01684 C 589.92909,420.00669 597.50523,424.55238 600.53569,426.0676 C 603.56615,427.58283 607.60676,429.60314 609.12199,436.16913 C 610.63721,442.73512 612.15244,445.76558 618.21336,445.76558 C 624.27427,445.76558 630.33519,446.77573 630.33519,446.77573 L 631.85042,448.79604"
         id="path3369"
         style="fill:none;fill-rule:evenodd;stroke:#a05a2c;stroke-width:1px;stroke-linecap:butt;stroke-linejoin:miter;stroke-opacity:1" />
      <path
         d="M 558.10928,390.71227 C 558.10928,394.2478 566.1905,399.29856 566.1905,399.29856 L 568.21081,399.29856 C 568.21081,399.29856 575.28187,404.34932 577.30218,408.38993 C 579.32249,412.43054 580.83771,413.4407 585.88848,415.461 C 590.93924,417.48131 592.95954,417.48131 592.95954,417.48131"
         id="path3371"
         style="fill:none;fill-rule:evenodd;stroke:#a05a2c;stroke-width:1px;stroke-linecap:butt;stroke-linejoin:miter;stroke-opacity:1" />
      <path
         d="M 628.31488,484.65645 C 654.57885,474.55493 664.68037,475.56508 664.68037,475.56508 L 675.79205,482.63615 C 675.79205,482.63615 685.89358,490.71737 688.92404,495.76813 C 691.95449,500.81889 686.90373,505.86966 692.96465,509.91027 C 699.02556,513.95088 704.07632,524.0524 704.07632,524.0524 C 704.07632,524.0524 708.09397,535.15845 706.09663,541.22499 C 704.09929,547.29154 696.0922,562.50535 696.0922,562.50535 L 689.93419,567.48896"
         id="path3373"
         style="fill:none;fill-rule:evenodd;stroke:#a05a2c;stroke-width:1px;stroke-linecap:butt;stroke-linejoin:miter;stroke-opacity:1" />
      <path
         d="M 635.38595,493.74783 C 655.589,483.6463 654.57885,484.65645 660.63976,483.6463 C 666.70068,482.63615 674.7819,491.72752 669.73114,493.74783 C 664.68037,495.76813 647.50778,500.81889 647.50778,500.81889 L 645.48748,507.88996"
         id="path3375"
         style="fill:none;fill-rule:evenodd;stroke:#a05a2c;stroke-width:1px;stroke-linecap:butt;stroke-linejoin:miter;stroke-opacity:1" />
      <path
         d="M 684.88342,511.93057 C 691.55143,520.7064 699.98521,533.17838 692.79321,544.01986 C 689.64661,548.92359 687.33393,567.23416 680.32573,560.60692 C 677.2599,548.43019 669.39467,537.0163 669.38366,524.34272 C 671.1999,515.27174 680.07415,520.60483 684.46636,521.20717 C 686.12551,518.40914 684.91116,514.95981 684.88342,511.93057 z"
         id="path3377"
         style="opacity:0.83800007;fill:none;fill-rule:evenodd;stroke:#a05a2c;stroke-width:1px;stroke-linecap:butt;stroke-linejoin:miter;stroke-opacity:1" />
      <path
         d="M 571.2912,447.11654 C 583.67297,450.37026 667.45028,533.13737 669.8997,538.43349 C 672.1138,550.4579 660.25232,548.71957 662.0863,541.85449 C 660.55623,537.91366 663.09011,536.5483 661.70915,532.59399 C 661.52657,529.9951 548.57224,427.94274 571.2912,447.11654 z"
         id="path3388"
         style="opacity:1;fill:#784421;fill-opacity:1;stroke:#784421;stroke-width:2;stroke-linecap:round;stroke-linejoin:round;stroke-miterlimit:4;stroke-dasharray:none;stroke-dashoffset:0;stroke-opacity:0.947541" />
      <path
         d="M 250.35716,105.0376 L 215.40479,62.985605 L 274.87129,74.506965 L 302.1258,74.914985 C 291.06014,83.233185 260.31337,81.853105 250.35716,105.0376 z"
         id="path3394"
         style="opacity:0.18000004;fill:url(#radialGradient3916);fill-opacity:1;fill-rule:evenodd;stroke:none;stroke-width:1px;stroke-linecap:butt;stroke-linejoin:miter;stroke-opacity:1" />
      <path
         d="M 110.47622,176.73397 A 62.142857,58.571426 0 1 1 75.397881,194.42641"
         transform="matrix(0.6676196,-5.7591569e-3,-0.2282416,0.3944994,337.55184,186.26567)"
         id="path3819"
         style="opacity:0.12999998;fill:url(#radialGradient3918);fill-opacity:1;stroke:none;stroke-width:2;stroke-linecap:round;stroke-linejoin:round;stroke-miterlimit:4;stroke-dasharray:none;stroke-dashoffset:0;stroke-opacity:0.947541" />
      <path
         d="M 110.47622,176.73397 A 62.142857,58.571426 0 1 1 75.397881,194.42641"
         transform="matrix(0.3778228,0.5371101,-0.2869828,-7.3621803e-2,292.72501,137.29364)"
         id="path3827"
         style="opacity:0.23102309;fill:#c87137;fill-opacity:1;stroke:none;stroke-width:2;stroke-linecap:round;stroke-linejoin:round;stroke-miterlimit:4;stroke-dasharray:none;stroke-dashoffset:0;stroke-opacity:0.947541" />
      <path
         d="M 110.47622,176.73397 A 62.142857,58.571426 0 1 1 75.397881,194.42641"
         transform="matrix(0.1637481,-0.1291689,-5.723118e-2,0.1586976,427.55499,322.17462)"
         id="path3831"
         style="opacity:0.18151814;fill:url(#radialGradient3922);fill-opacity:1;stroke:none;stroke-width:2;stroke-linecap:round;stroke-linejoin:round;stroke-miterlimit:4;stroke-dasharray:none;stroke-dashoffset:0;stroke-opacity:0.947541" />
      <path
         d="M 110.47622,176.73397 A 62.142857,58.571426 0 1 1 75.397881,194.42641"
         transform="matrix(0.2826624,0.1899232,-0.1220074,0.118978,488.74785,328.32723)"
         id="path3847"
         style="opacity:0.19471944;fill:url(#radialGradient3924);fill-opacity:1;stroke:none;stroke-width:2;stroke-linecap:round;stroke-linejoin:round;stroke-miterlimit:4;stroke-dasharray:none;stroke-dashoffset:0;stroke-opacity:0.947541" />
      <path
         d="M 110.47622,176.73397 A 62.142857,58.571426 0 1 1 75.397881,194.42641"
         transform="matrix(0.3039523,0.5755753,-0.1311968,0.360571,679.76141,374.43375)"
         id="path3835"
         style="opacity:0.23999999;fill:url(#radialGradient3926);fill-opacity:1;stroke:none;stroke-width:2;stroke-linecap:round;stroke-linejoin:round;stroke-miterlimit:4;stroke-dasharray:none;stroke-dashoffset:0;stroke-opacity:0.947541;filter:url(#filter3855)" />
      <path
         d="M 110.47622,176.73397 A 62.142857,58.571426 0 1 1 75.397881,194.42641"
         transform="matrix(0.2826624,0.1899232,-0.1220074,0.118978,575.90074,380.06653)"
         id="path3843"
         style="opacity:0.21122113;fill:url(#radialGradient3930);fill-opacity:1;stroke:none;stroke-width:2;stroke-linecap:round;stroke-linejoin:round;stroke-miterlimit:4;stroke-dasharray:none;stroke-dashoffset:0;stroke-opacity:0.947541;filter:url(#filter3851)" />
      <path
         d="M 110.47622,176.73397 A 62.142857,58.571426 0 1 1 75.397881,194.42641"
         transform="matrix(0.2887079,0.193697,-0.1246168,0.1213421,427.60709,287.04495)"
         id="path3801"
         style="opacity:0.21000001;fill:url(#radialGradient3932);fill-opacity:1;stroke:none;stroke-width:2;stroke-linecap:round;stroke-linejoin:round;stroke-miterlimit:4;stroke-dasharray:none;stroke-dashoffset:0;stroke-opacity:0.947541" />
    </g>
    <path
       d="M 59.285713,186.30692 C 47.600724,194.09406 77.370142,218.54548 68.183594,229.38449 C 75.832557,234.67006 84.612945,228.95887 92.356175,227.0387 C 104.11583,224.74079 99.927234,229.75075 111.86419,228.37723 C 103.62137,238.38702 98.815524,228.00659 89.794871,236.96452 C 84.591077,239.80217 73.507563,248.58131 80.436313,255.79285 C 90.476769,255.75032 101.68401,245.94539 110.9544,243.22411 C 123.58369,237.26931 111.65512,250.6683 124.75687,245.77522 C 124.74811,256.6619 136.68403,239.89032 130.31893,246.5293 C 119.26165,255.85971 102.116,263.7608 90.334897,272.12184 C 92.998377,283.30444 106.54924,285.47566 112.63288,281.64292 C 126.86286,274.14121 152.55741,250.09157 165.80926,241.04776 C 167.51861,249.38886 136.64884,276.69143 131.64978,281.64274 C 122.29071,292.30712 122.2713,284.63489 113.13229,295.54562 C 116.7473,303.56317 129.04134,302.60474 133.19153,298.834 C 143.4836,290.13377 159.61077,271.77044 170.47965,263.81849 C 178.36166,269.8072 158.95079,287.04236 152.19377,297.39432 C 144.92151,308.04624 140.59992,305.57462 131.84954,314.97441 C 132.68475,323.87793 148.22711,319.25874 154.17017,317.96669 C 163.50696,317.64372 165.1841,306.47207 173.1825,304.56384 C 183.47068,303.3492 186.1234,317.46847 179.13639,323.04699 C 170.41694,328.04827 151.25905,326.08927 159.00356,334.0983 C 161.87517,341.22119 188.30902,355.75989 186.0717,345.52988 C 180.76183,331.62679 176.08271,316.58275 175.34089,303.35728 C 154.72432,269.79705 234.7696,124.87043 208.48763,102.83534 C 215.20102,93.727526 178.32436,167.44329 139.04632,204.55286 C 132.25793,213.94138 145.38518,209.93877 134.30008,209.86864 C 124.49782,210.03354 115.74785,205.03057 106.27321,203.56217 C 104.66652,203.37791 60.899253,186.1814 59.285713,186.30692 z"
       id="path3958"
       style="opacity:0.46000001;fill:#7a7a7a;fill-opacity:1;fill-rule:evenodd;stroke:none;stroke-width:1px;stroke-linecap:butt;stroke-linejoin:miter;stroke-opacity:1;filter:url(#filter4400)" />
  </g>
</svg>
