<?xml version="1.0" encoding="UTF-8" standalone="no"?>
<!-- Generator: Adobe Illustrator 22.0.0, SVG Export Plug-In . SVG Version: 6.00 Build 0)  -->
<svg xmlns:dc="http://purl.org/dc/elements/1.1/" xmlns:cc="http://creativecommons.org/ns#" xmlns:rdf="http://www.w3.org/1999/02/22-rdf-syntax-ns#" xmlns:svg="http://www.w3.org/2000/svg" xmlns="http://www.w3.org/2000/svg" xmlns:sodipodi="http://sodipodi.sourceforge.net/DTD/sodipodi-0.dtd" xmlns:inkscape="http://www.inkscape.org/namespaces/inkscape" version="1.1" id="Layer_2" x="0px" y="0px" viewBox="0 0 399.99999 110.81716" xml:space="preserve" width="400" height="110.81716">
  <metadata id="metadata41"/>
  <defs id="defs39"/>
  <g id="g22" transform="matrix(0.52944194,0,0,0.52944194,0.52944194,0.2696818)">
    <g id="g8">
      <path d="m 30.9,81.2 74.4,127.6 h 101 L 131.9,81.2 Z m 15.9,7.9 h 77.1 l 63.6,109 h -77.1 z" id="path2" style="fill:#ff0000"/>
      <path d="M 57.5,149.5 -1,208.7 h 93 z m -3.1,16.7 21.7,34.6 H 20.3 Z" id="path4" style="fill:#ff0000"/>
      <path d="m 177.2,140.3 58.5,-59.2 h -93 z M 180.3,123.6 158.6,89 h 55.8 z" id="path6" style="fill:#ff0000"/>
    </g>
    <g id="g20">
      <path d="m 251.7,164.2 c -0.1,-0.2 -0.4,1.4 -0.9,4.9 -0.5,3.4 -0.7,6 -0.8,7.7 0.5,3.6 1.7,3.6 3.7,5.4 1.6,1 3,0.7 7,1.2 3.9,0.5 27.4,0.5 31.4,0 4,-0.4 7.3,-1 9.4,-2.4 4.2,-2.6 7.1,-6.5 8.6,-16.8 1.1,-5.6 1.5,-7 1.4,-9.6 -0.2,-3.5 -1.9,-5.9 -5.4,-7.1 -3.4,-1.2 -8.4,-0.6 -14,-0.6 h -10.9 c -11.8,0 -18.9,0.1 -22.4,2.5 -4,2.7 -5.6,6.3 -7.1,14.8 z m 84.2,-41 h -16.7 c 0.6,-4 0.4,-6.7 0.3,-9.2 -0.1,-2.5 -0.4,-4.7 -1.5,-5.5 -2.4,-2 -12,-1.9 -22.3,-1.9 H 286 c -10.2,0 -16.2,-0.1 -19.3,2.2 -4,3.1 -6.4,7.9 -7.3,14.3 l -2.7,11.1 c 0,0 1.8,-2.7 5.9,-3.1 7.1,-0.8 19,-0.1 23.4,-0.1 10.9,0.2 19.8,-0.5 25.7,0.5 5.8,1 12.2,2.2 15.2,5.5 2.7,2.8 4.2,7 4.4,12.7 0.2,3.8 -0.6,9.9 -2.2,18.4 -0.9,4.1 -2,7.8 -3.3,11.1 -1.2,3.3 -2.9,6.4 -5.1,9.2 -2.2,2.8 -4.8,7.7 -7.8,9.3 -4.7,2.4 -10.8,2.3 -16.3,2.9 -5.5,0.6 -14.3,0 -23,0 -7.8,0 -15.7,0.2 -21.4,-0.5 -5.7,-0.7 -10.4,-2.3 -14,-4.9 -4.5,-3.3 -7,-8.7 -7.6,-16.2 0,-3.9 0.4,-8.3 1.3,-13.3 l 9.3,-48.8 c 1.8,-10.7 5,-19 12.8,-24 4.3,-2.7 9.6,-4.5 15.7,-5.3 6.2,-0.9 16.4,-1.3 25.2,-1.3 h 13.7 c 9.3,0 11.9,1.2 18.4,3.7 6.5,2.5 9.9,7.4 10.3,14.8 0.2,2.4 -0.3,12 -1.4,18.4 z" id="path10" style="fill:#ff0000"/>
      <path d="m 400,102.1 c -11,0 -20.9,0.5 -24.6,1.5 -3.6,1 -5.8,0.9 -7.5,3.5 -1.6,2.6 -2.6,5.3 -3.1,8.1 -0.4,2.8 -0.8,6.6 -1.2,11.4 0.3,2.9 1.3,4.8 2.7,5.9 2.8,1.8 12.8,2 25.7,2 11.6,0 20.2,-0.2 24.7,-2.2 1.9,-0.8 3.6,-2.5 4.9,-5.1 1.4,-2.6 2.2,-4.6 3.2,-9.6 0.5,-3 0.8,-5.6 0.7,-7.7 -0.1,-2.7 -0.9,-4.4 -2.5,-5.3 -1.7,-1 -4.4,-1.6 -8,-1.9 -3.4,-0.5 -8.5,-0.6 -15,-0.6 z m 27.9,39.5 c 6.9,2.8 6.9,9.4 7,17.1 0,1.1 0.3,6.9 -0.1,8.9 -0.4,2 -0.2,3.5 -0.4,4.2 -1.5,7 -2,10.1 -4.4,14.2 -2.4,4.1 -3.8,7.1 -7.9,9.3 -3.6,2 -8.2,3.5 -13.7,4.2 -5.5,0.8 -15.2,1.2 -23.7,1.2 h -11 c -9.5,0 -17,-0.3 -22.4,-1 -5.4,-0.7 -8.5,-3.2 -11.7,-6.1 -3,-2.6 -5.8,-8.9 -6.3,-15 0.2,-2.8 0.7,-4.3 1.5,-9.7 1.1,-5 1.4,-8.9 2.3,-11.6 0.9,-2.7 2.6,-5.8 4.6,-8.2 1.9,-2.4 4.8,-4.2 8.1,-6.1 2.1,-1.2 2.7,-1.6 0.6,-3.4 -2.3,-1.9 -3,-3.8 -3.6,-6.1 -0.3,-0.7 -0.5,-8 -0.5,-8.2 1,-16.5 5.4,-24.9 13.1,-31.3 4.5,-3.9 6.5,-6.2 16.6,-6.9 5.2,-0.4 19.4,-0.6 26.6,-0.6 10,0 19.7,0.2 23.8,0.6 3.6,0.5 6.8,1.3 9.5,2.3 2.7,1 2.4,2.8 4.5,5.2 1.8,2.3 2.8,5.9 2.9,10.8 0.1,3.4 -0.1,7 -0.7,10.7 -0.5,3.7 -1.5,7.3 -2.9,10.7 -1.4,3.4 -3.2,6.2 -5.4,8.3 -2.8,3 -2.4,5.2 -6.1,6.4 -0.8,0.3 -1.2,0.1 -1.2,0 0,-0.1 0.3,-0.1 0.9,0.1 z m -39.1,7.4 c -7,0 -14.2,0 -18,0.4 -3.8,0.4 -6.9,1.2 -9.3,2.4 -2.2,1 -4,2.8 -5.4,5.5 -1.4,2.6 -2.6,6.3 -3.6,11.1 -0.9,5.5 -0.8,6.6 -0.9,8.2 0.3,2.9 0.9,4.6 3.1,5.6 2.2,1 5.4,2.7 9.7,2.8 3.3,0.4 12,0.5 20.8,0.5 9.1,0 16.2,0.6 21.1,-1.2 2.3,-1 4.9,-1.3 6.4,-3.9 1.5,-2.6 2.1,-5.3 3.2,-10.4 0.9,-3.9 1.3,-6.9 1.3,-9.1 -0.1,-2.5 -0.8,-7.1 -2.1,-8.4 -1.1,-1.3 -3.6,-2.2 -7.5,-2.8 -4.1,-0.6 -10.9,-0.7 -18.8,-0.7 z" id="path12" style="fill:#ff0000"/>
      <path d="m 484.3,200.8 c -9.9,0 -20.5,-0.6 -26.3,-1.9 -5.8,-1.3 -10.1,-3.5 -12.7,-6.6 -3.3,-3.7 -2.7,-9 -3.1,-16.2 0.2,-5.8 0.9,-11.6 1.9,-17.1 l 6,-31.6 c 1.3,-6.8 3,-12.9 5.3,-18.4 2.3,-5.5 5.6,-10.1 9.7,-13.7 2.4,-2.3 5.5,-4.1 9.4,-5.5 3.9,-1.3 8.3,-2.2 13.3,-2.6 5,-0.4 11,-0.6 18.3,-0.6 5.5,0 10.4,0.2 14.7,0.6 4.4,0.4 8.2,1 11.5,2 3.3,1 6.1,2.5 8.4,4.4 4.1,3.8 6.3,9.7 6.5,17.8 0.1,3.3 -0.4,8.9 -1.5,16.8 l -6.1,31.8 c -3.3,18 -7.3,29.9 -17.2,35.5 -4,2.2 -8.9,3.7 -14.6,4.4 -5.8,0.5 -15.3,0.9 -23.5,0.9 z m 18.9,-98 c -7.6,0 -13,0.1 -16.3,0.4 -3.3,0.3 -6.1,0.9 -8.4,1.8 -1.8,0.7 -3.4,1.8 -4.9,3.2 -1.4,1.4 -2.9,3.7 -4.3,6.9 -1.4,3.2 -2.7,5 -3.7,10.4 l -6.8,36.1 c -0.8,5.3 -1.3,7 -1.5,10.4 0.2,3 0.7,5.2 1.5,6.6 0.8,1.4 2,2.5 3.6,3.3 2,1 4.6,1.7 7.7,2 3.1,0.3 8.2,0.4 15.4,0.4 8.7,0 15.1,-0.3 19.4,-0.8 4.3,-0.5 7.5,-1.7 9.7,-3.6 4.1,-3.6 6.4,-9.1 8.8,-20.5 l 6.3,-33.3 c 0.9,-6.4 1.3,-8.5 1.3,-11.8 -0.1,-4.5 -0.3,-6.9 -2.2,-8.3 -1.9,-1.4 -4.6,-2.3 -8,-2.7 -3.6,-0.3 -9.4,-0.5 -17.6,-0.5 z" id="path14" style="fill:#ff0000"/>
      <path d="m 588,200.8 c -9.9,0 -20.5,-0.6 -26.3,-1.9 -5.8,-1.3 -10.1,-3.5 -12.7,-6.6 -3.3,-3.7 -2.7,-9 -3.1,-16.2 0.2,-5.8 0.9,-11.6 1.9,-17.1 l 6,-31.6 c 1.3,-6.8 3,-12.9 5.3,-18.4 2.3,-5.5 5.6,-10.1 9.7,-13.7 2.4,-2.3 5.5,-4.1 9.4,-5.5 3.9,-1.3 8.3,-2.2 13.3,-2.6 5,-0.4 11,-0.6 18.3,-0.6 5.5,0 10.4,0.2 14.7,0.6 4.4,0.4 8.2,1 11.5,2 3.3,1 6.1,2.5 8.4,4.4 4.1,3.8 6.3,9.7 6.5,17.8 0.1,3.3 -0.4,8.9 -1.5,16.8 l -6.1,31.8 c -3.3,18 -7.3,29.9 -17.2,35.5 -4,2.2 -8.9,3.7 -14.6,4.4 -5.8,0.5 -15.4,0.9 -23.5,0.9 z m 18.8,-98 c -7.6,0 -13,0.1 -16.3,0.4 -3.3,0.3 -6.1,0.9 -8.4,1.8 -1.8,0.7 -3.4,1.8 -4.9,3.2 -1.4,1.4 -2.9,3.7 -4.3,6.9 -1.4,3.2 -2.7,5 -3.7,10.4 l -6.8,36.1 c -0.8,5.3 -1.3,7 -1.5,10.4 0.2,3 0.7,5.2 1.5,6.6 0.8,1.4 2,2.5 3.6,3.3 2,1 4.6,1.7 7.7,2 3.1,0.3 8.2,0.4 15.4,0.4 8.7,0 15.1,-0.3 19.4,-0.8 4.3,-0.5 7.5,-1.7 9.7,-3.6 4.1,-3.6 6.4,-9.1 8.8,-20.5 l 6.3,-33.3 c 0.9,-6.4 1.3,-8.5 1.3,-11.8 -0.1,-4.5 -0.3,-6.9 -2.2,-8.3 -1.9,-1.4 -4.6,-2.3 -8,-2.7 -3.5,-0.3 -9.3,-0.5 -17.6,-0.5 z" id="path16" style="fill:#ff0000"/>
      <path d="m 691.6,200.8 c -9.9,0 -20.5,-0.6 -26.3,-1.9 -5.8,-1.3 -10.1,-3.5 -12.7,-6.6 -3.3,-3.7 -2.7,-9 -3.1,-16.2 0.2,-5.8 0.9,-11.6 1.9,-17.1 l 6,-31.6 c 1.3,-6.8 3,-12.9 5.3,-18.4 2.3,-5.5 5.6,-10.1 9.7,-13.7 2.4,-2.3 5.5,-4.1 9.4,-5.5 3.9,-1.3 8.3,-2.2 13.3,-2.6 5,-0.4 11,-0.6 18.3,-0.6 5.5,0 10.4,0.2 14.7,0.6 4.4,0.4 8.2,1 11.5,2 3.3,1 6.1,2.5 8.4,4.4 4.1,3.8 6.3,9.7 6.5,17.8 0.1,3.3 -0.4,8.9 -1.5,16.8 l -6.1,31.8 c -3.3,18 -7.3,29.9 -17.2,35.5 -4,2.2 -8.9,3.7 -14.6,4.4 -5.8,0.5 -15.3,0.9 -23.5,0.9 z m 18.9,-98 c -7.6,0 -13,0.1 -16.3,0.4 -3.3,0.3 -6.1,0.9 -8.4,1.8 -1.8,0.7 -3.4,1.8 -4.9,3.2 -1.4,1.4 -2.9,3.7 -4.3,6.9 -1.4,3.2 -2.7,5 -3.7,10.4 l -6.8,36.1 c -0.8,5.3 -1.3,7 -1.5,10.4 0.2,3 0.7,5.2 1.5,6.6 0.8,1.4 2,2.5 3.6,3.3 2,1 4.6,1.7 7.7,2 3.1,0.3 8.2,0.4 15.4,0.4 8.7,0 15.1,-0.3 19.4,-0.8 4.3,-0.5 7.5,-1.7 9.7,-3.6 4.1,-3.6 6.4,-9.1 8.8,-20.5 l 6.3,-33.3 c 0.9,-6.4 1.3,-8.5 1.3,-11.8 -0.1,-4.5 -0.3,-6.9 -2.2,-8.3 -1.9,-1.4 -4.6,-2.3 -8,-2.7 -3.6,-0.3 -9.4,-0.5 -17.6,-0.5 z" id="path18" style="fill:#ff0000"/>
    </g>
  </g>
  <g id="g34" transform="matrix(0.52944194,0,0,0.52944194,0.52944194,0.2696818)">
    <polygon points="272,37.1 310.3,37.1 310.3,60.2 330.2,60.2 330.2,2 310.3,2 310.3,24.3 272,24.3 272,2 252.1,2 252.1,60.2 272,60.2 " id="polygon24" style="fill:#ff0000"/>
    <path d="m 375.2,14.6 12.6,20.9 h -25.2 z m 19.9,32.8 7.7,12.8 h 23.1 L 390.8,2 h -8 -15.1 l -35.1,58.2 h 15.1 l 7.7,-12.8 z" id="path26" style="fill:#ff0000"/>
    <path d="m 512,2 v 58.2 h 19.1 V 39.1 c 6.3,1.3 13.5,1.9 21.1,1.9 25.3,0 36.9,-9.1 37.1,-20.3 0.2,-13.5 -14.9,-21.1 -40.3,-21.1 -6.6,0 -8.9,0.3 -17.9,0.8 C 522.1,0.9 512,2 512,2 Z m 19.1,9.2 c 0,0 4.7,-0.5 8.9,-0.8 4.2,-0.3 5.3,-0.2 8.4,-0.2 11.7,0 18.8,3.7 18.6,10.6 -0.1,5.8 -5.5,10.4 -17.2,10.4 -3.5,0 -8.9,-0.5 -12.4,-1 -3.6,-0.5 -6.2,-1.6 -6.2,-1.6 V 11.2 Z" id="path28" style="fill:#ff0000"/>
    <path d="m 428.3,2 v 58.2 h 19.1 v -49 c 0,0 4.7,-0.5 8.9,-0.8 4.2,-0.3 5.3,-0.2 8.4,-0.2 11.7,0 19.6,3.7 19.4,10.6 -0.1,5.8 -6.3,8.8 -18,8.8 -3.5,0 -7.9,-0.5 -11.5,-1 -0.2,0 -4,6.2 -4,6.2 l 28.7,25.4 H 508 L 482.7,38.4 c 15.9,-2.7 23.7,-9.9 23.8,-17.7 0,-15.1 -15,-21.4 -41.1,-21.1 -6.6,0.1 -8.9,0.3 -17.9,0.8 C 438.3,0.9 428.3,2 428.3,2 Z" id="path30" style="fill:#ff0000"/>
    <path d="m 239.3,19.5 c 0,0 6.7,-12.3 6.4,-12.8 C 245.4,6.2 232.2,-0.8 205.8,-0.5 164.9,0 165.1,17 165.1,17 c 0,0 -4.1,15.9 27.7,19.1 19.5,2 33.4,5.3 33.3,10 -0.1,4.7 -8.3,4.5 -11.9,4.2 C 182.3,47.7 170.9,38.8 170.9,38.8 L 164,53.3 c 0,0 15.4,9.6 47.4,9.3 32,-0.3 36.4,-7.9 37,-18.1 0.7,-12.7 -17.1,-17.8 -17.1,-17.8 0,0 -9.8,-2.1 -19.9,-3.6 -11.7,-1.7 -23.8,-3.5 -22.3,-8.2 0,-0.2 3.4,-6.8 27.9,-2.2 11.9,2.3 22.3,6.8 22.3,6.8 z" id="path32" style="fill:#ff0000"/>
  </g>
</svg>
