<?xml version="1.0" encoding="utf-8"?>
<!-- Generator: Adobe Illustrator 19.0.0, SVG Export Plug-In . SVG Version: 6.00 Build 0)  -->
<svg version="1.1" baseProfile="tiny"
	 id="svg7148" inkscape:version="0.48.4 r9939" sodipodi:docname="Commodore_logo.svg" xmlns:rdf="http://www.w3.org/1999/02/22-rdf-syntax-ns#" xmlns:dc="http://purl.org/dc/elements/1.1/" xmlns:svg="http://www.w3.org/2000/svg" xmlns:inkscape="http://www.inkscape.org/namespaces/inkscape" xmlns:cc="http://creativecommons.org/ns#" xmlns:sodipodi="http://sodipodi.sourceforge.net/DTD/sodipodi-0.dtd"
	 xmlns="http://www.w3.org/2000/svg" xmlns:xlink="http://www.w3.org/1999/xlink" x="0px" y="0px" viewBox="-64 344.8 482 105.2"
	 xml:space="preserve">
<g>
	<g id="Logo">
		<path id="path3002" fill="#002255" d="M-11.4,344.8c-29.1,0-52.6,23.6-52.6,52.6c0,29.1,23.6,52.6,52.6,52.6c5.6,0,11-0.9,16-2.5
			v-26.3c-4.4,2.5-9.5,4-14.9,4c-16,0-28.9-12.5-28.9-27.8s13-27.8,28.9-27.8c5.5,0,10.6,1.5,14.9,4v-26.3
			C-0.4,345.7-5.8,344.8-11.4,344.8z"/>
		<polygon id="polygon9367" fill="#002255" points="5.1,377.4 5.1,377.4 44.3,377.4 26.7,395.7 5.1,395.7 		"/>
		<polygon id="polygon9369" fill="#FF0000" points="5.1,417.7 5.1,417.7 44.3,417.7 26.7,399.4 5.1,399.4 		"/>
	</g>
	<g id="Commodore">
		<path id="path3067" inkscape:connector-curvature="0" fill="#002255" d="M110.6,391.1c5,0,9-1.4,12.2-4c3.2-2.7,4.8-6.4,4.9-11.3
			c-0.1-4.9-1.7-8.7-4.9-11.4s-7.2-4-12.2-4s-9,1.4-12.2,4s-4.8,6.5-4.9,11.4c0.1,4.9,1.7,8.7,4.9,11.3
			C101.6,389.7,105.6,391.1,110.6,391.1z M110.6,384c-2.3-0.1-4-0.9-5.1-2.5s-1.6-3.5-1.5-5.8c0-2.3,0.5-4.2,1.5-5.8
			c1-1.6,2.7-2.4,5.1-2.5c2.3,0.1,4,0.9,5.1,2.5s1.6,3.5,1.5,5.8c0,2.2-0.5,4.2-1.5,5.8C114.6,383.1,112.9,383.9,110.6,384z"/>
		<path id="path3069" inkscape:connector-curvature="0" fill="#002255" d="M131.8,390.4H142V378c0-3.1,0.5-5.5,1.5-7
			s2.4-2.2,4.2-2.2c1.4,0,2.5,0.6,3.1,1.7s1,2.5,1,4.2v15.8H162v-12.4c0-3.1,0.5-5.5,1.5-7s2.4-2.2,4.2-2.2c1.4,0,2.5,0.6,3.1,1.7
			s1,2.5,1,4.2v15.8H182v-17.3c0.1-4-0.6-7.1-2-9.4c-1.4-2.2-4.2-3.4-8.4-3.4c-2.1,0-4.1,0.4-5.9,1.3s-3.3,2.3-4.5,4.3
			c-0.8-1.9-2-3.3-3.6-4.3c-1.6-0.9-3.5-1.4-5.6-1.4c-2.3,0-4.5,0.5-6.3,1.5c-1.9,1-3.3,2.5-4.4,4.6h-0.1v-5.4h-9.3L131.8,390.4
			L131.8,390.4z"/>
		<path id="path3071" inkscape:connector-curvature="0" fill="#002255" d="M187.5,390.4h10.2V378c0-3.1,0.5-5.5,1.5-7
			s2.4-2.2,4.2-2.2c1.4,0,2.5,0.6,3.1,1.7s1,2.5,1,4.2v15.8h10.2v-12.4c0-3.1,0.5-5.5,1.5-7s2.4-2.2,4.2-2.2c1.4,0,2.5,0.6,3.1,1.7
			s1,2.5,1,4.2v15.8h10.2v-17.3c0.1-4-0.6-7.1-2-9.4c-1.4-2.2-4.2-3.4-8.4-3.4c-2.1,0-4.1,0.4-5.9,1.3c-1.8,0.9-3.3,2.3-4.5,4.3
			c-0.8-1.9-2-3.3-3.6-4.3c-1.6-0.9-3.5-1.4-5.6-1.4c-2.3,0-4.5,0.5-6.3,1.5c-1.9,1-3.3,2.5-4.4,4.6h-0.1v-5.4h-9.3L187.5,390.4
			L187.5,390.4z"/>
		<path id="path3073" inkscape:connector-curvature="0" fill="#002255" d="M258.8,391.1c5,0,9-1.4,12.2-4c3.2-2.7,4.8-6.4,4.9-11.3
			c-0.1-4.9-1.7-8.7-4.9-11.4c-3.2-2.7-7.2-4-12.2-4s-9,1.4-12.2,4c-3.2,2.6-4.8,6.5-4.9,11.4c0.1,4.9,1.7,8.7,4.9,11.3
			C249.8,389.7,253.9,391.1,258.8,391.1z M258.8,384c-2.3-0.1-4-0.9-5.1-2.5s-1.6-3.5-1.5-5.8c0-2.3,0.5-4.2,1.5-5.8
			c1-1.6,2.7-2.4,5.1-2.5c2.3,0.1,4,0.9,5.1,2.5s1.6,3.5,1.5,5.8c0,2.2-0.5,4.2-1.5,5.8C262.8,383.1,261.2,383.9,258.8,384z"/>
		<path id="path3075" inkscape:connector-curvature="0" fill="#002255" d="M311.7,348.1h-10.2v16.7h-0.1c-1.3-1.7-2.8-2.8-4.5-3.5
			s-3.6-1-5.6-1c-4.1,0.2-7.2,1.7-9.3,4.7c-2.1,3-3.2,6.4-3.2,10.1c0,4.5,1.2,8.2,3.4,11.2c2.3,3,5.6,4.6,10,4.7
			c2.4,0,4.5-0.6,6.3-1.7s3.1-2.5,3.8-4.2h0.1v5.3h9.4L311.7,348.1L311.7,348.1z M289.1,375.4c0-2,0.5-3.7,1.6-5.1s2.6-2.1,4.6-2.2
			c1.9,0,3.4,0.8,4.5,2.2c1.1,1.4,1.7,3.2,1.7,5.5c0,2.2-0.7,4-1.8,5.4s-2.6,2.1-4.4,2.1c-1.9,0-3.4-0.8-4.5-2.2
			C289.7,379.7,289.1,377.8,289.1,375.4L289.1,375.4z"/>
		<path id="path3077" inkscape:connector-curvature="0" fill="#002255" d="M332.6,391.1c5,0,9-1.4,12.2-4c3.2-2.7,4.8-6.4,4.9-11.3
			c-0.1-4.9-1.7-8.7-4.9-11.4c-3.2-2.7-7.2-4-12.2-4s-9,1.4-12.2,4c-3.2,2.7-4.8,6.5-4.9,11.4c0.1,4.9,1.7,8.7,4.9,11.3
			C323.6,389.7,327.7,391.1,332.6,391.1z M332.6,384c-2.3-0.1-4-0.9-5.1-2.5c-1-1.6-1.6-3.5-1.5-5.8c0-2.3,0.5-4.2,1.5-5.8
			c1-1.6,2.7-2.4,5.1-2.5c2.3,0.1,4,0.9,5.1,2.5c1,1.6,1.6,3.5,1.5,5.8c0,2.2-0.5,4.2-1.5,5.8C336.7,383.1,335,383.9,332.6,384z"/>
		<path id="path3079" inkscape:connector-curvature="0" fill="#002255" d="M375.4,360.7c-0.5-0.1-1.1-0.2-1.7-0.2
			c-0.6-0.1-1.2-0.1-1.8-0.1c-2.2,0-4,0.6-5.3,1.7c-1.4,1.1-2.5,2.6-3.4,4.4h-0.1v-5.4h-9.3v29.4H364v-12.4c0-2.9,0.6-5.2,1.9-6.8
			c1.3-1.6,3.1-2.4,5.5-2.4c0.6,0,1.2,0,1.7,0c0.6,0,1.1,0.1,1.7,0.3L375.4,360.7z"/>
		<path id="path3081" inkscape:connector-curvature="0" fill="#002255" d="M407.3,378.7v-1.9c0.1-4.5-1.1-8.4-3.3-11.5
			c-2.3-3.2-6.1-4.8-11.5-5c-4.7,0-8.4,1.4-11.3,4c-2.9,2.7-4.4,6.4-4.4,11.3c0.1,4.9,1.7,8.7,4.9,11.3c3.2,2.7,7.2,4,12.2,4.1
			c1.9,0,3.8-0.1,5.6-0.4c1.8-0.3,3.6-0.8,5.2-1.4V382c-1.5,0.8-3.1,1.4-4.6,1.7c-1.5,0.4-3,0.5-4.4,0.5c-2.5,0-4.5-0.4-6-1.3
			s-2.4-2.3-2.7-4.3L407.3,378.7L407.3,378.7z M386.8,372.9c0.1-1.7,0.6-3.2,1.5-4.3c0.9-1.2,2.3-1.8,4.1-1.8c2,0,3.5,0.6,4.3,1.8
			c0.9,1.2,1.3,2.6,1.3,4.3H386.8z"/>
		<path id="path3064" sodipodi:nodetypes="sssssccsssssccss" inkscape:connector-curvature="0" fill="#002255" d="M71.8,390.7
			c-4.4-1.2-7.8-3.2-10.6-6.3c-2.8-3.1-4.1-5.9-4.9-10.9c-1.5-9.8,2.7-18.8,10.8-22.7c4.1-2,9.6-3,15.1-3c3.4,0,6.4,0.6,9.2,1.1
			l-0.9,8.8c0,0-0.7-0.2-2.7-0.7c-1.9-0.5-3.8-0.7-5.7-0.7c-3.8,0-7.5,1-9.9,2.9c-5.7,4.4-5.7,15.9,0.2,20.7c3.6,3,10.1,4,15.9,2.5
			l2.7-0.7l0.8,8.9c-1.7,0.4-5.3,1.1-9.7,1.1C76.3,391.7,74.5,391.5,71.8,390.7z"/>
	</g>
	<rect id="Line" x="49" y="395.8" fill="#002255" width="369" height="3"/>
	<g id="Amiga">
		<path id="path6187" fill="#FF0000" d="M104.7,443.9c0-0.5-0.1-0.9-0.4-1c-0.3-0.2-0.6-0.3-1.1-0.3c-1.6-0.3-2.5-0.9-2.8-1.8
			c-0.3-1-0.4-2.2-0.4-3.7l-1.6-30.8c0-1.1-0.1-2-0.3-2.8c-0.2-0.7-0.9-1.1-2.2-1.2c-1.1,0-1.9,0.4-2.4,1s-1,1.4-1.6,2.2l-19.8,27.8
			l-3.3,4.7c-0.7,1-1.4,1.9-2.1,2.8c-0.8,0.9-1.8,1.4-3,1.6c-0.7,0.1-1.3,0.2-1.9,0.4c-0.6,0.2-0.9,0.7-1,1.5c0,0.5,0.2,0.8,0.5,0.9
			s0.7,0.2,1.1,0.2c1.1,0,2.3-0.1,3.5-0.2s2.3-0.2,3.5-0.2c1.1,0,2.1,0.1,3.1,0.2s2.1,0.1,3.1,0.2c0.5,0,0.9-0.1,1.3-0.3
			c0.4-0.2,0.6-0.6,0.6-1.1c-0.1-0.8-0.5-1.2-1.4-1.3s-1.7-0.3-2.6-0.5s-1.3-0.8-1.4-1.9c0.2-1.1,0.9-2.7,2.2-4.7
			c1.3-2,2.2-3.5,2.8-4.3h12.3c0.1,1.3,0.1,2.6,0.2,3.9s0.1,2.6,0.1,3.9c-0.1,1.8-0.5,2.9-1.4,3.2c-0.9,0.3-1.8,0.5-2.6,0.5
			c-0.9,0-1.4,0.6-1.4,1.5c0,0.4,0.1,0.7,0.4,0.9c0.3,0.2,0.6,0.2,1,0.2c1.7,0,3.4-0.1,5.1-0.2s3.4-0.2,5.1-0.2
			c1.1,0,2.3,0.1,3.4,0.1c1.1,0.1,2.3,0.1,3.4,0.1c0.5,0,1-0.1,1.3-0.2C104.5,444.8,104.7,444.5,104.7,443.9L104.7,443.9z
			 M89.5,428.2H79.2l9.8-14.3L89.5,428.2z"/>
		<path id="path4766" fill="#FF0000" d="M194.1,404.7c0-0.4-0.1-0.6-0.4-0.8c-0.2-0.2-0.5-0.3-0.9-0.3c-0.6,0-1.1,0-1.6,0.1
			c-0.5,0-1.1,0.1-1.6,0.2c-1.4,0.1-2.7,0.2-4.1,0.3c-1.4,0-2.8,0-4.2,0c-1,0-2-0.1-3.1-0.1c-1-0.1-2-0.1-3.1-0.1
			c-0.5,0-0.9,0.1-1.3,0.4s-0.6,0.7-0.6,1.2c0.2,0.9,0.9,1.4,2.1,1.3c1.2-0.1,1.9,0.5,2.1,1.6c0,0.3,0,0.6-0.1,1
			c-0.1,0.3-0.2,0.6-0.3,1l-7.8,27c-0.3,1.3-0.6,2.4-1,3.3s-1.2,1.5-2.5,1.8c-0.6,0.1-1.3,0.2-2.1,0.4c-0.8,0.2-1.3,0.7-1.3,1.4
			c0,0.4,0.2,0.7,0.5,0.9c0.3,0.2,0.7,0.3,1.1,0.3c1.3,0,2.7-0.1,4-0.2c1.4-0.1,2.7-0.2,4.1-0.2c1.5,0,2.9,0.1,4.4,0.2
			s2.9,0.1,4.4,0.2c0.6,0,1.3,0,2.1-0.1c0.8-0.1,1.2-0.5,1.3-1.3c-0.1-0.8-0.5-1.2-1.2-1.3c-0.7-0.1-1.5-0.2-2.2-0.4
			c-0.7-0.2-1.1-0.9-1.2-2.1c0-0.5,0.1-1,0.2-1.5s0.3-1,0.4-1.5l7.8-27.1c0.3-1.1,0.6-1.9,1-2.4s1.2-0.9,2.3-1.1
			c0.6-0.1,1.2-0.2,1.9-0.5C193.7,405.8,194,405.4,194.1,404.7L194.1,404.7z"/>
		<path id="path4768" fill="#FF0000" d="M234.7,405c-0.1-0.7-0.8-1.1-2-1.4c-1.3-0.3-2.6-0.4-4-0.5s-2.3-0.1-2.8-0.1
			c-5.2,0-10.6,1.1-16.2,3.1c-5.6,2.1-10.4,5.1-14.4,9.1s-6.1,8.9-6.2,14.7c0.1,3.7,1.1,6.7,3.2,9.1s4.6,4.2,7.8,5.4
			c3.1,1.2,6.3,1.8,9.7,1.8c2,0,4-0.1,6.1-0.4c2-0.2,4-0.6,6-1.1c0.7-0.1,1.4-0.3,1.9-0.6c0.5-0.2,0.9-0.7,1.2-1.5
			c0.5-1.5,1-3.1,1.5-4.7s0.9-3.2,1.3-4.7c0.7-2.2,1.6-3.6,2.6-4s1.9-0.6,2.7-0.6c0.8,0,1.2-0.5,1.2-1.5c0-0.4-0.2-0.7-0.5-0.9
			c-0.3-0.2-0.7-0.3-1-0.3c-1.5,0-3.1,0.1-4.6,0.2c-1.6,0.1-3.1,0.2-4.7,0.2c-1.5,0-3-0.1-4.4-0.2c-1.5-0.1-3-0.2-4.4-0.2
			c-0.5,0-1,0.1-1.4,0.3c-0.5,0.2-0.7,0.6-0.7,1.1c0.1,0.7,0.5,1.1,1.2,1.2c0.8,0.1,1.5,0.2,2.3,0.5c0.8,0.2,1.2,0.9,1.2,2
			c-0.1,1.2-0.4,2.7-1.1,4.8c-0.6,2-1.2,3.6-1.6,4.9c-0.2,0.9-0.6,1.6-1,2s-1.1,0.6-2.1,0.6c-3.6-0.1-6.4-1.2-8.2-3.5
			c-1.9-2.3-2.8-5.1-2.8-8.6c0-3.2,0.7-6.4,2-9.4c1.3-3,3.1-5.7,5.3-8c2.2-2.2,5-4.1,8.2-5.7c3.3-1.6,6.5-2.4,9.7-2.5
			c1.5,0,2.4,0.3,2.8,0.9c0.3,0.6,0.5,1.6,0.4,3c0,0.4,0,0.7-0.1,1.1c0,0.4-0.1,0.7-0.1,1.1c0,0.6,0.1,1.2,0.3,1.7
			c0.2,0.5,0.7,0.8,1.4,0.8c0.8-0.1,1.3-0.4,1.7-1.1s0.6-1.4,0.8-2c0.2-0.5,0.5-1.5,1-3.1C234.3,406.4,234.6,405.4,234.7,405
			L234.7,405L234.7,405z"/>
		<path id="path4770" fill="#FF0000" d="M270.1,443.9c0-0.5-0.1-0.9-0.4-1c-0.3-0.2-0.6-0.3-1.1-0.3c-1.6-0.3-2.5-0.9-2.8-1.8
			c-0.3-1-0.4-2.2-0.4-3.7l-1.6-30.8c0-1.1-0.1-2-0.3-2.8c-0.2-0.7-0.9-1.1-2.2-1.2c-1.1,0-1.9,0.4-2.4,1s-1,1.4-1.6,2.2l-19.8,27.8
			l-3.3,4.7c-0.7,1-1.4,1.9-2.1,2.8c-0.8,0.9-1.8,1.4-3,1.6c-0.7,0.1-1.3,0.2-1.9,0.4c-0.6,0.2-0.9,0.7-1,1.5c0,0.5,0.2,0.8,0.5,0.9
			c0.3,0.1,0.7,0.2,1.1,0.2c1.1,0,2.3-0.1,3.5-0.2c1.2-0.1,2.3-0.2,3.5-0.2c1.1,0,2.1,0.1,3.1,0.2c1.1,0.1,2.1,0.1,3.1,0.2
			c0.5,0,0.9-0.1,1.3-0.3c0.4-0.2,0.6-0.6,0.6-1.1c-0.1-0.8-0.5-1.2-1.4-1.3c-0.9-0.1-1.7-0.3-2.6-0.5c-0.9-0.2-1.3-0.8-1.4-1.9
			c0.2-1.1,0.9-2.7,2.2-4.7c1.3-2,2.2-3.5,2.8-4.3h12.4c0.1,1.3,0.1,2.6,0.2,3.9s0.1,2.6,0.1,3.9c-0.1,1.8-0.5,2.9-1.4,3.2
			c-0.9,0.3-1.8,0.5-2.6,0.5c-0.9,0-1.4,0.6-1.4,1.5c0,0.4,0.1,0.7,0.4,0.9c0.3,0.2,0.6,0.2,1,0.2c1.7,0,3.4-0.1,5.1-0.2
			s3.4-0.2,5.1-0.2c1.1,0,2.3,0.1,3.4,0.1c1.1,0.1,2.3,0.1,3.4,0.1c0.5,0,1-0.1,1.3-0.2C269.9,444.8,270.1,444.5,270.1,443.9
			L270.1,443.9z M254.8,428.2h-10.3l9.8-14.3L254.8,428.2z"/>
		<path id="path4764" fill="#FF0000" d="M167.9,404.9c0-0.4-0.1-0.7-0.4-0.9c-0.2-0.2-0.5-0.3-0.9-0.3c-1.3,0-2.6,0-3.9,0.1
			s-2.6,0.1-3.9,0.1c-0.7,0-1.7-0.1-3.1-0.1c-1.4,0-2.3,0.1-2.8,0.5c-0.1,0.1-0.2,0.3-0.2,0.4c-0.1,0.2-0.2,0.3-0.2,0.4l-17,25.7
			l-0.7-25.3c0-0.5,0-0.9-0.1-1.2c-0.1-0.4-0.4-0.5-0.9-0.6c-1.4,0-2.9,0-4.3,0.1c-1.4,0-2.9,0-4.3,0c-0.8,0-1.6-0.1-2.4-0.1
			c-0.8-0.1-1.6-0.1-2.4-0.1c-0.5,0-1,0.1-1.5,0.2c-0.5,0.2-0.7,0.5-0.8,1.1c0.2,1,1,1.5,2.3,1.4c1.4,0,2.1,0.5,2.3,1.4
			c0,0.7-0.2,1.4-0.4,2.1c-0.3,0.7-0.5,1.4-0.7,2c-1.5,4.2-3,8.3-4.5,12.5s-3,8.3-4.6,12.5c-0.6,1.8-1.2,3-1.8,3.7
			c-0.6,0.7-1.8,1.2-3.7,1.5c-0.5,0.1-1,0.2-1.4,0.5c-0.4,0.2-0.6,0.6-0.6,1.2c0,0.5,0.2,0.8,0.5,1c0.3,0.1,0.7,0.2,1.2,0.2
			c1.1,0,2.2,0,3.3-0.1c1.1-0.1,2.2-0.1,3.3-0.1c1,0,2,0.1,3,0.2s2,0.1,3,0.2c0.5,0,0.9-0.1,1.3-0.3c0.4-0.2,0.6-0.6,0.7-1.1
			c-0.1-0.9-0.5-1.3-1.4-1.4c-0.9-0.1-1.8-0.2-2.7-0.4s-1.4-1-1.4-2.4c0.1-1.9,0.8-4.8,2.1-8.7c1.3-3.8,2.6-7.6,4.1-11.2
			c1.4-3.6,2.4-6,2.9-7.3l0.7,29.4c0,0.9,0.1,1.6,0.3,2.2c0.2,0.5,0.8,0.8,1.8,0.8c1,0,1.8-0.4,2.4-1.1c0.6-0.7,1.1-1.4,1.6-2.2
			l19.8-29.1l-6.5,24.6c-0.2,1.1-0.5,2.1-0.9,3.2s-1.2,1.7-2.3,2c-0.7,0-1.4,0.2-2.2,0.3c-0.8,0.2-1.3,0.7-1.4,1.5
			c0,0.5,0.2,0.8,0.5,1c0.3,0.2,0.7,0.3,1.1,0.3c1.4,0,2.9-0.1,4.3-0.2s2.9-0.2,4.3-0.2c1.5,0,3,0.1,4.4,0.2c1.5,0.1,3,0.2,4.4,0.2
			c0.6,0,1-0.1,1.5-0.3c0.4-0.2,0.7-0.6,0.7-1.2c-0.1-0.7-0.4-1.2-1.1-1.3c-0.7-0.1-1.4-0.3-2.1-0.5c-0.7-0.2-1.1-0.8-1.1-1.9
			c0-0.7,0.1-1.5,0.3-2.3c0.2-0.8,0.3-1.5,0.5-2.2l6.3-25.3c0.2-1.1,0.5-2,0.9-2.6s1.1-1,2.3-1.2c0.6,0,1.2-0.2,1.8-0.4
			C167.5,406.1,167.9,405.7,167.9,404.9L167.9,404.9z"/>
	</g>
	<g id="_x31_">
		<path fill="#002255" d="M286.3,414.4l-3.9,2.5l0.2-11.4l4.8-3.1h9.4V446l-10.6,0.1L286.3,414.4L286.3,414.4z M287.5,412.3V445h8.2
			v-41.3h-7.9l-4,2.6l-0.1,8.5L287.5,412.3z"/>
		<polygon fill="#002255" points="288.6,443.8 288.7,410.1 284.8,412.6 284.9,406.9 288.1,404.8 294.5,404.9 294.5,443.8 		"/>
	</g>
	<g id="_x32_">
		<path fill="#002255" d="M321.8,436.2h10v10h-32.3l16.3-18.7c1.2-1.3,2.4-2.7,3.5-4.1c2-2.6,4.3-5.9,2.3-9.1
			c-1.3-2.2-4.6-2.2-6.6-1.1c-1.5,0.8-2.4,2.3-2.6,3.9c-0.2,1-0.1,2.8,0.7,3.5l1.5,1.4l-6.2,8.4l-1.9-2.1c-2.4-2.6-3.9-5.8-4.2-9.4
			c-0.3-3.2,0.4-6.5,2-9.2s3.9-4.8,6.8-6c3.2-1.4,6.8-1.6,10.2-0.9c4.7,1,9.1,4.7,10.6,9.3c1.2,3.8,1.1,6.8-0.3,10.6
			c-1.2,3.2-3.3,6-5.5,8.5C324.8,432.8,323.3,434.5,321.8,436.2L321.8,436.2z M319.3,437.3c2-2.4,4-4.6,6-6.9
			c2.1-2.5,4.1-5.1,5.3-8.2c1.3-3.5,1.4-6.3,0.3-9.8c-1.4-4.2-5.5-7.6-9.8-8.5c-3.2-0.7-6.5-0.5-9.5,0.8c-2.6,1.2-4.8,3.1-6.3,5.6
			c-1.5,2.6-2.2,5.6-1.9,8.5c0.3,3.3,1.7,6.3,3.9,8.7l0.9,1l4.8-6.4l-0.8-0.7c-1.1-1-1.3-3.1-1.1-4.5c0.3-2,1.4-3.8,3.2-4.8
			c2.6-1.3,6.5-1.1,8.1,1.6c2.3,3.7,0.1,7.4-2.4,10.5c-1.1,1.4-2.3,2.7-3.5,4.1l-14.6,16.8h28.6v-7.7L319.3,437.3L319.3,437.3z"/>
		<path fill="#002255" d="M329.5,443.8h-24.9l12.9-14.9c3.8-4.3,9.6-10,6-15.9c-1.9-3.1-6.3-3.7-9.6-2c-4.6,2.3-4.9,8.9-2.4,11.2
			l-3.3,4.4c-8.7-9.6-1.1-24.6,12.6-21.7c3.8,0.8,7.6,3.9,8.9,7.8c1.1,3.3,1,5.8-0.2,9.1c-2,5.4-7.3,10-12.6,16.7h12.6V443.8z"/>
	</g>
	<g>
		<path fill="none" d="M352,409.8c-10.2-0.3-8.5,19.7-5.7,25c1.2,2.3,2.9,3.5,5.7,3.5c2.8,0,4.8-1.1,6.1-3.4
			C361,429.9,362.2,410.1,352,409.8z M358.5,429.6c-0.2,1.4-0.7,3.4-1.4,4.7c-1.1,2-2.8,2.8-5.1,2.8l0,0h-0.1c-0.1,0-0.2,0-0.3,0
			c-2-0.1-3.2-1-4.2-2.9c-0.7-1.3-1.1-3.2-1.4-4.6c-0.4-2.2-0.6-4.5-0.6-6.7c0-3.4,0.6-9,3.7-11.1c0.9-0.6,1.9-0.8,3-0.8
			c5.6,0.2,6.8,7.4,7,11.8C359.1,425,358.9,427.4,358.5,429.6z"/>
		<path fill="none" d="M363.3,408.9c-2.7-3.9-6.5-5.8-11.2-5.8s-8.4,1.9-11.1,5.8c-3.1,4.3-3.9,9.9-3.9,15.2
			c0,5.2,0.9,10.8,3.9,15.2c2.7,3.8,6.5,5.8,11.1,5.8c4.7,0,8.4-1.9,11.1-5.7c3.1-4.3,3.9-9.8,3.9-14.9
			C367.1,419.1,366.3,413.3,363.3,408.9z M362.3,438.6c-2.5,3.5-5.9,5.2-10.2,5.2c-4.3,0-7.7-1.8-10.2-5.3s-3.7-8.4-3.7-14.5
			s1.2-11,3.7-14.5s5.9-5.3,10.2-5.3c4.4,0,7.8,1.8,10.2,5.3c2.4,3.5,3.6,8.5,3.6,14.8C366,430.4,364.7,435.2,362.3,438.6z"/>
		<path fill="#002255" d="M352,411c-1.1,0-2.1,0.2-3,0.8c-3.1,2.1-3.7,7.7-3.7,11.1c0,2.2,0.2,4.5,0.6,6.7c0.3,1.4,0.7,3.3,1.4,4.6
			c1,1.9,2.2,2.8,4.2,2.9c0.1,0,0.2,0,0.3,0h0.1l0,0c2.3,0,4-0.8,5.1-2.8c0.7-1.3,1.2-3.2,1.4-4.7c0.4-2.3,0.5-4.6,0.4-6.9
			C358.8,418.4,357.6,411.1,352,411z M356.3,433.1c-1,2.1-2.6,2.7-4.1,2.7c-1.6,0-3-0.3-4-2.6c-0.9-2.1-1.5-6-1.5-9.1
			c0-3.8,0.4-7.5,1.7-9.6c0.9-1.5,2.5-2.1,3.7-2.1c1.3,0,2.8,0.9,3.7,2.5c1.2,2.1,1.7,5.5,1.7,9.2
			C357.6,427.3,357.3,430.9,356.3,433.1z"/>
		<path fill="#002255" d="M364.2,408.2c-2.9-4.2-7-6.3-12.1-6.3s-9.2,2.1-12.1,6.2c-3.2,4.5-4.1,10.4-4.1,15.8
			c0,5.5,0.9,11.3,4.1,15.9c2.9,4.1,7,6.3,12.1,6.3c5,0,9.1-2.1,12-6.2c3.2-4.5,4.1-10.2,4.1-15.6
			C368.3,418.9,367.4,412.9,364.2,408.2z M363.2,439.3c-2.7,3.8-6.5,5.7-11.1,5.7c-4.7,0-8.4-1.9-11.1-5.8c-3.1-4.4-3.9-10-3.9-15.2
			s0.9-10.8,3.9-15.2c2.7-3.8,6.5-5.8,11.1-5.8c4.7,0,8.5,1.9,11.2,5.8c3.1,4.4,3.9,10.2,3.9,15.5
			C367.1,429.5,366.3,435,363.2,439.3z"/>
		<path fill="#002255" d="M362.3,409.5c-2.4-3.5-5.8-5.3-10.2-5.3c-4.3,0-7.7,1.8-10.2,5.3s-3.7,8.3-3.7,14.5s1.2,11,3.7,14.5
			s5.9,5.3,10.2,5.3c4.3,0,7.7-1.7,10.2-5.2s3.7-8.2,3.7-14.3C366,418,364.8,413.1,362.3,409.5z M358.1,434.8
			c-1.3,2.3-3.3,3.4-6.1,3.4c-2.8,0-4.5-1.2-5.7-3.5c-2.8-5.2-4.5-25.2,5.7-25C362.2,410.1,361,429.9,358.1,434.8z"/>
	</g>
	<g>
		<path fill="none" d="M386.8,410.2c-10.2-0.3-8.5,19.7-5.7,25c1.2,2.3,2.9,3.5,5.7,3.5c2.8,0,4.8-1.1,6.1-3.4
			C395.8,430.2,397.1,410.5,386.8,410.2z M393.4,430c-0.2,1.4-0.7,3.4-1.4,4.7c-1.1,2-2.8,2.8-5.1,2.8l0,0h-0.1c-0.1,0-0.2,0-0.3,0
			c-2-0.1-3.2-1-4.2-2.9c-0.7-1.3-1.1-3.2-1.4-4.6c-0.4-2.2-0.6-4.5-0.6-6.7c0-3.4,0.6-9,3.7-11.1c0.9-0.6,1.9-0.8,3-0.8
			c5.6,0.2,6.8,7.4,7,11.8C393.9,425.4,393.7,427.7,393.4,430z"/>
		<path fill="none" d="M398.1,409.2c-2.7-3.9-6.5-5.8-11.2-5.8s-8.4,1.9-11.1,5.8c-3.1,4.3-3.9,9.9-3.9,15.2
			c0,5.2,0.9,10.8,3.9,15.2c2.7,3.8,6.5,5.8,11.1,5.8c4.7,0,8.4-1.9,11.1-5.7c3.1-4.3,3.9-9.8,3.9-14.9
			C402,419.5,401.2,413.7,398.1,409.2z M397.1,439c-2.5,3.5-5.9,5.2-10.2,5.2c-4.3,0-7.7-1.8-10.2-5.3s-3.7-8.4-3.7-14.5
			s1.2-11,3.7-14.5s5.9-5.3,10.2-5.3c4.4,0,7.8,1.8,10.2,5.3c2.4,3.5,3.6,8.5,3.6,14.8C400.8,430.8,399.6,435.6,397.1,439z"/>
		<path fill="#002255" d="M386.8,411.3c-1.1,0-2.1,0.2-3,0.8c-3.1,2.1-3.7,7.7-3.7,11.1c0,2.2,0.2,4.5,0.6,6.7
			c0.3,1.4,0.7,3.3,1.4,4.6c1,1.9,2.2,2.8,4.2,2.9c0.1,0,0.2,0,0.3,0h0.1l0,0c2.3,0,4-0.8,5.1-2.8c0.7-1.3,1.2-3.2,1.4-4.7
			c0.4-2.3,0.5-4.6,0.4-6.9C393.6,418.7,392.4,411.5,386.8,411.3z M391.1,433.4c-1,2.1-2.6,2.7-4.1,2.7c-1.6,0-3-0.3-4-2.6
			c-0.9-2.1-1.5-6-1.5-9.1c0-3.8,0.4-7.5,1.7-9.6c0.9-1.5,2.5-2.1,3.7-2.1c1.3,0,2.8,0.9,3.7,2.6c1.2,2.1,1.7,5.5,1.7,9.2
			C392.4,427.7,392.1,431.3,391.1,433.4z"/>
		<path fill="#002255" d="M399,408.6c-2.9-4.2-7-6.3-12.1-6.3s-9.2,2.1-12.1,6.2c-3.2,4.5-4.1,10.4-4.1,15.8
			c0,5.5,0.9,11.3,4.1,15.9c2.9,4.1,7,6.3,12.1,6.3c5,0,9.1-2.1,12-6.2c3.2-4.5,4.1-10.2,4.1-15.6
			C403.1,419.2,402.2,413.2,399,408.6z M398,439.7c-2.7,3.8-6.5,5.7-11.1,5.7c-4.7,0-8.4-1.9-11.1-5.8c-3.1-4.4-3.9-10-3.9-15.2
			s0.9-10.8,3.9-15.2c2.7-3.8,6.5-5.8,11.1-5.8c4.7,0,8.5,1.9,11.2,5.8c3.1,4.4,3.9,10.2,3.9,15.5C402,429.9,401.1,435.4,398,439.7z
			"/>
		<path fill="#002255" d="M397.2,409.9c-2.4-3.5-5.8-5.3-10.2-5.3c-4.3,0-7.7,1.8-10.2,5.3s-3.7,8.3-3.7,14.5s1.2,11,3.7,14.5
			s5.9,5.3,10.2,5.3c4.3,0,7.7-1.7,10.2-5.2s3.7-8.2,3.7-14.3C400.8,418.4,399.6,413.4,397.2,409.9z M392.9,435.2
			c-1.3,2.3-3.3,3.4-6.1,3.4c-2.8,0-4.5-1.2-5.7-3.5c-2.8-5.2-4.5-25.2,5.7-25C397.1,410.5,395.8,430.2,392.9,435.2z"/>
	</g>
</g>
</svg>
