<?xml version="1.0" encoding="UTF-8" standalone="no"?>
<!-- Generator: Adobe Illustrator 16.0.3, SVG Export Plug-In . SVG Version: 6.00 Build 0)  -->

<svg
   xmlns:dc="http://purl.org/dc/elements/1.1/"
   xmlns:cc="http://creativecommons.org/ns#"
   xmlns:rdf="http://www.w3.org/1999/02/22-rdf-syntax-ns#"
   xmlns:svg="http://www.w3.org/2000/svg"
   xmlns="http://www.w3.org/2000/svg"
   xmlns:sodipodi="http://sodipodi.sourceforge.net/DTD/sodipodi-0.dtd"
   xmlns:inkscape="http://www.inkscape.org/namespaces/inkscape"
   version="1.1"
   id="Ebene_1"
   x="0px"
   y="0px"
   width="566.929px"
   height="98.437px"
   viewBox="0 0 566.929 98.437"
   enable-background="new 0 0 566.929 98.437"
   xml:space="preserve"
   inkscape:version="0.48.2 r9819"
   sodipodi:docname="sports.svg"><metadata
   id="metadata3097"><rdf:RDF><cc:Work
       rdf:about=""><dc:format>image/svg+xml</dc:format><dc:type
         rdf:resource="http://purl.org/dc/dcmitype/StillImage" /><dc:title /></cc:Work></rdf:RDF></metadata><defs
   id="defs3095" /><sodipodi:namedview
   pagecolor="#ffffff"
   bordercolor="#666666"
   borderopacity="1"
   objecttolerance="10"
   gridtolerance="10"
   guidetolerance="10"
   inkscape:pageopacity="0"
   inkscape:pageshadow="2"
   inkscape:window-width="1048"
   inkscape:window-height="686"
   id="namedview3093"
   showgrid="false"
   inkscape:zoom="0.79375016"
   inkscape:cx="283.46451"
   inkscape:cy="49.218498"
   inkscape:window-x="0"
   inkscape:window-y="0"
   inkscape:window-maximized="0"
   inkscape:current-layer="g3084"
   showguides="true"
   inkscape:guide-bbox="true" />
<g
   id="g3084">
	<g
   id="g3086">
		<path
   id="path2842"
   fill="#01954B"
   d="M59.308,59.926c0.002,8.188-13.273,14.827-29.652,14.827    C13.279,74.755,0.001,68.117,0,59.928c0-0.001,0-0.001,0-0.002c-0.001-8.189,13.274-14.828,29.652-14.829    c16.377,0,29.655,6.639,29.656,14.826C59.308,59.925,59.308,59.925,59.308,59.926z" />
		<path
   id="path3624"
   fill="#F9EC2B"
   d="M110.379,83.357c0.002,8.188-13.273,14.828-29.651,14.828    c-16.377,0-29.655-6.637-29.657-14.825c0-0.002,0-0.002,0-0.003c-0.002-8.188,13.273-14.828,29.651-14.829    c16.379,0,29.655,6.637,29.657,14.826C110.379,83.356,110.379,83.356,110.379,83.357z" />
		<path
   id="path3644"
   fill="#323B98"
   d="M60.398,0.252c-14.947,0-27.095,11.946-27.449,26.822c0.621-0.043,1.239-0.069,1.871-0.069    c15.169,0,27.466,12.309,27.466,27.492c0,0.227-0.011,0.446-0.017,0.671c14.3-0.96,25.595-12.867,25.595-27.424    C87.864,12.561,75.567,0.252,60.398,0.252L60.398,0.252z" />
		<path
   id="path3897"
   fill="#EB2D2F"
   d="M112.393,24.334c-15.165,0-27.458,12.301-27.458,27.474c0,0.338,0.005,0.68,0.017,1.013    c0.367-0.014,0.728-0.032,1.098-0.032c14.824,0,26.905,11.759,27.441,26.46c14.659-0.572,26.359-12.631,26.359-27.44    C139.851,36.635,127.558,24.334,112.393,24.334L112.393,24.334z" />
	</g>
	
<g
   transform="scale(0.93853587,1.0654894)"
   style="font-size:90.59816742px;font-style:normal;font-weight:normal;line-height:125%;letter-spacing:0px;word-spacing:0px;fill:#000000;fill-opacity:1;stroke:none;font-family:Sans"
   id="text3099"><path
     d="m 172.074,54.270598 c -1.26839,2.2e-5 -2.47637,-0.181174 -3.62392,-0.543589 -1.0872,-0.422769 -1.96298,-1.056955 -2.62735,-1.902561 -0.6644,-0.845558 -1.08719,-1.932735 -1.26837,-3.261534 -0.12082,-1.389144 0.15098,-3.080308 0.81538,-5.073498 l 5.25469,-16.217072 c 0.24158,-0.845533 0.78517,-1.721315 1.63077,-2.627347 0.84556,-0.966328 1.78174,-1.842109 2.80854,-2.627346 1.02676,-0.78513 2.08373,-1.419316 3.17094,-1.902562 1.14755,-0.543533 2.14413,-0.815327 2.98974,-0.815383 l 57.89223,0 -4.16752,12.683743 -47.74523,0 -1.81197,1.087178 -2.17435,6.794863 0.90598,0.996579 37.68884,0 c 1.2683,3.5e-5 2.44607,0.211431 3.53333,0.634188 1.1475,0.362426 2.05348,0.966413 2.71794,1.811963 0.72471,0.845615 1.1475,1.962991 1.26837,3.352132 0.12072,1.328801 -0.12087,2.989766 -0.72478,4.982899 l -5.25469,16.217072 c -0.30207,0.84559 -0.84566,1.751571 -1.63077,2.717945 -0.78526,0.905986 -1.72144,1.751568 -2.80854,2.536749 -1.02685,0.785186 -2.08383,1.449572 -3.17094,1.99316 -1.08724,0.48319 -2.08382,0.724785 -2.98974,0.724785 l -57.89223,0 4.07692,-12.683743 47.74523,0 1.81197,-1.087178 2.26495,-6.794863 -0.90598,-0.99658 -37.77944,0"
     style="font-style:italic;font-variant:normal;font-stretch:normal;text-align:start;line-height:125%;writing-mode:lr-tb;text-anchor:start;font-family:Spy Agency Italic;-inkscape-font-specification:'Spy Agency Italic, Italic'"
     id="path2990" /><path
     d="m 239.16194,42.855229 -10.69058,32.977733 16.21707,0 6.43247,-19.659802 39.4102,0 c 1.26831,1.9e-5 2.56688,-0.181177 3.89572,-0.543589 1.38911,-0.422771 2.68768,-1.056958 3.89573,-1.902562 1.2683,-0.84556 2.38567,-1.962936 3.35213,-3.352132 1.0267,-1.389145 1.87228,-3.05011 2.53675,-4.982899 l 5.88888,-18.119634 c 0.24151,-0.845533 0.27171,-1.721315 0.0906,-2.627347 -0.18129,-0.966328 -0.54368,-1.842109 -1.08718,-2.627346 -0.48328,-0.78513 -1.11746,-1.419316 -1.90256,-1.902562 -0.72487,-0.543533 -1.54025,-0.815327 -2.44615,-0.815383 l -57.89223,0 -4.16752,12.683743 47.74524,0 1.08717,1.087178 -2.80854,8.697424 -1.81196,1.087178 -47.74524,0"
     style="font-style:italic;font-variant:normal;font-stretch:normal;text-align:start;line-height:125%;writing-mode:lr-tb;text-anchor:start;font-family:Spy Agency Italic;-inkscape-font-specification:'Spy Agency Italic, Italic'"
     id="path2992" /><path
     d="m 317.12166,29.4467 c 0.60397,-1.811915 1.44955,-3.352082 2.53675,-4.620506 1.14756,-1.268322 2.41593,-2.2951 3.80512,-3.080338 1.44955,-0.845528 2.95952,-1.449515 4.52991,-1.811963 1.63074,-0.422735 3.2313,-0.634131 4.80171,-0.634187 l 41.31276,0 c 1.44949,5.6e-5 2.80846,0.211452 4.07692,0.634187 1.32869,0.422847 2.44607,1.087233 3.35213,1.993159 0.9059,0.845636 1.50988,1.902614 1.81196,3.170936 0.36231,1.268424 0.27171,2.717993 -0.27179,4.348712 l -11.77776,36.239267 c -0.54366,1.630776 -1.38925,3.080345 -2.53675,4.348712 -1.14765,1.268379 -2.44622,2.355556 -3.89572,3.261534 -1.44964,0.845585 -2.98981,1.479771 -4.62051,1.902562 -1.57043,0.422792 -3.0804,0.634187 -4.52991,0.634187 l -41.31276,0 c -1.57039,0 -3.01995,-0.181196 -4.34871,-0.543589 -1.32879,-0.42279 -2.44616,-1.026778 -3.35214,-1.811963 -0.90599,-0.84558 -1.50997,-1.902558 -1.81196,-3.170936 -0.2416,-1.268368 -0.0906,-2.808535 0.45299,-4.620507 L 317.12166,29.4467 m 39.13841,33.340126 9.8752,-30.440984 -33.97431,0 -9.8752,30.440984 33.97431,0"
     style="font-style:italic;font-variant:normal;font-stretch:normal;text-align:start;line-height:125%;writing-mode:lr-tb;text-anchor:start;font-family:Spy Agency Italic;-inkscape-font-specification:'Spy Agency Italic, Italic'"
     id="path2994" /><path
     d="m 386.56091,42.855229 -10.69058,32.977733 16.21707,0 6.34187,-19.569204 9.69401,0 15.67348,19.569204 22.83074,0 -15.58289,-19.569204 c 1.81191,1.9e-5 3.65407,-0.181177 5.52649,-0.543589 1.9327,-0.422771 3.74466,-1.056958 5.43589,-1.902562 1.7515,-0.905958 3.26146,-2.053534 4.52991,-3.44273 1.3287,-1.389145 2.32528,-3.05011 2.98974,-4.982899 l 5.88888,-18.119634 c 0.24151,-0.845533 0.27171,-1.721315 0.0906,-2.627347 -0.18128,-0.966328 -0.54367,-1.842109 -1.08718,-2.627346 -0.54367,-0.78513 -1.20806,-1.419316 -1.99316,-1.902562 -0.72486,-0.543533 -1.51005,-0.815327 -2.35555,-0.815383 l -55.80847,0 -4.16752,12.683743 45.66148,0 1.08718,1.087178 -2.80855,8.697424 -1.81196,1.087178 -45.66148,0"
     style="font-style:italic;font-variant:normal;font-stretch:normal;text-align:start;line-height:125%;writing-mode:lr-tb;text-anchor:start;font-family:Spy Agency Italic;-inkscape-font-specification:'Spy Agency Italic, Italic'"
     id="path2996" /><path
     d="m 470.84553,75.832962 14.22391,-43.849513 -20.65638,0 4.16752,-12.683743 58.70761,0 -4.16752,12.683743 -22.10595,0 -14.22391,43.849513 -15.94528,0"
     style="font-style:italic;font-variant:normal;font-stretch:normal;text-align:start;line-height:125%;writing-mode:lr-tb;text-anchor:start;font-family:Spy Agency Italic;-inkscape-font-specification:'Spy Agency Italic, Italic'"
     id="path2998" /><path
     d="m 533.93582,54.270598 c -1.26839,2.2e-5 -2.47637,-0.181174 -3.62393,-0.543589 -1.08719,-0.422769 -1.96297,-1.056955 -2.62734,-1.902561 -0.6644,-0.845558 -1.0872,-1.932735 -1.26838,-3.261534 -0.12081,-1.389144 0.15098,-3.080308 0.81539,-5.073498 l 5.25469,-16.217072 c 0.24157,-0.845533 0.78516,-1.721315 1.63077,-2.627347 0.84556,-0.966328 1.78174,-1.842109 2.80854,-2.627346 1.02675,-0.78513 2.08373,-1.419316 3.17093,-1.902562 1.14755,-0.543533 2.14413,-0.815327 2.98974,-0.815383 l 57.89223,0 -4.16751,12.683743 -47.74524,0 -1.81196,1.087178 -2.17436,6.794863 0.90599,0.996579 37.68883,0 c 1.26831,3.5e-5 2.44608,0.211431 3.53333,0.634188 1.1475,0.362426 2.05348,0.966413 2.71795,1.811963 0.7247,0.845615 1.1475,1.962991 1.26837,3.352132 0.12072,1.328801 -0.12087,2.989766 -0.72478,4.982899 l -5.2547,16.217072 c -0.30206,0.84559 -0.84565,1.751571 -1.63076,2.717945 -0.78526,0.905986 -1.72144,1.751568 -2.80855,2.536749 -1.02684,0.785186 -2.08382,1.449572 -3.17093,1.99316 -1.08725,0.48319 -2.08382,0.724785 -2.98974,0.724785 l -57.89223,0 4.07692,-12.683743 47.74523,0 1.81196,-1.087178 2.26496,-6.794863 -0.90598,-0.99658 -37.77944,0"
     style="font-style:italic;font-variant:normal;font-stretch:normal;text-align:start;line-height:125%;writing-mode:lr-tb;text-anchor:start;font-family:Spy Agency Italic;-inkscape-font-specification:'Spy Agency Italic, Italic'"
     id="path3000" /></g>
</g>
</svg>