<?xml version="1.0"?>
<svg xmlns="http://www.w3.org/2000/svg" viewBox="0 0 787.828 89.12">
  <path d="M63.724 63.655H35.06l-5.595 5.708-6.302 6.21c-1.211 1.362-2.088 2.591-2.624 3.691-.42.844-.602 1.688-.563 2.532.045.883.667 1.7 1.87 2.454 1.206.753 3.16 1.185 5.863 1.296l.092 1.891H0l.595-1.89c2.448-.328 4.607-1.029 6.479-2.089 2.487-1.472 6.014-4.495 10.579-9.08l62.864-62.27h3.089l-.007 60.268c.019 3.15.046 5.053.078 5.713.13 2.507.838 4.326 2.134 5.465 1.302 1.145 3.397 1.806 6.302 1.99l-.59 1.89h-40.24l.663-1.89c3.972-.296 6.25-.55 6.832-.766 1.262-.512 2.375-1.586 3.35-3.208.969-1.629 1.474-4.449 1.5-8.477l.09-9.44.006.002zm-.222-4.443l.62-24.04-24.55 24.04h23.93M150.586 13.816l9.465 50.71 41.664-50.71h32.684l-.733 1.891c-4.476 0-7.847.76-10.102 2.285-2.25 1.525-4.09 4.535-5.51 9.038l-14.751 47.226c-.948 3.01-1.39 5.25-1.308 6.714.065 1.354.805 2.447 2.219 3.272 1.414.825 4.135 1.275 8.159 1.348l-.524 1.891h-46.38l.727-1.89c4.986 0 8.628-.76 10.93-2.286 2.298-1.524 4.163-4.542 5.583-9.046l14.935-47.829-50.057 61.055h-2.88L133.18 25.232 117.869 74.26c-.628 2.015-.91 3.704-.845 5.065.092 1.832.956 3.304 2.585 4.424 1.637 1.118 4.352 1.736 8.154 1.846l-.59 1.891H96.449l.525-1.89c3.697-.11 6.497-.734 8.41-1.873 3.37-2.054 5.725-5.208 7.074-9.465l17.322-54.52c-2.002-1.67-3.783-2.755-5.34-3.266-1.551-.503-4.136-.76-7.741-.76l.72-1.89h33.179M242.558 15.66l.66-1.892h45.426l-.798 1.891c-4.117 0-7.225.734-9.323 2.2-2.101 1.46-3.854 4.515-5.268 9.172l-14.726 47.15c-1.067 3.37-1.571 5.621-1.518 6.753.066 1.321.759 2.343 2.076 3.076 1.694.95 4.828 1.466 9.407 1.538l-.595 1.891h-46.036l.66-1.89c4.62 0 7.965-.708 10.044-2.114 2.074-1.408 3.868-4.496 5.366-9.256l14.726-47.15c.903-2.932 1.315-5.145 1.243-6.649-.071-1.349-.766-2.415-2.081-3.18-1.316-.773-4.411-1.282-9.264-1.539M424.743 63.655h-28.655l-5.595 5.708-6.302 6.21c-1.211 1.362-2.09 2.591-2.63 3.691-.413.844-.603 1.688-.557 2.532.045.883.667 1.7 1.872 2.454 1.203.753 3.153 1.185 5.863 1.296l.092 1.891H361.03l.59-1.89c2.454-.328 4.612-1.029 6.479-2.089 2.486-1.472 6.019-4.495 10.588-9.08l62.864-62.27h3.089l-.013 60.268c.026 3.15.052 5.053.085 5.713.125 2.507.838 4.326 2.133 5.465 1.297 1.145 3.397 1.806 6.296 1.99l-.588 1.89h-40.24l.668-1.89c3.965-.296 6.249-.55 6.832-.766 1.256-.512 2.375-1.586 3.343-3.208.976-1.629 1.473-4.449 1.506-8.477l.085-9.44-.004.002zm-.222-4.443l.628-24.04-24.551 24.04h23.923M373.815 12.811c.668.616.856 2.644.856 2.644l-4.418 20.23h-2.388c-.706-6.82-.955-11.728-4.665-14.727-3.704-2.998-5.621-4.679-12.045-4.679-6.616 0-14.977 2.016-21.41 5.688-6.425 3.671-14.4 9.331-18.68 16.98-4.272 7.648-6.858 15.688-6.44 24.114.367 7.23 2.802 12.757 7.304 16.568 4.5 3.815 9.65 5.72 15.446 5.72 2.448 0 5.393-.525 8.837-1.578l6.065-19.45c1.027-3.266 1.512-5.399 1.466-6.413-.071-1.342-.844-2.474-2.33-3.397-1.491-.922-3.991-1.386-7.511-1.386l.575-2.107h39.938l-.511 2.107c-2.37.118-4.215.478-5.536 1.1-1.315.613-2.337 1.523-3.05 2.721-.426.707-1.04 2.546-1.852 5.497l-6.845 21.912c-9.675 3.175-19.944 4.764-30.808 4.764-8.385 0-15.563-1.178-21.561-3.527-5.993-2.355-11.057-6.079-15.17-11.182-4.121-5.105-6.34-10.914-6.667-17.43-.693-13.897 6.544-25.356 21.71-34.369 11.887-6.989 25.289-10.043 40.668-10.797 1.459 0 5.223-.353 10.47-.353 4.457 0 9.616.143 17.088.674 0 0 .642-.078 1.459.681" fill="#dc2b27"/>
  <path d="M497.18 31.406v36.755c0 10.144 8.05 18.378 17.968 18.378h39.385c9.918 0 17.967-8.23 17.967-18.378l-.005-9.39H554.67v3.534c0 4.562-3.265 7.9-7.721 7.9h-24.492c-4.451 0-7.715-3.337-7.715-7.9V38.902c0-4.562 3.263-7.899 7.715-7.899h22.892c4.456 0 7.722 3.337 7.722 7.9v1.903h17.825l.006-9.398c0-10.144-8.05-18.378-17.967-18.378H515.14c-9.918 0-17.967 8.232-17.967 18.378M600.989 70.272V29.43h31.545c5.51 0 9.976 4.573 9.976 10.22v20.42c0 5.634-4.47 10.211-9.976 10.211h-31.545v-.008zm-17.565 16.334h57.353c10.638 0 19.567-9.139 19.567-20.01v-33.49c0-10.872-8.93-20.01-19.567-20.01h-57.353v73.51" fill="#231f20"/>
  <path d="M746.31 21.69c-7.153 0-14.441 3.775-14.441 10.99v6.674l.072.006v9.65h55.887V38.674h-40.273c-5.19-1.322.498-5.55 3.136-5.857h24.182c7.153 0 12.95-5.858 12.95-13.067v-6.682c0-7.212-5.797-13.067-12.95-13.067H746.41c-7.153 0-14.55 4.22-14.55 11.442v6.675h14.072v-1.355c0-3.239 2.355-5.616 5.569-5.616h18.093c3.095 0 5.393 2.206 5.555 5.27-.163 3.055-2.461 5.26-5.555 5.26l-23.295.007M714.564 24.537c5.41-.406 9.38-2.094 9.38-8.056v-6.68c0-7.213-5.803-9.8-12.95-9.8h-25.28c-7.144 0-14.55 4.22-14.55 11.441v6.675h14.082v-1.355c0-3.239 2.35-5.616 5.563-5.616h14.9c3.097 0 5.395.576 5.559 3.633-.163 3.062-2.462 5.26-5.558 5.26l-12.112.008v9.072h13.712c3.096 0 5.39 2.205 5.554 5.268-.163 3.056-2.458 3.625-5.554 3.625h-16.501c-3.213 0-5.563-2.37-5.563-5.609v-1.36h-14.08v6.681c0 7.212 7.403 11.434 14.55 11.434h26.88c8.159-.144 12.95-4.22 12.95-11.434V32.68c0-6.539-4.763-7.932-10.973-8.134" fill="#dc2b27"/>
</svg>
