<?xml version="1.0" encoding="UTF-8" standalone="no"?>
<!-- Created with Inkscape (http://www.inkscape.org/) -->
<svg
   xmlns:svg="http://www.w3.org/2000/svg"
   xmlns="http://www.w3.org/2000/svg"
   version="1.0"
   width="832.39368"
   height="112.3937"
   id="svg2">
  <defs
     id="defs4" />
  <g
     transform="translate(-192.3956,-684.4704)"
     id="layer1">
    <g
       transform="translate(7.088128,3.5504)"
       id="g4419">
      <g
         id="g4387">
        <path
           d="M 260.99228,714.49756 L 304.8824,714.49756 L 285.66661,734.53334 L 260.99228,734.53334 L 260.99228,714.49756 z "
           style="fill:#081fb8;fill-opacity:1"
           id="path1922" />
        <path
           d="M 260.94946,759.73807 L 304.83958,759.73807 L 285.62379,739.70229 L 260.94946,739.70229 L 260.94946,759.73807 z "
           style="fill:#cd1c33;fill-opacity:1"
           id="path3805" />
        <path
           d="M 260.03474,686.53686 L 260.03474,711.77767 C 255.55029,709.00125 250.55973,707.6306 245.06314,707.6306 C 239.81958,707.6306 234.94858,708.94501 230.46412,711.5949 C 225.97264,714.22371 222.44416,717.82254 219.86456,722.38426 C 217.28495,726.91792 215.99159,731.81001 215.99159,737.00442 C 215.99159,742.25499 217.28495,747.11193 219.86456,751.59639 C 222.44416,756.06678 225.98669,759.61635 230.49927,762.23812 C 235.00481,764.85287 239.85472,766.1743 245.06314,766.1743 C 250.51053,766.1743 255.50811,764.84584 260.03474,762.21001 L 260.03474,787.56329 C 255.17072,789.03233 250.18021,789.76331 245.06314,789.76331 C 235.67253,789.76331 226.90753,787.39458 218.78909,782.65713 C 210.67775,777.91963 204.23929,771.47415 199.50179,763.3628 C 194.76434,755.25139 192.39562,746.45827 192.39562,737.00442 C 192.39562,730.00362 193.76625,723.25588 196.51455,716.7752 C 199.26285,710.3016 203.07954,704.63629 207.97162,699.78637 C 212.84972,694.9364 218.45878,691.17596 224.76367,688.49794 C 231.08269,685.81292 237.84449,684.47039 245.06314,684.47039 C 250.05369,684.47039 255.04418,685.17325 260.03474,686.53686"
           style="fill:#081fb8;fill-opacity:1;fill-rule:nonzero;stroke:none"
           id="path4382" />
      </g>
      <g
         id="g4407">
        <path
           d="M 1009.6183,714.21183 C 1010.1157,714.73762 1010.3288,715.36994 1010.4709,716.74119 C 1010.542,717.39488 1010.613,718.68799 1010.613,719.66135 C 1010.613,722.82308 1010.3999,724.27961 1009.6893,725.03983 C 1008.9078,725.84272 1007.4868,726.09135 1003.579,726.09135 C 1000.1686,726.09135 997.96609,725.96351 996.97137,725.75746 C 995.90562,725.5372 995.1241,724.72719 994.911,723.68987 C 994.69781,722.85151 994.62678,721.64367 994.62678,719.58319 C 994.62678,716.1302 994.911,714.77314 995.83459,714.0484 C 996.47406,713.5511 997.18457,713.38057 998.88977,713.26689 C 999.67131,713.23136 1001.8738,713.18162 1002.9396,713.18162 C 1007.3447,713.18162 1008.7657,713.39478 1009.6183,714.21183 M 996.11882,719.48372 C 996.11882,722.45361 996.18985,723.41276 996.68716,723.93857 C 997.11352,724.37908 997.68197,724.5283 999.03183,724.61356 L 1002.7265,724.70588 C 1004.7869,724.70588 1006.9183,724.60646 1007.5579,724.44304 C 1008.1973,724.28672 1008.6947,723.76093 1008.9078,723.10019 C 1009.0499,722.39677 1009.121,721.09656 1009.121,719.51215 C 1009.121,716.74119 1008.9789,715.73229 1008.4815,715.23493 C 1007.842,714.60973 1007.0605,714.52446 1002.016,714.52446 C 996.18985,714.52446 996.11882,714.65235 996.11882,719.48372 M 997.61084,715.88862 L 1003.508,715.88862 C 1006.279,715.88862 1006.279,715.88862 1006.7763,716.17994 C 1007.4157,716.54225 1007.6289,717.04671 1007.6289,718.32562 C 1007.6289,719.89583 1007.3447,720.28662 1006.2079,720.44294 C 1006.9895,720.57077 1007.2737,720.71288 1007.4157,721.13919 C 1007.4868,721.40919 1007.5579,721.57973 1007.5579,722.60282 L 1007.5579,723.39856 L 1005,723.39856 L 1005,722.90125 C 1005,721.53709 1005,721.53709 1003.508,721.50866 L 1000.2397,721.50866 L 1000.2397,723.39856 L 997.61084,723.39856 L 997.61084,715.88862 z M 1003.508,719.51215 C 1005.0711,719.48372 1005.0711,719.48372 1005.0711,718.68799 C 1005.0711,717.91352 1005.0711,717.91352 1003.508,717.89219 L 1000.2397,717.89219 L 1000.2397,719.51215 L 1003.508,719.51215 z "
           style="fill:#081fb8;fill-opacity:1;fill-rule:nonzero;stroke:none"
           id="path4040" />
        <path
           d="M 371.86952,741.47533 C 371.58795,749.37991 370.60254,752.78664 367.50547,755.88372 C 363.00065,760.45894 357.22889,761.66959 338.63244,761.66959 C 324.15372,761.66959 318.06517,760.66306 313.37732,757.26332 C 308.78103,754.07473 307.28177,748.97164 307.28177,736.48487 C 307.28177,725.10315 308.68249,720.10564 312.87056,716.71997 C 317.36132,713.02465 323.5554,711.93365 339.5264,711.93365 C 355.18762,711.93365 362.08562,713.12319 366.59044,716.81853 C 370.39137,719.81001 371.65835,723.51238 371.93991,732.38829 L 353.99808,732.38829 C 353.39976,727.01068 349.9156,725.2017 339.5264,725.2017 C 327.2437,725.2017 324.95611,727.09516 324.95611,736.9776 C 324.95611,743.17872 325.95561,745.57899 329.15122,746.88116 C 331.24177,747.78209 335.03565,748.27483 339.72344,748.27483 C 350.10565,748.27483 353.10418,746.88116 353.89954,741.47533 L 371.86952,741.47533 z "
           style="fill:#081fb8;fill-opacity:1;fill-rule:nonzero;stroke:none"
           id="path4340" />
        <path
           d="M 436.34462,716.31881 C 441.13101,719.81001 442.46839,724.09663 442.46839,735.98509 C 442.46839,748.97164 441.2718,753.37792 436.97814,756.96063 C 432.47332,760.66306 426.56074,761.66959 409.10461,761.66959 C 391.4373,761.66959 385.52473,760.66306 381.09029,756.96063 C 376.6559,753.37792 375.52966,748.97164 375.52966,735.28124 C 375.52966,724.20926 376.93742,719.7185 381.6534,716.31881 C 386.01745,713.12319 392.91545,712.01811 409.03421,712.01811 C 425.15298,712.01811 431.98064,713.12319 436.34462,716.31881 M 393.19701,737.18876 C 393.19701,743.48139 394.04164,745.57899 397.20911,746.88116 C 399.3911,747.87359 403.4032,748.37332 409.10461,748.37332 C 422.47826,748.37332 424.80108,746.66998 424.80108,736.67491 C 424.80108,730.29077 423.74523,727.9961 420.50742,726.708 C 418.25499,725.80706 414.10212,725.30026 409.10461,725.30026 C 395.59017,725.30026 393.19701,727.09516 393.19701,737.18876"
           style="fill:#081fb8;fill-opacity:1;fill-rule:nonzero;stroke:none"
           id="path4342" />
        <path
           d="M 462.66963,713.22877 L 462.66963,720.30978 L 463.58471,720.30978 C 466.18905,714.62949 472.17197,712.01811 482.65978,712.01811 C 494.06259,712.01811 500.32706,714.91809 504.12799,721.91463 C 507.15466,714.81955 512.92648,712.01811 524.47008,712.01811 C 534.25392,712.01811 540.09611,713.82709 544.17859,718.11365 C 548.26107,722.30173 549.17616,726.20125 549.17616,738.37127 L 549.17616,760.45894 L 531.5088,760.45894 L 531.5088,738.37127 C 531.36806,730.49485 531.1569,729.60094 529.46759,727.89755 C 527.70787,726.1027 524.6812,725.30026 519.5429,725.30026 C 514.19345,725.30026 510.8852,726.20125 509.05515,728.29877 C 507.01389,730.49485 506.45081,733.28924 506.45081,740.97561 L 506.45081,760.45894 L 488.78346,760.45894 L 488.78346,738.37127 C 488.78346,730.99463 488.57235,729.69246 486.88303,727.89755 C 485.2641,726.1027 482.16703,725.30026 477.09913,725.30026 C 471.74968,725.30026 468.30066,726.20125 466.32983,728.19318 C 464.28856,730.19222 463.72549,733.19069 463.72549,740.97561 L 463.72549,760.45894 L 446.05814,760.45894 L 446.05814,713.22877 L 462.66963,713.22877 z "
           style="fill:#081fb8;fill-opacity:1;fill-rule:nonzero;stroke:none"
           id="path4344" />
        <path
           d="M 569.94052,713.22877 L 569.94052,720.30978 L 570.78516,720.30978 C 573.3895,714.62949 579.37247,712.01811 589.86021,712.01811 C 601.26303,712.01811 607.52752,714.91809 611.32849,721.91463 C 614.35511,714.81955 620.12691,712.01811 631.74091,712.01811 C 641.52481,712.01811 647.29661,713.82709 651.3791,718.11365 C 655.46158,722.30173 656.3766,726.20125 656.3766,738.37127 L 656.3766,760.45894 L 638.70929,760.45894 L 638.70929,738.37127 C 638.63891,730.49485 638.42773,729.60094 636.73842,727.89755 C 634.90832,726.1027 631.95209,725.30026 626.74334,725.30026 C 621.46428,725.30026 618.15609,726.20125 616.2556,728.29877 C 614.21434,730.49485 613.65126,733.28924 613.65126,740.97561 L 613.65126,760.45894 L 595.98397,760.45894 L 595.98397,738.37127 C 595.98397,730.99463 595.77279,729.69246 594.08348,727.89755 C 592.46455,726.1027 589.36747,725.30026 584.29958,725.30026 C 579.02051,725.30026 575.50115,726.20125 573.53027,728.19318 C 571.48901,730.19222 570.92593,733.19069 570.92593,740.97561 L 570.92593,760.45894 L 553.25864,760.45894 L 553.25864,713.22877 L 569.94052,713.22877 z "
           style="fill:#081fb8;fill-opacity:1;fill-rule:nonzero;stroke:none"
           id="path4346" />
        <path
           d="M 720.99249,716.31881 C 725.77888,719.81001 727.04586,724.09663 727.04586,735.98509 C 727.04586,748.97164 725.84927,753.37792 721.55562,756.96063 C 717.0508,760.66306 711.2086,761.66959 693.68208,761.66959 C 676.01477,761.66959 670.17258,760.66306 665.66776,756.96063 C 661.30371,753.37792 660.17753,748.97164 660.17753,735.28124 C 660.17753,724.20926 661.58527,719.7185 666.30127,716.31881 C 670.66532,713.12319 677.56331,712.01811 693.61169,712.01811 C 709.80084,712.01811 716.55805,713.12319 720.99249,716.31881 M 677.84482,737.18876 C 677.84482,743.48139 678.61911,745.57899 681.85692,746.88116 C 684.03897,747.87359 688.05106,748.37332 693.68208,748.37332 C 707.12611,748.37332 709.37855,746.66998 709.37855,736.67491 C 709.37855,730.29077 708.39308,727.9961 705.0849,726.708 C 702.90284,725.80706 698.67959,725.30026 693.68208,725.30026 C 680.23804,725.30026 677.84482,727.09516 677.84482,737.18876"
           style="fill:#081fb8;fill-opacity:1;fill-rule:nonzero;stroke:none"
           id="path4348" />
        <path
           d="M 797.50397,760.45894 L 780.89245,760.45894 L 780.89245,754.26479 L 779.97737,754.26479 C 776.59879,759.95916 771.88279,761.66959 759.07227,761.66959 C 746.33209,761.66959 740.20833,760.36038 736.12584,756.67202 C 732.25453,753.07525 731.05795,748.27483 731.05795,736.48487 C 731.05795,724.49785 732.95838,718.81756 737.95595,715.53043 C 742.24959,712.72196 747.10632,711.93365 759.28339,711.93365 C 771.67162,711.93365 775.7541,713.52441 779.13274,719.52141 L 779.83658,719.52141 L 779.83658,693.85104 L 797.50397,693.85104 L 797.50397,760.45894 z M 748.72526,736.28776 C 748.72526,746.66998 750.69613,748.27483 763.99938,748.27483 C 770.47503,748.27483 775.26142,747.47942 777.30264,746.07869 C 779.27352,744.76949 779.97737,742.27074 779.97737,736.77346 C 779.97737,727.01068 777.65459,725.2017 765.05519,725.2017 C 751.11842,725.2017 748.72526,726.80655 748.72526,736.28776"
           style="fill:#081fb8;fill-opacity:1;fill-rule:nonzero;stroke:none"
           id="path4350" />
        <path
           d="M 861.48625,716.31881 C 866.27269,719.81001 867.61007,724.09663 867.61007,735.98509 C 867.61007,748.97164 866.41355,753.37792 862.11994,756.96063 C 857.61498,760.66306 851.70239,761.66959 834.24634,761.66959 C 816.57899,761.66959 810.73679,760.66306 806.23197,756.96063 C 801.7976,753.37792 800.7417,748.97164 800.7417,735.28124 C 800.7417,724.20926 802.14946,719.7185 806.79511,716.31881 C 811.22955,713.12319 818.12756,712.01811 834.17588,712.01811 C 850.36513,712.01811 857.12227,713.12319 861.48625,716.31881 M 818.40914,737.18876 C 818.40914,743.48139 819.18338,745.57899 822.42119,746.88116 C 824.53282,747.87359 828.54487,748.37332 834.24634,748.37332 C 847.62001,748.37332 849.9428,746.66998 849.9428,736.67491 C 849.9428,730.29077 848.95739,727.9961 845.64907,726.708 C 843.46709,725.80706 839.24383,725.30026 834.24634,725.30026 C 820.80225,725.30026 818.40914,727.09516 818.40914,737.18876"
           style="fill:#081fb8;fill-opacity:1;fill-rule:nonzero;stroke:none"
           id="path4352" />
        <path
           d="M 887.88173,713.22877 L 887.88173,720.30978 L 888.79677,720.30978 C 892.0346,714.31273 897.03215,712.01811 906.95687,712.01811 C 921.1752,712.01811 925.96152,716.81853 925.96152,730.99463 L 925.96152,734.19024 L 909.35003,734.19024 C 909.35003,727.1937 907.30871,725.30026 900.05875,725.30026 C 896.04662,725.30026 892.73841,726.50387 891.04919,728.7 C 889.35985,730.99463 888.86714,733.59192 888.86714,740.8841 L 888.86714,760.45894 L 871.19987,760.45894 L 871.19987,713.22877 L 887.88173,713.22877 z "
           style="fill:#081fb8;fill-opacity:1;fill-rule:nonzero;stroke:none"
           id="path4354" />
        <path
           d="M 992.40733,745.38188 C 991.07013,758.46693 984.59432,761.66959 959.32524,761.66959 C 945.6701,761.66959 939.19432,760.45894 934.90071,757.26332 C 930.25513,753.77211 928.91775,749.06315 928.91775,736.9776 C 928.91775,724.30076 930.25513,719.60587 935.25267,716.12171 C 939.89825,712.92609 945.74047,711.93365 961.15532,711.93365 C 977.06288,711.93365 982.69387,712.92609 986.98753,716.41031 C 991.14043,719.90856 992.75933,725.2017 992.75933,735.88659 C 992.75933,736.48487 992.75933,738.67395 992.68893,740.67294 L 946.51465,740.67294 C 946.51465,745.4734 947.07785,747.06411 948.76707,748.37332 C 950.66753,749.77403 954.32769,750.37939 960.73299,750.37939 C 971.99497,750.37939 974.10653,749.577 974.81046,745.38188 L 992.40733,745.38188 z M 975.02169,730.99463 C 974.88083,727.29929 974.66972,726.40532 973.61394,725.30026 C 971.99497,723.59685 968.40517,722.90709 961.4368,722.90709 C 949.54138,722.90709 946.72588,724.40634 946.51465,730.99463 L 975.02169,730.99463 z "
           style="fill:#081fb8;fill-opacity:1;fill-rule:nonzero;stroke:none"
           id="path4356" />
      </g>
    </g>
  </g>
</svg>
