<?xml version="1.0" encoding="UTF-8" standalone="no"?>
<svg
   xmlns:dc="http://purl.org/dc/elements/1.1/"
   xmlns:cc="http://creativecommons.org/ns#"
   xmlns:rdf="http://www.w3.org/1999/02/22-rdf-syntax-ns#"
   xmlns:svg="http://www.w3.org/2000/svg"
   xmlns="http://www.w3.org/2000/svg"
   xmlns:sodipodi="http://sodipodi.sourceforge.net/DTD/sodipodi-0.dtd"
   xmlns:inkscape="http://www.inkscape.org/namespaces/inkscape"
   viewBox="0 0 230.92465 61.898364"
   version="1.1"
   id="svg16"
   sodipodi:docname="logo.svg"
   width="230.92465"
   height="61.898365"
   inkscape:version="0.92.4 (5da689c313, 2019-01-14)">
  <metadata
     id="metadata22">
    <rdf:RDF>
      <cc:Work
         rdf:about="">
        <dc:format>image/svg+xml</dc:format>
        <dc:type
           rdf:resource="http://purl.org/dc/dcmitype/StillImage" />
        <dc:title></dc:title>
      </cc:Work>
    </rdf:RDF>
  </metadata>
  <defs
     id="defs20">
    <filter
       inkscape:label="Sharpen"
       inkscape:menu="Image Effects"
       inkscape:menu-tooltip="Sharpen edges and boundaries within the object, force=0.15"
       style="color-interpolation-filters:sRGB"
       id="filter30">
      <feConvolveMatrix
         order="3 3"
         kernelMatrix="0 -0.15 0 -0.15 1.6 -0.15 0 -0.15 0"
         divisor="1"
         in="SourceGraphic"
         targetX="1"
         targetY="1"
         id="feConvolveMatrix28" />
    </filter>
    <filter
       inkscape:label="Sharpen"
       inkscape:menu="Image Effects"
       inkscape:menu-tooltip="Sharpen edges and boundaries within the object, force=0.15"
       style="color-interpolation-filters:sRGB"
       id="filter30-8">
      <feConvolveMatrix
         order="3 3"
         kernelMatrix="0 -0.15 0 -0.15 1.6 -0.15 0 -0.15 0"
         divisor="1"
         in="SourceGraphic"
         targetX="1"
         targetY="1"
         id="feConvolveMatrix28-3" />
    </filter>
  </defs>
  <sodipodi:namedview
     pagecolor="#ffffff"
     bordercolor="#666666"
     borderopacity="1"
     objecttolerance="10"
     gridtolerance="10"
     guidetolerance="10"
     inkscape:pageopacity="0"
     inkscape:pageshadow="2"
     inkscape:window-width="1366"
     inkscape:window-height="704"
     id="namedview18"
     showgrid="false"
     inkscape:zoom="1.4507495"
     inkscape:cx="148.5856"
     inkscape:cy="-28.070404"
     inkscape:window-x="0"
     inkscape:window-y="27"
     inkscape:window-maximized="1"
     inkscape:current-layer="text26-0" />
  <g
     id="g79"
     transform="matrix(0.68841389,0,0,1,37.844452,-22.954888)">
    <path
       id="path2"
       d="m 239.641,58.967 c 0.097,-0.8 -0.251,-1.644 0.235,-2.406 v 2.4 c -0.076,0.108 -0.154,0.11 -0.235,0.006 z"
       inkscape:connector-curvature="0"
       style="fill:#f1e87a" />
    <path
       id="path4"
       d="m 239.876,49.601 c -0.47,-0.766 -0.155,-1.605 -0.225,-2.409 0.079,-0.101 0.154,-0.098 0.225,0.009 z"
       inkscape:connector-curvature="0"
       style="fill:#f5ed99" />
    <path
       id="path6"
       d="m 239.876,47.201 a 3.384,3.384 0 0 1 -0.225,-0.009 c 0.081,-0.556 -0.257,-1.169 0.225,-1.671 z"
       inkscape:connector-curvature="0"
       style="fill:#f7f2ba" />
    <path
       id="path8"
       d="m 239.671,61.856 -0.016,-1.446 c 0.07,-0.116 0.144,-0.119 0.222,-0.009 v 1.44 c -0.062,0.103 -0.131,0.108 -0.206,0.015 z"
       inkscape:connector-curvature="0"
       style="fill:#f7f2b8" />
    <path
       id="path10"
       d="m 239.671,61.856 a 7.13,7.13 0 0 0 0.206,-0.015 v 1.44 a 4.68,4.68 0 0 1 -0.205,0.008 z"
       inkscape:connector-curvature="0"
       style="fill:#fbf9e1" />
    <path
       id="path12"
       d="m 239.876,60.401 a 4.118,4.118 0 0 0 -0.222,0.009 l -0.013,-1.443 c 0.078,-0.004 0.157,-0.006 0.235,-0.005 z"
       inkscape:connector-curvature="0"
       style="fill:#f5ee9c" />
    <g
       aria-label="GX 4000"
       style="font-style:normal;font-variant:normal;font-weight:bold;font-stretch:normal;font-size:85.33333588px;line-height:1.25;font-family:Yrsa;-inkscape-font-specification:'Yrsa Bold';letter-spacing:0px;word-spacing:0px;fill:#000000;fill-opacity:1;stroke:none;filter:url(#filter30)"
       id="text26">
      <path
         d="m 15.272008,79.298049 -6.0586668,-4.608 q -2.0480001,2.218666 -5.3760002,3.669333 -3.24266676,1.450667 -7.7653336,1.450667 -9.6426674,0 -14.8480004,-6.570667 -5.12,-6.570667 -5.12,-18.176 0,-13.141334 6.4,-19.370668 6.485334,-6.314667 18.17600058,-6.314667 4.26666682,0 8.36266692,0.853334 4.1813335,0.768 7.3386665,2.048 0.256,3.072 0,6.314667 -0.170666,3.242666 -0.597333,6.485333 H 8.6160078 L 6.9093411,37.996714 q -0.256,-0.938666 -0.5973334,-1.450666 -0.3413333,-0.512 -0.9386667,-0.938667 -0.8533333,-0.597333 -2.1333333,-1.024 -1.1946667,-0.512 -2.90133347,-0.512 -5.29066683,0 -7.93600023,5.034667 -2.645333,5.034667 -2.645333,16.213334 0,8.874666 2.0479996,13.653333 2.1333334,4.778667 7.93600028,4.778667 1.96266672,0 3.58400012,-0.512 1.7066667,-0.512 2.9866667,-1.365333 V 59.159382 L 0.42400757,58.476715 V 53.698048 H 20.648008 v 4.778667 l -3.157333,0.512 v 19.029334 z"
         style="fill:#000000"
         id="path81" />
      <path
         d="m 41.305341,74.348715 v 4.437334 H 23.12934 v -4.437334 l 4.608,-0.938666 q 0.597334,-0.08533 0.938667,-0.341334 0.426667,-0.256 0.768,-0.853333 L 41.049341,55.746048 29.102674,37.228714 q -0.341334,-0.512 -0.768,-0.768 -0.341334,-0.341333 -0.938667,-0.512 L 23.89734,35.010048 v -4.693334 h 22.784001 v 4.693334 l -4.778667,1.109333 7.338667,12.117334 8.021333,-12.117334 -5.290666,-1.109333 v -4.693334 h 17.152 v 4.693334 l -4.181333,0.938666 q -0.597334,0.08533 -1.024,0.426667 -0.426667,0.256 -0.768,0.768 L 52.313341,52.332715 65.284008,72.215382 q 0.341333,0.512 0.768,0.853333 0.426667,0.256 1.024,0.341334 l 3.498667,0.938666 v 4.437334 H 47.534674 v -4.437334 l 4.778667,-1.024 -8.106667,-13.312 -8.704,13.312 z"
         style="fill:#000000"
         id="path83" />
      <path
         d="m 124.84268,71.276715 h -6.57067 v 7.509334 h -10.24 V 71.276715 H 89.429345 l -2.218666,-4.778666 q 4.522666,-7.082667 8.533333,-14.677334 4.096,-7.68 7.850668,-15.957334 h 9.728 l 1.536,1.962667 q -5.46133,10.666667 -9.64267,17.493334 -4.096,6.741333 -9.130665,10.666667 l 12.032005,-0.597334 1.10933,-9.472 9.04533,-0.512 v 9.472 l 6.57067,-0.341333 z"
         style="fill:#000000"
         id="path85" />
      <path
         d="m 147.36135,79.724716 q -4.864,0 -8.27734,-1.621334 -3.41333,-1.706667 -5.46133,-4.608 -2.048,-2.901333 -2.98667,-6.912 -0.93866,-4.010667 -0.93866,-8.789334 0,-11.776 5.29066,-17.237334 5.376,-5.546666 13.568,-5.546666 4.864,0 8.192,1.621333 3.41334,1.621333 5.46134,4.522667 2.048,2.816 2.98666,6.826667 0.93867,4.010666 0.93867,8.789333 0,11.861334 -5.29067,17.408001 -5.29066,5.546667 -13.48266,5.546667 z m 0.42666,-39.936002 q -2.90133,0 -4.352,3.584001 -1.36533,3.584 -1.36533,12.458667 0,10.325333 1.36533,14.762667 1.45067,4.352 4.608,4.352 2.90134,0 4.352,-3.669334 1.45067,-3.669333 1.45067,-12.544 0,-10.325334 -1.45067,-14.592 -1.36533,-4.352001 -4.608,-4.352001 z"
         style="fill:#000000"
         id="path87" />
      <path
         d="m 190.69467,79.724716 q -4.864,0 -8.27733,-1.621334 -3.41333,-1.706667 -5.46133,-4.608 -2.048,-2.901333 -2.98667,-6.912 -0.93867,-4.010667 -0.93867,-8.789334 0,-11.776 5.29067,-17.237334 5.376,-5.546666 13.568,-5.546666 4.864,0 8.192,1.621333 3.41333,1.621333 5.46133,4.522667 2.048,2.816 2.98667,6.826667 0.93867,4.010666 0.93867,8.789333 0,11.861334 -5.29067,17.408001 -5.29067,5.546667 -13.48267,5.546667 z m 0.42667,-39.936002 q -2.90133,0 -4.352,3.584001 -1.36533,3.584 -1.36533,12.458667 0,10.325333 1.36533,14.762667 1.45067,4.352 4.608,4.352 2.90133,0 4.352,-3.669334 1.45067,-3.669333 1.45067,-12.544 0,-10.325334 -1.45067,-14.592 -1.36533,-4.352001 -4.608,-4.352001 z"
         style="fill:#000000"
         id="path89" />
      <path
         d="m 234.02802,79.724716 q -4.864,0 -8.27734,-1.621334 -3.41333,-1.706667 -5.46133,-4.608 -2.048,-2.901333 -2.98667,-6.912 -0.93866,-4.010667 -0.93866,-8.789334 0,-11.776 5.29066,-17.237334 5.376,-5.546666 13.568,-5.546666 4.864,0 8.192,1.621333 3.41334,1.621333 5.46134,4.522667 2.048,2.816 2.98666,6.826667 0.93867,4.010666 0.93867,8.789333 0,11.861334 -5.29067,17.408001 -5.29066,5.546667 -13.48266,5.546667 z m 0.42666,-39.936002 q -2.90133,0 -4.352,3.584001 -1.36533,3.584 -1.36533,12.458667 0,10.325333 1.36533,14.762667 1.45067,4.352 4.608,4.352 2.90134,0 4.352,-3.669334 1.45067,-3.669333 1.45067,-12.544 0,-10.325334 -1.45067,-14.592 -1.36533,-4.352001 -4.608,-4.352001 z"
         style="fill:#000000"
         id="path91" />
    </g>
    <g
       aria-label="GX 4000"
       style="font-style:normal;font-variant:normal;font-weight:bold;font-stretch:normal;font-size:85.33333588px;line-height:1.25;font-family:Yrsa;-inkscape-font-specification:'Yrsa Bold';letter-spacing:0px;word-spacing:0px;fill:#ffff00;fill-opacity:1;stroke:none;filter:url(#filter30-8)"
       id="text26-0">
      <path
         d="m 11.864337,77.91809 -6.0586668,-4.608 q -2.0480001,2.218666 -5.37600017,3.669333 -3.24266673,1.450667 -7.76533353,1.450667 -9.6426665,0 -14.8480005,-6.570667 -5.12,-6.570667 -5.12,-18.176001 0,-13.141333 6.4,-19.370667 6.485334,-6.314667 18.1760006,-6.314667 4.2666668,0 8.3626669,0.853334 4.1813335,0.768 7.3386665,2.048 0.256,3.072 0,6.314667 -0.170666,3.242666 -0.597333,6.485333 H 5.2083368 L 3.5016701,36.616755 q -0.256,-0.938666 -0.5973333,-1.450666 -0.3413334,-0.512 -0.9386667,-0.938667 -0.8533334,-0.597334 -2.13333342,-1.024 -1.19466668,-0.512 -2.90133338,-0.512 -5.2906669,0 -7.9360003,5.034667 -2.645333,5.034666 -2.645333,16.213333 0,8.874667 2.048,13.653334 2.1333331,4.778667 7.9359999,4.778667 1.9626667,0 3.58400011,-0.512 1.70666669,-0.512 2.98666679,-1.365333 V 57.779423 L -2.9836634,57.096756 V 52.318089 H 17.240337 v 4.778667 l -3.157333,0.512 V 76.63809 Z"
         style="fill:#ffff00"
         id="path94" />
      <path
         d="M 37.89767,72.968756 V 77.40609 H 19.721669 v -4.437334 l 4.608,-0.938666 q 0.597334,-0.08533 0.938667,-0.341334 0.426667,-0.256 0.768,-0.853333 L 37.64167,54.366089 25.695003,35.848755 q -0.341334,-0.512 -0.768,-0.768 -0.341334,-0.341333 -0.938667,-0.512 L 20.489669,33.630088 V 28.936755 H 43.27367 v 4.693333 l -4.778667,1.109334 7.338667,12.117334 8.021333,-12.117334 -5.290666,-1.109334 v -4.693333 h 17.152 v 4.693333 l -4.181333,0.938667 q -0.597334,0.08533 -1.024,0.426667 -0.426667,0.256 -0.768,0.768 L 48.90567,50.952756 61.876337,70.835423 q 0.341333,0.512 0.768,0.853333 0.426667,0.256 1.024,0.341334 l 3.498667,0.938666 V 77.40609 H 44.127003 v -4.437334 l 4.778667,-1.024 -8.106667,-13.312 -8.704,13.312 z"
         style="fill:#ffff00"
         id="path96" />
      <path
         d="m 121.43501,68.985145 h -6.57067 V 77.3048 h -10.24 V 68.985145 H 86.021674 l -2.218666,-5.294326 q 4.522666,-7.846945 8.533333,-16.261141 4.096,-8.508739 7.850669,-17.679266 h 9.728 l 1.536,2.174455 q -5.46134,11.817691 -9.64267,19.381012 -4.095999,7.468782 -9.130666,11.817691 l 12.031996,-0.66179 1.10934,-10.494109 9.04533,-0.567249 v 10.494109 l 6.57067,-0.378166 z"
         style="fill:#ffff00;stroke-width:1.05257237"
         id="path98"
         inkscape:connector-curvature="0" />
      <path
         d="m 143.95367,78.344756 q -4.864,0 -8.27733,-1.796289 -3.41333,-1.89083 -5.46133,-5.105242 -2.048,-3.214411 -2.98667,-7.657863 -0.93867,-4.443452 -0.93867,-9.737778 0,-13.04673 5.29067,-19.097389 5.376,-6.145199 13.568,-6.145199 4.864,0 8.192,1.79629 3.41334,1.796288 5.46134,5.010701 2.048,3.11987 2.98666,7.563322 0.93867,4.443451 0.93867,9.737777 0,13.141272 -5.29067,19.286472 -5.29066,6.145198 -13.48267,6.145198 z m 0.42667,-44.245434 q -2.90133,0 -4.352,3.970744 -1.36533,3.970745 -1.36533,13.803062 0,11.439526 1.36533,16.355686 1.45067,4.821617 4.608,4.821617 2.90133,0 4.352,-4.065286 1.45067,-4.065285 1.45067,-13.897604 0,-11.439525 -1.45067,-16.166602 -1.36533,-4.821617 -4.608,-4.821617 z"
         style="fill:#ffff00;stroke-width:1.05257237"
         id="path100"
         inkscape:connector-curvature="0" />
      <path
         d="m 187.287,78.344756 q -4.864,0 -8.27733,-1.796289 -3.41333,-1.89083 -5.46133,-5.105242 -2.048,-3.214411 -2.98667,-7.657863 -0.93867,-4.443452 -0.93867,-9.737778 0,-13.04673 5.29067,-19.097389 5.376,-6.145199 13.568,-6.145199 4.864,0 8.192,1.79629 3.41333,1.796288 5.46133,5.010701 2.048,3.11987 2.98667,7.563322 0.93867,4.443451 0.93867,9.737777 0,13.141272 -5.29067,19.286472 -5.29067,6.145198 -13.48267,6.145198 z m 0.42667,-44.245434 q -2.90133,0 -4.352,3.970744 -1.36533,3.970745 -1.36533,13.803062 0,11.439526 1.36533,16.355686 1.45067,4.821617 4.608,4.821617 2.90133,0 4.352,-4.065286 1.45067,-4.065285 1.45067,-13.897604 0,-11.439525 -1.45067,-16.166602 -1.36533,-4.821617 -4.608,-4.821617 z"
         style="fill:#ffff00;stroke-width:1.05257237"
         id="path102"
         inkscape:connector-curvature="0" />
      <path
         d="m 230.62035,78.344756 q -4.864,0 -8.27734,-1.796289 -3.41333,-1.89083 -5.46133,-5.105242 -2.048,-3.214411 -2.98667,-7.657863 -0.93866,-4.443452 -0.93866,-9.737778 0,-13.04673 5.29066,-19.097389 5.376,-6.145199 13.568,-6.145199 4.864,0 8.192,1.79629 3.41334,1.796288 5.46134,5.010701 2.048,3.11987 2.98666,7.563322 0.93867,4.443451 0.93867,9.737777 0,13.141272 -5.29067,19.286472 -5.29066,6.145198 -13.48266,6.145198 z m 0.42666,-44.245434 q -2.90133,0 -4.352,3.970744 -1.36533,3.970745 -1.36533,13.803062 0,11.439526 1.36533,16.355686 1.45067,4.821617 4.608,4.821617 2.90134,0 4.352,-4.065286 1.45067,-4.065285 1.45067,-13.897604 0,-11.439525 -1.45067,-16.166602 -1.36533,-4.821617 -4.608,-4.821617 z"
         style="fill:#ffff00;stroke-width:1.05257237"
         id="path104"
         inkscape:connector-curvature="0" />
    </g>
  </g>
</svg>
