<?xml version="1.0" encoding="utf-8"?>
<!-- Generator: Adobe Illustrator 17.0.0, SVG Export Plug-In . SVG Version: 6.00 Build 0)  -->
<!DOCTYPE svg PUBLIC "-//W3C//DTD SVG 1.1//EN" "http://www.w3.org/Graphics/SVG/1.1/DTD/svg11.dtd">
<svg version="1.1" id="Ebene_1" xmlns="http://www.w3.org/2000/svg" xmlns:xlink="http://www.w3.org/1999/xlink" x="0px" y="0px"
	 width="1142px" height="628.266px" viewBox="-218.035 -169.337 1142 628.266"
	 enable-background="new -218.035 -169.337 1142 628.266" xml:space="preserve">
<g>
	<g>
		<path fill="#CF8A61" d="M564.898,182.695c0.103-1.35,0-2.745,0-3.875c0.015-25.821,0.018-51.642-0.007-77.463
			c-0.001-1.341-0.074-2.729-0.417-4.015c-7.45-27.979-20.942-52.36-43.296-71.218c-18.353-15.481-39.435-24.117-63.727-24.113
			C393.43,2.022,329.409,2.015,265.387,2.015c-86.168,0-172.335-0.001-258.502,0.01c-1.591,0-3.182-0.08-4.898,0
			c0,19.744,0,39.258,0,58.69c1.204,0.469,2.251,0.942,3.338,1.29c7.92,2.53,15.849,5.035,23.776,7.545
			c79.821,25.273,159.644,50.542,239.464,75.823c37.698,11.939,75.383,23.919,113.091,35.826c2.366,0.747,4.884,1.441,7.333,1.444
			c57.348,0.081,114.696,0.064,172.045,0.052C562.162,182.695,563.549,182.799,564.898,182.695z M342.657,178.973
			c-51.406-16.294-102.396-32.456-154.027-48.82c0,76.025,0,151.292,0,226.685c-22.218,11.208-44.116,22.253-65.864,33.224
			c0,22.504,0,44.586,0,66.882c89.945,0,179.608,0,269.52,0c0-43.316,0-86.366,0-129.985c-16.6,0-32.95,0-49.629,0
			C342.657,277.395,342.657,228.4,342.657,178.973z M360.105,196.69c0,38.089,0,75.92,0,114.012c68.267,0,136.274,0,204.543,0
			c0-38.089,0-75.92,0-114.012C496.381,196.69,428.375,196.69,360.105,196.69z"/>
		<path d="M394.272,458.929H120.779v-70.091l65.865-33.224V127.439l157.999,50.079V324.97h49.629V458.929z M124.751,454.956h265.548
			V328.943h-49.628V180.427l-150.056-47.562V358.06l-65.864,33.224L124.751,454.956L124.751,454.956z M566.633,312.688H358.12
			V194.705h208.514v117.983H566.633z M362.091,308.716h200.57V198.677h-200.57V308.716z M563.55,184.728
			c-0.484,0-0.96-0.013-1.417-0.025c-0.383-0.01-0.75-0.021-1.092-0.021l-8.07,0.002c-19.899,0.004-39.796,0.008-59.696,0.008
			c-41.668,0-73.831-0.019-104.289-0.062c-2.703-0.004-5.407-0.741-7.929-1.537c-24.306-7.675-48.603-15.38-72.898-23.086
			c-13.398-4.249-26.795-8.498-40.194-12.741c-56.305-17.833-112.612-35.66-168.919-53.487L24.81,70.275
			c-6.698-2.121-13.396-4.241-20.09-6.378c-0.807-0.258-1.556-0.564-2.349-0.887c-0.357-0.146-0.723-0.295-1.106-0.444L0,62.073
			V0.128L1.894,0.04c1.19-0.055,2.322-0.038,3.433-0.019C5.845,0.03,6.358,0.038,6.871,0.038
			c72.686-0.009,145.355-0.009,218.027-0.009l151.407,0.002c27.049,0,54.099-0.001,81.146-0.006c23.806,0,45.671,8.27,65.007,24.581
			c21.438,18.085,35.81,41.71,43.935,72.226c0.428,1.604,0.483,3.261,0.484,4.524c0.023,25.822,0.021,51.644,0.007,77.466
			c0,0.342,0.011,0.711,0.021,1.097c0.023,0.894,0.051,1.906-0.026,2.927l-0.129,1.699l-1.699,0.131
			C564.551,184.714,564.046,184.728,563.55,184.728z M561.034,180.709c0.384,0,0.787,0.011,1.208,0.022
			c0.231,0.006,0.469,0.013,0.71,0.018c-0.005-0.243-0.012-0.484-0.018-0.724c-0.012-0.423-0.022-0.828-0.022-1.205
			c0.015-25.821,0.018-51.641-0.007-77.461c-0.001-1.023-0.041-2.346-0.35-3.506c-7.909-29.702-21.862-52.668-42.658-70.211
			c-18.6-15.69-39.604-23.646-62.429-23.646C430.404,4,403.354,4.002,376.305,4.002L224.898,4C152.226,4,79.556,4,6.884,4.01
			C6.335,4.01,5.8,4.001,5.26,3.992C4.835,3.985,4.407,3.979,3.972,3.976v55.396c0.682,0.278,1.329,0.54,1.958,0.741
			c6.688,2.136,13.384,4.256,20.079,6.375l74.236,23.504c56.307,17.827,112.614,35.654,168.919,53.487
			c13.399,4.244,26.797,8.493,40.194,12.742c24.295,7.705,48.59,15.41,72.895,23.084c2.219,0.701,4.57,1.35,6.738,1.353
			c30.456,0.043,62.617,0.062,104.283,0.062c19.9,0,39.797-0.004,59.695-0.008L561.034,180.709z"/>
	</g>
	<g>
		<path fill="#CF8A61" d="M564.898,182.695l-178.77-0.052L1.986,60.904c0,0,0-39.136,0-58.88c1.717-0.08,177.233-0.01,263.401-0.01
			c64.021,0,128.043,0.007,192.064-0.003c24.292-0.004,45.374,8.632,63.727,24.113c22.354,18.858,35.846,43.239,43.296,71.218
			c0.343,1.286,0.416,2.673,0.417,4.015C564.916,127.179,564.898,182.695,564.898,182.695z"/>
		<path d="M566.883,184.682l-181.062-0.052l-0.293-0.093L0,62.358V0.128L1.894,0.04C2.297,0.022,9.253,0,59.878,0
			c30.269,0,68.808,0.007,106.595,0.015c36.342,0.007,71.988,0.014,98.914,0.014l110.918,0.002c27.053,0,54.095-0.001,81.146-0.006
			c23.806,0,45.671,8.27,65.007,24.581c21.438,18.085,35.81,41.711,43.935,72.226c0.427,1.604,0.483,3.26,0.484,4.524
			c0.023,25.822,0.007,81.34,0.007,81.34L566.883,184.682z M386.436,180.658l176.477,0.051c0.003-10.128,0.014-56.434-0.008-79.35
			c-0.001-1.023-0.041-2.346-0.35-3.506c-7.909-29.702-21.862-52.668-42.658-70.211c-18.6-15.69-39.604-23.646-62.429-23.646
			C430.4,4,403.358,4.002,376.305,4.002L265.387,4c-26.926,0-62.573-0.007-98.915-0.014C128.685,3.979,90.146,3.972,59.878,3.972
			c-12.41,0-47.302,0-55.906,0.025V59.45L386.436,180.658z"/>
	</g>
	<g>
		<path fill="#CF8A61" d="M342.657,178.973c0,49.428,0,98.422,0,147.984c16.679,0,33.029,0,49.629,0c0,43.619,0,86.669,0,129.985
			c-89.912,0-179.575,0-269.52,0c0-22.296,0-44.378,0-66.882c21.748-10.971,43.646-22.016,65.864-33.224
			c0-75.393,0-150.66,0-226.685C240.261,146.517,291.25,162.678,342.657,178.973z"/>
		<path d="M394.272,458.929H120.779v-70.091l65.865-33.224V127.439l157.999,50.079V324.97h49.629V458.929z M124.751,454.956h265.548
			V328.943h-49.628V180.427l-150.056-47.562V358.06l-65.864,33.224L124.751,454.956L124.751,454.956z"/>
	</g>
	<g>
		<path fill="#CF8A61" d="M360.105,196.69c68.27,0,136.276,0,204.543,0c0,38.092,0,75.923,0,114.012c-68.269,0-136.276,0-204.543,0
			C360.105,272.61,360.105,234.779,360.105,196.69z"/>
		<path d="M566.633,312.688H358.12V194.705h208.514v117.983H566.633z M362.091,308.716h200.57V198.677h-200.57V308.716z"/>
	</g>
</g>
<g>
	<path d="M218.739-30.506l-54.387-29.979l13.157-23.868l8.06,4.442l33.688-61.115l-8.06-4.443l13.156-23.867l47.422,26.141
		l-46.845,84.982l6.965,3.84L218.739-30.506z"/>
	<path d="M283.455,5.167l-53.76-29.635l13.157-23.867l7.825,4.313l15.529-28.172l-7.825-4.313l13.156-23.867l47.188,26.011
		l-28.685,52.038l6.572,3.624L283.455,5.167z M287.894-119.314c2.271-4.121,6.21-6.27,11.816-6.444
		c5.553-0.204,11.408,1.392,17.564,4.785c6.312,3.479,10.68,7.587,13.104,12.323c2.34,4.76,2.463,9.045,0.363,12.853
		c-2.271,4.122-6.053,6.29-11.339,6.503c-5.37,0.238-11.104-1.325-17.209-4.69c-6.209-3.423-10.755-7.391-13.64-11.905
		C285.64-110.353,285.421-114.827,287.894-119.314z"/>
	<path d="M342.615,37.777l-49.3-27.175l13.157-23.869l9.938,5.479l33.688-61.116l-10.095-5.564l13.156-23.866l49.457,27.262
		l-20.835,37.796c8.979-0.493,18.241,1.892,27.788,7.154c12.052,6.644,20.117,15.579,24.199,26.808
		c4.081,11.229,2.858,22.765-3.669,34.606c-3.222,5.844-7.093,10.614-11.613,14.312c-4.521,3.697-9.736,6.402-15.643,8.11
		c-11.821,3.551-23.444,2.179-34.868-4.119c-10.122-5.579-17.641-12.547-22.557-20.903L342.615,37.777z M363.395-0.661
		c-6.298,11.426-4.907,19.639,4.17,24.643c8.608,4.745,16.046,1.432,22.315-9.941c2.99-5.426,4.076-10.234,3.259-14.427
		c-0.848-4.14-3.279-7.318-7.296-9.532c-4.278-2.358-8.414-2.631-12.405-0.817C369.388-8.821,366.041-5.46,363.395-0.661z"/>
	<path d="M482.377,114.817l-61.194-33.731l13.157-23.868l10.329,5.693l15.528-28.171l-10.329-5.694l13.156-23.867l47.108,25.968
		L499.65,50.163c4.391-3.771,9.387-6.356,14.99-7.758c5.416-1.436,10.238-1.668,14.466-0.699c4.04,0.936,9.452,3.272,16.235,7.012
		l-18.419,33.414c-0.859-0.541-1.94-1.171-3.243-1.89c-8.035-4.429-14.454-6.912-19.258-7.452c-4.99-0.573-8.963,0.094-11.919,2.001
		c-3.066,1.983-5.891,5.256-8.472,9.817l11.503,6.341L482.377,114.817z"/>
	<path d="M586.708,141.004l30.276,21.892c-3.332,2.587-7.041,4.504-11.131,5.752c-4.09,1.25-8.558,1.83-13.406,1.742
		c-9.809-0.102-19.981-3.057-30.52-8.865c-17.686-9.748-28.961-20.759-33.827-33.033c-4.896-12.221-4.079-24.252,2.449-36.095
		c6.384-11.582,16.112-18.804,29.186-21.664c12.968-2.918,26.911-0.267,41.833,7.958c14.346,7.908,24.019,18.002,29.019,30.28
		c4.871,12.141,3.51,25.777-4.083,40.91l-59.785-32.956c-6.631,12.398-5.434,21.085,3.592,26.061
		C575.736,145.975,581.202,145.315,586.708,141.004z M572.623,107.323l22.146,12.207c0.967-1.508,1.507-2.365,1.622-2.574
		c2.271-4.121,3.112-8.113,2.521-11.977c-0.619-3.811-2.65-6.666-6.094-8.563c-3.549-1.956-7.066-1.989-10.555-0.104
		c-3.518,1.939-6.469,5.073-8.855,9.402C573.091,106.29,572.83,106.825,572.623,107.323z"/>
	<path d="M697.508,197.284l-12.854,23.319c-3.506,0.312-8.043-0.216-13.614-1.587c-5.86-1.462-11.138-3.486-15.833-6.074
		c-5.896-3.25-10.424-7.004-13.585-11.264c-3.239-4.369-5.031-8.827-5.382-13.373c-0.137-2.593-0.054-4.842,0.25-6.75
		c0.303-1.907,0.871-3.924,1.703-6.051c1.532-3.644,5.017-10.396,10.452-20.256l7.031-12.756l-9.704-5.35l13.156-23.867l9.704,5.35
		l6.427-11.66l49.671,2.994l-16.736,30.362l15.886,8.757l-13.156,23.867l-15.886-8.757l-8.109,14.712
		c-2.646,4.801-3.972,8.254-3.976,10.359c-0.058,2.076,1.271,3.864,3.984,5.359C689.492,196.028,693.017,196.917,697.508,197.284z"
		/>
	<path d="M754.545,264.842l-61.194-33.731l13.157-23.868l10.329,5.693l15.528-28.171l-10.329-5.694l13.156-23.867l47.109,25.968
		l-10.482,19.017c4.39-3.77,9.387-6.355,14.989-7.757c5.416-1.437,10.238-1.669,14.465-0.7c4.042,0.937,9.454,3.273,16.236,7.012
		l-18.419,33.414c-0.859-0.541-1.94-1.171-3.243-1.889c-8.035-4.43-14.454-6.913-19.258-7.452c-4.989-0.573-8.963,0.093-11.919,2
		c-3.065,1.983-5.891,5.257-8.472,9.818l11.503,6.341L754.545,264.842z"/>
	<path d="M803.071,241.596c6.153-11.164,16.04-17.994,29.657-20.485c13.618-2.493,28.408,0.661,44.373,9.46
		c16.068,8.857,27.094,19.766,33.079,32.723c5.985,12.959,5.7,25.385-0.856,37.279c-6.326,11.479-16.404,18.404-30.229,20.783
		c-13.826,2.377-28.617-0.776-44.373-9.461c-17.008-9.375-28.145-20.514-33.412-33.416
		C796.012,265.628,796.6,253.335,803.071,241.596z M842.816,263.709c-6.672,12.103-5.678,20.541,2.982,25.315
		c9.182,5.061,17.137,1.487,23.866-10.721c3.077-5.582,4.341-10.529,3.796-14.844c-0.6-4.344-2.985-7.666-7.158-9.966
		c-4.122-2.272-8.268-2.585-12.439-0.94C849.69,254.2,846.007,257.918,842.816,263.709z"/>
</g>
</svg>
