<?xml version="1.0" encoding="UTF-8" standalone="no"?>
<!DOCTYPE svg PUBLIC "-//W3C//DTD SVG 20010904//EN" "http://www.w3.org/TR/2001/REC-SVG-20010904/DTD/svg10.dtd">
<svg version="1.0" xmlns="http://www.w3.org/2000/svg" width="900.000000pt" height="720.000000pt" viewBox="0 0 900.000000 720.000000" preserveAspectRatio="xMidYMid meet">
<metadata>
Created by potrace 1.10, written by Peter Selinger 2001-2011
</metadata>
<g transform="translate(0.000000,720.000000) scale(0.100000,-0.100000)" fill="#000000" stroke="none">
<path d="M418 7179 c-10 -10 -29 -19 -42 -19 -21 0 -55 -13 -106 -42 -8 -4 -22 -11 -30 -15 -25 -11 -93 -66 -125 -102 -39 -44 -87 -134 -103 -194 -18 -71 -17 -6392 2 -6457 12 -43 31 -86 61 -140 44 -78 169 -167 275 -197 68 -18 7785 -18 7850 1 82 23 133 52 196 110 58 52 90 101 119 181 l25 68 0 3180 c0 2900 -1 3185 -16 3236 -34 118 -84 212 -147 276 -36 36 -135 95 -160 95 -9 0 -26 9 -37 20 -20 20 -33 20 -3882 19 -3794 -1 -3863 -1 -3880 -20z m7757 -100 c134 -47 207 -134 259 -308 15 -48 16 -344 16 -3216 0 -3136 0 -3162 -20 -3220 -19 -56 -57 -117 -90 -142 -52 -42 -95 -67 -155 -88 l-68 -25 -3837 0 c-3504 0 -3842 1 -3891 16 -87 26 -120 46 -183 110 -64 63 -84 96 -110 183 -15 49 -16 331 -16 3189 0 2875 1 3140 16 3191 50 169 147 261 329 312 56 16 329 17 3875 18 l3816 1 59 -21z"/>
<path d="M1430 6624 c-109 -19 -154 -33 -265 -86 -55 -26 -68 -35 -155 -99 -82 -62 -122 -102 -192 -194 -44 -58 -138 -239 -138 -266 0 -7 -6 -31 -14 -54 -8 -22 -20 -86 -27 -142 -27 -225 31 -453 169 -661 110 -167 333 -323 537 -376 225 -58 456 -36 670 66 76 36 179 109 249 176 47 45 156 183 156 198 0 4 6 15 13 23 19 22 72 154 91 226 9 33 20 101 25 150 9 79 8 92 -7 103 -12 9 -120 12 -461 12 -245 0 -452 -4 -459 -8 -9 -7 -12 -44 -10 -153 l3 -144 285 -5 c325 -6 308 1 246 -93 -66 -99 -196 -204 -306 -245 -19 -7 -80 -23 -134 -34 -103 -22 -151 -20 -281 11 -222 53 -424 255 -476 476 -35 150 -35 191 -1 350 28 127 144 290 268 374 51 35 169 91 192 91 9 0 39 7 66 15 27 8 81 15 121 15 40 0 94 -7 121 -15 27 -8 57 -15 66 -15 30 0 150 -61 208 -105 30 -23 74 -63 97 -88 24 -25 51 -51 62 -57 11 -5 82 -10 161 -10 161 0 166 3 130 72 -59 114 -166 238 -275 320 -62 46 -241 138 -270 138 -9 0 -25 5 -36 11 -30 16 -204 39 -283 38 -39 -1 -105 -8 -146 -15z"/>
<path d="M3330 6253 c-135 -203 -247 -372 -250 -378 -3 -5 -104 -158 -225 -340 -121 -181 -222 -334 -224 -340 -2 -5 -17 -26 -32 -46 -16 -20 -29 -39 -29 -42 0 -2 -45 -71 -99 -153 -55 -82 -97 -152 -95 -156 3 -4 85 -8 184 -8 l178 0 79 118 c43 64 80 122 83 127 11 22 65 102 84 123 19 22 22 22 295 22 152 0 281 -4 287 -8 8 -5 11 -64 10 -185 -1 -98 1 -183 5 -188 3 -6 68 -8 155 -7 l149 3 0 910 0 910 -155 3 -155 2 -245 -367z m246 -486 c-1 -193 -4 -247 -15 -261 -12 -14 -34 -16 -170 -14 -141 3 -156 5 -159 21 -2 11 58 110 145 240 81 122 151 230 155 239 4 10 16 18 26 18 17 0 18 -13 18 -243z"/>
<path d="M4933 6233 c-142 -214 -259 -391 -261 -395 -2 -3 -157 -238 -346 -522 -189 -283 -341 -518 -338 -521 3 -3 87 -5 186 -5 l181 0 101 153 c56 83 213 321 350 527 137 206 251 379 253 385 2 5 17 26 32 46 16 20 29 40 29 43 0 14 45 66 57 66 10 0 13 -116 15 -607 l3 -608 155 -3 155 -2 165 247 c91 136 167 252 170 258 3 5 104 158 225 340 121 181 222 334 224 340 6 16 42 48 47 42 3 -3 6 -279 7 -613 l2 -609 153 -3 152 -3 0 916 0 915 -154 0 -154 0 -174 -262 c-96 -145 -192 -289 -214 -321 -21 -32 -44 -66 -49 -75 -43 -73 -378 -568 -385 -570 -6 -2 -11 234 -12 610 l-3 613 -157 3 -157 3 -258 -388z"/>
<path d="M6915 6608 c-3 -7 -4 -418 -3 -913 l3 -900 470 0 470 0 3 130 c1 72 0 140 -3 153 l-5 22 -309 0 c-272 0 -310 2 -315 16 -3 9 -6 98 -6 199 0 101 3 190 6 199 5 14 42 16 309 16 246 0 305 3 314 14 8 9 11 59 9 152 l-3 139 -315 5 -315 5 -3 210 c-1 116 0 220 3 233 l5 22 310 0 310 0 5 23 c3 12 4 81 3 152 l-3 130 -468 3 c-369 2 -469 0 -472 -10z"/>
<path d="M4005 4471 c-131 -39 -217 -112 -272 -229 -22 -47 -25 -68 -25 -156 0 -95 3 -108 33 -169 18 -37 56 -94 86 -126 29 -33 53 -63 53 -68 0 -4 -26 -26 -56 -48 -162 -115 -264 -300 -264 -476 0 -71 30 -189 66 -264 44 -90 150 -194 244 -237 169 -78 375 -74 548 11 58 28 150 120 204 202 28 43 58 79 65 79 12 0 53 -35 208 -181 108 -102 139 -129 147 -129 10 0 21 11 110 107 75 82 83 98 59 115 -16 12 -102 91 -328 302 -68 64 -73 72 -67 100 3 17 10 36 14 41 4 6 27 55 50 109 23 54 46 106 50 115 13 25 64 139 90 204 21 50 22 60 10 67 -16 11 -232 13 -267 4 -16 -4 -33 -31 -64 -102 -105 -242 -102 -236 -122 -240 -9 -2 -48 27 -89 66 -40 38 -88 82 -107 99 l-34 30 66 71 c36 40 73 87 82 104 33 65 55 151 55 217 0 263 -281 460 -545 382z m233 -317 c17 -20 32 -47 32 -59 0 -31 -20 -86 -41 -113 -23 -30 -88 -82 -103 -82 -19 0 -105 88 -126 130 -28 54 -25 83 10 124 36 40 53 46 135 41 55 -3 63 -7 93 -41z m-78 -666 c25 -23 70 -65 100 -92 30 -28 89 -82 129 -120 l74 -69 -15 -31 c-9 -17 -19 -38 -22 -46 -12 -32 -80 -126 -106 -148 -49 -41 -89 -52 -189 -52 -109 0 -153 14 -205 67 -60 60 -71 90 -71 198 0 91 3 104 26 140 15 22 42 54 60 71 39 36 158 124 168 124 3 0 26 -19 51 -42z"/>
<path d="M5685 2460 c-207 -45 -352 -124 -495 -269 -85 -86 -166 -205 -204 -301 -10 -25 -23 -56 -28 -70 -25 -62 -48 -209 -48 -307 0 -255 111 -512 299 -691 62 -59 191 -148 261 -179 142 -64 236 -83 404 -83 179 1 271 22 421 97 149 76 280 189 368 320 26 39 47 76 47 82 0 13 15 12 -188 11 l-164 -1 -63 -52 c-318 -262 -787 -183 -991 168 -81 139 -113 320 -79 448 8 32 15 64 15 72 0 28 63 150 106 206 55 71 123 132 194 173 74 42 108 54 220 78 83 18 104 20 165 10 117 -19 147 -27 215 -61 96 -48 105 -53 160 -104 l51 -47 174 0 c105 0 176 4 180 10 17 28 -157 233 -272 320 -59 44 -186 112 -263 139 -143 51 -339 63 -485 31z"/>
<path d="M657 2413 c-4 -3 -7 -415 -7 -915 l0 -908 159 0 159 0 36 50 c20 28 36 53 36 56 0 3 13 23 29 43 15 20 30 41 32 46 2 6 90 138 194 295 105 157 192 290 194 295 2 6 17 26 32 46 16 20 29 40 29 44 0 4 13 24 30 45 16 21 30 40 30 43 0 12 167 252 176 252 5 0 11 -244 14 -605 l5 -605 160 0 160 0 103 154 c56 85 102 156 102 159 0 2 13 21 29 41 15 20 30 41 32 46 2 6 117 179 254 385 138 206 252 380 254 385 2 6 16 26 31 45 15 19 29 40 31 45 2 6 84 130 182 277 98 147 176 272 172 278 -7 11 -322 14 -350 4 -13 -5 -380 -545 -394 -579 -2 -5 -17 -26 -32 -46 -16 -20 -29 -40 -29 -44 0 -4 -13 -24 -30 -45 -16 -21 -30 -40 -30 -42 0 -12 -312 -473 -318 -471 -4 2 -9 279 -12 615 l-5 613 -151 3 -151 3 -42 -55 c-22 -30 -41 -58 -41 -62 0 -3 -13 -23 -29 -43 -15 -20 -30 -40 -32 -46 -2 -5 -103 -158 -224 -340 -121 -181 -222 -334 -224 -340 -2 -5 -17 -26 -32 -46 -16 -20 -29 -40 -29 -44 0 -4 -13 -24 -30 -45 -16 -21 -30 -40 -30 -43 0 -3 -19 -34 -43 -69 -24 -35 -46 -71 -50 -80 -3 -10 -13 -18 -22 -18 -13 0 -15 68 -15 603 0 456 -3 606 -12 615 -13 13 -289 18 -301 5z"/>
<path d="M3518 2392 c-22 -26 -336 -492 -348 -517 -3 -6 -171 -260 -375 -565 -203 -305 -372 -559 -374 -564 -2 -4 -23 -37 -47 -72 -24 -35 -44 -69 -44 -74 0 -6 68 -10 179 -10 l179 0 29 37 c16 21 73 106 128 188 55 83 104 153 110 157 12 9 536 11 559 2 14 -5 16 -32 16 -195 l0 -188 142 -3 c83 -2 147 1 155 7 11 8 13 163 11 915 l-3 905 -146 3 -147 3 -24 -29z m10 -843 l-3 -254 -179 -3 c-154 -2 -178 0 -173 12 4 9 64 102 134 208 70 106 130 198 133 203 17 35 75 104 82 97 5 -5 7 -123 6 -263z"/>
<path d="M3970 2401 c-5 -11 -10 -74 -10 -141 0 -67 5 -130 10 -141 10 -18 23 -19 168 -19 110 0 162 -4 170 -12 9 -9 12 -190 12 -755 l0 -743 23 -1 c125 -3 281 1 288 8 5 5 10 344 11 753 l3 745 159 3 c97 1 165 7 173 13 10 9 13 48 13 154 0 121 -2 144 -16 149 -9 3 -236 6 -504 6 -474 0 -490 -1 -500 -19z"/>
<path d="M6807 2413 c-4 -3 -7 -415 -7 -915 l0 -908 23 0 c164 -3 278 -1 287 5 7 4 10 122 10 382 -1 298 2 378 12 384 22 14 522 11 536 -3 9 -9 12 -109 12 -390 l0 -378 23 -1 c107 -2 279 1 287 6 16 10 14 1797 -2 1813 -13 13 -262 18 -292 6 -14 -5 -16 -46 -16 -358 0 -193 -4 -357 -9 -364 -6 -10 -66 -13 -276 -13 -147 0 -269 2 -272 4 -2 3 -4 161 -3 351 0 226 -3 353 -10 366 -10 18 -22 20 -154 20 -78 0 -146 -3 -149 -7z"/>
<path d="M8577 253 c-14 -13 -6 -23 26 -31 l32 -8 5 -82 c5 -80 20 -116 40 -96 5 5 10 47 12 94 3 76 5 85 23 88 26 5 46 22 39 33 -6 10 -167 12 -177 2z"/>
<path d="M8789 256 c-11 -11 1 -210 13 -218 18 -10 30 5 37 48 7 41 24 48 29 12 6 -54 13 -68 31 -68 21 0 31 19 31 60 0 39 18 48 26 13 12 -55 16 -63 30 -63 11 0 14 21 14 110 l0 110 -30 0 c-32 0 -37 -10 -42 -79 -5 -66 -49 -46 -57 26 -6 47 -7 48 -41 51 -20 2 -38 1 -41 -2z"/>
</g>
</svg>