<?xml version="1.0" encoding="UTF-8"?>
<!DOCTYPE svg PUBLIC "-//W3C//DTD SVG 1.1//EN" "http://www.w3.org/Graphics/SVG/1.1/DTD/svg11.dtd">
<svg xmlns="http://www.w3.org/2000/svg" width="250" height="30"><path d="m130.6,27c0,0.3-0.3,0.6-0.6,0.6l -10.9,0c -0.3,0-0.6,-0.3-0.6,-0.6l0,-7.9c0,-0.3 0.3,-0.6 0.6,-0.6l10.9,0c0.3,0 0.6,0.3 0.6,0.6l0,7.9z m -0.5,-10.9-11.1,10e-4c -1.6,0-2.9,1.3-2.9,2.9l0,7.9c0,1.6 1.3,2.9 2.9,2.9l11.1,0c1.6,0 2.9,-1.3 2.9,-2.9l0,-7.9c0,-1.6-1.3,-2.9-2.9,-2.9" fill="#a09d9e"/><path d="m2.3,4.3 0,10.2-2.6,0 0,-13.8 2.2,0 10.4,10.1 0,-10.1 2,0 0.5,0 0,13.8-2,0-10.5,-10.2z" fill="#231f20"/><path d="m28,4.3 0,10.2-2.6,0 0,-13.8 2.2,0 10.4,10.1 0,-10.1 2,0 0.5,0 0,13.8-2,0-10.5,-10.2z" fill="#231f20"/><path d="m81.1,4.3 0,10.2-2.6,0 0,-13.8 2.2,0 10.4,10.1 0,-10.1 2,0 0.5,0 0,13.8-2,0-10.5,-10.2z" fill="#231f20"/><path d="m20.9,0.7 0.5,0 0,13.8-2.6,0 0,-13.8 2.1,0z" fill="#231f20"/><path d="m57.9,0.7 0.5,0 0,2.4-6.2,0 0,11.4-2.7,0 0,-11.4-6.2,0 0,-2.4 14.5,0z" fill="#231f20"/><path d="m74.2,0.7 0.5,0 0,2.4-10.9,0 0,3.1 8.5,0 0,2.4-8.5,0 0,3.6 10.9,0 0,2.4-13.5,0 0,-13.8 13,0z" fill="#231f20"/><path d="m107.8,12.1-7.8,0 0,-9 0.1,0 7.8,0c2.5,0 3.3,2.4 3.3,4.5 0,2.1-0.9,4.5-3.3,4.5m4.2,-9.4c -1,-1.3-2.5,-2-4.3,-2l -10.2,0 0,13.8 10.2,0c1.8,0 3.3,-0.7 4.3,-2 0.9,-1.2 1.4,-2.9 1.4,-4.9 0,-2-0.5,-3.7-1.4,-4.9" fill="#231f20"/><path d="m130.6,11.6c0,0.3-0.3,0.6-0.6,0.6l -10.9,0c -0.3,0-0.6,-0.3-0.6,-0.6l0,-7.9c0,-0.3 0.3,-0.6 0.6,-0.6l10.9,0c0.3,0 0.6,0.3 0.6,0.6l0,7.9z m -0.5,-10.9-11.1,0c -1.6,0-2.9,1.3-2.9,2.9l0,8c0,1.6 1.3,2.9 2.9,2.9l11.1,0c1.6,0 2.9,-1.3 2.9,-2.9l0,-8c0,-1.6-1.3,-2.9-2.9,-2.9" fill="#231f20"/><path d="m213.1,24.2c2.6,1 8.2,1.9 12.6,1.9 4.8,0 6.8,-1.6 6.8,-3.7 0,-1.8-1.8,-2.9-7.1,-4.9-7.1,-2.6-12.2,-4.7-12.2,-9.3 0,-4.8 6.2,-7.6 15.7,-7.6 5.1,0 6.8,0.3 10.1,0.9l0,4.6c -3.2,-0.6-6,-1.6-10.4,-1.6-4.7,0-6.7,1.5-6.7,3 0,2.2 3.1,3.3 8.5,5.2 7.5,2.7 11.7,4.8 11.7,9.3 0,4.7-5.2,8-17.1,8-4.8,0-8.2,-0.3-11.9,-0.9l0,-4.9z" fill="#231f20"/><path d="m188,4.6-5.6,0 0,21.3 5.6,0c8.6,0 14.1,-3.7 14.1,-10.6 0,-6.9-5.4,-10.7-14.1,-10.7m15.1,23.3c -2.8,1.3-8,2.1-12.6,2.1l -17.6,0 0,-29.3 17.6,0c4.6,0 9.9,0.8 12.7,2.1 6.8,3.1 9,7.9 9,12.6 0,4.6-2.2,9.5-9,12.6" fill="#231f20"/><path d="m160.5,13.9c0,0 8.2,-1.3 8.2,-6.4 0,-5-8.7,-7-18,-7-8.4,0-13.9,1-13.9,1l0,4.5c3.8,-0.9 7.4,-1.7 12.4,-1.7 5.3,0 9.4,1.6 9.4,3.8 0,2.7-4,4.3-12.7,4.3l -4,0 0,4.1 3.7,0c9.1,0 14.3,1.4 14.3,4.7 0,3-4.6,4.8-10.4,4.8-5,0-9.6,-1.1-13.4,-2.1l0,4.9c1.8,0.3 6.6,1.3 15.4,1.3 9.8,0 18.4,-3.2 18.4,-8.7 0,-4.7-5.9,-7.4-9.4,-7.4" fill="#cf181f"/><path d="m244.5,25.9-0.9,0 0,-0.5 2.4,0 0,0.5-0.9,0 0,2.8-0.6,0 0,-2.8z" fill="#231f20"/><path d="m249.1,27.4c -0,-0.4-0,-0.9-0,-1.4l -0,0c -0.1,0.4-0.2,0.8-0.4,1.2l -0.5,1.4-0.5,0-0.4,-1.4c -0.1,-0.4-0.2,-0.9-0.3,-1.3l -0,0c -0,0.4-0,0.9-0.1,1.4l -0.1,1.3-0.6,0 0.2,-3.2 0.8,0 0.4,1.3c0.1,0.4 0.2,0.8 0.3,1.1l0,0c0.1,-0.4 0.2,-0.8 0.3,-1.1l0.4,-1.3 0.8,0 0.2,3.2-0.6,0-0.1,-1.3z" fill="#231f20"/></svg>