<?xml version="1.0" encoding="utf-8"?>
<!-- Generator: Adobe Illustrator 16.0.3, SVG Export Plug-In . SVG Version: 6.00 Build 0)  -->
<!DOCTYPE svg PUBLIC "-//W3C//DTD SVG 1.1//EN" "http://www.w3.org/Graphics/SVG/1.1/DTD/svg11.dtd">
<svg version="1.1" id="Ebene_1" xmlns="http://www.w3.org/2000/svg" xmlns:xlink="http://www.w3.org/1999/xlink" x="0px" y="0px"
	 width="340.154px" height="126.123px" viewBox="0 0 340.154 126.123" enable-background="new 0 0 340.154 126.123"
	 xml:space="preserve">
<g>
	<path fill="#FF0000" d="M277.724,70.452H62.576c-19.423,0-35.228-15.803-35.228-35.227S43.154,0,62.576,0h215.146
		c19.426,0,35.229,15.802,35.229,35.226C312.95,54.649,297.149,70.452,277.724,70.452z M62.576,8.333
		c-14.829,0-26.895,12.064-26.895,26.895c0,14.828,12.065,26.894,26.895,26.894h215.146c14.827,0,26.896-12.065,26.896-26.894
		c0-14.83-12.067-26.895-26.896-26.895H62.576z"/>
	<path fill="#FF0000" d="M90.208,51.562V19.047h-9.779v22.735L66.006,19.047H55.494v32.515h9.779V28.093l15.155,23.469H90.208z"/>
	<path fill="#FF0000" d="M106.099,51.562V29.56h-9.778v22.002H106.099z"/>
	<path fill="#FF0000" d="M106.099,24.914v-5.867h-9.778v5.867H106.099z"/>
	<path id="_x33_162" fill="#FF0000" d="M140.324,51.562V36.403c0-3.178-6.112-7.578-9.289-7.578h-2.935
		c-2.199,0-4.645,1.956-6.845,2.934V29.56h-9.779v22.002h9.779V36.403c0-1.467,3.422-3.178,4.89-3.178
		c1.467,0,4.155,1.711,4.155,3.178v15.158H140.324z"/>
	<path id="_x33_162_1_" fill="#FF0000" d="M222.143,52.319V37.162c0-3.179-6.109-7.578-9.292-7.578h-2.932
		c-2.201,0-4.646,1.956-6.848,2.933v-2.199h-9.777v22.002h9.777V37.162c0-1.466,3.424-3.179,4.891-3.179
		c1.466,0,4.154,1.713,4.154,3.179v15.157H222.143z"/>
	<path fill="#FF0000" d="M156.215,51.562V29.56h5.134v-2.934h-5.134v-4.645h-10.021v4.645h-5.135v2.934h5.135v22.002H156.215z"/>
	<path fill="#FF0000" d="M175.038,28.826c-7.822,0-14.422,5.378-14.422,11.979c0,6.846,6.6,12.223,14.422,12.223
		c6.846,0,12.469-3.911,13.936-9.045h-10.022v2.934c0,2.445-1.709,3.18-3.91,3.18c-2.2,0-3.668-0.734-3.668-3.18v-6.111h18.093
		C189.464,34.205,183.108,28.826,175.038,28.826z M175.038,31.026c2.201,0,3.912,1.467,3.912,3.912v2.199h-7.578v-2.199
		C171.372,32.493,172.839,31.026,175.038,31.026z"/>
	<path fill="#FF0000" d="M271.364,28.826c-8.069,0-14.426,5.378-14.426,11.979c0,6.846,6.354,12.223,14.426,12.223
		c7.819,0,14.422-5.377,14.422-12.223C285.782,34.205,279.183,28.826,271.364,28.826z M271.364,31.026
		c2.196,0,3.666,1.467,3.666,3.912v11.978c0,2.444-1.47,3.179-3.666,3.179c-2.444,0-3.914-0.734-3.914-3.179V34.938
		C267.448,32.493,268.917,31.026,271.364,31.026z"/>
	<path fill="#FF0000" d="M243.247,19.047v11.979c0,0-2.936-2.2-6.848-2.2c-6.111,0-11.244,5.378-11.244,11.246
		c0,6.112,5.135,12.224,11.244,12.224c3.912,0,6.848-1.467,6.848-1.467v0.732h9.779V19.047H243.247z M239.579,32.493
		c2.199,0,3.668,1.712,3.668,3.912v9.045c0,2.201-1.469,2.934-3.668,2.934c-2.443,0-3.912-0.732-3.912-2.934v-9.045
		C235.667,34.205,237.136,32.493,239.579,32.493z"/>
	<g>
		<path fill="#FF0000" d="M287.006,29.216c-2.775,0-5.036-2.258-5.036-5.035c0-2.959,2.213-5.28,5.036-5.28
			c2.729,0,5.036,2.417,5.036,5.28C292.042,26.862,289.692,29.216,287.006,29.216z M287.006,19.683c-2.427,0-4.253,1.934-4.253,4.5
			c0,2.344,1.908,4.254,4.253,4.254c2.229,0,4.254-2.028,4.254-4.254C291.26,21.784,289.276,19.683,287.006,19.683z M287.89,26.33
			l-0.864-1.515h-1.095v1.321h-0.78v-4.546h2.104c0.979,0,1.488,0.813,1.488,1.613c0,0.615-0.303,1.238-0.885,1.492l0.711,1.248
			L287.89,26.33z M285.931,24.036h1.321c0.219,0,0.395-0.079,0.521-0.235c0.118-0.149,0.188-0.368,0.188-0.597
			c0-0.311-0.151-0.832-0.709-0.832h-1.321V24.036L285.931,24.036z"/>
	</g>
	<path id="_x32_399" d="M51.827,99.231v-14.18c0-2.688-2.689-5.379-5.378-5.379H25.914v19.559h6.357V86.032
		c0-0.979,0.732-1.957,1.711-1.957h9.777c0.979,0,1.957,0.979,1.957,1.957v13.199H51.827z"/>
	<path id="_x32_399_1_" d="M221.469,99.231v-14.18c0-2.688-2.688-5.379-5.376-5.379h-20.536v19.559h6.354V86.032
		c0-0.979,0.736-1.957,1.713-1.957h9.779c0.979,0,1.953,0.979,1.953,1.957v13.199H221.469z"/>
	<path id="_x32_399_2_" d="M314.327,99.231v-14.18c0-2.688-2.688-5.379-5.379-5.379h-20.535v19.559h6.354V86.032
		c0-0.979,0.732-1.957,1.714-1.957h9.776c0.979,0,1.955,0.979,1.955,1.957v13.199H314.327z"/>
	<path id="_x33_177" d="M258.892,99.231v-14.18c0-2.688-2.688-5.379-5.379-5.379h-27.625v19.559h6.357V86.032
		c0-0.979,0.731-1.957,1.709-1.957h3.668c0.734,0,1.712,0.979,1.712,1.957v13.199h6.358V86.032c0-0.979,0.731-1.957,1.709-1.957
		h3.668c0.733,0,1.711,0.979,1.711,1.957v13.199H258.892z"/>
	<path id="_x33_181" d="M21.514,99.231H5.379C2.691,99.231,0,97.521,0,94.833v-15.4h21.513v4.645H7.089
		c-0.732,0-1.711,0.734-1.711,1.712c0,0.979,0.979,1.712,1.711,1.712h13.446v3.911H7.089c-0.732,0-1.711,0.979-1.711,1.712
		c0,0.979,0.979,1.955,1.711,1.955h14.424L21.514,99.231L21.514,99.231z"/>
	<path id="_x33_181_1_" d="M100.979,99.478H84.843c-2.688,0-5.379-1.711-5.379-4.398V79.677h21.515v4.645H86.553
		c-0.731,0-1.71,0.734-1.71,1.714s0.979,1.711,1.71,1.711h13.446v3.91H86.553c-0.731,0-1.71,0.979-1.71,1.714
		c0,0.979,0.979,1.954,1.71,1.954h14.426V99.478L100.979,99.478z"/>
	<path id="_x33_181_2_" d="M284.907,99.231h-16.137c-2.688,0-5.381-1.711-5.381-4.398v-15.4h21.516v4.645h-14.424
		c-0.732,0-1.714,0.734-1.714,1.712c0,0.979,0.979,1.712,1.714,1.712h13.443v3.911h-13.443c-0.732,0-1.714,0.979-1.714,1.712
		c0,0.979,0.979,1.955,1.714,1.955h14.424v4.154h0.002V99.231z"/>
	<path id="_x32_391" d="M54.517,79.675v4.4h6.355c1.712,0,1.712,0,1.712,1.957v13.199h6.111V86.032c0-1.957,0-1.957,1.956-1.957
		h6.111v-4.4H54.517z"/>
	<path id="_x32_391_1_" d="M132.197,79.675v4.4h6.355c1.71,0,1.71,0,1.71,1.957v13.199h6.112V86.032c0-1.957,0-1.957,1.957-1.957
		h6.112v-4.4H132.197z"/>
	<path id="_x32_391_2_" d="M317.909,79.675v4.4h6.355c1.713,0,1.713,0,1.713,1.957v13.199h6.11V86.032c0-1.957,0-1.957,1.955-1.957
		h6.111v-4.4H317.909z"/>
	<path d="M105.366,79.675v19.559h6.356v-3.42c0-0.979,0.733-1.959,1.711-1.959h8.068c0.979,0,1.711,0.979,1.711,1.959v3.42h5.379
		v-5.379c0-0.731-0.732-1.709-0.732-2.688c0-0.731,1.711-2.442,1.711-4.397v-1.713c0-1.713-2.689-5.38-4.4-5.38L105.366,79.675
		L105.366,79.675z M113.433,84.075h8.068c0.979,0,1.71,0.979,1.71,1.957v1.71c0,0.979-0.732,1.713-1.71,1.713h-8.068
		c-0.978,0-1.711-0.733-1.711-1.713v-1.71C111.723,85.056,112.455,84.075,113.433,84.075z"/>
	<path d="M161.594,79.675c-1.712,0-4.399,3.667-4.399,5.381v14.178h6.354v-5.379h11.489v5.379h6.355V85.056
		c0-1.714-2.688-5.381-4.645-5.381H161.594z M165.261,84.075h8.066c0.731,0,1.711,0.979,1.711,1.957v3.422h-11.489v-3.422
		C163.549,85.056,164.283,84.075,165.261,84.075z"/>
	<path d="M191.907,99.231V79.673h-6.11v19.559H191.907z"/>
	<path id="_x33_177_1_" d="M250.86,126.021v-14.18c0-2.688-2.689-5.379-5.381-5.379h-27.623v19.559h6.354v-13.201
		c0-0.979,0.732-1.957,1.71-1.957h3.667c0.734,0,1.714,0.979,1.714,1.957v13.199h6.354v-13.199c0-0.979,0.731-1.957,1.709-1.957
		h3.668c0.733,0,1.715,0.979,1.715,1.957v13.199h6.111L250.86,126.021L250.86,126.021z"/>
	<path id="_x33_181_3_" d="M213.479,126.021h-16.136c-2.688,0-5.377-1.713-5.377-4.398v-15.403h21.511v4.646h-14.422
		c-0.732,0-1.712,0.733-1.712,1.711c0,0.979,0.979,1.712,1.712,1.712h13.444v3.911h-13.444c-0.732,0-1.712,0.979-1.712,1.713
		c0,0.979,0.979,1.954,1.712,1.954h14.422L213.479,126.021L213.479,126.021z"/>
	<path id="_x32_391_3_" d="M167.017,106.462v4.398h6.355c1.711,0,1.711,0,1.711,1.957v13.199h6.111v-13.199
		c0-1.957,0-1.957,1.959-1.957h6.109v-4.398H167.017z"/>
	<path id="_x33_187" d="M94.611,106.565c-1.712,0-5.379,2.69-5.379,4.398v2.691c0,1.712,3.667,4.4,5.379,4.4h10.756
		c0.978,0,1.956,0.979,1.956,1.711c0,0.977-0.979,1.954-1.956,1.954H89.232v4.399h18.09c1.712,0,5.134-2.688,5.134-4.399v-2.688
		c0-1.957-3.422-4.646-5.134-4.646H96.566c-0.979,0-1.955-0.733-1.955-1.713c0-0.978,0.977-1.713,1.955-1.713h15.89v-4.397H94.611
		V106.565z"/>
	<path id="_x33_187_1_" d="M146.397,106.565c-1.713,0-5.38,2.69-5.38,4.398v2.691c0,1.712,3.667,4.4,5.38,4.4h10.756
		c0.978,0,1.956,0.979,1.956,1.711c0,0.977-0.979,1.954-1.956,1.954h-16.136v4.399h18.091c1.712,0,5.134-2.688,5.134-4.399v-2.688
		c0-1.957-3.422-4.646-5.134-4.646h-10.757c-0.978,0-1.955-0.733-1.955-1.713c0-0.978,0.978-1.713,1.955-1.713h15.891v-4.397
		h-17.845V106.565L146.397,106.565z"/>
	<path d="M114.412,106.565v8.804c0,1.71,2.688,4.399,4.4,4.399h4.398v6.354h6.357v-6.354h4.4c1.71,0,4.4-2.689,4.4-4.399v-8.804
		h-6.112v7.092c0,0.732-0.978,1.712-1.956,1.712h-7.822c-0.979,0-1.956-0.979-1.956-1.712v-7.092H114.412z"/>
</g>
</svg>
