<?xml version="1.0" encoding="utf-8"?>
<!-- Generator: Adobe Illustrator 16.0.3, SVG Export Plug-In . SVG Version: 6.00 Build 0)  -->
<!DOCTYPE svg PUBLIC "-//W3C//DTD SVG 1.1//EN" "http://www.w3.org/Graphics/SVG/1.1/DTD/svg11.dtd">
<svg version="1.1" id="Ebene_1" xmlns="http://www.w3.org/2000/svg" xmlns:xlink="http://www.w3.org/1999/xlink" x="0px" y="0px"
	 width="566.929px" height="98.441px" viewBox="0 0 566.929 98.441" enable-background="new 0 0 566.929 98.441"
	 xml:space="preserve">
<g id="Ebene_1_1_">
	<g>
		<path d="M12,98.442c-6.627,0-12-5.373-12-12V31.906c0-6.628,5.373-12,12-12s12,5.371,12,12v54.535
			C24,93.069,18.627,98.442,12,98.442z"/>
	</g>
	<path d="M174.735,48.034h-36.223v-6.528h36.223c5.964,0,10.799-4.835,10.799-10.799c0-5.965-4.835-10.8-10.799-10.8h-49.423
		c-5.965,0-10.8,4.835-10.8,10.8c0,0.203,0,55.735,0,55.735c0,6.627,5.373,12,12,12c6.627,0,12-5.373,12-12v-16.81h36.223
		c5.964,0,10.799-4.835,10.799-10.8C185.535,52.869,180.7,48.034,174.735,48.034z"/>
	<path d="M540.859,82.934l-15.535-54.178c-0.918-3.207-3.068-5.724-5.787-7.196c-1.66-1.041-3.619-1.652-5.723-1.652h-57
		c-0.373,0-0.742,0.019-1.105,0.056c-6.107,0.558-10.895,5.688-10.895,11.944v54.535c0,6.627,5.371,12,12,12c6.627,0,12-5.373,12-12
		V41.506h5.314v44.937c0,6.627,5.373,12,12,12c6.625,0,11.998-5.373,11.998-12V41.506h6.041l13.766,48.002
		c1.5,5.233,6.271,8.642,11.457,8.642c1.088,0,2.193-0.149,3.293-0.465C539.013,95.868,542.675,89.265,540.859,82.934z"/>
	<path d="M250.508,19.907h-40.751c-11.338,0-20.615,9.276-20.615,20.614v37.306c0,11.338,9.277,20.614,20.615,20.614h40.751
		c11.339,0,20.615-9.276,20.615-20.614V40.522C271.123,29.184,261.847,19.907,250.508,19.907z M247.858,73.755
		c0,1.32-1.08,2.4-2.4,2.4h-30.652c-1.32,0-2.4-1.08-2.4-2.4V44.593c0-1.32,1.08-2.4,2.4-2.4h30.652c1.32,0,2.4,1.08,2.4,2.4V73.755
		z"/>
	<path d="M419.321,19.907H378.57c-11.337,0-20.615,9.276-20.615,20.614v37.306c0,11.338,9.278,20.614,20.615,20.614h40.751
		c11.339,0,20.614-9.276,20.614-20.614V40.522C439.935,29.184,430.66,19.907,419.321,19.907z M416.671,73.755
		c0,1.32-1.08,2.4-2.399,2.4h-30.651c-1.32,0-2.4-1.08-2.4-2.4V44.593c0-1.32,1.08-2.4,2.4-2.4h30.651c1.319,0,2.399,1.08,2.399,2.4
		V73.755z"/>
	<path d="M105.464,19.907H34.742c-3.005,0-5.441,2.436-5.441,5.44v61.095c0,6.627,5.373,12,12,12c6.627,0,11.861-5.373,11.861-12
		V44.583c0-1.32,1.08-2.4,2.4-2.4h28.855c1.32,0,2.488,1.08,2.488,2.4v41.858c0,6.627,5.373,12,12,12c6.627,0,12-5.373,12-12V40.986
		V25.348C110.905,22.343,108.469,19.907,105.464,19.907z"/>
	<path d="M345.042,76.156h-42.9c-1.32,0-2.4-1.08-2.4-2.4V44.593c0-1.32,1.08-2.4,2.4-2.4h42.9c6.153,0,11.145-4.988,11.145-11.143
		s-4.99-11.144-11.145-11.144h-15.545h-30.553h-2.566c-11.279,0-20.507,9.228-20.507,20.507v37.521
		c0,11.278,9.228,20.507,20.507,20.507h2.566h30.553h15.545c6.153,0,11.145-4.988,11.145-11.144S351.196,76.156,345.042,76.156z"/>
	<g>
		<path d="M541.027,11.729h-4.131V8.826h11.752v2.903h-4.176v12.387h-3.445V11.729z"/>
		<path d="M563.324,18.263c-0.07-1.838-0.139-4.038-0.139-6.285h-0.045c-0.5,1.951-1.135,4.129-1.725,5.921l-1.859,5.967h-2.701
			l-1.633-5.898c-0.5-1.814-0.998-3.97-1.385-5.989h-0.045c-0.066,2.065-0.158,4.424-0.248,6.33l-0.297,5.809h-3.197l0.977-15.29
			h4.604l1.496,5.127c0.5,1.747,0.955,3.651,1.295,5.444h0.09c0.408-1.77,0.932-3.766,1.451-5.489l1.611-5.082h4.539l0.814,15.29
			h-3.355L563.324,18.263z"/>
	</g>
</g>
</svg>
