<?xml version="1.0" encoding="UTF-8" standalone="no"?>
<svg
   xmlns:dc="http://purl.org/dc/elements/1.1/"
   xmlns:cc="http://creativecommons.org/ns#"
   xmlns:rdf="http://www.w3.org/1999/02/22-rdf-syntax-ns#"
   xmlns:svg="http://www.w3.org/2000/svg"
   xmlns="http://www.w3.org/2000/svg"
   xmlns:sodipodi="http://sodipodi.sourceforge.net/DTD/sodipodi-0.dtd"
   xmlns:inkscape="http://www.inkscape.org/namespaces/inkscape"
   viewBox="0 0 185.95633 44.032345"
   version="1.1"
   id="svg28"
   sodipodi:docname="logo.svg"
   width="185.95633"
   height="44.032345"
   inkscape:version="0.92.4 (5da689c313, 2019-01-14)">
  <metadata
     id="metadata34">
    <rdf:RDF>
      <cc:Work
         rdf:about="">
        <dc:format>image/svg+xml</dc:format>
        <dc:type
           rdf:resource="http://purl.org/dc/dcmitype/StillImage" />
        <dc:title></dc:title>
      </cc:Work>
    </rdf:RDF>
  </metadata>
  <defs
     id="defs32" />
  <sodipodi:namedview
     pagecolor="#ffffff"
     bordercolor="#666666"
     borderopacity="1"
     objecttolerance="10"
     gridtolerance="10"
     guidetolerance="10"
     inkscape:pageopacity="0"
     inkscape:pageshadow="2"
     inkscape:window-width="1366"
     inkscape:window-height="704"
     id="namedview30"
     showgrid="false"
     inkscape:zoom="1.3872611"
     inkscape:cx="-41.725206"
     inkscape:cy="22.017345"
     inkscape:window-x="0"
     inkscape:window-y="27"
     inkscape:window-maximized="1"
     inkscape:current-layer="svg28" />
  <g
     id="g58"
     transform="translate(-64.792241,-6.624)">
    <g
       id="g8"
       style="fill:#2930b4">
      <path
         id="path2"
         d="m 93.406,19.341 v -1.827 h 3.346 c 2.777,0 3.395,-0.025 3.629,-0.147 l 0.443,-0.149 c 0.087,0 0.451,-0.154 0.807,-0.339 0.812,-0.422 2.54,-2.111 2.54,-2.48 l 0.202,-0.75 c 0.135,-0.339 0.194,-0.681 0.174,-1.015 l -0.03,-0.503 -5.135,-0.025 C 94.695,12.083 94.236,12.066 94.124,11.914 94.037,11.797 94,11.281 94,10.192 c 0,-1.281 0.027,-1.581 0.155,-1.708 0.137,-0.139 0.877,-0.155 6.654,-0.155 5.529,0 6.516,0.02 6.616,0.142 0.087,0.104 0.109,0.878 0.085,2.942 -0.027,2.468 -0.052,2.832 -0.204,3.064 l -0.175,0.439 -0.247,0.671 -0.244,0.675 c 0,0.099 0.366,0.573 0.815,1.054 1.486,1.595 2.147,2.366 2.147,2.511 l 0.124,0.224 0.362,0.349 0.125,0.519 -0.114,0.247 h -3.336 l -0.708,-0.745 c -0.389,-0.411 -0.756,-0.852 -0.815,-0.98 -0.142,-0.312 -0.422,-0.371 -0.686,-0.14 l -0.317,0.187 -0.26,0.144 -1.62,0.843 -0.504,0.197 -0.715,0.257 -0.381,0.15 c -0.03,0.048 -1.688,0.087 -3.702,0.087 h -3.649 z"
         inkscape:connector-curvature="0" />
      <path
         id="path4"
         d="m 109.478,16.26 c -0.359,-0.057 -0.382,-0.187 -0.349,-1.955 l 0.028,-1.481 5.864,-0.027 c 4.25,-0.018 5.903,0.007 6,0.087 0.104,0.085 0.135,0.468 0.135,1.618 0,1.281 -0.025,1.526 -0.164,1.641 -0.134,0.112 -1.166,0.139 -5.704,0.147 -3.045,0.007 -5.66,-0.007 -5.81,-0.03 z m 81.724,0 -0.329,-0.309 0.043,-3.054 c 0.063,-0.097 1.363,-0.124 5.946,-0.124 5.699,0 5.87,0.005 5.97,0.192 l -0.038,3.123 c -0.135,0.185 -0.319,0.192 -5.753,0.204 -3.085,0.006 -5.714,-0.007 -5.839,-0.032 z m -68.157,4.752 c -0.119,-0.309 -0.067,-3.552 0.058,-3.677 0.089,-0.087 1.11,-0.119 3.991,-0.119 3.156,0 3.926,-0.025 4.153,-0.14 0.154,-0.077 0.613,-0.244 1.02,-0.371 0.933,-0.289 1.541,-0.7 1.952,-1.321 l 0.322,-0.488 -0.025,-1.531 -0.027,-1.531 -6.2,-0.025 -6.2,-0.025 -0.095,-0.252 c -0.053,-0.139 -0.097,-0.828 -0.097,-1.53 0,-1.147 0.02,-1.299 0.199,-1.476 0.194,-0.194 0.329,-0.197 7.646,-0.197 6.639,0 7.466,0.017 7.604,0.155 0.134,0.135 0.154,0.591 0.154,3.512 0,3.164 -0.012,3.395 -0.212,4.018 a 12.906,12.906 0 0 1 -0.758,1.875 c -0.209,0.416 -1.815,1.994 -2.029,1.994 l -0.16,0.092 c 0,0.204 -1.019,0.685 -1.925,0.908 l -0.489,0.192 c -0.055,0.055 -1.859,0.092 -4.458,0.092 -3.89,10e-4 -4.371,-0.016 -4.424,-0.155 z m 16.539,0.019 c -0.077,-0.092 -0.105,-0.593 -0.087,-1.551 l 0.028,-1.414 0.247,-0.068 c 0.135,-0.037 1.02,-0.072 1.965,-0.078 l 1.72,-0.01 0.329,-0.369 c 0.304,-0.341 0.331,-0.424 0.331,-1.019 0,-1.017 -0.12,-0.97 2.582,-1.004 2.176,-0.025 2.351,-0.042 2.555,-0.225 l 0.341,-0.852 c -0.057,-0.177 -0.269,-0.185 -5.278,-0.185 -2.87,0 -5.29,-0.027 -5.375,-0.06 v -2.842 c 0.085,-0.033 3.076,-0.06 6.646,-0.06 4.916,0 6.519,0.028 6.609,0.119 0.165,0.165 0.155,4.013 -0.013,4.622 -0.282,1.02 -0.73,1.57 -1.7,2.089 l -0.588,0.316 -1.852,0.042 -1.852,0.04 v 0.503 c 0,0.853 -0.438,1.543 -1.241,1.95 -0.349,0.179 -0.588,0.195 -2.817,0.195 -1.957,-0.002 -2.458,-0.029 -2.55,-0.139 z m 29.747,-8.211 -15.182,-1.329 -0.474,-0.519 V 8.744 l 0.474,-0.437 15.182,1.327 0.476,0.521 v 2.228 z m 0,4.187 -15.182,-1.33 -0.474,-0.519 v -2.229 l 0.474,-0.436 15.182,1.327 0.476,0.521 v 2.228 z m 0,4.186 -15.182,-1.329 -0.474,-0.52 v -2.229 l 0.474,-0.437 15.182,1.329 0.476,0.521 v 2.227 z M 185.766,8.894 H 174.3 c 0.015,0.274 -0.202,1.106 -0.794,1.939 a 3.495,3.495 0 0 1 -1.321,1.107 v 3.649 c 0.279,-0.006 2.382,-0.085 3.716,-1.845 0.933,-1.232 0.943,-2.565 0.929,-2.989 h 8.829 c -0.002,0.307 -0.004,0.658 -0.004,1.056 0,0.391 0,0.704 -0.002,0.962 -0.004,0.709 -8.823,0.551 -8.823,0.551 l -0.013,2.316 c 0,0 8.098,-0.099 8.291,0.231 0.101,0.173 -0.157,0.658 -0.356,0.874 -0.757,0.822 -1.092,0.748 -1.741,0.934 -0.767,0.219 -1.667,0.184 -5.18,0.205 -3.821,0.025 -4.445,0.048 -4.521,0.177 l 0.025,3.393 c 0.064,0.03 2.333,0.043 5.043,0.03 5.506,-0.023 4.981,0.038 6.616,-0.781 0.626,-0.314 0.916,-0.541 1.575,-1.241 0.76,-0.808 1.059,-1.496 1.366,-2.219 0.202,-0.623 0.165,-0.549 0.192,-4.243 0.025,-3.291 0.008,-4.068 -0.092,-4.136 z m 29.229,4.226 h 6.312 c 0.187,0 0.34,-0.153 0.34,-0.34 v -2.396 a 0.341,0.341 0 0 0 -0.34,-0.34 h -6.312 V 8.329 a 0.361,0.361 0 0 0 -0.36,-0.36 h -3.608 a 0.361,0.361 0 0 0 -0.36,0.36 v 1.715 h -6.134 a 0.341,0.341 0 0 0 -0.34,0.34 v 2.396 c 0,0.187 0.153,0.34 0.34,0.34 h 6.134 v 8.403 c 0,0.198 0.162,0.36 0.36,0.36 h 3.608 c 0.198,0 0.36,-0.162 0.36,-0.36 z"
         inkscape:connector-curvature="0" />
      <path
         id="path6"
         d="m 206.061,14.132 c 0,0 2.83,0.053 2.828,0 l -0.054,3.959 c 0,1.966 -2.172,3.743 -5.224,3.743 0,0 -0.568,-2.19 -0.35,-3.635 0,0 1.509,0.15 2.172,-0.44 0.862,-0.767 0.628,-3.627 0.628,-3.627 z m 13.709,0 c 0,0 -2.83,0.053 -2.828,0 l 0.054,3.959 c 0,1.966 2.172,3.743 5.224,3.743 0,0 0.568,-2.19 0.35,-3.635 0,0 -1.509,0.15 -2.172,-0.44 -0.862,-0.767 -0.628,-3.627 -0.628,-3.627 z m -2.165,-4.696 h -0.787 a 1.004,1.004 0 0 1 -1.001,-1.001 c 0,-0.551 0.451,-1.001 1.001,-1.001 h 0.787 c 0.551,0 1.001,0.451 1.001,1.001 0.001,0.55 -0.45,1.001 -1.001,1.001 z m 3.366,0 h -0.787 a 1.004,1.004 0 0 1 -1.001,-1.001 c 0,-0.551 0.451,-1.001 1.001,-1.001 h 0.787 c 0.551,0 1.001,0.451 1.001,1.001 0.001,0.55 -0.45,1.001 -1.001,1.001 z"
         inkscape:connector-curvature="0" />
    </g>
    <g
       id="g16"
       style="fill:#cb4414">
      <path
         id="path10"
         d="m 92.921,18.531 v -1.827 h 3.346 c 2.777,0 3.395,-0.025 3.629,-0.147 l 0.443,-0.149 c 0.087,0 0.451,-0.154 0.807,-0.339 0.812,-0.422 2.54,-2.111 2.54,-2.48 l 0.202,-0.75 c 0.135,-0.339 0.194,-0.681 0.174,-1.015 l -0.03,-0.503 -5.135,-0.025 c -4.687,-0.023 -5.146,-0.04 -5.258,-0.192 -0.087,-0.117 -0.124,-0.633 -0.124,-1.722 0,-1.281 0.027,-1.581 0.155,-1.708 0.137,-0.139 0.877,-0.155 6.654,-0.155 5.529,0 6.516,0.02 6.616,0.142 0.087,0.104 0.109,0.878 0.085,2.942 -0.027,2.468 -0.052,2.832 -0.204,3.064 l -0.175,0.439 -0.247,0.671 -0.244,0.675 c 0,0.099 0.366,0.573 0.815,1.054 1.486,1.595 2.147,2.366 2.147,2.511 l 0.124,0.224 0.362,0.349 0.125,0.519 -0.114,0.247 h -3.336 l -0.708,-0.745 c -0.389,-0.411 -0.756,-0.852 -0.815,-0.98 -0.142,-0.312 -0.422,-0.371 -0.686,-0.14 l -0.317,0.187 -0.26,0.144 -1.62,0.843 -0.504,0.197 -0.715,0.257 -0.381,0.15 c -0.03,0.048 -1.688,0.087 -3.702,0.087 h -3.649 z"
         inkscape:connector-curvature="0" />
      <path
         id="path12"
         d="m 108.993,15.451 c -0.359,-0.057 -0.382,-0.187 -0.349,-1.955 l 0.028,-1.481 5.865,-0.027 c 4.25,-0.018 5.903,0.007 6,0.087 0.104,0.085 0.135,0.468 0.135,1.618 0,1.281 -0.025,1.526 -0.164,1.641 -0.134,0.112 -1.166,0.139 -5.704,0.147 -3.045,0.006 -5.66,-0.007 -5.811,-0.03 z m 81.725,0 -0.329,-0.309 0.043,-3.054 c 0.063,-0.097 1.363,-0.124 5.946,-0.124 5.699,0 5.87,0.005 5.97,0.192 l -0.038,3.123 c -0.135,0.185 -0.319,0.192 -5.753,0.204 -3.086,0.006 -5.714,-0.007 -5.839,-0.032 z m -68.158,4.752 c -0.119,-0.309 -0.067,-3.552 0.058,-3.677 0.089,-0.087 1.11,-0.119 3.991,-0.119 3.156,0 3.926,-0.025 4.153,-0.14 0.154,-0.077 0.613,-0.244 1.02,-0.371 0.933,-0.289 1.541,-0.7 1.952,-1.321 l 0.322,-0.488 -0.025,-1.531 -0.027,-1.531 -6.2,-0.025 -6.2,-0.025 -0.095,-0.252 c -0.053,-0.139 -0.097,-0.828 -0.097,-1.53 0,-1.147 0.02,-1.299 0.199,-1.476 0.194,-0.194 0.329,-0.197 7.646,-0.197 6.639,0 7.466,0.017 7.604,0.155 0.134,0.135 0.154,0.591 0.154,3.512 0,3.164 -0.012,3.395 -0.212,4.018 a 12.906,12.906 0 0 1 -0.758,1.875 c -0.209,0.416 -1.815,1.994 -2.029,1.994 l -0.16,0.092 c 0,0.204 -1.019,0.685 -1.925,0.908 l -0.489,0.192 c -0.055,0.055 -1.859,0.092 -4.458,0.092 -3.89,0 -4.37,-0.016 -4.424,-0.155 z m 16.54,0.018 c -0.077,-0.092 -0.105,-0.593 -0.087,-1.551 l 0.028,-1.414 0.247,-0.068 c 0.135,-0.037 1.02,-0.072 1.965,-0.078 l 1.72,-0.01 0.329,-0.369 c 0.304,-0.341 0.331,-0.424 0.331,-1.019 0,-1.017 -0.12,-0.97 2.582,-1.004 2.176,-0.025 2.351,-0.042 2.555,-0.225 l 0.341,-0.852 c -0.057,-0.177 -0.269,-0.185 -5.278,-0.185 -2.87,0 -5.29,-0.027 -5.375,-0.06 v -2.842 c 0.085,-0.033 3.076,-0.06 6.646,-0.06 4.916,0 6.519,0.028 6.609,0.119 0.165,0.165 0.155,4.013 -0.013,4.622 -0.282,1.02 -0.73,1.57 -1.7,2.089 l -0.588,0.316 -1.852,0.042 -1.852,0.04 v 0.503 c 0,0.853 -0.438,1.543 -1.241,1.95 -0.349,0.179 -0.588,0.195 -2.817,0.195 -1.957,-0.002 -2.458,-0.029 -2.55,-0.139 z m 29.747,-8.21 -15.183,-1.33 -0.474,-0.519 V 7.935 l 0.474,-0.438 15.183,1.328 0.475,0.521 v 2.227 z m 0,4.186 -15.183,-1.329 -0.474,-0.52 v -2.229 l 0.474,-0.436 15.183,1.328 0.475,0.521 v 2.227 z m 0,4.186 -15.183,-1.329 -0.474,-0.519 v -2.23 l 0.474,-0.437 15.183,1.329 0.475,0.521 v 2.228 z M 185.281,8.085 h -11.466 c 0.015,0.274 -0.202,1.106 -0.794,1.939 a 3.495,3.495 0 0 1 -1.321,1.107 v 3.649 c 0.279,-0.006 2.382,-0.085 3.716,-1.845 0.933,-1.232 0.943,-2.565 0.929,-2.989 h 8.829 c -0.002,0.307 -0.004,0.658 -0.004,1.056 0,0.391 0,0.704 -0.002,0.962 -0.004,0.709 -8.823,0.551 -8.823,0.551 l -0.013,2.316 c 0,0 8.098,-0.099 8.291,0.231 0.101,0.173 -0.157,0.658 -0.356,0.874 -0.757,0.822 -1.092,0.748 -1.741,0.934 -0.767,0.219 -1.667,0.184 -5.18,0.205 -3.821,0.025 -4.445,0.048 -4.521,0.177 l 0.025,3.393 c 0.064,0.03 2.333,0.043 5.043,0.03 5.506,-0.023 4.981,0.038 6.616,-0.781 0.626,-0.314 0.916,-0.541 1.575,-1.241 0.76,-0.808 1.059,-1.496 1.366,-2.219 0.202,-0.623 0.165,-0.549 0.192,-4.243 0.025,-3.291 0.008,-4.068 -0.092,-4.136 z m 29.229,4.225 h 6.312 c 0.187,0 0.34,-0.153 0.34,-0.34 V 9.574 a 0.341,0.341 0 0 0 -0.34,-0.34 H 214.51 V 7.519 a 0.361,0.361 0 0 0 -0.36,-0.36 h -3.608 a 0.361,0.361 0 0 0 -0.36,0.36 v 1.715 h -6.134 a 0.341,0.341 0 0 0 -0.34,0.34 v 2.396 c 0,0.187 0.153,0.34 0.34,0.34 h 6.134 v 8.403 c 0,0.198 0.162,0.36 0.36,0.36 h 3.608 c 0.198,0 0.36,-0.162 0.36,-0.36 z"
         inkscape:connector-curvature="0" />
      <path
         id="path14"
         d="m 205.577,13.322 c 0,0 2.83,0.053 2.828,0 l -0.054,3.959 c 0,1.966 -2.172,3.743 -5.224,3.743 0,0 -0.568,-2.19 -0.35,-3.635 0,0 1.509,0.15 2.172,-0.44 0.862,-0.766 0.628,-3.627 0.628,-3.627 z m 13.708,0 c 0,0 -2.83,0.053 -2.828,0 l 0.054,3.959 c 0,1.966 2.172,3.743 5.224,3.743 0,0 0.568,-2.19 0.35,-3.635 0,0 -1.509,0.15 -2.172,-0.44 -0.862,-0.766 -0.628,-3.627 -0.628,-3.627 z m -2.164,-4.696 h -0.787 a 1.004,1.004 0 0 1 -1.001,-1.001 c 0,-0.551 0.451,-1.001 1.001,-1.001 h 0.787 c 0.551,0 1.001,0.451 1.001,1.001 0,0.551 -0.45,1.001 -1.001,1.001 z m 3.366,0 H 219.7 a 1.004,1.004 0 0 1 -1.001,-1.001 c 0,-0.551 0.451,-1.001 1.001,-1.001 h 0.787 c 0.551,0 1.001,0.451 1.001,1.001 0,0.551 -0.45,1.001 -1.001,1.001 z"
         inkscape:connector-curvature="0" />
    </g>
    <g
       id="g20">
      <path
         id="path18"
         d="m 98.43,40.561 c -1.61,6.729 -4.768,10.094 -9.476,10.094 -4.51,0 -5.992,-3.237 -4.444,-9.709 L 88.016,26.29 h 2.939 l -3.31,13.837 c -1.125,4.701 -0.338,7.052 2.362,7.052 2.6,0 4.443,-2.267 5.528,-6.801 l 3.37,-14.087 h 2.938 z m 16.322,-10.895 h -6.617 l -1.723,7.202 h 6.098 l -0.803,3.358 h -6.098 l -2.399,10.027 h -2.939 l 5.733,-23.963 h 9.556 z m 11.756,20.587 h -3.223 l -0.133,-6.099 h -6.963 l -2.99,6.099 h -3.21 L 122.351,26.29 h 3.31 z m -3.359,-9.342 -0.169,-9.558 c 0,-0.311 0.042,-0.813 0.125,-1.503 h -0.05 a 15.595,15.595 0 0 1 -0.606,1.503 l -4.719,9.558 z m 24.803,9.342 h -2.913 l 3.71,-15.508 a 86.02,86.02 0 0 1 1.287,-4.662 h -0.049 c -0.432,1.047 -0.771,1.799 -1.022,2.256 l -9.569,17.914 h -2.025 l -1.043,-17.78 c -0.023,-0.524 0.011,-1.32 0.102,-2.389 h -0.049 c -0.163,0.958 -0.505,2.523 -1.024,4.696 l -3.702,15.474 h -2.717 l 5.733,-23.963 h 4.136 l 0.838,15.959 c 0.061,1.225 0.073,2.139 0.035,2.74 h 0.062 a 66.386,66.386 0 0 1 1.412,-2.807 l 8.543,-15.892 h 3.988 z m 7.372,0 h -3.026 l 5.733,-23.963 h 3.026 z m 29.48,-20.587 h -5.092 l -4.931,20.587 h -2.942 l 4.931,-20.587 h -5.081 l 0.809,-3.376 h 13.114 z m 13.62,10.895 c -1.612,6.729 -4.774,10.094 -9.488,10.094 -4.517,0 -5.998,-3.237 -4.448,-9.709 l 3.51,-14.656 h 2.942 l -3.314,13.837 c -1.126,4.701 -0.337,7.052 2.364,7.052 2.605,0 4.45,-2.267 5.536,-6.801 L 198.9,26.291 h 2.942 z m 15.542,9.692 h -3.437 l -1.294,-6.417 a 11.3,11.3 0 0 0 -0.386,-1.513 4.08,4.08 0 0 0 -0.496,-1.027 1.676,1.676 0 0 0 -0.681,-0.584 c -0.267,-0.123 -0.587,-0.184 -0.959,-0.184 h -1.187 l -2.329,9.725 h -2.929 l 5.74,-23.963 h 5.835 c 0.832,0 1.566,0.134 2.202,0.401 a 3.564,3.564 0 0 1 1.54,1.211 c 0.389,0.541 0.635,1.214 0.734,2.022 0.099,0.808 0.019,1.753 -0.24,2.832 a 10.904,10.904 0 0 1 -0.836,2.332 9.163,9.163 0 0 1 -1.244,1.888 7.997,7.997 0 0 1 -1.575,1.412 7.245,7.245 0 0 1 -1.842,0.903 l -0.016,0.067 c 0.263,0.245 0.478,0.515 0.648,0.81 0.167,0.295 0.32,0.599 0.461,0.911 0.141,0.311 0.267,0.665 0.383,1.061 0.114,0.396 0.238,0.855 0.368,1.379 z m -5.801,-20.738 -1.865,7.787 h 2.449 c 0.453,0 0.894,-0.095 1.322,-0.285 a 4.04,4.04 0 0 0 1.193,-0.818 c 0.365,-0.357 0.687,-0.791 0.966,-1.304 a 6.99,6.99 0 0 0 0.648,-1.721 c 0.275,-1.147 0.22,-2.044 -0.16,-2.691 -0.38,-0.646 -1.074,-0.969 -2.079,-0.969 h -2.474 z m 7.863,20.738 5.74,-23.963 h 5.624 c 1.715,0 2.95,0.508 3.71,1.521 0.758,1.014 0.943,2.334 0.554,3.96 -0.326,1.36 -0.895,2.54 -1.703,3.543 -0.808,1.003 -1.767,1.716 -2.873,2.139 l -0.016,0.067 c 1.175,0.19 2.002,0.8 2.487,1.83 0.482,1.031 0.525,2.37 0.13,4.019 -0.491,2.05 -1.486,3.709 -2.985,4.98 -1.499,1.27 -3.16,1.905 -4.98,1.905 h -5.688 z m 7.904,-20.771 -1.633,6.818 h 1.905 c 1.022,0 1.9,-0.326 2.637,-0.977 0.737,-0.652 1.248,-1.573 1.534,-2.765 0.491,-2.05 -0.277,-3.075 -2.303,-3.075 h -2.14 z m -2.397,10.009 -1.817,7.587 h 2.509 c 1.097,0 2.025,-0.342 2.787,-1.027 0.762,-0.685 1.287,-1.63 1.575,-2.832 0.595,-2.484 -0.38,-3.727 -2.927,-3.727 h -2.127 z m 16.995,11.163 c -2.555,0 -4.332,-1.12 -5.334,-3.359 -0.999,-2.239 -1.07,-5.153 -0.211,-8.739 0.923,-3.854 2.443,-6.93 4.558,-9.225 2.115,-2.295 4.516,-3.442 7.203,-3.442 2.488,0 4.227,1.114 5.212,3.342 0.987,2.228 1.05,5.141 0.188,8.739 -0.937,3.911 -2.456,7.002 -4.557,9.275 -2.103,2.273 -4.456,3.409 -7.059,3.409 z m 5.231,-21.273 c -1.623,0 -3.14,0.819 -4.55,2.456 -1.41,1.638 -2.436,3.794 -3.076,6.468 -0.638,2.662 -0.656,4.807 -0.057,6.433 0.598,1.627 1.699,2.44 3.297,2.44 1.697,0 3.221,-0.774 4.574,-2.323 1.351,-1.548 2.361,-3.715 3.028,-6.5 0.686,-2.863 0.739,-5.074 0.16,-6.635 -0.577,-1.559 -1.703,-2.339 -3.376,-2.339 z M 84.911,28.43 c -0.018,0.097 -0.045,0.21 -0.079,0.338 a 4.274,4.274 0 0 1 -0.137,0.403 c -0.056,0.14 -0.117,0.287 -0.186,0.439 a 2.823,2.823 0 0 1 -0.227,0.402 1.386,1.386 0 0 1 -0.259,0.284 0.446,0.446 0 0 1 -0.28,0.11 c -0.134,0 -0.301,-0.079 -0.507,-0.237 a 5.832,5.832 0 0 0 -0.809,-0.504 8.097,8.097 0 0 0 -1.215,-0.503 c -0.475,-0.158 -1.043,-0.238 -1.703,-0.238 -0.734,0 -1.396,0.113 -1.988,0.338 a 5.109,5.109 0 0 0 -1.554,0.915 4.942,4.942 0 0 0 -1.629,2.826 c -0.097,0.537 -0.065,1.006 0.096,1.409 0.162,0.403 0.4,0.768 0.719,1.097 0.319,0.328 0.694,0.64 1.127,0.933 0.434,0.292 0.876,0.592 1.325,0.896 0.448,0.306 0.888,0.632 1.318,0.979 0.427,0.348 0.791,0.75 1.086,1.208 0.296,0.457 0.505,0.982 0.632,1.573 0.127,0.592 0.122,1.278 -0.02,2.058 a 7.983,7.983 0 0 1 -1.159,2.918 9.238,9.238 0 0 1 -2.225,2.378 c -0.896,0.677 -1.928,1.213 -3.091,1.609 -1.164,0.397 -2.42,0.595 -3.764,0.595 a 9.744,9.744 0 0 1 -3.626,-0.667 7.06,7.06 0 0 1 -1.173,-0.585 c -0.311,-0.202 -0.531,-0.381 -0.657,-0.54 -0.129,-0.159 -0.164,-0.391 -0.108,-0.696 0.013,-0.073 0.041,-0.176 0.082,-0.31 0.042,-0.135 0.097,-0.281 0.161,-0.44 0.066,-0.158 0.131,-0.314 0.203,-0.466 0.069,-0.153 0.15,-0.292 0.239,-0.42 0.089,-0.128 0.18,-0.232 0.27,-0.311 a 0.46,0.46 0 0 1 0.302,-0.119 c 0.193,0 0.414,0.097 0.667,0.292 0.252,0.195 0.573,0.406 0.957,0.632 a 8.31,8.31 0 0 0 1.408,0.631 c 0.553,0.195 1.225,0.293 2.018,0.293 a 7.18,7.18 0 0 0 2.316,-0.357 6.198,6.198 0 0 0 1.843,-0.969 5.45,5.45 0 0 0 1.295,-1.436 5.05,5.05 0 0 0 0.678,-1.757 c 0.1,-0.549 0.072,-1.027 -0.081,-1.436 a 3.24,3.24 0 0 0 -0.7,-1.107 6.168,6.168 0 0 0 -1.121,-0.915 c -0.436,-0.28 -0.876,-0.572 -1.319,-0.878 -0.441,-0.304 -0.873,-0.63 -1.29,-0.978 a 5.136,5.136 0 0 1 -1.06,-1.208 4.797,4.797 0 0 1 -0.623,-1.573 c -0.128,-0.591 -0.12,-1.284 0.023,-2.076 a 7.637,7.637 0 0 1 1.05,-2.707 8.68,8.68 0 0 1 1.986,-2.214 9.49,9.49 0 0 1 2.757,-1.5 c 1.039,-0.365 2.158,-0.548 3.36,-0.548 0.576,0 1.117,0.049 1.62,0.147 0.506,0.097 0.955,0.216 1.35,0.356 0.395,0.14 0.727,0.293 0.996,0.457 0.27,0.165 0.451,0.302 0.539,0.412 0.088,0.11 0.146,0.222 0.173,0.339 0.027,0.114 0.025,0.257 -0.006,0.428 z"
         inkscape:connector-curvature="0"
         style="fill:#1e2881" />
    </g>
  </g>
</svg>
