<?xml version="1.0" encoding="UTF-8" standalone="no"?>
<svg
   xmlns:dc="http://purl.org/dc/elements/1.1/"
   xmlns:cc="http://creativecommons.org/ns#"
   xmlns:rdf="http://www.w3.org/1999/02/22-rdf-syntax-ns#"
   xmlns:svg="http://www.w3.org/2000/svg"
   xmlns="http://www.w3.org/2000/svg"
   id="svg2"
   height="241.07036"
   width="590.70001"
   version="1.1">
  <text
     transform="scale(1.0000477,0.99995231)"
     id="text2934"
     y="69.080887"
     x="549.02216"
     style="font-size:22.10960579px;fill:#ca010c;fill-opacity:1;stroke:#ca010c;stroke-width:1px;stroke-linecap:butt;stroke-linejoin:miter;stroke-opacity:1"
     xml:space="preserve"><tspan
       style="fill:#ca010c;fill-opacity:1;stroke:#ca010c;stroke-width:1;stroke-opacity:1"
       y="69.080887"
       x="549.02216"
       id="tspan2936">®</tspan></text>
  <path
     id="path4"
     style="fill:#ca010c"
     d="m 490.3,41.695359 14.175,14.875 -35.225,124.725001 -18.425,15.025 51.775,-0.675 -12.075,-11.45 8.25,-37.375 27.675,0.2 7.525,36.575 -11.775,12.825 63.6,-0.475 -15.775,-15.025 -37.075,-138.725001 -42.65,-0.5 z m 22.80715,55.06838 9.79267,34.642221 -18.51396,-0.6 8.72129,-34.042221 z" />
  <path
     id="path6"
     style="fill:#ca010c"
     d="m 409.2282,44.113583 -38.53493,-1.414224 14.67132,14.235611 0.19284,126.28596 -19.78543,15.63543 51.19248,-2.24991 C 506.58412,179.78835 491.64532,41.034161 409.2282,44.113583 Z m 6.82188,12.332164 c 30.15086,0.950045 47.27852,103.745853 1.15,126.525093 l -1.15,-126.525093 z" />
  <path
     id="path8"
     style="fill:#ca010c"
     d="m 27.9,15.870359 -17.6,47.9 46.1,-36.2 91.1,0.9 -136.2,207.100001 165.57496,2.625 14.72862,-40.16431 87.76773,-1.02509 -0.97853,-69.77836 -21.54275,54.99276 -27.01448,-0.0999 0.19285,-54.96458 15.0787,-1.46422 14.55706,16.59285 -0.1,-48.613961 -14.92844,15.671371 -14.57871,-0.27853 -0.0215,-52.586042 26.31448,-1.564223 22.72128,46.792845 0.68569,-59.692668 -93.7998,0.685689 12.22862,15.228445 0.48569,125.978714 -43.77147,39.06421 -99.2,0.5 L 191.69996,15.970359 27.9,15.870359 Z" />
  <path
     id="path10"
     style="fill:#ca010c"
     d="m 281.12164,43.28467 65.87103,-1.071378 -15.35707,13.528622 0.69285,125.992846 14.49302,-0.39285 20.86422,-56.55706 0.87853,71.14973 -88.46404,-0.29284 19.34991,-13.55707 L 298.37871,55.370359 281.12164,43.28467 Z" />
  <path
     id="path14"
     style="fill:#ca010c"
     d="m 358.8,11.770359 c -0.1,-11.40000001 13.7,-13.3 22.3,-10.80000001 l 0.1,6.70000001 c -1.4,-6.1 -8.1,-6.80000001 -13.2,-5.5 -2.2,1.6 -3.2,4.1 -3.9,6.7 0.4,5.1 0.4,12.9 7.3,14 1.6,-0.3 3.3,-0.4 5,-0.5 l 0.3,-7.8 c -1.1,-0.7 -2.1,-1.4 -3.2,-2.1 5.3799,1.414214 5.34437,1.089949 10.4,0 -0.6,0.5 -1.6,1.4 -2.1,1.9 l 0,8.5 c -8.7,3.5 -23.9,0.9 -23,-11.1 z" />
  <path
     id="path16"
     style="fill:#ca010c"
     d="M 416.1,0.67035899 429,15.870359 l 0,-13.3875 -3,-2.01250001 c 3.9,0.70000001 4.1,0.80000001 8.4,0.2 l -3,1.90000001 0,21.8 -17.6,-20.5 0,17.6 3.7,3 c -4.79706,-1.231371 -5.06863,-1.414214 -9.3,0 l 3.2,-3 0,-19.1 c -1.3,-0.6 -2,-1.2 -3.2,-1.80000001 3.7,0.70000001 3,-0.1 7.9,0.1 z" />
  <path
     id="path18"
     d="m 489.8375,0.10785899 c -4.91377,0.190338 -9.78125,2.68750001 -11.75,7.46875001 -0.2,1.3 -0.39375,2.69375 -0.59375,4.09375 -0.2,4.8 2.49375,9.1125 6.59375,11.3125 9.5,4.9 22.325,-3.725 18.625,-14.625 -1.64687,-5.7375 -7.30606,-8.46571701 -12.875,-8.25000001 z M 489.11875,1.670359 c 10.41833,-0.618896 11.6875,19.53125 1.28125,21.40625 -2.9,-0.6 -5.00625,-2.71875 -6.40625,-5.21875 -0.4,-1.3 0.006,-2.875 -1.09375,-3.875 -0.3,-4.3 0.5,-9.00625 4,-11.90625 0.775,-0.2375 1.52419,-0.36499 2.21875,-0.40625 z"
     style="fill:#ca010c" />
  <path
     id="path20"
     style="fill:#ca010c"
     d="m 229.85563,0.79462299 17.38874,-0.141421 1.58994,6.41005001 C 246.73431,4.163252 245.2,0.97035899 241,2.270359 l 0.66863,19.244365 c 0.5,0.2 2.63137,2.055635 3.13137,2.255635 -6.46274,-1.072792 -6.4201,-1.131371 -12.6,0.1 1.2,-0.7 2.3,-1.4 3.6,-1.9 l 0,-19.8 c -4.1,-1 -5.83431,1.610051 -7.23431,4.810051 l 1.28994,-6.18578701 z" />
  <path
     id="path22"
     style="fill:#ca010c"
     d="m 249.8,0.47035899 c 5.2,0.70000001 5.4,0.70000001 11.3,-0.1 C 260.3,1.270359 259.3,1.970359 258.2,2.370359 l 0.4,8.8 9.6,0.1 0,-8.8 -2.3,-2.10000001 c 4.7,1.20000001 4.9,1.20000001 10.9,0.2 l -3,1.60000001 0,19.6 2.5,2.1 c -5.5,-1 -6.1,-0.9 -11.3,0.1 l 3.2,-1.859073 0,-9.240927 -10.1,0 0.5,9.4 c 1.7,1.1 1.2,1 2.7,1.7 -5.4,-1.5 -5.5,-1.5 -10.9,0 l 1.7125,-2.151563 -0.15,-19.865625 L 249.8,0.47035899 Z" />
  <path
     id="path24"
     style="fill:#ca010c"
     d="m 278.5,0.57035899 c 5.8,1.40000001 9.85147,0.341421 17.35147,0.44142101 0,2.1 0.48284,3.492894 0.38284,5.592894 -2.17475,-4.512252 -1.6625,-4.499019 -6.1,-4.627208 l -4.59991,0.1 0,8.992893 5.8656,-0.1 2.5,-4.3 c -0.63333,4.9 -0.66667,4.8 0.2,9.9 l -2.7,-4.1 -5.8656,-0.2 0,10.507107 6.44722,-0.192893 c 4.27696,-1.175736 4.55269,-2.251472 5.91838,-5.914214 0.2,2.3 0.2,4.6 0.2,6.9 -6.3,-0.6 -13.2,-0.8 -19.8,0.3 l 1.8,-1.4 0,-20.5 c -0.4,-0.3 -1.2,-1.10000001 -1.6,-1.40000001 z" />
  <path
     id="path26"
     style="fill:#ca010c"
     d="m 313.5,0.37035899 c 5.35563,0.76568501 5.90294,0.94852801 11.5,0.1 L 321.89926,2.716448 322,22.070359 c 4.9,1.1 10.8,0.2 11.7,-5.8 0.6,2.4 0.4,4.9 0.4,7.3 -7.77503,-0.0628 -13.61889,-1.310395 -20.25147,0.3 L 316.7875,21.482848 316.6,2.570359 313.5,0.37035899 Z" />
  <path
     id="path28"
     d="m 446.775,0.29535899 c -5.03398,0.04238 -5.9,1.24375001 -10.1875,0.28125 l 2.65625,2.06250001 -0.34375,19.625 -2.5,1.71875 c 4.9,-1.3 4.2,0.175 14,-0.125 15.29386,-0.355212 13.8125,-23.60000001 -1.1875,-23.50000001 -0.9125,-0.05 -1.71836,-0.06855 -2.4375,-0.0625 z M 447.4,1.482859 c 10.1,0.2 11.80625,14.8875 4.90625,20.1875 -2.4,0.8 -4.19375,1.6 -7.59375,0.5 -0.4,-6.7 -0.125,-13.3 -0.125,-20 0.7,-0.1 2.1125,-0.4875 2.8125,-0.6875 z"
     style="fill:#ca010c" />
  <path
     id="path30"
     style="fill:#ca010c"
     d="m 506.1,0.77035899 c 5.80651,1.30976701 6.30538,0.0081 19.1,0.1 -0.1,2.10000001 0,4.30000001 -0.1,6.40000001 -0.6,-1.2 -1.1,-2.4 -1.6,-3.6 -0.5,-0.4 -1.5,-1 -2,-1.4 -2.3,-0.1 -4.5,-0.2 -6.8,-0.3 -0.3,3 -0.2,6 -0.2,9.1 3.8,0.7 6.5,-0.6 8.2,-4.1 -0.2,3.1 -0.2,6.3 0,9.4 -1.7,-3.7 -4.7,-4.8 -8.6,-4 0.3,3.3 0.5,6.6 0.5,9.9 0.5,0.4 1.4,1.2 1.9,1.7 -3.72619,-1.504775 -7.00063,-1.002501 -10.2,0 l 2.9125,-2.1375 -0.3125,-19.3625 c -1,-0.5 -1.9,-1.1 -2.8,-1.70000001 z" />
  <path
     id="path36"
     style="fill:#ef9fa1"
     d="M 160.14293,37.756048 127.9,99.270359 l -13,6.300001 45.24293,-67.814312 z" />
  <path
     id="path38"
     style="fill:#7d0609"
     d="M 160.16422,37.620447 115.5,104.57036 114.3,91.770359 160.16422,37.620447 Z" />
  <path
     id="path40"
     style="fill:#ef9fa1"
     d="m 284.4,38.170359 c 21.8,1.3 43.6,0.1 65.4,0.6 -2.1,2.1 -4.3,4.3 -7.2,5.2 -18.8,-0.3 -37.7,-0.2 -56.5,-0.1 -0.4,-0.1 -1.1,-0.4 -1.4,-0.6 -0.1,-1.7 -0.2,-3.4 -0.3,-5.1 z" />
  <path
     id="path42"
     style="fill:#7d0609"
     d="m 350.5,38.070359 1.6837,5.864488 -16.5837,12.535512 0.6,123.000001 -6.4,4.2 -0.8,-131.149736 13.6,-8.550265 7.9,-5.9 z" />
  <path
     id="path44"
     style="fill:#ef9fa1"
     d="m 367.6,38.670359 c 24.9,0.5 49.77525,-2.6 73.57525,6.4 l -4.47525,4.8 c -19.6,-8.6 -41.5,-5.3 -62.2,-6 l -11.4,0.1 4.5,-5.3 z" />
  <path
     id="path46"
     style="fill:#ef9fa1"
     d="m 488.07138,38.770359 47.82862,0 -5,4.4 -46.4,0 3.57138,-4.4 z" />
  <path
     id="path48"
     style="fill:#7d0609"
     d="m 535.9,38.770359 0.7,-0.8 35.6,139.400001 18.5,17.9 -0.4,5.1 -71.7,0.5 -1.6,-5.8 9.3,-0.4 55.1,-0.2 -14,-11.8 -36.5,-139.300001 5,-4.6 z" />
  <path
     id="path50"
     style="fill:#7d0609"
     d="m 284.4,38.170359 0.3,5.1 15.8,11 -6.9,1.2 -9,-5.4 0,54.300001 -11.5,0.1 5,-4.2 -0.1,-56.500001 6.4,-5.6 z" />
  <path
     id="path52"
     style="fill:#7d0609"
     d="m 363.1,43.970359 c 3.8,0 7.6,-0.1 11.4,-0.1 4.1,4.3 9.1,7.6 13.5,11.6 -2.3,1.5 -4.7,2.7 -7.4,3.3 -5.7,-5.2 -11.6,-9.9 -17.5,-14.8 z" />
  <path
     id="path54"
     style="fill:#7d0609"
     d="m 485.11431,43.170359 8.98569,0 13,13.1 -6.62862,0.392845 -15.35707,-13.492845 z" />
  <path
     id="path56"
     style="fill:#ef9fa1"
     d="m 500.71431,56.970359 6.38569,-0.7 -35.5,126.500001 -15.5,11.5 -9.6,6.6 -1.1,-5.9 21.6,-16.5 33.71431,-121.500001 z" />
  <path
     id="path58"
     style="fill:#7d0609"
     d="m 436.7,49.870359 4.51061,-4.703536 c 31.4,13.2 41.68939,50.403536 38.88939,81.703537 -0.7,15.5 -3.9,31.3 -12.5,44.5 -12.8,21.5 -39.4,29.7 -63.2,29.3 -69.9,0.4 -139.8,-0.1 -209.8,0.2 l -14.1,40.2 -173.2,0 -3.5,-5.8 170.72809,0.9 15.92182,-42.1356 87.75009,0.3356 0,-65.5 6.7,-4.6 -0.3,64.2 -1.5,6.12 84,-0.12 0,-65 6.7,-6.2 0,62 -2.8,9.5 48.6,-0.8 c 21.9,-1.9 42.5,-17 48.5,-38.5 11.1,-36.1 8.1,-88.300001 -31.4,-105.600001 z" />
  <path
     id="path60"
     style="fill:#7d0609"
     d="m 227.4,52.670359 31.44276,-0.0072 -4.84276,4.9072 -19.9,0 -0.2,0.8 0,48.700001 -6.2,4.6 -0.3,-59.000001 z" />
  <path
     id="path62"
     style="fill:#ef9fa1"
     d="m 258.4,52.570359 19.7,47.700001 -5,4.2 -0.3,0.2 -18.8,-47.100001 4.4,-5 z" />
  <path
     id="path64"
     style="fill:#ef9fa1"
     d="m 411.8,52.670359 c 30.5,4.8 37.8,42.3 37.8,68.000001 -0.7,24.8 -7.6,60.9 -36.8,65.6 l 6.4,-7.4 c 8.5,-2.8 12.6,-11.8 16,-19.4 10.3,-27.6 10.3,-60.200001 -2.8,-86.900001 -3.1,-5.3 -6.9,-11.3 -13.3,-12.9 l -7.3,-7 z" />
  <path
     id="path68"
     style="fill:#7d0609"
     d="m 412.3,53.170359 6.8,6.5 0.1,119.200001 -5.8,6.7 -1.1,-132.400001 z" />
  <path
     id="path70"
     style="fill:#ef9fa1"
     d="m 300.5,54.270359 1,128.400001 -18.1,12 1.2,-6.2 10.2,-7.8 -1.2,-125.200001 6.9,-1.2 z" />
  <path
     id="path74"
     style="fill:#ef9fa1"
     d="m 380.6,58.770359 7.4,-3.3 -0.1,129.800001 -16.9,9.5 2.8,-9.5 7.6,-3.8 -0.8,-122.700001 z" />
  <path
     id="path76"
     style="fill:#ef9fa1"
     d="m 195.3,57.770359 6.4,-1.6 -0.1,129.200001 -46.7,37.6 -99.2,0.5 0.3,-1.1 11,-5.2 86.2,0.2 42.3,-35.6 -0.2,-124.000001 z" />
  <path
     id="path82"
     style="fill:#ef9fa1"
     d="m 513.9,85.970359 12.5,47.900001 -26.6,0 8.1,-5.7 10.9,0.6 -5.4,-20 0.5,-22.800001 z" />
  <path
     id="path84"
     style="fill:#7d0609"
     d="m 513.9,87.070359 -0.5,21.700001 -5.5,19.4 -7.7,5.68569 13.7,-46.785691 z" />
  <path
     id="path86"
     style="fill:#ef9fa1"
     d="m 258.9,88.570359 6.6,2.2 -7.4,7 -12,14.500001 -18.4,-0.6 6.2,-4.6 9.7,0.1 15.3,-18.600001 z" />
  <path
     id="path88"
     style="fill:#7d0609"
     d="m 258.1,97.770359 c 2.2,-2.6 4.8,-4.8 7.4,-7 0,18.200001 0.1,36.400001 0,54.600001 -0.1,0.3 -0.4,0.8 -0.5,1.1 -0.9,0.3 -1.9,0.6 -2.9,0.9 -1.7,0.5 -3.4,0.8 -5.1,1.2 -4.5,-6.6 -9.1,-13.1 -13.6,-19.7 -3,-0.1 -5.9,-0.1 -8.9,-0.1 l -1.1,0 c 0,16.8 0.2,33.6 0,50.4 -2.1,1.7 -4.2,3.3 -6.2,5 -0.1,-20.6 -0.1,-41.2 -0.1,-61.7 6.1,0.1 12.2,0.1 18.3,0 5,4.9 8.4,11 12.8,16.3 0.1,-13.7 0.2,-27.4 -0.1,-41.000001 z" />
  <path
     id="path90"
     style="fill:#7d0609"
     d="m 94.1,121.47036 13.4,-5.3 1.1,12 -12.5,5.1 -2,-11.8 z" />
  <path
     id="path92"
     style="fill:#ef9fa1"
     d="m 362.4,123.67036 11.22122,-0.32122 -6.52122,6.12122 -19.4,54.8 -18.3,0.1 6.8,-4.9 7.1,-0.4 19.1,-55.4 z" />
  <path
     id="path94"
     style="fill:#ef9fa1"
     d="m 273.3,124.67036 11.28569,-0.0928 -6.38569,4.2928 -19.3,55.4 -31.7,0 0,-0.1 6.2,-5 21.8,-0.3 18.1,-54.2 z" />
  <path
     id="path96"
     style="fill:#ef9fa1"
     d="m 96.1,133.27036 5.2,-8 6.9,3.2 -12.5,5.4 0.4,-0.6 z" />
  <path
     id="path98"
     style="fill:#7d0609"
     d="m 497.3,144.47036 31.2,0.2 -5.1,5.2 -21.3,0.3 -8.6,33.3 13.90517,11.81767 -1.70517,4.98233 -59.2,0.6 9.6,-6.6 42.4,0.2 -11.5,-8.8 10.3,-41.2 z" />
  <path
     id="path100"
     style="fill:#ef9fa1"
     d="m 528.5,144.67036 0.2,0.8 8.5,39.6 -11.19284,9.6 -9.02863,0.4 13.59285,-11.89284 -7.17138,-33.30716 5.1,-5.2 z" />
  <path
     id="path102"
     style="fill:#7d0609"
     d="m 74.9,152.17036 13.7,-4.9 0,10.9 -46.7,55.3 33,-61.3 z" />
  <path
     id="path104"
     style="fill:#ef9fa1"
     d="m 81.7,155.17036 7.1,3.4 L 43.171378,212.54191 81.7,155.17036 Z" />
  <path
     id="path106"
     style="fill:#ef9fa1"
     d="m 22.9,9.070359 c 58.8,-0.5 117.8,0.5 176.5,-0.6 l -0.8,0.7 c -2.3,2.2 -4.4,4.7 -6.9,6.8 -54.6,-0.3 -109.2,-0.1 -163.8,-0.1 -5.7,16 -11.9,31.8 -17.6,47.9 -3.2,3.1 -6.8,5.6 -10.3,8.2 7.4,-21.1 15.7,-41.8 22.9,-62.9 z" />
  <path
     id="path108"
     style="fill:#7d0609"
     d="m 191.7,15.970359 6.9,-6.8 2.5,6.5 -16.75707,24.942756 17.30698,15.710821 -6.34991,1.446423 -14.1,-12 L 67,217.17036 l -11,5.2 135.7,-206.400001 z" />
  <path
     id="path110"
     style="fill:#7d0609"
     d="m 56.4,27.570359 91.1,0.9 -11,4.9 -78.3,-0.1 -53.7,43.1 -4.5,-4.4 56.4,-44.4 z" />
  <path
     id="path112"
     style="fill:#ef9fa1"
     d="M 148.4,28.170359 11.3,235.57036 l -7.5,0 132.7,-202.200001 11.9,-5.2 z" />
  <path
     id="path114"
     style="fill:#ef9fa1"
     d="m 183.3,42.170359 c 0.9,-1.3 1.9,-2.6 2.8,-3.9 32.5,1.1 65.1,0 97.6,0.5 -1.9,1.7 -3.8,3.4 -5.7,5 -29.9,0.1 -59.8,-0.1 -89.7,0.1 -1.7,-0.5 -3.4,-1.1 -5,-1.7 z" />
  <path
     id="path116"
     style="fill:#ca010c"
     d="m 336.7652,0.57035899 c 5.8,1.40000001 9.85147,0.341421 17.35147,0.44142101 0,2.1 0.48284,3.492894 0.38284,5.592894 -2.17475,-4.512252 -1.6625,-4.499019 -6.1,-4.627208 l -4.59991,0.1 0,8.992893 5.8656,-0.1 2.5,-4.3 c -0.63333,4.9 -0.66667,4.8 0.2,9.9 l -2.7,-4.1 -5.8656,-0.2 0,10.507107 6.44722,-0.192893 c 4.27696,-1.175736 4.55269,-2.251472 5.91838,-5.914214 0.2,2.3 0.2,4.6 0.2,6.9 -6.3,-0.6 -13.2,-0.8 -19.8,0.3 l 1.8,-1.4 0,-20.5 c -0.4,-0.3 -1.2,-1.10000001 -1.6,-1.40000001 z" />
  <path
     id="path118"
     style="fill:#ca010c"
     d="m 386.6876,0.57035899 c 5.8,1.40000001 9.85147,0.341421 17.35147,0.44142101 0,2.1 0.48284,3.492894 0.38284,5.592894 -2.17475,-4.512252 -1.6625,-4.499019 -6.1,-4.627208 l -4.59991,0.1 0,8.992893 5.8656,-0.1 2.5,-4.3 c -0.63333,4.9 -0.66667,4.8 0.2,9.9 l -2.7,-4.1 -5.8656,-0.2 0,10.507107 6.44722,-0.192893 c 4.27696,-1.175736 4.55269,-2.251472 5.91838,-5.914214 0.2,2.3 0.2,4.6 0.2,6.9 -6.3,-0.6 -13.2,-0.8 -19.8,0.3 l 1.8,-1.4 0,-20.5 c -0.4,-0.3 -1.2,-1.10000001 -1.6,-1.40000001 z" />
</svg>
