<?xml version="1.0" encoding="utf-8"?>
<!-- Generator: Adobe Illustrator 19.0.0, SVG Export Plug-In . SVG Version: 6.00 Build 0)  -->
<svg version="1.1" baseProfile="tiny" id="Layer_1" xmlns="http://www.w3.org/2000/svg" xmlns:xlink="http://www.w3.org/1999/xlink"
	 x="0px" y="0px" viewBox="144 324 900 159" xml:space="preserve">
<g transform="translate(0.000000,279.000000) scale(0.100000,-0.100000)">
	<path d="M2325-469c-58-19-129-55-199-99c-28-18-63-32-78-32c-64,0-170-101-229-219l-34-66v-165c0-138,3-171,18-199
		c9-19,17-39,17-46c0-23,66-136,108-185c54-63,115-93,171-84c30,5,46,3,59-8c82-72,307-100,472-58c126,31,202,64,212,91l9,24l22-30
		c62-86,109-110,159-81c25,15,36,16,77,6c26-6,143-12,262-13c215-2,216-2,252,23c49,33,51,75,5,133c-18,23-41,59-51,81
		c-25,55-47,204-47,314c0,83,2,93,17,90c16-3,131-143,132-160c1-4,20-34,44-65c23-32,47-67,54-78s51-83,97-161
		c96-159,126-194,166-194c38,0,106,71,150,157c19,37,52,97,73,132s60,112,88,170c57,120,108,201,127,201c16,0,15-27-2-33
		c-7-3-16-20-19-39c-3-18-10-53-17-78c-6-25-10-81-8-125c5-102,39-176,116-246c47-43,59-49,97-49c24,0,47-5,50-10
		c11-17,87-52,145-66c157-38,313,9,397,119c17,23,46,80,64,126l33,84l-38,33l-37,32l38,35c38,35,38,36,37,110c-1,67-5,79-37,128
		c-20,30-42,61-49,70c-21,26-110,79-132,79c-12,0-52,16-90,35c-118,59-192,47-350-57c-49-33-94-57-101-54c-7,2-15,24-18,47
		c-9,71-3,70-294,73c-105,1-113,0-137-23c-39-37-37-108,4-154c30-35,39-70,19-82c-5-4-14-18-19-31c-16-42-44-29-78,36l-32,60l21,41
		c20,36,20,44,9,80c-24,72-23,71-277,75l-226,3l-35-35c-35-35-56-42-67-24c-14,23-90,51-167,61c-156,21-311-21-370-101
		c-39-54-43-41-45,134c0,101-5,171-12,185c-13,24-69,55-150,82C2626-444,2400-444,2325-469z M2686-537c95-34,92-25,96-218l3-170
		l-27-3c-35-4-68,29-68,67c0,69-97,183-174,206c-93,28-171,15-247-41c-58-42-95-95-125-179c-20-56-24-84-24-190c0-110,3-131,24-177
		c13-29,39-68,58-87c51-51,153-109,215-121c91-19,135-4,255,87c33,25,67,43,82,43h26v-98v-99l-37-16c-143-62-396-65-503-5
		c-37,20-83,51-98,65c-18,17-53,16-78-2c-19-13-23-11-51,18c-54,58-115,172-135,252c-17,66-21,205-8,280c13,73,44,135,107,213
		c38,46,60,52,85,23c23-27,57-16,65,20c4,21,20,38,57,61c55,35,159,83,198,92C2431-506,2635-519,2686-537z M2489-715
		c16-8,46-34,67-58c36-41,49-70,72-166c10-44,34-61,62-43c49,30,150-1,150-47c0-38,37-56,114-55c58,0,79,5,117,27c25,15,55,27,66,27
		c22,0,50-26,40-37c-18-17-118-43-165-41c-30,1-57-3-60-8c-4-5-26-22-49-38c-26-17-50-44-60-67l-17-39h-64c-62,0-65-1-120-49
		c-72-62-124-91-163-91c-72,0-217,97-253,170c-7,14-18,57-25,96c-29,168,35,360,137,414C2382-697,2450-694,2489-715z M3371-861
		c24-14,55-41,67-61c23-34,24-45,26-224c2-217,13-266,79-347c21-26,37-53,34-60c-3-9-59-12-224-11c-183,1-226,4-253,18
		c-41,20-54,20-70,1c-27-33-57-18-95,46c-19,33-35,68-35,78s-5,32-11,50c-14,40,2,109,39,164c27,40,60,49,82,22c20-24,51-18,79,16
		c20,23,42,34,96,48l70,17l3,40c2,33-2,45-29,72c-17,17-37,32-43,32c-19,0-109-32-126-44c-69-51-116-55-139-12
		c-38,71,52,155,189,175C3211-826,3323-835,3371-861z M3958-840c16,0,33-45,25-65c-3-9-18-19-34-22s-29-12-29-20s24-51,54-97
		c29-45,65-107,80-138c30-64,48-75,83-53c19,13,21,19,13,35c-7,13-7,26-1,37c5,10,12,25,15,33c8,20,25,47,59,91c35,47,35,73-2,95
		c-33,20-65,69-57,90c4,11,34,14,161,14h155l11-27c16-41,8-56-43-81c-33-15-48-29-48-42c0-10-6-23-13-27c-14-8-86-125-125-203
		c-13-25-27-52-32-60c-47-79-101-177-129-233c-37-75-53-81-80-32c-9,17-34,57-55,89c-20,32-42,68-47,80c-18,42-190,294-237,349
		c-15,17-51,54-79,82c-37,36-53,60-53,78c0,14,4,27,10,29C3567-836,3812-837,3958-840z M4983-857c18-10,40-24,49-32c12-9,30-12,54-8
		c32,5,40,1,80-35c79-73,115-186,78-244l-17-25l-216,7c-254,7-256,6-255-73c1-63,34-117,96-156c89-56,199-13,274,106
		c25,39,43,44,88,27c35-13,35-61,0-130c-36-72-81-119-138-146c-41-19-61-22-120-18c-96,7-143,21-196,61c-40,30-50,34-86,28
		c-40-6-43-4-76,37c-77,96-83,112-82,233c2,120,14,160,74,244c31,42,33,43,75,37c39-6,45-4,69,24c14,17,26,35,26,38c0,4,12,15,28,24
		C4826-834,4941-834,4983-857z M5067-1264c10-4,9-13-3-38c-21-43-65-78-107-85c-28-4-40,0-69,26c-41,36-68,89-50,100
		C4850-1254,5047-1257,5067-1264z"/>
	<path d="M3157-1254c-32-29-41-63-34-118c11-83,66-120,111-75c33,33,47,154,22,192C3235-1222,3192-1222,3157-1254z"/>
	<path d="M4802-987c-29-19-42-34-42-50c0-22,4-23,69-23c38,0,81-3,97-6c66-13,85,53,25,89C4908-952,4851-955,4802-987z"/>
	<path d="M6080-460c-8-4-45-22-82-39c-62-29-128-89-128-116c0-5-15-20-34-32c-18-12-46-43-62-70c-26-43-29-57-29-133
		c0-95,24-166,76-230c16-19,29-38,29-42c0-5-15-21-32-37l-33-29l-3-129c-5-180,13-248,76-282c13-7,91-14,190-18c140-5,176-3,226,11
		c57,17,128,55,141,76c3,5,19,10,36,10c79,0,132,75,149,211c19,159-14,265-105,335c-42,32-44,42-7,50c41,11,69,32,80,62
		c6,15,12,91,15,169c4,171,8,166-132,212c-87,29-105,31-225,30C6154-451,6088-455,6080-460z M6370-534c41-7,87-19,103-26l27-13v-137
		c0-139-5-160-41-160c-11,0-18,11-22,35c-13,81-112,168-204,180c-88,11-130-1-164-47c-18-26-29-53-29-74c0-30,5-36,45-55
		c25-12,48-25,51-30s14-9,24-9c11,0,42-13,70-30c28-16,54-30,58-30c11,0,70-32,125-67c50-33,74-59,101-110c23-45,22-218-1-284
		c-18-51-32-60-53-34c-21,25-53,14-74-25c-23-43-68-74-132-90s-361-1-373,19c-10,16-25,327-16,341c11,18,44,11,59-12
		c7-13,19-53,26-91c11-61,16-71,60-110c86-78,164-81,247-11c36,31,38,35,38,94c0,60-1,64-39,96c-21,18-60,43-85,54
		c-25,12-59,28-74,35c-16,8-35,15-42,15c-8,0-31,7-52,16c-120,52-143,74-167,158c-20,68-20,133-1,180c14,33,19,36,55,36
		c37,0,40,2,40,28c0,41,48,105,100,133C6099-522,6245-511,6370-534z M6280-744c46-31,90-110,72-128c-11-11-21-8-55,10
		c-23,13-68,38-99,55c-52,29-75,58-62,79c3,4,29,8,57,8C6232-720,6254-726,6280-744z M6089-1197c82-41,141-93,141-122
		c0-27-56-71-90-71c-43,0-120,81-120,127c0,10-7,31-15,47c-15,29-14,56,2,56C6011-1160,6049-1177,6089-1197z"/>
	<path d="M6873-610c-55-31-87-69-99-114c-4-17-27-43-58-66c-64-48-116-119-116-156c0-15,12-43,27-63l28-36l2-218c3-235,5-248,60-298
		c46-44,89-60,151-59c31,1,84-2,117-5c108-13,214,40,276,137l32,50l26-34c56-72,101-99,171-103c8,0,33-10,56-22c50-27,159-42,224-32
		c27,4,68,19,92,32c24,14,64,28,89,31c38,6,55,16,92,53c171,173,172,449,2,641c-41,46-58,54-91,42c-24-9-31-7-58,19
		c-50,47-88,61-164,61c-69,0-154-21-182-46c-8-7-35-17-58-23c-112-25-214-147-246-296c-9-38-15-77-14-85c4-43-4-58-34-71
		c-18-7-52-31-75-52c-29-26-49-37-65-35c-23,3-23,4-21,137c1,151,3,154,74,166c49,8,129,79,158,138c12,24,21,62,21,84
		c0,34-6,46-31,67c-39,33-78,33-138-1c-67-37-81-29-81,50c0,58-3,66-34,100C6965-572,6942-571,6873-610z M6969-702c6-17,8-54,5-83
		c-6-47-4-54,17-69c42-29,107-16,180,36c21,15,49,4,49-20c0-11-9-40-20-65c-28-63-74-90-155-91c-98-2-96,4-93-225l3-196l40-13
		c56-18,127,5,175,58c29,32,39,37,58,30c47-19,14-94-77-175c-49-44-57-47-119-48c-40-1-67,4-90,18c-32,19-34,19-63,2
		c-43-24-52-22-98,24l-41,41l-2,142c-1,77-3,182-3,233c-1,88-3,93-28,113c-41,33-36,71,15,121c37,36,46,40,76,34c44-8,62,8,62,57
		c0,32,7,47,36,78C6937-657,6954-657,6969-702z M7798-829c40-20,69-48,86-83c16-32,43-34,72-7c24,23,25,23,44,3c10-10,36-53,57-94
		c37-74,37-77,38-190c0-101-3-120-23-155c-46-81-78-120-98-117c-50,7-66,2-110-37c-55-48-104-64-176-56c-71,8-121,31-147,66
		c-23,32-65,39-75,14c-10-28-35-15-75,37c-55,74-79,139-80,223c-2,160,90,325,182,325c13,0,42,13,63,28C7641-811,7732-795,7798-829z
		"/>
	<path d="M7671-957c-34-7-81-52-102-98c-26-56-25-167,1-253c25-79,34-93,77-115c39-21,61-21,104-3c78,33,101,86,100,236
		c0,125-6,148-54,203C7772-958,7723-946,7671-957z M7753-1052c8-18,18-70,22-115c8-95-6-172-36-199c-18-17-20-16-44,6
		c-56,52-77,238-34,306C7690-1007,7731-1006,7753-1052z"/>
	<path d="M8805-774c-32-17-54-22-64-17c-9,5-131,12-272,16c-233,7-259,6-293-10c-84-40-86-102-6-176l50-46v-169c0-93-4-186-9-207
		c-5-22-26-57-50-82c-53-57-56-101-10-139l31-26h233c129,0,245,4,259,10c14,5,37,28,52,50c25,37,26,43,13,67c-8,15-35,43-61,62
		c-57,44-66,69-70,191c-3,90-2,95,17,92c106-15,101-16,160,23c48,33,100,94,119,140c8,22,43-16,103-111c35-54,68-108,73-119
		c6-11,16-29,23-40c51-84,63-103,75-120c6-11,15-27,19-35c3-8,19-31,35-51c15-20,28-46,28-57c0-22-68-188-128-312
		c-18-36-27-71-27-103c0-40,4-51,30-72c17-13,43-24,60-25c49,0,226,29,280,46c66,22,85,40,85,81c0,35-34,113-49,113c-5,0-20,9-35,21
		c-20,15-24,24-16,34c13,15,130,252,130,262c0,12,47,111,138,293c76,152,120,220,142,220c17,0,60,75,60,103c0,18-11,39-30,58l-29,30
		h-143c-79,0-160,1-180,2c-42,1-79-26-98-73c-10-23-9-35,5-65c10-19,27-40,37-46c18-10,19-17,14-60c-9-63-26-101-43-97
		c-8,2-30,33-50,70c-35,67-35,68-19,102c9,19,16,51,16,71c0,42-27,94-50,97c-8,0-105,0-215-2c-166-2-207,0-239,14
		C8858-746,8862-745,8805-774z M9328-852c6-6,12-23,12-39c0-22-7-32-25-41c-31-14-31-33,0-89c13-24,29-53,35-64s19-33,30-50
		c11-16,31-53,45-82c14-28,34-53,43-55c27-6,63,22,57,43c-7,20,1,48,39,154c36,100,35,128-10,154c-29,17-35,26-32,49l3,27l153,1
		c136,0,154-2,163-17c13-26,14-25-44-83c-44-43-70-86-144-237c-50-101-101-206-113-234c-51-115-74-165-121-261c-27-55-49-110-49-121
		c0-21,18-33,49-33c26,0,53-34,49-61c-3-20-12-25-73-36c-193-35-195-35-211-22c-18,15-14,30,36,134c21,44,53,116,71,160s38,87,46,96
		c20,24,16,43-25,106c-22,32-45,70-53,86c-63,123-276,445-299,452c-11,3-35,3-55-1c-30-5-46-19-95-84c-76-100-112-110-211-58
		c-24,12-46,17-63,12c-29-7-31-18-12-53c9-17,12-56,8-145c-5-149,4-178,78-233c40-30,50-43,48-63l-3-25h-218c-195,0-220,2-228,17
		c-13,23,5,63,36,84c14,9,30,26,36,36c6,12,11,108,11,241v222l-44,21c-46,23-75,62-65,88c9,23,322,24,331,1c7-20,47-19,84,2
		c29,17,32,17,67,0c48-23,137-23,158,1c14,15,37,17,254,14C9220-840,9320-846,9328-852z"/>
</g>
</svg>
