<?xml version="1.0" encoding="UTF-8" standalone="no"?>
<!-- Created with Inkscape (http://www.inkscape.org/) -->

<svg
   xmlns:dc="http://purl.org/dc/elements/1.1/"
   xmlns:cc="http://creativecommons.org/ns#"
   xmlns:rdf="http://www.w3.org/1999/02/22-rdf-syntax-ns#"
   xmlns:svg="http://www.w3.org/2000/svg"
   xmlns="http://www.w3.org/2000/svg"
   xmlns:sodipodi="http://sodipodi.sourceforge.net/DTD/sodipodi-0.dtd"
   xmlns:inkscape="http://www.inkscape.org/namespaces/inkscape"
   width="567.75757"
   height="84"
   id="svg2"
   version="1.1"
   inkscape:version="0.48.4 r9939"
   sodipodi:docname="zx81.svg">
  <defs
     id="defs4" />
  <sodipodi:namedview
     id="base"
     pagecolor="#ffffff"
     bordercolor="#666666"
     borderopacity="1.0"
     inkscape:pageopacity="0.0"
     inkscape:pageshadow="2"
     inkscape:zoom="5.6568542"
     inkscape:cx="111.5182"
     inkscape:cy="22.135798"
     inkscape:document-units="px"
     inkscape:current-layer="layer1"
     showgrid="false"
     inkscape:window-width="1629"
     inkscape:window-height="998"
     inkscape:window-x="51"
     inkscape:window-y="24"
     inkscape:window-maximized="0"
     fit-margin-top="0"
     fit-margin-left="0"
     fit-margin-right="0"
     fit-margin-bottom="0" />
  <metadata
     id="metadata7">
    <rdf:RDF>
      <cc:Work
         rdf:about="">
        <dc:format>image/svg+xml</dc:format>
        <dc:type
           rdf:resource="http://purl.org/dc/dcmitype/StillImage" />
        <dc:title></dc:title>
      </cc:Work>
    </rdf:RDF>
  </metadata>
  <g
     inkscape:label="Calque 1"
     inkscape:groupmode="layer"
     id="layer1"
     transform="translate(-80.036789,-570.6495)">
    <g
       id="g3047"
       transform="translate(-4.7729708,73.715882)">
      <path
         style="fill:#bbdad6"
         d="m 85.071449,578.74798 0,-2.18565 4,-4.74376 c 2.2,-2.60907 4,-5.00053 4,-5.31436 0,-0.31382 -1.8,-0.57059 -4,-0.57059 l -4,0 0,-2 0,-2 7.5,0 7.500001,0 0,2.09051 0,2.09051 -4.621475,5.40949 -4.621473,5.40949 5.121473,0 c 2.816811,0 5.393015,0.1125 5.724895,0.25 0.33188,0.1375 1.53191,-1.35097 2.66672,-3.3077 l 2.0633,-3.55771 -2.68913,-3.94229 -2.68913,-3.9423 2.23851,-0.34787 2.2385,-0.34787 2.09747,2.63048 2.09747,2.63048 1.35542,-2.53261 1.35541,-2.53261 2.33102,0 2.33102,0 0,0.76787 c 0,0.42232 -1.1439,2.45127 -2.54201,4.50876 l -2.54201,3.7409 3.04201,4.42141 c 3.66463,5.32637 3.69165,5.56106 0.64021,5.56106 l -2.4018,0 -1.96095,-3.09712 -1.96096,-3.09711 -2.20534,3.09711 -2.20534,3.09712 -9.931905,0 -9.931906,0 0,-2.18564 z m 42.750001,0.10554 -1.75,-1.01928 0,-2.75031 0,-2.75031 1.08713,-1.08713 1.08713,-1.08714 -1.08713,-0.67188 -1.08713,-0.67188 0,-2.24099 0,-2.24098 1.2,-1.2 1.2,-1.2 5.1,0 5.1,0 1.2,1.2 1.2,1.2 0,2.1 0,2.1 -1.08713,1.08713 -1.08714,1.08714 1.08714,0.67188 1.08713,0.67188 0,2.9058 0,2.9058 -1.93426,1.03519 -1.93426,1.03518 -3.81574,-0.0304 -3.81574,-0.0304 -1.75,-1.01928 z m 8.19212,-3.35016 1.18701,-1.43026 -1.92642,-1.031 -1.92643,-1.03099 -1.80371,1.31891 -1.80371,1.3189 1.91557,1.11194 c 2.51944,1.46248 2.95142,1.43695 4.35769,-0.2575 z m -0.19183,-8.31921 0.41602,-1.24948 -1.65037,-0.63331 -1.65038,-0.63331 -1.04565,1.04565 -1.04565,1.04566 0.70611,1.1425 0.7061,1.1425 1.5739,-0.30537 1.5739,-0.30537 0.41602,-1.24947 z m 9.24971,11.24947 0,-1.5 2,0 2,0 0,-5.5 0,-5.5 -2,0 -2,0 0,-2 0,-2 4,0 4,0 0,7.5 0,7.5 2,0 2,0 0,1.5 0,1.5 -6,0 -6,0 0,-1.5 z m 310,-19.47484 c 0,-0.29571 13.39027,-13.92235 29.75615,-30.28141 l 29.75615,-29.74375 68.9877,0 68.9877,0 -30.4564,30.46869 -30.45641,30.46869 -68.28744,-0.18728 -68.28745,-0.18727 0,-0.53767 z m -370.000001,-13.52516 0,-4.5 30.500001,0 30.5,0 0,-4 0,-4 -30.5,0 -30.500001,0 0,-12 0,-12 34.500001,0 34.5,0 0,4 0,4 -30,0 -30.000001,0 0,4 0,4 30.500001,0 30.5,0 0,12.5 0,12.5 -35,0 -35.000001,0 0,-4.5 z m 74.000001,-16 0,-20.5 4.5,0 4.5,0 0,20.5 0,20.5 -4.5,0 -4.5,0 0,-20.5 z m 13,0.0575 0,-20.5575 34.5,0 34.5,0 0,20.5 0,20.5 -4.5,0 -4.5,0 0,-16.5 0,-16.5 -25.47523,0 -25.47523,0 -0.27477,16.25 -0.27477,16.25 -4.25,0.3075 -4.25,0.3075 0,-20.5575 z m 73,-0.0575 0,-20.5 34.5,0 34.5,0 0,4 0,4 -30,0 -30,0 0,12 0,12 30,0 30,0 0,4.5 0,4.5 -34.5,0 -34.5,0 0,-20.5 z m 74,-6 0,-26.5 4.5,0 4.5,0 0,26.5 0,26.5 -4.5,0 -4.5,0 0,-26.5 z m 13,14 0,-12.5 30,0 30,0 0,-4 0,-4 -30,0 -30,0 0,-4 0,-4 34.5,0 34.5,0 0,20.5 0,20.5 -34.5,0 -34.5,0 0,-12.5 z m 60,-0.5 0,-4 -25.5,0 -25.5,0 0,4 0,4 25.5,0 25.5,0 0,-4 z m 14,-7.4425 0,-20.5575 4.52071,0 4.5207,0 -0.2707,20.25 -0.27071,20.25 -4.25,0.3075 -4.25,0.3075 0,-20.5575 z m 13,-0.0575 0,-20.5 34.5,0 34.5,0 0,4 0,4 -30,0 -30,0 0,16.5 0,16.5 -4.5,0 -4.5,0 0,-20.5 z m -260,-28.5 0,-4 4.5,0 4.5,0 0,4 0,4 -4.5,0 -4.5,0 0,-4 z m 247,0 0,-4 4.5,0 4.5,0 0,4 0,4 -4.5,0 -4.5,0 0,-4 z"
         id="path3075"
         inkscape:connector-curvature="0" />
      <path
         style="fill:#e8a4a3"
         d="m 85.071449,578.79143 0,-2.14218 4.577323,-5.35782 4.577323,-5.35781 -4.077323,0 -4.077323,0 0,-2 0,-2 7,0 7.000001,0 0,1.75709 0,1.75709 -4.514033,5.49291 -4.514032,5.49291 4.514032,0.30479 4.514033,0.30479 0,1.94521 0,1.94521 -7.500001,0 -7.5,0 0,-2.14219 z m 16.000001,1.37432 c 0,-0.42232 1.125,-2.42345 2.5,-4.44694 3.09599,-4.55616 3.09491,-5.01937 -0.0224,-9.58824 l -2.52241,-3.69695 2.16454,-0.33818 2.16453,-0.33817 2.16207,2.71149 2.16206,2.71149 1.71886,-2.62332 1.71887,-2.62331 1.97694,0 c 2.52842,0 2.49647,0.25783 -0.61434,4.95858 l -2.59129,3.9157 3.05182,4.43567 3.05182,4.43566 -0.6272,0.62719 c -0.34496,0.34496 -1.42675,0.6272 -2.40399,0.6272 l -1.7768,0 -1.77214,-3 c -0.97468,-1.65 -2.01262,-2.99716 -2.30654,-2.99368 -0.29391,0.004 -1.30096,1.35348 -2.23788,3 l -1.70349,2.99368 -2.04651,0 -2.04651,0 0,-0.76787 z m 26.75,-1.31223 -1.75,-1.01928 0,-2.75031 0,-2.75031 1.08713,-1.08713 1.08713,-1.08714 -1.08713,-0.67188 -1.08713,-0.67188 0,-2.4058 0,-2.4058 1.93426,-1.03519 1.93426,-1.03518 3.63148,0 3.63148,0 1.93426,1.03518 1.93426,1.03519 0,2.26481 0,2.26482 -1.08713,1.08713 -1.08714,1.08714 1.08714,0.67188 1.08713,0.67188 0,2.36956 0,2.36955 -1.57143,1.57143 -1.57143,1.57143 -4.17857,-0.0304 -4.17857,-0.0304 -1.75,-1.01928 z m 8.0262,-3.09611 1.17621,-1.1762 -1.09865,-1.3238 c -0.60426,-0.72808 -1.66345,-1.32379 -2.35376,-1.32379 -0.69031,0 -1.74951,0.59571 -2.35376,1.32379 l -1.09865,1.3238 1.1762,1.1762 c 0.64692,0.64692 1.67121,1.17621 2.27621,1.17621 0.605,0 1.62929,-0.52929 2.2762,-1.17621 z m 0.2238,-7.8391 1.5,-0.98469 -1.5,-0.98469 c -0.825,-0.54157 -1.95,-0.98468 -2.5,-0.98468 -0.55,0 -1.675,0.44311 -2.5,0.98468 l -1.5,0.98469 1.5,0.98469 c 0.825,0.54157 1.95,0.98468 2.5,0.98468 0.55,0 1.675,-0.44311 2.5,-0.98468 z m 9,10.51531 0,-1.5 2,0 2,0 0,-5.90638 0,-5.90638 -2.10087,0.54939 -2.10086,0.54939 0.35918,-1.89301 0.35918,-1.89301 3.74169,-0.31037 3.74168,-0.31036 0,7.56036 0,7.56037 2,0 2,0 0,1.5 0,1.5 -6,0 -6,0 0,-1.5 z m 310,-19.35231 c 0,-0.3631 13.39027,-14.04488 29.75615,-30.40394 l 29.75615,-29.74375 68.99178,0 68.99179,0 -29.99794,29.89518 -29.99793,29.89517 -68.75,0.50877 -68.75,0.50877 0,-0.6602 z M 85.47054,548.53125 c -0.301531,-0.78578 -0.40218,-2.7042 -0.223665,-4.26316 l 0.324574,-2.83447 30.250001,-0.26466 30.25,-0.26467 0,-3.98533 0,-3.98534 -30.5,0 -30.500001,0 0,-12 0,-12 34.500001,0 34.5,0 0,4 0,4 -30,0 -30.000001,0 0,4 0,4 30.530781,0 30.53078,0 -0.28078,12.25 -0.28078,12.25 -34.27634,0.26316 -34.276332,0.26316 -0.548238,-1.42869 z m 74.31517,0.7833 -0.71426,-0.71426 0,-19.83334 0,-19.83333 4.5207,0 4.52071,0 -0.27071,20.25 -0.2707,20.25 -3.53574,0.29759 -3.53574,0.29759 -0.71426,-0.71425 z m 12.28574,-19.82343 0,-20.5575 34.5,0 34.5,0 0,20.5575 0,20.5575 -4.25,-0.3075 -4.25,-0.3075 -0.27477,-16.25 -0.27477,-16.25 -25.45046,0 -25.45046,0 -0.27477,16.25 -0.27477,16.25 -4.25,0.3075 -4.25,0.3075 0,-20.5575 z m 73,-0.0575 0,-20.5 34.5,0 34.5,0 0,4 0,4 -30,0 -30,0 0,12 0,12 30,0 30,0 0,4.5 0,4.5 -34.5,0 -34.5,0 0,-20.5 z m 74.66667,19.83333 -0.66667,-0.66666 0,-25.83334 0,-25.83333 4.5,0 4.5,0 0,26.5 0,26.5 -3.83333,0 c -2.10834,0 -4.13334,-0.3 -4.5,-0.66667 z m 12.33333,-11.83333 0,-12.5 30.5,0 30.5,0 0,-4 0,-4 -30.5,0 -30.5,0 0,-4 0,-4 34.5,0 34.5,0 0,20.5 0,20.5 -34.5,0 -34.5,0 0,-12.5 z m 61,-0.5 0,-4 -26,0 -26,0 0,4 0,4 26,0 26,0 0,-4 z m 13,-7.4425 0,-20.5575 4.52071,0 4.5207,0 -0.2707,20.25 -0.27071,20.25 -4.25,0.3075 -4.25,0.3075 0,-20.5575 z m 13,0 0,-20.5575 34.5,0 34.5,0 0,4 0,4 -29.97523,0 -29.97523,0 -0.27477,16.25 -0.27477,16.25 -4.25,0.3075 -4.25,0.3075 0,-20.5575 z m -260,-28.5575 0,-4 4.5,0 4.5,0 0,4 0,4 -4.5,0 -4.5,0 0,-4 z m 247,0.0575 0,-4.0575 4.56037,0 4.56036,0 -0.31036,3.75 -0.31037,3.75 -4.25,0.3075 -4.25,0.3075 0,-4.0575 z"
         id="path3073"
         inkscape:connector-curvature="0" />
      <path
         style="fill:#ababab"
         d="m 85.071449,578.79143 0,-2.14218 4.577323,-5.35782 4.577323,-5.35781 -4.077323,0 -4.077323,0 0,-2 0,-2 7,0 7.000001,0 0,1.75709 0,1.75709 -4.514033,5.49291 -4.514032,5.49291 4.514032,0.30479 4.514033,0.30479 0,1.94521 0,1.94521 -7.500001,0 -7.5,0 0,-2.14219 z m 16.000001,1.37432 c 0,-0.42232 1.125,-2.42345 2.5,-4.44694 3.09599,-4.55616 3.09491,-5.01937 -0.0224,-9.58824 l -2.52241,-3.69695 2.16454,-0.33818 2.16453,-0.33817 2.16207,2.71149 2.16206,2.71149 1.71886,-2.62332 1.71887,-2.62331 1.97694,0 c 2.52842,0 2.49647,0.25783 -0.61434,4.95858 l -2.59129,3.9157 3.05182,4.43567 3.05182,4.43566 -0.6272,0.62719 c -0.34496,0.34496 -1.42675,0.6272 -2.40399,0.6272 l -1.7768,0 -1.77214,-3 c -0.97468,-1.65 -2.01262,-2.99716 -2.30654,-2.99368 -0.29391,0.004 -1.30096,1.35348 -2.23788,3 l -1.70349,2.99368 -2.04651,0 -2.04651,0 0,-0.76787 z m 26.75,-1.31223 -1.75,-1.01928 0,-2.75031 0,-2.75031 1.08713,-1.08713 1.08713,-1.08714 -1.08713,-0.67188 -1.08713,-0.67188 0,-2.4058 0,-2.4058 1.93426,-1.03519 1.93426,-1.03518 3.63148,0 3.63148,0 1.93426,1.03518 1.93426,1.03519 0,2.26481 0,2.26482 -1.08713,1.08713 -1.08714,1.08714 1.08714,0.67188 1.08713,0.67188 0,2.36956 0,2.36955 -1.57143,1.57143 -1.57143,1.57143 -4.17857,-0.0304 -4.17857,-0.0304 -1.75,-1.01928 z m 8.0262,-3.09611 1.17621,-1.1762 -1.09865,-1.3238 c -0.60426,-0.72808 -1.66345,-1.32379 -2.35376,-1.32379 -0.69031,0 -1.74951,0.59571 -2.35376,1.32379 l -1.09865,1.3238 1.1762,1.1762 c 0.64692,0.64692 1.67121,1.17621 2.27621,1.17621 0.605,0 1.62929,-0.52929 2.2762,-1.17621 z m 0.2238,-7.8391 1.5,-0.98469 -1.5,-0.98469 c -0.825,-0.54157 -1.95,-0.98468 -2.5,-0.98468 -0.55,0 -1.675,0.44311 -2.5,0.98468 l -1.5,0.98469 1.5,0.98469 c 0.825,0.54157 1.95,0.98468 2.5,0.98468 0.55,0 1.675,-0.44311 2.5,-0.98468 z m 9,10.51531 0,-1.5 2,0 2,0 0,-5.90638 0,-5.90638 -2.10087,0.54939 -2.10086,0.54939 0.35918,-1.89301 0.35918,-1.89301 3.74169,-0.31037 3.74168,-0.31036 0,7.56036 0,7.56037 2,0 2,0 0,1.5 0,1.5 -6,0 -6,0 0,-1.5 z m 340.5,-49.5 29.9875,-30 68.5,0 68.5,0 -29.9875,30 -29.9875,30 -68.5,0 -68.5,0 29.9875,-30 z M 85.47054,548.53125 c -0.301531,-0.78578 -0.40218,-2.7042 -0.223665,-4.26316 l 0.324574,-2.83447 30.250001,-0.26466 30.25,-0.26467 0,-3.98533 0,-3.98534 -30.5,0 -30.500001,0 0,-12 0,-12 34.500001,0 34.5,0 0,4 0,4 -30,0 -30.000001,0 0,4 0,4 30.530781,0 30.53078,0 -0.28078,12.25 -0.28078,12.25 -34.27634,0.26316 -34.276332,0.26316 -0.548238,-1.42869 z m 74.31517,0.7833 -0.71426,-0.71426 0,-19.83334 0,-19.83333 4.5207,0 4.52071,0 -0.27071,20.25 -0.2707,20.25 -3.53574,0.29759 -3.53574,0.29759 -0.71426,-0.71425 z m 12.28574,-19.82343 0,-20.5575 34.5,0 34.5,0 0,20.5575 0,20.5575 -4.25,-0.3075 -4.25,-0.3075 -0.27477,-16.25 -0.27477,-16.25 -25.45046,0 -25.45046,0 -0.27477,16.25 -0.27477,16.25 -4.25,0.3075 -4.25,0.3075 0,-20.5575 z m 73,-0.0575 0,-20.5 34.5,0 34.5,0 0,4 0,4 -30,0 -30,0 0,12 0,12 30,0 30,0 0,4.5 0,4.5 -34.5,0 -34.5,0 0,-20.5 z m 74.66667,19.83333 -0.66667,-0.66666 0,-25.83334 0,-25.83333 4.5,0 4.5,0 0,26.5 0,26.5 -3.83333,0 c -2.10834,0 -4.13334,-0.3 -4.5,-0.66667 z m 12.33333,-11.83333 0,-12.5 30.5,0 30.5,0 0,-4 0,-4 -30.5,0 -30.5,0 0,-4 0,-4 34.5,0 34.5,0 0,20.5 0,20.5 -34.5,0 -34.5,0 0,-12.5 z m 61,-0.5 0,-4 -26,0 -26,0 0,4 0,4 26,0 26,0 0,-4 z m 13,-7.4425 0,-20.5575 4.52071,0 4.5207,0 -0.2707,20.25 -0.27071,20.25 -4.25,0.3075 -4.25,0.3075 0,-20.5575 z m 13,0 0,-20.5575 34.5,0 34.5,0 0,4 0,4 -29.97523,0 -29.97523,0 -0.27477,16.25 -0.27477,16.25 -4.25,0.3075 -4.25,0.3075 0,-20.5575 z m -260,-28.5575 0,-4 4.5,0 4.5,0 0,4 0,4 -4.5,0 -4.5,0 0,-4 z m 247,0.0575 0,-4.0575 4.56037,0 4.56036,0 -0.31036,3.75 -0.31037,3.75 -4.25,0.3075 -4.25,0.3075 0,-4.0575 z"
         id="path3071"
         inkscape:connector-curvature="0" />
      <path
         style="fill:#989898"
         d="m 85.071449,578.34311 0,-1.5905 4.621474,-5.4095 4.621473,-5.40949 -4.121473,0 -4.121474,0 0,-2 0,-2 7,0 7.000001,0 0,1.75709 0,1.75709 -4.514033,5.49291 -4.514032,5.49291 4.514032,0.30479 4.514033,0.30479 0,1.44521 0,1.44521 -7.500001,0 -7.5,0 0,-1.59051 z m 17.538341,-1.15949 c 0.9726,-1.5125 2.3505,-3.60358 3.06202,-4.64685 l 1.29365,-1.89685 -2.99504,-4.35315 -2.99505,-4.35315 2.43303,0 2.43303,0 1.75135,2.6729 1.75135,2.67289 1.94706,-2.67289 1.94707,-2.6729 1.9166,0 c 2.46689,0 2.42846,0.26939 -0.7163,5.02144 l -2.63288,3.97856 2.63288,3.97856 c 3.21017,4.8509 3.22014,5.02144 0.2934,5.02144 l -2.33948,0 -1.13908,-2.5 c -0.62649,-1.375 -1.52268,-2.5 -1.99153,-2.5 -0.46886,0 -1.45454,1.125 -2.19042,2.5 l -1.33796,2.5 -2.44603,0 -2.44603,0 1.76836,-2.75 z m 25.03309,1.17857 -1.57143,-1.57143 0,-2.37888 0,-2.37888 1.60946,-0.9007 1.60946,-0.9007 -1.60946,-0.6176 -1.60946,-0.61761 0,-2.4962 0,-2.4962 1.93426,-1.03519 1.93426,-1.03518 3.63148,0 3.63148,0 1.93426,1.03518 1.93426,1.03519 0,2.41512 0,2.41513 -1.60946,0.9007 -1.60946,0.9007 1.60946,0.6176 1.60946,0.61761 0,2.3764 0,2.37639 -1.82874,1.65499 -1.82874,1.65499 -4.09983,0 -4.09983,0 -1.57143,-1.57143 z m 7.84678,-2.03556 1.58179,-0.60699 0,-1.28602 0,-1.28602 -1.64088,-0.62967 -1.64088,-0.62966 -1.85912,0.59006 -1.85912,0.59006 0,1.34928 0,1.34928 1.25,0.50439 c 1.80155,0.72694 2.39732,0.73484 4.16821,0.0553 z m 1.08179,-9.39301 0,-1.5 -2.36534,-0.33466 -2.36533,-0.33467 -0.99753,0.99753 -0.99754,0.99754 0.70731,1.14444 0.7073,1.14444 2.65556,-0.30731 2.65557,-0.30731 0,-1.5 z m 8.5,11.5 0,-1.5 2,0 2,0 0,-5.90638 0,-5.90638 -2.10087,0.54939 -2.10086,0.54939 0.35918,-1.89301 0.35918,-1.89301 3.74169,-0.31037 3.74168,-0.31036 0,7.56036 0,7.56037 2,0 2,0 0,1.5 0,1.5 -6,0 -6,0 0,-1.5 z m 340.5,-49.5 29.9875,-30 67.75625,0 67.75625,0 0,0.75636 c 0,0.41599 -13.16531,13.91599 -29.25625,30 l -29.25625,29.24364 -68.4875,0 -68.4875,0 29.9875,-30 z m -400.310366,16.25 0.310365,-3.75 30.250001,-0.26466 30.25,-0.26467 0,-3.97067 0,-3.97067 -30.25,-0.26467 -30.250001,-0.26466 -0.281735,-11.75 -0.281736,-11.75 34.531732,0 34.53174,0 0,4 0,4 -30,0 -30.000001,0 0,3.98534 0,3.98533 30.250001,0.26467 30.25,0.26466 0.28173,11.75 0.28174,11.75 -35.0921,0 -35.092102,0 0.310366,-3.75 z m 73.810366,-16.25 0,-20 4.5,0 4.5,0 0,20 0,20 -4.5,0 -4.5,0 0,-20 z m 13,0 0,-20 34.5,0 34.5,0 0,20 0,20 -4.5,0 -4.5,0 0,-16 0,-16 -26,0 -26,0 0,16 0,16 -4,0 -4,0 0,-20 z m 73,0 0,-20 34.5,0 34.5,0 0,4 0,4 -30,0 -30,0 0,12 0,12 30,0 30,0 0,4 0,4 -34.5,0 -34.5,0 0,-20 z m 74,-6 0,-26 4.5,0 4.5,0 0,26 0,26 -4.5,0 -4.5,0 0,-26 z m 13,14.51466 0,-11.48533 30.25,-0.26467 30.25,-0.26466 0.3075,-4.25 0.3075,-4.25 -30.5575,0 -30.5575,0 0,-4 0,-4 34.5,0 34.5,0 0,20 0,20 -34.5,0 -34.5,0 0,-11.48534 z m 61,-0.51466 0,-4 -26,0 -26,0 0,4 0,4 26,0 26,0 0,-4 z m 13,-8 0,-20 4,0 4,0 0,20 0,20 -4,0 -4,0 0,-20 z m 13,0 0,-20 34.5,0 34.5,0 0,4 0,4 -30,0 -30,0 0,16 0,16 -4.5,0 -4.5,0 0,-20 z m -260,-28 0,-4 4.5,0 4.5,0 0,4 0,4 -4.5,0 -4.5,0 0,-4 z m 247,0 0,-4 4,0 4,0 0,4 0,4 -4,0 -4,0 0,-4 z"
         id="path3069"
         inkscape:connector-curvature="0" />
      <path
         style="fill:#fbc501"
         d="m 85.071449,578.53286 0,-1.40076 4.451574,-5.34924 4.451575,-5.34924 -3.951575,-0.3075 -3.951574,-0.3075 0,-1.9425 0,-1.9425 7,0 7.000001,0 0,1.64877 0,1.64878 -4.619183,5.60122 -4.619183,5.60123 4.619183,0.30479 4.619183,0.30479 0,1.44521 0,1.44521 -7.500001,0 -7.5,0 0,-1.40076 z m 18.993971,-3.09047 3.09005,-4.49124 -2.54201,-3.7409 c -1.39811,-2.05749 -2.54201,-4.08644 -2.54201,-4.50876 l 0,-0.76787 1.97432,0 1.97432,0 1.62916,3.15045 1.62916,3.15044 1.99472,-3.15044 1.99472,-3.15045 2.01681,0 2.01681,0 -1.46217,2.25 c -0.80419,1.2375 -2.06567,3.22483 -2.80328,4.4163 l -1.34112,2.1663 2.68827,4.06226 c 3.2145,4.85743 3.24901,5.10514 0.71133,5.10514 l -1.97694,0 -1.63807,-2.5 c -0.90093,-1.375 -1.96027,-2.5 -2.35407,-2.5 -0.39381,0 -1.31809,1.125 -2.05397,2.5 l -1.33796,2.5 -2.37906,0 -2.37906,0 3.09005,-4.49123 z m 24.22853,2.93453 -2.2225,-1.55671 0,-1.90387 0,-1.90387 1.40653,-1.28942 1.40654,-1.28943 -1.49667,-1.67834 -1.49667,-1.67833 0.63547,-2.00217 0.63546,-2.00216 3.03284,-0.66613 3.03285,-0.66612 3.36546,0.63136 3.36547,0.63137 0.64649,2.03692 0.64649,2.03693 -1.49666,1.67833 -1.49667,1.67834 1.40653,1.28943 1.40654,1.28942 0,1.90387 0,1.90387 -2.22251,1.55671 -2.2225,1.5567 -3.05499,0 -3.05499,0 -2.22251,-1.5567 z m 8.2775,-3.9433 0,-2 -2.36534,-0.33466 -2.36533,-0.33467 -1.01745,1.01745 -1.01745,1.01745 0.6271,1.63418 0.6271,1.63419 2.75568,-0.31697 2.75569,-0.31697 0,-2 z m 0,-7.5 0,-1.5 -2.36534,-0.33466 -2.36533,-0.33467 -0.99753,0.99753 -0.99754,0.99754 0.70731,1.14444 0.7073,1.14444 2.65556,-0.30731 2.65557,-0.30731 0,-1.5 z m 8.5,11.5 0,-1.5 2,0 2,0 0,-6.06739 0,-6.06738 -2,0.63477 -2,0.63477 0,-1.46039 0,-1.4604 1.58179,-0.60699 c 0.86998,-0.33384 2.66998,-0.60699 4,-0.60699 l 2.41821,0 0,7.5 0,7.5 2,0 2,0 0,1.5 0,1.5 -6,0 -6,0 0,-1.5 z m 340.5,-49.5 29.9875,-30 67.75625,0 67.75625,0 0,0.75636 c 0,0.41599 -13.16531,13.91599 -29.25625,30 l -29.25625,29.24364 -68.4875,0 -68.4875,0 29.9875,-30 z m -399.500001,16.5 0,-3.5 30.000001,0 30,0 0,-4.5 0,-4.5 -29.86408,0 -29.864073,0 -0.635924,-4.63957 c -0.349758,-2.55176 -0.635924,-7.95176 -0.635924,-12 l 0,-7.36043 34.500001,0 34.5,0 0,4 0,4 -30.60699,0 -30.606989,0 0.606989,1.58179 c 0.333844,0.86998 0.606989,2.66998 0.606989,4 l 0,2.41821 30.000001,0 30,0 0,12 0,12 -34,0 -34.000001,0 0,-3.5 z m 73.000001,-16.5 0,-20 4.5,0 4.5,0 0,20 0,20 -4.5,0 -4.5,0 0,-20 z m 13,0 0,-20 34.5,0 34.5,0 0,20 0,20 -4,0 -4,0 0,-16 0,-16 -26.5,0 -26.5,0 0,16 0,16 -4,0 -4,0 0,-20 z m 73,0 0,-20 34.5,0 34.5,0 0,4 0,4 -30,0 -30,0 0,12.5 0,12.5 30,0 30,0 0,3.5 0,3.5 -34.5,0 -34.5,0 0,-20 z m 75,-6 0,-26 4,0 4,0 0,26 0,26 -4,0 -4,0 0,-26 z m 12,14.5 0,-11.5 30.5,0 30.5,0 0,-4.5 0,-4.5 -30.5,0 -30.5,0 0,-4 0,-4 34.5,0 34.5,0 0,20 0,20 -34.5,0 -34.5,0 0,-11.5 z m 61,0 0,-4.5 -26.5,0 -26.5,0 0,3.83333 c 0,2.10834 0.3,4.13334 0.66667,4.5 l 0.66666,0.66667 25.83334,0 25.83333,0 0,-4.5 z m 13,-8.5 0,-20 4,0 4,0 0,20 0,20 -4,0 -4,0 0,-20 z m 13,0 0,-20 34.5,0 34.5,0 0,4 0,4 -30.5,0 -30.5,0 0,16 0,16 -4,0 -4,0 0,-20 z M 159.78571,504.31455 c -0.39285,-0.39285 -0.71426,-2.21426 -0.71426,-4.0476 l 0,-3.33333 4.56036,0 4.56037,0 -0.31037,3.75 -0.31036,3.75 -3.53574,0.29759 -3.53574,0.29759 -0.71426,-0.71425 z m 246.28574,-3.38093 0,-4 4,0 4,0 0,4 0,4 -4,0 -4,0 0,-4 z"
         id="path3067"
         inkscape:connector-curvature="0" />
      <path
         style="fill:#5692b6"
         d="m 85.071449,578.53286 0,-1.40076 4.451574,-5.34924 4.451575,-5.34924 -3.951575,-0.3075 -3.951574,-0.3075 0,-1.9425 0,-1.9425 7,0 7.000001,0 0,1.64877 0,1.64878 -4.619183,5.60122 -4.619183,5.60123 4.619183,0.30479 4.619183,0.30479 0,1.44521 0,1.44521 -7.500001,0 -7.5,0 0,-1.40076 z m 18.993971,-3.09047 3.09005,-4.49124 -2.54201,-3.7409 c -1.39811,-2.05749 -2.54201,-4.08644 -2.54201,-4.50876 l 0,-0.76787 1.97432,0 1.97432,0 1.62916,3.15045 1.62916,3.15044 1.99472,-3.15044 1.99472,-3.15045 2.01681,0 2.01681,0 -1.46217,2.25 c -0.80419,1.2375 -2.06567,3.22483 -2.80328,4.4163 l -1.34112,2.1663 2.68827,4.06226 c 3.2145,4.85743 3.24901,5.10514 0.71133,5.10514 l -1.97694,0 -1.63807,-2.5 c -0.90093,-1.375 -1.96027,-2.5 -2.35407,-2.5 -0.39381,0 -1.31809,1.125 -2.05397,2.5 l -1.33796,2.5 -2.37906,0 -2.37906,0 3.09005,-4.49123 z m 24.22853,2.93453 -2.2225,-1.55671 0,-1.90387 0,-1.90387 1.40653,-1.28942 1.40654,-1.28943 -1.49667,-1.67834 -1.49667,-1.67833 0.63547,-2.00217 0.63546,-2.00216 3.03284,-0.66613 3.03285,-0.66612 3.36546,0.63136 3.36547,0.63137 0.64649,2.03692 0.64649,2.03693 -1.49666,1.67833 -1.49667,1.67834 1.40653,1.28943 1.40654,1.28942 0,1.90387 0,1.90387 -2.22251,1.55671 -2.2225,1.5567 -3.05499,0 -3.05499,0 -2.22251,-1.5567 z m 8.2775,-3.9433 0,-2 -2.36534,-0.33466 -2.36533,-0.33467 -1.01745,1.01745 -1.01745,1.01745 0.6271,1.63418 0.6271,1.63419 2.75568,-0.31697 2.75569,-0.31697 0,-2 z m 0,-7.5 0,-1.5 -2.36534,-0.33466 -2.36533,-0.33467 -0.99753,0.99753 -0.99754,0.99754 0.70731,1.14444 0.7073,1.14444 2.65556,-0.30731 2.65557,-0.30731 0,-1.5 z m 8.5,11.5 0,-1.5 2,0 2,0 0,-6.06739 0,-6.06738 -2,0.63477 -2,0.63477 0,-1.46039 0,-1.4604 1.58179,-0.60699 c 0.86998,-0.33384 2.66998,-0.60699 4,-0.60699 l 2.41821,0 0,7.5 0,7.5 2,0 2,0 0,1.5 0,1.5 -6,0 -6,0 0,-1.5 z m 340.5,-49.5 29.9875,-30 17,0 17,0 -29.9875,30 -29.9875,30 -17,0 -17,0 29.9875,-30 z m 68,0 29.9875,-30 33.75625,0 33.75625,0 0,0.75636 c 0,0.41599 -13.16531,13.91599 -29.25625,30 l -29.25625,29.24364 -34.4875,0 -34.4875,0 29.9875,-30 z m -467.500001,16.5 0,-3.5 30.000001,0 30,0 0,-4.5 0,-4.5 -29.86408,0 -29.864073,0 -0.635924,-4.63957 c -0.349758,-2.55176 -0.635924,-7.95176 -0.635924,-12 l 0,-7.36043 34.500001,0 34.5,0 0,4 0,4 -30.60699,0 -30.606989,0 0.606989,1.58179 c 0.333844,0.86998 0.606989,2.66998 0.606989,4 l 0,2.41821 30.000001,0 30,0 0,12 0,12 -34,0 -34.000001,0 0,-3.5 z m 73.000001,-16.5 0,-20 4.5,0 4.5,0 0,20 0,20 -4.5,0 -4.5,0 0,-20 z m 13,0 0,-20 34.5,0 34.5,0 0,20 0,20 -4,0 -4,0 0,-16 0,-16 -26.5,0 -26.5,0 0,16 0,16 -4,0 -4,0 0,-20 z m 73,0 0,-20 34.5,0 34.5,0 0,4 0,4 -30,0 -30,0 0,12.5 0,12.5 30,0 30,0 0,3.5 0,3.5 -34.5,0 -34.5,0 0,-20 z m 75,-6 0,-26 4,0 4,0 0,26 0,26 -4,0 -4,0 0,-26 z m 12,14.5 0,-11.5 30.5,0 30.5,0 0,-4.5 0,-4.5 -30.5,0 -30.5,0 0,-4 0,-4 34.5,0 34.5,0 0,20 0,20 -34.5,0 -34.5,0 0,-11.5 z m 61,0 0,-4.5 -26.5,0 -26.5,0 0,3.83333 c 0,2.10834 0.3,4.13334 0.66667,4.5 l 0.66666,0.66667 25.83334,0 25.83333,0 0,-4.5 z m 13,-8.5 0,-20 4,0 4,0 0,20 0,20 -4,0 -4,0 0,-20 z m 13,0 0,-20 34.5,0 34.5,0 0,4 0,4 -30.5,0 -30.5,0 0,16 0,16 -4,0 -4,0 0,-20 z M 159.78571,504.31455 c -0.39285,-0.39285 -0.71426,-2.21426 -0.71426,-4.0476 l 0,-3.33333 4.56036,0 4.56037,0 -0.31037,3.75 -0.31036,3.75 -3.53574,0.29759 -3.53574,0.29759 -0.71426,-0.71425 z m 246.28574,-3.38093 0,-4 4,0 4,0 0,4 0,4 -4,0 -4,0 0,-4 z"
         id="path3065"
         inkscape:connector-curvature="0" />
      <path
         style="fill:#d96146"
         d="m 85.071449,578.53286 0,-1.40076 4.451574,-5.34924 4.451575,-5.34924 -3.951575,-0.3075 -3.951574,-0.3075 0,-1.9425 0,-1.9425 7,0 7.000001,0 0,1.64877 0,1.64878 -4.619183,5.60122 -4.619183,5.60123 4.619183,0.30479 4.619183,0.30479 0,1.44521 0,1.44521 -7.500001,0 -7.5,0 0,-1.40076 z m 18.993971,-3.09047 3.09005,-4.49124 -2.54201,-3.7409 c -1.39811,-2.05749 -2.54201,-4.08644 -2.54201,-4.50876 l 0,-0.76787 1.97432,0 1.97432,0 1.62916,3.15045 1.62916,3.15044 1.99472,-3.15044 1.99472,-3.15045 2.01681,0 2.01681,0 -1.46217,2.25 c -0.80419,1.2375 -2.06567,3.22483 -2.80328,4.4163 l -1.34112,2.1663 2.68827,4.06226 c 3.2145,4.85743 3.24901,5.10514 0.71133,5.10514 l -1.97694,0 -1.63807,-2.5 c -0.90093,-1.375 -1.96027,-2.5 -2.35407,-2.5 -0.39381,0 -1.31809,1.125 -2.05397,2.5 l -1.33796,2.5 -2.37906,0 -2.37906,0 3.09005,-4.49123 z m 24.22853,2.93453 -2.2225,-1.55671 0,-1.90387 0,-1.90387 1.40653,-1.28942 1.40654,-1.28943 -1.49667,-1.67834 -1.49667,-1.67833 0.63547,-2.00217 0.63546,-2.00216 3.03284,-0.66613 3.03285,-0.66612 3.36546,0.63136 3.36547,0.63137 0.64649,2.03692 0.64649,2.03693 -1.49666,1.67833 -1.49667,1.67834 1.40653,1.28943 1.40654,1.28942 0,1.90387 0,1.90387 -2.22251,1.55671 -2.2225,1.5567 -3.05499,0 -3.05499,0 -2.22251,-1.5567 z m 8.2775,-3.9433 0,-2 -2.36534,-0.33466 -2.36533,-0.33467 -1.01745,1.01745 -1.01745,1.01745 0.6271,1.63418 0.6271,1.63419 2.75568,-0.31697 2.75569,-0.31697 0,-2 z m 0,-7.5 0,-1.5 -2.36534,-0.33466 -2.36533,-0.33467 -0.99753,0.99753 -0.99754,0.99754 0.70731,1.14444 0.7073,1.14444 2.65556,-0.30731 2.65557,-0.30731 0,-1.5 z m 8.5,11.5 0,-1.5 2,0 2,0 0,-6.06739 0,-6.06738 -2,0.63477 -2,0.63477 0,-1.46039 0,-1.4604 1.58179,-0.60699 c 0.86998,-0.33384 2.66998,-0.60699 4,-0.60699 l 2.41821,0 0,7.5 0,7.5 2,0 2,0 0,1.5 0,1.5 -6,0 -6,0 0,-1.5 z m 340.5,-49.5 29.9875,-30 17,0 17,0 -29.9875,30 -29.9875,30 -17,0 -17,0 29.9875,-30 z m 68,0 29.9875,-30 17,0 17,0 -29.9875,30 -29.9875,30 -17,0 -17,0 29.9875,-30 z m 35,0 29.9875,-30 16.5,0 16.5,0 -29.9875,30 -29.9875,30 -16.5,0 -16.5,0 29.9875,-30 z m -502.500001,16.5 0,-3.5 30.000001,0 30,0 0,-4.5 0,-4.5 -29.86408,0 -29.864073,0 -0.635924,-4.63957 c -0.349758,-2.55176 -0.635924,-7.95176 -0.635924,-12 l 0,-7.36043 34.500001,0 34.5,0 0,4 0,4 -30.60699,0 -30.606989,0 0.606989,1.58179 c 0.333844,0.86998 0.606989,2.66998 0.606989,4 l 0,2.41821 30.000001,0 30,0 0,12 0,12 -34,0 -34.000001,0 0,-3.5 z m 73.000001,-16.5 0,-20 4.5,0 4.5,0 0,20 0,20 -4.5,0 -4.5,0 0,-20 z m 13,0 0,-20 34.5,0 34.5,0 0,20 0,20 -4,0 -4,0 0,-16 0,-16 -26.5,0 -26.5,0 0,16 0,16 -4,0 -4,0 0,-20 z m 73,0 0,-20 34.5,0 34.5,0 0,4 0,4 -30,0 -30,0 0,12.5 0,12.5 30,0 30,0 0,3.5 0,3.5 -34.5,0 -34.5,0 0,-20 z m 75,-6 0,-26 4,0 4,0 0,26 0,26 -4,0 -4,0 0,-26 z m 12,14.5 0,-11.5 30.5,0 30.5,0 0,-4.5 0,-4.5 -30.5,0 -30.5,0 0,-4 0,-4 34.5,0 34.5,0 0,20 0,20 -34.5,0 -34.5,0 0,-11.5 z m 61,0 0,-4.5 -26.5,0 -26.5,0 0,3.83333 c 0,2.10834 0.3,4.13334 0.66667,4.5 l 0.66666,0.66667 25.83334,0 25.83333,0 0,-4.5 z m 13,-8.5 0,-20 4,0 4,0 0,20 0,20 -4,0 -4,0 0,-20 z m 13,0 0,-20 34.5,0 34.5,0 0,4 0,4 -30.5,0 -30.5,0 0,16 0,16 -4,0 -4,0 0,-20 z M 159.78571,504.31455 c -0.39285,-0.39285 -0.71426,-2.21426 -0.71426,-4.0476 l 0,-3.33333 4.56036,0 4.56037,0 -0.31037,3.75 -0.31036,3.75 -3.53574,0.29759 -3.53574,0.29759 -0.71426,-0.71425 z m 246.28574,-3.38093 0,-4 4,0 4,0 0,4 0,4 -4,0 -4,0 0,-4 z"
         id="path3063"
         inkscape:connector-curvature="0" />
      <path
         style="fill:#2baa53"
         d="m 85.071449,578.53286 0,-1.40076 4.451574,-5.34924 4.451575,-5.34924 -3.951575,-0.3075 -3.951574,-0.3075 0,-1.9425 0,-1.9425 7,0 7.000001,0 0,1.64877 0,1.64878 -4.619183,5.60122 -4.619183,5.60123 4.619183,0.30479 4.619183,0.30479 0,1.44521 0,1.44521 -7.500001,0 -7.5,0 0,-1.40076 z m 18.993971,-3.09047 3.09005,-4.49124 -2.54201,-3.7409 c -1.39811,-2.05749 -2.54201,-4.08644 -2.54201,-4.50876 l 0,-0.76787 1.97432,0 1.97432,0 1.62916,3.15045 1.62916,3.15044 1.99472,-3.15044 1.99472,-3.15045 2.01681,0 2.01681,0 -1.46217,2.25 c -0.80419,1.2375 -2.06567,3.22483 -2.80328,4.4163 l -1.34112,2.1663 2.68827,4.06226 c 3.2145,4.85743 3.24901,5.10514 0.71133,5.10514 l -1.97694,0 -1.63807,-2.5 c -0.90093,-1.375 -1.96027,-2.5 -2.35407,-2.5 -0.39381,0 -1.31809,1.125 -2.05397,2.5 l -1.33796,2.5 -2.37906,0 -2.37906,0 3.09005,-4.49123 z m 24.22853,2.93453 -2.2225,-1.55671 0,-1.90387 0,-1.90387 1.40653,-1.28942 1.40654,-1.28943 -1.49667,-1.67834 -1.49667,-1.67833 0.63547,-2.00217 0.63546,-2.00216 3.03284,-0.66613 3.03285,-0.66612 3.36546,0.63136 3.36547,0.63137 0.64649,2.03692 0.64649,2.03693 -1.49666,1.67833 -1.49667,1.67834 1.40653,1.28943 1.40654,1.28942 0,1.90387 0,1.90387 -2.22251,1.55671 -2.2225,1.5567 -3.05499,0 -3.05499,0 -2.22251,-1.5567 z m 8.2775,-3.9433 0,-2 -2.36534,-0.33466 -2.36533,-0.33467 -1.01745,1.01745 -1.01745,1.01745 0.6271,1.63418 0.6271,1.63419 2.75568,-0.31697 2.75569,-0.31697 0,-2 z m 0,-7.5 0,-1.5 -2.36534,-0.33466 -2.36533,-0.33467 -0.99753,0.99753 -0.99754,0.99754 0.70731,1.14444 0.7073,1.14444 2.65556,-0.30731 2.65557,-0.30731 0,-1.5 z m 8.5,11.5 0,-1.5 2,0 2,0 0,-6.06739 0,-6.06738 -2,0.63477 -2,0.63477 0,-1.46039 0,-1.4604 1.58179,-0.60699 c 0.86998,-0.33384 2.66998,-0.60699 4,-0.60699 l 2.41821,0 0,7.5 0,7.5 2,0 2,0 0,1.5 0,1.5 -6,0 -6,0 0,-1.5 z m 340,-49 29.48729,-29.5 16.5,0 16.5,0 -29.48729,29.5 -29.48729,29.5 -16.5,0 -16.5,0 29.48729,-29.5 z m 68.5,-0.5 29.9875,-30 17,0 17,0 -29.9875,30 -29.9875,30 -17,0 -17,0 29.9875,-30 z m 35,0 29.9875,-30 16.5,0 16.5,0 -29.9875,30 -29.9875,30 -16.5,0 -16.5,0 29.9875,-30 z m -502.500001,16.5 0,-3.5 30.000001,0 30,0 0,-4.5 0,-4.5 -29.86408,0 -29.864073,0 -0.635924,-4.63957 c -0.349758,-2.55176 -0.635924,-7.95176 -0.635924,-12 l 0,-7.36043 34.500001,0 34.5,0 0,4 0,4 -30.60699,0 -30.606989,0 0.606989,1.58179 c 0.333844,0.86998 0.606989,2.66998 0.606989,4 l 0,2.41821 30.000001,0 30,0 0,12 0,12 -34,0 -34.000001,0 0,-3.5 z m 73.000001,-16.5 0,-20 4.5,0 4.5,0 0,20 0,20 -4.5,0 -4.5,0 0,-20 z m 13,0 0,-20 34.5,0 34.5,0 0,20 0,20 -4,0 -4,0 0,-16 0,-16 -26.5,0 -26.5,0 0,16 0,16 -4,0 -4,0 0,-20 z m 73,0 0,-20 34.5,0 34.5,0 0,4 0,4 -30,0 -30,0 0,12.5 0,12.5 30,0 30,0 0,3.5 0,3.5 -34.5,0 -34.5,0 0,-20 z m 75,-6 0,-26 4,0 4,0 0,26 0,26 -4,0 -4,0 0,-26 z m 12,14.5 0,-11.5 30.5,0 30.5,0 0,-4.5 0,-4.5 -30.5,0 -30.5,0 0,-4 0,-4 34.5,0 34.5,0 0,20 0,20 -34.5,0 -34.5,0 0,-11.5 z m 61,0 0,-4.5 -26.5,0 -26.5,0 0,3.83333 c 0,2.10834 0.3,4.13334 0.66667,4.5 l 0.66666,0.66667 25.83334,0 25.83333,0 0,-4.5 z m 13,-8.5 0,-20 4,0 4,0 0,20 0,20 -4,0 -4,0 0,-20 z m 13,0 0,-20 34.5,0 34.5,0 0,4 0,4 -30.5,0 -30.5,0 0,16 0,16 -4,0 -4,0 0,-20 z M 159.78571,504.31455 c -0.39285,-0.39285 -0.71426,-2.21426 -0.71426,-4.0476 l 0,-3.33333 4.56036,0 4.56037,0 -0.31037,3.75 -0.31036,3.75 -3.53574,0.29759 -3.53574,0.29759 -0.71426,-0.71425 z m 246.28574,-3.38093 0,-4 4,0 4,0 0,4 0,4 -4,0 -4,0 0,-4 z"
         id="path3061"
         inkscape:connector-curvature="0" />
      <path
         style="fill:#c92724"
         d="m 85.071449,578.53286 0,-1.40076 4.451574,-5.34924 4.451575,-5.34924 -3.951575,-0.3075 -3.951574,-0.3075 0,-1.9425 0,-1.9425 7,0 7.000001,0 0,1.64877 0,1.64878 -4.619183,5.60122 -4.619183,5.60123 4.619183,0.30479 4.619183,0.30479 0,1.44521 0,1.44521 -7.500001,0 -7.5,0 0,-1.40076 z m 18.993971,-3.09047 3.09005,-4.49124 -2.54201,-3.7409 c -1.39811,-2.05749 -2.54201,-4.08644 -2.54201,-4.50876 l 0,-0.76787 1.97432,0 1.97432,0 1.62916,3.15045 1.62916,3.15044 1.99472,-3.15044 1.99472,-3.15045 2.01681,0 2.01681,0 -1.46217,2.25 c -0.80419,1.2375 -2.06567,3.22483 -2.80328,4.4163 l -1.34112,2.1663 2.68827,4.06226 c 3.2145,4.85743 3.24901,5.10514 0.71133,5.10514 l -1.97694,0 -1.63807,-2.5 c -0.90093,-1.375 -1.96027,-2.5 -2.35407,-2.5 -0.39381,0 -1.31809,1.125 -2.05397,2.5 l -1.33796,2.5 -2.37906,0 -2.37906,0 3.09005,-4.49123 z m 24.22853,2.93453 -2.2225,-1.55671 0,-1.90387 0,-1.90387 1.40653,-1.28942 1.40654,-1.28943 -1.49667,-1.67834 -1.49667,-1.67833 0.63547,-2.00217 0.63546,-2.00216 3.03284,-0.66613 3.03285,-0.66612 3.36546,0.63136 3.36547,0.63137 0.64649,2.03692 0.64649,2.03693 -1.49666,1.67833 -1.49667,1.67834 1.40653,1.28943 1.40654,1.28942 0,1.90387 0,1.90387 -2.22251,1.55671 -2.2225,1.5567 -3.05499,0 -3.05499,0 -2.22251,-1.5567 z m 8.2775,-3.9433 0,-2 -2.36534,-0.33466 -2.36533,-0.33467 -1.01745,1.01745 -1.01745,1.01745 0.6271,1.63418 0.6271,1.63419 2.75568,-0.31697 2.75569,-0.31697 0,-2 z m 0,-7.5 0,-1.5 -2.36534,-0.33466 -2.36533,-0.33467 -0.99753,0.99753 -0.99754,0.99754 0.70731,1.14444 0.7073,1.14444 2.65556,-0.30731 2.65557,-0.30731 0,-1.5 z m 8.5,11.5 0,-1.5 2,0 2,0 0,-6.06739 0,-6.06738 -2,0.63477 -2,0.63477 0,-1.46039 0,-1.4604 1.58179,-0.60699 c 0.86998,-0.33384 2.66998,-0.60699 4,-0.60699 l 2.41821,0 0,7.5 0,7.5 2,0 2,0 0,1.5 0,1.5 -6,0 -6,0 0,-1.5 z m 340,-49 29.48729,-29.5 16.5,0 16.5,0 -29.48729,29.5 -29.48729,29.5 -16.5,0 -16.5,0 29.48729,-29.5 z m 69,0 29.48729,-29.5 16.5,0 16.5,0 -29.48729,29.5 -29.48729,29.5 -16.5,0 -16.5,0 29.48729,-29.5 z m 34.5,-0.5 29.9875,-30 16.5,0 16.5,0 -29.9875,30 -29.9875,30 -16.5,0 -16.5,0 29.9875,-30 z m -502.500001,16.5 0,-3.5 30.000001,0 30,0 0,-4.5 0,-4.5 -29.86408,0 -29.864073,0 -0.635924,-4.63957 c -0.349758,-2.55176 -0.635924,-7.95176 -0.635924,-12 l 0,-7.36043 34.500001,0 34.5,0 0,4 0,4 -30.60699,0 -30.606989,0 0.606989,1.58179 c 0.333844,0.86998 0.606989,2.66998 0.606989,4 l 0,2.41821 30.000001,0 30,0 0,12 0,12 -34,0 -34.000001,0 0,-3.5 z m 73.000001,-16.5 0,-20 4.5,0 4.5,0 0,20 0,20 -4.5,0 -4.5,0 0,-20 z m 13,0 0,-20 34.5,0 34.5,0 0,20 0,20 -4,0 -4,0 0,-16 0,-16 -26.5,0 -26.5,0 0,16 0,16 -4,0 -4,0 0,-20 z m 73,0 0,-20 34.5,0 34.5,0 0,4 0,4 -30,0 -30,0 0,12.5 0,12.5 30,0 30,0 0,3.5 0,3.5 -34.5,0 -34.5,0 0,-20 z m 75,-6 0,-26 4,0 4,0 0,26 0,26 -4,0 -4,0 0,-26 z m 12,14.5 0,-11.5 30.5,0 30.5,0 0,-4.5 0,-4.5 -30.5,0 -30.5,0 0,-4 0,-4 34.5,0 34.5,0 0,20 0,20 -34.5,0 -34.5,0 0,-11.5 z m 61,0 0,-4.5 -26.5,0 -26.5,0 0,3.83333 c 0,2.10834 0.3,4.13334 0.66667,4.5 l 0.66666,0.66667 25.83334,0 25.83333,0 0,-4.5 z m 13,-8.5 0,-20 4,0 4,0 0,20 0,20 -4,0 -4,0 0,-20 z m 13,0 0,-20 34.5,0 34.5,0 0,4 0,4 -30.5,0 -30.5,0 0,16 0,16 -4,0 -4,0 0,-20 z M 159.78571,504.31455 c -0.39285,-0.39285 -0.71426,-2.21426 -0.71426,-4.0476 l 0,-3.33333 4.56036,0 4.56037,0 -0.31037,3.75 -0.31036,3.75 -3.53574,0.29759 -3.53574,0.29759 -0.71426,-0.71425 z m 246.28574,-3.38093 0,-4 4,0 4,0 0,4 0,4 -4,0 -4,0 0,-4 z"
         id="path3059"
         inkscape:connector-curvature="0" />
      <path
         style="fill:#595959"
         d="m 85.071449,578.53286 0,-1.40076 4.451574,-5.34924 4.451575,-5.34924 -3.951575,-0.3075 -3.951574,-0.3075 0,-1.9425 0,-1.9425 7,0 7.000001,0 0,1.64877 0,1.64878 -4.619183,5.60122 -4.619183,5.60123 4.619183,0.30479 4.619183,0.30479 0,1.44521 0,1.44521 -7.500001,0 -7.5,0 0,-1.40076 z m 18.993971,-3.09047 3.09005,-4.49124 -2.54201,-3.7409 c -1.39811,-2.05749 -2.54201,-4.08644 -2.54201,-4.50876 l 0,-0.76787 1.97432,0 1.97432,0 1.62916,3.15045 1.62916,3.15044 1.99472,-3.15044 1.99472,-3.15045 2.01681,0 2.01681,0 -1.46217,2.25 c -0.80419,1.2375 -2.06567,3.22483 -2.80328,4.4163 l -1.34112,2.1663 2.68827,4.06226 c 3.2145,4.85743 3.24901,5.10514 0.71133,5.10514 l -1.97694,0 -1.63807,-2.5 c -0.90093,-1.375 -1.96027,-2.5 -2.35407,-2.5 -0.39381,0 -1.31809,1.125 -2.05397,2.5 l -1.33796,2.5 -2.37906,0 -2.37906,0 3.09005,-4.49123 z m 24.22853,2.93453 -2.2225,-1.55671 0,-1.90387 0,-1.90387 1.40653,-1.28942 1.40654,-1.28943 -1.49667,-1.67834 -1.49667,-1.67833 0.63547,-2.00217 0.63546,-2.00216 3.03284,-0.66613 3.03285,-0.66612 3.36546,0.63136 3.36547,0.63137 0.64649,2.03692 0.64649,2.03693 -1.49666,1.67833 -1.49667,1.67834 1.40653,1.28943 1.40654,1.28942 0,1.90387 0,1.90387 -2.22251,1.55671 -2.2225,1.5567 -3.05499,0 -3.05499,0 -2.22251,-1.5567 z m 8.2775,-3.9433 0,-2 -2.36534,-0.33466 -2.36533,-0.33467 -1.01745,1.01745 -1.01745,1.01745 0.6271,1.63418 0.6271,1.63419 2.75568,-0.31697 2.75569,-0.31697 0,-2 z m 0,-7.5 0,-1.5 -2.36534,-0.33466 -2.36533,-0.33467 -0.99753,0.99753 -0.99754,0.99754 0.70731,1.14444 0.7073,1.14444 2.65556,-0.30731 2.65557,-0.30731 0,-1.5 z m 8.5,11.5 0,-1.5 2,0 2,0 0,-6.06739 0,-6.06738 -2,0.63477 -2,0.63477 0,-1.46039 0,-1.4604 1.58179,-0.60699 c 0.86998,-0.33384 2.66998,-0.60699 4,-0.60699 l 2.41821,0 0,7.5 0,7.5 2,0 2,0 0,1.5 0,1.5 -6,0 -6,0 0,-1.5 z m 409,-49 29.48729,-29.5 16.5,0 16.5,0 -29.48729,29.5 -29.48729,29.5 -16.5,0 -16.5,0 29.48729,-29.5 z m 34.5,-0.5 29.9875,-30 16.5,0 16.5,0 -29.9875,30 -29.9875,30 -16.5,0 -16.5,0 29.9875,-30 z m -502.500001,16.5 0,-3.5 30.000001,0 30,0 0,-4.5 0,-4.5 -29.86408,0 -29.864073,0 -0.635924,-4.63957 c -0.349758,-2.55176 -0.635924,-7.95176 -0.635924,-12 l 0,-7.36043 34.500001,0 34.5,0 0,4 0,4 -30.60699,0 -30.606989,0 0.606989,1.58179 c 0.333844,0.86998 0.606989,2.66998 0.606989,4 l 0,2.41821 30.000001,0 30,0 0,12 0,12 -34,0 -34.000001,0 0,-3.5 z m 73.000001,-16.5 0,-20 4.5,0 4.5,0 0,20 0,20 -4.5,0 -4.5,0 0,-20 z m 13,0 0,-20 34.5,0 34.5,0 0,20 0,20 -4,0 -4,0 0,-16 0,-16 -26.5,0 -26.5,0 0,16 0,16 -4,0 -4,0 0,-20 z m 73,0 0,-20 34.5,0 34.5,0 0,4 0,4 -30,0 -30,0 0,12.5 0,12.5 30,0 30,0 0,3.5 0,3.5 -34.5,0 -34.5,0 0,-20 z m 75,-6 0,-26 4,0 4,0 0,26 0,26 -4,0 -4,0 0,-26 z m 12,14.5 0,-11.5 30.5,0 30.5,0 0,-4.5 0,-4.5 -30.5,0 -30.5,0 0,-4 0,-4 34.5,0 34.5,0 0,20 0,20 -34.5,0 -34.5,0 0,-11.5 z m 61,0 0,-4.5 -26.5,0 -26.5,0 0,3.83333 c 0,2.10834 0.3,4.13334 0.66667,4.5 l 0.66666,0.66667 25.83334,0 25.83333,0 0,-4.5 z m 13,-8.5 0,-20 4,0 4,0 0,20 0,20 -4,0 -4,0 0,-20 z m 13,0 0,-20 34.5,0 34.5,0 0,4 0,4 -30.5,0 -30.5,0 0,16 0,16 -4,0 -4,0 0,-20 z M 159.78571,504.31455 c -0.39285,-0.39285 -0.71426,-2.21426 -0.71426,-4.0476 l 0,-3.33333 4.56036,0 4.56037,0 -0.31037,3.75 -0.31036,3.75 -3.53574,0.29759 -3.53574,0.29759 -0.71426,-0.71425 z m 246.28574,-3.38093 0,-4 4,0 4,0 0,4 0,4 -4,0 -4,0 0,-4 z"
         id="path3057"
         inkscape:connector-curvature="0" />
      <path
         style="fill:#01549b"
         d="m 85.071449,578.78485 c 0,-0.63183 2.025,-3.60852 4.5,-6.61488 2.475,-3.00636 4.5,-5.86441 4.5,-6.35123 l 0,-0.88512 -4,0 -4,0 0,-1.5 0,-1.5 6.531385,0 6.531385,0 0.573134,1.49356 0.573137,1.49357 -5.203466,6.00643 -5.203464,6.00644 5.098945,0 5.098945,0 0,1.5 0,1.5 -7.500001,0 -7.5,0 0,-1.14877 z m 19.043251,-3.41409 3.13933,-4.56286 -2.59129,-3.9157 c -3.00661,-4.54329 -3.10052,-4.95858 -1.12123,-4.95858 l 1.47006,0 2.22375,3.00778 2.22375,3.00778 1.90439,-3.00778 1.90439,-3.00778 1.4018,0 1.4018,0 -0.0222,1.25 c -0.0122,0.6875 -0.90222,2.375 -1.97776,3.75 -2.44574,3.1267 -2.47455,4.5052 -0.16397,7.84563 1.00982,1.4599 2.16138,3.21687 2.55902,3.90437 l 0.72298,1.25 -1.96081,0 -1.96082,0 -1.96095,-3.09712 -1.96096,-3.09711 -2.20534,3.09711 -2.20534,3.09712 -1.97995,0 -1.97994,0 3.13933,-4.56286 z m 25.29469,3.56423 -2.16206,-0.87186 -0.67807,-2.13642 -0.67808,-2.13642 1.61536,-1.78495 1.61537,-1.78496 -1.52523,-1.26582 c -0.83888,-0.69621 -1.52523,-1.86021 -1.52523,-2.58668 l 0,-1.32085 2.2225,-1.55671 2.22251,-1.5567 3.05499,0 3.05499,0 2.2225,1.5567 2.22251,1.55671 0,1.32085 c 0,0.72647 -0.68635,1.89047 -1.52523,2.58668 l -1.52523,1.26583 1.61536,1.78495 1.61536,1.78495 -0.6757,2.12895 -0.6757,2.12895 -2.47953,0.94271 c -2.97002,1.1292 -5.10954,1.11427 -8.01139,-0.0559 z m 7.16206,-4.50137 0,-2 -2.36534,-0.33466 -2.36533,-0.33467 -1.01745,1.01745 -1.01745,1.01745 0.6271,1.63418 0.6271,1.63419 2.75568,-0.31697 2.75569,-0.31697 0,-2 z m 0,-7.5 0,-1.5 -2.36534,-0.33466 -2.36533,-0.33467 -0.99753,0.99753 -0.99754,0.99754 0.70731,1.14444 0.7073,1.14444 2.65556,-0.30731 2.65557,-0.30731 0,-1.5 z m 8.5,11.5 0,-1.5 2,0 2,0 0,-6.11663 0,-6.11663 -2,0.52301 -2,0.52301 0,-1.28975 0,-1.28975 2.25,-0.60297 c 1.2375,-0.33164 3.0375,-0.60912 4,-0.61664 l 1.75,-0.0136 0,7.5 0,7.5 2,0 2,0 0,1.5 0,1.5 -6,0 -6,0 0,-1.5 z m 409,-49 29.48729,-29.5 16.5,0 16.5,0 -29.48729,29.5 -29.48729,29.5 -16.5,0 -16.5,0 29.48729,-29.5 z m 34.5,-0.5 29.9875,-30 16.5,0 16.5,0 -29.9875,30 -29.9875,30 -16.5,0 -16.5,0 29.9875,-30 z m -502.500001,16.5 0,-3.5 30.000001,0 30,0 0,-4.5 0,-4.5 -30,0 -30.000001,0 -0.01101,-8.25 c -0.0061,-4.5375 -0.289932,-9.9375 -0.630842,-12 l -0.619837,-3.75 34.63085,0 34.63084,0 0,3.48534 0,3.48533 -30.23665,0.26467 -30.236644,0.26466 -0.351912,1.8291 c -0.193552,1.006 -0.07849,2.9185 0.255697,4.25 l 0.607608,2.4209 29.980951,0 29.98095,0 0,12 0,12 -34,0 -34.000005,0 0,-3.5 z m 74.000001,-16.5 0,-20 3.5,0 3.5,0 0,20 0,20 -3.5,0 -3.5,0 0,-20 z m 12,0 0,-20 34.5,0 34.5,0 0,20 0,20 -4,0 -4,0 0,-16 0,-16 -26.5,0 -26.5,0 0,16 0,16 -4,0 -4,0 0,-20 z m 73.22886,0.25 0.27114,-19.75 34.25,-0.26313 34.25,-0.26312 0,4.01312 0,4.01313 -30.5,0 -30.5,0 0,12.5 0,12.5 30.5,0 30.5,0 0,3.5 0,3.5 -34.52114,0 -34.52114,0 0.27114,-19.75 z m 74.77114,-6.25 0,-26 4,0 4,0 0,26 0,26 -4,0 -4,0 0,-26 z m 12,14.5 0,-11.5 30.5,0 30.5,0 0,-4.48534 0,-4.48533 -30.25,-0.26467 -30.25,-0.26466 0,-3.5 0,-3.5 34.25,-0.26313 34.25,-0.26312 0,20.01312 0,20.01313 -34.5,0 -34.5,0 0,-11.5 z m 61,0 0,-4.5 -26.5,0 -26.5,0 0,4.5 0,4.5 26.5,0 26.5,0 0,-4.5 z m 13,-8.5 0,-20 4,0 4,0 0,20 0,20 -4,0 -4,0 0,-20 z m 13.22886,0.25 0.27114,-19.75 34.25,-0.26313 34.25,-0.26312 0,4.01312 0,4.01313 -30.5,0 -30.5,0 0,16 0,16 -4.02114,0 -4.02114,0 0.27114,-19.75 z m -259.22886,-28.25 0,-4 3.5,0 3.5,0 0,4 0,4 -3.5,0 -3.5,0 0,-4 z m 246,0 0,-4 4,0 4,0 0,4 0,4 -4,0 -4,0 0,-4 z"
         id="path3055"
         inkscape:connector-curvature="0" />
      <path
         style="fill:#009b36"
         d="m 85.071449,578.78485 c 0,-0.63183 2.025,-3.60852 4.5,-6.61488 2.475,-3.00636 4.5,-5.86441 4.5,-6.35123 l 0,-0.88512 -4,0 -4,0 0,-1.5 0,-1.5 6.531385,0 6.531385,0 0.573134,1.49356 0.573137,1.49357 -5.203466,6.00643 -5.203464,6.00644 5.098945,0 5.098945,0 0,1.5 0,1.5 -7.500001,0 -7.5,0 0,-1.14877 z m 19.043251,-3.41409 3.13933,-4.56286 -2.59129,-3.9157 c -3.00661,-4.54329 -3.10052,-4.95858 -1.12123,-4.95858 l 1.47006,0 2.22375,3.00778 2.22375,3.00778 1.90439,-3.00778 1.90439,-3.00778 1.4018,0 1.4018,0 -0.0222,1.25 c -0.0122,0.6875 -0.90222,2.375 -1.97776,3.75 -2.44574,3.1267 -2.47455,4.5052 -0.16397,7.84563 1.00982,1.4599 2.16138,3.21687 2.55902,3.90437 l 0.72298,1.25 -1.96081,0 -1.96082,0 -1.96095,-3.09712 -1.96096,-3.09711 -2.20534,3.09711 -2.20534,3.09712 -1.97995,0 -1.97994,0 3.13933,-4.56286 z m 25.29469,3.56423 -2.16206,-0.87186 -0.67807,-2.13642 -0.67808,-2.13642 1.61536,-1.78495 1.61537,-1.78496 -1.52523,-1.26582 c -0.83888,-0.69621 -1.52523,-1.86021 -1.52523,-2.58668 l 0,-1.32085 2.2225,-1.55671 2.22251,-1.5567 3.05499,0 3.05499,0 2.2225,1.5567 2.22251,1.55671 0,1.32085 c 0,0.72647 -0.68635,1.89047 -1.52523,2.58668 l -1.52523,1.26583 1.61536,1.78495 1.61536,1.78495 -0.6757,2.12895 -0.6757,2.12895 -2.47953,0.94271 c -2.97002,1.1292 -5.10954,1.11427 -8.01139,-0.0559 z m 7.16206,-4.50137 0,-2 -2.36534,-0.33466 -2.36533,-0.33467 -1.01745,1.01745 -1.01745,1.01745 0.6271,1.63418 0.6271,1.63419 2.75568,-0.31697 2.75569,-0.31697 0,-2 z m 0,-7.5 0,-1.5 -2.36534,-0.33466 -2.36533,-0.33467 -0.99753,0.99753 -0.99754,0.99754 0.70731,1.14444 0.7073,1.14444 2.65556,-0.30731 2.65557,-0.30731 0,-1.5 z m 8.5,11.5 0,-1.5 2,0 2,0 0,-6.11663 0,-6.11663 -2,0.52301 -2,0.52301 0,-1.28975 0,-1.28975 2.25,-0.60297 c 1.2375,-0.33164 3.0375,-0.60912 4,-0.61664 l 1.75,-0.0136 0,7.5 0,7.5 2,0 2,0 0,1.5 0,1.5 -6,0 -6,0 0,-1.5 z m 409,-49 29.48729,-29.5 16.5,0 16.5,0 -29.48729,29.5 -29.48729,29.5 -16.5,0 -16.5,0 29.48729,-29.5 z m -468.000001,16 0,-3.5 30.000001,0 30,0 0,-4.5 0,-4.5 -30,0 -30.000001,0 -0.01101,-8.25 c -0.0061,-4.5375 -0.289932,-9.9375 -0.630842,-12 l -0.619837,-3.75 34.63085,0 34.63084,0 0,3.48534 0,3.48533 -30.23665,0.26467 -30.236644,0.26466 -0.351912,1.8291 c -0.193552,1.006 -0.07849,2.9185 0.255697,4.25 l 0.607608,2.4209 29.980951,0 29.98095,0 0,12 0,12 -34,0 -34.000005,0 0,-3.5 z m 74.000001,-16.5 0,-20 3.5,0 3.5,0 0,20 0,20 -3.5,0 -3.5,0 0,-20 z m 12,0 0,-20 34.5,0 34.5,0 0,20 0,20 -4,0 -4,0 0,-16 0,-16 -26.5,0 -26.5,0 0,16 0,16 -4,0 -4,0 0,-20 z m 73.22886,0.25 0.27114,-19.75 34.25,-0.26313 34.25,-0.26312 0,4.01312 0,4.01313 -30.5,0 -30.5,0 0,12.5 0,12.5 30.5,0 30.5,0 0,3.5 0,3.5 -34.52114,0 -34.52114,0 0.27114,-19.75 z m 74.77114,-6.25 0,-26 4,0 4,0 0,26 0,26 -4,0 -4,0 0,-26 z m 12,14.5 0,-11.5 30.5,0 30.5,0 0,-4.48534 0,-4.48533 -30.25,-0.26467 -30.25,-0.26466 0,-3.5 0,-3.5 34.25,-0.26313 34.25,-0.26312 0,20.01312 0,20.01313 -34.5,0 -34.5,0 0,-11.5 z m 61,0 0,-4.5 -26.5,0 -26.5,0 0,4.5 0,4.5 26.5,0 26.5,0 0,-4.5 z m 13,-8.5 0,-20 4,0 4,0 0,20 0,20 -4,0 -4,0 0,-20 z m 13.22886,0.25 0.27114,-19.75 34.25,-0.26313 34.25,-0.26312 0,4.01312 0,4.01313 -30.5,0 -30.5,0 0,16 0,16 -4.02114,0 -4.02114,0 0.27114,-19.75 z m -259.22886,-28.25 0,-4 3.5,0 3.5,0 0,4 0,4 -3.5,0 -3.5,0 0,-4 z m 246,0 0,-4 4,0 4,0 0,4 0,4 -4,0 -4,0 0,-4 z"
         id="path3053"
         inkscape:connector-curvature="0" />
      <path
         style="fill:#2f2f2f"
         d="m 85.071449,578.78485 c 0,-0.63183 2.025,-3.60852 4.5,-6.61488 2.475,-3.00636 4.5,-5.86441 4.5,-6.35123 l 0,-0.88512 -4,0 -4,0 0,-1.5 0,-1.5 6.531385,0 6.531385,0 0.573134,1.49356 0.573137,1.49357 -5.203466,6.00643 -5.203464,6.00644 5.098945,0 5.098945,0 0,1.5 0,1.5 -7.500001,0 -7.5,0 0,-1.14877 z m 19.043251,-3.41409 3.13933,-4.56286 -2.59129,-3.9157 c -3.00661,-4.54329 -3.10052,-4.95858 -1.12123,-4.95858 l 1.47006,0 2.22375,3.00778 2.22375,3.00778 1.90439,-3.00778 1.90439,-3.00778 1.4018,0 1.4018,0 -0.0222,1.25 c -0.0122,0.6875 -0.90222,2.375 -1.97776,3.75 -2.44574,3.1267 -2.47455,4.5052 -0.16397,7.84563 1.00982,1.4599 2.16138,3.21687 2.55902,3.90437 l 0.72298,1.25 -1.96081,0 -1.96082,0 -1.96095,-3.09712 -1.96096,-3.09711 -2.20534,3.09711 -2.20534,3.09712 -1.97995,0 -1.97994,0 3.13933,-4.56286 z m 25.29469,3.56423 -2.16206,-0.87186 -0.67807,-2.13642 -0.67808,-2.13642 1.61536,-1.78495 1.61537,-1.78496 -1.52523,-1.26582 c -0.83888,-0.69621 -1.52523,-1.86021 -1.52523,-2.58668 l 0,-1.32085 2.2225,-1.55671 2.22251,-1.5567 3.05499,0 3.05499,0 2.2225,1.5567 2.22251,1.55671 0,1.32085 c 0,0.72647 -0.68635,1.89047 -1.52523,2.58668 l -1.52523,1.26583 1.61536,1.78495 1.61536,1.78495 -0.6757,2.12895 -0.6757,2.12895 -2.47953,0.94271 c -2.97002,1.1292 -5.10954,1.11427 -8.01139,-0.0559 z m 7.16206,-4.50137 0,-2 -2.36534,-0.33466 -2.36533,-0.33467 -1.01745,1.01745 -1.01745,1.01745 0.6271,1.63418 0.6271,1.63419 2.75568,-0.31697 2.75569,-0.31697 0,-2 z m 0,-7.5 0,-1.5 -2.36534,-0.33466 -2.36533,-0.33467 -0.99753,0.99753 -0.99754,0.99754 0.70731,1.14444 0.7073,1.14444 2.65556,-0.30731 2.65557,-0.30731 0,-1.5 z m 8.5,11.5 0,-1.5 2,0 2,0 0,-6.11663 0,-6.11663 -2,0.52301 -2,0.52301 0,-1.28975 0,-1.28975 2.25,-0.60297 c 1.2375,-0.33164 3.0375,-0.60912 4,-0.61664 l 1.75,-0.0136 0,7.5 0,7.5 2,0 2,0 0,1.5 0,1.5 -6,0 -6,0 0,-1.5 z m -59.000001,-33 0,-3.5 30.000001,0 30,0 0,-4.5 0,-4.5 -30,0 -30.000001,0 -0.01101,-8.25 c -0.0061,-4.5375 -0.289932,-9.9375 -0.630842,-12 l -0.619837,-3.75 34.63085,0 34.63084,0 0,3.48534 0,3.48533 -30.23665,0.26467 -30.236644,0.26466 -0.351912,1.8291 c -0.193552,1.006 -0.07849,2.9185 0.255697,4.25 l 0.607608,2.4209 29.980951,0 29.98095,0 0,12 0,12 -34,0 -34.000005,0 0,-3.5 z m 74.000001,-16.5 0,-20 3.5,0 3.5,0 0,20 0,20 -3.5,0 -3.5,0 0,-20 z m 12,0 0,-20 34.5,0 34.5,0 0,20 0,20 -4,0 -4,0 0,-16 0,-16 -26.5,0 -26.5,0 0,16 0,16 -4,0 -4,0 0,-20 z m 73.22886,0.25 0.27114,-19.75 34.25,-0.26313 34.25,-0.26312 0,4.01312 0,4.01313 -30.5,0 -30.5,0 0,12.5 0,12.5 30.5,0 30.5,0 0,3.5 0,3.5 -34.52114,0 -34.52114,0 0.27114,-19.75 z m 74.77114,-6.25 0,-26 4,0 4,0 0,26 0,26 -4,0 -4,0 0,-26 z m 12,14.5 0,-11.5 30.5,0 30.5,0 0,-4.48534 0,-4.48533 -30.25,-0.26467 -30.25,-0.26466 0,-3.5 0,-3.5 34.25,-0.26313 34.25,-0.26312 0,20.01312 0,20.01313 -34.5,0 -34.5,0 0,-11.5 z m 61,0 0,-4.5 -26.5,0 -26.5,0 0,4.5 0,4.5 26.5,0 26.5,0 0,-4.5 z m 13,-8.5 0,-20 4,0 4,0 0,20 0,20 -4,0 -4,0 0,-20 z m 13.22886,0.25 0.27114,-19.75 34.25,-0.26313 34.25,-0.26312 0,4.01312 0,4.01313 -30.5,0 -30.5,0 0,16 0,16 -4.02114,0 -4.02114,0 0.27114,-19.75 z m -259.22886,-28.25 0,-4 3.5,0 3.5,0 0,4 0,4 -3.5,0 -3.5,0 0,-4 z m 246,0 0,-4 4,0 4,0 0,4 0,4 -4,0 -4,0 0,-4 z"
         id="path3051"
         inkscape:connector-curvature="0" />
      <path
         style="fill:#010101"
         d="m 85.071449,578.83004 c 0,-0.60697 2.31471,-3.86947 5.143799,-7.25 l 5.143799,-6.14642 -4.643799,-0.30479 -4.643799,-0.30479 0,-0.94521 0,-0.94521 7,0 7.000001,0 0,0.91255 c 0,0.50191 -2.288948,3.65191 -5.086549,7 l -5.086548,6.08745 5.086548,0 5.086549,0 0,1.5 0,1.5 -7.500001,0 -7.5,0 0,-1.10358 z m 17.000001,0.55053 c 0,-0.30418 1.125,-2.20864 2.5,-4.23214 3.08915,-4.54609 3.08795,-4.75519 -0.0509,-8.87042 l -2.55089,-3.34439 1.93588,0 1.93588,0 1.72349,2.63037 1.72348,2.63038 2.21165,-2.77367 2.21164,-2.77367 1.18978,0.3966 1.18978,0.39659 -2.55191,3.75547 -2.55191,3.75546 3.09005,4.49124 3.09005,4.49123 -2.02236,0 -2.02236,0 -1.55136,-3 c -0.85325,-1.65 -1.89278,-3 -2.31007,-3 -0.41729,0 -1.55618,1.35 -2.53086,3 l -1.77214,3 -1.44347,0 c -0.7939,0 -1.44346,-0.24887 -1.44346,-0.55305 z m 28.24781,-0.13251 -2.2522,-0.45412 -1.06888,-1.99722 -1.06887,-1.99722 1.43663,-2.19258 1.43664,-2.19259 -1.36298,-2.05276 -1.36298,-2.05276 1.35587,-1.85426 1.35587,-1.85426 4.78309,0 4.78309,0 1.35587,1.85426 1.35587,1.85426 -1.36298,2.05276 -1.36299,2.05276 1.43664,2.19259 1.43664,2.19258 -1.10625,2.06706 -1.10626,2.06706 -1.21481,0.0136 c -0.66815,0.008 -2.11482,0.18044 -3.21482,0.38428 -1.1,0.20384 -3.01349,0.16627 -4.25219,-0.0835 z m 6.25219,-4.81444 0,-2 -2.36534,-0.33466 -2.36533,-0.33467 -1.01745,1.01745 -1.01745,1.01745 0.6271,1.63418 0.6271,1.63419 2.75568,-0.31697 2.75569,-0.31697 0,-2 z m 0.5,-7.5 0,-2 -3.5,0 -3.5,0 0,2 0,2 3.5,0 3.5,0 0,-2 z m 8,11.5 0,-1.5 2,0 2,0 0,-6 0,-6 -2,0 -2,0 0,-0.875 0,-0.875 3.125,-0.625 c 1.71875,-0.34375 3.51875,-0.625 4,-0.625 l 0.875,0 0,7.5 0,7.5 2,0 2,0 0,1.5 0,1.5 -6,0 -6,0 0,-1.5 z m -59.000001,-32.98534 0,-3.48533 30.250001,-0.26467 30.25,-0.26466 0,-4.5 0,-4.5 -30.25,-0.26466 -30.250001,-0.26467 0,-11.48533 0,-11.48534 34.000001,0 34,0 0,3.5 0,3.5 -30.5,0 -30.500001,0 0,4.5 0,4.5 30.500001,0 30.5,0 0,12 0,12 -34,0 -34.000001,0 0,-3.48534 z m 74.000001,-16.01466 0,-19.5 3.5,0 3.5,0 0,19.5 0,19.5 -3.5,0 -3.5,0 0,-19.5 z m 12,-0.5 0,-20 34,0 34,0 0,20 0,20 -3.5,0 -3.5,0 0,-16.5 0,-16.5 -26.5,0 -26.5,0 0,16.5 0,16.5 -4,0 -4,0 0,-20 z m 74,0.5 0,-19.5 34,0 34,0 0,2.98534 0,2.98533 -30.25,0.26467 -30.25,0.26466 -0.27988,12.75 -0.27987,12.75 30.52987,0 30.52988,0 0,3.5 0,3.5 -34,0 -34,0 0,-19.5 z m 74,-6.5 0,-26 3.5,0 3.5,0 0,26 0,26 -3.5,0 -3.5,0 0,-26 z m 13,14.5 0,-11.5 30,0 30,0 0,-5 0,-5 -30,0 -30,0 0,-3 0,-3 34,0 34,0 0,19.5 0,19.5 -34,0 -34,0 0,-11.5 z m 60,-0.5 0,-5 -26.5,0 -26.5,0 0,5 0,5 26.5,0 26.5,0 0,-5 z m 13,-7.5 0,-19.5 4,0 4,0 0,19.5 0,19.5 -4,0 -4,0 0,-19.5 z m 14,0 0,-19.5 34,0 34,0 0,2.98534 0,2.98533 -30.25,0.26467 -30.25,0.26466 -0.27477,16.25 -0.27477,16.25 -3.47523,0 -3.47523,0 0,-19.5 z m -260,-29 0,-3.5 3.5,0 3.5,0 0,3.5 0,3.5 -3.5,0 -3.5,0 0,-3.5 z m 246,0 0,-3.5 4,0 4,0 0,3.5 0,3.5 -4,0 -4,0 0,-3.5 z"
         id="path3049"
         inkscape:connector-curvature="0" />
    </g>
  </g>
</svg>
