<?xml version="1.0" encoding="UTF-8" standalone="no"?>
<!-- Generator: Adobe Illustrator 16.0.3, SVG Export Plug-In . SVG Version: 6.00 Build 0)  -->

<svg
   xmlns:dc="http://purl.org/dc/elements/1.1/"
   xmlns:cc="http://creativecommons.org/ns#"
   xmlns:rdf="http://www.w3.org/1999/02/22-rdf-syntax-ns#"
   xmlns:svg="http://www.w3.org/2000/svg"
   xmlns="http://www.w3.org/2000/svg"
   xmlns:xlink="http://www.w3.org/1999/xlink"
   xmlns:sodipodi="http://sodipodi.sourceforge.net/DTD/sodipodi-0.dtd"
   xmlns:inkscape="http://www.inkscape.org/namespaces/inkscape"
   version="1.1"
   id="Ebene_1"
   x="0px"
   y="0px"
   width="566.929px"
   height="98.437px"
   viewBox="0 0 566.929 98.437"
   enable-background="new 0 0 566.929 98.437"
   xml:space="preserve"
   inkscape:version="0.48.2 r9819"
   sodipodi:docname="logo.svg"><metadata
     id="metadata3097"><rdf:RDF><cc:Work
         rdf:about=""><dc:format>image/svg+xml</dc:format><dc:type
           rdf:resource="http://purl.org/dc/dcmitype/StillImage" /><dc:title /></cc:Work></rdf:RDF></metadata><defs
     id="defs3095"><linearGradient
       y2="54.433567"
       x2="48.089451"
       y1="63.968781"
       x1="51.396873"
       gradientUnits="userSpaceOnUse"
       id="linearGradient3487"
       xlink:href="#linearGradient12931"
       inkscape:collect="always" /><linearGradient
       y2="45.914547"
       x2="-80.788475"
       y1="21.207306"
       x1="-200.37305"
       gradientUnits="userSpaceOnUse"
       id="linearGradient3485"
       xlink:href="#linearGradient17733"
       inkscape:collect="always" /><linearGradient
       y2="59.38147"
       x2="-78.319931"
       y1="63.229465"
       x1="-80.468445"
       gradientUnits="userSpaceOnUse"
       id="linearGradient3483"
       xlink:href="#linearGradient17741"
       inkscape:collect="always" /><filter
       id="filter16314"
       inkscape:collect="always"><feGaussianBlur
         id="feGaussianBlur16316"
         stdDeviation="0.12684216"
         inkscape:collect="always" /></filter><filter
       id="filter16244"
       height="1.382443"
       y="-0.19122149"
       width="1.0455885"
       x="-0.022794263"
       inkscape:collect="always"><feGaussianBlur
         id="feGaussianBlur16246"
         stdDeviation="0.33972594"
         inkscape:collect="always" /></filter><filter
       id="filter15047"
       inkscape:collect="always"><feGaussianBlur
         id="feGaussianBlur15049"
         stdDeviation="0.26601997"
         inkscape:collect="always" /></filter><clipPath
       clipPathUnits="userSpaceOnUse"
       id="clipPath6153"><rect
         id="rect6155"
         width="112.58968"
         height="40.884521"
         x="-17.926291"
         y="29.248158"
         style="opacity:1;fill:#1a1a1a;fill-opacity:1;stroke:#000000;stroke-width:1;stroke-linecap:round;stroke-linejoin:round;stroke-miterlimit:4;stroke-dasharray:none;stroke-opacity:1" /></clipPath><linearGradient
       id="linearGradient12931"><stop
         id="stop12933"
         style="stop-color:#000000;stop-opacity:1;"
         offset="0" /><stop
         id="stop12935"
         style="stop-color:#7e7e7e;stop-opacity:1;"
         offset="1" /></linearGradient><linearGradient
       id="linearGradient17733"
       inkscape:collect="always"><stop
         id="stop17735"
         offset="0"
         style="stop-color:#adadad;stop-opacity:1" /><stop
         id="stop17737"
         offset="1"
         style="stop-color:#efefef;stop-opacity:1" /></linearGradient><linearGradient
       id="linearGradient17741"
       inkscape:collect="always"><stop
         id="stop17743"
         offset="0"
         style="stop-color:#d8d8d8;stop-opacity:1" /><stop
         id="stop17745"
         offset="1"
         style="stop-color:#a0a0a0;stop-opacity:1" /></linearGradient></defs><sodipodi:namedview
     pagecolor="#ffffff"
     bordercolor="#666666"
     borderopacity="1"
     objecttolerance="10"
     gridtolerance="10"
     guidetolerance="10"
     inkscape:pageopacity="0"
     inkscape:pageshadow="2"
     inkscape:window-width="1280"
     inkscape:window-height="752"
     id="namedview3093"
     showgrid="false"
     inkscape:zoom="1.1225322"
     inkscape:cx="251.62306"
     inkscape:cy="-1.1577304"
     inkscape:window-x="0"
     inkscape:window-y="0"
     inkscape:window-maximized="1"
     inkscape:current-layer="g3084"
     showguides="true"
     inkscape:guide-bbox="true" /><g
     id="g3084"><g
       style="font-size:120.34334564px;font-style:normal;font-variant:normal;font-weight:bold;font-stretch:normal;line-height:125%;letter-spacing:0px;word-spacing:0px;fill:#000000;fill-opacity:1;stroke:none;font-family:Al Nile;-inkscape-font-specification:Al Nile Bold"
       id="text2998"><path
         d="m 244.02929,12.048824 9.38678,0 41.27777,54.996909 0.24068,-53.071416 12.27502,0 0,74.492531 -9.26643,0 -41.39812,-54.876565 -0.12034,53.432445 -12.39536,0 0,-74.973904"
         style="font-weight:500;text-align:start;line-height:125%;writing-mode:lr-tb;text-anchor:start;font-family:Apple LiGothic;-inkscape-font-specification:Apple LiGothic Medium"
         id="path3214" /><path
         d="m 329.99393,24.444188 0,19.014249 24.55004,0 0,10.469871 -24.55004,0 0,22.624549 25.39244,0 0,10.469871 -37.78781,0 0,-73.048411 37.78781,0 0,10.469871 -25.39244,0"
         style="font-weight:500;text-align:start;line-height:125%;writing-mode:lr-tb;text-anchor:start;font-family:Apple LiGothic;-inkscape-font-specification:Apple LiGothic Medium"
         id="path3216" /><path
         d="m 387.8283,68.008479 15.76498,-54.996909 6.49854,0 16.48704,54.996909 16.12601,-54.034162 12.99708,0 -24.79073,74.492531 -9.38678,0 -15.52429,-50.183175 -14.92258,50.183175 -9.50712,0 -23.22627,-74.492531 12.99709,0 16.48703,54.034162"
         style="font-weight:500;text-align:start;line-height:125%;writing-mode:lr-tb;text-anchor:start;font-family:Apple LiGothic;-inkscape-font-specification:Apple LiGothic Medium"
         id="path3218" /><path
         d="m 494.71199,28.776549 c -3.12897,-4.412527 -7.10029,-6.618819 -11.91399,-6.618884 -3.04873,6.5e-5 -5.61605,0.922696 -7.70198,2.767897 -2.08597,1.845325 -3.12894,4.332418 -3.12892,7.461287 -2e-5,3.04875 3.77073,6.699161 11.31227,10.951244 7.62171,4.252171 11.47269,6.378235 11.55296,6.378198 5.37529,4.011478 8.06296,8.744978 8.06301,14.200515 -5e-5,7.461303 -2.16623,13.518578 -6.49855,18.171845 -4.25216,4.573047 -10.10887,6.859569 -17.57012,6.85957 -9.46703,-10e-7 -16.92831,-4.733502 -22.38387,-14.200514 l 7.82232,-7.701974 c 1.04297,2.808028 2.96846,5.37535 5.77648,7.701974 2.80799,2.326648 5.69623,3.489966 8.66472,3.489957 3.53005,9e-6 6.29794,-1.203424 8.30369,-3.610301 2.08592,-2.406852 3.12889,-5.335204 3.12893,-8.785064 -4e-5,-2.487072 -0.76221,-4.65325 -2.28652,-6.498541 -1.52438,-1.925463 -6.69914,-4.813701 -15.52429,-8.66472 -8.74496,-3.931176 -13.11743,-9.507079 -13.11743,-16.727725 0,-6.177566 2.00572,-11.352325 6.01717,-15.524292 4.09166,-4.252059 9.18619,-6.378122 15.2836,-6.378197 8.424,7.5e-5 15.08299,2.727854 19.977,8.183347 l -5.77648,8.544378"
         style="font-weight:500;text-align:start;line-height:125%;writing-mode:lr-tb;text-anchor:start;font-family:Apple LiGothic;-inkscape-font-specification:Apple LiGothic Medium"
         id="path3220" /></g><g
       id="layer1"
       inkscape:label="Layer 1"
       transform="matrix(0.33396403,0,0,0.33396403,3.1306211,-56.580844)"><g
         transform="matrix(3.9680043,0,0,3.9680043,2.2193132,20.546173)"
         id="g3448"><g
           id="g17348"
           transform="matrix(0.8840293,-0.1995935,0.1995935,0.8840293,178.30563,15.422105)"><path
             id="path17350"
             sodipodi:nodetypes="ccccccccc"
             d="m -199.93357,8.4477753 117.011614,0 c 1.108,0 10,4.8919997 10,5.9999997 l 0,47.981453 c 0,1.108 -0.892,2 -2,2 l -116.772494,0 c -1.108,0 -10.19926,-4.015228 -10.19926,-5.123228 l -0.0399,-48.858225 c 0,-1.1079997 0.892,-1.9999997 2,-1.9999997 z"
             style="fill:url(#linearGradient3483);fill-opacity:1;stroke:#000000;stroke-width:1.0722779;stroke-linecap:round;stroke-linejoin:round;stroke-miterlimit:4;stroke-opacity:1"
             inkscape:connector-curvature="0" /><rect
             id="rect17352"
             width="120.77249"
             height="51.981453"
             x="-201.93077"
             y="8.4987087"
             ry="0.55615389"
             style="fill:url(#linearGradient3485);fill-opacity:1;stroke:#000000;stroke-width:1.0722779;stroke-linecap:round;stroke-linejoin:round;stroke-miterlimit:4;stroke-opacity:1;stroke-dasharray:none"
             rx="0.55615389" /><rect
             id="rect17354"
             width="112.58968"
             height="40.884521"
             x="-198.19296"
             y="15.381491"
             style="fill:#1a1a1a;fill-opacity:1;stroke:none" /><g
             id="g17356"
             transform="translate(-184.26667,-13.866667)"
             clip-path="url(#clipPath6153)"><rect
               id="rect17358"
               width="35.634914"
               height="6.0730481"
               x="20.192371"
               y="26.84866"
               ry="0.55615389"
               style="color:#000000;fill:#999999;fill-opacity:1;fill-rule:nonzero;stroke:none;stroke-width:1.12506807;marker:none;visibility:visible;display:inline;overflow:visible;enable-background:accumulate"
               rx="0.55615389" /><rect
               id="rect17360"
               width="35.634914"
               height="6.0730481"
               x="20.192371"
               y="35.263718"
               ry="0.55615389"
               style="color:#000000;fill:#999999;fill-opacity:1;fill-rule:nonzero;stroke:none;stroke-width:1.12506807;marker:none;visibility:visible;display:inline;overflow:visible;enable-background:accumulate"
               rx="0.55615389" /><rect
               id="rect17362"
               width="35.634914"
               height="6.0730481"
               x="20.192371"
               y="43.678783"
               ry="0.55615389"
               style="color:#000000;fill:#999999;fill-opacity:1;fill-rule:nonzero;stroke:none;stroke-width:1.12506807;marker:none;visibility:visible;display:inline;overflow:visible;enable-background:accumulate"
               rx="0.55615389" /><rect
               id="rect17364"
               width="35.634914"
               height="12.146096"
               x="20.192371"
               y="52.093853"
               ry="0.55615389"
               style="color:#000000;fill:#cccccc;fill-opacity:1;fill-rule:nonzero;stroke:none;stroke-width:1.59108651;marker:none;visibility:visible;display:inline;overflow:visible;enable-background:accumulate"
               rx="0.55615389" /><rect
               id="rect17366"
               width="35.634914"
               height="6.0730481"
               x="20.192371"
               y="66.58197"
               ry="0.55615389"
               style="color:#000000;fill:#999999;fill-opacity:1;fill-rule:nonzero;stroke:none;stroke-width:1.12506807;marker:none;visibility:visible;display:inline;overflow:visible;enable-background:accumulate"
               rx="0.55615389" /><rect
               id="rect17368"
               width="34.034912"
               height="10.012763"
               x="20.992373"
               y="53.160519"
               ry="0.27807695"
               style="opacity:0.42307691;color:#000000;fill:none;stroke:url(#linearGradient3487);stroke-width:0.40000001;stroke-linecap:round;stroke-linejoin:round;stroke-miterlimit:4;stroke-opacity:1;stroke-dasharray:none;stroke-dashoffset:0;marker:none;visibility:visible;display:inline;overflow:visible;enable-background:accumulate"
               rx="0.27807695" /></g><g
             style="fill:#8a8a8a;fill-opacity:1;filter:url(#filter16244)"
             transform="matrix(1.0469672,0,0,1,-182.99794,-14.533334)"
             id="g17370"><rect
               id="rect17372"
               width="13.808019"
               height="3.5532193"
               x="19.520277"
               y="56.85133"
               ry="0.55615389"
               style="color:#000000;fill:#8a8a8a;fill-opacity:1;fill-rule:nonzero;stroke:none;stroke-width:1.12506807;marker:none;visibility:visible;display:inline;overflow:visible;enable-background:accumulate"
               rx="0.5312047" /><rect
               id="rect17374"
               width="13.808019"
               height="3.5532193"
               x="35.520279"
               y="56.85133"
               ry="0.55615389"
               style="color:#000000;fill:#8a8a8a;fill-opacity:1;fill-rule:nonzero;stroke:none;stroke-width:1.12506807;marker:none;visibility:visible;display:inline;overflow:visible;enable-background:accumulate"
               rx="0.5312047" /></g><path
             id="path17376"
             d="m -185.10435,25.288662 0,8.118411 -8.11819,0 0,8.145471 8.11819,0 0,8.118412 8.11819,0 0,-8.118412 8.11819,0 0,-8.145471 -8.11819,0 0,-8.118411 -8.11819,0 z"
             style="color:#000000;fill:#000000;fill-opacity:1;fill-rule:nonzero;stroke:#bcbcbc;stroke-width:1;stroke-linecap:round;stroke-linejoin:round;stroke-miterlimit:4;stroke-opacity:1;stroke-dasharray:none;stroke-dashoffset:0;marker:none;visibility:visible;display:inline;overflow:visible;enable-background:accumulate"
             inkscape:connector-curvature="0" /><path
             id="path17378"
             d="m -185.77102,24.621997 0,8.118411 -8.11819,0 0,8.145471 8.11819,0 0,8.118412 8.11819,0 0,-8.118412 8.11819,0 0,-8.145471 -8.11819,0 0,-8.118411 -8.11819,0 z"
             style="color:#000000;fill:#000000;fill-opacity:1;fill-rule:nonzero;stroke:#000000;stroke-width:1;stroke-linecap:round;stroke-linejoin:round;stroke-miterlimit:4;stroke-opacity:1;stroke-dasharray:none;stroke-dashoffset:0;marker:none;visibility:visible;display:inline;overflow:visible;filter:url(#filter16314);enable-background:accumulate"
             inkscape:connector-curvature="0" /><rect
             id="rect17380"
             width="13.565331"
             height="13.565331"
             x="-124.89055"
             y="36.96806"
             ry="0.27807695"
             style="color:#000000;fill:#cccccc;fill-opacity:1;fill-rule:nonzero;stroke:none;stroke-width:1;marker:none;visibility:visible;display:inline;overflow:visible;enable-background:accumulate"
             rx="0.27807695" /><rect
             id="rect17382"
             width="13.565331"
             height="13.565331"
             x="-109.33388"
             y="36.96806"
             ry="0.27807695"
             style="color:#000000;fill:#cccccc;fill-opacity:1;fill-rule:nonzero;stroke:none;stroke-width:1;marker:none;visibility:visible;display:inline;overflow:visible;enable-background:accumulate"
             rx="0.27807695" /><path
             sodipodi:ry="4.7812233"
             id="path17384"
             sodipodi:rx="4.7812233"
             d="m 66.714745,58.727859 c 0,2.640597 -2.140627,4.781224 -4.781224,4.781224 -2.640596,0 -4.781223,-2.140627 -4.781223,-4.781224 0,-2.640596 2.140627,-4.781223 4.781223,-4.781223 2.640597,0 4.781224,2.140627 4.781224,4.781223 z"
             transform="matrix(1.024068,1.024068,-0.8170186,0.8170186,-134.35026,-68.588502)"
             sodipodi:type="arc"
             sodipodi:cy="58.727859"
             sodipodi:cx="61.933521"
             style="color:#000000;fill:#7f7f7f;fill-opacity:0.59562845;fill-rule:nonzero;stroke:none;stroke-width:0.53750002;marker:none;visibility:visible;display:inline;overflow:visible;filter:url(#filter15047);enable-background:accumulate" /><path
             sodipodi:ry="4.7812233"
             id="path17386"
             sodipodi:rx="4.7812233"
             d="m 66.714745,58.727859 c 0,2.640597 -2.140627,4.781224 -4.781224,4.781224 -2.640596,0 -4.781223,-2.140627 -4.781223,-4.781224 0,-2.640596 2.140627,-4.781223 4.781223,-4.781223 2.640597,0 4.781224,2.140627 4.781224,4.781223 z"
             transform="matrix(1.1627907,0,0,1.1627907,-190.1236,-24.537486)"
             sodipodi:type="arc"
             sodipodi:cy="58.727859"
             sodipodi:cx="61.933521"
             style="color:#000000;fill:#ff0000;fill-opacity:1;fill-rule:nonzero;stroke:#d00000;stroke-width:0.53750002;stroke-linecap:round;stroke-linejoin:round;stroke-miterlimit:4;stroke-opacity:1;stroke-dasharray:none;stroke-dashoffset:0;marker:none;visibility:visible;display:inline;overflow:visible;enable-background:accumulate" /><path
             sodipodi:ry="4.7812233"
             id="path17388"
             sodipodi:rx="4.7812233"
             d="m 66.714745,58.727859 c 0,2.640597 -2.140627,4.781224 -4.781224,4.781224 -2.640596,0 -4.781223,-2.140627 -4.781223,-4.781224 0,-2.640596 2.140627,-4.781223 4.781223,-4.781223 2.640597,0 4.781224,2.140627 4.781224,4.781223 z"
             transform="matrix(1.024068,1.024068,-0.8170186,0.8170186,-118.81692,-68.521825)"
             sodipodi:type="arc"
             sodipodi:cy="58.727859"
             sodipodi:cx="61.933521"
             style="color:#000000;fill:#7f7f7f;fill-opacity:0.59562845;fill-rule:nonzero;stroke:none;stroke-width:0.53750002;marker:none;visibility:visible;display:inline;overflow:visible;filter:url(#filter15047);enable-background:accumulate" /><path
             sodipodi:ry="4.7812233"
             id="path17390"
             sodipodi:rx="4.7812233"
             d="m 66.714745,58.727859 c 0,2.640597 -2.140627,4.781224 -4.781224,4.781224 -2.640596,0 -4.781223,-2.140627 -4.781223,-4.781224 0,-2.640596 2.140627,-4.781223 4.781223,-4.781223 2.640597,0 4.781224,2.140627 4.781224,4.781223 z"
             transform="matrix(1.1627907,0,0,1.1627907,-174.56693,-24.537486)"
             sodipodi:type="arc"
             sodipodi:cy="58.727859"
             sodipodi:cx="61.933521"
             style="color:#000000;fill:#ff0000;fill-opacity:1;fill-rule:nonzero;stroke:#d00000;stroke-width:0.53750002;stroke-linecap:round;stroke-linejoin:round;stroke-miterlimit:4;stroke-opacity:1;stroke-dasharray:none;stroke-dashoffset:0;marker:none;visibility:visible;display:inline;overflow:visible;enable-background:accumulate" /><path
             sodipodi:ry="4.7812233"
             id="path17392"
             sodipodi:rx="4.7812233"
             d="m 66.714745,58.727859 c 0,2.640597 -2.140627,4.781224 -4.781224,4.781224 -2.640596,0 -4.781223,-2.140627 -4.781223,-4.781224 0,-2.640596 2.140627,-4.781223 4.781223,-4.781223 2.640597,0 4.781224,2.140627 4.781224,4.781223 z"
             transform="matrix(1.1627907,0,0,1.1627907,-190.78931,-25.203194)"
             sodipodi:type="arc"
             sodipodi:cy="58.727859"
             sodipodi:cx="61.933521"
             style="color:#000000;fill:#ff0000;fill-opacity:1;fill-rule:nonzero;stroke:#d00000;stroke-width:0.53750002;stroke-linecap:round;stroke-linejoin:round;stroke-miterlimit:4;stroke-opacity:1;stroke-dasharray:none;stroke-dashoffset:0;marker:none;visibility:visible;display:inline;overflow:visible;enable-background:accumulate" /><path
             sodipodi:ry="4.7812233"
             id="path17394"
             sodipodi:rx="4.7812233"
             d="m 66.714745,58.727859 c 0,2.640597 -2.140627,4.781224 -4.781224,4.781224 -2.640596,0 -4.781223,-2.140627 -4.781223,-4.781224 0,-2.640596 2.140627,-4.781223 4.781223,-4.781223 2.640597,0 4.781224,2.140627 4.781224,4.781223 z"
             transform="matrix(1.1627907,0,0,1.1627907,-175.23264,-25.203194)"
             sodipodi:type="arc"
             sodipodi:cy="58.727859"
             sodipodi:cx="61.933521"
             style="color:#000000;fill:#ff0000;fill-opacity:1;fill-rule:nonzero;stroke:#d00000;stroke-width:0.53750002;stroke-linecap:round;stroke-linejoin:round;stroke-miterlimit:4;stroke-opacity:1;stroke-dasharray:none;stroke-dashoffset:0;marker:none;visibility:visible;display:inline;overflow:visible;enable-background:accumulate" /><g
             transform="translate(-180.68113,-13.866667)"
             id="g17396"><rect
               id="rect17398"
               width="13.808019"
               height="3.5532193"
               x="19.520277"
               y="56.85133"
               ry="0.55615389"
               style="color:#000000;fill:#000000;fill-opacity:1;fill-rule:nonzero;stroke:none;stroke-width:1.12506807;marker:none;visibility:visible;display:inline;overflow:visible;enable-background:accumulate"
               rx="0.55615389" /><rect
               id="rect17400"
               width="13.808019"
               height="3.5532193"
               x="35.520279"
               y="56.85133"
               ry="0.55615389"
               style="color:#000000;fill:#000000;fill-opacity:1;fill-rule:nonzero;stroke:none;stroke-width:1.12506807;marker:none;visibility:visible;display:inline;overflow:visible;enable-background:accumulate"
               rx="0.55615389" /></g><g
             transform="translate(-180.94779,-14.133333)"
             id="g17402"><rect
               id="rect17404"
               width="13.808019"
               height="3.5532193"
               x="19.520277"
               y="56.85133"
               ry="0.55615389"
               style="color:#000000;fill:#000000;fill-opacity:1;fill-rule:nonzero;stroke:none;stroke-width:1.12506807;marker:none;visibility:visible;display:inline;overflow:visible;enable-background:accumulate"
               rx="0.55615389" /><rect
               id="rect17406"
               width="13.808019"
               height="3.5532193"
               x="35.520279"
               y="56.85133"
               ry="0.55615389"
               style="color:#000000;fill:#000000;fill-opacity:1;fill-rule:nonzero;stroke:none;stroke-width:1.12506807;marker:none;visibility:visible;display:inline;overflow:visible;enable-background:accumulate"
               rx="0.55615389" /></g><path
             transform="scale(1.3585963,0.7360538)"
             style="font-size:6.17553091px;font-style:normal;font-weight:normal;fill:#ff0000;fill-opacity:1;stroke:none;font-family:Bitstream Vera Sans"
             d="m -84.525541,72.301095 0,1.649422 0.976988,0 c 0.327671,0 0.569907,-0.06734 0.726711,-0.202032 0.158808,-0.136697 0.238213,-0.344759 0.238216,-0.624187 -3e-6,-0.281435 -0.07941,-0.488492 -0.238216,-0.621171 -0.156804,-0.134686 -0.39904,-0.202029 -0.726711,-0.202032 l -0.976988,0 m 0,-1.851453 0,1.356928 0.901603,0 c 0.297517,3e-6 0.518646,-0.05528 0.663388,-0.165846 0.146746,-0.112572 0.22012,-0.283444 0.220123,-0.512618 -3e-6,-0.227156 -0.07338,-0.397023 -0.220123,-0.509602 -0.144742,-0.11257 -0.365871,-0.168858 -0.663388,-0.168862 l -0.901603,0 m -0.60911,-0.500555 1.555944,0 c 0.464369,4e-6 0.822195,0.0965 1.073481,0.289478 0.25128,0.192989 0.376921,0.46739 0.376925,0.823203 -4e-6,0.275409 -0.06433,0.494527 -0.192986,0.657356 -0.12866,0.162834 -0.317624,0.264352 -0.566894,0.304555 0.299526,0.06433 0.531711,0.199018 0.696556,0.404063 0.166849,0.203038 0.250275,0.457337 0.250278,0.762895 -3e-6,0.402054 -0.136701,0.712639 -0.410093,0.931758 -0.2734,0.219118 -0.662385,0.328678 -1.166959,0.328678 l -1.616252,0 0,-4.501986"
             id="text17408"
             inkscape:connector-curvature="0" /><path
             transform="scale(1.2937781,0.7729301)"
             style="font-size:5.880898px;font-style:normal;font-weight:normal;fill:#ff0000;fill-opacity:1;stroke:none;font-family:Bitstream Vera Sans"
             d="m -75.986517,67.225102 -0.7868,2.133548 1.576471,0 -0.789671,-2.133548 m -0.327355,-0.571435 0.657581,0 1.633902,4.287198 -0.603022,0 -0.390528,-1.099797 -1.932541,0 -0.390529,1.099797 -0.611636,0 1.636773,-4.287198"
             id="text17412"
             inkscape:connector-curvature="0" /></g></g></g></g></svg>