<?xml version="1.0" encoding="utf-8"?>
<!-- Generator: Adobe Illustrator 16.0.3, SVG Export Plug-In . SVG Version: 6.00 Build 0)  -->
<!DOCTYPE svg PUBLIC "-//W3C//DTD SVG 1.1//EN" "http://www.w3.org/Graphics/SVG/1.1/DTD/svg11.dtd">
<svg version="1.1" id="Ebene_1" xmlns="http://www.w3.org/2000/svg" xmlns:xlink="http://www.w3.org/1999/xlink" x="0px" y="0px"
	 width="566.929px" height="98.437px" viewBox="0 0 566.929 98.437" enable-background="new 0 0 566.929 98.437"
	 xml:space="preserve">
<g>
	<g>
		<path id="path2842" fill="#01954B" d="M59.308,59.926c0.002,8.188-13.273,14.827-29.652,14.827
			C13.279,74.755,0.001,68.117,0,59.928c0-0.001,0-0.001,0-0.002c-0.001-8.189,13.274-14.828,29.652-14.829
			c16.377,0,29.655,6.639,29.656,14.826C59.308,59.925,59.308,59.925,59.308,59.926z"/>
		<path id="path3624" fill="#F9EC2B" d="M110.379,83.357c0.002,8.188-13.273,14.828-29.651,14.828
			c-16.377,0-29.655-6.637-29.657-14.825c0-0.002,0-0.002,0-0.003c-0.002-8.188,13.273-14.828,29.651-14.829
			c16.379,0,29.655,6.637,29.657,14.826C110.379,83.356,110.379,83.356,110.379,83.357z"/>
		<path id="path3644" fill="#323B98" d="M60.398,0.252c-14.947,0-27.095,11.946-27.449,26.822c0.621-0.043,1.239-0.069,1.871-0.069
			c15.169,0,27.466,12.309,27.466,27.492c0,0.227-0.011,0.446-0.017,0.671c14.3-0.96,25.595-12.867,25.595-27.424
			C87.864,12.561,75.567,0.252,60.398,0.252L60.398,0.252z"/>
		<path id="path3897" fill="#EB2D2F" d="M112.393,24.334c-15.165,0-27.458,12.301-27.458,27.474c0,0.338,0.005,0.68,0.017,1.013
			c0.367-0.014,0.728-0.032,1.098-0.032c14.824,0,26.905,11.759,27.441,26.46c14.659-0.572,26.359-12.631,26.359-27.44
			C139.851,36.635,127.558,24.334,112.393,24.334L112.393,24.334z"/>
	</g>
	<path id="polyline2177" fill="#4C504E" d="M186.893,0c-3.758,0-7.412,3.09-8.083,6.918v0.069v0.068v0.069l-0.068,0.068V7.33v0.068
		l-0.069,0.137v0.138l-0.069,0.137v0.206l-0.068,0.137v0.206l-0.069,0.205l-0.069,0.206L178.33,9.18l-0.137,0.479l-0.067,0.479
		l-0.138,0.479l-0.069,0.547l-0.138,0.548l-0.136,0.616l-0.138,0.548l-0.205,1.165l-0.138,0.617l-0.137,0.547l-0.067,0.548
		l-0.138,0.547l-0.136,0.548l-0.069,0.548l-0.069,0.479l-0.138,0.411l-0.069,0.479v0.206l-0.067,0.137v0.206v0.137l-0.068,0.206
		v0.137v0.137l-0.069,0.137v0.069v0.068c-0.07,1.675,0.163,3.96,0.685,4.385c0.665,3.688,12.958,20.758,12.604,23.358
		c-0.332,2.606-1.781,10.276-1.781,10.276c-0.446,2.585-2.21,4.657-4.794,4.657c-2.586,0-4.351-2.065-3.905-4.657l2.329-12.741
		h-9.179l-3.083,17.674c-0.628,3.588,1.801,6.438,5.411,6.438h13.085c3.624,0,7.076-2.85,7.739-6.438c0,0,3.372-16.508,3.356-17.674
		c-0.013-1.174-0.341-1.302-0.341-1.302c0-1.342-10.939-19.4-12.056-20.072c-0.481-0.281-0.877-2.069-0.892-3.15
		c-0.021-1.074,1.439-8.289,1.439-8.289c0.444-2.585,2.894-4.658,5.48-4.658c2.585,0,3.664,2.073,3.219,4.658l-1.986,11.439h9.247
		l3.22-17.194C206.663,3.09,204.213,0,200.455,0H186.893z M212.1,0l-10.959,63.16c-0.628,3.588,1.802,6.438,5.412,6.438h13.084
		c3.624,0,7.138-2.85,7.809-6.438L239.158,0h-8.219l-11.167,61.377c-0.163,0.892-1.028,1.645-1.917,1.645h-6.509
		c-0.911,0-1.519-0.747-1.371-1.645L220.869,0H212.1z M243.611,0L230.39,69.597h8.768l6.029-31.51h11.166
		c3.632,0,7.074-2.871,7.739-6.438l4.795-24.73C269.611,3.083,267.167,0,263.41,0h-11.03H243.611z M274.917,0l-13.699,69.597h19.727
		l1.37-8.631h-9.727l3.974-23.496h9.726l1.37-7.261h-9.725l4.315-21.578h9.728L293.344,0H274.917z M298.481,0L285.33,69.597h8.768
		l5.96-31.51h6.235c0.818,0.763,0.915,2.171,1.024,2.877c0.164,1.025,0.334,2.333,0.208,3.357
		c-0.114,1.017-4.797,25.276-4.797,25.276h8.769c0,0,4.933-26.428,4.933-26.852c0.014-0.431,0-1.785-0.478-2.534
		c-0.322-0.48-0.873-1.583-1.509-1.986c-1.223-0.785-2.603-1.303-2.603-1.303h-0.62c2.512-0.989,7.24-2.618,7.744-5.274l4.794-24.73
		C324.486,3.083,322.037,0,318.279,0H298.481z M345.405,0l-13.222,69.597h10.071l8.15-40.346l3.221,40.346h8.769L375.614,0h-10.069
		l-6.851,36.375L354.173,0H345.405z M380.203,0l-13.22,69.597h8.769L388.97,0H380.203z M393.559,0L380.34,69.597h10.139
		l8.151-40.346l3.22,40.346h8.769L423.84,0h-10.139l-6.781,36.375L402.398,0H393.559z M427.538,0l-1.646,8.632h5.481l-10.824,60.965
		h10.003l11.028-60.965h5.274L448.225,0H427.538z M451.649,0l-13.698,69.597h19.726l1.371-8.631h-9.726l4.042-23.496h9.725
		l1.371-7.261h-9.726l4.245-21.578h9.728L470.077,0H451.649z M473.913,0l-13.22,69.597h10.137l8.153-40.346l3.219,40.346h8.768
		L504.193,0h-10.139l-6.782,36.375L482.749,0H473.913z M508.782,0l-13.223,69.597h20.003c3.633,0,7.137-2.85,7.81-6.438
		l10.616-56.241C534.709,3.083,532.268,0,528.51,0H508.782z M546.388,0c-3.76,0-7.344,3.09-8.015,6.918l-9.798,56.241
		c-0.635,3.588,1.74,6.438,5.347,6.438h14.452c3.624,0,7.138-2.85,7.812-6.438l10.615-56.241C567.529,3.09,565.072,0,561.322,0
		H546.388z M516.248,8.015h4.042c2.585,0,4.349,2.073,3.903,4.658l-8.631,45.554c-0.451,2.585-2.962,4.727-5.548,4.727h-3.973
		L516.248,8.015z M551.525,8.015h0.275c2.585,0,4.281,2.073,3.834,4.658l-8.217,45.554c-0.448,2.577-2.829,4.727-5.412,4.727
		c-2.587,0-3.666-2.142-3.223-4.727l8.153-45.554l0.067-0.206l0.07-0.206l0.067-0.274l0.068-0.206l0.07-0.274l0.067-0.206
		l0.07-0.206l0.134-0.205l0.069-0.206l0.138-0.206l0.068-0.205l0.138-0.206l0.138-0.137l0.135-0.205l0.138-0.206l0.205-0.137
		l0.138-0.138l0.137-0.137l0.205-0.137l0.206-0.137l0.138-0.137l0.204-0.138l0.206-0.068l0.207-0.137l0.137-0.069l0.273-0.069
		l0.205-0.068h0.204l0.206-0.069h0.275L551.525,8.015z M252.036,8.289h4.248c0.933,0,2.911,2.136,2.741,3.083l-3.632,17.194
		c-0.169,0.89-1.37,2.945-2.258,2.945h-5.14h-0.068h-0.068l-0.069-0.068h-0.067h-0.069h-0.069h-0.069v-0.069h-0.069h-0.068
		l-0.07-0.068h-0.068l-0.068-0.069l-0.068-0.068h-0.068V31.1l-0.069-0.068l-0.069-0.069v-0.069l-0.068-0.068l-0.07-0.069v-0.068
		V30.62l-0.068-0.068v-0.069v-0.068l-0.07-0.069v-0.068c0-0.114-0.012-0.285,0-0.412l4.111-21.03
		C251.111,8.527,251.571,8.289,252.036,8.289z M306.631,8.289h0.07h0.068h0.069h0.068h3.974c0.933,0,2.923,2.136,2.738,3.083
		l-3.632,17.125c-0.159,0.897-2.389,3.014-3.286,3.014h-3.768c-0.777,0-1.314-0.511-1.369-1.231c0-0.114-0.016-0.278,0-0.412
		l4.042-21.03l0.067-0.069l0.07-0.068l0.134-0.069h0.068l0.069-0.069l0.068-0.068h0.069l0.068-0.069h0.07l0.136-0.068h0.067h0.068
		h0.067V8.289z M167.438,75.626v22.811h391.005V75.626H167.438z M454.872,78.023h0.066h0.067h0.07h0.067h0.068h3.017
		c0.811,0,1.395,0.651,1.232,1.507l-0.755,3.838h-1.848l0.409-2.535c0.094-0.573-0.244-1.029-0.823-1.029
		c-0.571,0-1.135,0.454-1.232,1.029l-0.34,1.85c-0.058,0.11,0.114,0.629,0.204,0.686c0.254,0.146,2.671,4.153,2.671,4.451
		c0.058,0.149,0.09,0.22,0.067,0.275c-0.069,0.501-0.753,3.903-0.753,3.903c-0.147,0.781-0.907,1.438-1.712,1.438h-2.877
		c-0.799,0-1.313-0.657-1.165-1.438l0.686-3.903h1.988l-0.479,2.809c-0.092,0.571,0.239,1.095,0.818,1.095
		c0.554,0,1.144-0.52,1.237-1.095l0.409-2.261c-0.367-0.945-2.791-4.388-2.946-5.207c-0.106-0.092-0.152-0.587-0.136-0.959
		c0.021-0.407,0.547-2.946,0.547-2.946h0.07v-0.068v-0.067v-0.068l0.067-0.138v-0.067l0.066-0.07v-0.068l0.069-0.067v-0.068
		l0.068-0.067l0.07-0.07v-0.067h0.067l0.07-0.068l0.067-0.07l0.068-0.067v-0.07h0.069l0.066-0.067l0.067-0.068h0.07l0.068-0.067
		h0.069l0.068-0.068h0.067h0.138L454.872,78.023z M470.625,78.023h2.467l0.342,5.824l3.15-5.824h2.468l-5.07,8.906l-1.233,6.507
		h-2.191l1.097-6.988L470.625,78.023z M493.026,78.023h0.067h0.07h0.067h0.07h0.067h3.013c0.812,0,1.381,0.651,1.233,1.507
		l-0.754,3.838h-1.85l0.413-2.535c0.091-0.573-0.243-1.029-0.822-1.029c-0.574,0-1.144,0.454-1.233,1.029l-0.343,1.85
		c-0.072,0.11,0.092,0.629,0.205,0.686c0.242,0.146,2.671,4.153,2.671,4.451c0.072,0.149,0.07,0.22,0.07,0.275
		c-0.094,0.501-0.686,3.903-0.686,3.903c-0.147,0.781-0.915,1.438-1.714,1.438h-2.944c-0.798,0-1.314-0.657-1.167-1.438l0.686-3.903
		h1.987l-0.479,2.809c-0.092,0.571,0.264,1.095,0.823,1.095c0.571,0,1.119-0.52,1.232-1.095l0.41-2.261
		c-0.374-0.945-2.787-4.388-2.945-5.207c-0.105-0.092-0.149-0.587-0.136-0.959c0.021-0.407,0.548-2.946,0.548-2.946l0.067-0.068
		v-0.067v-0.068l0.068-0.138v-0.067l0.069-0.07v-0.068l0.068-0.067v-0.068l0.069-0.067l0.068-0.07v-0.067h0.07l0.065-0.068
		l0.068-0.07l0.069-0.067l0.068-0.07l0.067-0.067l0.07-0.068h0.068l0.069-0.067h0.068l0.067-0.068h0.068h0.136L493.026,78.023z
		 M508.986,78.023h4.591l-0.344,1.851h-1.165l-2.396,13.563h-2.26l2.396-13.563h-1.163L508.986,78.023z M526.934,78.023h4.109
		l-0.344,1.851h-2.124l-0.956,4.864h2.191l-0.344,1.574h-2.124l-0.889,5.206h2.121l-0.271,1.918h-4.385L526.934,78.023z
		 M543.853,78.023h2.535l0.409,8.906l3.906-8.836l2.465-0.07l-2.601,15.413h-1.918l1.232-8.15l-3.426,8.15h-1.371l-0.409-8.358
		l-1.508,8.358h-2.262L543.853,78.023z M175.932,78.573h4.042l-0.275,1.916h-2.191l-0.89,4.797h2.124l-0.275,1.644h-2.192
		l-0.821,5.207h2.123l-0.343,1.917h-4.384L175.932,78.573z M194.838,78.573h1.918l1.027,8.083l1.506-8.083h2.262l-2.947,15.48
		h-1.917l-0.754-8.976l-1.78,8.976h-2.262L194.838,78.573z M215.389,78.573h4.521l-0.273,1.916h-1.165l-2.466,13.564h-2.19
		l2.396-13.564h-1.233L215.389,78.573z M235.323,78.573h4.11l-0.343,1.916h-2.124l-0.959,4.797h2.124l-0.274,1.644h-2.123
		l-0.89,5.207h2.123l-0.273,1.917h-4.384L235.323,78.573z M254.641,78.573h4.383c0.813,0,1.327,0.719,1.165,1.574l-1.027,5.48
		c-0.114,0.593-1.157,1.078-1.714,1.302h0.138h0.068h0.07v0.068h0.068h0.07h0.066h0.07l0.068,0.067h0.068h0.068h0.07v0.068h0.068
		h0.07v0.07h0.068c0.092,0.165,0.136,0.659,0.136,0.753c0,0.092-1.097,6.097-1.097,6.097h-1.986c0,0,1.061-5.394,1.097-5.617
		c0.022-0.24-0.026-0.529-0.068-0.753c-0.016-0.166-0.024-0.45-0.206-0.618h-1.371l-1.301,6.988h-1.987L254.641,78.573z
		 M274.231,78.573h4.589l-0.273,1.916h-1.163l-2.467,13.564h-2.192l2.397-13.564h-1.232L274.231,78.573z M297.042,78.573h2.604
		l-0.822,15.48h-2.604l0.342-3.563h-1.574l-1.303,3.563h-2.327L297.042,78.573z M315.266,78.573h1.986l-2.947,15.48h-1.918
		L315.266,78.573z M332.937,78.573h1.92l1.026,8.083l1.509-8.083h2.191l-2.877,15.48h-1.986l-0.685-8.976l-1.784,8.976h-2.258
		L332.937,78.573z M355.612,78.573h2.535l0.409,8.974l3.908-8.905h2.463l-2.602,15.412h-1.917l1.232-8.152l-3.427,8.152h-1.37
		l-0.409-8.356l-1.507,8.356h-2.193L355.612,78.573z M380.478,78.573h4.042l-0.276,1.916h-2.191l-0.889,4.797h2.123l-0.275,1.644
		h-2.191l-0.89,5.207h2.19l-0.342,1.917h-4.315L380.478,78.573z M400.342,78.573h1.918l1.028,8.083l1.507-8.083h2.191l-2.875,15.48
		h-1.918l-0.755-8.976l-1.782,8.976h-2.26L400.342,78.573z M420.688,78.573h4.589l-0.342,1.916h-1.163l-2.399,13.564h-2.193
		l2.399-13.564h-1.232L420.688,78.573z M256.491,80.42c-0.108,0-0.198,0.064-0.276,0.138l-0.89,4.657c0,0.038,0,0.032,0,0.07
		c0,0.149,0.104,0.273,0.274,0.273h0.821c0.204,0,0.717-0.411,0.755-0.617l0.751-3.836c0.036-0.22-0.342-0.686-0.547-0.686H256.491z
		 M297.042,85.078l-1.437,3.905h1.095L297.042,85.078z"/>
</g>
</svg>
