<?xml version="1.0" encoding="utf-8"?>
<!-- Generator: Adobe Illustrator 16.0.3, SVG Export Plug-In . SVG Version: 6.00 Build 0)  -->
<!DOCTYPE svg PUBLIC "-//W3C//DTD SVG 1.1//EN" "http://www.w3.org/Graphics/SVG/1.1/DTD/svg11.dtd">
<svg version="1.1" id="Ebene_2" xmlns="http://www.w3.org/2000/svg" xmlns:xlink="http://www.w3.org/1999/xlink" x="0px" y="0px"
	 width="567.18px" height="60.445px" viewBox="0 0 567.18 60.445" enable-background="new 0 0 567.18 60.445" xml:space="preserve">
<g>
	<g>
		<path fill="#FFFFFF" d="M283.253,5.169v7.339h9.017v4.508h-9.017v10.059h-5.515V0.623h14.977v4.545H283.253z"/>
	</g>
	<g>
		<path fill="#FFFFFF" d="M313.546,27.074l-2.124-5.886h-9.8l-1.937,5.886h-5.478l9.239-26.377l6.298-0.148l9.91,26.526H313.546z
			 M307.396,9.677c-0.633-1.751-1.08-3.129-1.117-3.242c-0.036,0.112-0.336,1.453-0.932,3.242l-2.422,7.302h7.042L307.396,9.677z"/>
	</g>
	<g>
		<path fill="#FFFFFF" d="M339.254,27.074h-15.649V0.623h5.516v21.869h10.469L339.254,27.074z"/>
	</g>
	<g>
		<path fill="#FFFFFF" d="M364.142,25.809c-3.018,1.191-5.774,1.639-8.084,1.639c-2.98,0-6.11-0.521-8.645-2.087
			c-3.725-2.197-5.998-6.407-5.998-11.438c0-5.29,2.235-8.867,5.104-10.953c2.646-1.9,5.926-2.72,9.65-2.72
			c2.125,0,4.882,0.335,7.563,1.267l-0.446,4.545c-2.982-0.894-5.104-1.192-7.191-1.192c-2.644,0-4.694,0.597-6.258,1.9
			c-1.752,1.453-2.757,3.837-2.757,6.744c0,5.29,3.39,9.276,9.313,9.276c2.086,0,4.582-0.446,8.011-1.639L364.142,25.809z"/>
	</g>
	<g>
		<path fill="#FFFFFF" d="M390.225,25.323c-2.272,1.453-5.104,2.124-8.122,2.124c-3.392,0-6.445-1.044-8.681-2.794
			c-3.167-2.46-5.031-6.334-5.031-11.103c0-5.216,2.535-9.016,6.148-11.177c2.348-1.453,4.88-2.124,8.011-2.124
			c4.396,0,8.084,1.416,10.506,4.135c2.049,2.236,3.316,5.253,3.316,8.942C396.372,18.469,394.023,22.903,390.225,25.323z
			 M388.436,7.405c-1.49-1.641-3.576-2.535-6.296-2.535c-1.937,0-3.391,0.448-4.695,1.304c-2.087,1.379-3.39,3.875-3.39,7.042
			c0,3.13,1.118,5.886,2.943,7.636c1.304,1.194,3.279,2.014,5.179,2.014h0.186c1.975,0,3.727-0.483,5.031-1.453
			c2.122-1.602,3.315-4.434,3.315-7.674C390.709,11.353,389.89,9.006,388.436,7.405z"/>
	</g>
	<g>
		<path fill="#FFFFFF" d="M425.024,27.074h-6.11L405.91,8.559c0.076,0.82,0.076,2.235,0.076,4.024v14.492h-5.218V0.623h6.073
			l13.041,18.404c-0.038-0.82-0.074-1.899-0.074-3.167V0.623h5.216V27.074z"/>
	</g>
</g>
<g>
	<g>
		<path fill="#FFFFFF" d="M435.542,21.77c0-16.579,13.558-21.072,20.686-21.072c8.057,0,20.529,5.423,20.529,20.917v17.663
			c0,15.65-12.396,20.918-20.375,20.918c-8.058,0-20.84-5.268-20.84-20.918V21.77z M447.085,39.588c0,5.191,2.79,10.46,9.064,10.46
			c6.431,0,9.063-6.042,9.063-10.46V21.305c0-3.253-1.239-10.458-9.141-10.458c-6.431,0-8.987,5.5-8.987,10.537V39.588z"/>
	</g>
	<g>
		<path fill="#FFFFFF" d="M482.874,17.355c0.31-12.473,10.614-16.657,18.053-16.657c10.068,0,16.811,6.818,16.811,15.108
			c0,7.049-4.727,10.381-7.672,12.008c10.461,3.564,11.002,11.853,11.002,14.409c0,10.228-9.063,17.974-20.298,17.974
			c-6.274,0-13.247-2.48-16.81-7.67c-2.557-3.486-3.177-7.747-3.333-10.381h11.621c0.31,3.641,3.099,7.825,8.754,7.902
			c5.578,0,8.522-3.874,8.522-8.678c0-5.655-5.345-8.211-9.839-8.211h-4.648v-8.6h2.558c3.951,0,8.6-2.246,8.6-7.127
			c0-3.486-2.015-6.586-5.734-6.586c-4.88,0-6.042,3.951-6.197,6.508H482.874z"/>
	</g>
	<g>
		<path fill="#FFFFFF" d="M525.714,21.77c0-16.579,13.559-21.072,20.685-21.072c8.059,0,20.531,5.423,20.531,20.917v17.663
			c0,15.65-12.396,20.918-20.375,20.918c-8.057,0-20.841-5.268-20.841-20.918V21.77z M537.259,39.588
			c0,5.191,2.789,10.46,9.064,10.46c6.429,0,9.063-6.042,9.063-10.46V21.305c0-3.253-1.239-10.458-9.143-10.458
			c-6.43,0-8.985,5.5-8.985,10.537V39.588z"/>
	</g>
</g>
<g>
	<path fill="#4FA3EB" d="M104.754,3.279c2.31-2.955,7.088-3.458,9.921-0.981c1.158,0.976,1.97,2.323,2.384,3.771
		c5.245,18.046,10.512,36.083,15.75,54.13c-3.096,0.002-6.192-0.005-9.287,0.002c-1.459-4.974-2.884-9.959-4.325-14.938
		c-5.984-0.018-11.968-0.005-17.951-0.007c-1.466,4.977-2.912,9.959-4.351,14.947c-3.078-0.013-6.156-0.005-9.235-0.008
		c4.982-17.213,9.97-34.427,14.977-51.636C103.232,6.761,103.455,4.749,104.754,3.279 M110.217,14.336
		c-2.195,7.476-4.344,14.967-6.525,22.447c4.349,0.02,8.697,0.007,13.045,0.007C114.56,29.306,112.394,21.821,110.217,14.336z"/>
	<path fill="#E0B67A" d="M169.951,3.667c1.612-2.339,4.73-3.477,7.475-2.754c2.514,0.58,4.437,2.745,5.101,5.184
		c5.239,18.034,10.496,36.059,15.733,54.087c-3.099,0.027-6.197,0-9.296,0.015c-1.44-4.979-2.866-9.967-4.317-14.942
		c-5.975,0.002-11.948-0.013-17.922,0.004c-1.428,4.984-2.9,9.955-4.329,14.938c-3.075,0.002-6.15,0-9.225,0.002
		c4.979-17.308,10.018-34.601,15.037-51.896C168.735,6.74,168.938,5.018,169.951,3.667 M169.197,36.79
		c4.331,0.006,8.66,0.002,12.991,0.002c-2.153-7.499-4.342-14.988-6.492-22.489C173.533,21.799,171.349,29.29,169.197,36.79z"/>
	<path fill="#6AC05F" d="M125.879,0.824c11.196,0,22.393,0,33.585,0c0,3.021,0,6.038,0,9.059c-4.122,0.003-8.243-0.005-12.364,0.003
		c0,16.771,0.003,33.542-0.002,50.313c-2.951,0-5.906,0-8.857,0c0-16.771-0.002-33.541,0.002-50.313
		c-4.122-0.008-8.243,0-12.365-0.003C125.879,6.863,125.877,3.845,125.879,0.824z"/>
	<path fill="#BA5964" d="M208.104,1.192c0.851-0.294,1.759-0.394,2.657-0.373c3.53,0.014,7.059,0.002,10.59,0.005
		c5.944,0.108,11.619,3.8,14.192,9.149c1.781,3.476,1.965,7.517,1.515,11.329c-0.307,3.991-1.983,7.98-5.05,10.625
		c-1.621,1.446-3.64,2.321-5.374,3.604c-0.952,0.728-0.998,2.134-0.507,3.142c4.686,7.234,9.557,14.352,14.339,21.524
		c-3.498,0.007-6.996-0.01-10.494,0.007c-4.581-6.879-9.113-13.793-13.674-20.681c-1.341-1.959-1.704-4.557-0.902-6.796
		c0.626-1.715,2.127-2.972,3.798-3.618c3.189-1.216,6.332-3.129,8.099-6.138c1.342-2.264,1.275-5.053,0.671-7.528
		c-0.709-3.213-3.84-5.743-7.148-5.631c-2.289,0.017-4.575-0.013-6.859,0.011c-1.034-0.024-2.007,0.875-1.995,1.925
		c-0.011,16.149,0.006,32.303-0.004,48.455c-2.975-0.005-5.947,0-8.922-0.005c-0.006-17.387,0.004-34.777-0.006-52.163
		C203.045,4.986,205.214,2.118,208.104,1.192z"/>
	<path fill="#CCBAEE" d="M245.145,0.824c3.129,0,6.257,0,9.389,0c-0.003,19.794,0.003,39.583-0.006,59.375
		c-3.126-0.008-6.254,0-9.383-0.002C245.145,40.406,245.145,20.616,245.145,0.824z"/>
</g>
<g>
	<path d="M26.18,0.701c1.486-0.004,2.972,0,4.461-0.002c0.005,3.495,0,6.992,0.002,10.486c0.015,2.918-0.067,5.835-0.188,8.752
		c-0.2,4.208-0.463,8.429-1.16,12.587c-0.479,2.869-1.473,5.64-2.702,8.266c-2.008,4.231-5.164,7.813-8.712,10.826
		c-3.173,2.794-6.961,4.826-10.945,6.2C4.681,58.596,2.361,59.191,0,59.525c0.002-2.933,0.002-5.864,0-8.797
		c2.843-0.428,5.577-1.438,8.114-2.771c3.011-1.593,5.723-3.733,8.005-6.259c2.357-2.606,4.235-5.625,5.66-8.83
		c1.679-3.684,2.577-7.665,3.188-11.649c0.766-5.066,1.085-10.194,1.203-15.312C26.189,4.174,26.175,2.438,26.18,0.701z"/>
	<path d="M32.434,0.708c2.737-0.019,5.474-0.002,8.212-0.007c0.001,19.606,0.001,39.217,0,58.822
		c-2.731,0.008-5.462-0.012-8.193,0.015c-0.033-6.252-0.004-12.51-0.015-18.758C32.436,27.423,32.444,14.065,32.434,0.708z"/>
	<path d="M42.473,0.701c1.479-0.002,2.958-0.004,4.435,0c-0.048,5.979,0.156,11.971,0.868,17.907
		c0.583,4.614,1.406,9.265,3.244,13.561c1.742,4.158,4.252,8.022,7.525,11.141c3.125,2.98,6.911,5.271,11.025,6.589
		c1.148,0.365,2.322,0.652,3.516,0.829c-0.001,2.933-0.002,5.86,0,8.792c-2.345-0.317-4.644-0.924-6.882-1.684
		c-2.665-0.927-5.242-2.128-7.609-3.67c-1.728-1.108-3.3-2.44-4.809-3.826c-2.489-2.297-4.715-4.903-6.388-7.857
		c-1.308-2.3-2.262-4.783-3.011-7.316c-0.686-2.546-0.977-5.182-1.243-7.797c-0.515-5.66-0.707-11.347-0.671-17.025
		C42.473,7.128,42.472,3.915,42.473,0.701z"/>
	<path d="M32.434,0.708c0.01,13.357,0.002,26.715,0.005,40.07c0.009,6.25-0.02,12.506,0.015,18.76
		c2.73-0.025,5.462-0.007,8.193-0.015c0.001-19.604,0.001-39.216,0-58.824C37.909,0.705,35.171,0.689,32.434,0.708"/>
	<path d="M42.473,0.701c-0.001,3.213,0,6.428,0,9.641c-0.036,5.678,0.156,11.365,0.671,17.025c0.266,2.615,0.558,5.251,1.243,7.797
		c0.747,2.533,1.703,5.018,3.011,7.316c1.673,2.954,3.899,5.562,6.388,7.857c1.51,1.388,3.08,2.718,4.809,3.826
		c2.368,1.542,4.945,2.741,7.609,3.67c2.238,0.76,4.537,1.363,6.882,1.684c-0.002-2.932-0.001-5.859,0-8.792
		c-1.193-0.175-2.368-0.464-3.516-0.829c-4.114-1.317-7.9-3.607-11.025-6.589c-3.272-3.114-5.783-6.98-7.525-11.141
		c-1.837-4.296-2.66-8.945-3.244-13.561c-0.713-5.937-0.917-11.929-0.868-17.907C45.429,0.696,43.951,0.698,42.473,0.701"/>
</g>
<g>
	<path d="M292.715,0.498h-14.977c-0.069,0-0.125,0.056-0.125,0.125v26.451c0,0.069,0.056,0.125,0.125,0.125h5.515
		c0.069,0,0.125-0.056,0.125-0.125v-9.934h8.892c0.069,0,0.125-0.056,0.125-0.125v-4.508c0-0.069-0.056-0.125-0.125-0.125h-8.892
		v-7.09h9.337c0.069,0,0.125-0.056,0.125-0.125V0.623C292.84,0.554,292.784,0.498,292.715,0.498z M282.628,16.515v9.935h-4.265
		V1.248h13.727v3.295h-9.337c-0.069,0-0.125,0.056-0.125,0.125v8.339c0,0.069,0.056,0.125,0.125,0.125h8.892v3.258h-8.892
		C282.684,16.39,282.628,16.446,282.628,16.515z"/>
	<path d="M309.862,0.504c-0.02-0.05-0.069-0.082-0.12-0.081l-6.298,0.147c-0.052,0.001-0.098,0.035-0.115,0.083l-9.239,26.378
		c-0.014,0.039-0.007,0.081,0.017,0.114s0.062,0.053,0.102,0.053h5.478c0.054,0,0.102-0.035,0.119-0.086l1.909-5.801h9.621
		l2.095,5.804c0.018,0.049,0.064,0.083,0.117,0.083h6.109c0.002,0,0.004,0,0.006,0c0.069,0,0.125-0.056,0.125-0.125
		c0-0.029-0.01-0.056-0.026-0.077L309.862,0.504z M295.089,26.45l8.806-25.139l5.42-0.128l9.439,25.267h-4.77l-2.094-5.804
		c-0.018-0.049-0.064-0.083-0.117-0.083h-10.515c-0.054,0-0.103,0.035-0.119,0.086l-1.907,5.8H295.089z"/>
	<path d="M302.232,17.604h8.44c0.04,0,0.078-0.02,0.102-0.053s0.03-0.075,0.017-0.114l-2.807-7.973
		c-0.386-1.068-0.771-2.184-1.111-3.226l-0.48-1.455c-0.018-0.051-0.065-0.086-0.119-0.086c-0.055,0-0.103,0.035-0.119,0.087
		l-0.468,1.455c-0.01,0.026-0.03,0.106-0.065,0.246c-0.108,0.432-0.396,1.58-0.866,2.994l-2.641,7.96
		c-0.013,0.038-0.007,0.08,0.017,0.113C302.154,17.584,302.192,17.604,302.232,17.604z M303.099,16.854l2.367-7.137
		c0.418-1.254,0.69-2.284,0.829-2.834c0.305,0.917,0.649,1.91,0.983,2.836l2.513,7.135H303.099z"/>
	<path d="M339.588,22.367h-10.343V0.623c0-0.069-0.056-0.125-0.125-0.125h-5.517c-0.069,0-0.125,0.056-0.125,0.125v26.451
		c0,0.069,0.056,0.125,0.125,0.125h15.649c0.065,0,0.12-0.051,0.125-0.116l0.335-4.582c0.002-0.035-0.01-0.069-0.033-0.094
		S339.623,22.367,339.588,22.367z M324.229,26.449V1.248h4.267v21.744c0,0.069,0.056,0.125,0.125,0.125h10.296l-0.243,3.332H324.229
		z"/>
	<path d="M364.363,21.033c-3.204,1.114-5.736,1.633-7.971,1.633c-5.581,0-9.188-3.592-9.188-9.151c0-2.836,0.963-5.198,2.712-6.648
		c1.51-1.259,3.53-1.871,6.178-1.871c2.238,0,4.378,0.355,7.155,1.186c0.035,0.01,0.075,0.004,0.105-0.016
		c0.031-0.021,0.052-0.055,0.055-0.092l0.446-4.545c0.006-0.058-0.028-0.111-0.083-0.13c-3.188-1.109-6.133-1.274-7.604-1.274
		c-3.917,0-7.188,0.923-9.723,2.744c-3.325,2.417-5.156,6.343-5.156,11.054c0,4.991,2.266,9.308,6.058,11.544
		c2.263,1.397,5.193,2.106,8.711,2.106c2.626,0,5.361-0.555,8.13-1.648c0.045-0.018,0.076-0.061,0.079-0.109l0.262-4.657
		c0.002-0.042-0.017-0.082-0.05-0.106C364.446,21.027,364.403,21.02,364.363,21.033z M356.169,0.875c1.329,0,3.98,0.141,6.893,1.077
		l-0.325,3.3c-2.511-0.705-4.506-1.007-6.644-1.007c-2.828,0-5.006,0.669-6.657,2.044c-1.923,1.595-2.982,4.161-2.982,7.224
		c0,5.922,3.993,9.901,9.938,9.901c2.121,0,4.456-0.438,7.336-1.377l-0.188,3.333c-2.523,0.95-5.108,1.452-7.482,1.452
		c-3.376,0-6.178-0.673-8.328-2.001c-3.563-2.102-5.69-6.176-5.69-10.899c0-5.721,2.634-8.838,4.844-10.445
		C349.287,1.751,352.412,0.875,356.169,0.875z"/>
	<path d="M382.55,0.125c-3.148,0-5.715,0.681-8.075,2.142c-4.004,2.395-6.209,6.402-6.209,11.284c0,4.679,1.804,8.657,5.079,11.201
		c2.324,1.819,5.435,2.821,8.759,2.821c3.163,0,5.995-0.741,8.188-2.144c3.886-2.477,6.205-7.001,6.205-12.102
		c0-3.513-1.158-6.635-3.347-9.025C390.715,1.57,387.05,0.125,382.55,0.125z M382.104,26.823c-3.157,0-6.104-0.945-8.298-2.662
		c-3.089-2.4-4.79-6.168-4.79-10.609c0-4.607,2.078-8.387,5.852-10.645c2.237-1.386,4.678-2.031,7.683-2.031
		c4.279,0,7.753,1.359,10.046,3.932c2.063,2.251,3.152,5.197,3.152,8.52c0,4.843-2.19,9.13-5.859,11.469
		C387.816,26.122,385.125,26.823,382.104,26.823z"/>
	<path d="M382.141,4.244c-1.978,0-3.578,0.447-5.04,1.407c-2.331,1.541-3.669,4.297-3.669,7.563c0,3.229,1.146,6.18,3.145,8.097
		c1.465,1.344,3.61,2.179,5.601,2.179h0.187c2.147,0,4.018-0.546,5.407-1.58c2.266-1.71,3.564-4.689,3.564-8.174
		c0-2.587-0.888-5.049-2.436-6.753C387.25,5.166,384.977,4.244,382.141,4.244z M382.363,22.74h-0.187c-0.005,0-0.011,0-0.016,0.001
		c-1.805-0.004-3.749-0.763-5.076-1.98c-1.847-1.77-2.905-4.52-2.905-7.545c0-3.009,1.216-5.538,3.334-6.938
		c1.334-0.875,2.804-1.283,4.627-1.283c2.614,0,4.7,0.839,6.202,2.493c1.425,1.567,2.241,3.845,2.241,6.249
		c0,3.248-1.19,6.008-3.264,7.574C386.062,22.245,384.348,22.74,382.363,22.74z"/>
	<path d="M425.024,0.498h-5.216c-0.069,0-0.125,0.056-0.125,0.125V15.86c0,0.916,0.019,1.838,0.055,2.749L406.943,0.551
		c-0.023-0.033-0.061-0.053-0.102-0.053h-6.072c-0.069,0-0.125,0.056-0.125,0.125v26.451c0,0.069,0.056,0.125,0.125,0.125h5.217
		c0.069,0,0.125-0.056,0.125-0.125V12.583c0-1.5,0-2.737-0.044-3.585l12.745,18.149c0.023,0.033,0.062,0.053,0.103,0.053h6.11
		c0.069,0,0.125-0.056,0.125-0.125V0.623C425.15,0.554,425.094,0.498,425.024,0.498z M405.288,8.616
		c0.073,0.791,0.073,2.192,0.073,3.967V26.45h-3.969V1.248h5.125l12.854,18.14l0.985,1.394c0.024,0.034,0.063,0.053,0.103,0.053
		c0.002,0,0.004,0,0.006,0c0.069,0,0.125-0.056,0.125-0.125c0-0.016-0.003-0.031-0.008-0.044l-0.077-1.667
		c-0.049-1.061-0.072-2.088-0.072-3.139V1.248h3.966v25.201h-5.161L405.341,6.66c-0.033-0.047-0.095-0.065-0.146-0.045
		c-0.054,0.02-0.087,0.072-0.081,0.129L405.288,8.616z"/>
	<path d="M456.071,10.222c-6.64,0-9.612,5.606-9.612,11.162v18.204c0.001,5.518,2.998,11.085,9.69,11.085
		c7.058,0,9.688-6.799,9.688-11.085V21.305C465.837,19.454,465.366,10.222,456.071,10.222z M465.088,21.305v18.283
		c0,4.154-2.381,10.335-8.938,10.335c-6.176,0-8.939-5.19-8.939-10.335V21.384c0-4.803,2.321-10.412,8.862-10.412
		C464.653,10.972,465.088,19.579,465.088,21.305z"/>
	<path d="M456.228,0.573c-1.706,0-7.692,0.313-13.091,4.343c-5.05,3.771-7.72,9.598-7.72,16.853v17.509
		c0,15.439,12.538,21.044,20.965,21.044c4.684,0,9.64-1.727,13.258-4.618c4.738-3.786,7.242-9.466,7.242-16.426V21.615
		C476.882,6.177,464.53,0.573,456.228,0.573z M456.382,59.571c-8.126,0-20.215-5.404-20.215-20.293V21.77
		c0-16.173,13.122-20.446,20.061-20.446c8.001,0,19.904,5.404,19.904,20.292v17.662C476.132,54.166,464.32,59.571,456.382,59.571z"
		/>
	<path d="M510.368,27.788c5.042-2.865,7.494-6.786,7.494-11.981c0-4.132-1.658-7.952-4.67-10.755
		c-3.102-2.888-7.458-4.479-12.266-4.479c-6.597,0-17.849,3.534-18.178,16.778c-0.001,0.034,0.012,0.066,0.035,0.09
		c0.023,0.024,0.056,0.038,0.09,0.038h11.389c0.066,0,0.121-0.051,0.125-0.117c0.116-1.922,0.941-6.391,6.072-6.391
		c3.854,0,5.609,3.349,5.609,6.461c0,4.597-4.264,7.002-8.476,7.002h-2.558c-0.069,0-0.125,0.056-0.125,0.125v8.601
		c0,0.069,0.056,0.125,0.125,0.125h4.647c4.828,0,9.715,2.777,9.715,8.086c0,5.195-3.296,8.553-8.396,8.553
		c-5.481-0.075-8.316-4.09-8.631-7.788c-0.006-0.064-0.061-0.114-0.125-0.114h-11.621c-0.034,0-0.067,0.015-0.091,0.039
		c-0.023,0.025-0.036,0.059-0.034,0.094c0.248,4.179,1.409,7.791,3.354,10.443c3.222,4.693,9.86,7.726,16.913,7.726
		c11.452,0,20.424-7.95,20.424-18.1C521.192,38.246,519.778,31.115,510.368,27.788z M500.77,59.573
		c-6.812,0-13.211-2.909-16.305-7.416c-1.756-2.394-2.85-5.637-3.165-9.386h10.394c0.578,3.896,3.664,7.825,9.31,7.902
		c5.472,0,9.147-3.738,9.147-9.303c0-5.801-5.265-8.836-10.465-8.836h-4.022v-7.351h1.933c4.585,0,9.226-2.663,9.226-7.752
		c0-4.246-2.615-7.211-6.359-7.211c-5.226,0-6.488,4.024-6.77,6.508h-10.166c0.653-12.157,11.232-15.405,17.4-15.405
		c9.228,0,16.187,6.226,16.187,14.482c0,4.98-2.404,8.729-7.35,11.461l-0.989,0.546c-0.043,0.024-0.068,0.071-0.064,0.12
		c0.005,0.049,0.038,0.092,0.085,0.107l1.07,0.365c9.204,3.137,10.578,10.003,10.578,13.817
		C520.443,51.951,511.802,59.573,500.77,59.573z"/>
	<path d="M546.243,10.222c-6.639,0-9.61,5.606-9.61,11.162v18.204c0.001,5.518,2.998,11.085,9.69,11.085
		c7.058,0,9.688-6.799,9.688-11.085V21.305C556.011,19.454,555.54,10.222,546.243,10.222z M555.262,21.305v18.283
		c0,4.154-2.381,10.335-8.938,10.335c-6.176,0-8.939-5.19-8.939-10.335V21.384c0-4.803,2.32-10.412,8.86-10.412
		C554.827,10.972,555.262,19.579,555.262,21.305z"/>
	<path d="M559.764,5.249c-3.668-2.927-8.664-4.675-13.365-4.675c-1.706,0-7.691,0.313-13.09,4.343
		c-5.051,3.771-7.721,9.598-7.721,16.853v17.509c0,15.439,12.538,21.044,20.966,21.044c4.684,0,9.64-1.727,13.258-4.618
		c4.738-3.786,7.242-9.466,7.242-16.426V21.615C567.055,12.898,563.09,7.904,559.764,5.249z M546.554,59.571
		c-8.126,0-20.216-5.404-20.216-20.293V21.77c0.001-16.173,13.122-20.446,20.061-20.446c8.001,0,19.905,5.404,19.905,20.292v17.662
		C566.304,54.166,554.492,59.571,546.554,59.571z"/>
</g>
</svg>
