<?xml version="1.0" encoding="UTF-8" standalone="no"?>
<!-- Generator: Adobe Illustrator 16.0.3, SVG Export Plug-In . SVG Version: 6.00 Build 0)  -->

<svg
   xmlns:dc="http://purl.org/dc/elements/1.1/"
   xmlns:cc="http://creativecommons.org/ns#"
   xmlns:rdf="http://www.w3.org/1999/02/22-rdf-syntax-ns#"
   xmlns:svg="http://www.w3.org/2000/svg"
   xmlns="http://www.w3.org/2000/svg"
   xmlns:sodipodi="http://sodipodi.sourceforge.net/DTD/sodipodi-0.dtd"
   xmlns:inkscape="http://www.inkscape.org/namespaces/inkscape"
   version="1.1"
   id="Ebene_1"
   x="0px"
   y="0px"
   width="566.929px"
   height="98.437px"
   viewBox="0 0 566.929 98.437"
   enable-background="new 0 0 566.929 98.437"
   xml:space="preserve"
   inkscape:version="0.48.4 r9939"
   sodipodi:docname="logo.svg"><metadata
     id="metadata3097"><rdf:RDF><cc:Work
         rdf:about=""><dc:format>image/svg+xml</dc:format><dc:type
           rdf:resource="http://purl.org/dc/dcmitype/StillImage" /><dc:title /></cc:Work></rdf:RDF></metadata><defs
     id="defs3095" /><sodipodi:namedview
     pagecolor="#ffffff"
     bordercolor="#666666"
     borderopacity="1"
     objecttolerance="10"
     gridtolerance="10"
     guidetolerance="10"
     inkscape:pageopacity="0"
     inkscape:pageshadow="2"
     inkscape:window-width="1920"
     inkscape:window-height="1134"
     id="namedview3093"
     showgrid="false"
     inkscape:zoom="2.2450644"
     inkscape:cx="364.40522"
     inkscape:cy="41.091988"
     inkscape:window-x="0"
     inkscape:window-y="27"
     inkscape:window-maximized="1"
     inkscape:current-layer="g2992"
     showguides="true"
     inkscape:guide-bbox="true" /><g
     id="g3084"><g
       id="g2992"><g
         id="g3164"
         transform="matrix(0.15401754,0,0,0.15401754,21.833747,42.233512)"><path
           style="fill:#eff7ef"
           d="m 373.33415,354.67834 -63,0 0,-189.5 0,-189.5 23.5,0 23.5,0 0,-94.5 0,-94.5 -15.5,0 -15.5,0 0,7.5 0,7.5 -16,0 -16,0 0,8 0,8 -15.5,0 -15.5,0 0,8 0,8 -8,0 -8,0 0,8 0,8 -8,0 -8,0 0,8 0,8 -8,0 -8,0 0,7.5 0,7.5 -8,0 -8,0 0,16 0,16 -7.5,0 -7.5,0 0,23.5 0,23.5 -8,0 -8,0 0,16 0,16 8,0 8,0 0,8 0,8 7.5,0 7.5,0 0,8 0,8 8,0 8,0 0,7.5 0,7.5 8,0 8,0 0,24 0,24 -8,0 -8,0 0,8 0,8 -8,0 -8,0 0,7.5 0,7.5 8,0 8,0 0,24 0,24 -8,0 -8,0 0,8 0,8 -7.5,0 -7.5,0 0,7.5 0,7.5 -16,0 -16,0 0,8 0,8 -16,0 -16,0 0,8 0,8 -47,0 -47,0 0,-8 0,-8 -8,0 -8,0 0,8 0,8 -39.5,0 -39.5,0 0,-8 0,-8 -8,0 -8,0 0,-8 0,-8 -8,0 -8,0 0,-15.5 0,-15.5 -7.5,0 -7.5,0 0,-24 0,-24 7.5,0 7.5,0 0,-7.5 0,-7.5 8,0 8,0 0,-8 0,-8 -8,0 -8,0 0,-8 0,-8 -7.5,0 -7.5,0 0,-31.5 0,-31.5 7.5,0 7.5,0 0,-8 0,-8 8,0 8,0 0,-8 0,-8 8,0 8,0 0,-31.5 0,-31.5 8,0 8,0 0,-39.5 0,-39.5 8,0 8,0 0,-8 0,-8 7.5,0 7.5,0 0,-8 0,-8 8,0 8,0 0,-15.5 0,-15.5 -8,0 -8,0 0,-8 0,-8 8,0 8,0 0,8 0,8 8,0 8,0 0,-16 0,-16 8,0 8,0 0,16 0,16 7.5,0 7.5,0 0,-8 0,-8 8,0 8,0 0,8 0,8 -8,0 -8,0 0,8 0,8 8,0 8,0 0,7.5 0,7.5 16,0 16,0 0,8 0,8 8,0 8,0 0,8 0,8 7.5,0 7.5,0 0,8 0,8 8,0 8,0 0,23.5 0,23.5 8,0 8,0 0,-15.5 0,-15.5 8,0 8,0 0,-8 0,-8 8,0 8,0 0,-8 0,-8 7.5,0 7.5,0 0,-8 0,-8 8,0 8,0 0,-8 0,-8 16,0 16,0 0,-7.5 0,-7.5 15.5,0 15.5,0 0,-8 0,-8 47.5,0 47.5,0 0,102.5 0,102.5 31.5,0 31.5,0 0,189.5 0,189.5 -63,0 z m -245,-426 8,0 0,-16 0,-16 -8,0 -8,0 0,16 0,16 8,0 z"
           id="path3190"
           inkscape:connector-curvature="0" /><path
           style="fill:#cacaca"
           d="m 373.33415,354.67834 -63,0 0,-189.5 0,-189.5 63,0 63,0 0,189.5 0,189.5 -63,0 z m -402.5,-126 -39.5,0 0,-8 0,-8 -8,0 -8,0 0,-8 0,-8 -8,0 -8,0 0,-15.5 0,-15.5 -7.5,0 -7.5,0 0,-24 0,-24 7.5,0 7.5,0 0,-7.5 0,-7.5 8,0 8,0 0,-8 0,-8 -8,0 -8,0 0,-8 0,-8 -7.5,0 -7.5,0 0,-31.5 0,-31.5 7.5,0 7.5,0 0,-8 0,-8 8,0 8,0 0,-8 0,-8 8,0 8,0 0,-31.5 0,-31.5 8,0 8,0 0,-39.5 0,-39.5 8,0 8,0 0,-8 0,-8 7.5,0 7.5,0 0,-8 0,-8 8,0 8,0 0,-15.5 0,-15.5 -8,0 -8,0 0,-8 0,-8 8,0 8,0 0,8 0,8 8,0 8,0 0,-16 0,-16 8,0 8,0 0,16 0,16 7.5,0 7.5,0 0,-8 0,-8 8,0 8,0 0,8 0,8 -8,0 -8,0 0,8 0,8 8,0 8,0 0,7.5 0,7.5 16,0 16,0 0,8 0,8 8,0 8,0 0,8 0,8 7.5,0 7.5,0 0,8 0,8 8,0 8,0 0,23.5 0,23.5 8,0 8,0 0,-15.5 0,-15.5 8,0 8,0 0,-8 0,-8 8,0 8,0 0,-8 0,-8 7.5,0 7.5,0 0,-8 0,-8 8,0 8,0 0,-8 0,-8 16,0 16,0 0,-7.5 0,-7.5 15.5,0 15.5,0 0,-8 0,-8 47.5,0 47.5,0 0,8 0,8 -23.5,0 -23.5,0 0,7.5 0,7.5 -16,0 -16,0 0,8 0,8 -15.5,0 -15.5,0 0,8 0,8 -8,0 -8,0 0,8 0,8 -8,0 -8,0 0,8 0,8 -8,0 -8,0 0,7.5 0,7.5 -8,0 -8,0 0,16 0,16 -7.5,0 -7.5,0 0,23.5 0,23.5 -8,0 -8,0 0,16 0,16 8,0 8,0 0,8 0,8 7.5,0 7.5,0 0,8 0,8 8,0 8,0 0,7.5 0,7.5 8,0 8,0 0,24 0,24 -8,0 -8,0 0,8 0,8 -8,0 -8,0 0,7.5 0,7.5 8,0 8,0 0,24 0,24 -8,0 -8,0 0,8 0,8 -7.5,0 -7.5,0 0,7.5 0,7.5 -16,0 -16,0 0,8 0,8 -16,0 -16,0 0,8 0,8 -47,0 -47,0 0,-8 0,-8 -8,0 -8,0 0,8 0,8 -39.5,0 z m 16,-32 23.5,0 0,-7.5 0,-7.5 15.5,0 15.5,0 0,7.5 0,7.5 32,0 32,0 0,-7.5 0,-7.5 15.5,0 15.5,0 0,-8 0,-8 16,0 16,0 0,-8 0,-8 8,0 8,0 0,-16 0,-16 -8,0 -8,0 0,-7.5 0,-7.5 8,0 8,0 0,-8 0,-8 15.5,0 15.5,0 0,-24 0,-24 -8,0 -8,0 0,-7.5 0,-7.5 -7.5,0 -7.5,0 0,-8 0,-8 -8,0 -8,0 0,8 0,8 -8,0 -8,0 0,7.5 0,7.5 -8,0 -8,0 0,8 0,8 -23.5,0 -23.5,0 0,8 0,8 -8,0 -8,0 0,-8 0,-8 -39.5,0 -39.5,0 0,8 0,8 -8,0 -8,0 0,-8 0,-8 -15.5,0 -15.5,0 0,-8 0,-8 -8,0 -8,0 0,-7.5 0,-7.5 -8,0 -8,0 0,15.5 0,15.5 8,0 8,0 0,16 0,16 8,0 8,0 0,8 0,8 -8,0 -8,0 0,23.5 0,23.5 8,0 8,0 0,16 0,16 8,0 8,0 0,7.5 0,7.5 23.5,0 z m 63,-31 -23.5,0 0,-8 0,-8 -8,0 -8,0 0,-8 0,-8 8,0 8,0 0,8 0,8 23.5,0 23.5,0 0,-8 0,-8 8,0 8,0 0,8 0,8 -8,0 -8,0 0,8 0,8 -23.5,0 z m -16,-48 -7.5,0 0,-15.5 0,-15.5 7.5,0 7.5,0 0,15.5 0,15.5 -7.5,0 z m 31.5,0 -8,0 0,-15.5 0,-15.5 8,0 8,0 0,15.5 0,15.5 -8,0 z m -110,-110 8,0 0,-8 0,-8 -8,0 -8,0 0,8 0,8 8,0 z m 173,-79 8,0 0,-16 0,-16 -8,0 -8,0 0,-23.5 0,-23.5 -7.5,0 -7.5,0 0,-8 0,-8 -16,0 -16,0 0,8 0,8 -8,0 -8,0 0,8 0,8 -8,0 -8,0 0,-8 0,-8 -7.5,0 -7.5,0 0,-8 0,-8 -24,0 -24,0 0,8 0,8 -7.5,0 -7.5,0 0,23.5 0,23.5 7.5,0 7.5,0 0,8 0,8 16,0 16,0 0,-16 0,-16 8,0 8,0 0,-7.5 0,-7.5 7.5,0 7.5,0 0,7.5 0,7.5 8,0 8,0 0,-7.5 0,-7.5 8,0 8,0 0,7.5 0,7.5 8,0 8,0 0,16 0,16 8,0 8,0 0,-8 0,-8 7.5,0 7.5,0 0,16 0,16 8,0 z"
           id="path3188"
           inkscape:connector-curvature="0" /><path
           style="fill:#bcbdbc"
           d="m 373.33415,354.67834 -63,0 0,-189.5 0,-189.5 63,0 63,0 0,189.5 0,189.5 -63,0 z m -402.5,-126 -39.5,0 0,-8 0,-8 -8,0 -8,0 0,-8 0,-8 -8,0 -8,0 0,-15.5 0,-15.5 -7.5,0 -7.5,0 0,-24 0,-24 7.5,0 7.5,0 0,-7.5 0,-7.5 8,0 8,0 0,-8 0,-8 -8,0 -8,0 0,-8 0,-8 -7.5,0 -7.5,0 0,-31.5 0,-31.5 7.5,0 7.5,0 0,-8 0,-8 8,0 8,0 0,-8 0,-8 8,0 8,0 0,-31.5 0,-31.5 8,0 8,0 0,-39.5 0,-39.5 8,0 8,0 0,-8 0,-8 7.5,0 7.5,0 0,-8 0,-8 8,0 8,0 0,-15.5 0,-15.5 -8,0 -8,0 0,-8 0,-8 8,0 8,0 0,8 0,8 8,0 8,0 0,-16 0,-16 8,0 8,0 0,16 0,16 7.5,0 7.5,0 0,-8 0,-8 8,0 8,0 0,8 0,8 -8,0 -8,0 0,8 0,8 8,0 8,0 0,7.5 0,7.5 16,0 16,0 0,8 0,8 8,0 8,0 0,8 0,8 7.5,0 7.5,0 0,8 0,8 8,0 8,0 0,23.5 0,23.5 8,0 8,0 0,-15.5 0,-15.5 8,0 8,0 0,-8 0,-8 8,0 8,0 0,-8 0,-8 7.5,0 7.5,0 0,-8 0,-8 8,0 8,0 0,-8 0,-8 16,0 16,0 0,-7.5 0,-7.5 15.5,0 15.5,0 0,-8 0,-8 47.5,0 47.5,0 0,8 0,8 -23.5,0 -23.5,0 0,7.5 0,7.5 -16,0 -16,0 0,8 0,8 -15.5,0 -15.5,0 0,8 0,8 -8,0 -8,0 0,8 0,8 -8,0 -8,0 0,8 0,8 -8,0 -8,0 0,7.5 0,7.5 -8,0 -8,0 0,16 0,16 -7.5,0 -7.5,0 0,23.5 0,23.5 -8,0 -8,0 0,16 0,16 8,0 8,0 0,8 0,8 7.5,0 7.5,0 0,8 0,8 8,0 8,0 0,7.5 0,7.5 8,0 8,0 0,24 0,24 -8,0 -8,0 0,8 0,8 -8,0 -8,0 0,7.5 0,7.5 8,0 8,0 0,24 0,24 -8,0 -8,0 0,8 0,8 -7.5,0 -7.5,0 0,7.5 0,7.5 -16,0 -16,0 0,8 0,8 -16,0 -16,0 0,8 0,8 -47,0 -47,0 0,-8 0,-8 -8,0 -8,0 0,8 0,8 -39.5,0 z m -15.5,-16 8,0 0,-8 0,-8 23.5,0 23.5,0 0,-7.5 0,-7.5 15.5,0 15.5,0 0,7.5 0,7.5 -7.5,0 -7.5,0 0,8 0,8 7.5,0 7.5,0 0,-8 0,-8 32,0 32,0 0,-7.5 0,-7.5 7.5,0 7.5,0 0,7.5 0,7.5 8,0 8,0 0,-15.5 0,-15.5 16,0 16,0 0,8 0,8 8,0 8,0 0,-8 0,-8 7.5,0 7.5,0 0,-8 0,-8 -7.5,0 -7.5,0 0,-16 0,-16 -8,0 -8,0 0,-7.5 0,-7.5 8,0 8,0 0,-8 0,-8 15.5,0 15.5,0 0,-24 0,-24 -8,0 -8,0 0,-7.5 0,-7.5 -7.5,0 -7.5,0 0,-8 0,-8 -8,0 -8,0 0,8 0,8 -8,0 -8,0 0,7.5 0,7.5 -8,0 -8,0 0,8 0,8 -23.5,0 -23.5,0 0,8 0,8 -8,0 -8,0 0,-8 0,-8 -39.5,0 -39.5,0 0,8 0,8 -8,0 -8,0 0,-8 0,-8 -15.5,0 -15.5,0 0,-8 0,-8 -8,0 -8,0 0,-7.5 0,-7.5 -8,0 -8,0 0,15.5 0,15.5 -8,0 -8,0 0,8 0,8 8,0 8,0 0,-8 0,-8 8,0 8,0 0,16 0,16 8,0 8,0 0,8 0,8 -8,0 -8,0 0,23.5 0,23.5 -8,0 -8,0 0,8 0,8 8,0 8,0 0,8 0,8 16,0 16,0 0,7.5 0,7.5 -8,0 -8,0 0,8 0,8 8,0 z m -16,-47 -8,0 0,-8 0,-8 8,0 8,0 0,8 0,8 -8,0 z m 110.5,0 -23.5,0 0,-8 0,-8 -8,0 -8,0 0,-8 0,-8 8,0 8,0 0,8 0,8 23.5,0 23.5,0 0,-8 0,-8 8,0 8,0 0,8 0,8 -8,0 -8,0 0,8 0,8 -23.5,0 z m 126.5,0 -8,0 0,-8 0,-8 8,0 8,0 0,8 0,8 -8,0 z m -142.5,-48 -7.5,0 0,-15.5 0,-15.5 7.5,0 7.5,0 0,15.5 0,15.5 -7.5,0 z m 31.5,0 -8,0 0,-15.5 0,-15.5 8,0 8,0 0,15.5 0,15.5 -8,0 z m -158,16 8,0 0,-8 0,-8 -8,0 -8,0 0,8 0,8 8,0 z m 48,-126 8,0 0,-8 0,-8 -8,0 -8,0 0,8 0,8 8,0 z m 173,-79 8,0 0,-16 0,-16 -8,0 -8,0 0,-23.5 0,-23.5 -7.5,0 -7.5,0 0,-8 0,-8 -16,0 -16,0 0,8 0,8 -8,0 -8,0 0,8 0,8 -8,0 -8,0 0,-8 0,-8 -7.5,0 -7.5,0 0,-8 0,-8 -24,0 -24,0 0,8 0,8 -7.5,0 -7.5,0 0,23.5 0,23.5 7.5,0 7.5,0 0,8 0,8 16,0 16,0 0,-16 0,-16 8,0 8,0 0,-7.5 0,-7.5 7.5,0 7.5,0 0,7.5 0,7.5 8,0 8,0 0,-7.5 0,-7.5 8,0 8,0 0,7.5 0,7.5 8,0 8,0 0,16 0,16 8,0 8,0 0,-8 0,-8 7.5,0 7.5,0 0,16 0,16 8,0 z"
           id="path3186"
           inkscape:connector-curvature="0" /><path
           style="fill:#ef8700"
           d="m 373.33415,354.67834 -63,0 0,-189.5 0,-189.5 63,0 63,0 0,189.5 0,189.5 -63,0 z m -402.5,-126 -39.5,0 0,-8 0,-8 -8,0 -8,0 0,-8 0,-8 -8,0 -8,0 0,-15.5 0,-15.5 -7.5,0 -7.5,0 0,-24 0,-24 7.5,0 7.5,0 0,-7.5 0,-7.5 8,0 8,0 0,-8 0,-8 -8,0 -8,0 0,-8 0,-8 -7.5,0 -7.5,0 0,-31.5 0,-31.5 7.5,0 7.5,0 0,-8 0,-8 8,0 8,0 0,-8 0,-8 8,0 8,0 0,-31.5 0,-31.5 8,0 8,0 0,-39.5 0,-39.5 8,0 8,0 0,-8 0,-8 7.5,0 7.5,0 0,-8 0,-8 8,0 8,0 0,-15.5 0,-15.5 -8,0 -8,0 0,-8 0,-8 8,0 8,0 0,8 0,8 8,0 8,0 0,-16 0,-16 8,0 8,0 0,16 0,16 7.5,0 7.5,0 0,-8 0,-8 8,0 8,0 0,8 0,8 -8,0 -8,0 0,8 0,8 8,0 8,0 0,7.5 0,7.5 16,0 16,0 0,8 0,8 8,0 8,0 0,8 0,8 7.5,0 7.5,0 0,8 0,8 8,0 8,0 0,23.5 0,23.5 8,0 8,0 0,-15.5 0,-15.5 8,0 8,0 0,-8 0,-8 8,0 8,0 0,-8 0,-8 7.5,0 7.5,0 0,-8 0,-8 8,0 8,0 0,-8 0,-8 16,0 16,0 0,-7.5 0,-7.5 15.5,0 15.5,0 0,-8 0,-8 47.5,0 47.5,0 0,8 0,8 -23.5,0 -23.5,0 0,7.5 0,7.5 -16,0 -16,0 0,8 0,8 -15.5,0 -15.5,0 0,8 0,8 -8,0 -8,0 0,8 0,8 -8,0 -8,0 0,8 0,8 -8,0 -8,0 0,7.5 0,7.5 -8,0 -8,0 0,16 0,16 -7.5,0 -7.5,0 0,23.5 0,23.5 -8,0 -8,0 0,16 0,16 8,0 8,0 0,8 0,8 7.5,0 7.5,0 0,8 0,8 8,0 8,0 0,7.5 0,7.5 8,0 8,0 0,24 0,24 -8,0 -8,0 0,8 0,8 -8,0 -8,0 0,7.5 0,7.5 8,0 8,0 0,24 0,24 -8,0 -8,0 0,8 0,8 -7.5,0 -7.5,0 0,7.5 0,7.5 -16,0 -16,0 0,8 0,8 -16,0 -16,0 0,8 0,8 -47,0 -47,0 0,-8 0,-8 -8,0 -8,0 0,8 0,8 -39.5,0 z m 0,-16 39.5,0 0,-8 0,-8 8,0 8,0 0,8 0,8 47,0 47,0 0,-8 0,-8 16,0 16,0 0,-7.5 0,-7.5 16,0 16,0 0,-8 0,-8 7.5,0 7.5,0 0,-24 0,-24 -7.5,0 -7.5,0 0,-7.5 0,-7.5 7.5,0 7.5,0 0,-8 0,-8 8,0 8,0 0,-24 0,-24 -8,0 -8,0 0,-7.5 0,-7.5 -7.5,0 -7.5,0 0,-8 0,-8 -8,0 -8,0 0,8 0,8 -8,0 -8,0 0,7.5 0,7.5 -8,0 -8,0 0,8 0,8 -23.5,0 -23.5,0 0,8 0,8 -8,0 -8,0 0,-8 0,-8 -39.5,0 -39.5,0 0,8 0,8 -8,0 -8,0 0,-8 0,-8 -15.5,0 -15.5,0 0,-8 0,-8 -8,0 -8,0 0,-15.5 0,-15.5 16,0 16,0 0,-8 0,-8 -24,0 -24,0 0,8 0,8 -8,0 -8,0 0,31.5 0,31.5 8,0 8,0 0,8 0,8 8,0 8,0 0,8 0,8 -8,0 -8,0 0,7.5 0,7.5 -8,0 -8,0 0,24 0,24 8,0 8,0 0,15.5 0,15.5 8,0 8,0 0,8 0,8 39.5,0 z m 79,-47 -23.5,0 0,-8 0,-8 -8,0 -8,0 0,-8 0,-8 8,0 8,0 0,8 0,8 23.5,0 23.5,0 0,-8 0,-8 8,0 8,0 0,8 0,8 -8,0 -8,0 0,8 0,8 -23.5,0 z m -16,-48 -7.5,0 0,-15.5 0,-15.5 7.5,0 7.5,0 0,15.5 0,15.5 -7.5,0 z m 31.5,0 -8,0 0,-15.5 0,-15.5 8,0 8,0 0,15.5 0,15.5 -8,0 z m 63,-189 8,0 0,-16 0,-16 -8,0 -8,0 0,-23.5 0,-23.5 -7.5,0 -7.5,0 0,-8 0,-8 -16,0 -16,0 0,8 0,8 -8,0 -8,0 0,8 0,8 -8,0 -8,0 0,-8 0,-8 -7.5,0 -7.5,0 0,-8 0,-8 -24,0 -24,0 0,8 0,8 -7.5,0 -7.5,0 0,23.5 0,23.5 7.5,0 7.5,0 0,8 0,8 16,0 16,0 0,-16 0,-16 8,0 8,0 0,-7.5 0,-7.5 7.5,0 7.5,0 0,7.5 0,7.5 8,0 8,0 0,-7.5 0,-7.5 8,0 8,0 0,7.5 0,7.5 8,0 8,0 0,16 0,16 8,0 8,0 0,-8 0,-8 7.5,0 7.5,0 0,16 0,16 8,0 z"
           id="path3184"
           inkscape:connector-curvature="0" /><path
           style="fill:#747674"
           d="m 373.33415,354.67834 -63,0 0,-189.5 0,-189.5 63,0 63,0 0,189.5 0,189.5 -63,0 z m -402.5,-126 -39.5,0 0,-8 0,-8 -8,0 -8,0 0,-8 0,-8 -8,0 -8,0 0,-15.5 0,-15.5 -7.5,0 -7.5,0 0,-24 0,-24 7.5,0 7.5,0 0,-7.5 0,-7.5 8,0 8,0 0,-8 0,-8 -8,0 -8,0 0,-8 0,-8 -7.5,0 -7.5,0 0,-31.5 0,-31.5 7.5,0 7.5,0 0,-8 0,-8 8,0 8,0 0,-8 0,-8 8,0 8,0 0,-31.5 0,-31.5 8,0 8,0 0,-39.5 0,-39.5 8,0 8,0 0,-8 0,-8 7.5,0 7.5,0 0,-8 0,-8 8,0 8,0 0,-15.5 0,-15.5 -8,0 -8,0 0,-8 0,-8 8,0 8,0 0,8 0,8 8,0 8,0 0,-16 0,-16 8,0 8,0 0,16 0,16 7.5,0 7.5,0 0,-8 0,-8 8,0 8,0 0,8 0,8 -8,0 -8,0 0,8 0,8 8,0 8,0 0,7.5 0,7.5 16,0 16,0 0,8 0,8 8,0 8,0 0,8 0,8 7.5,0 7.5,0 0,8 0,8 8,0 8,0 0,23.5 0,23.5 8,0 8,0 0,-15.5 0,-15.5 8,0 8,0 0,-8 0,-8 8,0 8,0 0,-8 0,-8 7.5,0 7.5,0 0,-8 0,-8 8,0 8,0 0,-8 0,-8 16,0 16,0 0,-7.5 0,-7.5 15.5,0 15.5,0 0,-8 0,-8 47.5,0 47.5,0 0,8 0,8 -23.5,0 -23.5,0 0,7.5 0,7.5 -16,0 -16,0 0,8 0,8 -15.5,0 -15.5,0 0,8 0,8 -8,0 -8,0 0,8 0,8 -8,0 -8,0 0,8 0,8 -8,0 -8,0 0,7.5 0,7.5 -8,0 -8,0 0,16 0,16 -7.5,0 -7.5,0 0,23.5 0,23.5 -8,0 -8,0 0,16 0,16 8,0 8,0 0,8 0,8 7.5,0 7.5,0 0,8 0,8 8,0 8,0 0,7.5 0,7.5 8,0 8,0 0,24 0,24 -8,0 -8,0 0,8 0,8 -8,0 -8,0 0,7.5 0,7.5 8,0 8,0 0,24 0,24 -8,0 -8,0 0,8 0,8 -7.5,0 -7.5,0 0,7.5 0,7.5 -16,0 -16,0 0,8 0,8 -16,0 -16,0 0,8 0,8 -47,0 -47,0 0,-8 0,-8 -8,0 -8,0 0,8 0,8 -39.5,0 z m 0,-16 39.5,0 0,-8 0,-8 8,0 8,0 0,8 0,8 47,0 47,0 0,-8 0,-8 16,0 16,0 0,-7.5 0,-7.5 16,0 16,0 0,-8 0,-8 7.5,0 7.5,0 0,-24 0,-24 -7.5,0 -7.5,0 0,-7.5 0,-7.5 7.5,0 7.5,0 0,-8 0,-8 8,0 8,0 0,-24 0,-24 -8,0 -8,0 0,-7.5 0,-7.5 -7.5,0 -7.5,0 0,-8 0,-8 -8,0 -8,0 0,8 0,8 -8,0 -8,0 0,7.5 0,7.5 -8,0 -8,0 0,-7.5 0,-7.5 -23.5,0 -23.5,0 0,23.5 0,23.5 -8,0 -8,0 0,-8 0,-8 -39.5,0 -39.5,0 0,8 0,8 -8,0 -8,0 0,-23.5 0,-23.5 -23.5,0 -23.5,0 0,-8 0,-8 16,0 16,0 0,-8 0,-8 7.5,0 7.5,0 0,8 0,8 55.5,0 55.5,0 0,-8 0,-8 8,0 8,0 0,-8 0,-8 7.5,0 7.5,0 0,-23.5 0,-23.5 8,0 8,0 0,-16 0,-16 -8,0 -8,0 0,-23.5 0,-23.5 -7.5,0 -7.5,0 0,-8 0,-8 -16,0 -16,0 0,-8 0,-8 -8,0 -8,0 0,-8 0,-8 -31.5,0 -31.5,0 0,8 0,8 16,0 16,0 0,8 0,8 -24,0 -24,0 0,8 0,8 -7.5,0 -7.5,0 0,23.5 0,23.5 7.5,0 7.5,0 0,8 0,8 -7.5,0 -7.5,0 0,8 0,8 -8,0 -8,0 0,23.5 0,23.5 8,0 8,0 0,8 0,8 -24,0 -24,0 0,8 0,8 -8,0 -8,0 0,31.5 0,31.5 8,0 8,0 0,8 0,8 8,0 8,0 0,8 0,8 -8,0 -8,0 0,7.5 0,7.5 -8,0 -8,0 0,24 0,24 8,0 8,0 0,15.5 0,15.5 8,0 8,0 0,8 0,8 39.5,0 z m 79,-47 -23.5,0 0,-8 0,-8 -8,0 -8,0 0,-8 0,-8 8,0 8,0 0,8 0,8 23.5,0 23.5,0 0,-8 0,-8 8,0 8,0 0,8 0,8 -8,0 -8,0 0,8 0,8 -23.5,0 z m -16,-48 -7.5,0 0,-15.5 0,-15.5 7.5,0 7.5,0 0,15.5 0,15.5 -7.5,0 z m 31.5,0 -8,0 0,-15.5 0,-15.5 8,0 8,0 0,15.5 0,15.5 -8,0 z m -47,-126 -8,0 0,-8 0,-8 8,0 8,0 0,-8 0,-8 15.5,0 15.5,0 0,8 0,8 8,0 8,0 0,8 0,8 -8,0 -8,0 0,-8 0,-8 -15.5,0 -15.5,0 0,8 0,8 -8,0 z m 47,-47 -8,0 0,-8 0,-8 8,0 8,0 0,-8 0,-8 -23.5,0 -23.5,0 0,8 0,8 -24,0 -24,0 0,-8 0,-8 16,0 16,0 0,-16 0,-16 8,0 8,0 0,-7.5 0,-7.5 7.5,0 7.5,0 0,-8 0,-8 -7.5,0 -7.5,0 0,-8 0,-8 7.5,0 7.5,0 0,8 0,8 8,0 8,0 0,-8 0,-8 8,0 8,0 0,8 0,8 -8,0 -8,0 0,8 0,8 8,0 8,0 0,7.5 0,7.5 8,0 8,0 0,16 0,16 8,0 8,0 0,-8 0,-8 7.5,0 7.5,0 0,16 0,16 -23.5,0 -23.5,0 0,8 0,8 -8,0 z m -16,-64 8,0 0,-7.5 0,-7.5 -8,0 -8,0 0,7.5 0,7.5 8,0 z m 95,127 8,0 0,-24 0,-24 8,0 8,0 0,-23.5 0,-23.5 8,0 8,0 0,-16 0,-16 7.5,0 7.5,0 0,-7.5 0,-7.5 8,0 8,0 0,-8 0,-8 8,0 8,0 0,-8 0,-8 8,0 8,0 0,-8 0,-8 -16,0 -16,0 0,8 0,8 -8,0 -8,0 0,8 0,8 -7.5,0 -7.5,0 0,8 0,8 -8,0 -8,0 0,15.5 0,15.5 -8,0 -8,0 0,24 0,24 -8,0 -8,0 0,31.5 0,31.5 8,0 z"
           id="path3182"
           inkscape:connector-curvature="0" /><path
           style="fill:#ef3f00"
           d="m 373.33415,354.67834 -63,0 0,-189.5 0,-189.5 63,0 63,0 0,189.5 0,189.5 -63,0 z m -323.5,-189 -23.5,0 0,-8 0,-8 -8,0 -8,0 0,-8 0,-8 8,0 8,0 0,8 0,8 23.5,0 23.5,0 0,-8 0,-8 8,0 8,0 0,8 0,8 -8,0 -8,0 0,8 0,8 -23.5,0 z m -16,-48 -7.5,0 0,-15.5 0,-15.5 7.5,0 7.5,0 0,15.5 0,15.5 -7.5,0 z m 31.5,0 -8,0 0,-15.5 0,-15.5 8,0 8,0 0,15.5 0,15.5 -8,0 z m -79,-47 -8,0 0,-23.5 0,-23.5 -23.5,0 -23.5,0 0,-8 0,-8 16,0 16,0 0,-8 0,-8 -8,0 -8,0 0,-8 0,-8 -8,0 -8,0 0,-31.5 0,-31.5 8,0 8,0 0,-39.5 0,-39.5 8,0 8,0 0,-8 0,-8 7.5,0 7.5,0 0,-8 0,-8 8,0 8,0 0,-15.5 0,-15.5 -8,0 -8,0 0,-8 0,-8 8,0 8,0 0,8 0,8 8,0 8,0 0,-16 0,-16 8,0 8,0 0,16 0,16 7.5,0 7.5,0 0,-8 0,-8 8,0 8,0 0,8 0,8 -8,0 -8,0 0,8 0,8 8,0 8,0 0,7.5 0,7.5 16,0 16,0 0,8 0,8 8,0 8,0 0,8 0,8 7.5,0 7.5,0 0,8 0,8 8,0 8,0 0,23.5 0,23.5 8,0 8,0 0,-15.5 0,-15.5 8,0 8,0 0,-8 0,-8 8,0 8,0 0,-8 0,-8 7.5,0 7.5,0 0,-8 0,-8 8,0 8,0 0,-8 0,-8 16,0 16,0 0,-7.5 0,-7.5 15.5,0 15.5,0 0,-8 0,-8 47.5,0 47.5,0 0,8 0,8 -23.5,0 -23.5,0 0,7.5 0,7.5 -16,0 -16,0 0,8 0,8 -15.5,0 -15.5,0 0,8 0,8 -8,0 -8,0 0,8 0,8 -8,0 -8,0 0,8 0,8 -8,0 -8,0 0,7.5 0,7.5 -8,0 -8,0 0,16 0,16 -7.5,0 -7.5,0 0,23.5 0,23.5 -8,0 -8,0 0,32 0,32 -8,0 -8,0 0,7.5 0,7.5 -8,0 -8,0 0,-7.5 0,-7.5 -23.5,0 -23.5,0 0,23.5 0,23.5 -8,0 -8,0 0,-8 0,-8 -39.5,0 -39.5,0 0,8 0,8 -8,0 z m 47.5,-63 55.5,0 0,-8 0,-8 8,0 8,0 0,8 0,8 7.5,0 7.5,0 0,-8 0,-8 -7.5,0 -7.5,0 0,-8 0,-8 7.5,0 7.5,0 0,-23.5 0,-23.5 8,0 8,0 0,-16 0,-16 -8,0 -8,0 0,-23.5 0,-23.5 -7.5,0 -7.5,0 0,-8 0,-8 -16,0 -16,0 0,-8 0,-8 -8,0 -8,0 0,-8 0,-8 -31.5,0 -31.5,0 0,8 0,8 16,0 16,0 0,8 0,8 -24,0 -24,0 0,8 0,8 -7.5,0 -7.5,0 0,23.5 0,23.5 7.5,0 7.5,0 0,8 0,8 -7.5,0 -7.5,0 0,8 0,8 -8,0 -8,0 0,23.5 0,23.5 8,0 8,0 0,8 0,8 7.5,0 7.5,0 0,8 0,8 55.5,0 z m -15.5,-16 -8,0 0,-8 0,-8 8,0 8,0 0,-8 0,-8 15.5,0 15.5,0 0,8 0,8 8,0 8,0 0,8 0,8 -8,0 -8,0 0,-8 0,-8 -15.5,0 -15.5,0 0,8 0,8 -8,0 z m 47,-47 -8,0 0,-8 0,-8 8,0 8,0 0,-8 0,-8 -23.5,0 -23.5,0 0,8 0,8 -24,0 -24,0 0,-8 0,-8 16,0 16,0 0,-16 0,-16 8,0 8,0 0,-7.5 0,-7.5 7.5,0 7.5,0 0,-8 0,-8 -7.5,0 -7.5,0 0,-8 0,-8 7.5,0 7.5,0 0,8 0,8 8,0 8,0 0,-8 0,-8 8,0 8,0 0,8 0,8 -8,0 -8,0 0,8 0,8 8,0 8,0 0,7.5 0,7.5 8,0 8,0 0,16 0,16 8,0 8,0 0,-8 0,-8 7.5,0 7.5,0 0,16 0,16 -23.5,0 -23.5,0 0,8 0,8 -8,0 z m -16,-64 8,0 0,-7.5 0,-7.5 -8,0 -8,0 0,7.5 0,7.5 8,0 z m 95,127 8,0 0,-24 0,-24 8,0 8,0 0,-23.5 0,-23.5 8,0 8,0 0,-16 0,-16 7.5,0 7.5,0 0,-7.5 0,-7.5 8,0 8,0 0,-8 0,-8 8,0 8,0 0,-8 0,-8 8,0 8,0 0,-8 0,-8 -16,0 -16,0 0,8 0,8 -8,0 -8,0 0,8 0,8 -7.5,0 -7.5,0 0,8 0,8 -8,0 -8,0 0,15.5 0,15.5 -8,0 -8,0 0,24 0,24 -8,0 -8,0 0,31.5 0,31.5 8,0 z"
           id="path3180"
           inkscape:connector-curvature="0" /><path
           style="fill:#00f700"
           d="m 373.33415,354.67834 -63,0 0,-189.5 0,-189.5 63,0 63,0 0,189.5 0,189.5 -63,0 z m -24,-189 8,0 0,-8 0,-8 8,0 8,0 0,-8 0,-8 -8,0 -8,0 0,8 0,8 -8,0 -8,0 0,8 0,8 8,0 z m 0,-127 8,0 0,-7.5 0,-7.5 8,0 8,0 0,-8 0,-8 -8,0 -8,0 0,8 0,8 -8,0 -8,0 0,7.5 0,7.5 8,0 z m -299.5,127 -23.5,0 0,-8 0,-8 -8,0 -8,0 0,-8 0,-8 8,0 8,0 0,8 0,8 23.5,0 23.5,0 0,-8 0,-8 8,0 8,0 0,8 0,8 -8,0 -8,0 0,8 0,8 -23.5,0 z m -16,-48 -7.5,0 0,-15.5 0,-15.5 7.5,0 7.5,0 0,15.5 0,15.5 -7.5,0 z m 31.5,0 -8,0 0,-15.5 0,-15.5 8,0 8,0 0,15.5 0,15.5 -8,0 z m -79,-47 -8,0 0,-23.5 0,-23.5 -23.5,0 -23.5,0 0,-8 0,-8 16,0 16,0 0,-8 0,-8 -8,0 -8,0 0,-8 0,-8 -8,0 -8,0 0,-31.5 0,-31.5 8,0 8,0 0,-39.5 0,-39.5 8,0 8,0 0,-8 0,-8 7.5,0 7.5,0 0,-8 0,-8 8,0 8,0 0,-15.5 0,-15.5 -8,0 -8,0 0,-8 0,-8 8,0 8,0 0,8 0,8 8,0 8,0 0,-16 0,-16 8,0 8,0 0,16 0,16 7.5,0 7.5,0 0,-8 0,-8 8,0 8,0 0,8 0,8 -8,0 -8,0 0,8 0,8 8,0 8,0 0,7.5 0,7.5 16,0 16,0 0,8 0,8 8,0 8,0 0,8 0,8 7.5,0 7.5,0 0,8 0,8 8,0 8,0 0,23.5 0,23.5 8,0 8,0 0,-15.5 0,-15.5 8,0 8,0 0,-8 0,-8 8,0 8,0 0,-8 0,-8 7.5,0 7.5,0 0,-8 0,-8 8,0 8,0 0,-8 0,-8 16,0 16,0 0,-7.5 0,-7.5 15.5,0 15.5,0 0,-8 0,-8 47.5,0 47.5,0 0,8 0,8 -23.5,0 -23.5,0 0,7.5 0,7.5 -16,0 -16,0 0,8 0,8 -15.5,0 -15.5,0 0,8 0,8 -8,0 -8,0 0,8 0,8 -8,0 -8,0 0,8 0,8 -8,0 -8,0 0,7.5 0,7.5 -8,0 -8,0 0,16 0,16 -7.5,0 -7.5,0 0,23.5 0,23.5 -8,0 -8,0 0,32 0,32 -8,0 -8,0 0,7.5 0,7.5 -8,0 -8,0 0,-7.5 0,-7.5 -23.5,0 -23.5,0 0,23.5 0,23.5 -8,0 -8,0 0,-8 0,-8 -39.5,0 -39.5,0 0,8 0,8 -8,0 z m 47.5,-63 55.5,0 0,-8 0,-8 8,0 8,0 0,8 0,8 7.5,0 7.5,0 0,-8 0,-8 -7.5,0 -7.5,0 0,-8 0,-8 7.5,0 7.5,0 0,-23.5 0,-23.5 8,0 8,0 0,-16 0,-16 -8,0 -8,0 0,-23.5 0,-23.5 -7.5,0 -7.5,0 0,-8 0,-8 -16,0 -16,0 0,-8 0,-8 -8,0 -8,0 0,-8 0,-8 -31.5,0 -31.5,0 0,8 0,8 16,0 16,0 0,8 0,8 -24,0 -24,0 0,8 0,8 -7.5,0 -7.5,0 0,23.5 0,23.5 7.5,0 7.5,0 0,8 0,8 -7.5,0 -7.5,0 0,8 0,8 -8,0 -8,0 0,23.5 0,23.5 8,0 8,0 0,8 0,8 7.5,0 7.5,0 0,8 0,8 55.5,0 z m -15.5,-16 -8,0 0,-8 0,-8 8,0 8,0 0,-8 0,-8 15.5,0 15.5,0 0,8 0,8 8,0 8,0 0,8 0,8 -8,0 -8,0 0,-8 0,-8 -15.5,0 -15.5,0 0,8 0,8 -8,0 z m 47,-47 -8,0 0,-8 0,-8 8,0 8,0 0,-8 0,-8 -23.5,0 -23.5,0 0,8 0,8 -24,0 -24,0 0,-8 0,-8 16,0 16,0 0,-16 0,-16 8,0 8,0 0,-7.5 0,-7.5 7.5,0 7.5,0 0,-8 0,-8 -7.5,0 -7.5,0 0,-8 0,-8 7.5,0 7.5,0 0,8 0,8 8,0 8,0 0,-8 0,-8 8,0 8,0 0,8 0,8 -8,0 -8,0 0,8 0,8 8,0 8,0 0,7.5 0,7.5 8,0 8,0 0,16 0,16 8,0 8,0 0,-8 0,-8 7.5,0 7.5,0 0,16 0,16 -23.5,0 -23.5,0 0,8 0,8 -8,0 z m -16,-64 8,0 0,-7.5 0,-7.5 -8,0 -8,0 0,7.5 0,7.5 8,0 z m 95,127 8,0 0,-24 0,-24 8,0 8,0 0,-23.5 0,-23.5 8,0 8,0 0,-16 0,-16 7.5,0 7.5,0 0,-7.5 0,-7.5 8,0 8,0 0,-8 0,-8 8,0 8,0 0,-8 0,-8 8,0 8,0 0,-8 0,-8 -16,0 -16,0 0,8 0,8 -8,0 -8,0 0,8 0,8 -7.5,0 -7.5,0 0,8 0,8 -8,0 -8,0 0,15.5 0,15.5 -8,0 -8,0 0,24 0,24 -8,0 -8,0 0,31.5 0,31.5 8,0 z"
           id="path3178"
           inkscape:connector-curvature="0" /><path
           style="fill:#ef0000"
           d="m 373.33415,354.67834 -63,0 0,-189.5 0,-189.5 63,0 63,0 0,189.5 0,189.5 -63,0 z m -24,-63 8,0 0,-8 0,-8 8,0 8,0 0,-7.5 0,-7.5 -8,0 -8,0 0,7.5 0,7.5 -8,0 -8,0 0,8 0,8 8,0 z m 0,-126 8,0 0,-8 0,-8 8,0 8,0 0,-8 0,-8 -8,0 -8,0 0,8 0,8 -8,0 -8,0 0,8 0,8 8,0 z m 0,-127 8,0 0,-7.5 0,-7.5 8,0 8,0 0,-8 0,-8 -8,0 -8,0 0,8 0,8 -8,0 -8,0 0,7.5 0,7.5 8,0 z m -299.5,127 -23.5,0 0,-8 0,-8 -8,0 -8,0 0,-8 0,-8 8,0 8,0 0,8 0,8 23.5,0 23.5,0 0,-8 0,-8 8,0 8,0 0,8 0,8 -8,0 -8,0 0,8 0,8 -23.5,0 z m -16,-48 -7.5,0 0,-15.5 0,-15.5 7.5,0 7.5,0 0,15.5 0,15.5 -7.5,0 z m 31.5,0 -8,0 0,-15.5 0,-15.5 8,0 8,0 0,15.5 0,15.5 -8,0 z m -79,-47 -8,0 0,-23.5 0,-23.5 -23.5,0 -23.5,0 0,-8 0,-8 16,0 16,0 0,-8 0,-8 -8,0 -8,0 0,-8 0,-8 -8,0 -8,0 0,-31.5 0,-31.5 8,0 8,0 0,-39.5 0,-39.5 8,0 8,0 0,-8 0,-8 7.5,0 7.5,0 0,-8 0,-8 8,0 8,0 0,-15.5 0,-15.5 -8,0 -8,0 0,-8 0,-8 8,0 8,0 0,8 0,8 8,0 8,0 0,-16 0,-16 8,0 8,0 0,16 0,16 7.5,0 7.5,0 0,-8 0,-8 8,0 8,0 0,8 0,8 -8,0 -8,0 0,8 0,8 8,0 8,0 0,7.5 0,7.5 16,0 16,0 0,8 0,8 8,0 8,0 0,8 0,8 7.5,0 7.5,0 0,8 0,8 8,0 8,0 0,23.5 0,23.5 8,0 8,0 0,-15.5 0,-15.5 8,0 8,0 0,-8 0,-8 8,0 8,0 0,-8 0,-8 7.5,0 7.5,0 0,-8 0,-8 8,0 8,0 0,-8 0,-8 16,0 16,0 0,-7.5 0,-7.5 15.5,0 15.5,0 0,-8 0,-8 47.5,0 47.5,0 0,8 0,8 -23.5,0 -23.5,0 0,7.5 0,7.5 -16,0 -16,0 0,8 0,8 -15.5,0 -15.5,0 0,8 0,8 -8,0 -8,0 0,8 0,8 -8,0 -8,0 0,8 0,8 -8,0 -8,0 0,7.5 0,7.5 -8,0 -8,0 0,16 0,16 -7.5,0 -7.5,0 0,23.5 0,23.5 -8,0 -8,0 0,32 0,32 -8,0 -8,0 0,7.5 0,7.5 -8,0 -8,0 0,-7.5 0,-7.5 -23.5,0 -23.5,0 0,23.5 0,23.5 -8,0 -8,0 0,-8 0,-8 -16,0 -16,0 0,-8 0,-8 -7.5,0 -7.5,0 0,8 0,8 -16,0 -16,0 0,8 0,8 -8,0 z m 47.5,-63 55.5,0 0,-8 0,-8 8,0 8,0 0,8 0,8 7.5,0 7.5,0 0,-8 0,-8 -7.5,0 -7.5,0 0,-8 0,-8 7.5,0 7.5,0 0,-23.5 0,-23.5 8,0 8,0 0,-16 0,-16 -8,0 -8,0 0,-23.5 0,-23.5 -7.5,0 -7.5,0 0,-8 0,-8 -16,0 -16,0 0,-8 0,-8 -8,0 -8,0 0,-8 0,-8 -31.5,0 -31.5,0 0,8 0,8 16,0 16,0 0,8 0,8 -24,0 -24,0 0,8 0,8 -7.5,0 -7.5,0 0,23.5 0,23.5 7.5,0 7.5,0 0,8 0,8 -7.5,0 -7.5,0 0,8 0,8 -8,0 -8,0 0,23.5 0,23.5 8,0 8,0 0,8 0,8 7.5,0 7.5,0 0,8 0,8 55.5,0 z m -15.5,-16 -8,0 0,-8 0,-8 8,0 8,0 0,-8 0,-8 15.5,0 15.5,0 0,8 0,8 8,0 8,0 0,8 0,8 -8,0 -8,0 0,-8 0,-8 -15.5,0 -15.5,0 0,8 0,8 -8,0 z m 47,-47 -8,0 0,-8 0,-8 8,0 8,0 0,-8 0,-8 -8,0 -8,0 0,-16 0,-16 8,0 8,0 0,16 0,16 16,0 16,0 0,-8 0,-8 7.5,0 7.5,0 0,16 0,16 -23.5,0 -23.5,0 0,8 0,8 -8,0 z m -63,-16 -24,0 0,-8 0,-8 24,0 24,0 0,-16 0,-16 7.5,0 7.5,0 0,16 0,16 -7.5,0 -7.5,0 0,8 0,8 -24,0 z m 47,-63 -8,0 0,-8 0,-8 -7.5,0 -7.5,0 0,-8 0,-8 7.5,0 7.5,0 0,8 0,8 8,0 8,0 0,-8 0,-8 8,0 8,0 0,8 0,8 -8,0 -8,0 0,8 0,8 -8,0 z m 95,142 8,0 0,-24 0,-24 8,0 8,0 0,-23.5 0,-23.5 8,0 8,0 0,-16 0,-16 7.5,0 7.5,0 0,-7.5 0,-7.5 8,0 8,0 0,-8 0,-8 8,0 8,0 0,-8 0,-8 8,0 8,0 0,-8 0,-8 -16,0 -16,0 0,8 0,8 -8,0 -8,0 0,8 0,8 -7.5,0 -7.5,0 0,8 0,8 -8,0 -8,0 0,15.5 0,15.5 -8,0 -8,0 0,24 0,24 -8,0 -8,0 0,31.5 0,31.5 8,0 z"
           id="path3176"
           inkscape:connector-curvature="0" /><path
           style="fill:#b22700"
           d="m 373.33415,354.67834 -63,0 0,-189.5 0,-189.5 63,0 63,0 0,189.5 0,189.5 -63,0 z m -24,-63 8,0 0,-8 0,-8 8,0 8,0 0,-7.5 0,-7.5 -8,0 -8,0 0,7.5 0,7.5 -8,0 -8,0 0,8 0,8 8,0 z m 0,-126 8,0 0,-8 0,-8 8,0 8,0 0,-8 0,-8 -8,0 -8,0 0,8 0,8 -8,0 -8,0 0,8 0,8 8,0 z m 0,-127 8,0 0,-7.5 0,-7.5 8,0 8,0 0,-8 0,-8 -8,0 -8,0 0,8 0,8 -8,0 -8,0 0,7.5 0,7.5 8,0 z m -315.5,79 -7.5,0 0,-15.5 0,-15.5 7.5,0 7.5,0 0,15.5 0,15.5 -7.5,0 z m 31.5,0 -8,0 0,-15.5 0,-15.5 8,0 8,0 0,15.5 0,15.5 -8,0 z m -79,-47 -8,0 0,-23.5 0,-23.5 -23.5,0 -23.5,0 0,-8 0,-8 16,0 16,0 0,-8 0,-8 -8,0 -8,0 0,-8 0,-8 -8,0 -8,0 0,-31.5 0,-31.5 8,0 8,0 0,-39.5 0,-39.5 8,0 8,0 0,-8 0,-8 7.5,0 7.5,0 0,-8 0,-8 8,0 8,0 0,-15.5 0,-15.5 -8,0 -8,0 0,-8 0,-8 8,0 8,0 0,8 0,8 8,0 8,0 0,-16 0,-16 8,0 8,0 0,16 0,16 7.5,0 7.5,0 0,-8 0,-8 8,0 8,0 0,8 0,8 -8,0 -8,0 0,8 0,8 8,0 8,0 0,7.5 0,7.5 16,0 16,0 0,8 0,8 8,0 8,0 0,8 0,8 7.5,0 7.5,0 0,8 0,8 8,0 8,0 0,23.5 0,23.5 8,0 8,0 0,-15.5 0,-15.5 8,0 8,0 0,-8 0,-8 8,0 8,0 0,-8 0,-8 7.5,0 7.5,0 0,-8 0,-8 8,0 8,0 0,-8 0,-8 16,0 16,0 0,-7.5 0,-7.5 15.5,0 15.5,0 0,-8 0,-8 47.5,0 47.5,0 0,8 0,8 -23.5,0 -23.5,0 0,7.5 0,7.5 -16,0 -16,0 0,8 0,8 -15.5,0 -15.5,0 0,8 0,8 -8,0 -8,0 0,8 0,8 -8,0 -8,0 0,8 0,8 -8,0 -8,0 0,7.5 0,7.5 -8,0 -8,0 0,16 0,16 -7.5,0 -7.5,0 0,23.5 0,23.5 -8,0 -8,0 0,32 0,32 -8,0 -8,0 0,7.5 0,7.5 -8,0 -8,0 0,-7.5 0,-7.5 -23.5,0 -23.5,0 0,23.5 0,23.5 -8,0 -8,0 0,-8 0,-8 -16,0 -16,0 0,-8 0,-8 -7.5,0 -7.5,0 0,8 0,8 -16,0 -16,0 0,8 0,8 -8,0 z m 47.5,-63 55.5,0 0,-8 0,-8 8,0 8,0 0,8 0,8 7.5,0 7.5,0 0,-8 0,-8 -7.5,0 -7.5,0 0,-8 0,-8 7.5,0 7.5,0 0,-23.5 0,-23.5 8,0 8,0 0,-16 0,-16 -8,0 -8,0 0,-23.5 0,-23.5 -7.5,0 -7.5,0 0,-8 0,-8 -16,0 -16,0 0,-8 0,-8 -8,0 -8,0 0,-8 0,-8 -31.5,0 -31.5,0 0,8 0,8 16,0 16,0 0,8 0,8 -24,0 -24,0 0,8 0,8 -7.5,0 -7.5,0 0,23.5 0,23.5 7.5,0 7.5,0 0,8 0,8 -7.5,0 -7.5,0 0,8 0,8 -8,0 -8,0 0,23.5 0,23.5 8,0 8,0 0,8 0,8 7.5,0 7.5,0 0,8 0,8 55.5,0 z m -15.5,-16 -8,0 0,-8 0,-8 8,0 8,0 0,-8 0,-8 15.5,0 15.5,0 0,8 0,8 8,0 8,0 0,8 0,8 -8,0 -8,0 0,-8 0,-8 -15.5,0 -15.5,0 0,8 0,8 -8,0 z m 47,-47 -8,0 0,-8 0,-8 8,0 8,0 0,-8 0,-8 -8,0 -8,0 0,-16 0,-16 8,0 8,0 0,16 0,16 16,0 16,0 0,-8 0,-8 7.5,0 7.5,0 0,16 0,16 -23.5,0 -23.5,0 0,8 0,8 -8,0 z m -63,-16 -24,0 0,-8 0,-8 24,0 24,0 0,-16 0,-16 7.5,0 7.5,0 0,16 0,16 -7.5,0 -7.5,0 0,8 0,8 -24,0 z m 47,-63 -8,0 0,-8 0,-8 -7.5,0 -7.5,0 0,-8 0,-8 7.5,0 7.5,0 0,8 0,8 8,0 8,0 0,-8 0,-8 8,0 8,0 0,8 0,8 -8,0 -8,0 0,8 0,8 -8,0 z m 95,142 8,0 0,-24 0,-24 8,0 8,0 0,-23.5 0,-23.5 8,0 8,0 0,-16 0,-16 7.5,0 7.5,0 0,-7.5 0,-7.5 8,0 8,0 0,-8 0,-8 8,0 8,0 0,-8 0,-8 8,0 8,0 0,-8 0,-8 -16,0 -16,0 0,8 0,8 -8,0 -8,0 0,8 0,8 -7.5,0 -7.5,0 0,8 0,8 -8,0 -8,0 0,15.5 0,15.5 -8,0 -8,0 0,24 0,24 -8,0 -8,0 0,31.5 0,31.5 8,0 z"
           id="path3174"
           inkscape:connector-curvature="0" /><path
           style="fill:#00b200"
           d="m 373.33415,354.67834 -63,0 0,-189.5 0,-189.5 63,0 63,0 0,189.5 0,189.5 -63,0 z m -24,-63 8,0 0,-8 0,-8 8,0 8,0 0,-7.5 0,-7.5 -8,0 -8,0 0,7.5 0,7.5 -8,0 -8,0 0,8 0,8 8,0 z m 0,-126 8,0 0,-8 0,-8 8,0 8,0 0,-8 0,-8 -8,0 -8,0 0,8 0,8 -8,0 -8,0 0,8 0,8 8,0 z m 0,-127 8,0 0,-7.5 0,-7.5 8,0 8,0 0,-8 0,-8 -8,0 -8,0 0,8 0,8 -8,0 -8,0 0,7.5 0,7.5 8,0 z m -315.5,79 -7.5,0 0,-15.5 0,-15.5 7.5,0 7.5,0 0,15.5 0,15.5 -7.5,0 z m 31.5,0 -8,0 0,-15.5 0,-15.5 8,0 8,0 0,15.5 0,15.5 -8,0 z m -79,-47 -8,0 0,-8 0,-8 8,0 8,0 0,-15.5 0,-15.5 -8,0 -8,0 0,-8 0,-8 8,0 8,0 0,8 0,8 39.5,0 39.5,0 0,-8 0,-8 8,0 8,0 0,8 0,8 -8,0 -8,0 0,15.5 0,15.5 8,0 8,0 0,8 0,8 -8,0 -8,0 0,-8 0,-8 -16,0 -16,0 0,-8 0,-8 -7.5,0 -7.5,0 0,8 0,8 -16,0 -16,0 0,8 0,8 -8,0 z m 166,-47 -16,0 0,-8 0,-8 -8,0 -8,0 0,-16 0,-16 8,0 8,0 0,16 0,16 8,0 8,0 0,-24 0,-24 8,0 8,0 0,-23.5 0,-23.5 8,0 8,0 0,-16 0,-16 7.5,0 7.5,0 0,-7.5 0,-7.5 8,0 8,0 0,-8 0,-8 8,0 8,0 0,-8 0,-8 8,0 8,0 0,-8 0,-8 -16,0 -16,0 0,8 0,8 -8,0 -8,0 0,8 0,8 -7.5,0 -7.5,0 0,8 0,8 -8,0 -8,0 0,15.5 0,15.5 -8,0 -8,0 0,24 0,24 -8,0 -8,0 0,-24 0,-24 -8,0 -8,0 0,8 0,8 -7.5,0 -7.5,0 0,8 0,8 -16,0 -16,0 0,-8 0,-8 -8,0 -8,0 0,-16 0,-16 8,0 8,0 0,16 0,16 16,0 16,0 0,-8 0,-8 7.5,0 7.5,0 0,-23.5 0,-23.5 -7.5,0 -7.5,0 0,-8 0,-8 -16,0 -16,0 0,8 0,8 -8,0 -8,0 0,8 0,8 -8,0 -8,0 0,-8 0,-8 -7.5,0 -7.5,0 0,-8 0,-8 -24,0 -24,0 0,8 0,8 -7.5,0 -7.5,0 0,23.5 0,23.5 7.5,0 7.5,0 0,8 0,8 24,0 24,0 0,-16 0,-16 7.5,0 7.5,0 0,16 0,16 -7.5,0 -7.5,0 0,8 0,8 -24,0 -24,0 0,-8 0,-8 -7.5,0 -7.5,0 0,-8 0,-8 -8,0 -8,0 0,-23.5 0,-23.5 8,0 8,0 0,-8 0,-8 7.5,0 7.5,0 0,-8 0,-8 24,0 24,0 0,8 0,8 7.5,0 7.5,0 0,8 0,8 8,0 8,0 0,-8 0,-8 8,0 8,0 0,-8 0,-8 16,0 16,0 0,8 0,8 7.5,0 7.5,0 0,8 0,8 8,0 8,0 0,23.5 0,23.5 8,0 8,0 0,-15.5 0,-15.5 8,0 8,0 0,-8 0,-8 8,0 8,0 0,-8 0,-8 7.5,0 7.5,0 0,-8 0,-8 8,0 8,0 0,-8 0,-8 16,0 16,0 0,-7.5 0,-7.5 15.5,0 15.5,0 0,-8 0,-8 47.5,0 47.5,0 0,8 0,8 -23.5,0 -23.5,0 0,7.5 0,7.5 -16,0 -16,0 0,8 0,8 -15.5,0 -15.5,0 0,8 0,8 -8,0 -8,0 0,8 0,8 -8,0 -8,0 0,8 0,8 -8,0 -8,0 0,7.5 0,7.5 -8,0 -8,0 0,16 0,16 -7.5,0 -7.5,0 0,23.5 0,23.5 -8,0 -8,0 0,32 0,32 -16,0 z m 103,-206 8,0 0,-8 0,-8 -8,0 -8,0 0,8 0,8 8,0 z m 31,-16 8,0 0,-7.5 0,-7.5 -8,0 -8,0 0,7.5 0,7.5 8,0 z m -268.5,-15 -23.5,0 0,-8 0,-8 -8,0 -8,0 0,-8 0,-8 8,0 8,0 0,8 0,8 8,0 8,0 0,-16 0,-16 8,0 8,0 0,16 0,16 7.5,0 7.5,0 0,-8 0,-8 8,0 8,0 0,8 0,8 -8,0 -8,0 0,8 0,8 -23.5,0 z"
           id="path3172"
           inkscape:connector-curvature="0" /><path
           style="fill:#008500"
           d="m 373.33415,354.67834 -63,0 0,-189.5 0,-189.5 63,0 63,0 0,189.5 0,189.5 -63,0 z m -24,-63 8,0 0,-8 0,-8 8,0 8,0 0,-7.5 0,-7.5 -8,0 -8,0 0,7.5 0,7.5 -8,0 -8,0 0,8 0,8 8,0 z m 0,-126 8,0 0,-8 0,-8 8,0 8,0 0,-8 0,-8 -8,0 -8,0 0,8 0,8 -8,0 -8,0 0,8 0,8 8,0 z m 0,-127 8,0 0,-7.5 0,-7.5 8,0 8,0 0,-8 0,-8 -8,0 -8,0 0,8 0,8 -8,0 -8,0 0,7.5 0,7.5 8,0 z m -315.5,79 -7.5,0 0,-15.5 0,-15.5 7.5,0 7.5,0 0,15.5 0,15.5 -7.5,0 z m 31.5,0 -8,0 0,-15.5 0,-15.5 8,0 8,0 0,15.5 0,15.5 -8,0 z m -31.5,-79 -39.5,0 0,-7.5 0,-7.5 -8,0 -8,0 0,-8 0,-8 8,0 8,0 0,8 0,8 39.5,0 39.5,0 0,-8 0,-8 8,0 8,0 0,8 0,8 -8,0 -8,0 0,7.5 0,7.5 -39.5,0 z m 118.5,-15 -16,0 0,-8 0,-8 -8,0 -8,0 0,-16 0,-16 8,0 8,0 0,16 0,16 8,0 8,0 0,-24 0,-24 8,0 8,0 0,-23.5 0,-23.5 8,0 8,0 0,-16 0,-16 7.5,0 7.5,0 0,-7.5 0,-7.5 8,0 8,0 0,-8 0,-8 8,0 8,0 0,-8 0,-8 8,0 8,0 0,-8 0,-8 -16,0 -16,0 0,8 0,8 -8,0 -8,0 0,8 0,8 -7.5,0 -7.5,0 0,8 0,8 -8,0 -8,0 0,15.5 0,15.5 -8,0 -8,0 0,24 0,24 -8,0 -8,0 0,-24 0,-24 -8,0 -8,0 0,8 0,8 -7.5,0 -7.5,0 0,8 0,8 -16,0 -16,0 0,-8 0,-8 -8,0 -8,0 0,-16 0,-16 8,0 8,0 0,16 0,16 16,0 16,0 0,-8 0,-8 7.5,0 7.5,0 0,-23.5 0,-23.5 -7.5,0 -7.5,0 0,-8 0,-8 -16,0 -16,0 0,8 0,8 -8,0 -8,0 0,8 0,8 -8,0 -8,0 0,-8 0,-8 -7.5,0 -7.5,0 0,-8 0,-8 -24,0 -24,0 0,8 0,8 -7.5,0 -7.5,0 0,23.5 0,23.5 7.5,0 7.5,0 0,8 0,8 24,0 24,0 0,-16 0,-16 7.5,0 7.5,0 0,16 0,16 -7.5,0 -7.5,0 0,8 0,8 -24,0 -24,0 0,-8 0,-8 -7.5,0 -7.5,0 0,-8 0,-8 -8,0 -8,0 0,-23.5 0,-23.5 8,0 8,0 0,-8 0,-8 7.5,0 7.5,0 0,-8 0,-8 24,0 24,0 0,8 0,8 7.5,0 7.5,0 0,8 0,8 8,0 8,0 0,-8 0,-8 8,0 8,0 0,-8 0,-8 16,0 16,0 0,8 0,8 7.5,0 7.5,0 0,8 0,8 8,0 8,0 0,23.5 0,23.5 8,0 8,0 0,-15.5 0,-15.5 8,0 8,0 0,-8 0,-8 8,0 8,0 0,-8 0,-8 7.5,0 7.5,0 0,-8 0,-8 8,0 8,0 0,-8 0,-8 16,0 16,0 0,-7.5 0,-7.5 15.5,0 15.5,0 0,-8 0,-8 47.5,0 47.5,0 0,8 0,8 -23.5,0 -23.5,0 0,7.5 0,7.5 -16,0 -16,0 0,8 0,8 -15.5,0 -15.5,0 0,8 0,8 -8,0 -8,0 0,8 0,8 -8,0 -8,0 0,8 0,8 -8,0 -8,0 0,7.5 0,7.5 -8,0 -8,0 0,16 0,16 -7.5,0 -7.5,0 0,23.5 0,23.5 -8,0 -8,0 0,32 0,32 -16,0 z m 103,-206 8,0 0,-8 0,-8 -8,0 -8,0 0,8 0,8 8,0 z m 31,-16 8,0 0,-7.5 0,-7.5 -8,0 -8,0 0,7.5 0,7.5 8,0 z m -268.5,-15 -23.5,0 0,-8 0,-8 -8,0 -8,0 0,-8 0,-8 8,0 8,0 0,8 0,8 8,0 8,0 0,-16 0,-16 8,0 8,0 0,16 0,16 7.5,0 7.5,0 0,-8 0,-8 8,0 8,0 0,8 0,8 -8,0 -8,0 0,8 0,8 -23.5,0 z"
           id="path3170"
           inkscape:connector-curvature="0" /><path
           style="fill:#700000"
           d="m 373.33415,354.67834 -63,0 0,-189.5 0,-189.5 63,0 63,0 0,189.5 0,189.5 -63,0 z m 0,-15 32,0 0,-8 0,-8 7.5,0 7.5,0 0,-31.5 0,-31.5 -7.5,0 -7.5,0 0,-8 0,-8 -32,0 -32,0 0,8 0,8 -7.5,0 -7.5,0 0,31.5 0,31.5 7.5,0 7.5,0 0,8 0,8 32,0 z m -24,-174 8,0 0,-8 0,-8 8,0 8,0 0,-8 0,-8 -8,0 -8,0 0,8 0,8 -8,0 -8,0 0,8 0,8 8,0 z m 0,-127 8,0 0,-7.5 0,-7.5 8,0 8,0 0,-8 0,-8 -8,0 -8,0 0,8 0,8 -8,0 -8,0 0,7.5 0,7.5 8,0 z m -315.5,79 -7.5,0 0,-15.5 0,-15.5 7.5,0 7.5,0 0,15.5 0,15.5 -7.5,0 z m 31.5,0 -8,0 0,-15.5 0,-15.5 8,0 8,0 0,15.5 0,15.5 -8,0 z m -31.5,-79 -39.5,0 0,-7.5 0,-7.5 -8,0 -8,0 0,-8 0,-8 8,0 8,0 0,8 0,8 39.5,0 39.5,0 0,-8 0,-8 8,0 8,0 0,8 0,8 -8,0 -8,0 0,7.5 0,7.5 -39.5,0 z m 118.5,-15 -16,0 0,-8 0,-8 -8,0 -8,0 0,-16 0,-16 8,0 8,0 0,16 0,16 8,0 8,0 0,-24 0,-24 8,0 8,0 0,-23.5 0,-23.5 8,0 8,0 0,-16 0,-16 7.5,0 7.5,0 0,-7.5 0,-7.5 8,0 8,0 0,-8 0,-8 8,0 8,0 0,-8 0,-8 8,0 8,0 0,-8 0,-8 -16,0 -16,0 0,8 0,8 -8,0 -8,0 0,8 0,8 -7.5,0 -7.5,0 0,8 0,8 -8,0 -8,0 0,15.5 0,15.5 -8,0 -8,0 0,24 0,24 -8,0 -8,0 0,-24 0,-24 -8,0 -8,0 0,8 0,8 -7.5,0 -7.5,0 0,8 0,8 -16,0 -16,0 0,-8 0,-8 -8,0 -8,0 0,-16 0,-16 8,0 8,0 0,16 0,16 16,0 16,0 0,-8 0,-8 7.5,0 7.5,0 0,-23.5 0,-23.5 -7.5,0 -7.5,0 0,-8 0,-8 -16,0 -16,0 0,8 0,8 -8,0 -8,0 0,8 0,8 -8,0 -8,0 0,-8 0,-8 -7.5,0 -7.5,0 0,-8 0,-8 -24,0 -24,0 0,8 0,8 -7.5,0 -7.5,0 0,23.5 0,23.5 7.5,0 7.5,0 0,8 0,8 24,0 24,0 0,-16 0,-16 7.5,0 7.5,0 0,16 0,16 -7.5,0 -7.5,0 0,8 0,8 -24,0 -24,0 0,-8 0,-8 -7.5,0 -7.5,0 0,-8 0,-8 -8,0 -8,0 0,-23.5 0,-23.5 8,0 8,0 0,-8 0,-8 7.5,0 7.5,0 0,-8 0,-8 24,0 24,0 0,8 0,8 7.5,0 7.5,0 0,8 0,8 8,0 8,0 0,-8 0,-8 8,0 8,0 0,-8 0,-8 16,0 16,0 0,8 0,8 7.5,0 7.5,0 0,8 0,8 8,0 8,0 0,23.5 0,23.5 8,0 8,0 0,-15.5 0,-15.5 8,0 8,0 0,-8 0,-8 8,0 8,0 0,-8 0,-8 7.5,0 7.5,0 0,-8 0,-8 8,0 8,0 0,-8 0,-8 16,0 16,0 0,-7.5 0,-7.5 15.5,0 15.5,0 0,-8 0,-8 47.5,0 47.5,0 0,8 0,8 -23.5,0 -23.5,0 0,7.5 0,7.5 -16,0 -16,0 0,8 0,8 -15.5,0 -15.5,0 0,8 0,8 -8,0 -8,0 0,8 0,8 -8,0 -8,0 0,8 0,8 -8,0 -8,0 0,7.5 0,7.5 -8,0 -8,0 0,16 0,16 -7.5,0 -7.5,0 0,23.5 0,23.5 -8,0 -8,0 0,32 0,32 -16,0 z m 103,-206 8,0 0,-8 0,-8 -8,0 -8,0 0,8 0,8 8,0 z m 31,-16 8,0 0,-7.5 0,-7.5 -8,0 -8,0 0,7.5 0,7.5 8,0 z m -268.5,-15 -23.5,0 0,-8 0,-8 -8,0 -8,0 0,-8 0,-8 8,0 8,0 0,8 0,8 8,0 8,0 0,-16 0,-16 8,0 8,0 0,16 0,16 7.5,0 7.5,0 0,-8 0,-8 8,0 8,0 0,8 0,8 -8,0 -8,0 0,8 0,8 -23.5,0 z"
           id="path3168"
           inkscape:connector-curvature="0" /><path
           style="fill:#000000"
           d="m 373.33415,354.67834 -63,0 0,-189.5 0,-189.5 63,0 63,0 0,189.5 0,189.5 -63,0 z m 0,-15 32,0 0,-8 0,-8 7.5,0 7.5,0 0,-31.5 0,-31.5 -7.5,0 -7.5,0 0,-8 0,-8 -32,0 -32,0 0,8 0,8 -7.5,0 -7.5,0 0,31.5 0,31.5 7.5,0 7.5,0 0,8 0,8 32,0 z m 0,-127 32,0 0,-8 0,-8 7.5,0 7.5,0 0,-31.5 0,-31.5 -7.5,0 -7.5,0 0,-8 0,-8 -32,0 -32,0 0,8 0,8 -7.5,0 -7.5,0 0,31.5 0,31.5 7.5,0 7.5,0 0,8 0,8 32,0 z m 0,-126 32,0 0,-8 0,-8 7.5,0 7.5,0 0,-31.5 0,-31.5 -7.5,0 -7.5,0 0,-8 0,-8 -32,0 -32,0 0,8 0,8 -7.5,0 -7.5,0 0,31.5 0,31.5 7.5,0 7.5,0 0,8 0,8 32,0 z m -339.5,31 -7.5,0 0,-15.5 0,-15.5 7.5,0 7.5,0 0,15.5 0,15.5 -7.5,0 z m 31.5,0 -8,0 0,-15.5 0,-15.5 8,0 8,0 0,15.5 0,15.5 -8,0 z m -31.5,-79 -39.5,0 0,-7.5 0,-7.5 -8,0 -8,0 0,-8 0,-8 8,0 8,0 0,8 0,8 39.5,0 39.5,0 0,-8 0,-8 8,0 8,0 0,8 0,8 -8,0 -8,0 0,7.5 0,7.5 -39.5,0 z m 118.5,-15 -16,0 0,-8 0,-8 -8,0 -8,0 0,-16 0,-16 8,0 8,0 0,16 0,16 8,0 8,0 0,-24 0,-24 8,0 8,0 0,-23.5 0,-23.5 8,0 8,0 0,-16 0,-16 7.5,0 7.5,0 0,-7.5 0,-7.5 8,0 8,0 0,-8 0,-8 8,0 8,0 0,-8 0,-8 8,0 8,0 0,-8 0,-8 -16,0 -16,0 0,8 0,8 -8,0 -8,0 0,8 0,8 -7.5,0 -7.5,0 0,8 0,8 -8,0 -8,0 0,15.5 0,15.5 -8,0 -8,0 0,24 0,24 -8,0 -8,0 0,-24 0,-24 -8,0 -8,0 0,8 0,8 -7.5,0 -7.5,0 0,8 0,8 -16,0 -16,0 0,-8 0,-8 -8,0 -8,0 0,-16 0,-16 8,0 8,0 0,16 0,16 16,0 16,0 0,-8 0,-8 7.5,0 7.5,0 0,-23.5 0,-23.5 -7.5,0 -7.5,0 0,-8 0,-8 -16,0 -16,0 0,8 0,8 -8,0 -8,0 0,8 0,8 -8,0 -8,0 0,-8 0,-8 -7.5,0 -7.5,0 0,-8 0,-8 -24,0 -24,0 0,8 0,8 -7.5,0 -7.5,0 0,23.5 0,23.5 7.5,0 7.5,0 0,8 0,8 24,0 24,0 0,-16 0,-16 7.5,0 7.5,0 0,16 0,16 -7.5,0 -7.5,0 0,8 0,8 -24,0 -24,0 0,-8 0,-8 -7.5,0 -7.5,0 0,-8 0,-8 -8,0 -8,0 0,-23.5 0,-23.5 8,0 8,0 0,-8 0,-8 7.5,0 7.5,0 0,-8 0,-8 24,0 24,0 0,8 0,8 7.5,0 7.5,0 0,8 0,8 8,0 8,0 0,-8 0,-8 8,0 8,0 0,-8 0,-8 16,0 16,0 0,8 0,8 7.5,0 7.5,0 0,8 0,8 8,0 8,0 0,23.5 0,23.5 8,0 8,0 0,-15.5 0,-15.5 8,0 8,0 0,-8 0,-8 8,0 8,0 0,-8 0,-8 7.5,0 7.5,0 0,-8 0,-8 8,0 8,0 0,-8 0,-8 16,0 16,0 0,-7.5 0,-7.5 15.5,0 15.5,0 0,-8 0,-8 47.5,0 47.5,0 0,8 0,8 -23.5,0 -23.5,0 0,7.5 0,7.5 -16,0 -16,0 0,8 0,8 -15.5,0 -15.5,0 0,8 0,8 -8,0 -8,0 0,8 0,8 -8,0 -8,0 0,8 0,8 -8,0 -8,0 0,7.5 0,7.5 -8,0 -8,0 0,16 0,16 -7.5,0 -7.5,0 0,23.5 0,23.5 -8,0 -8,0 0,32 0,32 -16,0 z m 103,-206 8,0 0,-8 0,-8 -8,0 -8,0 0,8 0,8 8,0 z m 31,-16 8,0 0,-7.5 0,-7.5 -8,0 -8,0 0,7.5 0,7.5 8,0 z m -268.5,-15 -23.5,0 0,-8 0,-8 -8,0 -8,0 0,-8 0,-8 8,0 8,0 0,8 0,8 8,0 8,0 0,-16 0,-16 8,0 8,0 0,16 0,16 7.5,0 7.5,0 0,-8 0,-8 8,0 8,0 0,8 0,8 -8,0 -8,0 0,8 0,8 -23.5,0 z"
           id="path3166"
           inkscape:connector-curvature="0" /></g><g
         style="font-size:96.37567139px;font-style:normal;font-weight:normal;line-height:125%;letter-spacing:0px;word-spacing:0px;fill:#000000;fill-opacity:1;stroke:none;font-family:Sans"
         id="text2997"><path
           d="m 143.34946,34.719698 -5.30066,30.165585 3.75865,5.397038 39.41765,0 -0.38551,2.313016 -12.81796,10.794075 -40.86328,0 -10.89046,-11.565081 7.80643,-44.043681 12.43247,-11.565081 43.27267,0 8.96294,11.275954 -0.28913,1.831137 -39.41765,0 -5.68616,5.397038"
           style="font-variant:normal;font-stretch:normal;text-align:start;line-height:125%;writing-mode:lr-tb;text-anchor:start;font-family:Borgsquad;-inkscape-font-specification:Borgsquad"
           id="path3002" /><path
           d="m 187.60848,71.824331 7.80643,-44.043681 12.43246,-11.565081 43.27268,0 8.96293,11.275954 -7.61367,43.561803 -13.1071,12.336086 -40.86328,0 -10.89045,-11.565081 m 27.08156,-37.104633 -5.30066,30.165585 3.75865,5.397038 10.79408,0 5.39703,-5.397038 5.30067,-30.069209 -3.37315,-5.493414 -10.89045,0 -5.68617,5.397038"
           style="font-variant:normal;font-stretch:normal;text-align:start;line-height:125%;writing-mode:lr-tb;text-anchor:start;font-family:Borgsquad;-inkscape-font-specification:Borgsquad"
           id="path3004" /><path
           d="m 297.59571,16.215569 -8.67381,48.958841 3.66227,5.107911 10.79408,0 5.39703,-5.397038 8.57744,-48.669714 24.19029,0 -9.63756,54.837757 -13.1071,12.336086 -40.86328,0 -10.79408,-12.528837 7.61368,-43.369052 -8.86656,-11.275954 31.7076,0"
           style="font-variant:normal;font-stretch:normal;text-align:start;line-height:125%;writing-mode:lr-tb;text-anchor:start;font-family:Borgsquad;-inkscape-font-specification:Borgsquad"
           id="path3006" /><path
           d="m 381.46363,83.389412 -10.11944,-29.780083 -0.77101,-0.771005 -5.39703,30.551088 -20.81715,0 9.83032,-55.994265 -8.86656,-11.179578 54.645,0 c 1.9917,6.7e-5 3.72646,0.385569 5.20429,1.156508 1.47769,0.70682 2.69844,1.702701 3.66227,2.987646 1.02794,1.22082 1.76681,2.634329 2.21665,4.240529 0.51392,1.606319 0.77092,3.308954 0.771,5.107911 -8e-5,0.771058 -0.0322,1.574188 -0.0964,2.409392 -0.0643,0.771056 -0.1607,1.509935 -0.28912,2.21664 -0.38558,2.313063 -1.09234,4.529701 -2.12027,6.649922 -1.02808,2.056054 -2.31309,3.919315 -3.85502,5.589788 -1.54209,1.606297 -3.37322,2.955555 -5.49342,4.047779 -2.05608,1.092289 -4.33696,1.766918 -6.84267,2.023889 l 12.52884,30.743839 -24.1903,0 m 2.60215,-53.970376 -9.25207,0 -2.89127,16.48024 c 1.99173,3.7e-5 4.04774,-0.128464 6.16805,-0.385503 2.12021,-0.256964 4.07985,-0.738841 5.87891,-1.445635 1.79896,-0.770965 3.34097,-1.831097 4.62603,-3.180397 1.34921,-1.413466 2.21659,-3.244602 2.60215,-5.493413 l 0.0964,-0.867381 c 0.12845,-0.578205 0.16057,-0.899457 0.0964,-0.963757 -6e-5,-0.835205 -0.28919,-1.509834 -0.86738,-2.023889 -0.57831,-0.578202 -1.25294,-0.995829 -2.02389,-1.252884 -0.77106,-0.321199 -1.57419,-0.546075 -2.40939,-0.67463 -0.83531,-0.128447 -1.50994,-0.192697 -2.02389,-0.192751"
           style="font-variant:normal;font-stretch:normal;text-align:start;line-height:125%;writing-mode:lr-tb;text-anchor:start;font-family:Borgsquad;-inkscape-font-specification:Borgsquad"
           id="path3008" /><path
           d="m 447.3575,70.185945 -35.2735,0 -2.31302,13.203467 47.99509,0 c 2.18446,0 4.30472,-0.546128 6.36079,-1.638386 2.12021,-1.156506 4.01559,-2.602139 5.68617,-4.336906 1.73469,-1.799004 3.18033,-3.790766 4.3369,-5.975291 1.22069,-2.248752 2.02382,-4.46539 2.40939,-6.649922 0.38544,-2.312995 0.57819,-4.401132 0.57826,-6.264418 -7e-5,-3.340995 -0.61045,-6.007386 -1.83114,-7.999181 -1.22083,-2.055979 -2.95559,-3.630114 -5.20429,-4.722408 -2.18457,-1.092219 -4.78671,-1.831098 -7.80643,-2.21664 -3.01982,-0.385463 -6.36084,-0.67459 -10.02307,-0.867381 L 443.02059,42.237 c -1.54205,-0.321211 -2.7628,-0.738838 -3.66228,-1.252883 -0.89953,-0.513961 -1.34929,-1.606218 -1.34926,-3.276773 -3e-5,-0.321207 -3e-5,-0.642458 0,-0.963757 0.0642,-0.321205 0.12847,-0.674582 0.19276,-1.060132 l 0.28912,-1.445635 c -3e-5,-0.256953 0.0642,-0.449704 0.19275,-0.578255 0.19272,-0.835205 0.6746,-1.541959 1.44564,-2.120264 0.77097,-0.578202 1.60623,-0.995829 2.50577,-1.252884 0.96372,-0.321199 1.89535,-0.546075 2.79489,-0.67463 0.89947,-0.128447 1.60622,-0.192697 2.12027,-0.192751 l 35.27349,0 2.31302,-13.203467 -46.93495,0 c -2.2488,6.7e-5 -4.49756,0.578321 -6.7463,1.734762 -2.18454,1.092322 -4.20843,2.537956 -6.07167,4.336905 -1.79903,1.734822 -3.34104,3.726584 -4.62603,5.975292 -1.22077,2.184568 -2.0239,4.369081 -2.40939,6.553546 -0.38552,2.313062 -0.57827,4.401199 -0.57826,6.264418 -10e-6,3.405313 0.61037,6.103829 1.83114,8.095557 1.22075,1.991796 2.92338,3.533805 5.10791,4.626032 2.24875,1.092286 4.88301,1.863291 7.90281,2.313016 3.01974,0.385529 6.36076,0.706781 10.02307,0.963757 l 8.38468,0.481878 c 1.79897,0.321278 3.21248,0.738905 4.24053,1.252884 1.09221,0.449777 1.63834,1.509908 1.63839,3.180397 -5e-5,0.642525 -0.0964,1.381405 -0.28913,2.21664 l -0.0964,0.867381 c -0.12855,0.385521 -0.22492,0.674648 -0.28912,0.867381 -0.25705,0.899523 -0.77106,1.638403 -1.54201,2.216641 -0.77106,0.514018 -1.60631,0.931646 -2.50577,1.252884 -0.89955,0.321265 -1.79906,0.546142 -2.69852,0.674629 -0.89955,0.06426 -1.6063,0.09639 -2.12026,0.09638"
           style="font-variant:normal;font-stretch:normal;text-align:start;line-height:125%;writing-mode:lr-tb;text-anchor:start;font-family:Borgsquad;-inkscape-font-specification:Borgsquad"
           id="path3010" /><path
           d="m 511.30426,70.185945 33.05685,0 -2.31301,13.203467 -53.97038,0 -8.67381,-13.203467 10.98683,0 7.5173,-42.694422 -8.86656,-11.275954 64.86082,0 -2.31301,13.203467 -33.05686,0 -2.50576,13.878097 27.17794,0 -13.20347,13.107091 -16.28749,0 -2.40939,13.781721"
           style="font-variant:normal;font-stretch:normal;text-align:start;line-height:125%;writing-mode:lr-tb;text-anchor:start;font-family:Borgsquad;-inkscape-font-specification:Borgsquad"
           id="path3012" /></g></g></g></svg>