<?xml version="1.0" encoding="utf-8"?>
<!-- Generator: Adobe Illustrator 16.0.3, SVG Export Plug-In . SVG Version: 6.00 Build 0)  -->
<!DOCTYPE svg PUBLIC "-//W3C//DTD SVG 1.1//EN" "http://www.w3.org/Graphics/SVG/1.1/DTD/svg11.dtd">
<svg version="1.1" id="Ebene_1" xmlns="http://www.w3.org/2000/svg" xmlns:xlink="http://www.w3.org/1999/xlink" x="0px" y="0px"
	 width="566.929px" height="128.211px" viewBox="0 0 566.929 128.211" enable-background="new 0 0 566.929 128.211"
	 xml:space="preserve">
<g id="Ebene_2">
</g>
<g id="Layer_1">
	<g>
		<g>
			<g>
				<g enable-background="new    ">
					<g enable-background="new    ">
						<g>
							<g>
								<g>
									<path id="SVGID_1_" d="M252.629,61.838l3.529,5.3c-0.273-0.412-0.726-0.676-1.179-0.676c-0.478,0-0.955,0.295-1.221,1.027
										l-3.529-5.299c0.267-0.732,0.743-1.029,1.222-1.029C251.903,61.161,252.354,61.427,252.629,61.838z"/>
								</g>
							</g>
						</g>
					</g>
					<g enable-background="new    ">
						<g>
							<g>
								<g>
									<path id="SVGID_3_" d="M311.432,60.064l3.53,5.3c-0.172-0.258-0.422-0.391-0.687-0.391c-0.353,0-0.724,0.236-0.964,0.721
										l-3.527-5.299c0.239-0.483,0.613-0.72,0.965-0.72C311.011,59.674,311.261,59.807,311.432,60.064z"/>
								</g>
							</g>
						</g>
					</g>
					<g>
						<path d="M314.466,41.153l29.807,0.189c0.568,0,4.659,0.663-0.453,1.999c-4.084,1.063-7.429,0.661-8.764,5.979l-16.086,64.575
							c-1.336,5.768,3.152,10.742,8.955,12.301c1.313,0.32,1.393,1.714-0.157,1.799l-19.586-0.723l-23.796,0.804
							c-1.728,0-1.795-1.794,0.085-2.125c5.562-0.567,10.478-5.151,11.548-8.913l15.643-56.077c0.002-0.846-0.435-1.287-0.914-1.287
							c-0.35,0-0.724,0.236-0.965,0.719l-44.044,63.917c-1.22,1.967-3.14,3.271-4.838,3.271c-1.835,0-3.412-1.521-3.578-5.375
							l-4.433-59.588c-0.048-0.826-0.744-1.454-1.438-1.454c-0.478,0-0.956,0.297-1.222,1.029l-15.107,47.273
							c-1.237,3.592-1.325,7.104,0.147,9.645c1.463,2.611,5.229,5.803,9.64,6.701c1.714,0.412,1.628,2.125-0.004,2.209
							l-15.824-0.662l-13.293,0.498c-1.561-0.084-1.393-1.631,0.004-1.883c4.578-0.979,9.826-5.637,12.205-12.266l19.571-62.897
							c0.821-2.376-0.476-5.236-2.852-5.804l-6.055-1.229c-1.063-0.082-1.215-1.632,0.002-1.632l34.736-0.282l3.482,54.755
							l2.548-3.099l33.147-49.173C312.984,43.683,313.968,42.134,314.466,41.153z"/>
					</g>
				</g>
			</g>
		</g>
		<g>
			<g>
				<g enable-background="new    ">
					<g>
						<path d="M359.425,40.928l40.013,0.331c1.882,0,2.765,3.332-1,3.664c-4.021,0.354-8.226,3.215-9.214,6.641l-18.747,64.8
							c-0.905,3.439,1.593,9.183,8.05,9.669c1.063,0.247,1.061,1.877,0.079,1.877l-23.63-0.906l-22.697,0.685
							c-1.232,0-0.896-1.629,0.154-1.795c3.111-0.567,12.154-4.076,13.88-9.633l20.901-64.692c1.309-4.656-3.016-6.949-7.922-8.095
							C358.23,43.304,358.447,41.011,359.425,40.928z"/>
					</g>
				</g>
			</g>
		</g>
		<g>
			<g>
				<g enable-background="new    ">
					<g>
						<path d="M464.128,36.898c4.105,0,8.133,0.34,12.004,1.062c2.461,0.496,5.475,1.62,4.738,3.746l-5.906,15.057
							c-0.467,1.534-1.244,2.462-2.031,2.462c-1.094,0-2.207-1.792-2.551-6.244c-0.195-2.436,0.197-11.205-3.146-11.393
							c-0.85-0.046-1.695-0.067-2.543-0.067c-5.363,0-10.688,0.885-15.43,2.396c-18.068,5.767-29.525,15.623-37.079,32.453
							c-7.386,16.191-3.739,33.693,1.478,39.662c3.557,4.066,11.865,6.874,18.252,6.874c3.75,0,6.836-0.97,7.904-3.224
							c3.457-8.307,5.133-18.494,4.809-23.151c0.014-5.647-2.201-6.086-6.41-6.866c-2.951-0.313-3.896-2.227,1.615-2.227
							c0.293,0,0.604,0.006,0.936,0.019c1.77-0.011,3.492-0.017,5.188-0.017c3.881,0,7.602,0.021,11.299,0.039
							c3.473,0.018,6.924,0.035,10.473,0.035c3.246,0,6.576-0.017,10.072-0.06c0.98,0.483,0.896,0.897-0.088,1.384
							c-5.973,0.897-8.352,2.043-8.924,4.254c-2.309,7.85-4.383,16.438-8.123,24.488c-1.33,2.883-7.604,5.626-9.648,6.204
							c-6.354,2.263-16.916,4.063-26.975,4.063c-8.072,0-15.821-1.16-20.812-4.183c-18.713-11.438-22.079-33.127-14.438-47.428
							C400.123,54.96,434.261,36.898,464.128,36.898z"/>
					</g>
				</g>
			</g>
		</g>
		<g opacity="0.78" enable-background="new    ">
			<path d="M558.181,127.465v-4.979h-1.861v-0.667h4.477v0.667h-1.867v4.979H558.181z"/>
			<path d="M561.539,127.465v-5.646h1.125l1.338,4c0.123,0.371,0.213,0.65,0.271,0.836c0.063-0.206,0.164-0.508,0.299-0.906
				l1.352-3.93h1.006v5.646h-0.719v-4.727l-1.643,4.727h-0.674l-1.633-4.808v4.808H561.539z"/>
		</g>
		<g id="Tick">
			<g>
				
					<linearGradient id="SVGID_2_" gradientUnits="userSpaceOnUse" x1="54.5488" y1="1333.5625" x2="54.5488" y2="1266.4971" gradientTransform="matrix(1 0 0 1 8.3501 -1207.1035)">
					<stop  offset="0.0604" style="stop-color:#53B848"/>
					<stop  offset="0.5549" style="stop-color:#65CCEC"/>
					<stop  offset="0.5832" style="stop-color:#61C3E7"/>
					<stop  offset="0.6882" style="stop-color:#55A7D8"/>
					<stop  offset="0.7933" style="stop-color:#4D92CD"/>
					<stop  offset="0.8976" style="stop-color:#4886C6"/>
					<stop  offset="1" style="stop-color:#4682C4"/>
				</linearGradient>
				<polygon fill="url(#SVGID_2_)" points="28.491,59.393 52.378,59.393 97.306,126.459 73.637,126.459 				"/>
				
					<linearGradient id="SVGID_4_" gradientUnits="userSpaceOnUse" x1="66.5557" y1="1333.5" x2="173.0129" y2="1206.6292" gradientTransform="matrix(1 0 0 1 8.3501 -1207.1035)">
					<stop  offset="0" style="stop-color:#6EBE44"/>
					<stop  offset="0.0011" style="stop-color:#6EBE44"/>
					<stop  offset="0.2454" style="stop-color:#BCDA20"/>
					<stop  offset="0.4194" style="stop-color:#ECEB09"/>
					<stop  offset="0.5055" style="stop-color:#FFF200"/>
					<stop  offset="0.5783" style="stop-color:#FBCA08"/>
					<stop  offset="0.6794" style="stop-color:#F79A11"/>
					<stop  offset="0.7753" style="stop-color:#F47419"/>
					<stop  offset="0.8635" style="stop-color:#F1581F"/>
					<stop  offset="0.9411" style="stop-color:#F04822"/>
					<stop  offset="1" style="stop-color:#EF4223"/>
				</linearGradient>
				<polygon fill="url(#SVGID_4_)" points="158.261,0.001 181.93,0.001 97.553,126.459 74.98,126.459 				"/>
			</g>
			<g>
				
					<linearGradient id="SVGID_5_" gradientUnits="userSpaceOnUse" x1="26.0576" y1="1333.5615" x2="26.0576" y2="1266.4971" gradientTransform="matrix(1 0 0 1 8.3501 -1207.1035)">
					<stop  offset="0.0604" style="stop-color:#53B848"/>
					<stop  offset="0.5549" style="stop-color:#65CCEC"/>
					<stop  offset="0.5832" style="stop-color:#61C3E7"/>
					<stop  offset="0.6882" style="stop-color:#55A7D8"/>
					<stop  offset="0.7933" style="stop-color:#4D92CD"/>
					<stop  offset="0.8976" style="stop-color:#4886C6"/>
					<stop  offset="1" style="stop-color:#4682C4"/>
				</linearGradient>
				<polygon fill="url(#SVGID_5_)" points="0,59.393 23.889,59.393 68.816,126.458 45.147,126.458 				"/>
				
					<linearGradient id="SVGID_6_" gradientUnits="userSpaceOnUse" x1="38.0635" y1="1333.498" x2="144.5208" y2="1206.6272" gradientTransform="matrix(1 0 0 1 8.3501 -1207.1035)">
					<stop  offset="0" style="stop-color:#6EBE44"/>
					<stop  offset="0.0011" style="stop-color:#6EBE44"/>
					<stop  offset="0.2454" style="stop-color:#BCDA20"/>
					<stop  offset="0.4194" style="stop-color:#ECEB09"/>
					<stop  offset="0.5055" style="stop-color:#FFF200"/>
					<stop  offset="0.5783" style="stop-color:#FBCA08"/>
					<stop  offset="0.6794" style="stop-color:#F79A11"/>
					<stop  offset="0.7753" style="stop-color:#F47419"/>
					<stop  offset="0.8635" style="stop-color:#F1581F"/>
					<stop  offset="0.9411" style="stop-color:#F04822"/>
					<stop  offset="1" style="stop-color:#EF4223"/>
				</linearGradient>
				<polygon fill="url(#SVGID_6_)" points="129.769,0 153.438,0 69.063,126.458 46.489,126.458 				"/>
			</g>
		</g>
		<g>
			<path d="M154.313,97.063l-11.644,16.51c-3.452,5.4,3.078,11.04,10.279,12.354c0.66,0.512,0.548,2.163-0.415,2.163
				c-0.105,0-0.219-0.02-0.345-0.062c-0.144-0.063-2.86-1.195-9.034-1.772c-1.652-0.157-4.623-0.663-8.245-0.663
				c-1.248,0-2.571,0.061-3.947,0.213l-13.024,1.834c-1.232-0.082-1.229-1.55,0.002-1.881c6.293-0.814,13.835-5.482,18.259-11.771
				l52.979-73.901c0.875-1.269,2.745-2.007,4.565-2.007c2.279,0,4.474,1.158,4.517,3.887l1.745,73.983
				c0.566,6.205,4.724,8.829,9.962,10.294c0.732,0.495,0.411,1.477-0.086,1.645c-0.34-0.007-6.801-0.106-14.522-1.254
				c-1.807-0.267-3.22-0.421-4.946-0.421c-1.493,0-3.221,0.116-5.64,0.373c-3.029,0.32-1.598,0.366-13.862,0.91
				c-0.466,0.022-0.919-0.099-1.017-0.888c0.109-0.91,1.48-1.348,1.918-1.465c4.9-1.358,7.317-3.816,8.392-9.846
				c1.16-6.631,0.85-12.268,0.694-18.072 M173.393,92.741c2.696,0,5.234,0.015,7.125,0.056L179.816,62
				c-0.133-0.4-0.313-0.605-0.519-0.605c-0.169,0-0.357,0.145-0.546,0.439c-6.558,9.313-15.59,20.729-22.065,29.972
				c-0.415,0.73-0.001,0.979,0.98,0.979c0.157,0.015,0.688,0.019,1.498,0.019c1.393,0,3.607-0.015,6.142-0.026
				C167.84,92.759,170.696,92.741,173.393,92.741"/>
		</g>
		<g>
			<path d="M551.406,126.374c0.732,0.482,0.398,1.464-0.086,1.632c-0.34-0.006-6.801-0.106-14.521-1.239
				c-1.834-0.271-3.254-0.429-5.002-0.429c-1.479,0-3.189,0.113-5.584,0.366c-3.041,0.318-1.598,0.365-13.877,0.91
				c-0.457,0.021-0.904-0.098-1.002-0.887c0.107-0.909,1.48-1.338,1.906-1.467c4.908-1.348,7.326-3.815,8.404-9.845
				c1.158-6.618,0.838-12.256,0.684-18.069l-26.588-0.153l-11.645,16.512c-3.439,5.392,3.09,11.024,10.289,12.338
				c0.662,0.521,0.539,2.168-0.422,2.168c-0.107,0-0.223-0.021-0.352-0.063c-0.145-0.06-2.859-1.183-9.021-1.773
				c-1.65-0.156-4.625-0.662-8.246-0.662c-1.248,0-2.57,0.059-3.945,0.213l-13.035,1.834c-1.221-0.084-1.219-1.551,0.004-1.881
				c6.305-0.814,13.834-5.472,18.27-11.771l52.98-73.886c0.875-1.274,2.744-2.013,4.563-2.013c2.281,0,4.479,1.163,4.52,3.891
				l1.744,73.972C542,122.283,546.169,124.896,551.406,126.374z M514.792,92.873c2.705,0,5.256,0.015,7.152,0.056l-0.689-30.812
				c-0.137-0.4-0.318-0.605-0.521-0.605c-0.172,0-0.355,0.144-0.539,0.44c-6.568,9.325-15.592,20.74-22.078,29.97
				c-0.404,0.732-0.002,0.98,0.979,0.98c0.191,0.018,0.945,0.022,2.078,0.022c1.377,0,3.32-0.012,5.516-0.022
				C509.218,92.888,512.083,92.873,514.792,92.873"/>
		</g>
	</g>
</g>
</svg>
