<?xml version="1.0" encoding="UTF-8" standalone="no"?>
<svg
   xmlns:dc="http://purl.org/dc/elements/1.1/"
   xmlns:cc="http://creativecommons.org/ns#"
   xmlns:rdf="http://www.w3.org/1999/02/22-rdf-syntax-ns#"
   xmlns:svg="http://www.w3.org/2000/svg"
   xmlns="http://www.w3.org/2000/svg"
   xmlns:sodipodi="http://sodipodi.sourceforge.net/DTD/sodipodi-0.dtd"
   xmlns:inkscape="http://www.inkscape.org/namespaces/inkscape"
   xml:space="preserve"
   viewBox="-64 344.8 482 105.2"
   y="0px"
   x="0px"
   id="svg7148"
   version="1.1"
   sodipodi:docname="logo.svg"
   inkscape:version="0.92.4 (5da689c313, 2019-01-14)"><sodipodi:namedview
   pagecolor="#ffffff"
   bordercolor="#666666"
   borderopacity="1"
   objecttolerance="10"
   gridtolerance="10"
   guidetolerance="10"
   inkscape:pageopacity="0"
   inkscape:pageshadow="2"
   inkscape:window-width="1920"
   inkscape:window-height="1014"
   id="namedview29"
   showgrid="false"
   inkscape:zoom="0.7219917"
   inkscape:cx="241"
   inkscape:cy="52.599998"
   inkscape:window-x="0"
   inkscape:window-y="29"
   inkscape:window-maximized="1"
   inkscape:current-layer="svg7148" /><metadata
   id="metadata64"><rdf:RDF><cc:Work
       rdf:about=""><dc:format>image/svg+xml</dc:format><dc:type
         rdf:resource="http://purl.org/dc/dcmitype/StillImage" /><dc:title /></cc:Work></rdf:RDF></metadata><defs
   id="defs62">
	
	
	
	
	
	
	
	
</defs>

<g
   id="g872"><g
     id="g4623"><g
       id="Logo">
		<path
   style="fill:#002255"
   id="path3002"
   d="m -11.4,344.8 c -29.1,0 -52.6,23.6 -52.6,52.6 0,29.1 23.6,52.6 52.6,52.6 5.6,0 11,-0.9 16,-2.5 v -26.3 c -4.4,2.5 -9.5,4 -14.9,4 -16,0 -28.9,-12.5 -28.9,-27.8 0,-15.3 13,-27.8 28.9,-27.8 5.5,0 10.6,1.5 14.9,4 v -26.3 c -5,-1.6 -10.4,-2.5 -16,-2.5 z" />
		<polygon
   style="fill:#002255"
   id="polygon9367"
   points="44.3,377.4 26.7,395.7 5.1,395.7 5.1,377.4 " />
		<polygon
   style="fill:#ff0000"
   id="polygon9369"
   points="44.3,417.7 26.7,399.4 5.1,399.4 5.1,417.7 " />
	</g><g
       id="Commodore">
		<path
   style="fill:#002255"
   id="path3067"
   d="m 110.6,391.1 c 5,0 9,-1.4 12.2,-4 3.2,-2.7 4.8,-6.4 4.9,-11.3 -0.1,-4.9 -1.7,-8.7 -4.9,-11.4 -3.2,-2.7 -7.2,-4 -12.2,-4 -5,0 -9,1.4 -12.2,4 -3.2,2.6 -4.8,6.5 -4.9,11.4 0.1,4.9 1.7,8.7 4.9,11.3 3.2,2.6 7.2,4 12.2,4 z m 0,-7.1 c -2.3,-0.1 -4,-0.9 -5.1,-2.5 -1.1,-1.6 -1.6,-3.5 -1.5,-5.8 0,-2.3 0.5,-4.2 1.5,-5.8 1,-1.6 2.7,-2.4 5.1,-2.5 2.3,0.1 4,0.9 5.1,2.5 1.1,1.6 1.6,3.5 1.5,5.8 0,2.2 -0.5,4.2 -1.5,5.8 -1.1,1.6 -2.8,2.4 -5.1,2.5 z" />
		<path
   style="fill:#002255"
   id="path3069"
   d="M 131.8,390.4 H 142 V 378 c 0,-3.1 0.5,-5.5 1.5,-7 1,-1.5 2.4,-2.2 4.2,-2.2 1.4,0 2.5,0.6 3.1,1.7 0.6,1.1 1,2.5 1,4.2 v 15.8 H 162 v -12.4 c 0,-3.1 0.5,-5.5 1.5,-7 1,-1.5 2.4,-2.2 4.2,-2.2 1.4,0 2.5,0.6 3.1,1.7 0.6,1.1 1,2.5 1,4.2 v 15.8 H 182 v -17.3 c 0.1,-4 -0.6,-7.1 -2,-9.4 -1.4,-2.2 -4.2,-3.4 -8.4,-3.4 -2.1,0 -4.1,0.4 -5.9,1.3 -1.8,0.9 -3.3,2.3 -4.5,4.3 -0.8,-1.9 -2,-3.3 -3.6,-4.3 -1.6,-0.9 -3.5,-1.4 -5.6,-1.4 -2.3,0 -4.5,0.5 -6.3,1.5 -1.9,1 -3.3,2.5 -4.4,4.6 h -0.1 v -5.4 h -9.3 z" />
		<path
   style="fill:#002255"
   id="path3071"
   d="m 187.5,390.4 h 10.2 V 378 c 0,-3.1 0.5,-5.5 1.5,-7 1,-1.5 2.4,-2.2 4.2,-2.2 1.4,0 2.5,0.6 3.1,1.7 0.6,1.1 1,2.5 1,4.2 v 15.8 h 10.2 v -12.4 c 0,-3.1 0.5,-5.5 1.5,-7 1,-1.5 2.4,-2.2 4.2,-2.2 1.4,0 2.5,0.6 3.1,1.7 0.6,1.1 1,2.5 1,4.2 v 15.8 h 10.2 v -17.3 c 0.1,-4 -0.6,-7.1 -2,-9.4 -1.4,-2.2 -4.2,-3.4 -8.4,-3.4 -2.1,0 -4.1,0.4 -5.9,1.3 -1.8,0.9 -3.3,2.3 -4.5,4.3 -0.8,-1.9 -2,-3.3 -3.6,-4.3 -1.6,-0.9 -3.5,-1.4 -5.6,-1.4 -2.3,0 -4.5,0.5 -6.3,1.5 -1.9,1 -3.3,2.5 -4.4,4.6 h -0.1 v -5.4 h -9.3 z" />
		<path
   style="fill:#002255"
   id="path3073"
   d="m 258.8,391.1 c 5,0 9,-1.4 12.2,-4 3.2,-2.7 4.8,-6.4 4.9,-11.3 -0.1,-4.9 -1.7,-8.7 -4.9,-11.4 -3.2,-2.7 -7.2,-4 -12.2,-4 -5,0 -9,1.4 -12.2,4 -3.2,2.6 -4.8,6.5 -4.9,11.4 0.1,4.9 1.7,8.7 4.9,11.3 3.2,2.6 7.3,4 12.2,4 z m 0,-7.1 c -2.3,-0.1 -4,-0.9 -5.1,-2.5 -1.1,-1.6 -1.6,-3.5 -1.5,-5.8 0,-2.3 0.5,-4.2 1.5,-5.8 1,-1.6 2.7,-2.4 5.1,-2.5 2.3,0.1 4,0.9 5.1,2.5 1.1,1.6 1.6,3.5 1.5,5.8 0,2.2 -0.5,4.2 -1.5,5.8 -1.1,1.6 -2.7,2.4 -5.1,2.5 z" />
		<path
   style="fill:#002255"
   id="path3075"
   d="m 311.7,348.1 h -10.2 v 16.7 h -0.1 c -1.3,-1.7 -2.8,-2.8 -4.5,-3.5 -1.7,-0.7 -3.6,-1 -5.6,-1 -4.1,0.2 -7.2,1.7 -9.3,4.7 -2.1,3 -3.2,6.4 -3.2,10.1 0,4.5 1.2,8.2 3.4,11.2 2.3,3 5.6,4.6 10,4.7 2.4,0 4.5,-0.6 6.3,-1.7 1.8,-1.1 3.1,-2.5 3.8,-4.2 h 0.1 v 5.3 h 9.4 z m -22.6,27.3 c 0,-2 0.5,-3.7 1.6,-5.1 1.1,-1.4 2.6,-2.1 4.6,-2.2 1.9,0 3.4,0.8 4.5,2.2 1.1,1.4 1.7,3.2 1.7,5.5 0,2.2 -0.7,4 -1.8,5.4 -1.1,1.4 -2.6,2.1 -4.4,2.1 -1.9,0 -3.4,-0.8 -4.5,-2.2 -1.1,-1.4 -1.7,-3.3 -1.7,-5.7 z" />
		<path
   style="fill:#002255"
   id="path3077"
   d="m 332.6,391.1 c 5,0 9,-1.4 12.2,-4 3.2,-2.7 4.8,-6.4 4.9,-11.3 -0.1,-4.9 -1.7,-8.7 -4.9,-11.4 -3.2,-2.7 -7.2,-4 -12.2,-4 -5,0 -9,1.4 -12.2,4 -3.2,2.7 -4.8,6.5 -4.9,11.4 0.1,4.9 1.7,8.7 4.9,11.3 3.2,2.6 7.3,4 12.2,4 z m 0,-7.1 c -2.3,-0.1 -4,-0.9 -5.1,-2.5 -1,-1.6 -1.6,-3.5 -1.5,-5.8 0,-2.3 0.5,-4.2 1.5,-5.8 1,-1.6 2.7,-2.4 5.1,-2.5 2.3,0.1 4,0.9 5.1,2.5 1,1.6 1.6,3.5 1.5,5.8 0,2.2 -0.5,4.2 -1.5,5.8 -1,1.6 -2.7,2.4 -5.1,2.5 z" />
		<path
   style="fill:#002255"
   id="path3079"
   d="m 375.4,360.7 c -0.5,-0.1 -1.1,-0.2 -1.7,-0.2 -0.6,-0.1 -1.2,-0.1 -1.8,-0.1 -2.2,0 -4,0.6 -5.3,1.7 -1.4,1.1 -2.5,2.6 -3.4,4.4 h -0.1 v -5.4 h -9.3 v 29.4 H 364 v -12.4 c 0,-2.9 0.6,-5.2 1.9,-6.8 1.3,-1.6 3.1,-2.4 5.5,-2.4 0.6,0 1.2,0 1.7,0 0.6,0 1.1,0.1 1.7,0.3 z" />
		<path
   style="fill:#002255"
   id="path3081"
   d="m 407.3,378.7 v -1.9 c 0.1,-4.5 -1.1,-8.4 -3.3,-11.5 -2.3,-3.2 -6.1,-4.8 -11.5,-5 -4.7,0 -8.4,1.4 -11.3,4 -2.9,2.7 -4.4,6.4 -4.4,11.3 0.1,4.9 1.7,8.7 4.9,11.3 3.2,2.7 7.2,4 12.2,4.1 1.9,0 3.8,-0.1 5.6,-0.4 1.8,-0.3 3.6,-0.8 5.2,-1.4 V 382 c -1.5,0.8 -3.1,1.4 -4.6,1.7 -1.5,0.4 -3,0.5 -4.4,0.5 -2.5,0 -4.5,-0.4 -6,-1.3 -1.5,-0.9 -2.4,-2.3 -2.7,-4.3 z m -20.5,-5.8 c 0.1,-1.7 0.6,-3.2 1.5,-4.3 0.9,-1.2 2.3,-1.8 4.1,-1.8 2,0 3.5,0.6 4.3,1.8 0.9,1.2 1.3,2.6 1.3,4.3 z" />
		<path
   style="fill:#002255"
   id="path3064"
   d="m 71.8,390.7 c -4.4,-1.2 -7.8,-3.2 -10.6,-6.3 -2.8,-3.1 -4.1,-5.9 -4.9,-10.9 -1.5,-9.8 2.7,-18.8 10.8,-22.7 4.1,-2 9.6,-3 15.1,-3 3.4,0 6.4,0.6 9.2,1.1 l -0.9,8.8 c 0,0 -0.7,-0.2 -2.7,-0.7 -1.9,-0.5 -3.8,-0.7 -5.7,-0.7 -3.8,0 -7.5,1 -9.9,2.9 -5.7,4.4 -5.7,15.9 0.2,20.7 3.6,3 10.1,4 15.9,2.5 l 2.7,-0.7 0.8,8.9 c -1.7,0.4 -5.3,1.1 -9.7,1.1 -5.8,0 -7.6,-0.2 -10.3,-1 z" />
	</g><rect
       style="fill:#002255"
       id="Line"
       x="49"
       y="395.79999"
       width="369"
       height="3" /><g
       id="Amiga">
		<path
   style="fill:#ff0000"
   id="path6187"
   d="m 104.7,443.9 c 0,-0.5 -0.1,-0.9 -0.4,-1 -0.3,-0.2 -0.6,-0.3 -1.1,-0.3 -1.6,-0.3 -2.5,-0.9 -2.8,-1.8 -0.3,-1 -0.4,-2.2 -0.4,-3.7 l -1.6,-30.8 c 0,-1.1 -0.1,-2 -0.3,-2.8 -0.2,-0.7 -0.9,-1.1 -2.2,-1.2 -1.1,0 -1.9,0.4 -2.4,1 -0.5,0.6 -1,1.4 -1.6,2.2 l -19.8,27.8 -3.3,4.7 c -0.7,1 -1.4,1.9 -2.1,2.8 -0.8,0.9 -1.8,1.4 -3,1.6 -0.7,0.1 -1.3,0.2 -1.9,0.4 -0.6,0.2 -0.9,0.7 -1,1.5 0,0.5 0.2,0.8 0.5,0.9 0.3,0.1 0.7,0.2 1.1,0.2 1.1,0 2.3,-0.1 3.5,-0.2 1.2,-0.1 2.3,-0.2 3.5,-0.2 1.1,0 2.1,0.1 3.1,0.2 1,0.1 2.1,0.1 3.1,0.2 0.5,0 0.9,-0.1 1.3,-0.3 0.4,-0.2 0.6,-0.6 0.6,-1.1 -0.1,-0.8 -0.5,-1.2 -1.4,-1.3 -0.9,-0.1 -1.7,-0.3 -2.6,-0.5 -0.9,-0.2 -1.3,-0.8 -1.4,-1.9 0.2,-1.1 0.9,-2.7 2.2,-4.7 1.3,-2 2.2,-3.5 2.8,-4.3 h 12.3 c 0.1,1.3 0.1,2.6 0.2,3.9 0.1,1.3 0.1,2.6 0.1,3.9 -0.1,1.8 -0.5,2.9 -1.4,3.2 -0.9,0.3 -1.8,0.5 -2.6,0.5 -0.9,0 -1.4,0.6 -1.4,1.5 0,0.4 0.1,0.7 0.4,0.9 0.3,0.2 0.6,0.2 1,0.2 1.7,0 3.4,-0.1 5.1,-0.2 1.7,-0.1 3.4,-0.2 5.1,-0.2 1.1,0 2.3,0.1 3.4,0.1 1.1,0.1 2.3,0.1 3.4,0.1 0.5,0 1,-0.1 1.3,-0.2 0.5,-0.2 0.7,-0.5 0.7,-1.1 z M 89.5,428.2 H 79.2 L 89,413.9 Z" />
		<path
   style="fill:#ff0000"
   id="path4766"
   d="m 194.1,404.7 c 0,-0.4 -0.1,-0.6 -0.4,-0.8 -0.2,-0.2 -0.5,-0.3 -0.9,-0.3 -0.6,0 -1.1,0 -1.6,0.1 -0.5,0 -1.1,0.1 -1.6,0.2 -1.4,0.1 -2.7,0.2 -4.1,0.3 -1.4,0 -2.8,0 -4.2,0 -1,0 -2,-0.1 -3.1,-0.1 -1,-0.1 -2,-0.1 -3.1,-0.1 -0.5,0 -0.9,0.1 -1.3,0.4 -0.4,0.3 -0.6,0.7 -0.6,1.2 0.2,0.9 0.9,1.4 2.1,1.3 1.2,-0.1 1.9,0.5 2.1,1.6 0,0.3 0,0.6 -0.1,1 -0.1,0.3 -0.2,0.6 -0.3,1 l -7.8,27 c -0.3,1.3 -0.6,2.4 -1,3.3 -0.4,0.9 -1.2,1.5 -2.5,1.8 -0.6,0.1 -1.3,0.2 -2.1,0.4 -0.8,0.2 -1.3,0.7 -1.3,1.4 0,0.4 0.2,0.7 0.5,0.9 0.3,0.2 0.7,0.3 1.1,0.3 1.3,0 2.7,-0.1 4,-0.2 1.4,-0.1 2.7,-0.2 4.1,-0.2 1.5,0 2.9,0.1 4.4,0.2 1.5,0.1 2.9,0.1 4.4,0.2 0.6,0 1.3,0 2.1,-0.1 0.8,-0.1 1.2,-0.5 1.3,-1.3 -0.1,-0.8 -0.5,-1.2 -1.2,-1.3 -0.7,-0.1 -1.5,-0.2 -2.2,-0.4 -0.7,-0.2 -1.1,-0.9 -1.2,-2.1 0,-0.5 0.1,-1 0.2,-1.5 0.1,-0.5 0.3,-1 0.4,-1.5 l 7.8,-27.1 c 0.3,-1.1 0.6,-1.9 1,-2.4 0.4,-0.5 1.2,-0.9 2.3,-1.1 0.6,-0.1 1.2,-0.2 1.9,-0.5 0.5,-0.5 0.8,-0.9 0.9,-1.6 z" />
		<path
   style="fill:#ff0000"
   id="path4768"
   d="m 234.7,405 c -0.1,-0.7 -0.8,-1.1 -2,-1.4 -1.3,-0.3 -2.6,-0.4 -4,-0.5 -1.4,-0.1 -2.3,-0.1 -2.8,-0.1 -5.2,0 -10.6,1.1 -16.2,3.1 -5.6,2.1 -10.4,5.1 -14.4,9.1 -4,4 -6.1,8.9 -6.2,14.7 0.1,3.7 1.1,6.7 3.2,9.1 2.1,2.4 4.6,4.2 7.8,5.4 3.1,1.2 6.3,1.8 9.7,1.8 2,0 4,-0.1 6.1,-0.4 2,-0.2 4,-0.6 6,-1.1 0.7,-0.1 1.4,-0.3 1.9,-0.6 0.5,-0.2 0.9,-0.7 1.2,-1.5 0.5,-1.5 1,-3.1 1.5,-4.7 0.5,-1.6 0.9,-3.2 1.3,-4.7 0.7,-2.2 1.6,-3.6 2.6,-4 1,-0.4 1.9,-0.6 2.7,-0.6 0.8,0 1.2,-0.5 1.2,-1.5 0,-0.4 -0.2,-0.7 -0.5,-0.9 -0.3,-0.2 -0.7,-0.3 -1,-0.3 -1.5,0 -3.1,0.1 -4.6,0.2 -1.6,0.1 -3.1,0.2 -4.7,0.2 -1.5,0 -3,-0.1 -4.4,-0.2 -1.5,-0.1 -3,-0.2 -4.4,-0.2 -0.5,0 -1,0.1 -1.4,0.3 -0.5,0.2 -0.7,0.6 -0.7,1.1 0.1,0.7 0.5,1.1 1.2,1.2 0.8,0.1 1.5,0.2 2.3,0.5 0.8,0.2 1.2,0.9 1.2,2 -0.1,1.2 -0.4,2.7 -1.1,4.8 -0.6,2 -1.2,3.6 -1.6,4.9 -0.2,0.9 -0.6,1.6 -1,2 -0.4,0.4 -1.1,0.6 -2.1,0.6 -3.6,-0.1 -6.4,-1.2 -8.2,-3.5 -1.9,-2.3 -2.8,-5.1 -2.8,-8.6 0,-3.2 0.7,-6.4 2,-9.4 1.3,-3 3.1,-5.7 5.3,-8 2.2,-2.2 5,-4.1 8.2,-5.7 3.3,-1.6 6.5,-2.4 9.7,-2.5 1.5,0 2.4,0.3 2.8,0.9 0.3,0.6 0.5,1.6 0.4,3 0,0.4 0,0.7 -0.1,1.1 0,0.4 -0.1,0.7 -0.1,1.1 0,0.6 0.1,1.2 0.3,1.7 0.2,0.5 0.7,0.8 1.4,0.8 0.8,-0.1 1.3,-0.4 1.7,-1.1 0.4,-0.7 0.6,-1.4 0.8,-2 0.2,-0.5 0.5,-1.5 1,-3.1 0.4,-1.6 0.7,-2.6 0.8,-3 z" />
		<path
   style="fill:#ff0000"
   id="path4770"
   d="m 270.1,443.9 c 0,-0.5 -0.1,-0.9 -0.4,-1 -0.3,-0.2 -0.6,-0.3 -1.1,-0.3 -1.6,-0.3 -2.5,-0.9 -2.8,-1.8 -0.3,-1 -0.4,-2.2 -0.4,-3.7 l -1.6,-30.8 c 0,-1.1 -0.1,-2 -0.3,-2.8 -0.2,-0.7 -0.9,-1.1 -2.2,-1.2 -1.1,0 -1.9,0.4 -2.4,1 -0.5,0.6 -1,1.4 -1.6,2.2 l -19.8,27.8 -3.3,4.7 c -0.7,1 -1.4,1.9 -2.1,2.8 -0.8,0.9 -1.8,1.4 -3,1.6 -0.7,0.1 -1.3,0.2 -1.9,0.4 -0.6,0.2 -0.9,0.7 -1,1.5 0,0.5 0.2,0.8 0.5,0.9 0.3,0.1 0.7,0.2 1.1,0.2 1.1,0 2.3,-0.1 3.5,-0.2 1.2,-0.1 2.3,-0.2 3.5,-0.2 1.1,0 2.1,0.1 3.1,0.2 1.1,0.1 2.1,0.1 3.1,0.2 0.5,0 0.9,-0.1 1.3,-0.3 0.4,-0.2 0.6,-0.6 0.6,-1.1 -0.1,-0.8 -0.5,-1.2 -1.4,-1.3 -0.9,-0.1 -1.7,-0.3 -2.6,-0.5 -0.9,-0.2 -1.3,-0.8 -1.4,-1.9 0.2,-1.1 0.9,-2.7 2.2,-4.7 1.3,-2 2.2,-3.5 2.8,-4.3 h 12.4 c 0.1,1.3 0.1,2.6 0.2,3.9 0.1,1.3 0.1,2.6 0.1,3.9 -0.1,1.8 -0.5,2.9 -1.4,3.2 -0.9,0.3 -1.8,0.5 -2.6,0.5 -0.9,0 -1.4,0.6 -1.4,1.5 0,0.4 0.1,0.7 0.4,0.9 0.3,0.2 0.6,0.2 1,0.2 1.7,0 3.4,-0.1 5.1,-0.2 1.7,-0.1 3.4,-0.2 5.1,-0.2 1.1,0 2.3,0.1 3.4,0.1 1.1,0.1 2.3,0.1 3.4,0.1 0.5,0 1,-0.1 1.3,-0.2 0.4,-0.2 0.6,-0.5 0.6,-1.1 z m -15.3,-15.7 h -10.3 l 9.8,-14.3 z" />
		<path
   style="fill:#ff0000"
   id="path4764"
   d="m 167.9,404.9 c 0,-0.4 -0.1,-0.7 -0.4,-0.9 -0.2,-0.2 -0.5,-0.3 -0.9,-0.3 -1.3,0 -2.6,0 -3.9,0.1 -1.3,0.1 -2.6,0.1 -3.9,0.1 -0.7,0 -1.7,-0.1 -3.1,-0.1 -1.4,0 -2.3,0.1 -2.8,0.5 -0.1,0.1 -0.2,0.3 -0.2,0.4 -0.1,0.2 -0.2,0.3 -0.2,0.4 l -17,25.7 -0.7,-25.3 c 0,-0.5 0,-0.9 -0.1,-1.2 -0.1,-0.4 -0.4,-0.5 -0.9,-0.6 -1.4,0 -2.9,0 -4.3,0.1 -1.4,0 -2.9,0 -4.3,0 -0.8,0 -1.6,-0.1 -2.4,-0.1 -0.8,-0.1 -1.6,-0.1 -2.4,-0.1 -0.5,0 -1,0.1 -1.5,0.2 -0.5,0.2 -0.7,0.5 -0.8,1.1 0.2,1 1,1.5 2.3,1.4 1.4,0 2.1,0.5 2.3,1.4 0,0.7 -0.2,1.4 -0.4,2.1 -0.3,0.7 -0.5,1.4 -0.7,2 -1.5,4.2 -3,8.3 -4.5,12.5 -1.5,4.2 -3,8.3 -4.6,12.5 -0.6,1.8 -1.2,3 -1.8,3.7 -0.6,0.7 -1.8,1.2 -3.7,1.5 -0.5,0.1 -1,0.2 -1.4,0.5 -0.4,0.2 -0.6,0.6 -0.6,1.2 0,0.5 0.2,0.8 0.5,1 0.3,0.1 0.7,0.2 1.2,0.2 1.1,0 2.2,0 3.3,-0.1 1.1,-0.1 2.2,-0.1 3.3,-0.1 1,0 2,0.1 3,0.2 1,0.1 2,0.1 3,0.2 0.5,0 0.9,-0.1 1.3,-0.3 0.4,-0.2 0.6,-0.6 0.7,-1.1 -0.1,-0.9 -0.5,-1.3 -1.4,-1.4 -0.9,-0.1 -1.8,-0.2 -2.7,-0.4 -0.9,-0.2 -1.4,-1 -1.4,-2.4 0.1,-1.9 0.8,-4.8 2.1,-8.7 1.3,-3.8 2.6,-7.6 4.1,-11.2 1.4,-3.6 2.4,-6 2.9,-7.3 l 0.7,29.4 c 0,0.9 0.1,1.6 0.3,2.2 0.2,0.5 0.8,0.8 1.8,0.8 1,0 1.8,-0.4 2.4,-1.1 0.6,-0.7 1.1,-1.4 1.6,-2.2 l 19.8,-29.1 -6.5,24.6 c -0.2,1.1 -0.5,2.1 -0.9,3.2 -0.4,1.1 -1.2,1.7 -2.3,2 -0.7,0 -1.4,0.2 -2.2,0.3 -0.8,0.2 -1.3,0.7 -1.4,1.5 0,0.5 0.2,0.8 0.5,1 0.3,0.2 0.7,0.3 1.1,0.3 1.4,0 2.9,-0.1 4.3,-0.2 1.4,-0.1 2.9,-0.2 4.3,-0.2 1.5,0 3,0.1 4.4,0.2 1.5,0.1 3,0.2 4.4,0.2 0.6,0 1,-0.1 1.5,-0.3 0.4,-0.2 0.7,-0.6 0.7,-1.2 -0.1,-0.7 -0.4,-1.2 -1.1,-1.3 -0.7,-0.1 -1.4,-0.3 -2.1,-0.5 -0.7,-0.2 -1.1,-0.8 -1.1,-1.9 0,-0.7 0.1,-1.5 0.3,-2.3 0.2,-0.8 0.3,-1.5 0.5,-2.2 l 6.3,-25.3 c 0.2,-1.1 0.5,-2 0.9,-2.6 0.4,-0.6 1.1,-1 2.3,-1.2 0.6,0 1.2,-0.2 1.8,-0.4 0.3,0.1 0.7,-0.3 0.7,-1.1 z" />
	</g></g><g
     id="text4579"
     style="font-style:normal;font-variant:normal;font-weight:normal;font-stretch:normal;font-size:52.04666519px;line-height:1.25;font-family:Ragey;-inkscape-font-specification:'Ragey, Normal';font-variant-ligatures:normal;font-variant-caps:normal;font-variant-numeric:normal;font-feature-settings:normal;text-align:start;letter-spacing:0px;word-spacing:0px;writing-mode:lr-tb;text-anchor:start;fill:#002255;fill-opacity:1;stroke:none;stroke-width:1.30114198"
     transform="scale(0.92853441,1.076966)"
     aria-label="3000"><path
       id="path836"
       style=""
       d="m 327.69646,391.16169 q 5.72514,3.01871 5.72514,8.84794 0,2.49824 -0.98889,4.5801 -0.98889,2.02982 -2.70643,3.48713 -1.66549,1.45731 -3.9035,2.29005 -2.238,0.7807 -4.73624,0.7807 -4.11169,0 -7.75496,-2.65438 -2.02982,-1.5614 -3.17484,-3.38303 -1.14503,-1.87368 -1.14503,-3.48713 0,-1.66549 0.98889,-2.70642 0.98888,-1.04094 2.55028,-1.04094 1.35322,0 1.92573,0.67661 0.62456,0.62456 1.92573,1.97777 2.3421,3.27894 4.78829,3.27894 1.76959,0 2.96666,-1.24912 1.19707,-1.24912 1.19707,-3.1228 0,-1.82163 -1.04093,-2.70642 -0.98889,-0.93684 -3.9035,-1.40526 -1.87368,-0.26024 -2.60233,-1.04094 -0.72866,-0.83274 -0.72866,-2.44619 0,-1.45731 0.72866,-2.23801 0.72865,-0.7807 2.60233,-1.19707 3.59122,-0.83275 3.59122,-3.59122 0,-1.30117 -0.7807,-2.08187 -0.72865,-0.83274 -2.08187,-0.83274 -1.50935,0 -3.48712,1.82163 l -0.1041,0.0521 q -1.09298,1.14502 -2.18596,1.82163 -1.04093,0.62456 -1.97777,0.62456 -1.30117,0 -2.29005,-0.93684 -0.93684,-0.98889 -0.93684,-2.3421 0,-1.87368 1.09298,-3.38303 1.09298,-1.5614 2.75847,-2.60234 1.66549,-1.09298 3.59122,-1.66549 1.97777,-0.57251 3.69531,-0.57251 2.02982,0 3.9035,0.6766 1.87368,0.67661 3.27894,1.92573 1.45731,1.19707 2.29006,2.91461 0.83274,1.71754 0.83274,3.85146 0,4.21578 -3.9035,7.07834 z m 5.30876,-7.07834 q 0,-2.3421 -0.98888,-4.31988 -0.98889,-1.97777 -2.65438,-3.38303 -1.61345,-1.45731 -3.74736,-2.23801 -2.08187,-0.83274 -4.31988,-0.83274 -1.82163,0 -4.00759,0.6766 -2.18596,0.67661 -4.05964,1.92573 -1.87368,1.24912 -3.17485,3.07075 -1.24912,1.76959 -1.24912,3.95555 0,1.76959 1.40526,3.22689 1.40526,1.40526 3.17485,1.40526 1.24912,0 2.60233,-0.83274 1.35322,-0.83275 2.55029,-1.97778 l 0.0521,-0.052 q 1.66549,-1.45731 2.55028,-1.45731 0.8848,0 1.14503,0.36433 0.31228,0.31228 0.31228,1.19707 0,0.98889 -0.52047,1.45731 -0.46842,0.41637 -2.02982,0.7807 -4.31987,1.04093 -4.31987,4.78829 0,4.16373 4.47601,4.89239 1.30117,0.20818 2.02982,0.41637 0.7807,0.15614 1.14503,0.46842 0.41637,0.26023 0.52047,0.67661 0.10409,0.41637 0.10409,1.14502 0,3.01871 -2.81052,3.01871 -0.88479,0 -1.76959,-0.62456 -0.83274,-0.62456 -1.97777,-2.23801 -0.62456,-0.62456 -1.04093,-1.14502 -0.41638,-0.57252 -0.93684,-0.98889 -0.52047,-0.46842 -1.19708,-0.72865 -0.62456,-0.26024 -1.71754,-0.26024 -1.97777,0 -3.43508,1.5614 -1.4573,1.50936 -1.4573,3.59122 0,1.92573 1.30116,4.11169 1.35322,2.18596 3.59122,3.79941 3.85146,3.0187 8.53566,3.0187 2.65438,0 5.10057,-0.88479 2.49824,-0.93684 4.37192,-2.60233 1.92573,-1.6655 3.07075,-3.95555 1.14503,-2.3421 1.14503,-5.10057 0,-5.67309 -4.78829,-9.00408 3.0187,-3.0187 3.0187,-6.9222 z m 0.41638,0 q 0,3.9035 -2.81052,6.87016 4.5801,3.38303 4.5801,9.05612 0,2.81052 -1.19707,5.20466 -1.19707,2.39415 -3.17485,4.11169 -1.92572,1.71754 -4.47601,2.65438 -2.55029,0.98889 -5.25671,0.98889 -2.39415,0 -4.6842,-0.83275 -2.23801,-0.7807 -4.11169,-2.23801 -2.29005,-1.66549 -3.69531,-3.95554 -1.35322,-2.3421 -1.35322,-4.31988 0,-2.29005 1.5614,-3.9035 1.61345,-1.66549 3.74736,-1.66549 1.19708,0 1.92573,0.31228 0.7807,0.26023 1.30117,0.72865 0.57251,0.46842 0.98888,1.09298 0.46842,0.57252 1.04094,1.14503 1.09298,1.5614 1.82163,2.13391 0.7807,0.57252 1.5614,0.57252 2.39415,0 2.39415,-2.60234 0,-0.62456 -0.1041,-0.98888 -0.052,-0.36433 -0.36432,-0.57252 -0.31228,-0.26023 -1.04094,-0.41637 -0.6766,-0.15614 -1.92572,-0.31228 -2.39415,-0.41637 -3.64327,-1.82163 -1.24912,-1.40526 -1.24912,-3.48713 0,-2.08187 1.19707,-3.38303 1.24912,-1.30117 3.48713,-1.82164 1.50935,-0.31228 1.87368,-0.62456 0.36433,-0.36432 0.36433,-1.19707 0,-0.83275 -0.15614,-0.93684 -0.15614,-0.15614 -0.8848,-0.15614 -0.41637,0 -0.93684,0.26023 -0.52046,0.26024 -1.35321,1.04094 -1.19707,1.24912 -2.70643,2.13391 -1.4573,0.83275 -2.75847,0.83275 -0.93684,0 -1.87368,-0.41638 -0.88479,-0.46842 -1.61345,-1.14502 -0.6766,-0.72866 -1.14502,-1.61345 -0.41638,-0.93684 -0.41638,-1.87368 0,-2.29005 1.30117,-4.16373 1.35321,-1.87368 3.33099,-3.17485 1.97777,-1.30117 4.21578,-1.97777 2.238,-0.72866 4.11168,-0.72866 2.29006,0 4.47602,0.83275 2.18596,0.83275 3.85145,2.3421 1.71754,1.45731 2.75847,3.53917 1.04094,2.02982 1.04094,4.47602 z" /><path
       id="path838"
       style=""
       d="m 354.01581,381.89739 q -2.86257,0 -4.52806,2.96666 -1.66549,2.91461 -1.66549,8.01518 0,5.15262 1.66549,8.06724 1.66549,2.91461 4.52806,2.91461 2.86257,0 4.52806,-2.91461 1.66549,-2.91462 1.66549,-8.06724 0,-5.10057 -1.66549,-8.01518 -1.66549,-2.96666 -4.52806,-2.96666 z m -14.46897,10.98184 q 0,-3.59122 0.83274,-6.87016 0.83275,-3.27894 2.60234,-5.77718 1.76958,-2.55028 4.47601,-4.00759 2.75847,-1.50935 6.50583,-1.50935 3.74736,0 6.45379,1.50935 2.75847,1.45731 4.52806,4.00759 1.76959,2.49824 2.60233,5.77718 0.83275,3.27894 0.83275,6.87016 0,3.59122 -0.83275,6.92221 -0.83274,3.27894 -2.60233,5.82923 -1.76959,2.49824 -4.52806,4.00759 -2.70643,1.50935 -6.45379,1.50935 -3.74736,0 -6.50583,-1.50935 -2.70643,-1.50935 -4.47601,-4.00759 -1.76959,-2.55029 -2.60234,-5.82923 -0.83274,-3.33099 -0.83274,-6.92221 z m 14.46897,-9.62863 q 2.23801,0 3.53917,2.39415 1.30117,2.39414 1.30117,7.23448 0,4.89239 -1.30117,7.28654 -1.30116,2.3421 -3.53917,2.3421 -2.23801,0 -3.53917,-2.3421 -1.30117,-2.39415 -1.30117,-7.28654 0,-4.84034 1.30117,-7.23448 1.30116,-2.39415 3.53917,-2.39415 z m -15.82219,9.62863 q 0,3.74736 0.93684,7.28654 0.93684,3.53917 2.86257,6.29764 1.92573,2.75848 4.89239,4.42397 3.0187,1.66549 7.07834,1.66549 4.05964,0 7.0263,-1.66549 3.01871,-1.66549 4.94444,-4.42397 1.92572,-2.75847 2.86256,-6.29764 0.93684,-3.53918 0.93684,-7.28654 0,-3.69531 -0.93684,-7.23448 -0.93684,-3.53918 -2.86256,-6.2456 -1.92573,-2.75848 -4.94444,-4.42397 -2.96666,-1.66549 -7.0263,-1.66549 -4.05964,0 -7.07834,1.66549 -2.96666,1.66549 -4.89239,4.42397 -1.92573,2.70642 -2.86257,6.2456 -0.93684,3.53917 -0.93684,7.23448 z m 15.82219,-9.16021 q -2.13391,0 -3.27894,2.18596 -1.14503,2.18596 -1.14503,6.97425 0,4.7883 1.14503,7.0263 1.14503,2.18596 3.27894,2.18596 2.13391,0 3.27894,-2.18596 1.14503,-2.238 1.14503,-7.0263 0,-4.78829 -1.14503,-6.97425 -1.14503,-2.18596 -3.27894,-2.18596 z m -16.23856,9.16021 q 0,-3.74736 0.93684,-7.33858 0.98889,-3.59122 2.96666,-6.40174 1.97777,-2.81052 4.99648,-4.52806 3.07075,-1.71754 7.28653,-1.71754 4.21578,0 7.23449,1.71754 3.07075,1.71754 5.04853,4.52806 1.97777,2.81052 2.91461,6.40174 0.98889,3.59122 0.98889,7.33858 0,3.74736 -0.98889,7.39063 -0.93684,3.59122 -2.91461,6.45379 -1.97778,2.81052 -5.04853,4.52806 -3.01871,1.71754 -7.23449,1.71754 -4.21578,0 -7.28653,-1.71754 -3.01871,-1.71754 -4.99648,-4.52806 -1.97777,-2.86257 -2.96666,-6.45379 -0.93684,-3.64327 -0.93684,-7.39063 z" /><path
       id="path840"
       style=""
       d="m 388.57805,381.89739 q -2.86257,0 -4.52806,2.96666 -1.6655,2.91461 -1.6655,8.01518 0,5.15262 1.6655,8.06724 1.66549,2.91461 4.52806,2.91461 2.86256,0 4.52806,-2.91461 1.66549,-2.91462 1.66549,-8.06724 0,-5.10057 -1.66549,-8.01518 -1.6655,-2.96666 -4.52806,-2.96666 z m -14.46898,10.98184 q 0,-3.59122 0.83275,-6.87016 0.83275,-3.27894 2.60233,-5.77718 1.76959,-2.55028 4.47602,-4.00759 2.75847,-1.50935 6.50583,-1.50935 3.74736,0 6.45379,1.50935 2.75847,1.45731 4.52805,4.00759 1.76959,2.49824 2.60234,5.77718 0.83274,3.27894 0.83274,6.87016 0,3.59122 -0.83274,6.92221 -0.83275,3.27894 -2.60234,5.82923 -1.76958,2.49824 -4.52805,4.00759 -2.70643,1.50935 -6.45379,1.50935 -3.74736,0 -6.50583,-1.50935 -2.70643,-1.50935 -4.47602,-4.00759 -1.76958,-2.55029 -2.60233,-5.82923 -0.83275,-3.33099 -0.83275,-6.92221 z m 14.46898,-9.62863 q 2.238,0 3.53917,2.39415 1.30117,2.39414 1.30117,7.23448 0,4.89239 -1.30117,7.28654 -1.30117,2.3421 -3.53917,2.3421 -2.23801,0 -3.53918,-2.3421 -1.30116,-2.39415 -1.30116,-7.28654 0,-4.84034 1.30116,-7.23448 1.30117,-2.39415 3.53918,-2.39415 z m -15.82219,9.62863 q 0,3.74736 0.93684,7.28654 0.93684,3.53917 2.86257,6.29764 1.92572,2.75848 4.89238,4.42397 3.01871,1.66549 7.07835,1.66549 4.05964,0 7.0263,-1.66549 3.0187,-1.66549 4.94443,-4.42397 1.92573,-2.75847 2.86257,-6.29764 0.93684,-3.53918 0.93684,-7.28654 0,-3.69531 -0.93684,-7.23448 -0.93684,-3.53918 -2.86257,-6.2456 -1.92573,-2.75848 -4.94443,-4.42397 -2.96666,-1.66549 -7.0263,-1.66549 -4.05964,0 -7.07835,1.66549 -2.96666,1.66549 -4.89238,4.42397 -1.92573,2.70642 -2.86257,6.2456 -0.93684,3.53917 -0.93684,7.23448 z m 15.82219,-9.16021 q -2.13392,0 -3.27894,2.18596 -1.14503,2.18596 -1.14503,6.97425 0,4.7883 1.14503,7.0263 1.14502,2.18596 3.27894,2.18596 2.13391,0 3.27894,-2.18596 1.14502,-2.238 1.14502,-7.0263 0,-4.78829 -1.14502,-6.97425 -1.14503,-2.18596 -3.27894,-2.18596 z m -16.23856,9.16021 q 0,-3.74736 0.93684,-7.33858 0.98888,-3.59122 2.96666,-6.40174 1.97777,-2.81052 4.99648,-4.52806 3.07075,-1.71754 7.28653,-1.71754 4.21578,0 7.23449,1.71754 3.07075,1.71754 5.04852,4.52806 1.97777,2.81052 2.91461,6.40174 0.98889,3.59122 0.98889,7.33858 0,3.74736 -0.98889,7.39063 -0.93684,3.59122 -2.91461,6.45379 -1.97777,2.81052 -5.04852,4.52806 -3.01871,1.71754 -7.23449,1.71754 -4.21578,0 -7.28653,-1.71754 -3.01871,-1.71754 -4.99648,-4.52806 -1.97778,-2.86257 -2.96666,-6.45379 -0.93684,-3.64327 -0.93684,-7.39063 z" /><path
       id="path842"
       style=""
       d="m 423.14029,381.89739 q -2.86257,0 -4.52806,2.96666 -1.6655,2.91461 -1.6655,8.01518 0,5.15262 1.6655,8.06724 1.66549,2.91461 4.52806,2.91461 2.86256,0 4.52806,-2.91461 1.66549,-2.91462 1.66549,-8.06724 0,-5.10057 -1.66549,-8.01518 -1.6655,-2.96666 -4.52806,-2.96666 z m -14.46898,10.98184 q 0,-3.59122 0.83275,-6.87016 0.83275,-3.27894 2.60233,-5.77718 1.76959,-2.55028 4.47602,-4.00759 2.75847,-1.50935 6.50583,-1.50935 3.74736,0 6.45379,1.50935 2.75847,1.45731 4.52806,4.00759 1.76958,2.49824 2.60233,5.77718 0.83275,3.27894 0.83275,6.87016 0,3.59122 -0.83275,6.92221 -0.83275,3.27894 -2.60233,5.82923 -1.76959,2.49824 -4.52806,4.00759 -2.70643,1.50935 -6.45379,1.50935 -3.74736,0 -6.50583,-1.50935 -2.70643,-1.50935 -4.47602,-4.00759 -1.76958,-2.55029 -2.60233,-5.82923 -0.83275,-3.33099 -0.83275,-6.92221 z m 14.46898,-9.62863 q 2.238,0 3.53917,2.39415 1.30117,2.39414 1.30117,7.23448 0,4.89239 -1.30117,7.28654 -1.30117,2.3421 -3.53917,2.3421 -2.23801,0 -3.53918,-2.3421 -1.30116,-2.39415 -1.30116,-7.28654 0,-4.84034 1.30116,-7.23448 1.30117,-2.39415 3.53918,-2.39415 z m -15.82219,9.62863 q 0,3.74736 0.93684,7.28654 0.93684,3.53917 2.86257,6.29764 1.92572,2.75848 4.89238,4.42397 3.01871,1.66549 7.07835,1.66549 4.05964,0 7.0263,-1.66549 3.01871,-1.66549 4.94443,-4.42397 1.92573,-2.75847 2.86257,-6.29764 0.93684,-3.53918 0.93684,-7.28654 0,-3.69531 -0.93684,-7.23448 -0.93684,-3.53918 -2.86257,-6.2456 -1.92572,-2.75848 -4.94443,-4.42397 -2.96666,-1.66549 -7.0263,-1.66549 -4.05964,0 -7.07835,1.66549 -2.96666,1.66549 -4.89238,4.42397 -1.92573,2.70642 -2.86257,6.2456 -0.93684,3.53917 -0.93684,7.23448 z m 15.82219,-9.16021 q -2.13392,0 -3.27894,2.18596 -1.14503,2.18596 -1.14503,6.97425 0,4.7883 1.14503,7.0263 1.14502,2.18596 3.27894,2.18596 2.13391,0 3.27894,-2.18596 1.14502,-2.238 1.14502,-7.0263 0,-4.78829 -1.14502,-6.97425 -1.14503,-2.18596 -3.27894,-2.18596 z m -16.23856,9.16021 q 0,-3.74736 0.93684,-7.33858 0.98888,-3.59122 2.96666,-6.40174 1.97777,-2.81052 4.99648,-4.52806 3.07075,-1.71754 7.28653,-1.71754 4.21578,0 7.23449,1.71754 3.07075,1.71754 5.04852,4.52806 1.97778,2.81052 2.91462,6.40174 0.98888,3.59122 0.98888,7.33858 0,3.74736 -0.98888,7.39063 -0.93684,3.59122 -2.91462,6.45379 -1.97777,2.81052 -5.04852,4.52806 -3.01871,1.71754 -7.23449,1.71754 -4.21578,0 -7.28653,-1.71754 -3.01871,-1.71754 -4.99648,-4.52806 -1.97778,-2.86257 -2.96666,-6.45379 -0.93684,-3.64327 -0.93684,-7.39063 z" /></g></g>
</svg>