<?xml version="1.0" encoding="UTF-8" standalone="no"?>
<!-- Generator: Adobe Illustrator 16.0.3, SVG Export Plug-In . SVG Version: 6.00 Build 0)  -->

<svg
   xmlns:dc="http://purl.org/dc/elements/1.1/"
   xmlns:cc="http://creativecommons.org/ns#"
   xmlns:rdf="http://www.w3.org/1999/02/22-rdf-syntax-ns#"
   xmlns:svg="http://www.w3.org/2000/svg"
   xmlns="http://www.w3.org/2000/svg"
   xmlns:sodipodi="http://sodipodi.sourceforge.net/DTD/sodipodi-0.dtd"
   xmlns:inkscape="http://www.inkscape.org/namespaces/inkscape"
   version="1.1"
   id="Ebene_1"
   x="0px"
   y="0px"
   width="566.929px"
   height="98.437px"
   viewBox="0 0 566.929 98.437"
   enable-background="new 0 0 566.929 98.437"
   xml:space="preserve"
   inkscape:version="0.48.4 r9939"
   sodipodi:docname="logo.svg"><metadata
     id="metadata3097"><rdf:RDF><cc:Work
         rdf:about=""><dc:format>image/svg+xml</dc:format><dc:type
           rdf:resource="http://purl.org/dc/dcmitype/StillImage" /><dc:title /></cc:Work></rdf:RDF></metadata><defs
     id="defs3095" /><sodipodi:namedview
     pagecolor="#ffffff"
     bordercolor="#666666"
     borderopacity="1"
     objecttolerance="10"
     gridtolerance="10"
     guidetolerance="10"
     inkscape:pageopacity="0"
     inkscape:pageshadow="2"
     inkscape:window-width="1920"
     inkscape:window-height="1134"
     id="namedview3093"
     showgrid="false"
     inkscape:zoom="1.1225322"
     inkscape:cx="251.62306"
     inkscape:cy="-1.1577304"
     inkscape:window-x="0"
     inkscape:window-y="27"
     inkscape:window-maximized="1"
     inkscape:current-layer="g3084"
     showguides="true"
     inkscape:guide-bbox="true" /><g
     id="g3084"><g
       style="font-size:91.81641388px;font-style:normal;font-weight:normal;line-height:125%;letter-spacing:0px;word-spacing:0px;opacity:0.66799999;fill:#000000;fill-opacity:1;stroke:none;font-family:Sans"
       id="text2991"><path
         d="m 11.58094,54.572911 0,-9.478815 c 0,-0.341541 0.119553,-0.666041 0.358658,-0.9735 0.239105,-0.34154 0.512368,-0.529408 0.81979,-0.563605 l 7.941709,-1.229685 c 0.375728,-1.195484 0.922253,-2.493483 1.639579,-3.893999 -1.161378,-1.639533 -2.698481,-3.60361 -4.611315,-5.892237 -0.239111,-0.375686 -0.358664,-0.717265 -0.358658,-1.024736 -6e-6,-0.409844 0.119547,-0.751422 0.358658,-1.024737 0.751467,-1.024684 2.151939,-2.544708 4.201421,-4.560079 2.049461,-2.015257 3.398696,-3.022913 4.04771,-3.022973 0.375722,6e-5 0.734379,0.119612 1.075973,0.358658 l 5.892237,4.611315 c 1.161346,-0.614787 2.476423,-1.161312 3.945236,-1.639579 0.375711,-3.688992 0.768527,-6.319147 1.178448,-7.890473 0.239078,-0.819724 0.751446,-1.229618 1.537105,-1.229684 l 9.530052,0 c 0.375698,6.6e-5 0.717277,0.136697 1.024736,0.409895 0.307382,0.23917 0.478172,0.529512 0.512369,0.871026 l 1.178447,7.839236 c 1.161327,0.341635 2.442247,0.871082 3.842763,1.588342 l 6.045947,-4.560078 c 0.273212,-0.239046 0.614791,-0.358598 1.024737,-0.358658 0.375685,6e-5 0.734342,0.136691 1.075973,0.409894 4.918679,4.543055 7.378045,7.275684 7.378105,8.197895 -6e-5,0.307471 -0.119612,0.631971 -0.358658,0.973499 -0.409954,0.546576 -1.127269,1.468839 -2.151947,2.76679 -1.024793,1.298046 -1.793345,2.322782 -2.305658,3.07421 0.785576,1.639622 1.36626,3.040094 1.742053,4.201421 l 7.787999,1.178447 c 0.341514,0.06835 0.631856,0.256223 0.871026,0.563605 0.23904,0.273302 0.358592,0.597801 0.358658,0.9735 l 0,9.478815 c -6.6e-5,0.341607 -0.119618,0.683185 -0.358658,1.024737 -0.23917,0.307448 -0.512433,0.478237 -0.819789,0.512368 l -7.94171,1.229684 c -0.375793,1.195551 -0.922319,2.493549 -1.639579,3.894 1.161312,1.639599 2.698416,3.603675 4.611315,5.892237 0.239046,0.341594 0.358599,0.683172 0.358658,1.024736 -5.9e-5,0.409909 -0.119612,0.734409 -0.358658,0.9735 -0.78569,1.024749 -2.203241,2.561853 -4.252657,4.611316 -2.015369,2.015322 -3.347525,3.022979 -3.996473,3.022973 -0.375788,6e-6 -0.734446,-0.119547 -1.075974,-0.358658 l -5.892236,-4.611315 c -1.263885,0.64901 -2.578963,1.178457 -3.945237,1.588342 -0.375777,3.689058 -0.768592,6.336292 -1.178447,7.94171 -0.239144,0.81979 -0.751512,1.229684 -1.537105,1.229684 l -9.530052,0 c -0.375765,0 -0.717343,-0.119553 -1.024737,-0.358658 -0.307448,-0.273263 -0.478237,-0.580683 -0.512368,-0.922263 l -1.178448,-7.839236 c -1.161392,-0.34157 -2.442312,-0.871017 -3.842763,-1.588342 l -6.045946,4.560078 c -0.239121,0.239111 -0.580699,0.358664 -1.024737,0.358658 -0.375751,6e-6 -0.734409,-0.136626 -1.075974,-0.409895 -4.918745,-4.542988 -7.37811,-7.275617 -7.378105,-8.197894 -5e-6,-0.307406 0.119547,-0.631906 0.358658,-0.9735 0.341573,-0.478194 1.041809,-1.383377 2.100711,-2.715552 1.058885,-1.332138 1.861595,-2.373953 2.408131,-3.125447 -0.785641,-1.502925 -1.383404,-2.903397 -1.793289,-4.201421 l -7.788,-1.229684 C 12.469045,56.024648 12.178703,55.870937 11.939598,55.597647 11.700493,55.290254 11.58094,54.948675 11.58094,54.572911 m 23.517709,-13.93642 c -2.561863,2.561881 -3.842783,5.653167 -3.842763,9.273867 -2e-5,3.620766 1.2809,6.712052 3.842763,9.273868 2.561816,2.561863 5.653102,3.842783 9.273868,3.842763 3.6207,2e-5 6.711986,-1.2809 9.273867,-3.842763 2.561798,-2.561816 3.842717,-5.653102 3.842763,-9.273868 -4.6e-5,-3.6207 -1.280965,-6.711986 -3.842763,-9.273867 -2.561881,-2.561798 -5.653167,-3.842717 -9.273867,-3.842763 -3.620766,4.6e-5 -6.712052,1.280965 -9.273868,3.842763 m 35.507129,39.093707 0,-7.173157 c -5.9e-5,-0.546516 2.544701,-1.075963 7.634289,-1.588342 0.443985,-0.990566 0.956353,-1.878671 1.537105,-2.664316 -1.742119,-3.859823 -2.613145,-6.216715 -2.613079,-7.070683 -6.6e-5,-0.13661 0.06825,-0.256163 0.204947,-0.358658 0.136566,-0.06829 0.734329,-0.409873 1.79329,-1.024737 1.058826,-0.614819 2.066483,-1.195502 3.022973,-1.742052 0.95635,-0.546502 1.468717,-0.819764 1.537105,-0.81979 0.273191,2.6e-5 1.058822,0.802735 2.356895,2.408132 1.297924,1.571284 2.186028,2.715572 2.664315,3.432868 0.68308,-0.0683 1.195448,-0.102454 1.537106,-0.102474 0.341499,2e-5 0.853867,0.03418 1.537105,0.102474 1.74197,-2.425189 3.313232,-4.338029 4.713789,-5.738526 l 0.307421,-0.102474 c 0.136546,2.6e-5 2.254333,1.195551 6.353371,3.586579 0.13654,0.102495 0.20485,0.222048 0.20494,0.358658 -9e-5,0.853968 -0.87111,3.21086 -2.61307,7.070683 0.58059,0.785645 1.09296,1.67375 1.5371,2.664316 5.08943,0.512379 7.63419,1.041826 7.63429,1.588342 l 0,7.173157 c -1e-4,0.546529 -2.54486,1.075976 -7.63429,1.588342 -0.40998,0.922264 -0.92235,1.810368 -1.5371,2.664316 1.74196,3.859836 2.61298,6.216729 2.61307,7.070683 -9e-5,0.136624 -0.0684,0.256176 -0.20494,0.358658 -4.167354,2.425199 -6.285141,3.637803 -6.353371,3.637816 -0.273348,-1.3e-5 -1.058979,-0.802722 -2.356895,-2.408132 -1.298081,-1.605429 -2.186186,-2.766796 -2.664315,-3.484105 -0.683238,0.06831 -1.195606,0.102468 -1.537105,0.102474 -0.341658,-6e-6 -0.854026,-0.03416 -1.537106,-0.102474 -0.478287,0.717309 -1.366391,1.878676 -2.664315,3.484105 -1.298073,1.60541 -2.083704,2.408119 -2.356895,2.408132 -0.06839,-1.3e-5 -2.186175,-1.212617 -6.353368,-3.637816 -0.136697,-0.102482 -0.205013,-0.222034 -0.204947,-0.358658 -6.6e-5,-0.853954 0.87096,-3.210847 2.613079,-7.070683 -0.61491,-0.853948 -1.127278,-1.742052 -1.537105,-2.664316 -5.089588,-0.512366 -7.634348,-1.041813 -7.634289,-1.588342 m 0,-52.466522 0,-7.173157 c -5.9e-5,-0.546463 2.544701,-1.07591 7.634289,-1.588342 0.443985,-0.990514 0.956353,-1.878618 1.537105,-2.664316 -1.742119,-3.859771 -2.613145,-6.2166632 -2.613079,-7.0706836 -6.6e-5,-0.1365575 0.06825,-0.25611 0.204947,-0.3586578 0.136566,-0.068241 0.734329,-0.40982 1.79329,-1.0247368 1.058826,-0.6147661 2.066483,-1.1954497 3.022973,-1.7420525 0.95635,-0.5464487 1.468717,-0.8197115 1.537105,-0.8197894 0.273191,7.79e-5 1.058822,0.8027875 2.356895,2.4081314 1.297924,1.5713369 2.186028,2.7156252 2.664315,3.4328677 0.68308,-0.06824 1.195448,-0.102401 1.537106,-0.102473 0.341499,7.2e-5 0.853867,0.03423 1.537105,0.102473 1.74197,-2.4251354 3.313232,-4.3379755 4.713789,-5.7385254 l 0.307421,-0.1024737 c 0.136546,7.79e-5 2.254333,1.1956029 6.353371,3.5865787 0.13654,0.1025478 0.20485,0.2221003 0.20494,0.3586578 -9e-5,0.8540204 -0.87111,3.2109126 -2.61307,7.0706836 0.58059,0.785698 1.09296,1.673802 1.5371,2.664316 5.08943,0.512432 7.63419,1.041879 7.63429,1.588342 l 0,7.173157 c -1e-4,0.546581 -2.54486,1.076028 -7.63429,1.588342 -0.40998,0.922316 -0.92235,1.81042 -1.5371,2.664316 1.74196,3.859889 2.61298,6.216781 2.61307,7.070683 -9e-5,0.136676 -0.0684,0.256228 -0.20494,0.358658 -4.167354,2.425252 -6.285141,3.637856 -6.353371,3.637816 -0.273348,4e-5 -1.058979,-0.80267 -2.356895,-2.408132 -1.298081,-1.605377 -2.186186,-2.766744 -2.664315,-3.484105 -0.683238,0.06836 -1.195606,0.10252 -1.537105,0.102474 -0.341658,4.6e-5 -0.854026,-0.03411 -1.537106,-0.102474 -0.478287,0.717361 -1.366391,1.878728 -2.664315,3.484105 -1.298073,1.605462 -2.083704,2.408172 -2.356895,2.408132 -0.06839,4e-5 -2.186175,-1.212564 -6.353368,-3.637816 -0.136697,-0.10243 -0.205013,-0.221982 -0.204947,-0.358658 -6.6e-5,-0.853902 0.87096,-3.210794 2.613079,-7.070683 -0.61491,-0.853896 -1.127278,-1.742 -1.537105,-2.664316 -5.089588,-0.512314 -7.634348,-1.041761 -7.634289,-1.588342 m 13.11663,48.879944 c -7.2e-5,1.810373 0.631849,3.364555 1.895763,4.662552 1.297925,1.263842 2.852107,1.895763 4.662553,1.895763 1.810287,0 3.347391,-0.631921 4.611315,-1.895763 1.297915,-1.297997 1.946915,-2.852179 1.947,-4.662552 -8.5e-5,-1.776203 -0.649085,-3.313306 -1.947,-4.611316 -1.298082,-1.297987 -2.835186,-1.946987 -4.611315,-1.947 -1.776288,1.3e-5 -3.313391,0.649013 -4.611316,1.947 -1.298073,1.29801 -1.947072,2.835113 -1.947,4.611316 m 0,-52.466523 c -7.2e-5,1.810426 0.631849,3.364608 1.895763,4.662553 1.297925,1.263895 2.852107,1.895815 4.662553,1.895763 1.810287,5.2e-5 3.347391,-0.631868 4.611315,-1.895763 1.297915,-1.297945 1.946915,-2.852127 1.947,-4.662553 -8.5e-5,-1.776149 -0.649085,-3.313253 -1.947,-4.611315 -1.298082,-1.297935 -2.835186,-1.946934 -4.611315,-1.947 -1.776288,6.6e-5 -3.313391,0.649065 -4.611316,1.947 -1.298073,1.298062 -1.947072,2.835166 -1.947,4.611315"
         style=""
         id="path2987" /></g><g
       style="font-size:72.62850952px;font-style:normal;font-weight:normal;line-height:125%;letter-spacing:0px;word-spacing:0px;fill:#000000;fill-opacity:1;stroke:none;font-family:Sans"
       id="text2995"><path
         d="m 156.60746,76.142532 -21.78856,0 c -1.76069,-0.440172 -2.86112,-1.540603 -3.30129,-3.301296 l 5.28207,-1.980777 17.827,0 1.98078,5.282073 m -25.08985,-4.621814 0,-17.166739 1.32052,-1.320518 3.96155,3.961555 0,12.544925 -5.28207,1.980777 m 23.10907,-37.634773 -17.76097,0 -5.28208,-1.980778 c 0.44017,-1.760645 1.5406,-2.861076 3.3013,-3.301295 l 21.72253,0 -1.98078,5.282073 m -17.827,1.320518 0,12.544925 -3.96155,3.961555 -1.32052,-1.320519 0,-17.166738 5.28207,1.980777"
         style="font-family:Digital-7 Mono;-inkscape-font-specification:Digital-7 Mono"
         id="path2990" /><path
         d="m 185.69755,33.885945 -14.5257,0 -2.64104,-2.641037 2.64104,-2.641036 14.5257,0 2.64104,2.641036 -2.64104,2.641037 m 1.32052,13.865443 0,-13.865443 1.98078,-1.980778 3.30129,3.301296 0,15.185961 -1.32052,1.320519 -3.96155,-3.961555 m 3.96155,5.282073 1.32052,1.320518 0,15.185962 -3.30129,3.301295 -1.98078,-1.980777 0,-13.865443 3.96155,-3.961555 m -25.08985,-1.320518 -1.32051,-1.320519 0,-15.185961 3.30129,-3.301296 1.98078,1.980778 0,13.865443 -3.96156,3.961555 m 22.44882,21.788553 -2.64104,2.641036 -14.5257,0 -2.64104,-2.641036 2.64104,-2.641037 14.5257,0 2.64104,2.641037 m -18.48726,-16.50648 0,13.865443 -1.98078,1.980777 -3.30129,-3.301295 0,-15.185962 1.32051,-1.320518 3.96156,3.961555"
         style="font-family:Digital-7 Mono;-inkscape-font-specification:Digital-7 Mono"
         id="path2992" /><path
         d="m 202.90298,56.995016 0,13.865443 -1.98078,5.282073 c -1.7607,-0.440172 -2.86113,-1.540603 -3.3013,-3.301296 l 0,-18.487257 1.32052,-1.320518 3.96156,3.961555 m 15.84622,-8.583369 -4.62182,0 -9.90389,-9.903888 0,-3.961555 3.96156,0 10.56415,10.564147 0,3.301296 m 5.28207,4.621814 1.32052,1.320518 0,18.487257 c -0.4402,1.760693 -1.54064,2.861124 -3.3013,3.301296 l -1.98078,-5.282073 0,-13.865443 3.96156,-3.961555 m -3.96156,-4.621814 0,-13.865443 1.98078,-5.282073 c 1.76066,0.440219 2.8611,1.54065 3.3013,3.301296 l 0,18.487257 -1.32052,1.320518 -3.96156,-3.961555 m -21.12829,3.961555 -1.32052,-1.320518 0,-18.487257 c 0.44017,-1.760646 1.5406,-2.861077 3.3013,-3.301296 l 1.98078,5.282073 0,13.865443 -3.96156,3.961555"
         style="font-family:Digital-7 Mono;-inkscape-font-specification:Digital-7 Mono"
         id="path2994" /><path
         d="m 253.12136,49.732165 2.64103,2.641037 -2.64103,2.641037 -17.16674,0 -2.64104,-2.641037 2.64104,-2.641037 17.16674,0 m 0.66026,-15.84622 -17.76097,0 -5.28208,-1.980778 c 0.44017,-1.760645 1.5406,-2.861076 3.3013,-3.301295 l 21.72252,0 -1.98077,5.282073 m -17.827,1.320518 0,12.544925 -3.96156,3.961555 -1.32051,-1.320519 0,-17.166738 5.28207,1.980777 m 0,21.788553 0,13.865443 -1.98078,5.282073 c -1.76069,-0.440172 -2.86112,-1.540603 -3.30129,-3.301296 l 0,-18.487257 1.32051,-1.320518 3.96156,3.961555"
         style="font-family:Digital-7 Mono;-inkscape-font-specification:Digital-7 Mono"
         id="path2996" /><path
         d="m 274.28834,47.751388 0,-13.865443 1.98078,-5.282073 c 1.76068,0.440219 2.86111,1.54065 3.3013,3.301295 l 0,18.487257 -1.32052,1.320519 -3.96156,-3.961555 m 3.96156,4.621814 1.32052,1.320518 0,18.487257 c -0.44019,1.760694 -1.54062,2.861124 -3.3013,3.301296 l -1.98078,-5.282073 0,-13.865443 3.96156,-3.961555"
         style="font-family:Digital-7 Mono;-inkscape-font-specification:Digital-7 Mono"
         id="path2998" /><path
         d="m 319.22466,49.732165 2.64104,2.641037 -2.64104,2.641037 -5.94233,0 -2.64104,-2.641037 2.64104,-2.641037 5.94233,0 m 3.96156,3.301296 1.32051,1.320518 0,18.487257 c -0.4402,1.760693 -1.54063,2.861124 -3.30129,3.301296 l -1.98078,-5.282073 0,-13.865443 3.96156,-3.961555 m -3.3013,23.109071 -19.80778,0 c -1.76069,-0.440172 -2.86112,-1.540603 -3.30129,-3.301296 l 5.28207,-1.980777 15.84622,0 1.98078,5.282073 m -23.10907,-4.621814 0,-17.166739 1.32052,-1.320518 3.96155,3.961555 0,12.544925 -5.28207,1.980777 m 23.10907,-37.634773 -17.76097,0 -5.28208,-1.980778 c 0.44017,-1.760645 1.5406,-2.861076 3.3013,-3.301295 l 21.72253,0 -1.98078,5.282073 m -17.827,1.320518 0,12.544925 -3.96155,3.961555 -1.32052,-1.320519 0,-17.166738 5.28207,1.980777"
         style="font-family:Digital-7 Mono;-inkscape-font-specification:Digital-7 Mono"
         id="path3000" /><path
         d="m 356.23785,53.033461 1.32052,1.320518 0,18.487257 c -0.4402,1.760693 -1.54063,2.861124 -3.3013,3.301296 l -1.98077,-5.282073 0,-13.865443 3.96155,-3.961555 m -3.30129,23.109071 -19.80778,0 c -1.7607,-0.440172 -2.86113,-1.540603 -3.3013,-3.301296 l 5.28208,-1.980777 15.84622,0 1.98078,5.282073 m -23.10908,-4.621814 0,-17.166739 1.32052,-1.320518 3.96156,3.961555 0,12.544925 -5.28208,1.980777 m 22.44882,-23.76933 0,-13.865443 1.98077,-5.282073 c 1.76067,0.440219 2.8611,1.54065 3.3013,3.301295 l 0,18.487257 -1.32052,1.320519 -3.96155,-3.961555 m -21.1283,4.621814 -1.32052,-1.320518 0,-18.487257 c 0.44017,-1.760646 1.5406,-2.861077 3.3013,-3.301296 l 1.98078,5.282073 0,13.865443 -3.96156,3.961555"
         style="font-family:Digital-7 Mono;-inkscape-font-specification:Digital-7 Mono"
         id="path3002" /><path
         d="m 385.32795,49.732165 2.64103,2.641037 -2.64103,2.641037 -17.16674,0 -2.64104,-2.641037 2.64104,-2.641037 17.16674,0 m -15.84622,6.602592 3.96155,0 17.16674,17.166739 c -0.88037,1.760692 -2.64106,2.641036 -5.28207,2.641036 l -15.84622,-15.84622 0,-3.961555 m -1.32052,0.660259 0,13.865443 -1.98078,5.282073 c -1.76069,-0.440172 -2.86113,-1.540603 -3.3013,-3.301296 l 0,-18.487257 1.32052,-1.320518 3.96156,3.961555 m 15.84622,-23.109071 -15.7802,0 -5.28207,-1.980778 c 0.44017,-1.760645 1.5406,-2.861076 3.3013,-3.301295 l 19.74175,0 -1.98078,5.282073 m 1.32052,13.865443 0,-13.865443 1.98077,-5.282073 c 1.76067,0.440219 2.8611,1.54065 3.3013,3.301295 l 0,18.487257 -1.32052,1.320519 -3.96155,-3.961555 m -17.16674,-12.544925 0,12.544925 -3.96156,3.961555 -1.32052,-1.320519 0,-17.166738 5.28208,1.980777"
         style="font-family:Digital-7 Mono;-inkscape-font-specification:Digital-7 Mono"
         id="path3004" /><path
         d="m 418.3796,49.732165 2.64103,2.641037 -2.64103,2.641037 -17.16674,0 -2.64104,-2.641037 2.64104,-2.641037 17.16674,0 m 3.96155,3.301296 1.32052,1.320518 0,18.487257 c -0.4402,1.760693 -1.54063,2.861124 -3.30129,3.301296 l -1.98078,-5.282073 0,-13.865443 3.96155,-3.961555 m -5.28207,-19.147516 -15.78019,0 -5.28208,-1.980778 c 0.44017,-1.760645 1.5406,-2.861076 3.3013,-3.301295 l 19.74175,0 -1.98078,5.282073 m -15.84622,1.320518 0,12.544925 -3.96156,3.961555 -1.32051,-1.320519 0,-17.166738 5.28207,1.980777 m 17.16674,12.544925 0,-13.865443 1.98078,-5.282073 c 1.76066,0.440219 2.86109,1.54065 3.30129,3.301295 l 0,18.487257 -1.32052,1.320519 -3.96155,-3.961555 m -17.16674,9.243628 0,13.865443 -1.98078,5.282073 c -1.76069,-0.440172 -2.86112,-1.540603 -3.30129,-3.301296 l 0,-18.487257 1.32051,-1.320518 3.96156,3.961555"
         style="font-family:Digital-7 Mono;-inkscape-font-specification:Digital-7 Mono"
         id="path3006" /><path
         d="m 442.84786,53.033461 2.64104,2.641037 0,17.166738 c -0.44019,1.760693 -1.54062,2.861124 -3.30129,3.301296 l -1.98078,-5.282073 0,-15.185961 2.64103,-2.641037 m -2.64103,-3.961555 0,-13.865443 5.28207,0 0,13.865443 -2.64104,2.641037 -2.64103,-2.641037 m -5.87631,-15.185961 -5.28207,-1.980778 c 0.44017,-1.760645 1.5406,-2.861076 3.30129,-3.301295 l 21.06227,0 c 1.76066,0.440219 2.86109,1.54065 3.3013,3.301295 l -5.28208,1.980778 -17.10071,0"
         style="font-family:Digital-7 Mono;-inkscape-font-specification:Digital-7 Mono"
         id="path3008" /><path
         d="m 472.59823,47.751388 0,-13.865443 1.98078,-5.282073 c 1.76068,0.440219 2.86111,1.54065 3.3013,3.301295 l 0,18.487257 -1.32052,1.320519 -3.96156,-3.961555 m 3.96156,4.621814 1.32052,1.320518 0,18.487257 c -0.44019,1.760694 -1.54062,2.861124 -3.3013,3.301296 l -1.98078,-5.282073 0,-13.865443 3.96156,-3.961555"
         style="font-family:Digital-7 Mono;-inkscape-font-specification:Digital-7 Mono"
         id="path3010" /><path
         d="m 516.21402,33.885945 -14.5257,0 -2.64104,-2.641037 2.64104,-2.641036 14.5257,0 2.64103,2.641036 -2.64103,2.641037 m 1.32052,13.865443 0,-13.865443 1.98077,-1.980778 3.3013,3.301296 0,15.185961 -1.32052,1.320519 -3.96155,-3.961555 m 3.96155,5.282073 1.32052,1.320518 0,15.185962 -3.3013,3.301295 -1.98077,-1.980777 0,-13.865443 3.96155,-3.961555 m -25.08985,-1.320518 -1.32052,-1.320519 0,-15.185961 3.3013,-3.301296 1.98078,1.980778 0,13.865443 -3.96156,3.961555 m 22.44881,21.788553 -2.64103,2.641036 -14.5257,0 -2.64104,-2.641036 2.64104,-2.641037 14.5257,0 2.64103,2.641037 m -18.48725,-16.50648 0,13.865443 -1.98078,1.980777 -3.3013,-3.301295 0,-15.185962 1.32052,-1.320518 3.96156,3.961555"
         style="font-family:Digital-7 Mono;-inkscape-font-specification:Digital-7 Mono"
         id="path3012" /><path
         d="m 533.41943,56.995016 0,13.865443 -1.98077,5.282073 c -1.7607,-0.440172 -2.86113,-1.540603 -3.3013,-3.301296 l 0,-18.487257 1.32052,-1.320518 3.96155,3.961555 m 15.84622,-8.583369 -4.62181,0 -9.90389,-9.903888 0,-3.961555 3.96156,0 10.56414,10.564147 0,3.301296 m 5.28208,4.621814 1.32051,1.320518 0,18.487257 c -0.4402,1.760693 -1.54063,2.861124 -3.30129,3.301296 l -1.98078,-5.282073 0,-13.865443 3.96156,-3.961555 m -3.96156,-4.621814 0,-13.865443 1.98078,-5.282073 c 1.76066,0.440219 2.86109,1.54065 3.30129,3.301296 l 0,18.487257 -1.32051,1.320518 -3.96156,-3.961555 m -21.12829,3.961555 -1.32052,-1.320518 0,-18.487257 c 0.44017,-1.760646 1.5406,-2.861077 3.3013,-3.301296 l 1.98077,5.282073 0,13.865443 -3.96155,3.961555"
         style="font-family:Digital-7 Mono;-inkscape-font-specification:Digital-7 Mono"
         id="path3014" /></g></g></svg>