<?xml version="1.0" encoding="utf-8"?>
<!-- Generator: Adobe Illustrator 16.0.3, SVG Export Plug-In . SVG Version: 6.00 Build 0)  -->
<!DOCTYPE svg PUBLIC "-//W3C//DTD SVG 1.1//EN" "http://www.w3.org/Graphics/SVG/1.1/DTD/svg11.dtd">
<svg version="1.1" id="Ebene_3" xmlns="http://www.w3.org/2000/svg" xmlns:xlink="http://www.w3.org/1999/xlink" x="0px" y="0px"
	 width="566.927px" height="124.854px" viewBox="0 0 566.927 124.854" enable-background="new 0 0 566.927 124.854"
	 xml:space="preserve">
<g>
	<g>
		<path fill="#1D1D1B" d="M33.98,108.929l-0.068-41.587h5.384v49.797h-5.384L5.249,75.215l0.135,41.924H0V67.342h5.652
			L33.98,108.929z"/>
		<path fill="#1D1D1B" d="M45.31,67.342h26.419v4.912H50.827v17.294h20.767v4.912H50.827v17.767h20.902v4.912H45.31V67.342z"/>
		<path fill="#1D1D1B" d="M74.242,92.375c0-15.341,11.911-25.908,25.976-25.908c14.602,0,25.975,11.171,25.975,25.773
			c0,14.604-11.305,25.774-25.975,25.774c-14.738,0-25.976-11.373-25.976-25.572V92.375z M79.827,92.24
			c0,11.709,8.815,20.861,20.458,20.861c11.776,0,20.39-9.486,20.39-20.861c0-11.373-8.613-20.861-20.457-20.861
			c-11.709,0-20.391,9.286-20.391,20.792V92.24z"/>
		<path fill="#1D1D1B" d="M172.16,80.262c-1.548-2.153-3.433-3.97-5.586-5.383c-3.23-2.221-7.133-3.5-11.574-3.5
			c-10.902,0-20.39,8.344-20.39,20.792c0,12.652,9.556,20.996,20.457,20.996c5.249,0,9.892-1.815,13.324-4.508
			c3.5-2.76,5.922-6.527,6.73-10.432h-27.104v-4.576h33.564c-0.067,2.895-0.74,6.527-2.221,9.624
			c-4.307,9.354-14.267,14.804-24.293,14.804c-14.535,0-26.042-11.17-26.042-25.908c0-14.938,11.709-25.706,26.109-25.706
			c10.094,0,19.448,5.653,23.351,13.795h-6.325V80.262z"/>
		<path fill="#1D1D1B" d="M184.25,67.342h27.59v4.912h-22.071v17.294h21.937v4.912h-21.937v17.767h22.071v4.912h-27.59V67.342z"/>
		<path fill="#1D1D1B" d="M214.061,92.375c0-15.341,11.911-25.908,25.975-25.908c14.603,0,25.975,11.171,25.975,25.773
			c0,14.604-11.305,25.774-25.975,25.774c-14.737,0-25.975-11.373-25.975-25.572V92.375z M219.646,92.24
			c0,11.709,8.815,20.861,20.457,20.861c11.777,0,20.39-9.486,20.39-20.861c0-11.373-8.613-20.861-20.457-20.861
			c-11.709,0-20.39,9.286-20.39,20.792V92.24L219.646,92.24z"/>
	</g>
	<g>
		<path fill="#1D1D1B" d="M327.466,92.375c0-15.341,11.91-25.908,25.976-25.908c14.603,0,25.976,11.171,25.976,25.773
			c0,14.604-11.305,25.774-25.976,25.774c-14.737,0-25.976-11.373-25.976-25.572V92.375z M333.05,92.24
			c0,11.709,8.816,20.861,20.459,20.861c11.777,0,20.391-9.486,20.391-20.861c0-11.373-8.613-20.861-20.458-20.861
			c-11.708,0-20.392,9.286-20.392,20.792V92.24z"/>
		<path fill="#1D1D1B" d="M435.001,103.748c-3.229,7.672-11.91,14.268-22.879,14.268c-14.736,0-25.975-11.373-25.975-25.773
			c0-14.2,10.969-25.774,25.906-25.774c12.314,0,20.053,8.21,22.947,14.535h-5.99c-1.684-2.96-7.334-9.623-16.957-9.623
			c-11.641,0-20.389,9.219-20.389,20.793c0,11.777,8.813,20.929,20.389,20.929c10.432,0,15.746-7.47,16.957-9.354H435.001z"/>
		<path fill="#1D1D1B" d="M489.644,67.342h27.592v4.912h-22.072v17.294h21.936v4.912h-21.936v17.767h22.072v4.912h-27.592V67.342
			L489.644,67.342z"/>
		<path fill="#1D1D1B" d="M545.228,72.254h-16.047v-4.912h37.746v4.912h-16.113v44.885h-5.586V72.254z"/>
	</g>
	<path fill="#1D1D1B" d="M475.574,117.139h6.932l-25.871-24.968l23.783-24.83h-6.055l-26.105,26.998v-6.396V67.342h-5.518v49.797
		h5.518v-16.228l5.08-5.306L475.574,117.139z"/>
	<path fill="none" d="M302.794,120.945c-10.838-21.554-21.646-43.05-32.461-64.561c0.06-0.042,0.108-0.083,0.163-0.11
		c2.697-1.38,5.395-2.76,8.091-4.138c3.812-1.946,7.625-3.883,11.433-5.839c4.003-2.056,8.21-3.293,12.751-3.146
		c3.091,0.1,5.925,0.999,8.411,2.895c2.194,1.674,3.747,3.848,4.937,6.306c1.129,2.332,1.933,4.759,1.979,7.377
		c0.063,3.636-1.036,6.924-2.985,9.977c-1.306,2.042-2.796,3.921-4.544,5.584c-1.204,1.146-2.491,2.204-3.739,3.299
		c-4.57-3.241-9.041-6.41-13.531-9.593c0.852-3.113,1.693-6.198,2.539-9.291c4.361,0,8.662,0,12.94,0c0-3.277,0-6.527,0-9.823
		c-6.682,0.064-13.29,0.127-19.897,0.193c-2.408,6.801-4.803,13.565-7.201,20.342c7.736,6.398,15.445,12.774,23.16,19.157
		c3.066-1.169,5.974-2.609,8.712-4.387c4.364-2.835,8-6.396,10.671-10.881c2.482-4.169,3.727-8.71,3.796-13.559
		c0.042-3.005-0.414-5.943-1.298-8.823c-1.172-3.816-2.987-7.27-5.754-10.165c-5.19-5.433-11.553-8.353-19.082-8.621
		c-4.45-0.158-8.66,0.847-12.631,2.842c-1.789,0.9-3.541,1.872-5.342,2.744c-4.01,1.939-8.04,3.837-12.062,5.748
		c-3.547,1.686-7.095,3.366-10.642,5.047c-1.199,0.569-2.399,1.14-3.6,1.71c12.046,24.561,24.078,49.093,36.104,73.624
		C296.762,123.541,299.748,122.255,302.794,120.945z"/>
	<path fill="#F10000" d="M302.794,120.945c-3.047,1.311-6.032,2.596-9.086,3.909c-12.025-24.53-24.058-49.063-36.104-73.624
		c1.201-0.57,2.4-1.141,3.6-1.71c3.547-1.682,7.095-3.362,10.642-5.047c4.022-1.911,8.052-3.809,12.062-5.748
		c1.801-0.872,3.553-1.844,5.342-2.744c3.971-1.996,8.181-3,12.631-2.842c7.529,0.268,13.892,3.188,19.082,8.621
		c2.767,2.895,4.582,6.348,5.754,10.165c0.884,2.879,1.34,5.818,1.298,8.823c-0.069,4.849-1.313,9.39-3.796,13.559
		c-2.672,4.484-6.307,8.045-10.672,10.881c-2.737,1.776-5.645,3.217-8.711,4.386c-7.715-6.382-15.424-12.758-23.16-19.156
		c2.398-6.777,4.793-13.541,7.201-20.342c6.607-0.065,13.217-0.129,19.897-0.193c0,3.296,0,6.546,0,9.823c-4.278,0-8.579,0-12.94,0
		c-0.846,3.093-1.688,6.178-2.539,9.291c4.49,3.183,8.961,6.352,13.531,9.593c1.248-1.095,2.535-2.153,3.739-3.299
		c1.748-1.663,3.238-3.542,4.543-5.584c1.95-3.053,3.05-6.341,2.986-9.977c-0.048-2.618-0.851-5.045-1.979-7.377
		c-1.188-2.458-2.742-4.632-4.937-6.306c-2.486-1.896-5.32-2.794-8.411-2.895c-4.541-0.147-8.748,1.089-12.751,3.146
		c-3.806,1.956-7.621,3.893-11.433,5.839c-2.697,1.378-5.395,2.758-8.091,4.138c-0.055,0.028-0.104,0.069-0.163,0.11
		C281.149,77.895,291.957,99.391,302.794,120.945z"/>
	<path fill="#F10000" d="M310.439,26.526c-2.162-0.445-4.264-0.879-6.423-1.324c1.257-8.395,2.514-16.788,3.774-25.202
		c3.935,0.574,7.832,1.145,11.791,1.724C316.526,10.012,313.488,18.253,310.439,26.526z"/>
	<path fill="#F10000" d="M345.539,19.679c2.088,3.381,4.147,6.72,6.241,10.112c-6.819,4.222-13.635,8.44-20.472,12.671
		c-1.434-2.14-2.84-4.241-4.278-6.391C333.195,30.612,339.347,25.163,345.539,19.679z"/>
	<path fill="#F10000" d="M329.069,6.482c3.017,2.085,5.979,4.134,8.954,6.19c-5.377,6.412-10.738,12.805-16.136,19.239
		c-1.888-1.165-3.759-2.319-5.683-3.507C320.475,21.129,324.753,13.837,329.069,6.482z"/>
</g>
</svg>
