<?xml version="1.0" encoding="utf-8"?>
<!-- Generator: Adobe Illustrator 16.0.0, SVG Export Plug-In . SVG Version: 6.00 Build 0)  -->
<!DOCTYPE svg PUBLIC "-//W3C//DTD SVG 1.1//EN" "http://www.w3.org/Graphics/SVG/1.1/DTD/svg11.dtd">
<svg version="1.1"
	 id="Ebene_1" xmlns:cc="http://creativecommons.org/ns#" xmlns:dc="http://purl.org/dc/elements/1.1/" xmlns:rdf="http://www.w3.org/1999/02/22-rdf-syntax-ns#"
	 xmlns="http://www.w3.org/2000/svg" xmlns:xlink="http://www.w3.org/1999/xlink" x="0px" y="0px" width="566.93px"
	 height="202.382px" viewBox="0 0 566.93 202.382" enable-background="new 0 0 566.93 202.382" xml:space="preserve">
<g>
	<path fill="#17569B" d="M126.595,99.044h39.796c16.265,0,29.501-13.238,29.501-29.5c0-16.261-13.236-29.42-29.501-29.42h-10.376
		c-0.817,0-1.475-0.652-1.475-1.471c0-0.898,0.654-1.551,1.475-1.551h39.716l0.082-12.423h-39.798
		c-7.684,0-13.895,6.212-13.895,13.894c0,7.764,6.209,14.056,13.895,14.056h10.376c9.315,0,16.918,7.602,16.918,16.917
		c0,9.317-7.603,16.834-16.918,16.834h-39.796V99.044L126.595,99.044z"/>
	<path fill="#17569B" d="M126.595,83.518h39.796c7.765,0,13.977-6.292,13.977-13.974s-6.211-13.974-13.977-13.974h-10.376
		c-9.315,0-16.835-7.682-16.835-16.998c0-9.317,7.521-16.834,16.835-16.834h39.796l-0.082-12.585h-39.718
		c-16.262,0-29.419,13.156-29.419,29.5c0,16.262,13.156,29.42,29.419,29.42h10.297c0.815,0,1.472,0.654,1.472,1.471
		s-0.655,1.471-1.472,1.471h-39.717L126.595,83.518L126.595,83.518z"/>
	<path fill="#17569B" d="M226.701,86.459c-6.862,0-12.5-5.475-12.5-12.503V33.994c0-6.7,5.639-12.339,12.5-12.339h42.495V9.153
		h-42.495c-13.809,0-25.005,11.196-25.005,25.007v39.796c0,13.812,11.194,25.008,25.005,25.008h42.333V86.461L226.701,86.459
		L226.701,86.459z"/>
	<path fill="#17569B" d="M217.222,34.158c0-5.23,4.249-9.562,9.479-9.562h42.495V37.1h-36.609c-2.943,0-2.943,2.94-2.943,2.94
		h30.562v12.504h-42.983V34.158L217.222,34.158z"/>
	<path fill="#17569B" d="M226.701,83.438c-5.229,0-9.479-4.25-9.479-9.48v-18.39h42.982V68.07h-30.562
		c0,2.942,2.94,2.942,2.94,2.942h36.447v12.423L226.701,83.438L226.701,83.438z"/>
	<path fill="#17569B" d="M299.024,86.459c-6.946,0-12.586-5.64-12.586-12.503V34.16c0-6.866,5.642-12.505,12.506-12.505h41.188
		V9.153h-41.271c-13.812,0-25.005,11.196-25.005,25.007v39.796c0,13.812,11.273,25.008,25.088,25.008h41.188v-58.92h-35.388v12.502
		h22.884V86.46L299.024,86.459L299.024,86.459z"/>
	<path fill="#17569B" d="M289.378,73.956c0,5.23,4.334,9.563,9.563,9.563h25.741V55.488h-19.938v12.585h7.438v2.942h-7.354
		c-1.637,0-2.942-1.387-2.942-2.942V40.042c0,0,0-2.943,2.942-2.943h35.302V24.595h-41.188c-5.229,0-9.563,4.332-9.563,9.563
		L289.378,73.956L289.378,73.956z"/>
	<path fill="#17569B" d="M378.783,24.436c0.57-1.634,2.043-2.778,3.843-2.778c1.797,0,3.271,1.146,3.844,2.778l19.938,59.166
		h-29.171V69.708h9.809l-4.414-13.159l-14.386,42.414h-14.709L378.783,24.436L378.783,24.436z"/>
	<path fill="#17569B" d="M410.492,86.459h-33.261v12.503h50.585L401.504,20.92c-2.291-7.6-9.892-13.239-18.882-13.239
		c-8.985,0-16.586,5.558-18.877,13.239l-26.562,78.042h13.241l25.737-75.917c1.063-2.534,3.515-4.25,6.455-4.25
		c2.862,0,5.316,1.716,6.377,4.25L410.492,86.459L410.492,86.459z"/>
	<path fill="#17569B" d="M420.461,19.531c2.612,0,5.065-0.982,6.862-2.862c1.879-1.878,2.855-4.33,2.855-6.945
		c0-2.616-0.979-5.065-2.855-6.866c-1.797-1.878-4.25-2.86-6.862-2.86c-5.395,0-9.811,4.332-9.811,9.726
		c0,2.615,1.063,5.065,2.856,6.945C415.393,18.551,417.844,19.531,420.461,19.531z M412.041,9.725c0-2.207,0.903-4.332,2.455-5.967
		c1.55-1.552,3.677-2.452,5.966-2.452c2.207,0,4.332,0.898,5.969,2.452c1.553,1.635,2.451,3.759,2.451,5.967
		c0,4.656-3.761,8.417-8.416,8.417c-2.289,0-4.418-0.818-5.968-2.452C412.944,14.136,412.041,12.013,412.041,9.725z"/>
	<path fill="#17569B" d="M417.926,10.541v4.656h-1.392V4.329h4.011c1.467,0,2.362,0,3.268,0.653
		c0.734,0.572,1.145,1.472,1.145,2.535c0,2.533-2.043,2.86-2.612,2.943l3.021,4.738h-1.717l-2.941-4.656L417.926,10.541
		L417.926,10.541z M417.926,9.397h2.858c0.49,0,0.896,0,1.31-0.164c1.062-0.245,1.391-0.98,1.391-1.716
		c0-0.247-0.082-1.063-0.654-1.554c-0.569-0.489-1.307-0.409-2.125-0.409h-2.778L417.926,9.397L417.926,9.397z"/>
	<g>
		<path fill="#FF0000" d="M13.401,144.643v-10.875c0-9.667,4.833-14.5,14.5-14.5h65.25v14.5h-65.25v10.875h50.75
			c9.667,0,14.5,4.833,14.5,14.501v10.875c0,9.667-4.833,14.5-14.5,14.5h-65.25v-14.5h65.25v-10.875h-50.75
			C18.234,159.144,13.401,154.311,13.401,144.643z"/>
		<path fill="#FF0000" d="M100.401,170.019v-36.251c0-9.667,4.833-14.5,14.5-14.5h65.25v14.5h-65.25v36.251h50.75v-10.875h-29
			v-14.501h43.5v39.876h-65.25C105.234,184.519,100.401,179.686,100.401,170.019z"/>
		<path fill="#FF0000" d="M187.402,159.144v-14.501h25.375v14.501H187.402z"/>
		<path fill="#FF0000" d="M220.027,184.519v-14.5h21.75v-36.251h-21.75v-14.5h39.875v50.751h21.751v14.5H220.027z"/>
		<path fill="#FF0000" d="M372.277,170.019c0,9.667-4.834,14.5-14.5,14.5h-54.375c-9.669,0-14.5-4.833-14.5-14.5v-36.251
			c0-9.667,4.831-14.5,14.5-14.5h54.375c9.666,0,14.5,4.833,14.5,14.5V170.019z M357.777,170.019v-36.251h-54.375v36.251H357.777z"
			/>
		<path fill="#FF0000" d="M462.902,170.019c0,9.667-4.834,14.5-14.5,14.5h-54.375c-9.667,0-14.5-4.833-14.5-14.5v-36.251
			c0-9.667,4.833-14.5,14.5-14.5h54.375c9.666,0,14.5,4.833,14.5,14.5V170.019z M448.402,170.019v-36.251h-54.375v36.251H448.402z"
			/>
		<path fill="#FF0000" d="M553.527,170.019c0,9.667-4.833,14.5-14.5,14.5h-54.375c-9.667,0-14.5-4.833-14.5-14.5v-36.251
			c0-9.667,4.833-14.5,14.5-14.5h54.375c9.667,0,14.5,4.833,14.5,14.5V170.019z M539.027,170.019v-36.251h-54.375v36.251H539.027z"
			/>
	</g>
</g>
</svg>
