<?xml version="1.0" encoding="UTF-8" standalone="no"?>
<!DOCTYPE svg PUBLIC "-//W3C//DTD SVG 20010904//EN" "http://www.w3.org/TR/2001/REC-SVG-20010904/DTD/svg10.dtd">
<svg version="1.0" xmlns="http://www.w3.org/2000/svg" width="300.000000pt" height="80.000000pt" viewBox="0 0 300.000000 80.000000" preserveAspectRatio="xMidYMid meet">
<metadata>
Created by potrace 1.10, written by Peter Selinger 2001-2011
</metadata>
<g transform="translate(0.000000,80.000000) scale(0.100000,-0.100000)" fill="#000000" stroke="none">
<path d="M1643 606 c-79 -93 -143 -173 -143 -177 0 -5 26 -9 58 -9 55 0 60 2 102 45 42 43 80 59 80 33 0 -7 -16 -28 -35 -48 l-36 -37 -2 -191 -2 -192 63 0 62 0 0 195 0 195 33 0 c27 0 44 11 97 65 l64 65 -96 0 -97 0 -3 112 -3 112 -142 -168z"/>
<path d="M52 562 c29 -41 452 -532 459 -532 3 0 71 75 150 168 78 92 182 213 231 269 48 56 88 104 88 107 0 3 -42 6 -92 6 l-93 1 -162 -168 c-152 -159 -163 -167 -179 -151 -16 16 -13 22 64 105 44 48 106 113 136 143 31 30 56 58 56 62 0 4 -151 8 -336 8 -323 0 -335 -1 -322 -18z"/>
<path d="M912 403 c-66 -32 -112 -109 -112 -188 0 -16 11 -53 24 -81 56 -121 207 -151 305 -61 53 49 76 151 50 226 l-12 33 -53 -53 c-30 -29 -54 -59 -54 -66 0 -22 -39 -53 -65 -53 -14 0 -25 3 -25 8 0 4 38 45 85 92 47 47 85 90 85 97 0 7 -20 24 -43 38 -52 30 -133 34 -185 8z m102 -121 c3 -5 -12 -26 -33 -46 -41 -40 -58 -36 -41 8 12 32 62 57 74 38z"/>
<path d="M1335 403 c-85 -44 -124 -130 -103 -226 25 -117 161 -192 258 -142 109 54 151 160 108 268 l-11 28 -53 -52 c-30 -30 -54 -61 -54 -70 0 -21 -32 -49 -56 -49 -48 0 -82 58 -56 96 16 24 51 35 73 23 19 -10 27 -5 70 37 26 26 46 51 43 56 -3 4 -23 17 -44 28 -48 24 -132 26 -175 3z"/>
<path d="M1880 225 l0 -195 60 0 60 0 0 125 0 125 48 0 c46 0 48 2 104 68 l56 67 -65 3 -66 3 -64 -71 c-67 -73 -80 -80 -90 -54 -4 10 12 34 48 70 l53 54 -72 0 -72 0 0 -195z"/>
<path d="M2238 391 c-106 -67 -119 -231 -26 -318 107 -101 279 -48 318 97 13 48 6 117 -13 144 -11 16 -18 11 -65 -43 -29 -32 -52 -64 -52 -69 0 -16 -36 -42 -58 -42 -12 0 -22 3 -22 6 0 3 38 47 85 97 82 88 84 91 67 110 -48 55 -162 64 -234 18z m122 -108 c-1 -9 -68 -83 -75 -83 -15 0 -2 44 20 65 23 24 55 34 55 18z"/>
<path d="M2522 369 c23 -28 60 -73 82 -100 l38 -48 -74 -88 c-41 -48 -77 -92 -80 -98 -4 -6 19 -9 63 -7 l68 4 60 64 c57 61 91 80 91 51 0 -7 -22 -37 -50 -67 -27 -30 -50 -54 -50 -55 0 0 65 0 145 0 80 0 145 2 145 5 0 3 -34 46 -75 95 -41 50 -75 93 -75 98 0 4 35 49 77 100 l77 92 -65 3 -64 3 -68 -70 c-37 -39 -72 -71 -77 -71 -23 0 -20 25 7 53 15 18 39 44 52 60 l24 27 -147 0 -148 0 44 -51z"/>
</g>
</svg>