<?xml version="1.0" encoding="UTF-8" standalone="no"?>
<svg
   xmlns:dc="http://purl.org/dc/elements/1.1/"
   xmlns:cc="http://creativecommons.org/ns#"
   xmlns:rdf="http://www.w3.org/1999/02/22-rdf-syntax-ns#"
   xmlns:svg="http://www.w3.org/2000/svg"
   xmlns="http://www.w3.org/2000/svg"
   xmlns:xlink="http://www.w3.org/1999/xlink"
   xmlns:sodipodi="http://sodipodi.sourceforge.net/DTD/sodipodi-0.dtd"
   xmlns:inkscape="http://www.inkscape.org/namespaces/inkscape"
   xml:space="preserve"
   viewBox="-64 344.8 482 105.2"
   y="0px"
   x="0px"
   id="svg7148"
   version="1.1"
   sodipodi:docname="logo500.svg"
   inkscape:version="0.92.4 (5da689c313, 2019-01-14)"><sodipodi:namedview
   pagecolor="#ffffff"
   bordercolor="#666666"
   borderopacity="1"
   objecttolerance="10"
   gridtolerance="10"
   guidetolerance="10"
   inkscape:pageopacity="0"
   inkscape:pageshadow="2"
   inkscape:window-width="1920"
   inkscape:window-height="1014"
   id="namedview33"
   showgrid="false"
   inkscape:zoom="2.0421009"
   inkscape:cx="130.67143"
   inkscape:cy="-29.837261"
   inkscape:window-x="0"
   inkscape:window-y="29"
   inkscape:window-maximized="1"
   inkscape:current-layer="text876" /><metadata
   id="metadata64"><rdf:RDF><cc:Work
       rdf:about=""><dc:format>image/svg+xml</dc:format><dc:type
         rdf:resource="http://purl.org/dc/dcmitype/StillImage" /><dc:title></dc:title></cc:Work></rdf:RDF></metadata><defs
   id="defs62"><clipPath
   id="clipPath842"
   clipPathUnits="userSpaceOnUse"><use
     height="100%"
     width="100%"
     id="use844"
     xlink:href="#g838"
     y="0"
     x="0" /></clipPath>
	
	
	
	
	
	
	
	
</defs>
<g
   id="g838"><g
   aria-label="500"
   transform="scale(1.0317462,0.96923057)"
   style="font-style:normal;font-variant:normal;font-weight:normal;font-stretch:normal;font-size:54.27433777px;line-height:1.25;font-family:BoobToob;-inkscape-font-specification:'BoobToob, Normal';font-variant-ligatures:discretionary-ligatures historical-ligatures;font-variant-caps:normal;font-variant-numeric:normal;font-feature-settings:normal;text-align:start;letter-spacing:0px;word-spacing:0px;writing-mode:lr-tb;text-anchor:start;fill:#ff0000;fill-opacity:1;stroke:none;stroke-width:0.81411511"
   id="text876"><g
     id="g926"><g
       id="g901"
       transform="scale(0.96923061,1.0317462)"><g
   id="Logo">
		<path
   id="path3002"
   d="m -11.4,344.8 c -29.1,0 -52.6,23.6 -52.6,52.6 0,29.1 23.6,52.6 52.6,52.6 5.6,0 11,-0.9 16,-2.5 v -26.3 c -4.4,2.5 -9.5,4 -14.9,4 -16,0 -28.9,-12.5 -28.9,-27.8 0,-15.3 13,-27.8 28.9,-27.8 5.5,0 10.6,1.5 14.9,4 v -26.3 c -5,-1.6 -10.4,-2.5 -16,-2.5 z"
   inkscape:connector-curvature="0"
   style="fill:#002255" />
		<polygon
   id="polygon9367"
   points="5.1,395.7 5.1,377.4 44.3,377.4 26.7,395.7 "
   style="fill:#002255" />
		<polygon
   id="polygon9369"
   points="5.1,399.4 5.1,417.7 44.3,417.7 26.7,399.4 "
   style="fill:#ff0000" />
	</g><g
   id="Commodore">
		<path
   id="path3067"
   d="m 110.6,391.1 c 5,0 9,-1.4 12.2,-4 3.2,-2.7 4.8,-6.4 4.9,-11.3 -0.1,-4.9 -1.7,-8.7 -4.9,-11.4 -3.2,-2.7 -7.2,-4 -12.2,-4 -5,0 -9,1.4 -12.2,4 -3.2,2.6 -4.8,6.5 -4.9,11.4 0.1,4.9 1.7,8.7 4.9,11.3 3.2,2.6 7.2,4 12.2,4 z m 0,-7.1 c -2.3,-0.1 -4,-0.9 -5.1,-2.5 -1.1,-1.6 -1.6,-3.5 -1.5,-5.8 0,-2.3 0.5,-4.2 1.5,-5.8 1,-1.6 2.7,-2.4 5.1,-2.5 2.3,0.1 4,0.9 5.1,2.5 1.1,1.6 1.6,3.5 1.5,5.8 0,2.2 -0.5,4.2 -1.5,5.8 -1.1,1.6 -2.8,2.4 -5.1,2.5 z"
   inkscape:connector-curvature="0"
   style="fill:#002255" />
		<path
   id="path3069"
   d="M 131.8,390.4 H 142 V 378 c 0,-3.1 0.5,-5.5 1.5,-7 1,-1.5 2.4,-2.2 4.2,-2.2 1.4,0 2.5,0.6 3.1,1.7 0.6,1.1 1,2.5 1,4.2 v 15.8 H 162 v -12.4 c 0,-3.1 0.5,-5.5 1.5,-7 1,-1.5 2.4,-2.2 4.2,-2.2 1.4,0 2.5,0.6 3.1,1.7 0.6,1.1 1,2.5 1,4.2 v 15.8 H 182 v -17.3 c 0.1,-4 -0.6,-7.1 -2,-9.4 -1.4,-2.2 -4.2,-3.4 -8.4,-3.4 -2.1,0 -4.1,0.4 -5.9,1.3 -1.8,0.9 -3.3,2.3 -4.5,4.3 -0.8,-1.9 -2,-3.3 -3.6,-4.3 -1.6,-0.9 -3.5,-1.4 -5.6,-1.4 -2.3,0 -4.5,0.5 -6.3,1.5 -1.9,1 -3.3,2.5 -4.4,4.6 h -0.1 v -5.4 h -9.3 z"
   inkscape:connector-curvature="0"
   style="fill:#002255" />
		<path
   id="path3071"
   d="m 187.5,390.4 h 10.2 V 378 c 0,-3.1 0.5,-5.5 1.5,-7 1,-1.5 2.4,-2.2 4.2,-2.2 1.4,0 2.5,0.6 3.1,1.7 0.6,1.1 1,2.5 1,4.2 v 15.8 h 10.2 v -12.4 c 0,-3.1 0.5,-5.5 1.5,-7 1,-1.5 2.4,-2.2 4.2,-2.2 1.4,0 2.5,0.6 3.1,1.7 0.6,1.1 1,2.5 1,4.2 v 15.8 h 10.2 v -17.3 c 0.1,-4 -0.6,-7.1 -2,-9.4 -1.4,-2.2 -4.2,-3.4 -8.4,-3.4 -2.1,0 -4.1,0.4 -5.9,1.3 -1.8,0.9 -3.3,2.3 -4.5,4.3 -0.8,-1.9 -2,-3.3 -3.6,-4.3 -1.6,-0.9 -3.5,-1.4 -5.6,-1.4 -2.3,0 -4.5,0.5 -6.3,1.5 -1.9,1 -3.3,2.5 -4.4,4.6 h -0.1 v -5.4 h -9.3 z"
   inkscape:connector-curvature="0"
   style="fill:#002255" />
		<path
   id="path3073"
   d="m 258.8,391.1 c 5,0 9,-1.4 12.2,-4 3.2,-2.7 4.8,-6.4 4.9,-11.3 -0.1,-4.9 -1.7,-8.7 -4.9,-11.4 -3.2,-2.7 -7.2,-4 -12.2,-4 -5,0 -9,1.4 -12.2,4 -3.2,2.6 -4.8,6.5 -4.9,11.4 0.1,4.9 1.7,8.7 4.9,11.3 3.2,2.6 7.3,4 12.2,4 z m 0,-7.1 c -2.3,-0.1 -4,-0.9 -5.1,-2.5 -1.1,-1.6 -1.6,-3.5 -1.5,-5.8 0,-2.3 0.5,-4.2 1.5,-5.8 1,-1.6 2.7,-2.4 5.1,-2.5 2.3,0.1 4,0.9 5.1,2.5 1.1,1.6 1.6,3.5 1.5,5.8 0,2.2 -0.5,4.2 -1.5,5.8 -1.1,1.6 -2.7,2.4 -5.1,2.5 z"
   inkscape:connector-curvature="0"
   style="fill:#002255" />
		<path
   id="path3075"
   d="m 311.7,348.1 h -10.2 v 16.7 h -0.1 c -1.3,-1.7 -2.8,-2.8 -4.5,-3.5 -1.7,-0.7 -3.6,-1 -5.6,-1 -4.1,0.2 -7.2,1.7 -9.3,4.7 -2.1,3 -3.2,6.4 -3.2,10.1 0,4.5 1.2,8.2 3.4,11.2 2.3,3 5.6,4.6 10,4.7 2.4,0 4.5,-0.6 6.3,-1.7 1.8,-1.1 3.1,-2.5 3.8,-4.2 h 0.1 v 5.3 h 9.4 z m -22.6,27.3 c 0,-2 0.5,-3.7 1.6,-5.1 1.1,-1.4 2.6,-2.1 4.6,-2.2 1.9,0 3.4,0.8 4.5,2.2 1.1,1.4 1.7,3.2 1.7,5.5 0,2.2 -0.7,4 -1.8,5.4 -1.1,1.4 -2.6,2.1 -4.4,2.1 -1.9,0 -3.4,-0.8 -4.5,-2.2 -1.1,-1.4 -1.7,-3.3 -1.7,-5.7 z"
   inkscape:connector-curvature="0"
   style="fill:#002255" />
		<path
   id="path3077"
   d="m 332.6,391.1 c 5,0 9,-1.4 12.2,-4 3.2,-2.7 4.8,-6.4 4.9,-11.3 -0.1,-4.9 -1.7,-8.7 -4.9,-11.4 -3.2,-2.7 -7.2,-4 -12.2,-4 -5,0 -9,1.4 -12.2,4 -3.2,2.7 -4.8,6.5 -4.9,11.4 0.1,4.9 1.7,8.7 4.9,11.3 3.2,2.6 7.3,4 12.2,4 z m 0,-7.1 c -2.3,-0.1 -4,-0.9 -5.1,-2.5 -1,-1.6 -1.6,-3.5 -1.5,-5.8 0,-2.3 0.5,-4.2 1.5,-5.8 1,-1.6 2.7,-2.4 5.1,-2.5 2.3,0.1 4,0.9 5.1,2.5 1,1.6 1.6,3.5 1.5,5.8 0,2.2 -0.5,4.2 -1.5,5.8 -1,1.6 -2.7,2.4 -5.1,2.5 z"
   inkscape:connector-curvature="0"
   style="fill:#002255" />
		<path
   id="path3079"
   d="m 375.4,360.7 c -0.5,-0.1 -1.1,-0.2 -1.7,-0.2 -0.6,-0.1 -1.2,-0.1 -1.8,-0.1 -2.2,0 -4,0.6 -5.3,1.7 -1.4,1.1 -2.5,2.6 -3.4,4.4 h -0.1 v -5.4 h -9.3 v 29.4 H 364 v -12.4 c 0,-2.9 0.6,-5.2 1.9,-6.8 1.3,-1.6 3.1,-2.4 5.5,-2.4 0.6,0 1.2,0 1.7,0 0.6,0 1.1,0.1 1.7,0.3 z"
   inkscape:connector-curvature="0"
   style="fill:#002255" />
		<path
   id="path3081"
   d="m 407.3,378.7 v -1.9 c 0.1,-4.5 -1.1,-8.4 -3.3,-11.5 -2.3,-3.2 -6.1,-4.8 -11.5,-5 -4.7,0 -8.4,1.4 -11.3,4 -2.9,2.7 -4.4,6.4 -4.4,11.3 0.1,4.9 1.7,8.7 4.9,11.3 3.2,2.7 7.2,4 12.2,4.1 1.9,0 3.8,-0.1 5.6,-0.4 1.8,-0.3 3.6,-0.8 5.2,-1.4 V 382 c -1.5,0.8 -3.1,1.4 -4.6,1.7 -1.5,0.4 -3,0.5 -4.4,0.5 -2.5,0 -4.5,-0.4 -6,-1.3 -1.5,-0.9 -2.4,-2.3 -2.7,-4.3 z m -20.5,-5.8 c 0.1,-1.7 0.6,-3.2 1.5,-4.3 0.9,-1.2 2.3,-1.8 4.1,-1.8 2,0 3.5,0.6 4.3,1.8 0.9,1.2 1.3,2.6 1.3,4.3 z"
   inkscape:connector-curvature="0"
   style="fill:#002255" />
		<path
   id="path3064"
   d="m 71.8,390.7 c -4.4,-1.2 -7.8,-3.2 -10.6,-6.3 -2.8,-3.1 -4.1,-5.9 -4.9,-10.9 -1.5,-9.8 2.7,-18.8 10.8,-22.7 4.1,-2 9.6,-3 15.1,-3 3.4,0 6.4,0.6 9.2,1.1 l -0.9,8.8 c 0,0 -0.7,-0.2 -2.7,-0.7 -1.9,-0.5 -3.8,-0.7 -5.7,-0.7 -3.8,0 -7.5,1 -9.9,2.9 -5.7,4.4 -5.7,15.9 0.2,20.7 3.6,3 10.1,4 15.9,2.5 l 2.7,-0.7 0.8,8.9 c -1.7,0.4 -5.3,1.1 -9.7,1.1 -5.8,0 -7.6,-0.2 -10.3,-1 z"
   inkscape:connector-curvature="0"
   style="fill:#002255" />
	</g><rect
   id="Line"
   x="49"
   y="395.79999"
   width="369"
   height="3"
   style="fill:#002255" /><g
   id="Amiga">
		<path
   id="path6187"
   d="m 104.7,443.9 c 0,-0.5 -0.1,-0.9 -0.4,-1 -0.3,-0.2 -0.6,-0.3 -1.1,-0.3 -1.6,-0.3 -2.5,-0.9 -2.8,-1.8 -0.3,-1 -0.4,-2.2 -0.4,-3.7 l -1.6,-30.8 c 0,-1.1 -0.1,-2 -0.3,-2.8 -0.2,-0.7 -0.9,-1.1 -2.2,-1.2 -1.1,0 -1.9,0.4 -2.4,1 -0.5,0.6 -1,1.4 -1.6,2.2 l -19.8,27.8 -3.3,4.7 c -0.7,1 -1.4,1.9 -2.1,2.8 -0.8,0.9 -1.8,1.4 -3,1.6 -0.7,0.1 -1.3,0.2 -1.9,0.4 -0.6,0.2 -0.9,0.7 -1,1.5 0,0.5 0.2,0.8 0.5,0.9 0.3,0.1 0.7,0.2 1.1,0.2 1.1,0 2.3,-0.1 3.5,-0.2 1.2,-0.1 2.3,-0.2 3.5,-0.2 1.1,0 2.1,0.1 3.1,0.2 1,0.1 2.1,0.1 3.1,0.2 0.5,0 0.9,-0.1 1.3,-0.3 0.4,-0.2 0.6,-0.6 0.6,-1.1 -0.1,-0.8 -0.5,-1.2 -1.4,-1.3 -0.9,-0.1 -1.7,-0.3 -2.6,-0.5 -0.9,-0.2 -1.3,-0.8 -1.4,-1.9 0.2,-1.1 0.9,-2.7 2.2,-4.7 1.3,-2 2.2,-3.5 2.8,-4.3 h 12.3 c 0.1,1.3 0.1,2.6 0.2,3.9 0.1,1.3 0.1,2.6 0.1,3.9 -0.1,1.8 -0.5,2.9 -1.4,3.2 -0.9,0.3 -1.8,0.5 -2.6,0.5 -0.9,0 -1.4,0.6 -1.4,1.5 0,0.4 0.1,0.7 0.4,0.9 0.3,0.2 0.6,0.2 1,0.2 1.7,0 3.4,-0.1 5.1,-0.2 1.7,-0.1 3.4,-0.2 5.1,-0.2 1.1,0 2.3,0.1 3.4,0.1 1.1,0.1 2.3,0.1 3.4,0.1 0.5,0 1,-0.1 1.3,-0.2 0.5,-0.2 0.7,-0.5 0.7,-1.1 z M 89.5,428.2 H 79.2 L 89,413.9 Z"
   inkscape:connector-curvature="0"
   style="fill:#ff0000" />
		<path
   id="path4766"
   d="m 194.1,404.7 c 0,-0.4 -0.1,-0.6 -0.4,-0.8 -0.2,-0.2 -0.5,-0.3 -0.9,-0.3 -0.6,0 -1.1,0 -1.6,0.1 -0.5,0 -1.1,0.1 -1.6,0.2 -1.4,0.1 -2.7,0.2 -4.1,0.3 -1.4,0 -2.8,0 -4.2,0 -1,0 -2,-0.1 -3.1,-0.1 -1,-0.1 -2,-0.1 -3.1,-0.1 -0.5,0 -0.9,0.1 -1.3,0.4 -0.4,0.3 -0.6,0.7 -0.6,1.2 0.2,0.9 0.9,1.4 2.1,1.3 1.2,-0.1 1.9,0.5 2.1,1.6 0,0.3 0,0.6 -0.1,1 -0.1,0.3 -0.2,0.6 -0.3,1 l -7.8,27 c -0.3,1.3 -0.6,2.4 -1,3.3 -0.4,0.9 -1.2,1.5 -2.5,1.8 -0.6,0.1 -1.3,0.2 -2.1,0.4 -0.8,0.2 -1.3,0.7 -1.3,1.4 0,0.4 0.2,0.7 0.5,0.9 0.3,0.2 0.7,0.3 1.1,0.3 1.3,0 2.7,-0.1 4,-0.2 1.4,-0.1 2.7,-0.2 4.1,-0.2 1.5,0 2.9,0.1 4.4,0.2 1.5,0.1 2.9,0.1 4.4,0.2 0.6,0 1.3,0 2.1,-0.1 0.8,-0.1 1.2,-0.5 1.3,-1.3 -0.1,-0.8 -0.5,-1.2 -1.2,-1.3 -0.7,-0.1 -1.5,-0.2 -2.2,-0.4 -0.7,-0.2 -1.1,-0.9 -1.2,-2.1 0,-0.5 0.1,-1 0.2,-1.5 0.1,-0.5 0.3,-1 0.4,-1.5 l 7.8,-27.1 c 0.3,-1.1 0.6,-1.9 1,-2.4 0.4,-0.5 1.2,-0.9 2.3,-1.1 0.6,-0.1 1.2,-0.2 1.9,-0.5 0.5,-0.5 0.8,-0.9 0.9,-1.6 z"
   inkscape:connector-curvature="0"
   style="fill:#ff0000" />
		<path
   id="path4768"
   d="m 234.7,405 c -0.1,-0.7 -0.8,-1.1 -2,-1.4 -1.3,-0.3 -2.6,-0.4 -4,-0.5 -1.4,-0.1 -2.3,-0.1 -2.8,-0.1 -5.2,0 -10.6,1.1 -16.2,3.1 -5.6,2.1 -10.4,5.1 -14.4,9.1 -4,4 -6.1,8.9 -6.2,14.7 0.1,3.7 1.1,6.7 3.2,9.1 2.1,2.4 4.6,4.2 7.8,5.4 3.1,1.2 6.3,1.8 9.7,1.8 2,0 4,-0.1 6.1,-0.4 2,-0.2 4,-0.6 6,-1.1 0.7,-0.1 1.4,-0.3 1.9,-0.6 0.5,-0.2 0.9,-0.7 1.2,-1.5 0.5,-1.5 1,-3.1 1.5,-4.7 0.5,-1.6 0.9,-3.2 1.3,-4.7 0.7,-2.2 1.6,-3.6 2.6,-4 1,-0.4 1.9,-0.6 2.7,-0.6 0.8,0 1.2,-0.5 1.2,-1.5 0,-0.4 -0.2,-0.7 -0.5,-0.9 -0.3,-0.2 -0.7,-0.3 -1,-0.3 -1.5,0 -3.1,0.1 -4.6,0.2 -1.6,0.1 -3.1,0.2 -4.7,0.2 -1.5,0 -3,-0.1 -4.4,-0.2 -1.5,-0.1 -3,-0.2 -4.4,-0.2 -0.5,0 -1,0.1 -1.4,0.3 -0.5,0.2 -0.7,0.6 -0.7,1.1 0.1,0.7 0.5,1.1 1.2,1.2 0.8,0.1 1.5,0.2 2.3,0.5 0.8,0.2 1.2,0.9 1.2,2 -0.1,1.2 -0.4,2.7 -1.1,4.8 -0.6,2 -1.2,3.6 -1.6,4.9 -0.2,0.9 -0.6,1.6 -1,2 -0.4,0.4 -1.1,0.6 -2.1,0.6 -3.6,-0.1 -6.4,-1.2 -8.2,-3.5 -1.9,-2.3 -2.8,-5.1 -2.8,-8.6 0,-3.2 0.7,-6.4 2,-9.4 1.3,-3 3.1,-5.7 5.3,-8 2.2,-2.2 5,-4.1 8.2,-5.7 3.3,-1.6 6.5,-2.4 9.7,-2.5 1.5,0 2.4,0.3 2.8,0.9 0.3,0.6 0.5,1.6 0.4,3 0,0.4 0,0.7 -0.1,1.1 0,0.4 -0.1,0.7 -0.1,1.1 0,0.6 0.1,1.2 0.3,1.7 0.2,0.5 0.7,0.8 1.4,0.8 0.8,-0.1 1.3,-0.4 1.7,-1.1 0.4,-0.7 0.6,-1.4 0.8,-2 0.2,-0.5 0.5,-1.5 1,-3.1 0.4,-1.6 0.7,-2.6 0.8,-3 z"
   inkscape:connector-curvature="0"
   style="fill:#ff0000" />
		<path
   id="path4770"
   d="m 270.1,443.9 c 0,-0.5 -0.1,-0.9 -0.4,-1 -0.3,-0.2 -0.6,-0.3 -1.1,-0.3 -1.6,-0.3 -2.5,-0.9 -2.8,-1.8 -0.3,-1 -0.4,-2.2 -0.4,-3.7 l -1.6,-30.8 c 0,-1.1 -0.1,-2 -0.3,-2.8 -0.2,-0.7 -0.9,-1.1 -2.2,-1.2 -1.1,0 -1.9,0.4 -2.4,1 -0.5,0.6 -1,1.4 -1.6,2.2 l -19.8,27.8 -3.3,4.7 c -0.7,1 -1.4,1.9 -2.1,2.8 -0.8,0.9 -1.8,1.4 -3,1.6 -0.7,0.1 -1.3,0.2 -1.9,0.4 -0.6,0.2 -0.9,0.7 -1,1.5 0,0.5 0.2,0.8 0.5,0.9 0.3,0.1 0.7,0.2 1.1,0.2 1.1,0 2.3,-0.1 3.5,-0.2 1.2,-0.1 2.3,-0.2 3.5,-0.2 1.1,0 2.1,0.1 3.1,0.2 1.1,0.1 2.1,0.1 3.1,0.2 0.5,0 0.9,-0.1 1.3,-0.3 0.4,-0.2 0.6,-0.6 0.6,-1.1 -0.1,-0.8 -0.5,-1.2 -1.4,-1.3 -0.9,-0.1 -1.7,-0.3 -2.6,-0.5 -0.9,-0.2 -1.3,-0.8 -1.4,-1.9 0.2,-1.1 0.9,-2.7 2.2,-4.7 1.3,-2 2.2,-3.5 2.8,-4.3 h 12.4 c 0.1,1.3 0.1,2.6 0.2,3.9 0.1,1.3 0.1,2.6 0.1,3.9 -0.1,1.8 -0.5,2.9 -1.4,3.2 -0.9,0.3 -1.8,0.5 -2.6,0.5 -0.9,0 -1.4,0.6 -1.4,1.5 0,0.4 0.1,0.7 0.4,0.9 0.3,0.2 0.6,0.2 1,0.2 1.7,0 3.4,-0.1 5.1,-0.2 1.7,-0.1 3.4,-0.2 5.1,-0.2 1.1,0 2.3,0.1 3.4,0.1 1.1,0.1 2.3,0.1 3.4,0.1 0.5,0 1,-0.1 1.3,-0.2 0.4,-0.2 0.6,-0.5 0.6,-1.1 z m -15.3,-15.7 h -10.3 l 9.8,-14.3 z"
   inkscape:connector-curvature="0"
   style="fill:#ff0000" />
		<path
   id="path4764"
   d="m 167.9,404.9 c 0,-0.4 -0.1,-0.7 -0.4,-0.9 -0.2,-0.2 -0.5,-0.3 -0.9,-0.3 -1.3,0 -2.6,0 -3.9,0.1 -1.3,0.1 -2.6,0.1 -3.9,0.1 -0.7,0 -1.7,-0.1 -3.1,-0.1 -1.4,0 -2.3,0.1 -2.8,0.5 -0.1,0.1 -0.2,0.3 -0.2,0.4 -0.1,0.2 -0.2,0.3 -0.2,0.4 l -17,25.7 -0.7,-25.3 c 0,-0.5 0,-0.9 -0.1,-1.2 -0.1,-0.4 -0.4,-0.5 -0.9,-0.6 -1.4,0 -2.9,0 -4.3,0.1 -1.4,0 -2.9,0 -4.3,0 -0.8,0 -1.6,-0.1 -2.4,-0.1 -0.8,-0.1 -1.6,-0.1 -2.4,-0.1 -0.5,0 -1,0.1 -1.5,0.2 -0.5,0.2 -0.7,0.5 -0.8,1.1 0.2,1 1,1.5 2.3,1.4 1.4,0 2.1,0.5 2.3,1.4 0,0.7 -0.2,1.4 -0.4,2.1 -0.3,0.7 -0.5,1.4 -0.7,2 -1.5,4.2 -3,8.3 -4.5,12.5 -1.5,4.2 -3,8.3 -4.6,12.5 -0.6,1.8 -1.2,3 -1.8,3.7 -0.6,0.7 -1.8,1.2 -3.7,1.5 -0.5,0.1 -1,0.2 -1.4,0.5 -0.4,0.2 -0.6,0.6 -0.6,1.2 0,0.5 0.2,0.8 0.5,1 0.3,0.1 0.7,0.2 1.2,0.2 1.1,0 2.2,0 3.3,-0.1 1.1,-0.1 2.2,-0.1 3.3,-0.1 1,0 2,0.1 3,0.2 1,0.1 2,0.1 3,0.2 0.5,0 0.9,-0.1 1.3,-0.3 0.4,-0.2 0.6,-0.6 0.7,-1.1 -0.1,-0.9 -0.5,-1.3 -1.4,-1.4 -0.9,-0.1 -1.8,-0.2 -2.7,-0.4 -0.9,-0.2 -1.4,-1 -1.4,-2.4 0.1,-1.9 0.8,-4.8 2.1,-8.7 1.3,-3.8 2.6,-7.6 4.1,-11.2 1.4,-3.6 2.4,-6 2.9,-7.3 l 0.7,29.4 c 0,0.9 0.1,1.6 0.3,2.2 0.2,0.5 0.8,0.8 1.8,0.8 1,0 1.8,-0.4 2.4,-1.1 0.6,-0.7 1.1,-1.4 1.6,-2.2 l 19.8,-29.1 -6.5,24.6 c -0.2,1.1 -0.5,2.1 -0.9,3.2 -0.4,1.1 -1.2,1.7 -2.3,2 -0.7,0 -1.4,0.2 -2.2,0.3 -0.8,0.2 -1.3,0.7 -1.4,1.5 0,0.5 0.2,0.8 0.5,1 0.3,0.2 0.7,0.3 1.1,0.3 1.4,0 2.9,-0.1 4.3,-0.2 1.4,-0.1 2.9,-0.2 4.3,-0.2 1.5,0 3,0.1 4.4,0.2 1.5,0.1 3,0.2 4.4,0.2 0.6,0 1,-0.1 1.5,-0.3 0.4,-0.2 0.7,-0.6 0.7,-1.2 -0.1,-0.7 -0.4,-1.2 -1.1,-1.3 -0.7,-0.1 -1.4,-0.3 -2.1,-0.5 -0.7,-0.2 -1.1,-0.8 -1.1,-1.9 0,-0.7 0.1,-1.5 0.3,-2.3 0.2,-0.8 0.3,-1.5 0.5,-2.2 l 6.3,-25.3 c 0.2,-1.1 0.5,-2 0.9,-2.6 0.4,-0.6 1.1,-1 2.3,-1.2 0.6,0 1.2,-0.2 1.8,-0.4 0.3,0.1 0.7,-0.3 0.7,-1.1 z"
   inkscape:connector-curvature="0"
   style="fill:#ff0000" />
	</g>
</g><g
       id="text872"
       style="font-style:normal;font-variant:normal;font-weight:normal;font-stretch:normal;font-size:53.22717667px;line-height:1.25;font-family:BoobToob;-inkscape-font-specification:'BoobToob, Normal';font-variant-ligatures:discretionary-ligatures historical-ligatures;font-variant-caps:normal;font-variant-numeric:normal;font-feature-settings:normal;text-align:start;letter-spacing:0px;word-spacing:0px;writing-mode:lr-tb;text-anchor:start;fill:#ff0000;fill-opacity:1;stroke:none;stroke-width:1.08332622"
       transform="scale(0.96923061,1.0317462)"
       aria-label="500"><path
         id="path893"
         style="stroke-width:1.08332622"
         d="m 310.71338,405.04901 q 3.35331,-0.15968 13.62616,-0.0532 8.51635,0 13.62616,-0.42582 v -0.74518 q -9.52767,-0.69195 -26.29423,-0.69195 -1.54359,0.63872 -3.30008,0.53227 -0.15969,0.26613 -0.15969,0.42581 0,0.47905 1.11777,0.53228 1.171,0.0532 1.38391,0.42581 z m 28.05072,2.55491 0.31937,-0.26614 q 0,-0.37259 -0.15969,-0.47904 -5.6953,-0.63873 -14.53101,-0.63873 -7.07922,0 -14.21166,0 l -2.76781,0.42582 -0.10646,0.63873 2.18232,0.47904 q 7.29212,0.15968 14.58424,0.26614 8.51635,0.0532 14.6907,-0.42582 z m -29.43463,3.08717 24.11192,0.15969 4.63076,-0.53228 0.31936,-0.26613 q -0.0532,-0.53227 -0.7984,-0.5855 -0.90487,-0.0532 -1.06455,-0.31936 -15.16974,-0.31937 -22.62155,-0.0532 -3.77913,-0.53227 -6.75985,0.5855 0,0.5855 0.42582,0.74518 0.10645,0 0.95809,0 0.5855,-0.0532 0.7984,0.26613 z m 8.19699,2.50168 q 0.0532,-0.0532 0.69195,-0.15968 0.47905,-0.0532 0.47905,-0.31936 0,-0.21291 -0.10646,-0.42582 -1.54358,-0.53227 -4.15172,-0.53227 -3.40654,0 -4.20494,-0.10646 -0.31937,0.21291 -1.65005,0.37259 -1.06454,0.15969 -1.3839,0.74518 1.75649,0.85164 4.68399,0.85164 1.22422,0 5.64208,-0.42582 z m 1.06454,2.342 q -1.33068,-0.74518 -3.77913,-0.85164 -2.07586,-0.0532 -4.15172,-0.15968 -0.37259,0.21291 -1.91617,0.37259 -1.22423,0.15968 -1.49037,0.85164 2.71459,0.85163 6.01468,0.85163 2.07586,0 4.52431,-0.31936 0.10645,-0.10646 0.47904,-0.15968 0.42582,-0.10646 0.42582,-0.31937 0,-0.10645 -0.10646,-0.26613 z m -8.6228,1.91618 q -0.26614,0.2129 -1.70327,0.37259 -1.11777,0.10645 -1.01132,0.7984 2.02264,0.79841 4.79045,0.79841 1.43713,0 5.64208,-0.42582 0.95809,-0.10645 0.95809,-0.69195 0,-0.10645 -0.10645,-0.26613 -1.65005,-0.53228 -4.15172,-0.5855 -2.18232,0 -4.41786,0 z m 21.66346,4.41785 q 0.21291,-0.15968 0.5855,-0.15968 0.15968,0 0.47905,0.0532 0.31936,0.0532 0.47904,0.0532 0.42582,0 0.69195,-0.42581 -0.31936,-0.63873 -1.54359,-0.63873 -2.23554,0.0532 -2.07586,0.0532 -4.04526,-0.53227 -10.11316,-0.53227 -5.05658,0 -10.11316,-0.0532 -0.26614,0.15968 -1.65004,0.37259 -1.06455,0.15968 -1.22423,0.85163 0.42582,0.0532 1.80972,0.42582 1.06455,0.26614 1.80973,0.26614 1.9694,0 6.91953,0.0532 4.36463,0.10646 6.91953,0.0532 3.83236,-0.0532 7.02599,-0.37259 z m 1.54359,3.14041 3.99204,-0.69196 q 0.0532,-0.15968 0.15968,-0.37259 0.10645,-0.15968 -0.21291,-0.31936 -10.48575,-0.69195 -26.34745,-0.69195 l -3.40654,0.69195 q -0.10646,0.63872 0.74518,0.85163 1.33068,0.31937 1.43713,0.37259 z m -13.5197,0.90486 q -7.02599,-0.37259 -11.39062,0.21291 -0.37259,0.26613 -0.37259,0.74518 5.85499,0.90486 13.46648,0.90486 2.23554,0 17.08592,-0.5855 0.31936,-0.0532 0.69195,-0.15968 0.37259,-0.10646 0.21291,-0.53227 -3.40654,-0.69196 -8.09053,-0.69196 -1.49036,0 -4.36463,0.10646 -2.87426,0.0532 -4.3114,0.0532 -1.59681,0 -2.92749,-0.0532 z m 8.14375,3.30008 -0.15968,0.47905 q 4.68399,0.95809 9.68735,0.7984 0.31936,-0.2129 1.86295,-0.31936 0.90486,-0.0532 1.171,-0.79841 -3.7259,-0.7984 -6.97276,-0.7984 -3.03395,0 -5.58886,0.63872 z m 13.04066,3.03395 q -2.82104,-0.95809 -6.01467,-0.95809 -2.71458,0 -5.16303,0.74518 -0.26614,0.53227 -0.26614,0.53227 2.07586,0.74518 4.95013,0.74518 1.11777,0 6.0679,-0.42581 0,0 0.26613,-0.15968 0.26614,-0.21291 0.15968,-0.47905 z m -10.00671,2.28877 q -0.26613,0.15968 -1.75649,0.15968 -1.11777,0 -1.171,0.74518 3.88558,0.95809 9.47444,0.42582 0.15968,-0.0532 1.80972,-0.10646 1.11777,0 1.06454,-0.90486 -2.66135,-0.63872 -5.32271,-0.63872 -1.86295,0 -4.0985,0.31936 z m -18.73596,2.39522 q -1.33068,0.37259 -4.15172,0.74518 0.10645,0.63873 1.06454,0.90487 0.79841,0.2129 1.59682,0.42581 23.63286,0 25.07,0 0.37259,-0.26613 2.07586,-0.42581 1.27745,-0.10646 1.54358,-0.79841 -0.95808,-0.15968 -2.71458,-0.69196 z m 25.49582,3.67268 q -8.19699,-0.63873 -27.89105,-0.74518 -0.31936,0.31936 -1.49036,0.47904 -0.95809,0.15968 -1.11777,0.69196 1.171,0.53227 4.52431,0.69195 9.90026,0.37259 22.94092,-0.26614 0.47904,-0.26613 1.65004,-0.10645 1.01132,0.15968 1.49036,-0.21291 0.10645,-0.26614 -0.10645,-0.53227 z m -25.97487,2.02263 q -1.22422,0.15968 -3.61944,0.5855 l 0.0532,0.63873 q 4.63077,0.74518 11.07126,0.74518 2.71458,0 14.9036,-0.53228 0.26614,-0.53227 0.26614,-0.53227 -4.36463,-0.95809 -11.28416,-0.90486 -9.63412,0.10646 -11.39062,0 z" /><path
         id="path895"
         style="stroke-width:1.08332622"
         d="m 365.23631,405.15547 q 0.37259,-0.21291 1.01131,-0.15968 0.79841,0 0.95809,0 0.53227,-0.10646 0.63873,-0.5855 -1.7565,-0.0532 -5.42917,-0.37259 -3.67268,-0.31937 -5.69531,-0.31937 -1.59682,0 -3.03395,0.10646 -0.69195,0.31936 -2.02263,0.31936 h -0.95809 q -1.65004,0 -2.342,0.47905 l 0.42582,0.42581 q 9.04862,0.53228 10.48575,0.53228 3.40654,0 5.96145,-0.42582 z m 3.67267,2.82104 q 0.26614,-0.21291 1.01132,-0.15968 0.79841,0 1.01131,-0.0532 0.47905,-0.10645 0.47905,-0.69195 -3.51299,-0.63873 -8.72926,-0.63873 -1.70327,0 -5.10981,0.10645 -3.35331,0.0532 -5.00335,0.0532 -1.91618,0 -3.45977,-0.10645 -0.53227,0.26613 -2.02263,0.37259 -1.43713,0.10645 -2.02263,0.53227 l 0.31936,0.42582 q 4.04527,0.53227 9.68735,0.53227 -0.42582,0 13.83906,-0.37259 z m -25.54904,2.5549 q 4.95012,0.74518 13.46647,0.53227 9.7938,-0.2129 13.46648,0.0532 0.31936,-0.21291 1.80972,-0.37259 1.11777,-0.10645 1.33068,-0.85163 l -3.35331,-0.63873 q -7.71794,0.10646 -23.20705,0 -2.23554,0.47905 -3.61945,0.95809 0,0.31936 0.10646,0.31936 z m 11.07125,2.71459 v -0.63873 q -4.79045,-1.06454 -9.84703,-0.42581 -0.31936,0.26613 -1.22422,0.31936 -0.90486,0 -1.11777,0.5855 2.39522,0.74518 5.4824,0.74518 2.76781,0 6.70662,-0.5855 z m 9.7938,-0.85164 q -0.26614,0.10646 -0.69195,0.10646 -0.21291,0 -0.53227,0 -0.37259,-0.0532 -0.53228,-0.0532 -0.5855,0 -0.85163,0.47905 2.5549,0.7984 6.28081,0.7984 1.3839,0 6.01467,-0.26613 0.5855,-0.21291 0.47904,-0.74518 -4.20495,-0.74518 -6.54694,-0.74518 -1.96941,0 -3.61945,0.42581 z m -11.23093,3.56623 q -0.10646,-0.79841 -1.43714,-0.53228 -1.11777,-0.63872 -3.24686,-0.63872 -3.51299,0.0532 -3.24685,0.10645 -0.37259,0.15968 -1.70327,0.37259 -1.06455,0.15968 -1.38391,0.74518 2.39522,0.69196 5.42917,0.69196 3.14041,0 5.58886,-0.74518 z m 13.46647,-1.01132 q -0.31936,0.31936 -1.70327,0.26613 -1.171,0 -1.171,0.79841 2.02264,0.69196 5.05659,0.69196 2.71458,0 6.12112,-0.5855 l 0.15968,-0.42582 q -2.07586,-0.79841 -8.46312,-0.74518 z m -24.43127,3.7259 q 2.23554,0.69195 5.00335,0.69195 1.86295,0 3.67268,-0.31936 0.53227,0 1.59681,-0.10645 0.5855,-0.10646 0.53227,-0.85164 -2.87426,-0.63872 -8.19698,-0.42582 -0.31936,0.21291 -1.54359,0.3726 -0.90486,0.10645 -1.06454,0.63872 z m 21.557,-0.42582 q 1.7565,1.06455 4.84368,1.06455 1.22422,0 3.19363,-0.21291 2.71458,-0.21291 3.08717,-0.26614 0.26614,-0.53227 0.26614,-0.53227 l -0.26614,-0.26613 q -4.68399,-0.53228 -6.33403,-0.53228 -2.82104,0 -4.79045,0.74518 z m -13.14711,3.67268 q 0.26614,-0.15968 1.59682,-0.15968 1.01131,0 1.01131,-0.74518 -1.59681,-0.5855 -4.25817,-0.5855 -4.15172,0 -4.41786,-0.0532 -0.26613,0.31936 -1.54358,0.53227 -1.01132,0.15968 -0.85164,0.85164 5.37595,0.47904 5.64208,0.47904 1.54359,0 2.82104,-0.31936 z m 13.73261,-1.11777 q -0.15968,0.0532 -0.37259,0.21291 -0.15968,0.10645 -0.0532,0.31936 2.5549,1.06454 8.56957,0.5855 0.26614,-0.15968 0.74518,-0.15968 0.15968,0 0.47905,0.0532 0.37259,0 0.47904,0 0.95809,0 1.01132,-0.7984 -2.76782,-0.79841 -5.80176,-0.79841 -2.55491,0 -5.05659,0.5855 z m -11.70998,3.7259 q 0.37259,-0.26614 0.37259,-0.74518 -5.00335,-0.69195 -6.38726,-0.69195 -2.92749,0 -4.63076,1.11777 2.71459,0.63872 6.0679,0.63872 2.34199,0 4.57753,-0.31936 z m 22.56833,-0.90486 q -4.57754,-0.53227 -6.44049,-0.53227 -2.76781,0 -4.84367,0.69195 v 0.42582 q 2.44845,0.74518 5.64208,0.74518 3.1404,0 5.85499,-0.69196 0.0532,-0.15968 -0.10646,-0.31936 -0.10645,-0.21291 -0.10645,-0.31936 z m -33.00085,3.03395 v 0.42582 q 5.53562,0.69195 5.85499,0.69195 1.43713,0 2.66136,-0.31936 0.2129,-0.21291 1.54358,-0.15969 1.01132,0 1.06455,-0.7984 -2.50168,-0.74518 -5.32272,-0.74518 -3.1404,0 -5.80176,0.90486 z m 30.17981,0.79841 q 0.21291,-0.10646 1.70327,-0.21291 1.06454,-0.0532 1.17099,-0.74518 -1.49036,-0.69196 -4.04526,-0.79841 0.85163,0.0532 -4.47108,0.10645 -0.26614,0.15968 -1.65005,0.26614 -1.01131,0.10645 -1.11777,0.85163 4.63077,0.69196 6.12113,0.69196 1.22422,0 2.28877,-0.15968 z m -19.21501,2.23554 v -0.47905 q -2.12909,-0.69195 -4.95013,-0.69195 -2.39522,0 -5.90822,0.5855 -0.26613,0.53227 -0.26613,0.5855 2.18231,0.69195 5.16303,0.69195 3.24686,0 5.96145,-0.69195 z m 13.25356,-1.171 q -0.26613,0.21291 -1.3839,0.31936 -0.90487,0.15968 -1.11777,0.69196 2.02263,0.74518 4.8969,0.74518 1.17099,0 6.01467,-0.42582 0.5855,-0.21291 0.47904,-0.74518 -1.65004,-0.5855 -4.41785,-0.53227 -3.513,0.0532 -4.47109,-0.0532 z m -15.48911,4.68399 q 0.26614,-0.21291 0.95809,-0.15968 0.74518,0 0.90487,-0.0532 0.42581,-0.10645 0.42581,-0.69195 -1.65004,-0.74518 -4.25817,-0.79841 -2.23554,0 -4.52431,0 -0.31936,0.42582 -1.27745,0.5855 -0.95809,0.10645 -1.06455,0.5855 2.71459,0.63872 8.83571,0.53227 z m 22.78124,-1.33068 q -1.96941,-0.53227 -4.20495,-0.53227 -2.82104,0 -5.58885,0.79841 l 0.0532,0.47904 q 1.96941,0.69195 4.73722,0.69195 1.33068,0 5.64208,-0.37259 0.0532,-0.10645 0.53227,-0.15968 0.31937,-0.10645 0.31937,-0.26613 0,-0.15968 -0.0532,-0.31937 -1.06454,-0.42581 -1.43713,-0.31936 z m -19.5876,3.56622 q 0.37259,-0.47904 -0.15969,-0.79841 -5.64208,-0.58549 -8.94216,-0.26613 -0.21291,0.10645 -1.38391,0.21291 -0.85163,0.0532 -0.95809,0.74518 2.18232,0.69195 5.21627,0.69195 2.71458,0 6.22758,-0.5855 z m 18.78919,-0.95809 q -2.342,-0.37259 -4.73722,-0.37259 -2.76781,0 -5.26949,0.47905 -0.42582,0.26613 -0.10645,0.74518 2.92749,0.69195 5.90821,0.69195 2.60813,0 4.73722,-0.53227 1.70327,-0.0532 1.65004,-0.74518 -0.31936,-0.31936 -1.01131,-0.26614 -1.06455,0.0532 -1.171,0 z m -2.12909,2.39523 -7.87762,0.10645 q -1.96941,0 -5.64208,-0.15968 -3.88559,-0.15968 -5.53563,-0.15968 -4.8969,0 -8.14376,0.95809 0.26614,0.69195 1.06455,0.69195 0.10645,0 0.37259,0 0.31936,0 0.47904,0 0.63873,0 1.01132,0.26614 0.74518,0 13.5197,0.0532 8.14376,0.0532 13.46648,-0.53227 l 0.42582,-0.26614 q -0.15969,-0.74518 -0.79841,-0.74518 -0.21291,0 -0.69196,0.10646 -0.47904,0.10645 -0.74518,0.10645 -0.5855,0 -0.90486,-0.42581 z m -2.87427,2.66135 q -2.18231,0.10646 -10.96479,0 -6.75986,-0.10645 -10.9648,0.53228 -0.31937,0.0532 -0.69196,0.10645 -0.31936,0.0532 -0.2129,0.42582 0.7984,0.37259 2.39522,0.47904 1.80972,0.15968 2.50168,0.37259 2.50167,-0.10645 6.38726,0 5.05658,0.10646 6.22758,0.10646 5.53562,0 9.42121,-0.85164 v -0.42582 q -1.38391,-0.37259 -4.0985,-0.74518 z m -2.5549,2.98073 -13.04066,0.0532 q -1.33068,0.21291 -4.04526,0.79841 0.42581,0.5855 1.80972,0.53227 2.02263,-0.0532 2.07586,-0.0532 2.60813,0.42581 5.85499,0.42581 1.7565,0 5.00335,-0.15968 3.513,-0.15968 5.05659,-0.15968 l 0.90486,-0.47904 q -0.26614,-0.53228 -1.27745,-0.5855 -0.79841,0 -1.59682,0 -0.47904,-0.0532 -0.74518,-0.37259 z" /><path
         id="path897"
         style="stroke-width:1.08332622"
         d="m 399.54288,405.15547 q 0.37259,-0.21291 1.01132,-0.15968 0.79841,0 0.95809,0 0.53227,-0.10646 0.63872,-0.5855 -1.75649,-0.0532 -5.42917,-0.37259 -3.67267,-0.31937 -5.69531,-0.31937 -1.59681,0 -3.03394,0.10646 -0.69196,0.31936 -2.02264,0.31936 h -0.95809 q -1.65004,0 -2.34199,0.47905 l 0.42581,0.42581 q 9.04862,0.53228 10.48576,0.53228 3.40654,0 5.96144,-0.42582 z m 3.67268,2.82104 q 0.26613,-0.21291 1.01131,-0.15968 0.79841,0 1.01132,-0.0532 0.47905,-0.10645 0.47905,-0.69195 -3.513,-0.63873 -8.72926,-0.63873 -1.70327,0 -5.10981,0.10645 -3.35331,0.0532 -5.00336,0.0532 -1.91617,0 -3.45976,-0.10645 -0.53227,0.26613 -2.02263,0.37259 -1.43714,0.10645 -2.02264,0.53227 l 0.31937,0.42582 q 4.04526,0.53227 9.68734,0.53227 -0.42582,0 13.83907,-0.37259 z m -25.54905,2.5549 q 4.95013,0.74518 13.46648,0.53227 9.7938,-0.2129 13.46647,0.0532 0.31937,-0.21291 1.80973,-0.37259 1.11777,-0.10645 1.33068,-0.85163 l -3.35331,-0.63873 q -7.71795,0.10646 -23.20705,0 -2.23554,0.47905 -3.61945,0.95809 0,0.31936 0.10645,0.31936 z m 11.07126,2.71459 v -0.63873 q -4.79045,-1.06454 -9.84703,-0.42581 -0.31937,0.26613 -1.22423,0.31936 -0.90486,0 -1.11777,0.5855 2.39523,0.74518 5.4824,0.74518 2.76781,0 6.70663,-0.5855 z m 9.7938,-0.85164 q -0.26614,0.10646 -0.69196,0.10646 -0.21291,0 -0.53227,0 -0.37259,-0.0532 -0.53227,-0.0532 -0.5855,0 -0.85164,0.47905 2.55491,0.7984 6.28081,0.7984 1.38391,0 6.01467,-0.26613 0.5855,-0.21291 0.47905,-0.74518 -4.20495,-0.74518 -6.54695,-0.74518 -1.9694,0 -3.61944,0.42581 z m -11.23094,3.56623 q -0.10645,-0.79841 -1.43713,-0.53228 -1.11777,-0.63872 -3.24686,-0.63872 -3.51299,0.0532 -3.24686,0.10645 -0.37259,0.15968 -1.70327,0.37259 -1.06454,0.15968 -1.3839,0.74518 2.39522,0.69196 5.42917,0.69196 3.1404,0 5.58885,-0.74518 z m 13.46648,-1.01132 q -0.31937,0.31936 -1.70327,0.26613 -1.171,0 -1.171,0.79841 2.02263,0.69196 5.05658,0.69196 2.71459,0 6.12113,-0.5855 l 0.15968,-0.42582 q -2.07586,-0.79841 -8.46312,-0.74518 z m -24.43128,3.7259 q 2.23554,0.69195 5.00336,0.69195 1.86295,0 3.67267,-0.31936 0.53228,0 1.59682,-0.10645 0.5855,-0.10646 0.53227,-0.85164 -2.87427,-0.63872 -8.19698,-0.42582 -0.31937,0.21291 -1.54359,0.3726 -0.90486,0.10645 -1.06455,0.63872 z m 21.55701,-0.42582 q 1.7565,1.06455 4.84367,1.06455 1.22423,0 3.19363,-0.21291 2.71459,-0.21291 3.08718,-0.26614 0.26614,-0.53227 0.26614,-0.53227 l -0.26614,-0.26613 q -4.68399,-0.53228 -6.33403,-0.53228 -2.82104,0 -4.79045,0.74518 z m -13.14711,3.67268 q 0.26613,-0.15968 1.59681,-0.15968 1.01132,0 1.01132,-0.74518 -1.59682,-0.5855 -4.25818,-0.5855 -4.15171,0 -4.41785,-0.0532 -0.26614,0.31936 -1.54359,0.53227 -1.01132,0.15968 -0.85163,0.85164 5.37594,0.47904 5.64208,0.47904 1.54359,0 2.82104,-0.31936 z m 13.73261,-1.11777 q -0.15968,0.0532 -0.37259,0.21291 -0.15968,0.10645 -0.0532,0.31936 2.55491,1.06454 8.56958,0.5855 0.26613,-0.15968 0.74518,-0.15968 0.15968,0 0.47904,0.0532 0.37259,0 0.47905,0 0.95809,0 1.01131,-0.7984 -2.76781,-0.79841 -5.80176,-0.79841 -2.5549,0 -5.05658,0.5855 z m -11.70998,3.7259 q 0.37259,-0.26614 0.37259,-0.74518 -5.00335,-0.69195 -6.38726,-0.69195 -2.9275,0 -4.63077,1.11777 2.71459,0.63872 6.0679,0.63872 2.342,0 4.57754,-0.31936 z m 22.56832,-0.90486 q -4.57753,-0.53227 -6.44049,-0.53227 -2.76781,0 -4.84367,0.69195 v 0.42582 q 2.44845,0.74518 5.64208,0.74518 3.14041,0 5.85499,-0.69196 0.0532,-0.15968 -0.10645,-0.31936 -0.10646,-0.21291 -0.10646,-0.31936 z m -33.00085,3.03395 v 0.42582 q 5.53563,0.69195 5.85499,0.69195 1.43714,0 2.66136,-0.31936 0.21291,-0.21291 1.54359,-0.15969 1.01132,0 1.06454,-0.7984 -2.50167,-0.74518 -5.32271,-0.74518 -3.14041,0 -5.80177,0.90486 z m 30.17981,0.79841 q 0.21291,-0.10646 1.70327,-0.21291 1.06455,-0.0532 1.171,-0.74518 -1.49036,-0.69196 -4.04527,-0.79841 0.85164,0.0532 -4.47108,0.10645 -0.26613,0.15968 -1.65004,0.26614 -1.01132,0.10645 -1.11777,0.85163 4.63076,0.69196 6.12112,0.69196 1.22423,0 2.28877,-0.15968 z m -19.21501,2.23554 v -0.47905 q -2.12909,-0.69195 -4.95013,-0.69195 -2.39522,0 -5.90821,0.5855 -0.26614,0.53227 -0.26614,0.5855 2.18232,0.69195 5.16304,0.69195 3.24686,0 5.96144,-0.69195 z m 13.25357,-1.171 q -0.26614,0.21291 -1.38391,0.31936 -0.90486,0.15968 -1.11777,0.69196 2.02263,0.74518 4.8969,0.74518 1.171,0 6.01467,-0.42582 0.5855,-0.21291 0.47905,-0.74518 -1.65005,-0.5855 -4.41786,-0.53227 -3.51299,0.0532 -4.47108,-0.0532 z m -15.48911,4.68399 q 0.26614,-0.21291 0.95809,-0.15968 0.74518,0 0.90486,-0.0532 0.42582,-0.10645 0.42582,-0.69195 -1.65004,-0.74518 -4.25818,-0.79841 -2.23554,0 -4.52431,0 -0.31936,0.42582 -1.27745,0.5855 -0.95809,0.10645 -1.06454,0.5855 2.71459,0.63872 8.83571,0.53227 z m 22.78123,-1.33068 q -1.9694,-0.53227 -4.20494,-0.53227 -2.82105,0 -5.58886,0.79841 l 0.0532,0.47904 q 1.9694,0.69195 4.73722,0.69195 1.33068,0 5.64208,-0.37259 0.0532,-0.10645 0.53227,-0.15968 0.31936,-0.10645 0.31936,-0.26613 0,-0.15968 -0.0532,-0.31937 -1.06455,-0.42581 -1.43714,-0.31936 z m -19.5876,3.56622 q 0.37259,-0.47904 -0.15968,-0.79841 -5.64208,-0.58549 -8.94217,-0.26613 -0.2129,0.10645 -1.3839,0.21291 -0.85164,0.0532 -0.95809,0.74518 2.18231,0.69195 5.21626,0.69195 2.71459,0 6.22758,-0.5855 z m 18.78919,-0.95809 q -2.34199,-0.37259 -4.73721,-0.37259 -2.76782,0 -5.26949,0.47905 -0.42582,0.26613 -0.10646,0.74518 2.9275,0.69195 5.90822,0.69195 2.60813,0 4.73722,-0.53227 1.70327,-0.0532 1.65004,-0.74518 -0.31936,-0.31936 -1.01132,-0.26614 -1.06454,0.0532 -1.171,0 z m -2.12908,2.39523 -7.87762,0.10645 q -1.96941,0 -5.64209,-0.15968 -3.88558,-0.15968 -5.53562,-0.15968 -4.8969,0 -8.14376,0.95809 0.26614,0.69195 1.06454,0.69195 0.10646,0 0.37259,0 0.31937,0 0.47905,0 0.63872,0 1.01131,0.26614 0.74519,0 13.51971,0.0532 8.14376,0.0532 13.46647,-0.53227 l 0.42582,-0.26614 q -0.15968,-0.74518 -0.79841,-0.74518 -0.21291,0 -0.69195,0.10646 -0.47904,0.10645 -0.74518,0.10645 -0.5855,0 -0.90486,-0.42581 z m -2.87427,2.66135 q -2.18231,0.10646 -10.9648,0 -6.75985,-0.10645 -10.9648,0.53228 -0.31936,0.0532 -0.69195,0.10645 -0.31936,0.0532 -0.21291,0.42582 0.79841,0.37259 2.39522,0.47904 1.80973,0.15968 2.50168,0.37259 2.50168,-0.10645 6.38726,0 5.05658,0.10646 6.22758,0.10646 5.53563,0 9.42121,-0.85164 v -0.42582 q -1.3839,-0.37259 -4.09849,-0.74518 z m -2.5549,2.98073 -13.04066,0.0532 q -1.33068,0.21291 -4.04527,0.79841 0.42582,0.5855 1.80973,0.53227 2.02263,-0.0532 2.07586,-0.0532 2.60813,0.42581 5.85498,0.42581 1.7565,0 5.00336,-0.15968 3.51299,-0.15968 5.05658,-0.15968 l 0.90486,-0.47904 q -0.26613,-0.53228 -1.27745,-0.5855 -0.79841,0 -1.59681,0 -0.47905,-0.0532 -0.74518,-0.37259 z" /></g></g></g>
</g>
</svg>