<?xml version="1.0" encoding="utf-8"?>
<!-- Generator: Adobe Illustrator 16.0.3, SVG Export Plug-In . SVG Version: 6.00 Build 0)  -->
<!DOCTYPE svg PUBLIC "-//W3C//DTD SVG 1.1//EN" "http://www.w3.org/Graphics/SVG/1.1/DTD/svg11.dtd">
<svg version="1.1" id="svg2" xmlns:svg="http://www.w3.org/2000/svg"
	 xmlns="http://www.w3.org/2000/svg" xmlns:xlink="http://www.w3.org/1999/xlink" x="0px" y="0px" width="566.929px"
	 height="86.457px" viewBox="0 0 566.929 86.457" enable-background="new 0 0 566.929 86.457" xml:space="preserve">
<g>
	<g id="g4387">
		<path id="path1922" fill="#081FB8" d="M56.324,24.657h36.038L76.585,41.109H56.324V24.657z"/>
		<path id="path3805" fill="#CD1C33" d="M56.29,61.805h36.037L76.549,45.354H56.29V61.805z"/>
		<path id="path4382" fill="#081FB8" d="M55.539,1.699v20.725c-3.683-2.28-7.78-3.405-12.293-3.405
			c-4.307,0-8.306,1.08-11.987,3.255c-3.688,2.159-6.585,5.113-8.704,8.858c-2.118,3.724-3.18,7.739-3.18,12.004
			c0,4.313,1.063,8.299,3.18,11.981c2.118,3.671,5.027,6.586,8.731,8.738c3.699,2.146,7.683,3.231,11.958,3.231
			c4.474,0,8.576-1.092,12.294-3.255V84.65c-3.994,1.206-8.093,1.807-12.294,1.807c-7.71,0-14.907-1.945-21.573-5.836
			c-6.661-3.89-11.947-9.182-15.837-15.842C1.943,58.119,0,50.899,0,43.137c0-5.75,1.125-11.289,3.382-16.61
			c2.257-5.315,5.39-9.967,9.407-13.95c4.006-3.982,8.61-7.07,13.787-9.269C31.764,1.103,37.317,0,43.244,0
			C47.342,0.002,51.44,0.579,55.539,1.699"/>
	</g>
	<g id="g4407">
		<path id="path4040" fill="#081FB8" d="M566.28,28.599c0.324,0.341,0.463,0.753,0.555,1.645c0.047,0.425,0.096,1.266,0.096,1.898
			c0,2.058-0.141,3.005-0.604,3.498c-0.508,0.522-1.432,0.685-3.975,0.685c-2.217,0-3.65-0.083-4.297-0.217
			c-0.693-0.144-1.201-0.67-1.34-1.345c-0.141-0.545-0.186-1.332-0.186-2.672c0-2.246,0.186-3.127,0.785-3.6
			c0.416-0.324,0.877-0.434,1.986-0.508c0.51-0.023,1.939-0.055,2.635-0.055C564.803,27.929,565.727,28.067,566.28,28.599
			 M557.5,32.027c0,1.932,0.047,2.556,0.371,2.898c0.275,0.285,0.646,0.383,1.523,0.438l2.402,0.06c1.342,0,2.727-0.063,3.145-0.171
			c0.414-0.101,0.738-0.442,0.877-0.872c0.092-0.459,0.139-1.304,0.139-2.334c0-1.803-0.092-2.458-0.416-2.783
			c-0.416-0.407-0.924-0.462-4.205-0.462C557.547,28.802,557.5,28.885,557.5,32.027 M558.473,29.689h3.834
			c1.803,0,1.803,0,2.127,0.188c0.416,0.236,0.555,0.564,0.555,1.396c0,1.021-0.186,1.274-0.926,1.377
			c0.508,0.083,0.693,0.176,0.787,0.452c0.045,0.177,0.092,0.287,0.092,0.953v0.518h-1.664v-0.323c0-0.887,0-0.887-0.971-0.905
			h-2.125v1.229h-1.709V29.689z M562.307,32.047c1.018-0.02,1.018-0.02,1.018-0.537c0-0.504,0-0.504-1.018-0.518h-2.125v1.053h2.125
			V32.047z"/>
		<path id="path4340" fill="#081FB8" d="M151.471,46.328c-0.183,5.143-0.824,7.355-2.838,9.372c-2.93,2.976-6.686,3.763-18.78,3.763
			c-9.417,0-13.377-0.654-16.427-2.865c-2.989-2.074-3.964-5.394-3.964-13.513c0-7.403,0.911-10.653,3.635-12.854
			c2.92-2.404,6.95-3.113,17.337-3.113c10.188,0,14.673,0.774,17.604,3.177c2.472,1.946,3.296,4.354,3.479,10.128h-11.67
			c-0.389-3.498-2.655-4.675-9.413-4.675c-7.989,0-9.477,1.231-9.477,7.659c0,4.031,0.649,5.591,2.729,6.438
			c1.36,0.588,3.828,0.907,6.877,0.907c6.753,0,8.703-0.907,9.221-4.422L151.471,46.328L151.471,46.328z"/>
		<path id="path4342" fill="#081FB8" d="M193.407,29.969c3.113,2.271,3.983,5.059,3.983,12.791c0,8.444-0.779,11.311-3.571,13.642
			c-2.93,2.407-6.774,3.062-18.129,3.062c-11.492,0-15.337-0.654-18.222-3.062c-2.884-2.331-3.617-5.196-3.617-14.099
			c0-7.201,0.916-10.123,3.983-12.333c2.838-2.079,7.324-2.797,17.809-2.797C186.128,27.172,190.569,27.89,193.407,29.969
			 M165.343,43.543c0,4.09,0.549,5.454,2.608,6.301c1.42,0.646,4.029,0.972,7.737,0.972c8.698,0,10.209-1.108,10.209-7.606
			c0-4.152-0.687-5.645-2.792-6.482c-1.465-0.586-4.167-0.916-7.417-0.916C166.9,35.811,165.343,36.979,165.343,43.543"/>
		<path id="path4344" fill="#081FB8" d="M210.53,27.959v4.606h0.596c1.693-3.695,5.585-5.393,12.406-5.393
			c7.418,0,11.492,1.886,13.965,6.437c1.969-4.615,5.723-6.437,13.23-6.437c6.363,0,10.164,1.176,12.818,3.964
			c2.654,2.725,3.25,5.261,3.25,13.174v14.365h-11.492V44.311c-0.091-5.121-0.229-5.702-1.328-6.811
			c-1.145-1.167-3.113-1.689-6.455-1.689c-3.479,0-5.631,0.587-6.82,1.951c-1.328,1.428-1.694,3.246-1.694,8.241v12.673h-11.492
			V44.311c0-4.795-0.137-5.644-1.235-6.811c-1.054-1.167-3.068-1.689-6.365-1.689c-3.479,0-5.723,0.587-7.004,1.882
			c-1.327,1.3-1.693,3.25-1.693,8.311v12.673h-11.491V27.959H210.53z"/>
		<path id="path4346" fill="#081FB8" d="M280.301,27.959v4.606h0.549c1.694-3.695,5.586-5.393,12.408-5.393
			c7.417,0,11.492,1.886,13.964,6.437c1.97-4.615,5.724-6.437,13.277-6.437c6.364,0,10.118,1.176,12.772,3.964
			c2.655,2.725,3.25,5.261,3.25,13.174v14.365h-11.49V44.311c-0.047-5.121-0.184-5.702-1.282-6.811
			c-1.19-1.167-3.114-1.689-6.502-1.689c-3.433,0-5.585,0.587-6.821,1.951c-1.327,1.428-1.693,3.246-1.693,8.241v12.673h-11.492
			V44.311c0-4.795-0.137-5.644-1.235-6.811c-1.054-1.167-3.067-1.689-6.365-1.689c-3.434,0-5.723,0.587-7.005,1.882
			c-1.326,1.3-1.693,3.25-1.693,8.311v12.673h-11.49V27.959H280.301z"/>
		<path id="path4348" fill="#081FB8" d="M378.553,29.969c3.111,2.271,3.936,5.059,3.936,12.791c0,8.444-0.777,11.311-3.57,13.642
			c-2.93,2.407-6.729,3.062-18.129,3.062c-11.492,0-15.292-0.654-18.221-3.062c-2.84-2.331-3.572-5.196-3.572-14.099
			c0-7.201,0.914-10.123,3.982-12.333c2.838-2.079,7.325-2.797,17.764-2.797C371.274,27.172,375.668,27.89,378.553,29.969
			 M350.487,43.543c0,4.09,0.504,5.454,2.609,6.301c1.42,0.646,4.029,0.972,7.691,0.972c8.744,0,10.209-1.108,10.209-7.606
			c0-4.152-0.641-5.645-2.793-6.482c-1.42-0.586-4.166-0.916-7.416-0.916C352.044,35.811,350.487,36.979,350.487,43.543"/>
		<path id="path4350" fill="#081FB8" d="M428.317,58.676h-10.805v-4.028h-0.596c-2.197,3.704-5.264,4.815-13.596,4.815
			c-8.289,0-12.27-0.852-14.926-3.25c-2.52-2.34-3.297-5.463-3.297-13.128c0-7.797,1.236-11.491,4.484-13.629
			c2.795-1.827,5.953-2.339,13.873-2.339c8.059,0,10.713,1.035,12.912,4.936h0.457V15.355h11.49v43.32H428.317z M396.588,42.957
			c0,6.749,1.283,7.793,9.938,7.793c4.211,0,7.324-0.517,8.652-1.428c1.281-0.852,1.738-2.479,1.738-6.049
			c0-6.35-1.512-7.527-9.705-7.527C398.147,35.746,396.588,36.79,396.588,42.957"/>
		<path id="path4352" fill="#081FB8" d="M469.934,29.969c3.111,2.271,3.98,5.059,3.98,12.791c0,8.444-0.775,11.311-3.57,13.642
			c-2.93,2.407-6.775,3.062-18.129,3.062c-11.492,0-15.293-0.654-18.223-3.062c-2.883-2.331-3.57-5.196-3.57-14.099
			c0-7.201,0.916-10.123,3.938-12.333c2.885-2.079,7.371-2.797,17.811-2.797C462.7,27.172,467.094,27.89,469.934,29.969
			 M441.913,43.543c0,4.09,0.506,5.454,2.611,6.301c1.373,0.646,3.98,0.972,7.689,0.972c8.697,0,10.211-1.108,10.211-7.606
			c0-4.152-0.643-5.645-2.795-6.482c-1.418-0.586-4.164-0.916-7.416-0.916C443.471,35.811,441.913,36.979,441.913,43.543"/>
		<path id="path4354" fill="#081FB8" d="M487.1,27.959v4.606h0.598c2.105-3.901,5.355-5.393,11.813-5.393
			c9.246,0,12.359,3.122,12.359,12.343v2.078h-10.805c0-4.551-1.328-5.783-6.043-5.783c-2.609,0-4.762,0.783-5.861,2.212
			c-1.098,1.493-1.418,3.182-1.418,7.922v12.731H476.25V27.959H487.1z"/>
		<path id="path4356" fill="#081FB8" d="M555.086,48.869c-0.869,8.51-5.082,10.594-21.518,10.594
			c-8.881,0-13.094-0.787-15.887-2.865c-3.021-2.271-3.891-5.334-3.891-13.191c0-8.245,0.867-11.299,4.119-13.565
			c3.021-2.079,6.822-2.724,16.848-2.724c10.348,0,14.01,0.646,16.803,2.912c2.701,2.275,3.756,5.718,3.756,12.667
			c0,0.389,0,1.812-0.047,3.11h-30.033c0,3.123,0.367,4.156,1.465,5.009c1.236,0.911,3.617,1.305,7.783,1.305
			c7.324,0,8.697-0.522,9.156-3.25L555.086,48.869L555.086,48.869z M543.78,39.514c-0.094-2.403-0.229-2.984-0.918-3.703
			c-1.053-1.108-3.387-1.558-7.918-1.558c-7.738,0-9.568,0.976-9.707,5.261H543.78z"/>
	</g>
</g>
</svg>
