<?xml version="1.0" encoding="UTF-8" standalone="no"?>
<!-- Generator: Adobe Illustrator 16.0.3, SVG Export Plug-In . SVG Version: 6.00 Build 0)  -->

<svg
   xmlns:dc="http://purl.org/dc/elements/1.1/"
   xmlns:cc="http://creativecommons.org/ns#"
   xmlns:rdf="http://www.w3.org/1999/02/22-rdf-syntax-ns#"
   xmlns:svg="http://www.w3.org/2000/svg"
   xmlns="http://www.w3.org/2000/svg"
   xmlns:sodipodi="http://sodipodi.sourceforge.net/DTD/sodipodi-0.dtd"
   xmlns:inkscape="http://www.inkscape.org/namespaces/inkscape"
   version="1.1"
   id="TEXT"
   x="0px"
   y="0px"
   width="566.929px"
   height="157.78px"
   viewBox="0 -0.001 566.929 157.78"
   enable-background="new 0 -0.001 566.929 157.78"
   xml:space="preserve"
   inkscape:version="0.48.4 r9939"
   sodipodi:docname="mame.svg"><metadata
     id="metadata339"><rdf:RDF><cc:Work
         rdf:about=""><dc:format>image/svg+xml</dc:format><dc:type
           rdf:resource="http://purl.org/dc/dcmitype/StillImage" /></cc:Work></rdf:RDF></metadata><defs
     id="defs337" /><sodipodi:namedview
     pagecolor="#ffffff"
     bordercolor="#666666"
     borderopacity="1"
     objecttolerance="10"
     gridtolerance="10"
     guidetolerance="10"
     inkscape:pageopacity="0"
     inkscape:pageshadow="2"
     inkscape:window-width="1027"
     inkscape:window-height="710"
     id="namedview335"
     showgrid="false"
     inkscape:zoom="0.76376405"
     inkscape:cx="283.46451"
     inkscape:cy="78.889999"
     inkscape:window-x="370"
     inkscape:window-y="134"
     inkscape:window-maximized="0"
     inkscape:current-layer="TEXT" /><linearGradient
     id="SVGID_1_"
     gradientUnits="userSpaceOnUse"
     x1="558.1284"
     y1="955.5977"
     x2="11.77"
     y2="955.5977"
     gradientTransform="matrix(1 0 0 1 -0.1797 -875.4102)"><stop
       offset="0"
       style="stop-color:#013A67"
       id="stop4" /><stop
       offset="1"
       style="stop-color:#6CD1FF"
       id="stop6" /></linearGradient><linearGradient
     id="SVGID_2_"
     gradientUnits="userSpaceOnUse"
     x1="64.7095"
     y1="938.7891"
     x2="60.765"
     y2="934.8448"
     gradientTransform="matrix(1 0 0 1 -0.1797 -875.4102)"><stop
       offset="0"
       style="stop-color:#08406F"
       id="stop11" /><stop
       offset="1"
       style="stop-color:#60C5F5"
       id="stop13" /></linearGradient><linearGradient
     id="SVGID_3_"
     gradientUnits="userSpaceOnUse"
     x1="123.2954"
     y1="1013.9102"
     x2="119.6701"
     y2="1010.2849"
     gradientTransform="matrix(1 0 0 1 -0.1797 -875.4102)"><stop
       offset="0"
       style="stop-color:#08406F"
       id="stop18" /><stop
       offset="1"
       style="stop-color:#60C5F5"
       id="stop20" /></linearGradient><linearGradient
     id="SVGID_4_"
     gradientUnits="userSpaceOnUse"
     x1="25.7236"
     y1="994.0508"
     x2="25.7236"
     y2="989.7383"
     gradientTransform="matrix(1 0 0 1 -0.1797 -875.4102)"><stop
       offset="0"
       style="stop-color:#08406F"
       id="stop25" /><stop
       offset="1"
       style="stop-color:#60C5F5"
       id="stop27" /></linearGradient><linearGradient
     id="SVGID_5_"
     gradientUnits="userSpaceOnUse"
     x1="121.1855"
     y1="1033.1816"
     x2="121.1855"
     y2="1028.7246"
     gradientTransform="matrix(1 0 0 1 -0.1797 -875.4102)"><stop
       offset="0"
       style="stop-color:#08406F"
       id="stop32" /><stop
       offset="1"
       style="stop-color:#60C5F5"
       id="stop34" /></linearGradient><linearGradient
     id="SVGID_6_"
     gradientUnits="userSpaceOnUse"
     x1="427.6938"
     y1="994.0234"
     x2="427.6938"
     y2="989.5566"
     gradientTransform="matrix(1 0 0 1 -0.1797 -875.4102)"><stop
       offset="0"
       style="stop-color:#08406F"
       id="stop39" /><stop
       offset="1"
       style="stop-color:#60C5F5"
       id="stop41" /></linearGradient><linearGradient
     id="SVGID_7_"
     gradientUnits="userSpaceOnUse"
     x1="251.0645"
     y1="994.8945"
     x2="251.0645"
     y2="990.416"
     gradientTransform="matrix(1 0 0 1 -0.1797 -875.4102)"><stop
       offset="0"
       style="stop-color:#08406F"
       id="stop46" /><stop
       offset="1"
       style="stop-color:#60C5F5"
       id="stop48" /></linearGradient><linearGradient
     id="SVGID_8_"
     gradientUnits="userSpaceOnUse"
     x1="522.2808"
     y1="882.1875"
     x2="522.2808"
     y2="877.3242"
     gradientTransform="matrix(1 0 0 1 -0.1797 -875.4102)"><stop
       offset="0"
       style="stop-color:#08406F"
       id="stop53" /><stop
       offset="1"
       style="stop-color:#60C5F5"
       id="stop55" /></linearGradient><linearGradient
     id="SVGID_9_"
     gradientUnits="userSpaceOnUse"
     x1="515.0132"
     y1="906.7148"
     x2="515.0132"
     y2="902.5049"
     gradientTransform="matrix(1 0 0 1 -0.1797 -875.4102)"><stop
       offset="0"
       style="stop-color:#08406F"
       id="stop60" /><stop
       offset="1"
       style="stop-color:#60C5F5"
       id="stop62" /></linearGradient><linearGradient
     id="SVGID_10_"
     gradientUnits="userSpaceOnUse"
     x1="459.3696"
     y1="950.2305"
     x2="459.3696"
     y2="946.5117"
     gradientTransform="matrix(1 0 0 1 -0.1797 -875.4102)"><stop
       offset="0"
       style="stop-color:#08406F"
       id="stop67" /><stop
       offset="1"
       style="stop-color:#60C5F5"
       id="stop69" /></linearGradient><linearGradient
     id="SVGID_11_"
     gradientUnits="userSpaceOnUse"
     x1="490.1606"
     y1="925.1113"
     x2="490.1606"
     y2="919.5566"
     gradientTransform="matrix(1 0 0 1 -0.1797 -875.4102)"><stop
       offset="0"
       style="stop-color:#08406F"
       id="stop74" /><stop
       offset="1"
       style="stop-color:#60C5F5"
       id="stop76" /></linearGradient><linearGradient
     id="SVGID_12_"
     gradientUnits="userSpaceOnUse"
     x1="74.3892"
     y1="968.8252"
     x2="70.846"
     y2="965.282"
     gradientTransform="matrix(1 0 0 1 -0.1797 -875.4102)"><stop
       offset="0"
       style="stop-color:#08406F"
       id="stop81" /><stop
       offset="1"
       style="stop-color:#60C5F5"
       id="stop83" /></linearGradient><linearGradient
     id="SVGID_13_"
     gradientUnits="userSpaceOnUse"
     x1="120.2554"
     y1="904.3691"
     x2="114.8892"
     y2="904.3691"
     gradientTransform="matrix(1 0 0 1 -0.1797 -875.4102)"><stop
       offset="0"
       style="stop-color:#08406F"
       id="stop88" /><stop
       offset="1"
       style="stop-color:#60C5F5"
       id="stop90" /></linearGradient><linearGradient
     id="SVGID_14_"
     gradientUnits="userSpaceOnUse"
     x1="173.0811"
     y1="919.9609"
     x2="166.4209"
     y2="919.9609"
     gradientTransform="matrix(1 0 0 1 -0.1797 -875.4102)"><stop
       offset="0"
       style="stop-color:#08406F"
       id="stop95" /><stop
       offset="1"
       style="stop-color:#60C5F5"
       id="stop97" /></linearGradient><linearGradient
     id="SVGID_15_"
     gradientUnits="userSpaceOnUse"
     x1="255.9883"
     y1="925.2158"
     x2="249.9951"
     y2="925.2158"
     gradientTransform="matrix(1 0 0 1 -0.1797 -875.4102)"><stop
       offset="0"
       style="stop-color:#08406F"
       id="stop102" /><stop
       offset="1"
       style="stop-color:#60C5F5"
       id="stop104" /></linearGradient><linearGradient
     id="SVGID_16_"
     gradientUnits="userSpaceOnUse"
     x1="349.2769"
     y1="904.625"
     x2="343.5757"
     y2="904.625"
     gradientTransform="matrix(1 0 0 1 -0.1797 -875.4102)"><stop
       offset="0"
       style="stop-color:#08406F"
       id="stop109" /><stop
       offset="1"
       style="stop-color:#60C5F5"
       id="stop111" /></linearGradient><linearGradient
     id="SVGID_17_"
     gradientUnits="userSpaceOnUse"
     x1="400.9604"
     y1="918.4463"
     x2="395.1636"
     y2="918.4463"
     gradientTransform="matrix(1 0 0 1 -0.1797 -875.4102)"><stop
       offset="0"
       style="stop-color:#08406F"
       id="stop116" /><stop
       offset="1"
       style="stop-color:#60C5F5"
       id="stop118" /></linearGradient><linearGradient
     id="SVGID_18_"
     gradientUnits="userSpaceOnUse"
     x1="101.7651"
     y1="968.9385"
     x2="96.6543"
     y2="968.9385"
     gradientTransform="matrix(1 0 0 1 -0.1797 -875.4102)"><stop
       offset="0"
       style="stop-color:#08406F"
       id="stop123" /><stop
       offset="1"
       style="stop-color:#60C5F5"
       id="stop125" /></linearGradient><linearGradient
     id="SVGID_19_"
     gradientUnits="userSpaceOnUse"
     x1="121.2485"
     y1="973.8379"
     x2="117.6964"
     y2="970.2858"
     gradientTransform="matrix(1 0 0 1 -0.1797 -875.4102)"><stop
       offset="0"
       style="stop-color:#08406F"
       id="stop130" /><stop
       offset="1"
       style="stop-color:#60C5F5"
       id="stop132" /></linearGradient><linearGradient
     id="SVGID_20_"
     gradientUnits="userSpaceOnUse"
     x1="553.436"
     y1="892.5"
     x2="549.7673"
     y2="888.8311"
     gradientTransform="matrix(1 0 0 1 -0.1797 -875.4102)"><stop
       offset="0"
       style="stop-color:#08406F"
       id="stop137" /><stop
       offset="1"
       style="stop-color:#60C5F5"
       id="stop139" /></linearGradient><linearGradient
     id="SVGID_21_"
     gradientUnits="userSpaceOnUse"
     x1="145.9941"
     y1="969.8789"
     x2="140.5957"
     y2="969.8789"
     gradientTransform="matrix(1 0 0 1 -0.1797 -875.4102)"><stop
       offset="0"
       style="stop-color:#08406F"
       id="stop144" /><stop
       offset="1"
       style="stop-color:#60C5F5"
       id="stop146" /></linearGradient><linearGradient
     id="SVGID_22_"
     gradientUnits="userSpaceOnUse"
     x1="148.7769"
     y1="907.0098"
     x2="144.2891"
     y2="902.522"
     gradientTransform="matrix(1 0 0 1 -0.1797 -875.4102)"><stop
       offset="0"
       style="stop-color:#08406F"
       id="stop151" /><stop
       offset="1"
       style="stop-color:#60C5F5"
       id="stop153" /></linearGradient><linearGradient
     id="SVGID_23_"
     gradientUnits="userSpaceOnUse"
     x1="215.8457"
     y1="922.3213"
     x2="211.688"
     y2="918.1636"
     gradientTransform="matrix(1 0 0 1 -0.1797 -875.4102)"><stop
       offset="0"
       style="stop-color:#08406F"
       id="stop158" /><stop
       offset="1"
       style="stop-color:#60C5F5"
       id="stop160" /></linearGradient><linearGradient
     id="SVGID_24_"
     gradientUnits="userSpaceOnUse"
     x1="304.3159"
     y1="927.8105"
     x2="299.9317"
     y2="923.4263"
     gradientTransform="matrix(1 0 0 1 -0.1797 -875.4102)"><stop
       offset="0"
       style="stop-color:#08406F"
       id="stop165" /><stop
       offset="1"
       style="stop-color:#60C5F5"
       id="stop167" /></linearGradient><linearGradient
     id="SVGID_25_"
     gradientUnits="userSpaceOnUse"
     x1="376.9712"
     y1="906.8613"
     x2="372.7633"
     y2="902.653"
     gradientTransform="matrix(1 0 0 1 -0.1797 -875.4102)"><stop
       offset="0"
       style="stop-color:#08406F"
       id="stop172" /><stop
       offset="1"
       style="stop-color:#60C5F5"
       id="stop174" /></linearGradient><linearGradient
     id="SVGID_26_"
     gradientUnits="userSpaceOnUse"
     x1="488.7378"
     y1="935.2646"
     x2="485.2816"
     y2="931.8086"
     gradientTransform="matrix(1 0 0 1 -0.1797 -875.4102)"><stop
       offset="0"
       style="stop-color:#08406F"
       id="stop179" /><stop
       offset="1"
       style="stop-color:#60C5F5"
       id="stop181" /></linearGradient><linearGradient
     id="SVGID_27_"
     gradientUnits="userSpaceOnUse"
     x1="499.8081"
     y1="979.377"
     x2="495.8485"
     y2="975.4175"
     gradientTransform="matrix(1 0 0 1 -0.1797 -875.4102)"><stop
       offset="0"
       style="stop-color:#08406F"
       id="stop186" /><stop
       offset="1"
       style="stop-color:#60C5F5"
       id="stop188" /></linearGradient><linearGradient
     id="SVGID_28_"
     gradientUnits="userSpaceOnUse"
     x1="441.8374"
     y1="921.6133"
     x2="437.5547"
     y2="917.3306"
     gradientTransform="matrix(1 0 0 1 -0.1797 -875.4102)"><stop
       offset="0"
       style="stop-color:#08406F"
       id="stop193" /><stop
       offset="1"
       style="stop-color:#60C5F5"
       id="stop195" /></linearGradient><linearGradient
     id="SVGID_29_"
     gradientUnits="userSpaceOnUse"
     x1="486.8589"
     y1="916.6494"
     x2="481.7448"
     y2="911.5353"
     gradientTransform="matrix(1 0 0 1 -0.1797 -875.4102)"><stop
       offset="0"
       style="stop-color:#08406F"
       id="stop200" /><stop
       offset="1"
       style="stop-color:#60C5F5"
       id="stop202" /></linearGradient><linearGradient
     id="SVGID_30_"
     gradientUnits="userSpaceOnUse"
     x1="185.9771"
     y1="992.3301"
     x2="182.3352"
     y2="988.6882"
     gradientTransform="matrix(1 0 0 1 -0.1797 -875.4102)"><stop
       offset="0"
       style="stop-color:#08406F"
       id="stop207" /><stop
       offset="1"
       style="stop-color:#60C5F5"
       id="stop209" /></linearGradient><linearGradient
     id="SVGID_31_"
     gradientUnits="userSpaceOnUse"
     x1="303.0278"
     y1="969.1396"
     x2="299.3873"
     y2="965.4991"
     gradientTransform="matrix(1 0 0 1 -0.1797 -875.4102)"><stop
       offset="0"
       style="stop-color:#08406F"
       id="stop214" /><stop
       offset="1"
       style="stop-color:#60C5F5"
       id="stop216" /></linearGradient><linearGradient
     id="SVGID_32_"
     gradientUnits="userSpaceOnUse"
     x1="349.8892"
     y1="973.085"
     x2="346.3799"
     y2="969.5756"
     gradientTransform="matrix(1 0 0 1 -0.1797 -875.4102)"><stop
       offset="0"
       style="stop-color:#08406F"
       id="stop221" /><stop
       offset="1"
       style="stop-color:#60C5F5"
       id="stop223" /></linearGradient><linearGradient
     id="SVGID_33_"
     gradientUnits="userSpaceOnUse"
     x1="370.8042"
     y1="993.6396"
     x2="366.3813"
     y2="989.2169"
     gradientTransform="matrix(1 0 0 1 -0.1797 -875.4102)"><stop
       offset="0"
       style="stop-color:#08406F"
       id="stop228" /><stop
       offset="1"
       style="stop-color:#60C5F5"
       id="stop230" /></linearGradient><linearGradient
     id="SVGID_34_"
     gradientUnits="userSpaceOnUse"
     x1="229.457"
     y1="971.7686"
     x2="223.4189"
     y2="971.7686"
     gradientTransform="matrix(1 0 0 1 -0.1797 -875.4102)"><stop
       offset="0"
       style="stop-color:#08406F"
       id="stop235" /><stop
       offset="1"
       style="stop-color:#60C5F5"
       id="stop237" /></linearGradient><linearGradient
     id="SVGID_35_"
     gradientUnits="userSpaceOnUse"
     x1="330.3042"
     y1="968.5186"
     x2="325.0923"
     y2="968.5186"
     gradientTransform="matrix(1 0 0 1 -0.1797 -875.4102)"><stop
       offset="0"
       style="stop-color:#08406F"
       id="stop242" /><stop
       offset="1"
       style="stop-color:#60C5F5"
       id="stop244" /></linearGradient><linearGradient
     id="SVGID_36_"
     gradientUnits="userSpaceOnUse"
     x1="374.9702"
     y1="967.8066"
     x2="368.7251"
     y2="967.8066"
     gradientTransform="matrix(1 0 0 1 -0.1797 -875.4102)"><stop
       offset="0"
       style="stop-color:#08406F"
       id="stop249" /><stop
       offset="1"
       style="stop-color:#60C5F5"
       id="stop251" /></linearGradient><linearGradient
     id="SVGID_37_"
     gradientUnits="userSpaceOnUse"
     x1="440.6372"
     y1="959.6748"
     x2="436.2191"
     y2="955.2568"
     gradientTransform="matrix(1 0 0 1 -0.1797 -875.4102)"><stop
       offset="0"
       style="stop-color:#08406F"
       id="stop256" /><stop
       offset="1"
       style="stop-color:#60C5F5"
       id="stop258" /></linearGradient><linearGradient
     id="SVGID_38_"
     gradientUnits="userSpaceOnUse"
     x1="472.9204"
     y1="969.5098"
     x2="472.9204"
     y2="963.708"
     gradientTransform="matrix(1 0 0 1 -0.1797 -875.4102)"><stop
       offset="0"
       style="stop-color:#08406F"
       id="stop263" /><stop
       offset="1"
       style="stop-color:#60C5F5"
       id="stop265" /></linearGradient><path
     inkscape:connector-curvature="0"
     d="m 112.3116,50.029385 0,20.41875 -11.805,0 0,-9.1175 -8.821254,0 0,-11.82125 -9.08875,0 0,11.82125 -29.018755,0 0,-11.82125 -9.09375,0 0,11.82125 -8.82,0 0,9.1175 -11.8075,0 0,-20.41875 -8.8555,0 0,38.12875 8.60988,0 0,11.315 11.53812,0 0,12.077495 9.09125,0 0,-12.077495 47.687505,0 0,12.077495 9.091254,0 0,-12.077495 11.53875,0 0,-11.315 8.60875,0 0,-38.12875 -8.855,0 z m -58.998759,28.84625 -9.09,0 0,-8.94125 9.09,0 0,8.94125 z m 29.542505,-8.94125 9.09375,0 0,8.94125 -9.09375,0 0,-8.94125"
     style="fill:#303381;fill-opacity:1;fill-rule:nonzero;stroke:none"
     id="path44" /><g
     style="font-size:64.40646362px;font-style:normal;font-weight:normal;text-align:center;line-height:125%;letter-spacing:0px;word-spacing:0px;text-anchor:middle;fill:#000000;fill-opacity:1;stroke:none;font-family:Sans"
     id="text3323"><path
       d="m 222.72438,40.704017 0,-12.076212 -4.0254,0 0,-4.025404 8.0508,0 0,-8.050808 -8.0508,0 0,8.050808 -8.05081,0 0,-8.050808 -8.05081,0 0,8.050808 8.05081,0 0,4.025404 -4.02541,0 0,12.076212 4.02541,0 0,-4.025404 8.05081,0 0,4.025404 4.0254,0 m -32.20323,30.19053 0,-64.4064641 48.30484,0 0,64.4064641 -20.12701,0 0,-18.114318 -8.05081,0 0,18.114318 -20.12702,0"
       style="font-family:MineCrafter 3;-inkscape-font-specification:MineCrafter 3"
       id="path3330" /><path
       d="m 273.04193,30.640507 0,-8.050808 -8.05081,0 0,8.050808 8.05081,0 m -28.17783,40.25404 0,-64.4064641 48.30485,0 0,36.2286361 -6.03811,0 0,4.025404 6.03811,0 0,24.152424 -20.12702,0 0,-24.152424 -8.05081,0 0,24.152424 -20.12702,0"
       style="font-family:MineCrafter 3;-inkscape-font-specification:MineCrafter 3"
       id="path3332" /><path
       d="m 299.20705,70.894547 0,-64.4064641 52.33025,0 0,16.1016161 -32.20323,0 0,32.203232 32.20323,0 0,16.101616 -52.33025,0"
       style="font-family:MineCrafter 3;-inkscape-font-specification:MineCrafter 3"
       id="path3334" /><path
       d="m 389.77864,40.704017 0,-12.076212 -4.0254,0 0,-4.025404 8.0508,0 0,-8.050808 -8.0508,0 0,8.050808 -8.05081,0 0,-8.050808 -8.05081,0 0,8.050808 8.05081,0 0,4.025404 -4.02541,0 0,12.076212 4.02541,0 0,-4.025404 8.05081,0 0,4.025404 4.0254,0 m -32.20323,30.19053 0,-64.4064641 48.30485,0 0,64.4064641 -20.12702,0 0,-18.114318 -8.05081,0 0,18.114318 -20.12702,0"
       style="font-family:MineCrafter 3;-inkscape-font-specification:MineCrafter 3"
       id="path3336" /><path
       d="m 442.10889,54.792931 0,-32.203232 -10.06351,0 0,32.203232 10.06351,0 m -30.19053,16.101616 0,-64.4064641 44.27945,0 0,6.0381061 6.0381,0 0,52.330252 -6.0381,0 0,6.038106 -44.27945,0"
       style="font-family:MineCrafter 3;-inkscape-font-specification:MineCrafter 3"
       id="path3338" /><path
       d="m 468.27402,70.894547 0,-64.4064641 48.30484,0 0,16.1016161 -28.17782,0 0,8.050808 28.17782,0 0,16.101616 -28.17782,0 0,8.050808 28.17782,0 0,16.101616 -48.30484,0"
       style="font-family:MineCrafter 3;-inkscape-font-specification:MineCrafter 3"
       id="path3340" /><path
       d="m 146.2417,151.40263 0,-64.406468 52.33026,0 0,16.101618 -32.20324,0 0,32.20323 32.20324,0 0,16.10162 -52.33026,0"
       style="font-family:MineCrafter 3;-inkscape-font-specification:MineCrafter 3"
       id="path3342" /><path
       d="m 204.61006,151.40263 0,-64.406468 20.12702,0 0,48.304848 28.17783,0 0,16.10162 -48.30485,0"
       style="font-family:MineCrafter 3;-inkscape-font-specification:MineCrafter 3"
       id="path3344" /><path
       d="m 291.15625,121.2121 0,-12.07622 -4.02541,0 0,-4.0254 8.05081,0 0,-8.050808 -8.05081,0 0,8.050808 -8.05081,0 0,-8.050808 -8.0508,0 0,8.050808 8.0508,0 0,4.0254 -4.0254,0 0,12.07622 4.0254,0 0,-4.02541 8.05081,0 0,4.02541 4.02541,0 m -32.20324,30.19053 0,-64.406468 48.30485,0 0,64.406468 -20.12702,0 0,-18.11432 -8.05081,0 0,18.11432 -20.12702,0"
       style="font-family:MineCrafter 3;-inkscape-font-specification:MineCrafter 3"
       id="path3346" /><path
       d="m 313.29596,151.40263 0,-16.10162 30.19053,0 0,-8.05081 -30.19053,0 0,-40.254038 50.31755,0 0,16.101618 -30.19053,0 0,8.05081 30.19053,0 0,40.25404 -50.31755,0"
       style="font-family:MineCrafter 3;-inkscape-font-specification:MineCrafter 3"
       id="path3348" /><path
       d="m 369.65162,151.40263 0,-16.10162 30.19053,0 0,-8.05081 -30.19053,0 0,-40.254038 50.31755,0 0,16.101618 -30.19053,0 0,8.05081 30.19053,0 0,40.25404 -50.31755,0"
       style="font-family:MineCrafter 3;-inkscape-font-specification:MineCrafter 3"
       id="path3350" /><path
       d="m 426.00727,151.40263 0,-64.406468 20.12702,0 0,64.406468 -20.12702,0"
       style="font-family:MineCrafter 3;-inkscape-font-specification:MineCrafter 3"
       id="path3352" /><path
       d="m 452.1724,151.40263 0,-64.406468 52.33025,0 0,16.101618 -32.20323,0 0,32.20323 32.20323,0 0,16.10162 -52.33025,0"
       style="font-family:MineCrafter 3;-inkscape-font-specification:MineCrafter 3"
       id="path3354" /><path
       d="m 510.54078,151.40263 0,-16.10162 30.19053,0 0,-8.05081 -30.19053,0 0,-40.254038 50.31755,0 0,16.101618 -30.19053,0 0,8.05081 30.19053,0 0,40.25404 -50.31755,0"
       style="font-family:MineCrafter 3;-inkscape-font-specification:MineCrafter 3"
       id="path3356" /></g></svg>