<?xml version="1.0" encoding="utf-8"?>
<!-- Generator: Adobe Illustrator 19.0.0, SVG Export Plug-In . SVG Version: 6.00 Build 0)  -->
<svg version="1.1" baseProfile="tiny" id="Layer_1" xmlns="http://www.w3.org/2000/svg" xmlns:xlink="http://www.w3.org/1999/xlink"
	 x="0px" y="0px" viewBox="-261 285 87.2 221" xml:space="preserve">
<g id="XMLID_2_">
	<g id="XMLID_698_">
		<path fill="#60605D" d="M-214.2,367.6h-6v-50c0-18.4-9.3-26.6-30.2-26.6v-6c24,0,36.2,11,36.2,32.6V367.6z"/>
	</g>
	<polygon id="XMLID_697_" fill="#868580" points="-207.6,362 -216.2,362 -216.2,360.4 -208.3,360.4 -209,358.4 -216.2,358.4 
		-216.2,356.8 -209.7,356.8 -210.6,354.4 -216.2,354.4 -216.2,352.8 -211.3,352.8 -212.2,350.4 -222.2,350.4 -223.1,352.8 
		-217.8,352.8 -217.8,354.4 -223.7,354.4 -224.6,356.8 -217.8,356.8 -217.8,358.4 -225.1,358.4 -225.9,360.4 -217.8,360.4 
		-217.8,362 -226.5,362 -227.8,365.6 -206.2,365.6 	"/>
	<path id="XMLID_695_" fill="#C9C9C9" d="M-253.8,364.4h72.8c4,0,7.2,3.2,7.2,7.2v127.2c0,4-3.2,7.2-7.2,7.2h-72.8
		c-4,0-7.2-3.2-7.2-7.2V371.6C-261,367.6-257.8,364.4-253.8,364.4z"/>
	<path id="XMLID_693_" fill="#DCDBDB" d="M-242.2,390.4h50.4c1.3,0,2.4,1.1,2.4,2.4v70.4c0,1.3-1.1,2.4-2.4,2.4h-50.4
		c-1.3,0-2.4-1.1-2.4-2.4v-70.4C-244.6,391.4-243.5,390.4-242.2,390.4z"/>
	<g id="XMLID_688_">
		<path id="XMLID_691_" fill="#60605D" d="M-242.2,376.5h16c1.3,0,2.4,1.1,2.4,2.4v32c0,1.3-1.1,2.4-2.4,2.4h-16
			c-1.3,0-2.4-1.1-2.4-2.4v-32C-244.6,377.6-243.5,376.5-242.2,376.5z"/>
		<path id="XMLID_689_" fill="#868580" d="M-242.2,374.4h16c1.3,0,2.4,1.1,2.4,2.4v32c0,1.3-1.1,2.4-2.4,2.4h-16
			c-1.3,0-2.4-1.1-2.4-2.4v-32C-244.6,375.4-243.5,374.4-242.2,374.4z"/>
	</g>
	<g id="XMLID_683_">
		<path id="XMLID_686_" fill="#60605D" d="M-207.8,376.5h16c1.3,0,2.4,1.1,2.4,2.4v32c0,1.3-1.1,2.4-2.4,2.4h-16
			c-1.3,0-2.4-1.1-2.4-2.4v-32C-210.2,377.6-209.1,376.5-207.8,376.5z"/>
		<path id="XMLID_684_" fill="#868580" d="M-207.8,374.4h16c1.3,0,2.4,1.1,2.4,2.4v32c0,1.3-1.1,2.4-2.4,2.4h-16
			c-1.3,0-2.4-1.1-2.4-2.4v-32C-210.2,375.4-209.1,374.4-207.8,374.4z"/>
	</g>
</g>
</svg>
