<?xml version="1.0" encoding="utf-8"?>
<!-- Generator: Adobe Illustrator 19.0.0, SVG Export Plug-In . SVG Version: 6.00 Build 0)  -->
<svg version="1.1" id="Layer_1" xmlns="http://www.w3.org/2000/svg" xmlns:xlink="http://www.w3.org/1999/xlink" x="0px" y="0px"
	 viewBox="-226 314.1 158.2 164.9" enable-background="new -226 314.1 158.2 164.9" xml:space="preserve">
<g>
	<g id="XMLID_647_">
		<path id="_x3C_Path_x3E_" fill="#292929" d="M-225.5,314.3l-1,0.9l-0.3,1.1l0.2,161.2l0.4,0.8l0.8,0.5l156.9,0.1l1-0.6l0.5-1
			l-0.2-143.8h-1.1V327l0.9,0.2V325l-12.1-10.5l-2.4-0.1l-0.7,0.7h-12.8l-1.2,1.1l-2.6,0.1h-86.3v-0.7l-21.2-0.3l0.1-0.8
			L-225.5,314.3L-225.5,314.3z M-81.8,461.7h9v5.9h-9V461.7z"/>
		
			<path id="_x3C_Path_x3E__1_" fill="none" stroke="#333333" stroke-width="0.9" stroke-linecap="round" stroke-linejoin="round" stroke-miterlimit="10" d="
			M-226.8,316.3l0.1,161.2l0.4,0.8l0.8,0.5l156.9,0.1l1-0.6l0.5-1l-0.2-143.8h-1.1V327l0.9,0.2V325l-12-10.5l-2.4-0.1l-0.7,0.7
			h-12.8l-1.2,1.1h-2.6h-86.3v-0.7l-21.2-0.1l0.1-0.8l-18.9-0.2l-1,0.9L-226.8,316.3L-226.8,316.3z"/>
		
			<path id="_x3C_Path_x3E__2_" fill="none" stroke="#818181" stroke-width="0.6" stroke-linecap="round" stroke-linejoin="round" stroke-miterlimit="10" d="
			M-206.4,315V368l0.4,0.7l0.5,0.2h23.1"/>
		<path id="_x3C_Path_x3E__3_" fill="#010101" d="M-221.6,467.7h9v-5.9h-9V467.7z"/>
		<path id="_x3C_Path_x3E__4_" fill="none" stroke="#010101" d="M-191.9,380.3"/>
		<path id="_x3C_Path_x3E__5_" fill="#FFFFFF" d="M-86.3,475v-87.7l-0.9-1l-119.4,0.1l-1,0.7v88L-86.3,475z"/>
		<path id="_x3C_Path_x3E__6_" fill="#B0AFB0" d="M-185.4,314.2v53.7l1.6,1.2h82.5l1.4-1.5v-53.4H-185.4L-185.4,314.2z M-136.2,323
			h23.1v43.3h-23.1V323z"/>
	</g>
	<g id="XMLID_629_">
		<g id="XMLID_648_">
			<path id="XMLID_658_" d="M-162.8,430.8l0.1-5.2l-4.3,5.2H-162.8z M-162.8,431.8h-5l-1,1.2l-1.1,1.4c-0.2,0.3-0.4,0.6-0.5,0.8
				c-0.1,0.2-0.1,0.4-0.1,0.6s0.1,0.4,0.3,0.5c0.2,0.2,0.6,0.3,1,0.3v0.4h-4.9l0.1-0.4c0.4-0.1,0.8-0.2,1.1-0.5c0.4-0.3,1-1,1.8-2
				l10.9-13.6h0.5v13.1c0,0.7,0,1.1,0,1.2c0,0.5,0.1,0.9,0.4,1.2c0.2,0.2,0.6,0.4,1.1,0.4l-0.1,0.4h-6.9l0.1-0.4
				c0.7-0.1,1.1-0.1,1.2-0.2c0.2-0.1,0.4-0.3,0.6-0.7c0.2-0.4,0.3-1,0.3-1.8L-162.8,431.8z"/>
			<path id="XMLID_656_" d="M-147.6,420.9l1.7,11l7.2-11h5.7l-0.1,0.4c-0.8,0-1.4,0.2-1.8,0.5c-0.4,0.3-0.7,1-1,2l-2.6,10.3
				c-0.2,0.7-0.2,1.1-0.2,1.5c0,0.3,0.1,0.5,0.4,0.7c0.2,0.2,0.7,0.3,1.4,0.3l-0.1,0.4h-8.1l0.1-0.4c0.9,0,1.5-0.2,1.9-0.5
				s0.7-1,1-2l2.6-10.4l-8.7,13.3h-0.5l-2-13.5l-2.7,10.7c-0.1,0.4-0.2,0.8-0.1,1.1c0,0.4,0.2,0.7,0.5,1c0.3,0.2,0.8,0.4,1.4,0.4
				l-0.1,0.4h-5.3l0.1-0.4c0.6,0,1.1-0.2,1.5-0.4c0.6-0.4,1-1.1,1.2-2.1l3-11.9c-0.3-0.4-0.7-0.6-0.9-0.7c-0.2-0.1-0.7-0.2-1.4-0.2
				l0.1-0.4L-147.6,420.9L-147.6,420.9z"/>
			<path id="XMLID_654_" d="M-131.6,421.4l0.1-0.4h7.9l-0.1,0.4c-0.7,0-1.3,0.2-1.6,0.5c-0.4,0.3-0.7,1-0.9,2l-2.6,10.3
				c-0.2,0.7-0.3,1.2-0.3,1.5s0.1,0.5,0.4,0.7c0.3,0.2,0.8,0.3,1.6,0.3l-0.1,0.4h-8l0.1-0.4c0.8,0,1.4-0.2,1.8-0.5
				c0.4-0.3,0.7-1,0.9-2l2.6-10.3c0.2-0.6,0.2-1.1,0.2-1.5c0-0.3-0.1-0.5-0.4-0.7C-130.2,421.5-130.8,421.4-131.6,421.4z"/>
			<path id="XMLID_651_" d="M-100,430.8l0.1-5.2l-4.3,5.2H-100z M-99.9,431.8h-5l-1,1.2l-1.1,1.4c-0.2,0.3-0.4,0.6-0.5,0.8
				c-0.1,0.2-0.1,0.4-0.1,0.6s0.1,0.4,0.3,0.5c0.2,0.2,0.6,0.3,1,0.3v0.4h-4.9l0.1-0.4c0.4-0.1,0.8-0.2,1.1-0.5c0.4-0.3,1.1-1,1.8-2
				l10.9-13.6h0.5v13.1c0,0.7,0,1.1,0,1.2c0,0.5,0.1,0.9,0.4,1.2c0.2,0.2,0.6,0.4,1.1,0.4l-0.1,0.4h-7l0.1-0.4
				c0.7-0.1,1.1-0.1,1.2-0.2c0.2-0.1,0.4-0.3,0.6-0.7c0.2-0.4,0.3-1,0.3-1.8L-99.9,431.8z"/>
			<path id="XMLID_649_" d="M-108.8,420.7c0.1,0.1,0.1,0.6,0.1,0.6l-0.8,4.4h-0.4c-0.1-1.5-0.2-2.6-0.8-3.2c-0.6-0.7-1-1-2.1-1
				c-1.2,0-2.6,0.4-3.7,1.2c-1.1,0.8-2.5,2-3.3,3.7c-0.7,1.7-1.2,3.4-1.1,5.2c0.1,1.6,0.5,2.8,1.3,3.6c0.8,0.8,1.7,1.2,2.7,1.2
				c0.4,0,0.9-0.1,1.5-0.3l1.1-4.2c0.2-0.7,0.3-1.2,0.3-1.4c0-0.3-0.1-0.5-0.4-0.7s-0.7-0.3-1.3-0.3l0.1-0.5h6.9l-0.1,0.5
				c-0.4,0-0.7,0.1-1,0.2c-0.2,0.1-0.4,0.3-0.5,0.6c-0.1,0.2-0.2,0.6-0.3,1.2l-1.2,4.8c-1.7,0.7-3.5,1-5.3,1c-1.5,0-2.7-0.3-3.8-0.8
				s-1.9-1.3-2.6-2.4s-1.1-2.4-1.2-3.8c-0.1-3,1.1-5.5,3.8-7.5c2.1-1.5,4.4-2.2,7.1-2.4c0.3,0,0.9-0.1,1.8-0.1c0.8,0,1.7,0,3,0.1
				C-109,420.6-108.9,420.6-108.8,420.7z"/>
		</g>
		<g id="XMLID_630_">
			<polygon id="XMLID_645_" fill="#010101" points="-193.5,426.5 -189.9,426.5 -185.2,433.7 -186.3,437.8 			"/>
			<g id="XMLID_638_">
				<polygon id="XMLID_642_" fill="#010101" points="-197.7,426.5 -194,426.5 -186.8,437.8 -190.4,437.8 				"/>
				<polygon id="XMLID_640_" fill="#010101" points="-163.9,410.2 -167.5,410.2 -187,437.8 -183.3,437.8 				"/>
				<polygon id="XMLID_639_" fill="#010101" points="-167.4,410.2 -171,410.2 -190.4,437.8 -186.8,437.8 				"/>
			</g>
			<polygon id="XMLID_637_" opacity="0.9" fill="#010101" enable-background="new    " points="-198.5,425.9 -194.9,425.9 
				-187.6,437.3 -191.3,437.3 			"/>
			<polygon id="XMLID_636_" opacity="0.9" fill="#010101" enable-background="new    " points="-194.4,425.9 -190.7,425.9 
				-183.5,437.3 -187.1,437.3 			"/>
			<g id="XMLID_633_" opacity="0.85">
				
					<linearGradient id="XMLID_2_" gradientUnits="userSpaceOnUse" x1="-193.05" y1="435.0359" x2="-193.05" y2="423.6733" gradientTransform="matrix(1 0 0 1 0 2.2)">
					<stop  offset="0" style="stop-color:#6FC177"/>
					<stop  offset="0.2139" style="stop-color:#6CC7B4"/>
					<stop  offset="0.5348" style="stop-color:#24BECB"/>
					<stop  offset="0.7807" style="stop-color:#3167B2"/>
					<stop  offset="1" style="stop-color:#3D57A7"/>
				</linearGradient>
				<polygon id="XMLID_635_" fill="url(#XMLID_2_)" points="-198.5,425.9 -194.9,425.9 -187.6,437.3 -191.3,437.3 				"/>
				
					<linearGradient id="XMLID_3_" gradientUnits="userSpaceOnUse" x1="-188.95" y1="435.0359" x2="-188.95" y2="423.6733" gradientTransform="matrix(1 0 0 1 0 2.2)">
					<stop  offset="0" style="stop-color:#6FC177"/>
					<stop  offset="0.2139" style="stop-color:#6CC7B4"/>
					<stop  offset="0.5348" style="stop-color:#24BECB"/>
					<stop  offset="0.7807" style="stop-color:#3167B2"/>
					<stop  offset="1" style="stop-color:#3D57A7"/>
				</linearGradient>
				<polygon id="XMLID_634_" fill="url(#XMLID_3_)" points="-194.4,425.9 -190.7,425.9 -183.5,437.3 -187.1,437.3 				"/>
			</g>
			
				<linearGradient id="XMLID_4_" gradientUnits="userSpaceOnUse" x1="-179.75" y1="435.0359" x2="-179.75" y2="407.4359" gradientTransform="matrix(1 0 0 1 0 2.2)">
				<stop  offset="0" style="stop-color:#429644"/>
				<stop  offset="0.1337" style="stop-color:#55AA47"/>
				<stop  offset="0.4225" style="stop-color:#FFCD28"/>
				<stop  offset="0.5348" style="stop-color:#FFCD28"/>
				<stop  offset="0.7807" style="stop-color:#F26723"/>
				<stop  offset="1" style="stop-color:#DB4526"/>
			</linearGradient>
			<polygon id="XMLID_632_" fill="url(#XMLID_4_)" points="-168.2,409.7 -171.9,409.7 -191.3,437.3 -187.6,437.3 			"/>
			
				<linearGradient id="XMLID_5_" gradientUnits="userSpaceOnUse" x1="-175.65" y1="435.0359" x2="-175.65" y2="407.4359" gradientTransform="matrix(1 0 0 1 0 2.2)">
				<stop  offset="0" style="stop-color:#429644"/>
				<stop  offset="0.1337" style="stop-color:#55AA47"/>
				<stop  offset="0.4225" style="stop-color:#FFCD28"/>
				<stop  offset="0.5348" style="stop-color:#FFCD28"/>
				<stop  offset="0.7807" style="stop-color:#F26723"/>
				<stop  offset="1" style="stop-color:#DB4526"/>
			</linearGradient>
			<polygon id="XMLID_631_" fill="url(#XMLID_5_)" points="-164.1,409.7 -167.8,409.7 -187.2,437.3 -183.5,437.3 			"/>
		</g>
	</g>
</g>
</svg>
