<?xml version="1.0" encoding="UTF-8" standalone="no"?>
<svg
   xmlns:dc="http://purl.org/dc/elements/1.1/"
   xmlns:cc="http://creativecommons.org/ns#"
   xmlns:rdf="http://www.w3.org/1999/02/22-rdf-syntax-ns#"
   xmlns:svg="http://www.w3.org/2000/svg"
   xmlns="http://www.w3.org/2000/svg"
   xmlns:xlink="http://www.w3.org/1999/xlink"
   xmlns:sodipodi="http://sodipodi.sourceforge.net/DTD/sodipodi-0.dtd"
   xmlns:inkscape="http://www.inkscape.org/namespaces/inkscape"
   xml:space="preserve"
   viewBox="-64 344.8 482 105.2"
   y="0px"
   x="0px"
   id="svg7148"
   version="1.1"
   sodipodi:docname="logo500+.svg"
   inkscape:version="0.92.4 (5da689c313, 2019-01-14)"><sodipodi:namedview
   pagecolor="#ffffff"
   bordercolor="#666666"
   borderopacity="1"
   objecttolerance="10"
   gridtolerance="10"
   guidetolerance="10"
   inkscape:pageopacity="0"
   inkscape:pageshadow="2"
   inkscape:window-width="1920"
   inkscape:window-height="1014"
   id="namedview33"
   showgrid="false"
   inkscape:zoom="2.0421009"
   inkscape:cx="220.73413"
   inkscape:cy="-31.796028"
   inkscape:window-x="0"
   inkscape:window-y="29"
   inkscape:window-maximized="1"
   inkscape:current-layer="text876" /><metadata
   id="metadata64"><rdf:RDF><cc:Work
       rdf:about=""><dc:format>image/svg+xml</dc:format><dc:type
         rdf:resource="http://purl.org/dc/dcmitype/StillImage" /><dc:title></dc:title></cc:Work></rdf:RDF></metadata><defs
   id="defs62"><clipPath
   id="clipPath842"
   clipPathUnits="userSpaceOnUse"><use
     height="100%"
     width="100%"
     id="use844"
     xlink:href="#g838"
     y="0"
     x="0" /></clipPath>
	
	
	
	
	
	
	
	
</defs>
<g
   id="g838"><g
   aria-label="500"
   transform="scale(1.0317462,0.96923057)"
   style="font-style:normal;font-variant:normal;font-weight:normal;font-stretch:normal;font-size:54.27433777px;line-height:1.25;font-family:BoobToob;-inkscape-font-specification:'BoobToob, Normal';font-variant-ligatures:discretionary-ligatures historical-ligatures;font-variant-caps:normal;font-variant-numeric:normal;font-feature-settings:normal;text-align:start;letter-spacing:0px;word-spacing:0px;writing-mode:lr-tb;text-anchor:start;fill:#ff0000;fill-opacity:1;stroke:none;stroke-width:0.81411511"
   id="text876"><g
   id="g896"><g
     id="g901"
     transform="scale(0.96923061,1.0317462)"><g
   id="Logo">
		<path
   id="path3002"
   d="m -11.4,344.8 c -29.1,0 -52.6,23.6 -52.6,52.6 0,29.1 23.6,52.6 52.6,52.6 5.6,0 11,-0.9 16,-2.5 v -26.3 c -4.4,2.5 -9.5,4 -14.9,4 -16,0 -28.9,-12.5 -28.9,-27.8 0,-15.3 13,-27.8 28.9,-27.8 5.5,0 10.6,1.5 14.9,4 v -26.3 c -5,-1.6 -10.4,-2.5 -16,-2.5 z"
   inkscape:connector-curvature="0"
   style="fill:#002255" />
		<polygon
   id="polygon9367"
   points="5.1,395.7 5.1,377.4 44.3,377.4 26.7,395.7 "
   style="fill:#002255" />
		<polygon
   id="polygon9369"
   points="5.1,399.4 5.1,417.7 44.3,417.7 26.7,399.4 "
   style="fill:#ff0000" />
	</g><g
   id="Commodore">
		<path
   id="path3067"
   d="m 110.6,391.1 c 5,0 9,-1.4 12.2,-4 3.2,-2.7 4.8,-6.4 4.9,-11.3 -0.1,-4.9 -1.7,-8.7 -4.9,-11.4 -3.2,-2.7 -7.2,-4 -12.2,-4 -5,0 -9,1.4 -12.2,4 -3.2,2.6 -4.8,6.5 -4.9,11.4 0.1,4.9 1.7,8.7 4.9,11.3 3.2,2.6 7.2,4 12.2,4 z m 0,-7.1 c -2.3,-0.1 -4,-0.9 -5.1,-2.5 -1.1,-1.6 -1.6,-3.5 -1.5,-5.8 0,-2.3 0.5,-4.2 1.5,-5.8 1,-1.6 2.7,-2.4 5.1,-2.5 2.3,0.1 4,0.9 5.1,2.5 1.1,1.6 1.6,3.5 1.5,5.8 0,2.2 -0.5,4.2 -1.5,5.8 -1.1,1.6 -2.8,2.4 -5.1,2.5 z"
   inkscape:connector-curvature="0"
   style="fill:#002255" />
		<path
   id="path3069"
   d="M 131.8,390.4 H 142 V 378 c 0,-3.1 0.5,-5.5 1.5,-7 1,-1.5 2.4,-2.2 4.2,-2.2 1.4,0 2.5,0.6 3.1,1.7 0.6,1.1 1,2.5 1,4.2 v 15.8 H 162 v -12.4 c 0,-3.1 0.5,-5.5 1.5,-7 1,-1.5 2.4,-2.2 4.2,-2.2 1.4,0 2.5,0.6 3.1,1.7 0.6,1.1 1,2.5 1,4.2 v 15.8 H 182 v -17.3 c 0.1,-4 -0.6,-7.1 -2,-9.4 -1.4,-2.2 -4.2,-3.4 -8.4,-3.4 -2.1,0 -4.1,0.4 -5.9,1.3 -1.8,0.9 -3.3,2.3 -4.5,4.3 -0.8,-1.9 -2,-3.3 -3.6,-4.3 -1.6,-0.9 -3.5,-1.4 -5.6,-1.4 -2.3,0 -4.5,0.5 -6.3,1.5 -1.9,1 -3.3,2.5 -4.4,4.6 h -0.1 v -5.4 h -9.3 z"
   inkscape:connector-curvature="0"
   style="fill:#002255" />
		<path
   id="path3071"
   d="m 187.5,390.4 h 10.2 V 378 c 0,-3.1 0.5,-5.5 1.5,-7 1,-1.5 2.4,-2.2 4.2,-2.2 1.4,0 2.5,0.6 3.1,1.7 0.6,1.1 1,2.5 1,4.2 v 15.8 h 10.2 v -12.4 c 0,-3.1 0.5,-5.5 1.5,-7 1,-1.5 2.4,-2.2 4.2,-2.2 1.4,0 2.5,0.6 3.1,1.7 0.6,1.1 1,2.5 1,4.2 v 15.8 h 10.2 v -17.3 c 0.1,-4 -0.6,-7.1 -2,-9.4 -1.4,-2.2 -4.2,-3.4 -8.4,-3.4 -2.1,0 -4.1,0.4 -5.9,1.3 -1.8,0.9 -3.3,2.3 -4.5,4.3 -0.8,-1.9 -2,-3.3 -3.6,-4.3 -1.6,-0.9 -3.5,-1.4 -5.6,-1.4 -2.3,0 -4.5,0.5 -6.3,1.5 -1.9,1 -3.3,2.5 -4.4,4.6 h -0.1 v -5.4 h -9.3 z"
   inkscape:connector-curvature="0"
   style="fill:#002255" />
		<path
   id="path3073"
   d="m 258.8,391.1 c 5,0 9,-1.4 12.2,-4 3.2,-2.7 4.8,-6.4 4.9,-11.3 -0.1,-4.9 -1.7,-8.7 -4.9,-11.4 -3.2,-2.7 -7.2,-4 -12.2,-4 -5,0 -9,1.4 -12.2,4 -3.2,2.6 -4.8,6.5 -4.9,11.4 0.1,4.9 1.7,8.7 4.9,11.3 3.2,2.6 7.3,4 12.2,4 z m 0,-7.1 c -2.3,-0.1 -4,-0.9 -5.1,-2.5 -1.1,-1.6 -1.6,-3.5 -1.5,-5.8 0,-2.3 0.5,-4.2 1.5,-5.8 1,-1.6 2.7,-2.4 5.1,-2.5 2.3,0.1 4,0.9 5.1,2.5 1.1,1.6 1.6,3.5 1.5,5.8 0,2.2 -0.5,4.2 -1.5,5.8 -1.1,1.6 -2.7,2.4 -5.1,2.5 z"
   inkscape:connector-curvature="0"
   style="fill:#002255" />
		<path
   id="path3075"
   d="m 311.7,348.1 h -10.2 v 16.7 h -0.1 c -1.3,-1.7 -2.8,-2.8 -4.5,-3.5 -1.7,-0.7 -3.6,-1 -5.6,-1 -4.1,0.2 -7.2,1.7 -9.3,4.7 -2.1,3 -3.2,6.4 -3.2,10.1 0,4.5 1.2,8.2 3.4,11.2 2.3,3 5.6,4.6 10,4.7 2.4,0 4.5,-0.6 6.3,-1.7 1.8,-1.1 3.1,-2.5 3.8,-4.2 h 0.1 v 5.3 h 9.4 z m -22.6,27.3 c 0,-2 0.5,-3.7 1.6,-5.1 1.1,-1.4 2.6,-2.1 4.6,-2.2 1.9,0 3.4,0.8 4.5,2.2 1.1,1.4 1.7,3.2 1.7,5.5 0,2.2 -0.7,4 -1.8,5.4 -1.1,1.4 -2.6,2.1 -4.4,2.1 -1.9,0 -3.4,-0.8 -4.5,-2.2 -1.1,-1.4 -1.7,-3.3 -1.7,-5.7 z"
   inkscape:connector-curvature="0"
   style="fill:#002255" />
		<path
   id="path3077"
   d="m 332.6,391.1 c 5,0 9,-1.4 12.2,-4 3.2,-2.7 4.8,-6.4 4.9,-11.3 -0.1,-4.9 -1.7,-8.7 -4.9,-11.4 -3.2,-2.7 -7.2,-4 -12.2,-4 -5,0 -9,1.4 -12.2,4 -3.2,2.7 -4.8,6.5 -4.9,11.4 0.1,4.9 1.7,8.7 4.9,11.3 3.2,2.6 7.3,4 12.2,4 z m 0,-7.1 c -2.3,-0.1 -4,-0.9 -5.1,-2.5 -1,-1.6 -1.6,-3.5 -1.5,-5.8 0,-2.3 0.5,-4.2 1.5,-5.8 1,-1.6 2.7,-2.4 5.1,-2.5 2.3,0.1 4,0.9 5.1,2.5 1,1.6 1.6,3.5 1.5,5.8 0,2.2 -0.5,4.2 -1.5,5.8 -1,1.6 -2.7,2.4 -5.1,2.5 z"
   inkscape:connector-curvature="0"
   style="fill:#002255" />
		<path
   id="path3079"
   d="m 375.4,360.7 c -0.5,-0.1 -1.1,-0.2 -1.7,-0.2 -0.6,-0.1 -1.2,-0.1 -1.8,-0.1 -2.2,0 -4,0.6 -5.3,1.7 -1.4,1.1 -2.5,2.6 -3.4,4.4 h -0.1 v -5.4 h -9.3 v 29.4 H 364 v -12.4 c 0,-2.9 0.6,-5.2 1.9,-6.8 1.3,-1.6 3.1,-2.4 5.5,-2.4 0.6,0 1.2,0 1.7,0 0.6,0 1.1,0.1 1.7,0.3 z"
   inkscape:connector-curvature="0"
   style="fill:#002255" />
		<path
   id="path3081"
   d="m 407.3,378.7 v -1.9 c 0.1,-4.5 -1.1,-8.4 -3.3,-11.5 -2.3,-3.2 -6.1,-4.8 -11.5,-5 -4.7,0 -8.4,1.4 -11.3,4 -2.9,2.7 -4.4,6.4 -4.4,11.3 0.1,4.9 1.7,8.7 4.9,11.3 3.2,2.7 7.2,4 12.2,4.1 1.9,0 3.8,-0.1 5.6,-0.4 1.8,-0.3 3.6,-0.8 5.2,-1.4 V 382 c -1.5,0.8 -3.1,1.4 -4.6,1.7 -1.5,0.4 -3,0.5 -4.4,0.5 -2.5,0 -4.5,-0.4 -6,-1.3 -1.5,-0.9 -2.4,-2.3 -2.7,-4.3 z m -20.5,-5.8 c 0.1,-1.7 0.6,-3.2 1.5,-4.3 0.9,-1.2 2.3,-1.8 4.1,-1.8 2,0 3.5,0.6 4.3,1.8 0.9,1.2 1.3,2.6 1.3,4.3 z"
   inkscape:connector-curvature="0"
   style="fill:#002255" />
		<path
   id="path3064"
   d="m 71.8,390.7 c -4.4,-1.2 -7.8,-3.2 -10.6,-6.3 -2.8,-3.1 -4.1,-5.9 -4.9,-10.9 -1.5,-9.8 2.7,-18.8 10.8,-22.7 4.1,-2 9.6,-3 15.1,-3 3.4,0 6.4,0.6 9.2,1.1 l -0.9,8.8 c 0,0 -0.7,-0.2 -2.7,-0.7 -1.9,-0.5 -3.8,-0.7 -5.7,-0.7 -3.8,0 -7.5,1 -9.9,2.9 -5.7,4.4 -5.7,15.9 0.2,20.7 3.6,3 10.1,4 15.9,2.5 l 2.7,-0.7 0.8,8.9 c -1.7,0.4 -5.3,1.1 -9.7,1.1 -5.8,0 -7.6,-0.2 -10.3,-1 z"
   inkscape:connector-curvature="0"
   style="fill:#002255" />
	</g><rect
   id="Line"
   x="49"
   y="395.79999"
   width="369"
   height="3"
   style="fill:#002255" /><g
   id="Amiga">
		<path
   id="path6187"
   d="m 104.7,443.9 c 0,-0.5 -0.1,-0.9 -0.4,-1 -0.3,-0.2 -0.6,-0.3 -1.1,-0.3 -1.6,-0.3 -2.5,-0.9 -2.8,-1.8 -0.3,-1 -0.4,-2.2 -0.4,-3.7 l -1.6,-30.8 c 0,-1.1 -0.1,-2 -0.3,-2.8 -0.2,-0.7 -0.9,-1.1 -2.2,-1.2 -1.1,0 -1.9,0.4 -2.4,1 -0.5,0.6 -1,1.4 -1.6,2.2 l -19.8,27.8 -3.3,4.7 c -0.7,1 -1.4,1.9 -2.1,2.8 -0.8,0.9 -1.8,1.4 -3,1.6 -0.7,0.1 -1.3,0.2 -1.9,0.4 -0.6,0.2 -0.9,0.7 -1,1.5 0,0.5 0.2,0.8 0.5,0.9 0.3,0.1 0.7,0.2 1.1,0.2 1.1,0 2.3,-0.1 3.5,-0.2 1.2,-0.1 2.3,-0.2 3.5,-0.2 1.1,0 2.1,0.1 3.1,0.2 1,0.1 2.1,0.1 3.1,0.2 0.5,0 0.9,-0.1 1.3,-0.3 0.4,-0.2 0.6,-0.6 0.6,-1.1 -0.1,-0.8 -0.5,-1.2 -1.4,-1.3 -0.9,-0.1 -1.7,-0.3 -2.6,-0.5 -0.9,-0.2 -1.3,-0.8 -1.4,-1.9 0.2,-1.1 0.9,-2.7 2.2,-4.7 1.3,-2 2.2,-3.5 2.8,-4.3 h 12.3 c 0.1,1.3 0.1,2.6 0.2,3.9 0.1,1.3 0.1,2.6 0.1,3.9 -0.1,1.8 -0.5,2.9 -1.4,3.2 -0.9,0.3 -1.8,0.5 -2.6,0.5 -0.9,0 -1.4,0.6 -1.4,1.5 0,0.4 0.1,0.7 0.4,0.9 0.3,0.2 0.6,0.2 1,0.2 1.7,0 3.4,-0.1 5.1,-0.2 1.7,-0.1 3.4,-0.2 5.1,-0.2 1.1,0 2.3,0.1 3.4,0.1 1.1,0.1 2.3,0.1 3.4,0.1 0.5,0 1,-0.1 1.3,-0.2 0.5,-0.2 0.7,-0.5 0.7,-1.1 z M 89.5,428.2 H 79.2 L 89,413.9 Z"
   inkscape:connector-curvature="0"
   style="fill:#ff0000" />
		<path
   id="path4766"
   d="m 194.1,404.7 c 0,-0.4 -0.1,-0.6 -0.4,-0.8 -0.2,-0.2 -0.5,-0.3 -0.9,-0.3 -0.6,0 -1.1,0 -1.6,0.1 -0.5,0 -1.1,0.1 -1.6,0.2 -1.4,0.1 -2.7,0.2 -4.1,0.3 -1.4,0 -2.8,0 -4.2,0 -1,0 -2,-0.1 -3.1,-0.1 -1,-0.1 -2,-0.1 -3.1,-0.1 -0.5,0 -0.9,0.1 -1.3,0.4 -0.4,0.3 -0.6,0.7 -0.6,1.2 0.2,0.9 0.9,1.4 2.1,1.3 1.2,-0.1 1.9,0.5 2.1,1.6 0,0.3 0,0.6 -0.1,1 -0.1,0.3 -0.2,0.6 -0.3,1 l -7.8,27 c -0.3,1.3 -0.6,2.4 -1,3.3 -0.4,0.9 -1.2,1.5 -2.5,1.8 -0.6,0.1 -1.3,0.2 -2.1,0.4 -0.8,0.2 -1.3,0.7 -1.3,1.4 0,0.4 0.2,0.7 0.5,0.9 0.3,0.2 0.7,0.3 1.1,0.3 1.3,0 2.7,-0.1 4,-0.2 1.4,-0.1 2.7,-0.2 4.1,-0.2 1.5,0 2.9,0.1 4.4,0.2 1.5,0.1 2.9,0.1 4.4,0.2 0.6,0 1.3,0 2.1,-0.1 0.8,-0.1 1.2,-0.5 1.3,-1.3 -0.1,-0.8 -0.5,-1.2 -1.2,-1.3 -0.7,-0.1 -1.5,-0.2 -2.2,-0.4 -0.7,-0.2 -1.1,-0.9 -1.2,-2.1 0,-0.5 0.1,-1 0.2,-1.5 0.1,-0.5 0.3,-1 0.4,-1.5 l 7.8,-27.1 c 0.3,-1.1 0.6,-1.9 1,-2.4 0.4,-0.5 1.2,-0.9 2.3,-1.1 0.6,-0.1 1.2,-0.2 1.9,-0.5 0.5,-0.5 0.8,-0.9 0.9,-1.6 z"
   inkscape:connector-curvature="0"
   style="fill:#ff0000" />
		<path
   id="path4768"
   d="m 234.7,405 c -0.1,-0.7 -0.8,-1.1 -2,-1.4 -1.3,-0.3 -2.6,-0.4 -4,-0.5 -1.4,-0.1 -2.3,-0.1 -2.8,-0.1 -5.2,0 -10.6,1.1 -16.2,3.1 -5.6,2.1 -10.4,5.1 -14.4,9.1 -4,4 -6.1,8.9 -6.2,14.7 0.1,3.7 1.1,6.7 3.2,9.1 2.1,2.4 4.6,4.2 7.8,5.4 3.1,1.2 6.3,1.8 9.7,1.8 2,0 4,-0.1 6.1,-0.4 2,-0.2 4,-0.6 6,-1.1 0.7,-0.1 1.4,-0.3 1.9,-0.6 0.5,-0.2 0.9,-0.7 1.2,-1.5 0.5,-1.5 1,-3.1 1.5,-4.7 0.5,-1.6 0.9,-3.2 1.3,-4.7 0.7,-2.2 1.6,-3.6 2.6,-4 1,-0.4 1.9,-0.6 2.7,-0.6 0.8,0 1.2,-0.5 1.2,-1.5 0,-0.4 -0.2,-0.7 -0.5,-0.9 -0.3,-0.2 -0.7,-0.3 -1,-0.3 -1.5,0 -3.1,0.1 -4.6,0.2 -1.6,0.1 -3.1,0.2 -4.7,0.2 -1.5,0 -3,-0.1 -4.4,-0.2 -1.5,-0.1 -3,-0.2 -4.4,-0.2 -0.5,0 -1,0.1 -1.4,0.3 -0.5,0.2 -0.7,0.6 -0.7,1.1 0.1,0.7 0.5,1.1 1.2,1.2 0.8,0.1 1.5,0.2 2.3,0.5 0.8,0.2 1.2,0.9 1.2,2 -0.1,1.2 -0.4,2.7 -1.1,4.8 -0.6,2 -1.2,3.6 -1.6,4.9 -0.2,0.9 -0.6,1.6 -1,2 -0.4,0.4 -1.1,0.6 -2.1,0.6 -3.6,-0.1 -6.4,-1.2 -8.2,-3.5 -1.9,-2.3 -2.8,-5.1 -2.8,-8.6 0,-3.2 0.7,-6.4 2,-9.4 1.3,-3 3.1,-5.7 5.3,-8 2.2,-2.2 5,-4.1 8.2,-5.7 3.3,-1.6 6.5,-2.4 9.7,-2.5 1.5,0 2.4,0.3 2.8,0.9 0.3,0.6 0.5,1.6 0.4,3 0,0.4 0,0.7 -0.1,1.1 0,0.4 -0.1,0.7 -0.1,1.1 0,0.6 0.1,1.2 0.3,1.7 0.2,0.5 0.7,0.8 1.4,0.8 0.8,-0.1 1.3,-0.4 1.7,-1.1 0.4,-0.7 0.6,-1.4 0.8,-2 0.2,-0.5 0.5,-1.5 1,-3.1 0.4,-1.6 0.7,-2.6 0.8,-3 z"
   inkscape:connector-curvature="0"
   style="fill:#ff0000" />
		<path
   id="path4770"
   d="m 270.1,443.9 c 0,-0.5 -0.1,-0.9 -0.4,-1 -0.3,-0.2 -0.6,-0.3 -1.1,-0.3 -1.6,-0.3 -2.5,-0.9 -2.8,-1.8 -0.3,-1 -0.4,-2.2 -0.4,-3.7 l -1.6,-30.8 c 0,-1.1 -0.1,-2 -0.3,-2.8 -0.2,-0.7 -0.9,-1.1 -2.2,-1.2 -1.1,0 -1.9,0.4 -2.4,1 -0.5,0.6 -1,1.4 -1.6,2.2 l -19.8,27.8 -3.3,4.7 c -0.7,1 -1.4,1.9 -2.1,2.8 -0.8,0.9 -1.8,1.4 -3,1.6 -0.7,0.1 -1.3,0.2 -1.9,0.4 -0.6,0.2 -0.9,0.7 -1,1.5 0,0.5 0.2,0.8 0.5,0.9 0.3,0.1 0.7,0.2 1.1,0.2 1.1,0 2.3,-0.1 3.5,-0.2 1.2,-0.1 2.3,-0.2 3.5,-0.2 1.1,0 2.1,0.1 3.1,0.2 1.1,0.1 2.1,0.1 3.1,0.2 0.5,0 0.9,-0.1 1.3,-0.3 0.4,-0.2 0.6,-0.6 0.6,-1.1 -0.1,-0.8 -0.5,-1.2 -1.4,-1.3 -0.9,-0.1 -1.7,-0.3 -2.6,-0.5 -0.9,-0.2 -1.3,-0.8 -1.4,-1.9 0.2,-1.1 0.9,-2.7 2.2,-4.7 1.3,-2 2.2,-3.5 2.8,-4.3 h 12.4 c 0.1,1.3 0.1,2.6 0.2,3.9 0.1,1.3 0.1,2.6 0.1,3.9 -0.1,1.8 -0.5,2.9 -1.4,3.2 -0.9,0.3 -1.8,0.5 -2.6,0.5 -0.9,0 -1.4,0.6 -1.4,1.5 0,0.4 0.1,0.7 0.4,0.9 0.3,0.2 0.6,0.2 1,0.2 1.7,0 3.4,-0.1 5.1,-0.2 1.7,-0.1 3.4,-0.2 5.1,-0.2 1.1,0 2.3,0.1 3.4,0.1 1.1,0.1 2.3,0.1 3.4,0.1 0.5,0 1,-0.1 1.3,-0.2 0.4,-0.2 0.6,-0.5 0.6,-1.1 z m -15.3,-15.7 h -10.3 l 9.8,-14.3 z"
   inkscape:connector-curvature="0"
   style="fill:#ff0000" />
		<path
   id="path4764"
   d="m 167.9,404.9 c 0,-0.4 -0.1,-0.7 -0.4,-0.9 -0.2,-0.2 -0.5,-0.3 -0.9,-0.3 -1.3,0 -2.6,0 -3.9,0.1 -1.3,0.1 -2.6,0.1 -3.9,0.1 -0.7,0 -1.7,-0.1 -3.1,-0.1 -1.4,0 -2.3,0.1 -2.8,0.5 -0.1,0.1 -0.2,0.3 -0.2,0.4 -0.1,0.2 -0.2,0.3 -0.2,0.4 l -17,25.7 -0.7,-25.3 c 0,-0.5 0,-0.9 -0.1,-1.2 -0.1,-0.4 -0.4,-0.5 -0.9,-0.6 -1.4,0 -2.9,0 -4.3,0.1 -1.4,0 -2.9,0 -4.3,0 -0.8,0 -1.6,-0.1 -2.4,-0.1 -0.8,-0.1 -1.6,-0.1 -2.4,-0.1 -0.5,0 -1,0.1 -1.5,0.2 -0.5,0.2 -0.7,0.5 -0.8,1.1 0.2,1 1,1.5 2.3,1.4 1.4,0 2.1,0.5 2.3,1.4 0,0.7 -0.2,1.4 -0.4,2.1 -0.3,0.7 -0.5,1.4 -0.7,2 -1.5,4.2 -3,8.3 -4.5,12.5 -1.5,4.2 -3,8.3 -4.6,12.5 -0.6,1.8 -1.2,3 -1.8,3.7 -0.6,0.7 -1.8,1.2 -3.7,1.5 -0.5,0.1 -1,0.2 -1.4,0.5 -0.4,0.2 -0.6,0.6 -0.6,1.2 0,0.5 0.2,0.8 0.5,1 0.3,0.1 0.7,0.2 1.2,0.2 1.1,0 2.2,0 3.3,-0.1 1.1,-0.1 2.2,-0.1 3.3,-0.1 1,0 2,0.1 3,0.2 1,0.1 2,0.1 3,0.2 0.5,0 0.9,-0.1 1.3,-0.3 0.4,-0.2 0.6,-0.6 0.7,-1.1 -0.1,-0.9 -0.5,-1.3 -1.4,-1.4 -0.9,-0.1 -1.8,-0.2 -2.7,-0.4 -0.9,-0.2 -1.4,-1 -1.4,-2.4 0.1,-1.9 0.8,-4.8 2.1,-8.7 1.3,-3.8 2.6,-7.6 4.1,-11.2 1.4,-3.6 2.4,-6 2.9,-7.3 l 0.7,29.4 c 0,0.9 0.1,1.6 0.3,2.2 0.2,0.5 0.8,0.8 1.8,0.8 1,0 1.8,-0.4 2.4,-1.1 0.6,-0.7 1.1,-1.4 1.6,-2.2 l 19.8,-29.1 -6.5,24.6 c -0.2,1.1 -0.5,2.1 -0.9,3.2 -0.4,1.1 -1.2,1.7 -2.3,2 -0.7,0 -1.4,0.2 -2.2,0.3 -0.8,0.2 -1.3,0.7 -1.4,1.5 0,0.5 0.2,0.8 0.5,1 0.3,0.2 0.7,0.3 1.1,0.3 1.4,0 2.9,-0.1 4.3,-0.2 1.4,-0.1 2.9,-0.2 4.3,-0.2 1.5,0 3,0.1 4.4,0.2 1.5,0.1 3,0.2 4.4,0.2 0.6,0 1,-0.1 1.5,-0.3 0.4,-0.2 0.7,-0.6 0.7,-1.2 -0.1,-0.7 -0.4,-1.2 -1.1,-1.3 -0.7,-0.1 -1.4,-0.3 -2.1,-0.5 -0.7,-0.2 -1.1,-0.8 -1.1,-1.9 0,-0.7 0.1,-1.5 0.3,-2.3 0.2,-0.8 0.3,-1.5 0.5,-2.2 l 6.3,-25.3 c 0.2,-1.1 0.5,-2 0.9,-2.6 0.4,-0.6 1.1,-1 2.3,-1.2 0.6,0 1.2,-0.2 1.8,-0.4 0.3,0.1 0.7,-0.3 0.7,-1.1 z"
   inkscape:connector-curvature="0"
   style="fill:#ff0000" />
	</g>
</g><g
     id="text872"
     style="font-style:normal;font-variant:normal;font-weight:normal;font-stretch:normal;font-size:53.2266655px;line-height:1.25;font-family:BoobToob;-inkscape-font-specification:'BoobToob, Normal';font-variant-ligatures:discretionary-ligatures historical-ligatures;font-variant-caps:normal;font-variant-numeric:normal;font-feature-settings:normal;text-align:start;letter-spacing:0px;word-spacing:0px;writing-mode:lr-tb;text-anchor:start;fill:#ff0000;fill-opacity:1;stroke:none;stroke-width:1.08332622"
     transform="scale(0.96923061,1.0317462)"
     aria-label="500+"><path
       id="path860"
       style=""
       d="m 280.71335,405.04939 q 3.35328,-0.15968 13.62602,-0.0532 8.51627,0 13.62603,-0.42582 v -0.74517 q -9.52757,-0.69195 -26.29397,-0.69195 -1.54358,0.63872 -3.30006,0.53227 -0.15968,0.26613 -0.15968,0.42581 0,0.47904 1.11776,0.53227 1.17099,0.0532 1.3839,0.42581 z m 28.05045,2.55488 0.31936,-0.26613 q 0,-0.37259 -0.15968,-0.47904 -5.69525,-0.63872 -14.53088,-0.63872 -7.07915,0 -14.21152,0 l -2.76779,0.42581 -0.10645,0.63872 2.18229,0.47904 q 7.29206,0.15968 14.58411,0.26614 8.51627,0.0532 14.69056,-0.42582 z m -29.43435,3.08715 24.11168,0.15968 4.63072,-0.53227 0.31936,-0.26613 q -0.0532,-0.53227 -0.7984,-0.58549 -0.90485,-0.0532 -1.06453,-0.31936 -15.1696,-0.31936 -22.62133,-0.0532 -3.7791,-0.53227 -6.75979,0.58549 0,0.5855 0.42581,0.74518 0.10646,0 0.95808,0 0.5855,-0.0532 0.7984,0.26613 z m 8.19691,2.50165 q 0.0532,-0.0532 0.69195,-0.15968 0.47904,-0.0532 0.47904,-0.31936 0,-0.2129 -0.10646,-0.42581 -1.54357,-0.53227 -4.15168,-0.53227 -3.4065,0 -4.2049,-0.10645 -0.31936,0.21291 -1.65003,0.37259 -1.06453,0.15968 -1.38389,0.74517 1.75648,0.85163 4.68394,0.85163 1.22422,0 5.64203,-0.42582 z m 1.06453,2.34198 q -1.33066,-0.74518 -3.77909,-0.85163 -2.07584,-0.0532 -4.15168,-0.15968 -0.37259,0.21291 -1.91616,0.37259 -1.22421,0.15968 -1.49035,0.85162 2.71456,0.85163 6.01462,0.85163 2.07584,0 4.52426,-0.31936 0.10646,-0.10645 0.47904,-0.15968 0.42582,-0.10645 0.42582,-0.31936 0,-0.10645 -0.10646,-0.26613 z m -8.62272,1.91616 q -0.26613,0.2129 -1.70325,0.37258 -1.11776,0.10646 -1.01131,0.7984 2.02262,0.7984 4.7904,0.7984 1.43712,0 5.64203,-0.42581 0.95808,-0.10645 0.95808,-0.69195 0,-0.10645 -0.10645,-0.26613 -1.65003,-0.53227 -4.15168,-0.58549 -2.1823,0 -4.41782,0 z m 21.66326,4.41781 q 0.2129,-0.15968 0.58549,-0.15968 0.15968,0 0.47904,0.0532 0.31936,0.0532 0.47904,0.0532 0.42581,0 0.69195,-0.42581 -0.31936,-0.63872 -1.54358,-0.63872 -2.23552,0.0532 -2.07584,0.0532 -4.04522,-0.53227 -10.11306,-0.53227 -5.05654,0 -10.11307,-0.0532 -0.26613,0.15968 -1.65003,0.37259 -1.06453,0.15968 -1.22421,0.85163 0.42581,0.0532 1.80971,0.42581 1.06453,0.26613 1.8097,0.26613 1.96939,0 6.91947,0.0532 4.36459,0.10645 6.91947,0.0532 3.83232,-0.0532 7.02592,-0.37259 z m 1.54357,3.14037 3.992,-0.69194 q 0.0532,-0.15968 0.15968,-0.37259 0.10645,-0.15968 -0.21291,-0.31936 -10.48565,-0.69195 -26.3472,-0.69195 l -3.4065,0.69195 q -0.10646,0.63872 0.74517,0.85163 1.33067,0.31936 1.43712,0.37258 z m -13.51957,0.90486 q -7.02592,-0.37259 -11.39051,0.2129 -0.37259,0.26614 -0.37259,0.74518 5.85494,0.90485 13.46635,0.90485 2.23552,0 17.08576,-0.58549 0.31936,-0.0532 0.69195,-0.15968 0.37258,-0.10646 0.2129,-0.53227 -3.4065,-0.69195 -8.09045,-0.69195 -1.49035,0 -4.36459,0.10646 -2.87424,0.0532 -4.31136,0.0532 -1.5968,0 -2.92746,-0.0532 z m 8.14368,3.30005 -0.15968,0.47904 q 4.68394,0.95808 9.68725,0.7984 0.31936,-0.21291 1.86293,-0.31936 0.90486,-0.0532 1.17099,-0.7984 -3.72587,-0.7984 -6.97269,-0.7984 -3.03392,0 -5.5888,0.63872 z m 13.04053,3.03392 q -2.82101,-0.95808 -6.01461,-0.95808 -2.71456,0 -5.16299,0.74517 -0.26613,0.53227 -0.26613,0.53227 2.07584,0.74517 4.95008,0.74517 1.11776,0 6.06784,-0.42581 0,0 0.26613,-0.15968 0.26613,-0.21291 0.15968,-0.47904 z m -10.00661,2.28875 q -0.26614,0.15968 -1.75648,0.15968 -1.11776,0 -1.17099,0.74517 3.88555,0.95808 9.47435,0.42581 0.15968,-0.0532 1.8097,-0.10645 1.11776,0 1.06454,-0.90485 -2.66134,-0.63872 -5.32267,-0.63872 -1.86293,0 -4.09845,0.31936 z m -18.73579,2.3952 q -1.33067,0.37258 -4.15168,0.74517 0.10645,0.63872 1.06453,0.90485 0.7984,0.21291 1.5968,0.42582 23.63264,0 25.06976,0 0.37259,-0.26614 2.07584,-0.42582 1.27744,-0.10645 1.54358,-0.7984 -0.95808,-0.15968 -2.71456,-0.69194 z m 25.49557,3.67264 q -8.1969,-0.63872 -27.89077,-0.74518 -0.31936,0.31936 -1.49035,0.47904 -0.95808,0.15968 -1.11776,0.69195 1.17099,0.53227 4.52427,0.69195 9.90016,0.37258 22.94069,-0.26614 0.47904,-0.26613 1.65003,-0.10645 1.01131,0.15968 1.49035,-0.21291 0.10645,-0.26613 -0.10646,-0.53226 z m -25.97461,2.02261 q -1.22421,0.15968 -3.61941,0.58549 l 0.0532,0.63872 q 4.63072,0.74518 11.07115,0.74518 2.71456,0 14.90347,-0.53227 0.26613,-0.53227 0.26613,-0.53227 -4.36459,-0.95808 -11.28405,-0.90485 -9.63403,0.10645 -11.39051,0 z" /><path
       id="path862"
       style=""
       d="m 335.23575,405.15585 q 0.37259,-0.21291 1.01131,-0.15968 0.7984,0 0.95808,0 0.53226,-0.10646 0.63872,-0.5855 -1.75648,-0.0532 -5.42912,-0.37258 -3.67264,-0.31936 -5.69526,-0.31936 -1.5968,0 -3.03392,0.10645 -0.69194,0.31936 -2.02261,0.31936 h -0.95808 q -1.65003,0 -2.34197,0.47904 l 0.42581,0.42581 q 9.04853,0.53227 10.48565,0.53227 3.40651,0 5.96139,-0.42581 z m 3.67264,2.82101 q 0.26613,-0.21291 1.01131,-0.15968 0.7984,0 1.0113,-0.0532 0.47904,-0.10645 0.47904,-0.69194 -3.51296,-0.63872 -8.72917,-0.63872 -1.70325,0 -5.10976,0.10645 -3.35328,0.0532 -5.00331,0.0532 -1.91616,0 -3.45973,-0.10646 -0.53227,0.26614 -2.02261,0.37259 -1.43712,0.10645 -2.02262,0.53227 l 0.31936,0.42581 q 4.04523,0.53227 9.68726,0.53227 -0.42582,0 13.83893,-0.37259 z m -25.5488,2.55488 q 4.95008,0.74517 13.46635,0.53227 9.7937,-0.21291 13.46634,0.0532 0.31936,-0.2129 1.80971,-0.37258 1.11776,-0.10646 1.33067,-0.85163 l -3.35328,-0.63872 q -7.71787,0.10645 -23.20683,0 -2.23552,0.47904 -3.61941,0.95808 0,0.31936 0.10645,0.31936 z m 11.07115,2.71456 v -0.63872 q -4.7904,-1.06453 -9.84694,-0.42581 -0.31936,0.26613 -1.22421,0.31936 -0.90485,0 -1.11776,0.58549 2.3952,0.74517 5.48235,0.74517 2.76778,0 6.70656,-0.58549 z m 9.7937,-0.85163 q -0.26613,0.10646 -0.69194,0.10646 -0.21291,0 -0.53227,0 -0.37259,-0.0532 -0.53227,-0.0532 -0.58549,0 -0.85162,0.47904 2.55488,0.7984 6.28074,0.7984 1.3839,0 6.01462,-0.26613 0.58549,-0.21291 0.47904,-0.74518 -4.20491,-0.74517 -6.54688,-0.74517 -1.96939,0 -3.61942,0.42581 z m -11.23082,3.56619 q -0.10646,-0.7984 -1.43712,-0.53227 -1.11776,-0.63872 -3.24683,-0.63872 -3.51296,0.0532 -3.24683,0.10646 -0.37258,0.15968 -1.70325,0.37258 -1.06453,0.15968 -1.38389,0.74518 2.3952,0.69194 5.42912,0.69194 3.14037,0 5.5888,-0.74517 z m 13.46634,-1.01131 q -0.31936,0.31936 -1.70325,0.26614 -1.17099,0 -1.17099,0.7984 2.02262,0.69194 5.05654,0.69194 2.71456,0 6.12106,-0.58549 l 0.15968,-0.42581 q -2.07584,-0.7984 -8.46304,-0.74518 z m -24.43104,3.72587 q 2.23552,0.69195 5.00331,0.69195 1.86293,0 3.67264,-0.31936 0.53227,0 1.5968,-0.10646 0.58549,-0.10645 0.53227,-0.85162 -2.87424,-0.63872 -8.19691,-0.42582 -0.31936,0.21291 -1.54357,0.37259 -0.90486,0.10645 -1.06454,0.63872 z m 21.5568,-0.42581 q 1.75648,1.06453 4.84363,1.06453 1.22421,0 3.1936,-0.21291 2.71456,-0.2129 3.08715,-0.26613 0.26613,-0.53227 0.26613,-0.53227 l -0.26613,-0.26613 q -4.68395,-0.53227 -6.33398,-0.53227 -2.82101,0 -4.7904,0.74518 z m -13.14698,3.67264 q 0.26613,-0.15968 1.5968,-0.15968 1.0113,0 1.0113,-0.74518 -1.5968,-0.58549 -4.25813,-0.58549 -4.15168,0 -4.41781,-0.0532 -0.26614,0.31936 -1.54358,0.53227 -1.0113,0.15968 -0.85162,0.85163 5.37589,0.47904 5.64202,0.47904 1.54358,0 2.82102,-0.31936 z m 13.73248,-1.11776 q -0.15968,0.0532 -0.37259,0.2129 -0.15968,0.10646 -0.0532,0.31936 2.55488,1.06454 8.5695,0.5855 0.26613,-0.15968 0.74517,-0.15968 0.15968,0 0.47904,0.0532 0.37259,0 0.47904,0 0.95808,0 1.01131,-0.7984 -2.76779,-0.7984 -5.80171,-0.7984 -2.55488,0 -5.05653,0.5855 z m -11.70987,3.72586 q 0.37259,-0.26613 0.37259,-0.74517 -5.00331,-0.69195 -6.3872,-0.69195 -2.92747,0 -4.63072,1.11776 2.71456,0.63872 6.06784,0.63872 2.34197,0 4.57749,-0.31936 z m 22.56811,-0.90485 q -4.5775,-0.53227 -6.44043,-0.53227 -2.76779,0 -4.84363,0.69195 v 0.42581 q 2.44843,0.74518 5.64203,0.74518 3.14037,0 5.85493,-0.69195 0.0532,-0.15968 -0.10645,-0.31936 -0.10645,-0.21291 -0.10645,-0.31936 z m -33.00054,3.03392 v 0.42581 q 5.53558,0.69195 5.85494,0.69195 1.43712,0 2.66133,-0.31936 0.21291,-0.21291 1.54357,-0.15968 1.01131,0 1.06454,-0.7984 -2.50166,-0.74517 -5.32267,-0.74517 -3.14037,0 -5.80171,0.90485 z m 30.17952,0.7984 q 0.21291,-0.10645 1.70326,-0.21291 1.06453,-0.0532 1.17098,-0.74517 -1.49034,-0.69195 -4.04522,-0.7984 0.85162,0.0532 -4.47104,0.10645 -0.26614,0.15968 -1.65003,0.26614 -1.01131,0.10645 -1.11776,0.85162 4.63072,0.69195 6.12107,0.69195 1.22421,0 2.28874,-0.15968 z m -19.21482,2.23552 v -0.47904 q -2.12907,-0.69195 -4.95008,-0.69195 -2.3952,0 -5.90816,0.5855 -0.26614,0.53226 -0.26614,0.58549 2.1823,0.69195 5.16299,0.69195 3.24683,0 5.96139,-0.69195 z m 13.25344,-1.17099 q -0.26614,0.21291 -1.3839,0.31936 -0.90485,0.15968 -1.11776,0.69195 2.02262,0.74517 4.89686,0.74517 1.17098,0 6.01461,-0.42581 0.58549,-0.21291 0.47904,-0.74517 -1.65003,-0.5855 -4.41781,-0.53227 -3.51296,0.0532 -4.47104,-0.0532 z m -15.48896,4.68395 q 0.26613,-0.21291 0.95808,-0.15968 0.74517,0 0.90485,-0.0532 0.42581,-0.10645 0.42581,-0.69194 -1.65002,-0.74518 -4.25813,-0.7984 -2.23552,0 -4.52427,0 -0.31936,0.42581 -1.27744,0.58549 -0.95808,0.10645 -1.06453,0.58549 2.71456,0.63872 8.83563,0.53227 z m 22.78101,-1.33067 q -1.96939,-0.53226 -4.20491,-0.53226 -2.82101,0 -5.5888,0.7984 l 0.0532,0.47904 q 1.96939,0.69194 4.73717,0.69194 1.33067,0 5.64203,-0.37258 0.0532,-0.10646 0.53227,-0.15968 0.31936,-0.10646 0.31936,-0.26614 0,-0.15968 -0.0532,-0.31936 -1.06453,-0.42581 -1.43712,-0.31936 z m -19.58741,3.56619 q 0.37258,-0.47904 -0.15968,-0.7984 -5.64203,-0.58549 -8.94208,-0.26613 -0.21291,0.10645 -1.3839,0.2129 -0.85162,0.0532 -0.95808,0.74518 2.1823,0.69194 5.21622,0.69194 2.71456,0 6.22752,-0.58549 z m 18.78901,-0.95808 q -2.34197,-0.37259 -4.73717,-0.37259 -2.76779,0 -5.26944,0.47904 -0.42582,0.26614 -0.10646,0.74518 2.92747,0.69194 5.90816,0.69194 2.60811,0 4.73718,-0.53226 1.70325,-0.0532 1.65002,-0.74518 -0.31936,-0.31936 -1.0113,-0.26613 -1.06454,0.0532 -1.17099,0 z m -2.12907,2.3952 -7.87754,0.10645 q -1.96939,0 -5.64203,-0.15968 -3.88555,-0.15968 -5.53557,-0.15968 -4.89686,0 -8.14368,0.95808 0.26613,0.69195 1.06453,0.69195 0.10645,0 0.37259,0 0.31936,0 0.47904,0 0.63872,0 1.0113,0.26613 0.74518,0 13.51958,0.0532 8.14368,0.0532 13.46634,-0.53227 l 0.42582,-0.26613 q -0.15968,-0.74517 -0.7984,-0.74517 -0.21291,0 -0.69195,0.10645 -0.47904,0.10645 -0.74517,0.10645 -0.5855,0 -0.90486,-0.42581 z m -2.87424,2.66133 q -2.18229,0.10646 -10.96469,0 -6.75979,-0.10645 -10.96469,0.53227 -0.31936,0.0532 -0.69195,0.10645 -0.31936,0.0532 -0.21291,0.42582 0.7984,0.37258 2.3952,0.47904 1.80971,0.15968 2.50166,0.37258 2.50165,-0.10645 6.3872,0 5.05653,0.10646 6.22752,0.10646 5.53557,0 9.42112,-0.85163 v -0.42581 q -1.3839,-0.37259 -4.09846,-0.74518 z m -2.55488,2.9807 -13.04053,0.0532 q -1.33067,0.21291 -4.04523,0.7984 0.42582,0.5855 1.80971,0.53227 2.02261,-0.0532 2.07584,-0.0532 2.60811,0.42582 5.85493,0.42582 1.75648,0 5.00331,-0.15968 3.51296,-0.15968 5.05653,-0.15968 l 0.90486,-0.47904 q -0.26614,-0.53227 -1.27744,-0.5855 -0.7984,0 -1.5968,0 -0.47904,-0.0532 -0.74518,-0.37258 z" /><path
       id="path864"
       style=""
       d="m 369.542,405.15585 q 0.37259,-0.21291 1.01131,-0.15968 0.7984,0 0.95808,0 0.53226,-0.10646 0.63872,-0.5855 -1.75648,-0.0532 -5.42912,-0.37258 -3.67264,-0.31936 -5.69525,-0.31936 -1.5968,0 -3.03392,0.10645 -0.69195,0.31936 -2.02262,0.31936 h -0.95808 q -1.65002,0 -2.34197,0.47904 l 0.42581,0.42581 q 9.04853,0.53227 10.48565,0.53227 3.40651,0 5.96139,-0.42581 z m 3.67264,2.82101 q 0.26613,-0.21291 1.01131,-0.15968 0.7984,0 1.0113,-0.0532 0.47904,-0.10645 0.47904,-0.69194 -3.51296,-0.63872 -8.72917,-0.63872 -1.70325,0 -5.10976,0.10645 -3.35328,0.0532 -5.0033,0.0532 -1.91616,0 -3.45974,-0.10646 -0.53226,0.26614 -2.02261,0.37259 -1.43712,0.10645 -2.02261,0.53227 l 0.31936,0.42581 q 4.04522,0.53227 9.68725,0.53227 -0.42581,0 13.83893,-0.37259 z m -25.5488,2.55488 q 4.95008,0.74517 13.46635,0.53227 9.7937,-0.21291 13.46634,0.0532 0.31936,-0.2129 1.80971,-0.37258 1.11776,-0.10646 1.33067,-0.85163 l -3.35328,-0.63872 q -7.71787,0.10645 -23.20683,0 -2.23552,0.47904 -3.61941,0.95808 0,0.31936 0.10645,0.31936 z m 11.07115,2.71456 v -0.63872 q -4.7904,-1.06453 -9.84693,-0.42581 -0.31936,0.26613 -1.22422,0.31936 -0.90485,0 -1.11776,0.58549 2.3952,0.74517 5.48235,0.74517 2.76779,0 6.70656,-0.58549 z m 9.7937,-0.85163 q -0.26613,0.10646 -0.69194,0.10646 -0.21291,0 -0.53227,0 -0.37259,-0.0532 -0.53227,-0.0532 -0.58549,0 -0.85162,0.47904 2.55488,0.7984 6.28074,0.7984 1.3839,0 6.01462,-0.26613 0.58549,-0.21291 0.47904,-0.74518 -4.20491,-0.74517 -6.54688,-0.74517 -1.96939,0 -3.61942,0.42581 z m -11.23082,3.56619 q -0.10645,-0.7984 -1.43712,-0.53227 -1.11776,-0.63872 -3.24683,-0.63872 -3.51296,0.0532 -3.24682,0.10646 -0.37259,0.15968 -1.70326,0.37258 -1.06453,0.15968 -1.38389,0.74518 2.3952,0.69194 5.42912,0.69194 3.14037,0 5.5888,-0.74517 z m 13.46634,-1.01131 q -0.31936,0.31936 -1.70325,0.26614 -1.17099,0 -1.17099,0.7984 2.02262,0.69194 5.05654,0.69194 2.71456,0 6.12106,-0.58549 l 0.15968,-0.42581 q -2.07584,-0.7984 -8.46304,-0.74518 z m -24.43103,3.72587 q 2.23552,0.69195 5.0033,0.69195 1.86294,0 3.67264,-0.31936 0.53227,0 1.5968,-0.10646 0.5855,-0.10645 0.53227,-0.85162 -2.87424,-0.63872 -8.19691,-0.42582 -0.31936,0.21291 -1.54357,0.37259 -0.90485,0.10645 -1.06453,0.63872 z m 21.55679,-0.42581 q 1.75648,1.06453 4.84363,1.06453 1.22421,0 3.1936,-0.21291 2.71456,-0.2129 3.08715,-0.26613 0.26613,-0.53227 0.26613,-0.53227 l -0.26613,-0.26613 q -4.68395,-0.53227 -6.33398,-0.53227 -2.82101,0 -4.7904,0.74518 z m -13.14698,3.67264 q 0.26613,-0.15968 1.5968,-0.15968 1.01131,0 1.01131,-0.74518 -1.5968,-0.58549 -4.25814,-0.58549 -4.15168,0 -4.41781,-0.0532 -0.26613,0.31936 -1.54357,0.53227 -1.01131,0.15968 -0.85163,0.85163 5.37589,0.47904 5.64203,0.47904 1.54357,0 2.82101,-0.31936 z m 13.73248,-1.11776 q -0.15968,0.0532 -0.37259,0.2129 -0.15968,0.10646 -0.0532,0.31936 2.55488,1.06454 8.5695,0.5855 0.26613,-0.15968 0.74517,-0.15968 0.15968,0 0.47904,0.0532 0.37259,0 0.47904,0 0.95808,0 1.01131,-0.7984 -2.76779,-0.7984 -5.80171,-0.7984 -2.55488,0 -5.05653,0.5855 z m -11.70987,3.72586 q 0.37259,-0.26613 0.37259,-0.74517 -5.00331,-0.69195 -6.3872,-0.69195 -2.92747,0 -4.63072,1.11776 2.71456,0.63872 6.06784,0.63872 2.34197,0 4.57749,-0.31936 z m 22.56811,-0.90485 q -4.5775,-0.53227 -6.44043,-0.53227 -2.76779,0 -4.84363,0.69195 v 0.42581 q 2.44843,0.74518 5.64203,0.74518 3.14037,0 5.85493,-0.69195 0.0532,-0.15968 -0.10645,-0.31936 -0.10645,-0.21291 -0.10645,-0.31936 z m -33.00053,3.03392 v 0.42581 q 5.53557,0.69195 5.85493,0.69195 1.43712,0 2.66133,-0.31936 0.21291,-0.21291 1.54358,-0.15968 1.0113,0 1.06453,-0.7984 -2.50165,-0.74517 -5.32267,-0.74517 -3.14037,0 -5.8017,0.90485 z m 30.17951,0.7984 q 0.21291,-0.10645 1.70326,-0.21291 1.06453,-0.0532 1.17098,-0.74517 -1.49034,-0.69195 -4.04522,-0.7984 0.85162,0.0532 -4.47104,0.10645 -0.26614,0.15968 -1.65003,0.26614 -1.01131,0.10645 -1.11776,0.85162 4.63072,0.69195 6.12107,0.69195 1.22421,0 2.28874,-0.15968 z m -19.21482,2.23552 v -0.47904 q -2.12907,-0.69195 -4.95008,-0.69195 -2.3952,0 -5.90816,0.5855 -0.26613,0.53226 -0.26613,0.58549 2.18229,0.69195 5.16298,0.69195 3.24683,0 5.96139,-0.69195 z m 13.25344,-1.17099 q -0.26614,0.21291 -1.3839,0.31936 -0.90485,0.15968 -1.11776,0.69195 2.02262,0.74517 4.89686,0.74517 1.17098,0 6.01461,-0.42581 0.58549,-0.21291 0.47904,-0.74517 -1.65003,-0.5855 -4.41781,-0.53227 -3.51296,0.0532 -4.47104,-0.0532 z m -15.48896,4.68395 q 0.26613,-0.21291 0.95808,-0.15968 0.74517,0 0.90485,-0.0532 0.42582,-0.10645 0.42582,-0.69194 -1.65003,-0.74518 -4.25814,-0.7984 -2.23552,0 -4.52426,0 -0.31936,0.42581 -1.27744,0.58549 -0.95808,0.10645 -1.06454,0.58549 2.71456,0.63872 8.83563,0.53227 z m 22.78101,-1.33067 q -1.96939,-0.53226 -4.20491,-0.53226 -2.82101,0 -5.5888,0.7984 l 0.0532,0.47904 q 1.96939,0.69194 4.73717,0.69194 1.33067,0 5.64203,-0.37258 0.0532,-0.10646 0.53227,-0.15968 0.31936,-0.10646 0.31936,-0.26614 0,-0.15968 -0.0532,-0.31936 -1.06453,-0.42581 -1.43712,-0.31936 z m -19.58741,3.56619 q 0.37259,-0.47904 -0.15968,-0.7984 -5.64203,-0.58549 -8.94208,-0.26613 -0.21291,0.10645 -1.38389,0.2129 -0.85163,0.0532 -0.95808,0.74518 2.18229,0.69194 5.21621,0.69194 2.71456,0 6.22752,-0.58549 z m 18.78901,-0.95808 q -2.34197,-0.37259 -4.73717,-0.37259 -2.76779,0 -5.26944,0.47904 -0.42582,0.26614 -0.10646,0.74518 2.92747,0.69194 5.90816,0.69194 2.60811,0 4.73718,-0.53226 1.70325,-0.0532 1.65002,-0.74518 -0.31936,-0.31936 -1.0113,-0.26613 -1.06454,0.0532 -1.17099,0 z m -2.12907,2.3952 -7.87754,0.10645 q -1.96939,0 -5.64203,-0.15968 -3.88554,-0.15968 -5.53557,-0.15968 -4.89685,0 -8.14368,0.95808 0.26613,0.69195 1.06453,0.69195 0.10646,0 0.37259,0 0.31936,0 0.47904,0 0.63872,0 1.01131,0.26613 0.74517,0 13.51957,0.0532 8.14368,0.0532 13.46634,-0.53227 l 0.42582,-0.26613 q -0.15968,-0.74517 -0.7984,-0.74517 -0.21291,0 -0.69195,0.10645 -0.47904,0.10645 -0.74517,0.10645 -0.5855,0 -0.90486,-0.42581 z m -2.87424,2.66133 q -2.18229,0.10646 -10.96469,0 -6.75978,-0.10645 -10.96469,0.53227 -0.31936,0.0532 -0.69195,0.10645 -0.31936,0.0532 -0.2129,0.42582 0.7984,0.37258 2.3952,0.47904 1.8097,0.15968 2.50165,0.37258 2.50165,-0.10645 6.3872,0 5.05653,0.10646 6.22752,0.10646 5.53557,0 9.42112,-0.85163 v -0.42581 q -1.3839,-0.37259 -4.09846,-0.74518 z m -2.55488,2.9807 -13.04053,0.0532 q -1.33066,0.21291 -4.04522,0.7984 0.42581,0.5855 1.8097,0.53227 2.02262,-0.0532 2.07584,-0.0532 2.60811,0.42582 5.85493,0.42582 1.75648,0 5.00331,-0.15968 3.51296,-0.15968 5.05653,-0.15968 l 0.90486,-0.47904 q -0.26614,-0.53227 -1.27744,-0.5855 -0.7984,0 -1.5968,0 -0.47904,-0.0532 -0.74518,-0.37258 z" /><path
       id="path866"
       style=""
       d="m 392.61742,409.99947 q -0.26613,0.15968 -1.38389,0.37259 -0.85163,0.15968 -0.95808,0.74517 2.28874,0.85163 5.16298,0.85163 3.03392,0 5.69526,-0.90485 v -0.47904 q -1.5968,-0.53227 -4.15168,-0.5855 -2.1823,0 -4.36459,0 z m 5.5888,4.63072 q 0.26613,-0.2129 1.5968,-0.37258 1.11776,-0.10646 1.27744,-0.85163 -2.07584,-0.69195 -7.87755,-0.63872 -0.15968,0.0532 -1.65002,0.31936 -1.06454,0.15968 -1.33067,0.74517 2.44843,0.85163 7.984,0.7984 z m 2.87424,2.12907 v -0.37259 q -1.54357,-0.63872 -3.992,-0.74517 -2.07584,0 -4.20491,0.0532 -0.26613,0.2129 -1.70325,0.37258 -1.01131,0.10646 -0.90485,0.7984 3.67264,0.69195 6.06784,0.69195 2.82101,0 4.73717,-0.7984 z m -0.21291,2.98069 0.26614,-0.26613 q -0.31936,-0.74517 -1.70326,-0.53227 -1.86293,-0.58549 -3.93877,-0.58549 -2.71456,0 -5.37589,0.95808 l 0.26613,0.47904 q 3.77909,0.42581 5.96139,0.42581 2.55488,0 4.52426,-0.47904 z m -1.06453,2.82102 q 0.21291,-0.21291 0.63872,-0.15968 0.42581,0 0.47904,-0.0532 0.31936,-0.0532 0.31936,-0.47904 -2.60811,-0.74517 -5.32267,-0.74517 -2.98069,0 -5.74848,0.90485 1.75648,1.06453 4.7904,1.06453 2.1823,0 4.84363,-0.53226 z m 11.01792,2.50165 v -0.53227 q -11.70987,-0.7984 -15.1696,-0.7984 -2.44843,0 -4.7904,0.15968 -6.91947,0.37259 -10.43243,1.01131 8.30336,1.01131 16.34059,1.01131 7.39851,0 14.05184,-0.85163 z m -2.3952,3.08715 q 0.85163,-0.10646 1.75648,-0.26614 0.90485,-0.15968 0.74517,-0.47904 -5.64202,-0.69194 -23.20682,-0.63872 -0.7984,0.21291 -4.04523,0.37259 -2.60811,0.10645 -3.14037,0.69195 5.0033,0.90485 13.04053,0.90485 6.33397,0 14.85024,-0.58549 z m 0.10645,2.71456 q 0.0532,-0.0532 1.43712,-0.15968 0.90486,-0.10646 1.06454,-0.42582 -4.47104,-0.69194 -10.9647,-0.7984 -5.74848,0 -11.49696,0 -0.7984,0.21291 -4.47104,0.42582 -2.92746,0.15968 -3.45973,0.69194 7.71787,0.63872 15.968,0.63872 6.28075,0 11.92277,-0.37258 z m -9.84693,3.08714 q 0.21291,-0.15968 0.69195,-0.15968 0.15968,0 0.53226,0 0.37259,0.0532 0.53227,0.0532 0.74517,0 0.74517,-0.53227 0,-0.15968 -0.0532,-0.42581 -2.55488,-0.58549 -8.09046,-0.53227 -0.26613,0.21291 -1.5968,0.42582 -1.0113,0.15968 -1.17098,0.69194 1.91616,0.7984 4.7904,0.7984 1.86293,0 3.61941,-0.31936 z m -8.09045,1.80971 q -0.31936,0.58549 -0.26614,0.63872 1.65003,0.63872 4.15168,0.69195 2.02262,0 4.04523,0 0.37259,-0.21291 1.5968,-0.37259 0.95808,-0.15968 1.22421,-0.63872 -2.07584,-0.90485 -4.89685,-0.90485 -1.91616,0 -5.85493,0.58549 z m 8.30336,2.50165 q -0.53227,-0.10645 -1.91616,-0.10645 -1.33067,0 -2.12907,-0.26613 -0.31936,0.31936 -1.11776,0.31936 -0.7984,0 -1.06453,0.15968 -0.69195,0.0532 -1.33067,0.15968 -0.85163,0.15968 -1.01131,0.74517 2.12907,0.69195 5.00331,0.69195 3.08715,0 5.85493,-0.74518 0.0532,-0.58549 -0.42581,-0.69194 -0.10645,0 -1.01131,0 -0.63872,0 -0.85162,-0.26614 z m 2.50165,3.40651 q -3.03392,-1.11776 -8.14368,-0.90485 -0.31936,0.2129 -1.65003,0.37258 -1.06453,0.15968 -1.33066,0.69195 2.28874,0.90485 5.37589,0.90485 3.30005,0 5.74848,-1.06453 z m -7.82432,2.18229 q -0.0532,0 -1.43712,0.15968 -0.85163,0.10646 -1.06453,0.69195 0.95808,-0.15968 2.66133,0.31936 1.70325,0.47904 2.44843,0.47904 0.63872,0 1.27744,-0.31936 0.69194,-0.26613 0.95808,-0.26613 0.53226,0 1.06453,0 0.63872,-0.0532 0.95808,-0.31936 -3.08715,-1.11776 -4.7904,-1.11776 -1.11776,0 -2.07584,0.37258 z" /></g></g>
</g>
</g>
</svg>