<?xml version="1.0" encoding="utf-8"?>
<!-- Generator: Adobe Illustrator 16.0.3, SVG Export Plug-In . SVG Version: 6.00 Build 0)  -->
<!DOCTYPE svg PUBLIC "-//W3C//DTD SVG 1.1//EN" "http://www.w3.org/Graphics/SVG/1.1/DTD/svg11.dtd">
<svg version="1.1" id="Ebene_2" xmlns="http://www.w3.org/2000/svg" xmlns:xlink="http://www.w3.org/1999/xlink" x="0px" y="0px"
	 width="566.929px" height="92.934px" viewBox="0 0 566.929 92.934" enable-background="new 0 0 566.929 92.934"
	 xml:space="preserve">
<g>
	<g>
		<path d="M162.729,4.833c3.574-4.573,10.968-5.352,15.352-1.52c1.792,1.51,3.048,3.595,3.689,5.837
			c8.115,27.924,16.267,55.834,24.372,83.76c-4.791,0.003-9.582-0.006-14.371,0.003c-2.258-7.694-4.463-15.41-6.693-23.114
			c-9.26-0.027-18.519-0.008-27.777-0.011c-2.269,7.701-4.505,15.411-6.733,23.13c-4.763-0.019-9.525-0.008-14.29-0.011
			c7.71-26.636,15.428-53.272,23.175-79.901C160.374,10.221,160.718,7.107,162.729,4.833 M171.183,21.943
			c-3.396,11.568-6.723,23.16-10.098,34.734c6.73,0.03,13.458,0.011,20.186,0.011C177.903,45.107,174.551,33.525,171.183,21.943z"/>
		<path d="M263.614,5.434c2.495-3.62,7.32-5.379,11.567-4.261c3.89,0.897,6.865,4.248,7.893,8.021
			c8.106,27.905,16.241,55.796,24.346,83.694c-4.794,0.043-9.589,0-14.384,0.021c-2.228-7.704-4.435-15.421-6.681-23.122
			c-9.245,0.003-18.489-0.02-27.733,0.006c-2.21,7.713-4.487,15.405-6.698,23.113c-4.759,0.003-9.517,0-14.274,0.003
			c7.704-26.78,15.501-53.539,23.268-80.303C261.733,10.187,262.046,7.523,263.614,5.434 M262.448,56.688
			c6.702,0.009,13.401,0.003,20.102,0.003c-3.332-11.604-6.719-23.193-10.045-34.8C269.158,33.491,265.777,45.083,262.448,56.688z"
			/>
		<path d="M195.418,1.034c17.325,0,34.65,0,51.97,0c0,4.675,0,9.344,0,14.018c-6.378,0.005-12.755-0.007-19.131,0.005
			c0,25.952,0.004,51.902-0.003,77.854c-4.566,0-9.139,0-13.706,0c0-25.951-0.004-51.901,0.004-77.854
			c-6.379-0.012-12.755,0-19.133-0.005C195.418,10.379,195.415,5.708,195.418,1.034z"/>
		<path d="M322.652,1.604c1.316-0.455,2.721-0.61,4.111-0.577c5.462,0.021,10.923,0.003,16.388,0.007
			c9.198,0.168,17.979,5.88,21.961,14.159c2.756,5.377,3.041,11.631,2.345,17.53c-0.476,6.176-3.069,12.349-7.814,16.44
			c-2.508,2.238-5.632,3.592-8.314,5.578c-1.474,1.126-1.544,3.302-0.785,4.861c7.25,11.194,14.789,22.207,22.188,33.307
			c-5.412,0.011-10.825-0.014-16.238,0.011c-7.088-10.645-14.101-21.344-21.16-32c-2.075-3.031-2.637-7.051-1.396-10.516
			c0.969-2.654,3.292-4.599,5.876-5.599c4.935-1.882,9.798-4.842,12.533-9.498c2.077-3.503,1.973-7.818,1.039-11.649
			c-1.098-4.972-5.943-8.888-11.061-8.714c-3.542,0.024-7.079-0.021-10.614,0.016c-1.6-0.037-3.106,1.353-3.086,2.979
			c-0.018,24.99,0.009,49.985-0.006,74.979c-4.603-0.008-9.203,0-13.807-0.008c-0.01-26.902,0.007-53.814-0.01-80.717
			C314.825,7.475,318.18,3.037,322.652,1.604z"/>
		<path d="M379.969,1.034c4.842,0,9.682,0,14.528,0c-0.005,30.63,0.004,61.251-0.009,91.876c-4.838-0.011-9.678,0-14.52-0.003
			C379.969,62.282,379.969,31.661,379.969,1.034z"/>
	</g>
	<g>
		<path d="M40.963,0.865c2.326-0.007,4.651,0,6.981-0.004c0.008,5.47,0,10.942,0.003,16.41c0.022,4.567-0.106,9.131-0.295,13.694
			c-0.312,6.586-0.725,13.188-1.814,19.696c-0.75,4.488-2.305,8.821-4.229,12.932c-3.142,6.622-8.081,12.226-13.632,16.938
			c-4.964,4.372-10.892,7.555-17.126,9.703C7.324,91.455,3.694,92.386,0,92.91c0.003-4.588,0.003-9.179,0-13.765
			c4.449-0.67,8.726-2.249,12.696-4.337c4.712-2.492,8.954-5.841,12.526-9.794c3.688-4.077,6.626-8.801,8.856-13.814
			c2.627-5.763,4.033-11.994,4.989-18.229c1.198-7.927,1.697-15.951,1.882-23.958C40.979,6.299,40.956,3.583,40.963,0.865z"/>
		<path d="M50.75,0.875c4.283-0.028,8.565-0.003,12.85-0.01c0.001,30.68,0.001,61.364,0,92.042
			c-4.274,0.011-8.547-0.019-12.82,0.021c-0.052-9.781-0.007-19.571-0.022-29.351C50.752,42.678,50.766,21.778,50.75,0.875z"/>
		<path d="M66.458,0.865c2.315-0.004,4.627-0.007,6.939,0c-0.076,9.355,0.244,18.73,1.358,28.021
			c0.913,7.22,2.201,14.494,5.076,21.218c2.725,6.505,6.654,12.553,11.774,17.431c4.892,4.663,10.814,8.248,17.252,10.309
			c1.796,0.571,3.632,1.021,5.501,1.299c-0.001,4.586-0.004,9.171,0,13.757c-3.669-0.499-7.267-1.446-10.769-2.636
			c-4.169-1.449-8.202-3.329-11.907-5.742c-2.704-1.733-5.163-3.816-7.524-5.987c-3.894-3.593-7.377-7.67-9.996-12.294
			c-2.046-3.598-3.54-7.486-4.711-11.448c-1.073-3.983-1.528-8.107-1.945-12.201c-0.805-8.856-1.106-17.753-1.05-26.64
			C66.458,10.923,66.456,5.895,66.458,0.865z"/>
		<path d="M50.75,0.875c0.015,20.902,0.003,41.803,0.008,62.7c0.014,9.78-0.032,19.567,0.022,29.352
			c4.273-0.039,8.547-0.01,12.82-0.021c0.001-30.678,0.001-61.361,0-92.045C59.317,0.872,55.034,0.848,50.75,0.875"/>
		<path d="M66.458,0.865c-0.002,5.028,0,10.058,0,15.085c-0.057,8.884,0.245,17.783,1.05,26.64
			c0.417,4.094,0.872,8.218,1.945,12.201c1.169,3.962,2.665,7.851,4.711,11.448c2.618,4.624,6.102,8.701,9.996,12.294
			c2.363,2.174,4.82,4.254,7.524,5.987c3.705,2.413,7.738,4.29,11.907,5.742c3.501,1.189,7.1,2.134,10.769,2.636
			c-0.004-4.586-0.001-9.171,0-13.757c-1.867-0.274-3.706-0.728-5.501-1.299c-6.438-2.061-12.361-5.646-17.252-10.309
			c-5.12-4.872-9.049-10.924-11.774-17.431c-2.875-6.724-4.163-13.998-5.076-21.218c-1.115-9.291-1.434-18.666-1.358-28.021
			C71.084,0.858,68.771,0.861,66.458,0.865"/>
	</g>
	<g>
		<path d="M432.911,59.248l1.673,1.314c5.853,4.538,12.9,8.242,20.426,8.242c3.225,0,8.361-1.313,8.361-5.377
			c0-4.061-4.301-4.418-7.286-5.016l-6.571-1.193c-12.78-2.27-23.531-9.797-23.531-23.893C425.982,11.945,445.454,0,465.044,0
			c10.272,0,19.708,2.508,28.548,7.884l-8.84,23.054c-5.613-3.821-11.943-6.808-18.991-6.808c-2.867,0-7.049,1.073-7.049,4.776
			c0,3.346,4.063,3.823,6.569,4.419L472.688,35c13.855,3.104,23.89,10.511,23.89,25.801c0,21.5-19.59,32.133-39.06,32.133
			c-11.35,0-24.488-3.107-34.642-8.243L432.911,59.248z"/>
		<path d="M498.126,1.433h68.803V26.7l-18.036,0.051V91.5h-32.729V26.75L498.126,26.7V1.433z"/>
	</g>
</g>
</svg>
