<?xml version="1.0" encoding="utf-8"?>
<!-- Generator: Adobe Illustrator 16.0.3, SVG Export Plug-In . SVG Version: 6.00 Build 0)  -->
<!DOCTYPE svg PUBLIC "-//W3C//DTD SVG 1.1//EN" "http://www.w3.org/Graphics/SVG/1.1/DTD/svg11.dtd">
<svg version="1.1" id="Layer_1" xmlns="http://www.w3.org/2000/svg" xmlns:xlink="http://www.w3.org/1999/xlink" x="0px" y="0px"
	 width="566.929px" height="92.175px" viewBox="0 0 566.929 92.175" enable-background="new 0 0 566.929 92.175"
	 xml:space="preserve">
<g>
	<g>
		<path d="M18.421,92.138l1.372-18.127h7.505l1.511,18.127h18.522L35.72,0.45H11.787L0,92.138H18.421 M26.213,58.883h-5.337
			l2.706-35.63L26.213,58.883 M77.555,0.45H51.749v91.688h17.652V39.921l7.301,52.216h11.463l7.014-51.932v51.932h17.651V0.45
			H86.987l-4.799,40.498L77.555,0.45 M116.043,11.608c-0.012,6.318-0.084,12.634-0.033,18.955c0.033,1.033,0.096,2.065,0.156,2.808
			c0.134,1.565,0.257,2.042,0.518,3.058c0.268,1.004,0.72,2.259,1.432,3.368c0.334,0.531,0.71,1.036,1.269,1.646
			c0.559,0.61,1.301,1.325,2.083,1.993c1.611,1.394,3.367,2.47,5.129,3.4c3.851,2.129,7.678,4.232,11.555,6.39
			c0.52,0.329,1.071,0.605,1.619,1.137c1.332,1.28,1.328,2.768,1.309,4.191l0.074,1.98l0.028,12.415
			c0.012,0.907-0.075,1.802-0.512,2.765c-0.149,0.28-0.354,0.539-0.6,0.75c-0.782,0.651-1.768,0.822-2.742,0.433
			c-0.3-0.125-0.576-0.306-0.81-0.531c-0.982-0.945-0.869-2.287-1.01-3.438L135.5,54.243h-19.514l0.02,20.921
			c0.016,2.568,0.033,5.002,0.589,7.518c0.299,1.297,0.776,2.645,1.5,3.852c0.724,1.207,1.691,2.273,2.826,3.106
			c1.134,0.832,2.434,1.43,3.461,1.785c1.028,0.355,1.784,0.467,2.54,0.558s1.511,0.191,2.269,0.191l19.826-0.001
			c0.898,0,1.798,0.04,2.905-0.265c1.109-0.304,2.422-0.844,3.557-1.565c1.137-0.722,2.096-1.625,2.756-2.593
			c0.66-0.968,1.023-2.002,1.336-2.934s0.574-1.763,0.765-2.872c0.191-1.108,0.313-2.494,0.382-3.881
			c0.066-1.387,0.033-2.775,0.033-4.163V59.203c0-0.276,0-0.553-0.008-1.174c-0.006-0.621-0.018-1.586-0.061-2.689
			c-0.043-1.104-0.118-2.344-0.186-3.146c-0.067-0.801-0.127-1.163-0.201-1.523c-0.074-0.359-0.164-0.715-0.265-1.069
			c-0.101-0.353-0.212-0.704-0.495-1.312c-0.281-0.607-0.733-1.473-1.278-2.277c-0.544-0.804-1.18-1.546-1.89-2.208
			c-0.711-0.661-1.496-1.24-2.37-1.838c-1.807-1.227-3.822-2.482-5.766-3.56l-8.284-4.52c-0.499-0.272-0.991-0.557-1.466-0.869
			c-0.476-0.313-0.935-0.647-1.211-0.857c-0.497-0.379-0.498-0.429-0.707-0.651c-0.082-0.093-0.161-0.188-0.298-0.413
			c-0.312-0.497-0.689-1.371-0.759-2.11c-0.049-0.397-0.007-0.797-0.007-1.198c0.005-2.886-0.015-5.865,0.014-8.657
			c-0.017-0.65-0.001-1.393,0.24-2.087c0.111-0.341,0.257-0.671,0.438-0.949c0.94-1.257,2.065-1.441,3.305-0.92
			c0.282,0.147,0.542,0.359,0.762,0.606s0.4,0.527,0.529,0.83c0.128,0.302,0.206,0.625,0.257,1.072
			c0.105,0.921,0.114,2.188,0.107,3.302V31.89h19.598c-0.021-5.63,0.068-11.255-0.063-16.891c-0.055-1.304-0.149-2.607-0.229-3.466
			c-0.079-0.859-0.145-1.273-0.227-1.684c-0.085-0.411-0.185-0.817-0.301-1.221c-0.116-0.403-0.245-0.803-0.553-1.489
			c-0.307-0.686-0.79-1.657-1.424-2.523c-0.634-0.866-1.419-1.625-2.302-2.24c-0.884-0.615-1.865-1.084-2.707-1.387
			c-1.657-0.569-2.919-0.665-4.359-0.849c-0.706-0.075-1.414-0.145-2.124-0.139l-16.964,0.136c-1.947,0.063-3.875,0.305-5.903,0.873
			c-0.618,0.189-1.198,0.427-1.75,0.719c-1.11,0.606-2.034,1.269-2.993,2.447c-0.483,0.599-0.994,1.363-1.413,2.174
			C116.59,8.011,116.083,9.822,116.043,11.608 M163.976,0.45v14.789h9.775v76.898h19.598V15.239h9.701V0.45H163.976 M229.18,0.45
			h-20.866v91.688h19.569V55.591c1.282,0.049,2.563-0.108,3.863,0.293c0.274,0.098,0.531,0.246,0.752,0.435
			c0.904,0.776,0.834,1.767,0.973,2.703c0.17,1.881,0.037,3.771,0.084,5.654v27.461h19.568l-0.018-28.663
			c-0.031-2.825-0.223-5.624-0.839-8.45c-0.173-0.638-0.402-1.276-0.688-1.905c-0.433-1.004-1.019-1.943-1.732-2.772
			c-0.713-0.829-1.554-1.549-2.482-2.126s-1.947-1.011-3.006-1.285c0.511-0.127,1.017-0.287,1.519-0.48
			c1.007-0.383,1.952-0.93,2.786-1.612c0.833-0.683,1.555-1.502,2.127-2.415c0.57-0.913,0.993-1.919,1.248-2.966
			c0.209-0.75,0.384-1.504,0.525-2.262c0.459-3.09,0.623-6.187,0.561-9.291v-9.6c0.061-1.895-0.029-3.802-0.271-5.699
			c-0.118-0.945-0.274-1.886-0.442-2.666c-0.167-0.781-0.346-1.402-0.578-2.004c-0.232-0.602-0.516-1.184-0.846-1.737
			c-0.331-0.554-0.709-1.079-1.129-1.569c-0.656-0.7-1.396-1.321-2.201-1.844c-1.67-1.083-3.544-1.688-5.393-1.846
			C237.91,0.438,233.543,0.581,229.18,0.45 M227.883,15.358c0.924,0.007,1.841,0.018,2.768,0.022c0.442,0.04,0.895,0.152,1.333,0.35
			c1.273,0.838,1.338,1.902,1.454,2.93c0.082,1.154,0.078,2.315,0.117,3.474c-0.016,4.017,0.051,8.032-0.047,12.048
			c-0.01,0.717-0.07,1.432-0.177,2.146c-0.033,0.334-0.131,0.663-0.288,0.96c-0.156,0.297-0.371,0.563-0.629,0.779
			c-0.592,0.533-1.38,0.56-2.091,0.644c-0.81,0.077-1.627,0.086-2.44,0.029V15.358 M275.575,92.138l1.371-18.127h7.506l1.51,18.127
			h18.522L292.874,0.45H268.94l-11.785,91.688H275.575 M283.368,58.883h-5.338l2.706-35.63L283.368,58.883 M351.087,6.108
			c-0.671-1.077-1.538-2.035-2.546-2.802c-1.01-0.768-2.158-1.345-3.013-1.688s-1.415-0.451-1.974-0.55
			c-0.561-0.099-1.12-0.187-1.682-0.252c-0.563-0.064-1.127-0.105-2.467-0.165c-1.34-0.059-3.455-0.191-5.571-0.192L308.46,0.45
			v91.688l31.104-0.052c0.774-0.002,1.532-0.222,2.292-0.356c1.605-0.289,3.016-0.594,4.523-1.276
			c0.793-0.356,1.646-0.831,2.421-1.416c0.774-0.585,1.472-1.282,2.13-2.356c0.658-1.075,1.277-2.526,1.732-4.301
			c0.453-1.774,0.801-3.871,0.796-5.971l-0.136-62.58c-0.004-1.429-0.362-2.84-0.727-4.146
			C352.233,8.379,351.758,7.185,351.087,6.108 M329.263,15.438c0.417,0,0.835-0.033,1.238,0.017c0.405,0.05,0.792,0.144,1.112,0.244
			s0.57,0.209,0.795,0.359c0.224,0.15,0.421,0.342,0.578,0.562c0.678,1.017,0.594,2.464,0.654,3.747V73.17
			c0,0.39-0.002,0.78-0.057,1.16c-0.057,0.378-0.149,0.746-0.271,1.065s-0.272,0.592-0.472,0.824
			c-0.198,0.232-0.445,0.423-0.715,0.576c-0.27,0.153-0.554,0.339-0.865,0.339h-3.205V15.438H329.263"/>
	</g>
	<g>
		<path d="M429.747,82.679l-21.398,0c-2.561-0.081-4.542-0.188-5.889-0.313c-1.109-0.104-1.934-0.477-2.565-1.178
			c-0.588-0.59-0.938-1.54-1.046-2.821c-0.127-1.505-0.23-3.796-0.313-6.783V20.113c0-2.498,0.082-4.492,0.245-5.927
			c0.142-1.25,0.579-2.192,1.366-2.913c0.689-0.691,1.471-1.078,2.391-1.18c1.098-0.122,3.085-0.185,5.906-0.185h21.303v14.871
			h9.966V0.45h-33.769c-2.479,0-4.978,0.152-7.428,0.452c-2.611,0.322-4.953,1.41-6.992,3.267c-2.102,2.102-3.329,4.65-3.65,7.576
			c-0.298,2.721-0.449,6.049-0.449,9.893V73.11c0,3.428,0.152,6.335,0.453,8.642c0.323,2.499,1.422,4.7,3.265,6.54
			c1.84,1.843,4.101,2.962,6.722,3.329c2.444,0.344,5.592,0.518,9.351,0.518h32.626V67.809h-10.094V82.679z"/>
		<path d="M506.18,16.3c0-1.792-0.064-3.528-0.193-5.16c-0.135-1.718-0.531-3.268-1.176-4.608c-0.66-1.364-1.656-2.554-2.963-3.535
			c-1.298-0.971-3.1-1.693-5.408-2.155c-0.612-0.086-1.18-0.152-1.71-0.198c-0.517-0.042-1.182-0.084-1.997-0.129
			c-0.836-0.042-1.92-0.064-3.229-0.064h-41.331v9.458h8.641v72.771h-8.641v9.458h28.522v-9.458h-8.769V50.451h20.678
			c1.799,0,3.563-0.043,5.24-0.128c1.762-0.087,3.396-0.357,4.861-0.803c1.535-0.467,2.904-1.272,4.068-2.394
			c1.165-1.123,2.082-2.667,2.729-4.612c0.359-1.171,0.585-2.487,0.676-3.914c0.084-1.38,0.084-3.208,0.002-5.397V16.3z
			 M495.45,19.9v11.482c0,2.177-0.063,3.971-0.188,5.334c-0.107,1.208-0.422,2.15-0.932,2.8c-0.484,0.618-1.316,1.057-2.473,1.304
			c-1.317,0.282-3.27,0.426-5.803,0.426h-18.129V9.909h17.623c2.479,0,4.438,0.083,5.83,0.25c1.213,0.144,2.111,0.485,2.667,1.012
			c0.548,0.521,0.917,1.423,1.096,2.68C495.346,15.289,495.45,17.325,495.45,19.9z"/>
		<path d="M556.834,67.809v14.871l-21.398,0c-2.56-0.081-4.541-0.188-5.889-0.313c-1.107-0.104-1.935-0.477-2.563-1.178
			c-0.588-0.59-0.94-1.54-1.047-2.822c-0.125-1.5-0.231-3.79-0.313-6.782V20.113c0-2.498,0.082-4.492,0.245-5.926
			c0.146-1.252,0.579-2.194,1.368-2.914c0.689-0.692,1.472-1.078,2.389-1.18c1.098-0.122,3.085-0.185,5.906-0.185h21.303v14.871
			h9.969V0.45h-33.771c-2.478,0-4.976,0.152-7.426,0.452c-2.613,0.322-4.955,1.41-6.994,3.267c-2.101,2.102-3.328,4.65-3.648,7.575
			c-0.299,2.718-0.451,6.047-0.451,9.894V73.11c0,3.43,0.152,6.338,0.453,8.642c0.324,2.499,1.422,4.699,3.266,6.54
			c1.84,1.843,4.103,2.962,6.721,3.329c2.445,0.344,5.591,0.518,9.352,0.518h32.626V67.809H556.834z"/>
	</g>
</g>
</svg>
