<?xml version="1.0" encoding="UTF-8" standalone="no"?>
<svg
   xmlns:dc="http://purl.org/dc/elements/1.1/"
   xmlns:cc="http://creativecommons.org/ns#"
   xmlns:rdf="http://www.w3.org/1999/02/22-rdf-syntax-ns#"
   xmlns:svg="http://www.w3.org/2000/svg"
   xmlns="http://www.w3.org/2000/svg"
   xmlns:sodipodi="http://sodipodi.sourceforge.net/DTD/sodipodi-0.dtd"
   xmlns:inkscape="http://www.inkscape.org/namespaces/inkscape"
   viewBox="0 0 207.643 35.647"
   version="1.1"
   id="svg32"
   sodipodi:docname="logo.svg"
   inkscape:version="0.92.4 (5da689c313, 2019-01-14)">
  <metadata
     id="metadata38">
    <rdf:RDF>
      <cc:Work
         rdf:about="">
        <dc:format>image/svg+xml</dc:format>
        <dc:type
           rdf:resource="http://purl.org/dc/dcmitype/StillImage" />
        <dc:title></dc:title>
      </cc:Work>
    </rdf:RDF>
  </metadata>
  <defs
     id="defs36" />
  <sodipodi:namedview
     pagecolor="#ffffff"
     bordercolor="#666666"
     borderopacity="1"
     objecttolerance="10"
     gridtolerance="10"
     guidetolerance="10"
     inkscape:pageopacity="0"
     inkscape:pageshadow="2"
     inkscape:window-width="640"
     inkscape:window-height="480"
     id="namedview34"
     showgrid="false"
     inkscape:zoom="1.6759534"
     inkscape:cx="103.8215"
     inkscape:cy="17.8235"
     inkscape:window-x="0"
     inkscape:window-y="27"
     inkscape:window-maximized="0"
     inkscape:current-layer="svg32" />
  <path
     d="M4.252 35.631A4.252 4.252 0 0 1 0 31.379V7.66a4.252 4.252 0 0 1 4.252-4.252h10c7.224 0 9.883 5.928 9.908 9.913v4.621c0 5.844-4.954 8.918-9.556 9.3-.117.01-.234.015-.352.015h-.123v4.123a4.252 4.252 0 0 1-4.252 4.252H4.252z"
     id="path2" />
  <path
     d="M28.677 35.639c-1.42 0-4.196-.265-6.836-2.042-2.394-1.611-5.247-4.876-5.247-11.28 0-9.133 6.037-13.221 12.02-13.221 0 0 .444 0 .488.002 5.812.146 12.059 4.342 12.059 13.219 0 9.596-7.145 13.204-12.024 13.313-.107.004-.262.009-.46.009zm-1.125-12.562zm-.04-1.819z"
     id="path4" />
  <path
     d="M48.314 35.643a4.263 4.263 0 0 1-1.968-.482 4.238 4.238 0 0 1-1.97.482h-5.089a4.252 4.252 0 0 1-4.252-4.252V6.272a4.252 4.252 0 0 1 4.252-4.252h5.089a4.252 4.252 0 0 1 4.252 4.252v2.827h5.123a4.254 4.254 0 0 1 3.511 6.652l-3.976 5.815 4.208 7.808a4.253 4.253 0 0 1-3.743 6.269h-5.437z"
     id="path6" />
  <path
     d="M62.377 35.631c-7.816 0-12.033-6.86-12.033-13.314 0-8.279 4.347-13.221 11.627-13.221 4.69 0 8.335 2.225 10.264 6.264 1.269 2.657 1.332 5.196 1.332 5.677v3.312a4.24 4.24 0 0 1-1.344 3.102v2.898c0 .605-.129 1.203-.379 1.755-1.417 3.125-5.804 3.527-9.467 3.527z"
     id="path8" />
  <path
     d="M58.79 15.687a4.247 4.247 0 0 1-3.474-1.797l-1.922-2.718a4.252 4.252 0 0 1 1.431-6.186L61.553.673a4.25 4.25 0 0 1 5.609.917l2.254 2.807a4.254 4.254 0 0 1-1.132 6.312l-7.314 4.375a4.247 4.247 0 0 1-2.18.603z"
     id="path10" />
  <path
     d="M90.127 35.643a4.231 4.231 0 0 1-2.359-.714 4.231 4.231 0 0 1-2.359.714h-4.25a4.228 4.228 0 0 1-2.406-.746 4.228 4.228 0 0 1-2.406.746h-4.5a4.252 4.252 0 0 1-4.252-4.252v-18.04a4.252 4.252 0 0 1 4.252-4.252h2.594c1.004 0 1.95.205 2.787.594 1.07-.367 2.366-.594 3.932-.594 1.728 0 3.224.284 4.476.849 1.214-.529 2.701-.849 4.493-.849 3.205 0 5.182 1.389 6.275 2.553 2.34 2.493 2.418 5.757 2.383 6.738v13a4.252 4.252 0 0 1-4.252 4.252h-4.408zm-.46-14.431c.009 0-.001-.234-.005-.234l-.001.208c.002.018.005.026.006.026z"
     id="path12" />
  <path
     d="M105.177 35.647c-1.42 0-4.196-.265-6.836-2.042-2.394-1.611-5.247-4.876-5.247-11.28 0-9.132 6.037-13.22 12.02-13.22 0 0 .44 0 .481.002 5.815.139 12.065 4.332 12.065 13.218 0 9.597-7.145 13.204-12.024 13.313-.106.005-.261.009-.459.009zm-1.125-12.56zm-.04-1.819z"
     id="path14" />
  <path
     d="M126.096 35.643a4.232 4.232 0 0 1-2.656-.932 4.234 4.234 0 0 1-2.656.932h-4.906a4.251 4.251 0 0 1-4.252-4.252v-18.04a4.252 4.252 0 0 1 4.252-4.252h3.531c.947 0 1.842.225 2.63.65 1.14-.404 2.483-.65 4.058-.65 2.436 0 4.559.841 6.14 2.432 2.57 2.586 2.679 6.112 2.675 6.792v13.068a4.251 4.251 0 0 1-4.252 4.252h-4.564zM151.429 35.644a5.516 5.516 0 0 1-2.674-.687 5.236 5.236 0 0 1-.871-.609c-.879.787-2.061 1.295-3.493 1.295h-3.05c-.105 0-.212-.004-.316-.012-2.357-.176-4.863-2.087-4.863-5.281l.001-15.183c.069-2.791 2.1-5.767 5.847-6.056.108-.008.218-.013.327-.013h21.09c3.564 0 6.253 2.654 6.253 6.174V30.35c0 .697-.151 2.357-1.456 3.72-.972 1.015-2.31 1.573-3.768 1.573l-3.152-.001a5.434 5.434 0 0 1-3.445-1.374c-.881.828-2.071 1.375-3.523 1.375l-2.907.001z"
     id="path16" />
  <path
     d="M171.235 35.642c-2.534-.066-5.154-2.063-5.154-5.292v-7.054c0-.064.001-.129.004-.193.111-2.436 2.004-5.024 5.292-5.024.403 0 .797.005 1.134.01l.502.005a5.352 5.352 0 0 1 .405-.017c2.909 0 5.188 2.292 5.188 5.219v7.054c0 .14-.007.278-.021.417-.273 2.779-2.5 4.876-5.178 4.876l-2.172-.001z"
     id="path18" />
  <path
     d="M171.373 23.553a5.571 5.571 0 0 1-2.469-.592c-1.768-.897-2.823-2.642-2.823-4.666v-3.023c-.001-.65.146-2.333 1.537-3.727.981-.983 2.322-1.525 3.774-1.525h2c2.565 0 5.214 1.964 5.214 5.252v2.903c.054 1.352-.431 2.718-1.325 3.708-.975 1.077-2.351 1.67-3.873 1.67l-1.815-.006a6.84 6.84 0 0 1-.22.006z"
     id="path20" />
  <path
     d="M190.377 35.643c-1.354 0-2.599-.471-3.549-1.334a5.55 5.55 0 0 1-3.513 1.334h-2.938c-3.209 0-5.205-2.626-5.281-5.165a4.406 4.406 0 0 1 .022-.587c.037-1.206.005-7.479-.012-10.549-.007-1.417-.013-2.549-.013-3.05 0-4.041 3.22-6.247 6.248-6.272h10.004c3.998 0 6.205 3.198 6.251 6.206l.001 14.124c0 3.236-2.539 5.138-4.929 5.285a4.549 4.549 0 0 1-.261.008h-2.03z"
     id="path22" />
  <path
     d="M200.268 35.642c-2.534-.066-5.154-2.063-5.154-5.292v-7.054c0-.064.001-.129.004-.193.111-2.436 2.004-5.024 5.292-5.024.403 0 .797.005 1.134.01l.502.005a5.352 5.352 0 0 1 .405-.017c2.909 0 5.188 2.292 5.188 5.219v7.054c0 .14-.007.278-.021.417-.273 2.779-2.5 4.876-5.178 4.876l-2.172-.001z"
     id="path24" />
  <path
     d="M200.405 23.553a5.571 5.571 0 0 1-2.469-.592c-1.768-.897-2.823-2.642-2.823-4.666v-3.023c-.001-.65.146-2.333 1.537-3.727.981-.983 2.322-1.525 3.774-1.525h2c2.565 0 5.214 1.964 5.214 5.252v2.903c.054 1.353-.431 2.719-1.325 3.708-.975 1.077-2.351 1.67-3.873 1.67l-1.815-.006a6.765 6.765 0 0 1-.22.006z"
     id="path26" />
  <path
     d="M4.252 7.66v23.719h5.625v-8.375h4.375s5.656-.469 5.656-5.063v-4.594s-.036-5.688-5.656-5.688l-10 .001zm5.625 4.594c.008.002 2.107 0 3 0 1.54.456 1.375 2.031 1.375 2.031v2c0 1.663-1.375 2-1.375 2h-3v-6.031zM28.627 13.347c-1.555-.003-7.781.492-7.781 8.969 0 9.688 8.125 9.063 8.125 9.063s7.938-.083 7.938-9.063-7.848-8.962-7.938-8.969h-.344zm.344 4.594s2.906-.469 2.906 4.375c0 4.487-2.906 4-2.906 4s-3.031.034-3.031-4c0-4.86 3.031-4.319 3.031-4.375zM39.288 6.272h5.089v13.719l3.938-6.64h5.438l-5.438 7.953 5.438 10.088h-5.438l-3.938-8.397v8.397h-5.089V6.272zM61.971 13.347c-6.002 0-7.375 4.582-7.375 8.969s2.655 9.063 7.781 9.063 5.594-1.031 5.594-1.031v-3.031c-.036-.011-4.197 0-6.406 0s-1.781-2.969-1.781-2.969h9.531v-3.313s.002-7.688-7.344-7.688zm.344 3.938c2.536 0 2.562 1 2.562 1v2.75h-5.094v-2.75s-.004-1 2.532-1zM56.864 8.716l1.922 2.718L66.1 7.059l-2.254-2.806-6.894 4.419-.088.044zM71.846 31.391h4.5V21.022s.188-2.727 2.5-2.727 2.313 2.727 2.313 2.727v10.369h4.25V21.022s.094-2.727 2.406-2.727c2.313 0 2.313 2.727 2.313 2.727v10.369h4.406V18.295s.313-4.945-4.406-4.945-4.719 2.942-4.719 2.942.563-2.942-4.25-2.942-4.813 2.942-4.813 2.942.688-2.942-1.906-2.942h-2.594v18.041zM105.127 13.357c-1.555-.003-7.781.492-7.781 8.969 0 9.688 8.125 9.063 8.125 9.063s7.938-.083 7.938-9.063-7.848-8.962-7.938-8.969h-.344zm.344 4.594s2.906-.469 2.906 4.375c0 4.487-2.906 4-2.906 4s-3.031.034-3.031-4c0-4.861 3.031-4.319 3.031-4.375zM115.877 31.391h4.906V21.022s-.125-2.727 2.594-2.727 2.719 2.727 2.719 2.727v10.369h4.563V18.295s.031-4.945-4.563-4.945c-4.594 0-5.313 2.942-5.313 2.942s.438-2.942-1.375-2.942h-3.531v18.041z"
     fill="#fff"
     id="path28" />
  <path
     d="M142.336 13.35h21.059s2.033-.078 2.033 1.922v15.077s.044 1.042-.972 1.042h-3.049s-1.016-.025-1.016-1.042v-9.327s-.088-1.191-.972-1.191h-3.049s-1.016-.117-1.016 1.191v9.327s-.133 1.042-1.016 1.042h-2.873s-1.105.063-1.105-1.042v-9.327s.309-1.191-1.061-1.191h-2.873s-1.016-.117-1.016 1.191v9.327s0 1.042-1.016 1.042h-3.049s-.928-.069-.928-1.042V15.272s.04-1.776 1.919-1.922zM173.377 22.33s.977-.074.977.965v7.054s-.102 1.042-.946 1.042h-2.063s-1.013-.027-1.013-1.042v-7.054s.044-.965 1.044-.965c1.001 0 1.939.036 2.001 0zM171.377 19.301s-1.044.018-1.044-1.005v-3.023s-.002-1 1.06-1h2s.962-.02.962 1v3.023s.101 1.005-.946 1.005-2.001-.013-2.032 0zM179.346 30.349s.031 1.042 1.031 1.042h2.938s1.031-.058 1.031-1.042v-9.327s.031-1.191 1-1.191h3s1.031-.117 1.031 1.191v9.327s-.063 1.042 1 1.042h2.031s.938-.058.938-1.042V16.292s-.031-2.02-2-2.02h-9.969s-2.031.017-2.031 2.02.093 14.168 0 14.057zM202.409 22.33s.977-.074.977.965v7.054s-.102 1.042-.946 1.042h-2.063s-1.013-.027-1.013-1.042v-7.054s.044-.965 1.044-.965c1.001 0 1.939.036 2.001 0zM200.409 19.301s-1.044.018-1.044-1.005v-3.023s-.002-1 1.06-1h2s.962-.02.962 1v3.023s.101 1.005-.946 1.005-2-.013-2.032 0z"
     fill="#f1d941"
     id="path30" />
</svg>
